<svg xmlns="http://www.w3.org/2000/svg" width="279.86" height="189.603" viewBox="0 0 279.86 189.603">
  <g id="adding-experience" transform="translate(0 0)" opacity="0.5">
    <circle id="Ellipse_1036" data-name="Ellipse 1036" cx="20.905" cy="20.905" r="20.905" transform="translate(168.733 75.978)" fill="#00a8cc" opacity="0.4"/>
    <rect id="Rectangle_1127" data-name="Rectangle 1127" width="116.575" height="31.595" transform="translate(73.54 125.809)" fill="#3f3d56"/>
    <path id="Path_3624" data-name="Path 3624" d="M641.447,255.655l-4.655,2.2,4.12-3.08a23.249,23.249,0,0,0-2.249-2.96l-20.187,5.018,18.235-6.956a23.233,23.233,0,0,0-2.648-2.018L603.3,252.816a23.053,23.053,0,0,0-5.049,14.387h46.3a23.04,23.04,0,0,0-3.109-11.547Z" transform="translate(-458.798 -208.125)" fill="#f2f2f2"/>
    <path id="Path_3625" data-name="Path 3625" d="M333.192,115.642a135.734,135.734,0,0,0-163.65,35.178C212.148,141.485,286.329,125.325,333.192,115.642Z" transform="translate(-146.856 -101.971)" fill="#f2f2f2"/>
    <rect id="Rectangle_1128" data-name="Rectangle 1128" width="277.819" height="0.545" transform="translate(0 188.999)" fill="#2f2e41"/>
    <path id="Path_3626" data-name="Path 3626" d="M640.013,256.333l-15.761-23.411s23.868,8.333,21.159,23.41Z" transform="translate(-477.716 -197.255)" fill="#3f3d56"/>
    <path id="Path_3627" data-name="Path 3627" d="M669.393,256.333l15.761-23.41s-23.868,8.333-21.159,23.41Z" transform="translate(-506.478 -197.255)" fill="#00a8cc"/>
    <path id="Path_3628" data-name="Path 3628" d="M472.6,332.191H355.752V157.873H472.6Zm-116.3-.545H472.055V158.418H356.3Z" transform="translate(-282.348 -142.647)" fill="#2f2e41"/>
    <rect id="Rectangle_1129" data-name="Rectangle 1129" width="116.303" height="0.545" transform="translate(73.813 19.361)" fill="#2f2e41"/>
    <circle id="Ellipse_1037" data-name="Ellipse 1037" cx="1.089" cy="1.089" r="1.089" transform="translate(75.719 16.315)" fill="#00a8cc"/>
    <circle id="Ellipse_1038" data-name="Ellipse 1038" cx="1.089" cy="1.089" r="1.089" transform="translate(78.715 16.315)" fill="#00a8cc"/>
    <circle id="Ellipse_1039" data-name="Ellipse 1039" cx="1.089" cy="1.089" r="1.089" transform="translate(81.711 16.315)" fill="#00a8cc"/>
    <rect id="Rectangle_1130" data-name="Rectangle 1130" width="4.903" height="2.724" transform="translate(77.898 23.125)" fill="#00a8cc"/>
    <rect id="Rectangle_1131" data-name="Rectangle 1131" width="23.969" height="2.724" transform="translate(77.898 44.642)" fill="#00a8cc"/>
    <rect id="Rectangle_1132" data-name="Rectangle 1132" width="23.969" height="2.724" transform="translate(187.119 25.848) rotate(180)" fill="#f2f2f2"/>
    <rect id="Rectangle_1133" data-name="Rectangle 1133" width="40.311" height="1.634" transform="translate(77.898 49.272)" fill="#f2f2f2"/>
    <rect id="Rectangle_1134" data-name="Rectangle 1134" width="38.132" height="1.634" transform="translate(77.898 52.813)" fill="#f2f2f2"/>
    <rect id="Rectangle_1135" data-name="Rectangle 1135" width="27.782" height="1.634" transform="translate(77.898 56.354)" fill="#f2f2f2"/>
    <rect id="Rectangle_1136" data-name="Rectangle 1136" width="15.798" height="1.634" transform="translate(87.159 104.836)" fill="#f2f2f2"/>
    <rect id="Rectangle_1137" data-name="Rectangle 1137" width="14.944" height="1.634" transform="translate(87.159 108.377)" fill="#f2f2f2"/>
    <rect id="Rectangle_1138" data-name="Rectangle 1138" width="10.887" height="1.634" transform="translate(87.159 111.918)" fill="#f2f2f2"/>
    <rect id="Rectangle_1139" data-name="Rectangle 1139" width="15.798" height="1.634" transform="translate(123.929 104.836)" fill="#f2f2f2"/>
    <rect id="Rectangle_1140" data-name="Rectangle 1140" width="14.944" height="1.634" transform="translate(123.929 108.377)" fill="#f2f2f2"/>
    <rect id="Rectangle_1141" data-name="Rectangle 1141" width="10.887" height="1.634" transform="translate(123.929 111.918)" fill="#f2f2f2"/>
    <rect id="Rectangle_1142" data-name="Rectangle 1142" width="15.798" height="1.634" transform="translate(162.061 104.836)" fill="#f2f2f2"/>
    <rect id="Rectangle_1143" data-name="Rectangle 1143" width="14.944" height="1.634" transform="translate(162.061 108.377)" fill="#f2f2f2"/>
    <rect id="Rectangle_1144" data-name="Rectangle 1144" width="10.887" height="1.634" transform="translate(162.061 111.918)" fill="#f2f2f2"/>
    <rect id="Rectangle_1145" data-name="Rectangle 1145" width="23.969" height="2.724" transform="translate(111.672 166.664)" fill="#00a8cc"/>
    <rect id="Rectangle_1146" data-name="Rectangle 1146" width="40.311" height="1.634" transform="translate(111.672 171.295)" fill="#f2f2f2"/>
    <rect id="Rectangle_1147" data-name="Rectangle 1147" width="38.132" height="1.634" transform="translate(111.672 174.835)" fill="#f2f2f2"/>
    <rect id="Rectangle_1148" data-name="Rectangle 1148" width="27.782" height="1.634" transform="translate(111.672 178.376)" fill="#f2f2f2"/>
    <rect id="Rectangle_1149" data-name="Rectangle 1149" width="94.785" height="0.545" transform="translate(85.116 74.058)" fill="#00a8cc" opacity="0.3"/>
    <rect id="Rectangle_1150" data-name="Rectangle 1150" width="20.155" height="17.977" transform="translate(84.98 83.591)" fill="#00a8cc" opacity="0.3"/>
    <rect id="Rectangle_1151" data-name="Rectangle 1151" width="20.155" height="17.977" transform="translate(121.75 83.591)" fill="#3f3d56"/>
    <rect id="Rectangle_1152" data-name="Rectangle 1152" width="20.155" height="17.977" transform="translate(159.882 83.591)" fill="#3f3d56"/>
    <path id="Path_3629" data-name="Path 3629" d="M559.9,450.13l-.266-.005c.006-.294.172-7.235,2.9-9.153l.153.218C560.07,443.031,559.9,450.059,559.9,450.13Z" transform="translate(-430.699 -348.638)" fill="#00a8cc"/>
    <circle id="Ellipse_1040" data-name="Ellipse 1040" cx="1.33" cy="1.33" r="1.33" transform="translate(131.916 89.587)" fill="#00a8cc"/>
    <path id="Path_3630" data-name="Path 3630" d="M568.765,449.4a4.139,4.139,0,0,1-2.136.092,3.773,3.773,0,0,1,3.879-1.33A4.14,4.14,0,0,1,568.765,449.4Z" transform="translate(-435.788 -353.786)" fill="#00a8cc"/>
    <path id="Path_3631" data-name="Path 3631" d="M699.9,450.13l-.266-.005c.006-.294.172-7.235,2.9-9.153l.153.218C700.07,443.031,699.9,450.059,699.9,450.13Z" transform="translate(-532.567 -348.638)" fill="#00a8cc"/>
    <circle id="Ellipse_1041" data-name="Ellipse 1041" cx="1.33" cy="1.33" r="1.33" transform="translate(170.048 89.587)" fill="#00a8cc"/>
    <path id="Path_3632" data-name="Path 3632" d="M708.765,449.4a4.14,4.14,0,0,1-2.136.092,3.773,3.773,0,0,1,3.879-1.33A4.14,4.14,0,0,1,708.765,449.4Z" transform="translate(-537.656 -353.786)" fill="#00a8cc"/>
    <rect id="Rectangle_1153" data-name="Rectangle 1153" width="23.969" height="2.724" transform="translate(77.898 135.886)" fill="#00a8cc"/>
    <rect id="Rectangle_1154" data-name="Rectangle 1154" width="40.311" height="1.634" transform="translate(77.898 140.517)" fill="#f2f2f2"/>
    <rect id="Rectangle_1155" data-name="Rectangle 1155" width="38.132" height="1.634" transform="translate(77.898 144.058)" fill="#f2f2f2"/>
    <rect id="Rectangle_1156" data-name="Rectangle 1156" width="27.782" height="1.634" transform="translate(77.898 147.598)" fill="#f2f2f2"/>
    <circle id="Ellipse_1042" data-name="Ellipse 1042" cx="8.511" cy="8.511" r="8.511" transform="translate(158.113 131.134)" fill="#00a8cc" opacity="0.4"/>
    <circle id="Ellipse_1043" data-name="Ellipse 1043" cx="5.97" cy="5.97" r="5.97" transform="translate(144.901 137.74)" fill="#00a8cc" opacity="0.4"/>
    <circle id="Ellipse_1044" data-name="Ellipse 1044" cx="21.517" cy="21.517" r="21.517" transform="translate(24.105 137.112)" fill="#2f2e41"/>
    <rect id="Rectangle_1157" data-name="Rectangle 1157" width="6.537" height="11.712" transform="translate(35.817 175.516)" fill="#2f2e41"/>
    <rect id="Rectangle_1158" data-name="Rectangle 1158" width="6.537" height="11.712" transform="translate(48.891 175.516)" fill="#2f2e41"/>
    <ellipse id="Ellipse_1045" data-name="Ellipse 1045" cx="5.447" cy="2.043" rx="5.447" ry="2.043" transform="translate(35.817 185.322)" fill="#2f2e41"/>
    <ellipse id="Ellipse_1046" data-name="Ellipse 1046" cx="5.447" cy="2.043" rx="5.447" ry="2.043" transform="translate(48.891 185.049)" fill="#2f2e41"/>
    <circle id="Ellipse_1047" data-name="Ellipse 1047" cx="7.354" cy="7.354" r="7.354" transform="translate(38.813 145.828)" fill="#fff"/>
    <circle id="Ellipse_1048" data-name="Ellipse 1048" cx="2.451" cy="2.451" r="2.451" transform="translate(43.716 147.462)" fill="#3f3d56"/>
    <path id="Path_3633" data-name="Path 3633" d="M176.269,562.856c-1.737-7.781,3.816-15.643,12.4-17.561s16.959,2.835,18.7,10.616-3.954,10.651-12.543,12.568S178.007,570.637,176.269,562.856Z" transform="translate(-151.52 -424.237)" fill="#00a8cc"/>
    <ellipse id="Ellipse_1049" data-name="Ellipse 1049" cx="10.759" cy="3.377" rx="10.759" ry="3.377" transform="translate(54.306 143.153) rotate(-65.077)" fill="#2f2e41"/>
    <ellipse id="Ellipse_1050" data-name="Ellipse 1050" cx="3.377" cy="10.759" rx="3.377" ry="10.759" transform="translate(14.392 133.428) rotate(-27.893)" fill="#2f2e41"/>
    <ellipse id="Ellipse_1051" data-name="Ellipse 1051" cx="3.377" cy="10.759" rx="3.377" ry="10.759" transform="translate(216.324 133.805) rotate(-21.078)" fill="#2f2e41"/>
    <circle id="Ellipse_1052" data-name="Ellipse 1052" cx="21.517" cy="21.517" r="21.517" transform="translate(221.762 137.303)" fill="#2f2e41"/>
    <rect id="Rectangle_1159" data-name="Rectangle 1159" width="6.537" height="11.712" transform="translate(253.164 187.391) rotate(179.84)" fill="#2f2e41"/>
    <rect id="Rectangle_1160" data-name="Rectangle 1160" width="6.537" height="11.712" transform="translate(240.09 187.428) rotate(179.84)" fill="#2f2e41"/>
    <ellipse id="Ellipse_1053" data-name="Ellipse 1053" cx="5.447" cy="2.043" rx="5.447" ry="2.043" transform="translate(242.265 185.517) rotate(-0.16)" fill="#2f2e41"/>
    <ellipse id="Ellipse_1054" data-name="Ellipse 1054" cx="5.447" cy="2.043" rx="5.447" ry="2.043" transform="translate(229.191 185.281) rotate(-0.16)" fill="#2f2e41"/>
    <circle id="Ellipse_1055" data-name="Ellipse 1055" cx="7.354" cy="7.354" r="7.354" transform="translate(235.365 146.021)" fill="#fff"/>
    <circle id="Ellipse_1056" data-name="Ellipse 1056" cx="2.451" cy="2.451" r="2.451" transform="translate(240.268 150.923)" fill="#3f3d56"/>
    <path id="Path_3634" data-name="Path 3634" d="M971.917,563.464c1.716-7.786-3.86-15.633-12.454-17.526s-16.951,2.883-18.667,10.669,3.984,10.64,12.578,12.533S970.2,571.25,971.917,563.464Z" transform="translate(-707.821 -424.713)" fill="#00a8cc"/>
    <ellipse id="Ellipse_1057" data-name="Ellipse 1057" cx="10.759" cy="3.377" rx="10.759" ry="3.377" transform="translate(256.322 150.357) rotate(-25.535)" fill="#2f2e41"/>
    <path id="Path_3635" data-name="Path 3635" d="M956.611,706.653c.006,2.106-5.405,6.28-11.422,6.3s-11.675-5.9-11.681-8,5.643.393,11.66.376S956.6,704.547,956.611,706.653Z" transform="translate(-702.74 -540.1)" fill="#fff"/>
    <circle id="Ellipse_1058" data-name="Ellipse 1058" cx="30.028" cy="30.028" r="30.028" transform="translate(219.804 97.632)" fill="#00a8cc" opacity="0.4"/>
    <circle id="Ellipse_1059" data-name="Ellipse 1059" cx="21.517" cy="21.517" r="21.517" transform="translate(30.344 73.428)" fill="#2f2e41"/>
    <rect id="Rectangle_1161" data-name="Rectangle 1161" width="6.537" height="11.712" transform="translate(39.205 109.816) rotate(10.261)" fill="#2f2e41"/>
    <rect id="Rectangle_1162" data-name="Rectangle 1162" width="6.537" height="11.712" transform="translate(52.07 112.145) rotate(10.261)" fill="#2f2e41"/>
    <ellipse id="Ellipse_1060" data-name="Ellipse 1060" cx="2.043" cy="5.447" rx="2.043" ry="5.447" transform="matrix(0.646, -0.763, 0.763, 0.646, 48.844, 123.738)" fill="#2f2e41"/>
    <ellipse id="Ellipse_1061" data-name="Ellipse 1061" cx="2.043" cy="5.447" rx="2.043" ry="5.447" transform="matrix(0.646, -0.763, 0.763, 0.646, 36.247, 121.458)" fill="#2f2e41"/>
    <circle id="Ellipse_1062" data-name="Ellipse 1062" cx="7.354" cy="7.354" r="7.354" transform="translate(46.013 82.328)" fill="#fff"/>
    <circle id="Ellipse_1063" data-name="Ellipse 1063" cx="2.451" cy="2.451" r="2.451" transform="translate(53.938 84.595)" fill="#3f3d56"/>
    <path id="Path_3636" data-name="Path 3636" d="M214.308,324.317c-.324-7.966,6.542-14.713,15.335-15.07s16.183,5.811,16.507,13.777-5.788,9.776-14.581,10.133S214.631,332.283,214.308,324.317Z" transform="translate(-179.421 -252.78)" fill="#00a8cc"/>
    <ellipse id="Ellipse_1064" data-name="Ellipse 1064" cx="10.759" cy="3.377" rx="10.759" ry="3.377" transform="matrix(0.975, -0.223, 0.223, 0.975, 60.487, 90.137)" fill="#2f2e41"/>
    <ellipse id="Ellipse_1065" data-name="Ellipse 1065" cx="10.759" cy="3.377" rx="10.759" ry="3.377" transform="matrix(0.975, -0.223, 0.223, 0.975, 18.25, 97.161)" fill="#2f2e41"/>
    <path id="Path_3637" data-name="Path 3637" d="M254.748,474.865a4.9,4.9,0,0,0,9.649,1.747c.482-2.664-1.578-3.607-4.242-4.089S255.23,472.2,254.748,474.865Z" transform="translate(-208.797 -371.439)" fill="#fff"/>
    <rect id="Rectangle_1163" data-name="Rectangle 1163" width="20.155" height="17.977" transform="translate(83.219 71.679) rotate(16.689)" fill="#3f3d56"/>
    <path id="Path_3638" data-name="Path 3638" d="M398.444,414.537l-.253-.081c.09-.28,2.242-6.88,5.41-7.933l.084.252C400.644,407.785,398.465,414.47,398.444,414.537Z" transform="translate(-313.227 -323.572)" fill="#00a8cc"/>
    <circle id="Ellipse_1066" data-name="Ellipse 1066" cx="1.33" cy="1.33" r="1.33" transform="translate(90.797 80.668)" fill="#00a8cc"/>
    <path id="Path_3639" data-name="Path 3639" d="M413.061,416.005a4.139,4.139,0,0,1-2.072-.525,3.772,3.772,0,0,1,4.1-.161A4.14,4.14,0,0,1,413.061,416.005Z" transform="translate(-322.54 -329.589)" fill="#00a8cc"/>
  </g>
</svg>
