<svg xmlns="http://www.w3.org/2000/svg" width="18" height="18" viewBox="0 0 18 18">
  <path id="adding_icon" data-name="adding icon" d="M-1392.756-1324.756v-5.488h-5.488A1.756,1.756,0,0,1-1400-1332a1.757,1.757,0,0,1,1.756-1.756h5.488v-5.488A1.756,1.756,0,0,1-1391-1341a1.757,1.757,0,0,1,1.757,1.756v5.488h5.487A1.756,1.756,0,0,1-1382-1332a1.755,1.755,0,0,1-1.756,1.756h-5.487v5.488A1.756,1.756,0,0,1-1391-1323,1.756,1.756,0,0,1-1392.756-1324.756Z" transform="translate(1400 1341)" fill="#d1d1d1"/>
</svg>
