<svg xmlns="http://www.w3.org/2000/svg" width="793.634" height="598.942" viewBox="0 0 793.634 598.942">
  <g id="apply-throug-truescho-1" transform="translate(0 0)" opacity="0.35">
    <path id="Path_3707" data-name="Path 3707" d="M735.005,363.2c0,92.123-54.01,173.623-136.805,223.234-53.085,31.815-118.011,50.522-188.114,50.522-93.391,0-164.629-35.3-218.217-89.364C142.476,497.774,108.084,432,85.167,363.2-17.136,56.06,153.763-27.733,410.086,89.448,573.288,164.066,735.005,212.017,735.005,363.2Z" transform="translate(-55.067 -38.747)" fill="#00a8cc"/>
    <path id="Path_3708" data-name="Path 3708" d="M649.264,263.5V648.257c-53.085,31.815-118.011,50.522-188.114,50.522-93.391,0-164.629-35.3-218.217-89.364V263.5Z" transform="translate(-106.131 -99.838)" fill="#f2f2f2"/>
    <path id="Path_3709" data-name="Path 3709" d="M296.1,515.7A254.214,254.214,0,0,1,361.754,504a205.467,205.467,0,0,1,33.475,1.31,209.4,209.4,0,0,1,32.489,6.956c10.5,3.04,20.857,6.553,31.322,9.709a292.14,292.14,0,0,0,32.372,7.9,274.441,274.441,0,0,0,32.892,3.92,200.316,200.316,0,0,0,32.852-.405,100.506,100.506,0,0,0,29.557-7.493,90.274,90.274,0,0,0,24.039-15.418q2.674-2.387,5.145-4.985c.972-1.016-.571-2.563-1.545-1.545a90.294,90.294,0,0,1-52.085,26.6c-10.816,1.642-21.838,1.737-32.749,1.314a269.472,269.472,0,0,1-33.289-3.364,278.194,278.194,0,0,1-32.241-7.338c-10.4-3.014-20.667-6.489-31.035-9.623A233.554,233.554,0,0,0,401,503.924a200.931,200.931,0,0,0-32.782-2.275,250.645,250.645,0,0,0-64.789,9.594q-3.972,1.115-7.908,2.354c-1.337.419-.766,2.529.581,2.107Z" transform="translate(-120.218 -164.563)" fill="#3f3d56"/>
    <path id="Path_3710" data-name="Path 3710" d="M296.1,591.7A254.216,254.216,0,0,1,361.754,580a205.46,205.46,0,0,1,33.475,1.31,209.4,209.4,0,0,1,32.489,6.956c10.5,3.04,20.857,6.553,31.322,9.709a292.127,292.127,0,0,0,32.372,7.9,274.45,274.45,0,0,0,32.892,3.92,200.316,200.316,0,0,0,32.852-.405,100.508,100.508,0,0,0,29.557-7.493,90.274,90.274,0,0,0,24.039-15.418q2.674-2.387,5.145-4.985c.972-1.016-.571-2.563-1.545-1.545a90.294,90.294,0,0,1-52.085,26.6c-10.816,1.642-21.838,1.737-32.749,1.314a269.472,269.472,0,0,1-33.289-3.364,278.194,278.194,0,0,1-32.241-7.338c-10.4-3.014-20.667-6.489-31.035-9.623A233.55,233.55,0,0,0,401,579.924a200.938,200.938,0,0,0-32.782-2.276,250.645,250.645,0,0,0-64.789,9.594q-3.972,1.115-7.908,2.354c-1.337.419-.766,2.529.581,2.107Z" transform="translate(-120.218 -185.221)" fill="#3f3d56"/>
    <path id="Path_3711" data-name="Path 3711" d="M296.1,446.7A254.213,254.213,0,0,1,361.754,435a205.463,205.463,0,0,1,33.475,1.31,209.4,209.4,0,0,1,32.489,6.956c10.5,3.04,20.857,6.553,31.322,9.709a292.14,292.14,0,0,0,32.372,7.9,274.443,274.443,0,0,0,32.892,3.92,200.325,200.325,0,0,0,32.852-.405,100.509,100.509,0,0,0,29.557-7.493,90.275,90.275,0,0,0,24.039-15.418q2.674-2.387,5.146-4.985c.972-1.016-.571-2.563-1.545-1.545a90.294,90.294,0,0,1-52.085,26.6c-10.816,1.642-21.838,1.737-32.749,1.314a269.465,269.465,0,0,1-33.289-3.363,278.184,278.184,0,0,1-32.241-7.339c-10.4-3.014-20.667-6.489-31.035-9.623A233.563,233.563,0,0,0,401,434.924a200.931,200.931,0,0,0-32.782-2.275,250.645,250.645,0,0,0-64.789,9.594q-3.972,1.115-7.908,2.354c-1.337.419-.766,2.529.581,2.107Z" transform="translate(-120.218 -145.808)" fill="#3f3d56"/>
    <path id="Path_3712" data-name="Path 3712" d="M292.406,320.066c5.285-2.342,11.34-1.933,16.826-.576,5.915,1.464,11.484,4.01,17.307,5.77a59.909,59.909,0,0,0,32.024.607,59.029,59.029,0,0,0,16.772-7.189c1.187-.746.092-2.637-1.1-1.886a57.882,57.882,0,0,1-30.817,8.785,56.543,56.543,0,0,1-16.132-2.375c-5.78-1.733-11.3-4.249-17.16-5.741-6.2-1.581-12.856-1.924-18.819.718-1.283.568-.173,2.451,1.1,1.886Z" transform="translate(-119.123 -114.17)" fill="#3f3d56"/>
    <circle id="Ellipse_1091" data-name="Ellipse 1091" cx="33.497" cy="33.497" r="33.497" transform="translate(302.102 473.875)" fill="#3f3d56"/>
    <circle id="Ellipse_1092" data-name="Ellipse 1092" cx="18.205" cy="18.205" r="18.205" transform="translate(136.803 58.806)" fill="#f2f2f2"/>
    <circle id="Ellipse_1093" data-name="Ellipse 1093" cx="12.379" cy="12.379" r="12.379" transform="translate(302.102 116.334)" fill="#f2f2f2"/>
    <circle id="Ellipse_1094" data-name="Ellipse 1094" cx="12.379" cy="12.379" r="12.379" transform="translate(101.122 235.029)" fill="#f2f2f2"/>
    <rect id="Rectangle_1250" data-name="Rectangle 1250" width="1.365" height="244.122" transform="translate(62.294 155.443)" fill="#3f3d56"/>
    <ellipse id="Ellipse_1095" data-name="Ellipse 1095" cx="26.62" cy="60.749" rx="26.62" ry="60.749" transform="translate(36.62 257.146)" fill="#3f3d56"/>
    <ellipse id="Ellipse_1096" data-name="Ellipse 1096" cx="26.62" cy="60.749" rx="26.62" ry="60.749" transform="translate(36.62 118.584)" fill="#3f3d56"/>
    <path id="Path_3713" data-name="Path 3713" d="M126.261,193.6l-1.308-.392c.083-.276,8.108-27.778-5.07-45.483-7.443-10-20.215-15.07-37.961-15.07v-1.365c18.2,0,31.346,5.257,39.06,15.625C134.568,165.177,126.345,193.32,126.261,193.6Z" transform="translate(-62.366 -63.902)" fill="#3f3d56"/>
    <circle id="Ellipse_1097" data-name="Ellipse 1097" cx="17.064" cy="17.064" r="17.064" transform="translate(2.492 51.009)" fill="#3f3d56"/>
    <path id="Path_3714" data-name="Path 3714" d="M821.041,660.273,808.274,777.729h88.092l3.83-8.937,5.107,8.937h82.985S981.9,656.443,970.415,652.612,821.041,660.273,821.041,660.273Z" transform="translate(-259.795 -205.388)" fill="#2f2e41"/>
    <circle id="Ellipse_1098" data-name="Ellipse 1098" cx="44.685" cy="44.685" r="44.685" transform="translate(591.887 107.622)" fill="#ffb8b8"/>
    <path id="Path_3715" data-name="Path 3715" d="M894.122,282.663s3.83,40.854,0,43.408,61.282,1.277,61.282,1.277-8.937-37.024,0-54.9Z" transform="translate(-283.085 -102.269)" fill="#ffb8b8"/>
    <path id="Path_3716" data-name="Path 3716" d="M892.74,331.909s32.851,5.117,35.576-5.1l16.769,22.976,1.277,229.806s-136.607,16.6-141.714-10.214,52.345-238.743,52.345-238.743l14.464-.936S890.186,331.909,892.74,331.909Z" transform="translate(-258.722 -117.044)" fill="#d0cde1"/>
    <path id="Path_3717" data-name="Path 3717" d="M852.327,316.375l-21.906,7.591-62.558,15.32,2.553,153.2s-53.621,153.2-29.364,164.694,58.728-15.32,68.942-34.471,45.961-284.7,45.961-289.811S852.327,316.375,852.327,316.375Z" transform="translate(-239.811 -114.209)" fill="#3f3d56"/>
    <path id="Path_3718" data-name="Path 3718" d="M972.137,316.375l8.652,7.591,61.282,28.087L1011.43,506.534s40.854,140.437,25.534,148.1-38.3,29.364-43.408,16.6S958.378,330.488,972.137,316.375Z" transform="translate(-303.364 -114.209)" fill="#3f3d56"/>
    <path id="Path_3719" data-name="Path 3719" d="M1000.242,592.478s-57.452-24.257-58.728-2.553,65.112,37.024,65.112,30.641S1000.242,592.478,1000.242,592.478Z" transform="translate(-296.006 -186.108)" fill="#ffb8b8"/>
    <path id="Path_3720" data-name="Path 3720" d="M822.641,584.528s66.389,49.791,40.854,62.558S804.767,602.4,804.767,602.4Z" transform="translate(-258.842 -187.095)" fill="#ffb8b8"/>
    <path id="Path_3721" data-name="Path 3721" d="M929.49,157.382a2.464,2.464,0,0,1,2.372-1.407c-20.457-1.224-42.005,1.161-59.12,12.434-4.793,3.157-9.269,7.018-14.726,8.8l4.429,3.474-5.292,1.613,7.788,5.034a6.751,6.751,0,0,1-6.429,2.154c3.385.989,5.877,4,7.143,7.292s1.493,6.876,1.707,10.4c1.308-5.079,6.851-8.068,12.086-8.372s10.342,1.424,15.437,2.665a85.4,85.4,0,0,0,33.9,1.3c-3.828,7.682-.6,16.844,2.65,24.787l6.488,15.861c3.6.362,6.148-3.22,8.861-5.616,2.473-2.184-7.373,17.022-5.849,16.319,1.981-.914,22.881-23.989,23.859-25.939,4.465-8.894,7.144-18.815,6.742-28.759s-4.042-19.893-10.9-27.109c-4.653-4.9-11.091-5.757-15.835-9.828-1.867-1.6-1.874-2.854-4.44-3.789C939.509,158.384,929.631,157.069,929.49,157.382Z" transform="translate(-273.081 -70.532)" fill="#2f2e41"/>
    <path id="Path_3722" data-name="Path 3722" d="M761.152,351.669l-8.937-3.83L680.72,465.3s-12.767,30.641,10.214,44.685,76.6,56.175,76.6,56.175l30.641-47.238s-62.558-29.364-58.728-40.854,24.257-42.131,24.257-42.131Z" transform="translate(-224.164 -122.761)" fill="#3f3d56"/>
    <path id="Path_3723" data-name="Path 3723" d="M1036.236,361.865l16.6,2.553s68.942,135.331,52.345,160.865-84.263,61.281-84.263,61.281-1.277-42.131-12.767-57.452l39.578-15.32-21.7-84.263Z" transform="translate(-314.123 -126.573)" fill="#3f3d56"/>
  </g>
</svg>
