<svg xmlns="http://www.w3.org/2000/svg" xmlns:xlink="http://www.w3.org/1999/xlink" width="253.172" height="186.893" viewBox="0 0 253.172 186.893">
  <defs>
    <linearGradient id="linear-gradient" x1="0.5" y1="1" x2="0.5" gradientUnits="objectBoundingBox">
      <stop offset="0" stop-color="gray" stop-opacity="0.251"/>
      <stop offset="0.54" stop-color="gray" stop-opacity="0.122"/>
      <stop offset="1" stop-color="gray" stop-opacity="0.102"/>
    </linearGradient>
    <linearGradient id="linear-gradient-2" y2="0" xlink:href="#linear-gradient"/>
    <linearGradient id="linear-gradient-4" x1="16.117" x2="16.117" y2="0" xlink:href="#linear-gradient"/>
  </defs>
  <g id="applying-for-a-job" transform="translate(-0.006 -0.011)" opacity="0.5">
    <path id="Path_3222" data-name="Path 3222" d="M107.157,197.945c-3.036.493-6.843,1.9-6.807,5.186.018,1.665,1.123,3.084,2.2,4.3a81.707,81.707,0,0,0,15.514,13.7c2.737,1.854,5.679,3.627,7.5,6.494s2.277,6.514,2.421,9.984a76.743,76.743,0,0,1-2.869,24.348c8.912,1.7,18.851,3.185,26.278-2.175,4.447-3.21,7.455-8.588,12.41-10.814,3.309-1.487,7.055-1.356,10.662-1.166q25.612,1.348,51.1,5.059c7.116,1.037,14.368,2.211,21.408.87s13.966-5.714,16.561-12.8a6.089,6.089,0,0,1,1.654-2.97,4.485,4.485,0,0,1,2.853-.539l59.466,2.044c3.258.111,6.63.2,9.613-1.138,2.891-1.3,5.115-3.794,7.255-6.241,4.895-5.58,10.159-12.446,8.72-20.019-1.151-6.071-6.3-10.313-11.4-13.283s-10.731-5.4-14.48-10.149c-5.7-7.227-5.479-17.571-5.833-26.948a149.7,149.7,0,0,0-3.124-25.253c-1.546-7.308-3.7-14.626-7.723-20.8s-10.179-11.115-17.141-12.021c-9.091-1.184-18.231,4.488-27.125,2.079-7.513-2.024-12.684-9.215-18.909-14.2C236.3,82.64,221.792,80.786,208.073,80.616c-14.545-.185-29.475,1.288-42.439,8.118a22.744,22.744,0,0,0-7.93,6.218c-3.152,4.237-3.916,9.929-5.977,14.882-8.31,19.944-35.336,24.244-44.109,43.975-3.114,7-3.084,15.163-.815,22.514,2.441,7.91,9.312,12.279,12.036,19.175C115.906,197.384,110.711,197.366,107.157,197.945Z" transform="translate(-100.155 -80.59)" fill="#00a8cc" opacity="0.1"/>
    <g id="Group_526" data-name="Group 526" transform="translate(218.065 37.517)" opacity="0.2">
      <path id="Path_3223" data-name="Path 3223" d="M985.15,315.37s1.214-16.131,10.331-24.9a24.512,24.512,0,0,0,7.293-13.683,41.244,41.244,0,0,0,.506-7.521" transform="translate(-979.2 -259.049)" fill="none" stroke="#535461" stroke-miterlimit="10" stroke-width="2"/>
      <path id="Path_3224" data-name="Path 3224" d="M1059.846,233.529c-.673,1.771-5.844,5.719-5.844,5.719s-1.265-6.377-.6-8.156a3.444,3.444,0,1,1,6.443,2.436Z" transform="translate(-1030.044 -228.866)" fill="#00a8cc"/>
      <path id="Path_3225" data-name="Path 3225" d="M1062.094,275.847c-1.531,1.128-8.014,1.624-8.014,1.624s2.4-6.043,3.931-7.171a3.443,3.443,0,1,1,4.083,5.545Z" transform="translate(-1030.693 -259.317)" fill="#00a8cc"/>
      <path id="Path_3226" data-name="Path 3226" d="M1036.818,340.143c-1.892.2-7.738-2.643-7.738-2.643s5.122-4,7.012-4.207a3.444,3.444,0,1,1,.726,6.85Z" transform="translate(-1012.017 -306.862)" fill="#00a8cc"/>
      <path id="Path_3227" data-name="Path 3227" d="M1004.8,386.132c-1.831.506-8.075-1.3-8.075-1.3s4.371-4.806,6.2-5.33a3.443,3.443,0,1,1,1.872,6.628Z" transform="translate(-987.85 -341.301)" fill="#00a8cc"/>
      <path id="Path_3228" data-name="Path 3228" d="M1025.865,277.4c.807,1.723,6.266,5.254,6.266,5.254s.777-6.456-.03-8.178a3.444,3.444,0,1,0-6.236,2.924Z" transform="translate(-1009.372 -261.458)" fill="#00a8cc"/>
      <path id="Path_3229" data-name="Path 3229" d="M988.539,328.707c1.285,1.4,7.551,3.139,7.551,3.139s-1.192-6.392-2.477-7.794a3.444,3.444,0,1,0-5.077,4.655Z" transform="translate(-981.053 -299.14)" fill="#00a8cc"/>
      <path id="Path_3230" data-name="Path 3230" d="M962.177,387.173c1.03,1.6,6.914,4.369,6.914,4.369s-.094-6.5-1.123-8.095a3.444,3.444,0,0,0-5.79,3.731Z" transform="translate(-961.628 -343.164)" fill="#00a8cc"/>
    </g>
    <path id="Path_3231" data-name="Path 3231" d="M164.14,87.83V204.446H351.535V87.83Z" transform="translate(-122.614 -65.604)" fill="url(#linear-gradient)"/>
    <rect id="Rectangle_1027" data-name="Rectangle 1027" width="183.436" height="8.907" transform="translate(43.507 23.458)" fill="#f6f7f9"/>
    <g id="Group_527" data-name="Group 527" transform="translate(43.507 23.458)" opacity="0.2">
      <rect id="Rectangle_1028" data-name="Rectangle 1028" width="183.436" height="8.907" fill="#00a8cc"/>
    </g>
    <rect id="Rectangle_1029" data-name="Rectangle 1029" width="183.436" height="105.245" transform="translate(43.507 32.365)" fill="#f6f7f9"/>
    <circle id="Ellipse_969" data-name="Ellipse 969" cx="1.981" cy="1.981" r="1.981" transform="translate(45.925 25.876)" fill="#f6f7f9"/>
    <circle id="Ellipse_970" data-name="Ellipse 970" cx="1.981" cy="1.981" r="1.981" transform="translate(51.202 25.876)" fill="#f6f7f9"/>
    <circle id="Ellipse_971" data-name="Ellipse 971" cx="1.981" cy="1.981" r="1.981" transform="translate(56.481 25.876)" fill="#f6f7f9"/>
    <g id="Group_528" data-name="Group 528" transform="translate(49.884 45.453)" opacity="0.2">
      <rect id="Rectangle_1030" data-name="Rectangle 1030" width="94.358" height="6.817" fill="#00a8cc"/>
    </g>
    <g id="Group_529" data-name="Group 529" transform="translate(168.435 45.453)" opacity="0.2">
      <rect id="Rectangle_1031" data-name="Rectangle 1031" width="49.487" height="6.817" fill="#00a8cc"/>
    </g>
    <g id="Group_530" data-name="Group 530" transform="translate(68.249 78.665)" opacity="0.2">
      <rect id="Rectangle_1032" data-name="Rectangle 1032" width="6.597" height="21.775" transform="translate(0 31.233)" fill="#00a8cc"/>
      <rect id="Rectangle_1033" data-name="Rectangle 1033" width="6.597" height="37.39" transform="translate(12.757 15.615)" fill="#00a8cc"/>
      <rect id="Rectangle_1034" data-name="Rectangle 1034" width="6.597" height="53.006" transform="translate(25.514)" fill="#00a8cc"/>
      <rect id="Rectangle_1035" data-name="Rectangle 1035" width="6.597" height="47.949" transform="translate(38.271 5.059)" fill="#00a8cc"/>
      <rect id="Rectangle_1036" data-name="Rectangle 1036" width="6.597" height="32.991" transform="translate(51.028 20.014)" fill="#00a8cc"/>
    </g>
    <g id="Group_531" data-name="Group 531" transform="translate(168.326 67.228)" opacity="0.2">
      <rect id="Rectangle_1037" data-name="Rectangle 1037" width="49.487" height="60.815" fill="#00a8cc"/>
    </g>
    <path id="Path_3232" data-name="Path 3232" d="M994.4,435.215a26.756,26.756,0,0,1-.938-4.821c-.023-2.661,1.394-5.752-.468-7.718a8.759,8.759,0,0,1-1.31-1.305,2.873,2.873,0,0,1-.329-1.472c-.03-3.1,1.68-6.256.655-9.2a3.126,3.126,0,0,0-1.174-1.637,3.405,3.405,0,0,0-1.991-.445c-.655,0-1.346.073-2.024.086a4.373,4.373,0,0,1-1.136-.149c-.784-.223-1.449-.736-2.226-.989a3.638,3.638,0,0,0-1.265-.175c-1.7-.056-3.253,1.075-4.462,2.17a16.662,16.662,0,0,1-1.91,1.389c.1-.071-2.36,1.619-1.434,1.637a3.223,3.223,0,0,1,1.832.637,4.948,4.948,0,0,0,.253,5.737c-.4-.395-.847-.827-1.3-1.265a29.986,29.986,0,0,0-4.141-3.61,29.3,29.3,0,0,1-3.557-2.5s-2.719,1.518-1.882,3.625a8.465,8.465,0,0,1,1.166.458,2.185,2.185,0,0,0,.159.817,9.006,9.006,0,0,1,2.416,1.184,4.124,4.124,0,0,1,.233.362,18.824,18.824,0,0,0,2.864,3.063c.966.969,2.239,2.127,3.506,3.243a6.816,6.816,0,0,0-.855,2.277,2.8,2.8,0,0,1-.286-.132c-1.882-1.012-6.273-.906-6.273-.906a9.176,9.176,0,0,1-4.391-6.241,11.785,11.785,0,0,1-.524-3.321h-.013l.094-.02.878-1.591a.7.7,0,0,0-.577-1.032,3.8,3.8,0,0,0-4.482,3.541h.038l-.013.033c.524,2.517.941,2.315.837,4.328l1.672,4.429s.1,1.518,3.137,3.524a65.544,65.544,0,0,1,6.483,5.135s-1.829.956-1.151,5.335c.83,5.353-.417,12.987-.417,12.987v4.933l.233-.063c-.03.164-.058.339-.089.529a27.775,27.775,0,0,0-.144,7.49,73.125,73.125,0,0,0,3.137,12.4,22.412,22.412,0,0,1,1.151,4.531,4.175,4.175,0,0,0,.268,1.164,9.149,9.149,0,0,1,.734,3.493,24.6,24.6,0,0,0,1.611,8.831,23.346,23.346,0,0,1,1.571,5.191c-.759.981-1.735,2.052-2.512,2.158-1.465.2-4.288.4-2.406,2.818a1.718,1.718,0,0,0,.217.23c-1.429.228-3,.729-1.472,2.689,1.882,2.416,12.964,1.308,12.964,1.308s.071-1.343,0-2.818c.777-.053,1.265-.1,1.265-.1s.314-5.838-1.045-6.544a2.934,2.934,0,0,0-.734.177c-.147-.807-.253-1.811-.329-2.552l.539-.04v-.04h.033v-8.8s-.627-5.436-2.927-7.842a4.891,4.891,0,0,1-.759-1.012l-.03-.063c.015-.688.015-1.616,0-2.681l.033-.058c.04-.066.081-.124.119-.177a2.2,2.2,0,0,1,.172-.2l.033-.043h0s1.265-1.518,5.542-11.075c2.613-5.833,1.922-9.107.987-10.794-.2-.759-.61-2.459-1.126-5.37a21.053,21.053,0,0,1-.3-3.741,7.522,7.522,0,0,0,1.983.223,6.734,6.734,0,0,0,3.035-.648c-.683-1-1.4-2.165-1.052-3.311.39-1.305,1.933-1.9,2.823-2.957A5.575,5.575,0,0,0,994.4,435.215Z" transform="translate(-741.973 -324.713)" fill="url(#linear-gradient-2)"/>
    <path id="Path_3233" data-name="Path 3233" d="M986.955,428.25s-2.6,1.5-1.8,3.595a7.129,7.129,0,0,1,3.794,2.8c1.1,2,9.585,9.185,9.585,9.185l6.2-3.094s-2.153-2.874-8.962-4.882c0,0-4.015-4.3-5.413-5.1A30.287,30.287,0,0,1,986.955,428.25Z" transform="translate(-761.026 -340.297)" fill="#797c9c"/>
    <path id="Path_3234" data-name="Path 3234" d="M991.955,433.25s-2.6,1.5-1.8,3.595a7.129,7.129,0,0,1,3.794,2.8c1.1,2,9.585,9.185,9.585,9.185l6.2-3.094s-2.153-2.874-8.962-4.882c0,0-4.015-4.3-5.413-5.1A30.281,30.281,0,0,1,991.955,433.25Z" transform="translate(-764.762 -344.032)" opacity="0.05"/>
    <path id="Path_3235" data-name="Path 3235" d="M103.556,720.708s-14.586,8.8,12.3,22.349c0,0,5.924-11-.625-19.966a8.831,8.831,0,0,0-11.457-2.509Z" transform="translate(-99.6 -557.837)" fill="#00a8cc"/>
    <path id="Path_3236" data-name="Path 3236" d="M115.88,723.67s12.484,9.549,12.142,22.534" transform="translate(-111.757 -560.986)" fill="none" stroke="#535461" stroke-miterlimit="10" stroke-width="1"/>
    <path id="Path_3237" data-name="Path 3237" d="M161.32,667.105s-4.571-15.529.85-26.94a24.513,24.513,0,0,0,1.983-15.378,41.23,41.23,0,0,0-2.178-7.217" transform="translate(-144.357 -481.726)" fill="none" stroke="#535461" stroke-miterlimit="10" stroke-width="2"/>
    <path id="Path_3238" data-name="Path 3238" d="M162.276,578.829c0,1.9-3.443,7.417-3.443,7.417s-3.443-5.515-3.443-7.417a3.444,3.444,0,0,1,6.888,0Z" transform="translate(-141.272 -450.212)" fill="#00a8cc"/>
    <path id="Path_3239" data-name="Path 3239" d="M184.671,614.989c-1.035,1.6-6.921,4.354-6.921,4.354s.106-6.5,1.141-8.095a3.443,3.443,0,1,1,5.78,3.744Z" transform="translate(-157.976 -475.829)" fill="#00a8cc"/>
    <path id="Path_3240" data-name="Path 3240" d="M179.993,682.551c-1.7.858-8.173.253-8.173.253s3.375-5.565,5.072-6.415a3.444,3.444,0,0,1,3.1,6.15Z" transform="translate(-153.546 -525.389)" fill="#00a8cc"/>
    <path id="Path_3241" data-name="Path 3241" d="M167.6,737.173c-1.518,1.131-8.011,1.642-8.011,1.642s2.385-6.048,3.916-7.179a3.444,3.444,0,1,1,4.1,5.537Z" transform="translate(-144.41 -566.433)" fill="#00a8cc"/>
    <path id="Path_3242" data-name="Path 3242" d="M146.067,631.878c1.363,1.326,7.72,2.7,7.72,2.7s-1.556-6.324-2.922-7.64a3.446,3.446,0,0,0-4.806,4.94Z" transform="translate(-133.523 -487.994)" fill="#00a8cc"/>
    <path id="Path_3243" data-name="Path 3243" d="M129.318,693.031c1.7.858,8.173.253,8.173.253s-3.375-5.565-5.072-6.415a3.444,3.444,0,0,0-3.1,6.15Z" transform="translate(-120.381 -533.218)" fill="#00a8cc"/>
    <path id="Path_3244" data-name="Path 3244" d="M125.337,757.073c1.518,1.131,8.011,1.642,8.011,1.642s-2.385-6.048-3.916-7.179a3.444,3.444,0,1,0-4.1,5.537Z" transform="translate(-117.779 -581.299)" fill="#00a8cc"/>
    <path id="Path_3245" data-name="Path 3245" d="M162.276,578.829c0,1.9-3.443,7.417-3.443,7.417s-3.443-5.515-3.443-7.417a3.444,3.444,0,0,1,6.888,0Z" transform="translate(-141.272 -450.212)" opacity="0.25"/>
    <path id="Path_3246" data-name="Path 3246" d="M184.671,614.989c-1.035,1.6-6.921,4.354-6.921,4.354s.106-6.5,1.141-8.095a3.443,3.443,0,1,1,5.78,3.744Z" transform="translate(-157.976 -475.829)" opacity="0.25"/>
    <path id="Path_3247" data-name="Path 3247" d="M179.993,682.551c-1.7.858-8.173.253-8.173.253s3.375-5.565,5.072-6.415a3.444,3.444,0,0,1,3.1,6.15Z" transform="translate(-153.546 -525.389)" opacity="0.25"/>
    <path id="Path_3248" data-name="Path 3248" d="M167.6,737.173c-1.518,1.131-8.011,1.642-8.011,1.642s2.385-6.048,3.916-7.179a3.444,3.444,0,1,1,4.1,5.537Z" transform="translate(-144.41 -566.433)" opacity="0.25"/>
    <path id="Path_3249" data-name="Path 3249" d="M146.067,631.878c1.363,1.326,7.72,2.7,7.72,2.7s-1.556-6.324-2.922-7.64a3.446,3.446,0,0,0-4.806,4.94Z" transform="translate(-133.523 -487.994)" opacity="0.25"/>
    <path id="Path_3250" data-name="Path 3250" d="M129.318,693.031c1.7.858,8.173.253,8.173.253s-3.375-5.565-5.072-6.415a3.444,3.444,0,0,0-3.1,6.15Z" transform="translate(-120.381 -533.218)" opacity="0.25"/>
    <path id="Path_3251" data-name="Path 3251" d="M125.337,757.073c1.518,1.131,8.011,1.642,8.011,1.642s-2.385-6.048-3.916-7.179a3.444,3.444,0,1,0-4.1,5.537Z" transform="translate(-117.779 -581.299)" opacity="0.25"/>
    <path id="Path_3252" data-name="Path 3252" d="M203.136,668.275s-4.571-15.519.858-26.94a24.512,24.512,0,0,0,1.983-15.378,41.233,41.233,0,0,0-2.178-7.217" transform="translate(-175.596 -482.6)" fill="none" stroke="#535461" stroke-miterlimit="10" stroke-width="2"/>
    <path id="Path_3253" data-name="Path 3253" d="M204.086,580.029c0,1.9-3.443,7.417-3.443,7.417s-3.443-5.515-3.443-7.417a3.444,3.444,0,0,1,6.888,0Z" transform="translate(-172.506 -451.108)" fill="#00a8cc"/>
    <path id="Path_3254" data-name="Path 3254" d="M226.491,616.149c-1.035,1.6-6.921,4.354-6.921,4.354s.106-6.5,1.141-8.095a3.443,3.443,0,1,1,5.78,3.744Z" transform="translate(-189.217 -476.695)" fill="#00a8cc"/>
    <path id="Path_3255" data-name="Path 3255" d="M221.8,683.713c-1.7.858-8.173.253-8.173.253S217,678.4,218.7,677.55a3.449,3.449,0,0,1,3.1,6.162Z" transform="translate(-184.78 -526.258)" fill="#00a8cc"/>
    <path id="Path_3256" data-name="Path 3256" d="M209.411,738.343c-1.518,1.131-8.011,1.642-8.011,1.642s2.385-6.048,3.916-7.179a3.444,3.444,0,0,1,4.1,5.537Z" transform="translate(-175.644 -567.307)" fill="#00a8cc"/>
    <path id="Path_3257" data-name="Path 3257" d="M187.9,633.038c1.363,1.326,7.72,2.7,7.72,2.7s-1.556-6.324-2.922-7.639a3.446,3.446,0,1,0-4.806,4.94Z" transform="translate(-164.772 -488.861)" fill="#00a8cc"/>
    <path id="Path_3258" data-name="Path 3258" d="M171.128,694.191c1.7.858,8.173.253,8.173.253s-3.375-5.565-5.072-6.415a3.444,3.444,0,0,0-3.1,6.15Z" transform="translate(-151.614 -534.085)" fill="#00a8cc"/>
    <path id="Path_3259" data-name="Path 3259" d="M167.147,758.243c1.518,1.131,8.011,1.642,8.011,1.642s-2.385-6.048-3.916-7.179a3.444,3.444,0,0,0-4.1,5.537Z" transform="translate(-149.012 -582.173)" fill="#00a8cc"/>
    <rect id="Rectangle_1038" data-name="Rectangle 1038" width="241.073" height="1.771" transform="translate(6.212 185.134)" fill="#00a8cc"/>
    <rect id="Rectangle_1039" data-name="Rectangle 1039" width="51.091" height="62.785" transform="translate(176.631 86.226)" fill="url(#linear-gradient)"/>
    <rect id="Rectangle_1040" data-name="Rectangle 1040" width="49.487" height="60.815" transform="translate(177.433 87.212)" fill="#00a8cc"/>
    <rect id="Rectangle_1041" data-name="Rectangle 1041" width="10.118" height="10.118" transform="translate(180.757 92.55)" fill="#e8eaf1"/>
    <rect id="Rectangle_1042" data-name="Rectangle 1042" width="35.921" height="2.024" transform="translate(185.816 108.739)" fill="#e8eaf1"/>
    <rect id="Rectangle_1043" data-name="Rectangle 1043" width="35.921" height="2.024" transform="translate(185.816 113.04)" fill="#e8eaf1"/>
    <rect id="Rectangle_1044" data-name="Rectangle 1044" width="35.921" height="2.024" transform="translate(185.816 117.34)" fill="#e8eaf1"/>
    <rect id="Rectangle_1045" data-name="Rectangle 1045" width="35.921" height="2.024" transform="translate(185.816 121.64)" fill="#e8eaf1"/>
    <rect id="Rectangle_1046" data-name="Rectangle 1046" width="35.921" height="2.024" transform="translate(185.816 125.941)" fill="#e8eaf1"/>
    <rect id="Rectangle_1047" data-name="Rectangle 1047" width="35.921" height="2.024" transform="translate(185.816 130.241)" fill="#e8eaf1"/>
    <rect id="Rectangle_1048" data-name="Rectangle 1048" width="35.921" height="2.024" transform="translate(185.816 134.542)" fill="#e8eaf1"/>
    <path id="Path_3260" data-name="Path 3260" d="M1045.743,764.89s.3,4.391.8,4.892-4.493.8-4.493.8l.7-5.692Z" transform="translate(-803.641 -591.779)" fill="#ffb9b9"/>
    <path id="Path_3261" data-name="Path 3261" d="M1045.743,764.89s.3,4.391.8,4.892-4.493.8-4.493.8l.7-5.692Z" transform="translate(-803.641 -591.779)" opacity="0.05"/>
    <path id="Path_3262" data-name="Path 3262" d="M1025.627,774.179s-.7,0-3.195,1.3a3.464,3.464,0,0,1-2.4-2.7s-2.1,3.595-3.493,3.794-4.093.4-2.3,2.8,12.38,1.3,12.38,1.3S1026.923,774.877,1025.627,774.179Z" transform="translate(-782.425 -597.673)" fill="#e4e2f3"/>
    <path id="Path_3263" data-name="Path 3263" d="M1025.627,774.179s-.7,0-3.195,1.3a3.464,3.464,0,0,1-2.4-2.7s-2.1,3.595-3.493,3.794-4.093.4-2.3,2.8,12.38,1.3,12.38,1.3S1026.923,774.877,1025.627,774.179Z" transform="translate(-782.425 -597.673)" opacity="0.05"/>
    <path id="Path_3264" data-name="Path 3264" d="M1039.449,780.965l-.7,1.9-4.591-1.3.253-1.882.063-.455.175-1.265s3.893-1,3.893-.506a7.758,7.758,0,0,0,.253,1.217c.16.615.359,1.313.506,1.771C1039.389,780.765,1039.449,780.965,1039.449,780.965Z" transform="translate(-797.747 -601.064)" fill="#ffb9b9"/>
    <path id="Path_3265" data-name="Path 3265" d="M1029.385,619.169a2.73,2.73,0,0,0,0,2.783,4.838,4.838,0,0,0,.719.994c2.2,2.4,2.8,7.786,2.8,7.786v8.684l-1.5.114-2.4.185-3.594-14.776s-2.1-10.781-1.1-12.678,1.9-13.776,1.9-13.776l.83-.858,1.965-2.036h5.692a3.825,3.825,0,0,1,1.108,1.237c.956,1.581,1.814,4.87-.807,10.941-4.093,9.484-5.292,10.981-5.292,10.981A2.305,2.305,0,0,0,1029.385,619.169Z" transform="translate(-790.189 -465.306)" fill="#4c4c78"/>
    <path id="Path_3266" data-name="Path 3266" d="M1029.515,619a2.729,2.729,0,0,0,0,2.783,4.833,4.833,0,0,0,.718.994c2.2,2.4,2.8,7.786,2.8,7.786v8.684l-1.5.114-2.4.185-3.595-14.776s-2.1-10.781-1.1-12.678,1.9-13.776,1.9-13.776l.83-.858,1.966-2.036h5.692a3.827,3.827,0,0,1,1.108,1.237c.956,1.581,1.814,4.87-.807,10.941-4.093,9.484-5.292,10.981-5.292,10.981A2.294,2.294,0,0,0,1029.515,619Z" transform="translate(-790.286 -465.179)" opacity="0.05"/>
    <path id="Path_3267" data-name="Path 3267" d="M1039.763,778.685l-4.323.541.175-1.265s3.893-1,3.893-.506A7.748,7.748,0,0,0,1039.763,778.685Z" transform="translate(-798.703 -601.064)" opacity="0.1"/>
    <path id="Path_3268" data-name="Path 3268" d="M1012.54,601.963s.253,7.86.288,12.8v2.783a6.147,6.147,0,0,1-.081,1.1,6.974,6.974,0,0,0,.3,2.894,28.814,28.814,0,0,1,1.8,12.38V638.3l-4.791.6s.8-.6-1.4-6.39a25.235,25.235,0,0,1-1.541-8.758,9.373,9.373,0,0,0-.7-3.466,4.277,4.277,0,0,1-.253-1.154,22.911,22.911,0,0,0-1.1-4.493,74.43,74.43,0,0,1-3-12.279,28.586,28.586,0,0,1,.139-7.427,18.535,18.535,0,0,1,.359-1.857s9.759-6.142,13.445-1.9a4.806,4.806,0,0,1,.832,1.4,9.228,9.228,0,0,1,.471,1.556C1018.457,599.768,1012.54,601.963,1012.54,601.963Z" transform="translate(-773.638 -460.898)" fill="#4c4c78"/>
    <circle id="Ellipse_972" data-name="Ellipse 972" cx="5.092" cy="5.092" r="5.092" transform="translate(233.514 87.157)" fill="#ffb9b9"/>
    <path id="Path_3269" data-name="Path 3269" d="M1030.825,448.676s2.1,5.889,0,8.985,6.688,2.1,6.688,2.1l3.395-4.093s-3.994,0-4.194-6.989S1030.825,448.676,1030.825,448.676Z" transform="translate(-795.013 -353.235)" fill="#ffb9b9"/>
    <path id="Path_3270" data-name="Path 3270" d="M1020.453,593.57a13.1,13.1,0,0,1-2.224.557c-1.242.192-2.709.2-3.567-.557-.506-.448-1.771-.506-3.266-.359a55.978,55.978,0,0,0-8.277,1.718,18.545,18.545,0,0,1,.359-1.857s9.759-6.142,13.445-1.9h2.13a3.827,3.827,0,0,1,1.108,1.237C1020.347,593.206,1020.453,593.57,1020.453,593.57Z" transform="translate(-774.559 -460.89)" opacity="0.1"/>
    <path id="Path_3271" data-name="Path 3271" d="M1039.449,787.942l-.7,1.9-4.591-1.3.253-1.882a3.235,3.235,0,0,0,2.135,1.983,16.285,16.285,0,0,1,2.747-1.2C1039.389,787.743,1039.449,787.942,1039.449,787.942Z" transform="translate(-797.747 -608.042)" opacity="0.1"/>
    <path id="Path_3272" data-name="Path 3272" d="M1020.878,785.629s-.7,0-3.195,1.3a3.464,3.464,0,0,1-2.4-2.7s-2.1,3.595-3.493,3.794-4.093.4-2.3,2.8,12.38,1.3,12.38,1.3S1022.175,786.327,1020.878,785.629Z" transform="translate(-778.876 -606.227)" fill="#e4e2f3"/>
    <path id="Path_3273" data-name="Path 3273" d="M962.62,438.642a3.693,3.693,0,0,1,4.28-3.509.7.7,0,0,1,.552,1.012l-.837,1.576Z" transform="translate(-744.304 -345.419)" fill="#ffb9b9"/>
    <path id="Path_3274" data-name="Path 3274" d="M986.258,454.047s-4.892-.8-6.19-1.8a2.019,2.019,0,0,1-2.8.9c-1.8-1-5.99-.9-5.99-.9a9.053,9.053,0,0,1-4.194-6.19,12.275,12.275,0,0,1-.506-3.288s-2.6-2.7-3.893.9c.506,2.5.9,2.3.8,4.3l1.6,4.391s.1,1.5,3,3.493a64.044,64.044,0,0,1,6.19,5.092s-1.748.949-1.1,5.292c.794,5.312-.4,12.878-.4,12.878v4.892s9.984-2.894,11.679-1.4,5.79,0,5.79,0a55.769,55.769,0,0,1-1.2-5.79,25.379,25.379,0,0,1,.1-8.095s2.6-6.888,3.794-9.683-.9-6.577-3-7.986-2.876-.559-2.876-.559S990.751,453.149,986.258,454.047Z" transform="translate(-744.356 -350.42)" fill="#797c9c"/>
    <path id="Path_3275" data-name="Path 3275" d="M1005.15,544.441s.8-.192,4.789-.792,10.981.8,10.981.8" transform="translate(-776.075 -426.392)" opacity="0.05"/>
    <path id="Path_3276" data-name="Path 3276" d="M1018.2,416.906a3.548,3.548,0,0,1,2.952,4.882c-.443.89-1.3,1.675-1.212,2.664a9.617,9.617,0,0,0,.385,1.3c.478,2.024-1.943,3.918-1.389,5.917a4.274,4.274,0,0,0,.865,1.449l4.2,5.3a3.976,3.976,0,0,1,.627.971,4.1,4.1,0,0,1,.182,1.556c-.02,2.53.144,5.244,1.637,7.3a6.7,6.7,0,0,0,8.168,1.976c-.653-.989-1.333-2.148-1.012-3.288.372-1.293,1.844-1.89,2.694-2.932a5.723,5.723,0,0,0,.759-4.657,28.122,28.122,0,0,1-.9-4.781c-.02-2.638,1.331-5.7-.448-7.652a8.526,8.526,0,0,1-1.252-1.3,2.943,2.943,0,0,1-.314-1.462c-.028-3.076,1.6-6.205.625-9.122a3.1,3.1,0,0,0-1.121-1.624c-1.386-.933-3.309-.028-4.912-.506-.759-.22-1.384-.731-2.125-.981-2-.675-3.848.68-5.229,1.981a15.939,15.939,0,0,1-1.824,1.376C1019.665,415.214,1017.315,416.888,1018.2,416.906Z" transform="translate(-785.675 -327.956)" opacity="0.1"/>
    <path id="Path_3277" data-name="Path 3277" d="M1019.2,416.906a3.548,3.548,0,0,1,2.952,4.882c-.443.89-1.3,1.675-1.212,2.664a9.626,9.626,0,0,0,.385,1.3c.478,2.024-1.943,3.918-1.389,5.917a4.273,4.273,0,0,0,.865,1.449l4.2,5.3a3.983,3.983,0,0,1,.627.971,4.1,4.1,0,0,1,.182,1.556c-.02,2.53.144,5.244,1.637,7.3a6.7,6.7,0,0,0,8.168,1.976c-.653-.989-1.333-2.148-1.012-3.288.372-1.293,1.844-1.89,2.694-2.932a5.723,5.723,0,0,0,.759-4.657,28.1,28.1,0,0,1-.9-4.781c-.02-2.638,1.331-5.7-.448-7.652a8.526,8.526,0,0,1-1.252-1.3,2.943,2.943,0,0,1-.314-1.462c-.028-3.076,1.6-6.205.625-9.122a3.1,3.1,0,0,0-1.121-1.624c-1.386-.933-3.309-.028-4.912-.506-.759-.22-1.384-.731-2.125-.981-2-.675-3.848.68-5.229,1.981a15.93,15.93,0,0,1-1.824,1.376C1020.665,415.214,1018.315,416.888,1019.2,416.906Z" transform="translate(-786.422 -327.956)" fill="#b36362"/>
    <path id="Path_3278" data-name="Path 3278" d="M644.366,473.594a8.772,8.772,0,0,1-1.5-1.834,6.658,6.658,0,0,0-3.344-2.487v-.448h.061l-.028-.415h.028l-.071-1.1h0l-.357-5.484a8.473,8.473,0,0,1,.987-7.04c2.277-3.364.142-6.592-2-7.854,0,0-1.012-5.33-.142-6.592a36.763,36.763,0,0,0-3.592-1.829q-.028-.1-.053-.2c-.023-.506-.053-.994-.081-1.49a5.449,5.449,0,0,1,.142-.759q.042-.156.091-.319a5.472,5.472,0,0,0,3.493-5.074,5.374,5.374,0,0,0-.339-1.882,2.4,2.4,0,0,0,.253-.6,2.436,2.436,0,0,0-.339-1.75,6.312,6.312,0,0,0-3.036-2.843,11.828,11.828,0,0,0-5.267-.278c-.868.1-1.859.4-2.173,1.2a8.312,8.312,0,0,0-.2.923c-.324,1.224-1.728,1.8-2.6,2.732a6.52,6.52,0,0,0-1.351,3.036,28.026,28.026,0,0,0-.506,9.529c.089.734.2,1.462.329,2.191a6.222,6.222,0,0,0-.777,4.3l-1.713,8.135-.713,4.768a4.169,4.169,0,0,0,1.285,3.648,32.125,32.125,0,0,1,3.235,4.063,9.674,9.674,0,0,0-.521,3.233c.018.506.046.984.081,1.444a12.857,12.857,0,0,0,.546,2.858,20.377,20.377,0,0,0,1.371,6.071l.286,8.555s-.428,7.854-1.285,9.4,1.857,14.588,1.857,14.588v1.824l-.458,1.336-.114-.086c-2.143,2.666,0,3.648,0,3.648s.582.028,1.518.063a1.723,1.723,0,0,0,.913,1.9s12.142.562,14.282,0,1.571-2.53.428-2.385a5.225,5.225,0,0,1-1.71-.225,1,1,0,0,0-.716-1.738,11.715,11.715,0,0,1-3.714-.878v.018a1.911,1.911,0,0,0-.253-.076,28.661,28.661,0,0,1-2.826-.8c-.551-1.181-1.821-4.359-.911-6.83a12.265,12.265,0,0,0,.546-4.032,46.06,46.06,0,0,1,1.88-12.795l1.713-5.886s2.428-7.154,2.57-9.107l-.02-2.864a4.156,4.156,0,0,0,4.622.3,1.1,1.1,0,0,0,.177-1.786ZM625.3,458.715c.048-.2.089-.43.124-.665h1.012a5.211,5.211,0,0,1,.506,2.76C626.173,460.556,625.014,459.954,625.3,458.715Z" transform="translate(-488.01 -336.492)" fill="url(#linear-gradient-4)"/>
    <path id="Path_3279" data-name="Path 3279" d="M646.079,783.585l-.549,1.649,1.786,1.786,5.909,1.374,4.26-.412-.276-1.518h0a1.824,1.824,0,0,0-1.353-1.331c-1.75-.412-5.09-1.348-5.793-2.654Z" transform="translate(-507.425 -604.92)" fill="#db8b8b"/>
    <path id="Path_3280" data-name="Path 3280" d="M646.079,783.585l-.549,1.649,1.786,1.786,5.909,1.374,4.26-.412-.276-1.518h0a1.824,1.824,0,0,0-1.353-1.331c-1.75-.412-5.09-1.348-5.793-2.654Z" transform="translate(-507.425 -604.92)" opacity="0.1"/>
    <path id="Path_3281" data-name="Path 3281" d="M653.4,794.52l-.825-1.1.825-1.265a11.038,11.038,0,0,0,3.572.86c1.1-.139,1.649,1.786-.412,2.337s-13.743,0-13.743,0-2.062-.961,0-3.572l1.786,1.374s3.036,1.649,4.536,1.374Z" transform="translate(-504.712 -611.867)" fill="#474463"/>
    <path id="Path_3282" data-name="Path 3282" d="M666.71,795.622l-4.26.412-5.9-1.384-1.786-1.771.147-.438.2-.612.2-.6,3.984-1.1a2.467,2.467,0,0,0,.807.81,17.269,17.269,0,0,0,4.983,1.844,1.422,1.422,0,0,1,.169.051,1.816,1.816,0,0,1,1.184,1.28Z" transform="translate(-514.321 -610.635)" fill="#db8b8b"/>
    <path id="Path_3283" data-name="Path 3283" d="M666.71,802.45l-4.26.412-5.9-1.384-1.786-1.771.147-.438,1.642,1.265s3.036,1.649,4.536,1.374h4.26l-.825-1.1.741-1.143a1.816,1.816,0,0,1,1.184,1.28Z" transform="translate(-514.321 -617.462)" opacity="0.1"/>
    <path id="Path_3284" data-name="Path 3284" d="M662.628,802.12l-.825-1.1.825-1.265a11.037,11.037,0,0,0,3.572.86c1.1-.139,1.649,1.786-.412,2.337s-13.743,0-13.743,0-2.062-.961,0-3.572l1.786,1.374s3.036,1.649,4.536,1.374Z" transform="translate(-511.607 -617.545)" fill="#474463"/>
    <path id="Path_3285" data-name="Path 3285" d="M663.517,473.613s-6.6.688-5.634-2.062a4.948,4.948,0,0,0,.2-2.426,6.726,6.726,0,0,0-1.166-2.8l6.185.961a7.741,7.741,0,0,0-.837,1.986A4.047,4.047,0,0,0,663.517,473.613Z" transform="translate(-515.934 -368.744)" fill="#db8b8b"/>
    <path id="Path_3286" data-name="Path 3286" d="M638.46,619s.137,5.909,1.518,8.8l.276,8.383s-.412,7.7-1.237,9.208,1.786,14.292,1.786,14.292v2.2s4.391,1.644,5.636-.278L645.2,645.245l.549-22.676Z" transform="translate(-502.144 -482.794)" fill="#474463"/>
    <path id="Path_3287" data-name="Path 3287" d="M638.46,619s.137,5.909,1.518,8.8l.276,8.383s-.412,7.7-1.237,9.208,1.786,14.292,1.786,14.292v2.2s4.391,1.644,5.636-.278L645.2,645.245l.549-22.676Z" transform="translate(-502.144 -482.794)" opacity="0.1"/>
    <path id="Path_3288" data-name="Path 3288" d="M623.011,544l-.825,2.2-.688,4.672a4.134,4.134,0,0,0,1.237,3.572,39.29,39.29,0,0,1,3.848,5.085l2.611-7.842s-2.611-.412-2.2-2.2a25.565,25.565,0,0,0,.276-5.085Z" transform="translate(-489.442 -426.766)" fill="#cbcdda"/>
    <path id="Path_3289" data-name="Path 3289" d="M623.011,543l-.825,2.2-.688,4.672a4.134,4.134,0,0,0,1.237,3.572,39.293,39.293,0,0,1,3.848,5.085l2.611-7.842s-2.611-.412-2.2-2.2a25.565,25.565,0,0,0,.276-5.085Z" transform="translate(-489.442 -426.019)" opacity="0.05"/>
    <path id="Path_3290" data-name="Path 3290" d="M661.134,790.912c-1.771,2.783-4.505,1.2-4.993.888l.2-.6,3.984-1.1A2.469,2.469,0,0,0,661.134,790.912Z" transform="translate(-515.352 -610.612)" opacity="0.1"/>
    <path id="Path_3291" data-name="Path 3291" d="M652.218,595.124c-.137,1.925-2.474,8.932-2.474,8.932l-1.647,5.768a45.891,45.891,0,0,0-1.811,12.547,12.2,12.2,0,0,1-.526,3.949c-1.1,3.036,1.1,7.146,1.1,7.146-1.925,3.435-5.221,1.1-5.221,1.1v-2.2s-2.611-11.955-1.925-14.292.961-8.659.961-8.659V598.01A12.944,12.944,0,0,1,636.9,589.8c-.033-.45-.058-.923-.076-1.414-.111-3.1,2.009-6.736,2.836-8.032.2-.314.324-.488.324-.488l12.142,4.806h.028v1.51Z" transform="translate(-500.921 -453.562)" fill="#474463"/>
    <path id="Path_3292" data-name="Path 3292" d="M663.115,467.291a7.742,7.742,0,0,0-.837,1.986,5.378,5.378,0,0,1-4.182-.152,6.726,6.726,0,0,0-1.166-2.8Z" transform="translate(-515.942 -368.744)" opacity="0.1"/>
    <circle id="Ellipse_973" data-name="Ellipse 973" cx="5.36" cy="5.36" r="5.36" transform="translate(139.063 89.889)" fill="#db8b8b"/>
    <path id="Path_3293" data-name="Path 3293" d="M659.125,586.192h-.058c-5.763,1.184-13-4.821-13-4.821a7.121,7.121,0,0,0,.506-1.012c.2-.314.324-.488.324-.488l12.142,4.806.03.481Z" transform="translate(-507.829 -453.562)" opacity="0.1"/>
    <path id="Path_3294" data-name="Path 3294" d="M641.38,485.079s-7.7-4.672-10.169-2.75l-3.435,4.4s-2.2.688-1.786,5.085l-1.649,7.971,4.948,1.237a5.411,5.411,0,0,1,.549,6.734s7.283,6.046,13.055,4.806l-.425-6.453a8.367,8.367,0,0,1,.961-6.87c2.2-3.3.137-6.458-1.925-7.7C641.519,491.54,640.555,486.316,641.38,485.079Z" transform="translate(-491.596 -380.349)" fill="#cbcdda"/>
    <path id="Path_3295" data-name="Path 3295" d="M689.163,605.4a7.087,7.087,0,0,1,4.26,2.75,8.568,8.568,0,0,0,1.439,1.8,1.09,1.09,0,0,1-.169,1.738c-1.09.655-2.869,1.06-5.115-.787C685.728,607.737,689.163,605.4,689.163,605.4Z" transform="translate(-538.967 -472.634)" fill="#db8b8b"/>
    <path id="Path_3296" data-name="Path 3296" d="M660.651,504.595s-2.75-.276-3.435,6.87-1.786,8.8-1.786,8.8-.688,3.711.961,5.909,4.806,6.87,4.806,6.87,3.435.961,4.123-2.474l-4.26-7.971a5.718,5.718,0,0,1,.961-4.672C663.671,516,664.911,503.219,660.651,504.595Z" transform="translate(-514.715 -397.252)" opacity="0.1"/>
    <path id="Path_3297" data-name="Path 3297" d="M661.741,502.965s-2.75-.276-3.435,6.87-1.786,8.8-1.786,8.8-.688,3.711.961,5.909,4.806,6.87,4.806,6.87,3.435.961,4.123-2.474l-4.26-7.971a5.7,5.7,0,0,1,.961-4.662C664.759,514.389,666,501.589,661.741,502.965Z" transform="translate(-515.529 -396.034)" fill="#cbcdda"/>
    <path id="Path_3298" data-name="Path 3298" d="M680.961,523.64s.276,4.26-.961,6.6-1.237,5.36,0,7.01" transform="translate(-532.483 -411.557)" opacity="0.1"/>
    <path id="Path_3299" data-name="Path 3299" d="M663.285,496.1s-1.1-1.1-4.26-1.237a9.1,9.1,0,0,1-4.536-1.1" transform="translate(-514.119 -389.235)" opacity="0.1"/>
    <path id="Path_3300" data-name="Path 3300" d="M633.608,429.247c-.835.1-1.788.39-2.089,1.174a8.285,8.285,0,0,0-.19.906c-.311,1.2-1.662,1.771-2.5,2.676a6.393,6.393,0,0,0-1.3,2.975,27.946,27.946,0,0,0-.483,9.337c.268,2.277.817,4.523.969,6.812a10.789,10.789,0,0,1-1.379,6.62,16.478,16.478,0,0,0-1.629,2.464,4.7,4.7,0,0,0,2.891.759q1.771.061,3.541,0a3.781,3.781,0,0,0,1.8-.374,2.782,2.782,0,0,0,.946-1.012,7.259,7.259,0,0,0,.817-3.858c-.03-1.328-.24-2.654-.253-3.987a3.488,3.488,0,0,1,.46-2.089,6.678,6.678,0,0,1,1.151-1.065,7.278,7.278,0,0,0,2.024-5.36c.048-1.966-.276-3.934-.109-5.891.066-.759.352-1.687,1.105-1.836a4.254,4.254,0,0,0,.718-.091c.6-.233.546-1.085.718-1.71.195-.7.792-1.242.961-1.95.395-1.662-1.72-3.648-3.106-4.227A11.215,11.215,0,0,0,633.608,429.247Z" transform="translate(-492.096 -340.924)" opacity="0.1"/>
    <path id="Path_3301" data-name="Path 3301" d="M633.108,428.154c-.835.1-1.788.39-2.089,1.174a8.281,8.281,0,0,0-.19.906c-.311,1.2-1.662,1.771-2.5,2.676a6.394,6.394,0,0,0-1.3,2.975,27.948,27.948,0,0,0-.483,9.337c.268,2.277.817,4.523.969,6.812a10.789,10.789,0,0,1-1.379,6.62,16.47,16.47,0,0,0-1.629,2.464,4.7,4.7,0,0,0,2.891.759q1.771.061,3.541,0a3.78,3.78,0,0,0,1.8-.374,2.782,2.782,0,0,0,.946-1.012,7.259,7.259,0,0,0,.817-3.858c-.03-1.328-.24-2.654-.253-3.987a3.488,3.488,0,0,1,.46-2.089,6.682,6.682,0,0,1,1.151-1.065,7.277,7.277,0,0,0,2.024-5.36c.048-1.966-.276-3.934-.109-5.892.066-.759.352-1.687,1.105-1.836a4.256,4.256,0,0,0,.718-.091c.6-.233.546-1.085.718-1.71.195-.7.792-1.242.961-1.95.395-1.662-1.72-3.648-3.106-4.227A11.2,11.2,0,0,0,633.108,428.154Z" transform="translate(-491.723 -340.107)" fill="#472727"/>
  </g>
</svg>
