<svg xmlns="http://www.w3.org/2000/svg" width="1080.972" height="784.337" viewBox="0 0 1080.972 784.337">
  <g id="apply-through-truescho-2" opacity="0.3">
    <path id="Path_4283" data-name="Path 4283" d="M448.109,273.772A104.983,104.983,0,0,1,293.758,270.4L59.514,492.127,388.907,840.119,702.88,542.927Z" transform="translate(-59.514 -57.831)" fill="#f2f2f2"/>
    <path id="Path_4284" data-name="Path 4284" d="M372.293,284.015a91.635,91.635,0,0,0,66.194-28.153l-65.318-69.006-69.787,66.057a91.68,91.68,0,0,0,68.912,31.1Z" transform="translate(-59.514 -57.831)" fill="#f2f2f2"/>
    <path id="Path_4285" data-name="Path 4285" d="M886.486,384.935a164.833,164.833,0,0,1-165,165q-1.41,0-2.82-.03c-3.96-.06-7.87-.26-11.76-.6a165.007,165.007,0,1,1,179.58-164.37Z" transform="translate(-59.514 -57.831)" fill="#00a8cc"/>
    <path id="Path_4286" data-name="Path 4286" d="M817.106,325.225a164.077,164.077,0,0,0,19.888-59.078,165,165,0,0,0-278.017,96.589A164.377,164.377,0,0,0,658.906,408.3c3.89.34,7.8.54,11.76.6q1.41.03,2.82.03a164.757,164.757,0,0,0,143.62-83.71Z" transform="translate(-59.514 -57.831)" opacity="0.1"/>
    <rect id="Rectangle_1377" data-name="Rectangle 1377" width="265" height="296" transform="translate(469.972 488.104)" fill="#2f2e41"/>
    <path id="Path_4287" data-name="Path 4287" d="M879.356,446.535a165.194,165.194,0,0,1-115.61,96.4h36.74v296H556.066l137.17-237.59,31.43-54.44,2.29-3.97,104.03-180.18Z" transform="translate(-59.514 -57.831)" opacity="0.1"/>
    <path id="Path_4288" data-name="Path 4288" d="M805.472,306.924l137.75,238.59L1080.97,784.1h-551l137.75-238.59Z" fill="#3f3d56"/>
    <rect id="Rectangle_1378" data-name="Rectangle 1378" width="1044" height="2" transform="translate(36.972 782.104)" fill="#2f2e41"/>
    <path id="Path_4289" data-name="Path 4289" d="M171.505,736.835l-1.825,15.21-10.343,4.867-11.56-3.651-7.909,3.651-2.433-13.993L151.428,727.1Z" fill="#9f616a"/>
    <path id="Path_4290" data-name="Path 4290" d="M223.718,806.225s9.433-11,9.583-5.5,20.836,24.359,20.836,24.359,32.245,9.734,7.3,15.818-79.7-11.56-81.525-15.21,15.21-31.637,17.035-29.2S207.9,807.442,223.718,806.225Z" transform="translate(-59.514 -57.831)" fill="#2f2e41"/>
    <path id="Path_4291" data-name="Path 4291" d="M246.837,625.531s3.65,28.595,0,32.853-1.825,12.776,0,13.993-2.434,6.084-5.476,8.518-7.3,13.385-7.3,13.385-16.427,43.2-16.427,47.455-7.3,13.385-6.692,16.427-4.259,12.776-3.65,14.6-7.909,18.252-5.476,20.685,35.9,10.951,34.07,5.476-3.042-12.168-1.825-12.168,6.692-6.692,5.476-9.126,36.5-66.315,36.5-66.315Z" transform="translate(-59.514 -57.831)" fill="#2f2e41"/>
    <path id="Path_4292" data-name="Path 4292" d="M223.718,806.225s9.433-11,9.583-5.5,20.836,24.359,20.836,24.359,32.245,9.734,7.3,15.818-79.7-11.56-81.525-15.21,15.21-31.637,17.035-29.2S207.9,807.442,223.718,806.225Z" transform="translate(-59.514 -57.831)" opacity="0.1"/>
    <path id="Path_4293" data-name="Path 4293" d="M246.837,625.531s3.65,28.595,0,32.853-1.825,12.776,0,13.993-2.434,6.084-5.476,8.518-7.3,13.385-7.3,13.385-16.427,43.2-16.427,47.455-7.3,13.385-6.692,16.427-4.259,12.776-3.65,14.6-7.909,18.252-5.476,20.685,35.9,10.951,34.07,5.476-3.042-12.168-1.825-12.168,6.692-6.692,5.476-9.126,36.5-66.315,36.5-66.315Z" transform="translate(-59.514 -57.831)" opacity="0.1"/>
    <path id="Path_4294" data-name="Path 4294" d="M249.38,729.282l6.692,17.035-3.042,23.727-19.469-1.216-10.951-9.735V738.408Z" fill="#9f616a"/>
    <path id="Path_4295" data-name="Path 4295" d="M305.243,807.8s6.693-21.9,10.343-15.818a96.278,96.278,0,0,1,6.084,12.168s29.811,19.469,37.721,19.469,15.21,9.734,4.867,13.385-89.434,8.518-90.651,0,1.217-35.9,4.867-32.853S300.984,813.882,305.243,807.8Z" transform="translate(-59.514 -57.831)" fill="#2f2e41"/>
    <path id="Path_4296" data-name="Path 4296" d="M320.453,538.279s26.816,18.223,28.033,20.657,16.776,9.916,4,16-46.634-32.4-46.634-32.4Z" transform="translate(-59.514 -57.831)" fill="#9f616a"/>
    <path id="Path_4297" data-name="Path 4297" d="M307.068,502.991s19.469,37.721,15.818,38.937-18.252,8.518-18.252,8.518l-6.692-38.329Z" transform="translate(-59.514 -57.831)" fill="#575a88"/>
    <path id="Path_4298" data-name="Path 4298" d="M307.068,502.991s19.469,37.721,15.818,38.937-18.252,8.518-18.252,8.518l-6.692-38.329Z" transform="translate(-59.514 -57.831)" opacity="0.1"/>
    <path id="Path_4299" data-name="Path 4299" d="M305.852,534.628s4.259,31.637,2.434,38.329,1.217,107.078-1.217,112.553-4.259,40.763-4.259,45.021,4.867,38.937,6.084,41.979,4.867,13.385,3.042,18.252-26.77,17.035-30.42,12.776-.608-17.643-3.65-18.252-6.692-29.2-6.692-29.2L251.1,644.139s-37.721-93.693-29.2-102.819S305.852,534.628,305.852,534.628Z" transform="translate(-59.514 -57.831)" fill="#2f2e41"/>
    <circle id="Ellipse_1167" data-name="Ellipse 1167" cx="29.811" cy="29.811" r="29.811" transform="translate(194.016 201.194)" fill="#9f616a"/>
    <path id="Path_4300" data-name="Path 4300" d="M294.292,313.172s-9.734,25.553-8.518,31.028-28.595-9.734-28.595-9.734,1.825-29.811,0-37.721S294.292,313.172,294.292,313.172Z" transform="translate(-59.514 -57.831)" fill="#9f616a"/>
    <path id="Path_4301" data-name="Path 4301" d="M212.548,479.635c.134,5.1.219,8.146.219,8.146s-1.825,27.986,1.217,37.112,3.042,15.818,4.867,21.9c.535,1.77,7.818,2.719,18.045,3.139,9.382.383,21.239.329,32.622.067,18.848-.438,36.419-1.448,39.375-1.989,6.692-1.217-1.217-11.56,1.217-17.035s-4.259-75.441-4.259-75.441.608-39.546-2.434-54.756-14.6-39.546-17.035-42.588-.608-4.867,4.867-8.518,0-17.643,0-17.643c-10.343-8.518-36.5-9.734-36.5-9.734s-40.154,41.371-42.588,49.889c-1.472,5.147-.943,46.263-.3,78.009C212.11,462.138,212.371,472.76,212.548,479.635Z" transform="translate(-59.514 -57.831)" fill="#575a88"/>
    <path id="Path_4302" data-name="Path 4302" d="M263.872,555.314s23.119,47.455,4.867,50.5-27.378-43.2-27.378-43.2Z" transform="translate(-59.514 -57.831)" fill="#9f616a"/>
    <path id="Path_4303" data-name="Path 4303" d="M311.216,273.725c1.054-5.113-2.853-9.893-6.969-13.1a50.928,50.928,0,0,0-31.332-10.684c-7.978.043-16.213,2.154-22.243,7.378-7.034,6.094-10.242,15.866-9.652,25.153s4.63,18.1,10.078,25.641c2.615,3.621,6.814,7.37,10.993,5.791a10.217,10.217,0,0,0,4.066-3.434,63.067,63.067,0,0,0,6.97-10.712c1.5-2.906,2.791-5.969,4.91-8.457s5.3-4.359,8.542-3.912c2.674.369,5.3,2.252,7.848,1.367,2.838-.984,3.524-4.613,3.749-7.608.247-3.283.072-7.085.984-10.189C300.158,271.487,310.726,276.175,311.216,273.725Z" transform="translate(-59.514 -57.831)" fill="#2f2e41"/>
    <path id="Path_4304" data-name="Path 4304" d="M212.548,479.635c6.814,24.573,22.444,65.987,23.338,67.769.225.456.578,1.351,1.01,2.531,9.382.383,21.239.329,32.622.067-1.764-4.612-3.821-9.065-3.821-10.507,0-3.042-14.6-81.525-14.6-81.525s11.56-34.679,21.9-63.882-30.724-23.423-30.724-23.423c-21.9-5.476-25.857,3.955-25.857,3.955s-1.929,51.288-4.557,75.575c-.675,6.224-1.393,10.671-2.135,12.034C208.751,464.011,210.066,470.716,212.548,479.635Z" transform="translate(-59.514 -57.831)" opacity="0.1"/>
    <path id="Path_4305" data-name="Path 4305" d="M251.1,350.892s27.986,11.56,17.644,40.763-21.9,63.882-21.9,63.882,14.6,78.483,14.6,81.525,9.126,19.469,5.476,22.511-27.986,9.126-28.595,6.084-5.476-18.252-6.692-20.685-29.811-78.483-26.161-85.176c2.686-4.925,5.043-50.044,6.1-73.534A38.621,38.621,0,0,1,231.7,353.745C237.373,350.739,243.978,349.113,251.1,350.892Z" transform="translate(-59.514 -57.831)" fill="#575a88"/>
    <rect id="Rectangle_1379" data-name="Rectangle 1379" width="36" height="36" transform="translate(267.972 471.104)" fill="#00a8cc"/>
    <circle id="Ellipse_1168" data-name="Ellipse 1168" cx="11" cy="11" r="11" transform="translate(274.972 449.104)" fill="#3f3d56"/>
    <circle id="Ellipse_1169" data-name="Ellipse 1169" cx="54.315" cy="54.315" r="54.315" transform="translate(656.804 1.7)" fill="#ff6584"/>
    <path id="Path_4306" data-name="Path 4306" d="M770.486,150.946c0,40.981-24.362,55.29-54.415,55.29s-54.415-14.309-54.415-55.29,54.415-93.115,54.415-93.115S770.486,109.965,770.486,150.946Z" transform="translate(-59.514 -57.831)" fill="#f2f2f2"/>
    <path id="Path_4307" data-name="Path 4307" d="M654.575,142.135l.557-34.3,23.193-42.43-23.105,37.05.25-15.421,15.985-30.7L655.537,82.956h0l.45-27.736L673.1,30.78,656.058,50.858,656.339,0,654.57,67.327l.146-2.778-17.4-26.637,17.124,31.969-1.622,30.977-.048-.823L632.705,72l20,30.937-.2,3.874-.036.058.017.318-4.114,78.59h5.5l.66-40.593,19.952-30.861Z" fill="#3f3d56"/>
    <path id="Path_4308" data-name="Path 4308" d="M901.6,212.2c-13,38.863-40.646,44.7-69.146,35.168s-47.063-30.834-34.061-69.7,81.147-71.039,81.147-71.039S914.606,173.336,901.6,212.2Z" transform="translate(-59.514 -57.831)" fill="#f2f2f2"/>
    <path id="Path_4309" data-name="Path 4309" d="M773.053,182.962l11.41-32.348,35.457-32.88-33.667,27.805,5.131-14.545,24.9-24.04-23.541,20.191h0l9.228-26.16,23.986-17.746L803.42,96.871l16.4-48.141-23.039,63.287,1.019-2.588-8.052-30.782,6.1,35.75L784.48,143.259l.216-.795-10.132-32.949,9.152,35.684-1.421,3.609-.053.044-.085.307L753.32,222.383l5.213,1.744,13.505-38.287L800.751,162.9Z" fill="#3f3d56"/>
    <path id="Path_4310" data-name="Path 4310" d="M631.505,180.928c14.738,38.239-2.848,60.352-30.89,71.16s-55.92,6.218-70.658-32.021,17.286-106.454,17.286-106.454S616.766,142.689,631.505,180.928Z" transform="translate(-59.514 -57.831)" fill="#f2f2f2"/>
    <path id="Path_4311" data-name="Path 4311" d="M537,189.12l-11.815-32.2,6.382-47.932-8.235,42.881-5.313-14.48,3.875-34.393-5.28,30.561h0l-9.555-26.042,7.182-28.96-8.684,24.865L487.526,55.86l22.562,63.459-.863-2.644-25.818-18.6,27.475,23.672,9.627,29.487-.34-.75-28.8-18.941,29.789,21.673,1.2,3.688-.013.067.13.291L546.9,232.076l5.129-1.976-13.984-38.115,7.519-35.971Z" fill="#3f3d56"/>
    <path id="Path_4312" data-name="Path 4312" d="M515.939,505.835c-3.372,5.378-7.746,5.252-11.69,2.779s-5.964-6.355-2.593-11.733,14.8-7.744,14.8-7.744S519.311,500.457,515.939,505.835Z" transform="translate(-59.514 -57.831)" fill="#00a8cc"/>
    <path id="Path_4313" data-name="Path 4313" d="M918.069,344.643c.624,6.317-2.914,8.894-7.546,9.351s-8.606-1.377-9.23-7.694,6.97-15.182,6.97-15.182S917.445,338.325,918.069,344.643Z" transform="translate(-59.514 -57.831)" fill="#00a8cc"/>
    <path id="Path_4314" data-name="Path 4314" d="M498,391.288c-3.372,5.378-7.746,5.252-11.69,2.779s-5.964-6.355-2.593-11.733,14.8-7.744,14.8-7.744S501.374,385.91,498,391.288Z" transform="translate(-59.514 -57.831)" fill="#00a8cc"/>
  </g>
</svg>
