<svg xmlns="http://www.w3.org/2000/svg" width="1024.357" height="640.481" viewBox="0 0 1024.357 640.481">
  <g id="apply-through-truescho-3" transform="translate(0 0)" opacity="0.3">
    <ellipse id="Ellipse_1160" data-name="Ellipse 1160" cx="33.093" cy="14.449" rx="33.093" ry="14.449" transform="translate(947.92 442.856)" opacity="0.1"/>
    <ellipse id="Ellipse_1161" data-name="Ellipse 1161" cx="33.093" cy="14.449" rx="33.093" ry="14.449" transform="translate(854.923 440.909) rotate(-7.723)" opacity="0.1"/>
    <path id="Path_4259" data-name="Path 4259" d="M1117.046,779.091H923.15V580.534h193.9Zm-192.032-1.864h190.168V582.4H925.014Z" transform="translate(-92.689 -138.611)" fill="#3f3d56"/>
    <ellipse id="Ellipse_1162" data-name="Ellipse 1162" cx="30.762" cy="10.254" rx="30.762" ry="10.254" transform="translate(455.72 43.876)" fill="#3f3d56"/>
    <path id="Path_4260" data-name="Path 4260" d="M341.015,495.429h-1.864V242.334A119.5,119.5,0,0,1,383.3,149.4a116.992,116.992,0,0,1,97.764-24.235c24.286,4.974,44.218,17.073,59.242,35.96l-1.459,1.161c-14.744-18.536-34.311-30.41-58.157-35.295a115.13,115.13,0,0,0-96.211,23.853,117.646,117.646,0,0,0-43.46,91.492Z" transform="translate(-53.09 -107.572)" fill="#3f3d56"/>
    <rect id="Rectangle_1369" data-name="Rectangle 1369" width="524.825" height="215.337" transform="translate(358.724 53.753)" fill="#f2f2f2"/>
    <rect id="Rectangle_1370" data-name="Rectangle 1370" width="84.83" height="63.498" transform="translate(375.504 72.342)" fill="#fff"/>
    <rect id="Rectangle_1371" data-name="Rectangle 1371" width="324.404" height="13.051" transform="translate(523.723 72.396)" fill="#fff"/>
    <rect id="Rectangle_1372" data-name="Rectangle 1372" width="164.998" height="13.051" transform="translate(523.723 97.565)" fill="#fff"/>
    <rect id="Rectangle_1373" data-name="Rectangle 1373" width="324.404" height="13.051" transform="translate(523.723 122.735)" fill="#fff"/>
    <rect id="Rectangle_1374" data-name="Rectangle 1374" width="472.622" height="13.051" transform="translate(375.504 170.276)" fill="#fff"/>
    <rect id="Rectangle_1375" data-name="Rectangle 1375" width="273.133" height="13.051" transform="translate(375.504 190.785)" fill="#fff"/>
    <rect id="Rectangle_1376" data-name="Rectangle 1376" width="172.456" height="13.051" transform="translate(375.504 211.293)" fill="#fff"/>
    <circle id="Ellipse_1163" data-name="Ellipse 1163" cx="20.508" cy="20.508" r="20.508" transform="translate(816.432 213.157)" fill="#fff"/>
    <path id="Path_4261" data-name="Path 4261" d="M948.436,324.034s-26.1,20.508-13.051,25.169,21.44-16.779,21.44-16.779Z" transform="translate(-93.271 -121.218)" fill="#ffb8b8"/>
    <path id="Path_4262" data-name="Path 4262" d="M950.244,316.034l-5.593,9.322s9.322,0,11.186,13.983l7.458-9.322Z" transform="translate(-94.147 -120.676)" fill="#00a8cc"/>
    <path id="Path_4263" data-name="Path 4263" d="M1050.285,437.568l.932,27.966-11.186,6.525-4.661-2.8.932-31.695Z" transform="translate(-70.204 -29.67)" fill="#ffb8b8"/>
    <path id="Path_4264" data-name="Path 4264" d="M1010.887,536.034l1.864,29.83-26.1,11.186,1.864-15.847s7.458-12.119,5.593-25.169Z" transform="translate(-96.995 -135.593)" fill="#ffb8b8"/>
    <path id="Path_4265" data-name="Path 4265" d="M1050.226,295.034s14.915,39.152,17.712,63.389,7.458,88.558,7.458,88.558l9.322,82.965-26.1,3.729-11.186-83.9-25.169-82.965-5.593,82.965-4.661,75.508-24.237.932-1.864-78.3L975.65,348.169l5.593-47.542Z" transform="translate(-96.249 -119.252)" fill="#2f2e41"/>
    <path id="Path_4266" data-name="Path 4266" d="M1070.379,575.339s1.529-15.656,12.883-6.9l2.032-1.494,9.322,20.508s11.186,15.847-8.39,17.712-17.712-17.712-17.712-17.712l-1.864-8.39.932-5.494Z" transform="translate(-102.419 -137.61)" fill="#2f2e41"/>
    <path id="Path_4267" data-name="Path 4267" d="M1008.582,556.034a14.81,14.81,0,0,1,7.458,13.051c0,9.322-.932,10.254-.932,10.254l-13.983,3.729s-9.322-.932-14.915,4.661-33.559,9.322-33.559,1.864,23.3-19.576,23.3-19.576,6.921-11.688,11.85-10.5,6.794,3.047,6.794,3.979-2.8,7.458-2.8,7.458S1007.649,567.22,1008.582,556.034Z" transform="translate(-94.689 -136.949)" fill="#2f2e41"/>
    <circle id="Ellipse_1164" data-name="Ellipse 1164" cx="23.305" cy="23.305" r="23.305" transform="translate(888.724 14.512)" fill="#ffb8b8"/>
    <path id="Path_4268" data-name="Path 4268" d="M1027.27,153.534l10.254,23.3-27.966,40.084s-1.864-43.813-7.458-51.271S1027.27,153.534,1027.27,153.534Z" transform="translate(-97.996 -109.658)" fill="#ffb8b8"/>
    <path id="Path_4269" data-name="Path 4269" d="M980.359,96.491l4.661-12.119,3.729.932,4.661-3.729,6.527-20.508,9.322,6.525,12.119,122.117-75.51,1.864,10.254-84.83,9.322-24.237,6.729-8.9,4.457,13.557Z" transform="translate(-64.135 -4.141)" fill="#00a8cc"/>
    <path id="Path_4270" data-name="Path 4270" d="M1038.15,255.4,1041,171.076s5.537.427,7.4,3.224,32.627,8.39,32.627,8.39l-5.593,86.694s23.3,68.982,14.915,72.711-23.3,2.8-23.3,2.8Z" transform="translate(-100.487 -110.847)" fill="#575a89"/>
    <path id="Path_4271" data-name="Path 4271" d="M987.876,245.9l9.889-56.831-22.008,14.883,5.593,41.017-4.661,27.966s-17.712,77.372-12.119,80.169,12.119,0,12.119,0l11.186-78.3Z" transform="translate(-95.424 -112.067)" fill="#575a89"/>
    <path id="Path_4272" data-name="Path 4272" d="M981.007,203.034l-6.525,1.864-2.8,37.288-4.661,32.627L944.651,314.9s11.186-7.458,15.847,13.983l24.639-42.9Z" transform="translate(-94.147 -113.014)" fill="#575a89"/>
    <path id="Path_4273" data-name="Path 4273" d="M1060.435,316.034s-26.1,20.508-13.051,25.169,21.44-16.779,21.44-16.779Z" transform="translate(-100.865 -120.676)" fill="#ffb8b8"/>
    <path id="Path_4274" data-name="Path 4274" d="M1044.946,219.28l-8.39,10.254-11.186-19.576,4.661-8.39Z" transform="translate(-69.526 -13.668)" fill="#00a8cc"/>
    <path id="Path_4275" data-name="Path 4275" d="M1075.362,186.763l7.458-3.729s5.593,7.458,6.525,13.983,5.593,14.915,5.593,19.576,13.051,48.474,13.051,48.474l-29.83,60.593s-6.525-22.373-20.508-24.237l23.3-32.627-13.051-23.3Z" transform="translate(-101.809 -111.658)" fill="#575a89"/>
    <path id="Path_4276" data-name="Path 4276" d="M1027.763,122.078l4.395-1.759s-9.189-10.116-21.974-9.237l3.6-3.959s-8.789-3.519-16.78,5.718c-4.2,4.855-9.06,10.563-12.09,16.992H980.2l1.964,4.325-6.875,4.325,7.056-.777a24.17,24.17,0,0,0-.191,7.174,9.282,9.282,0,0,0,3.4,6.072h0s5.45-11.281,5.45-13.041v4.4s4.395-3.959,4.395-6.6l2.4,3.079,1.2-4.838,14.782,4.838-2.4-3.959,9.189,1.32-3.6-4.838s10.387,5.718,10.787,10.556a23.233,23.233,0,0,0,3.44,9.423S1039.351,128.676,1027.763,122.078Z" transform="translate(-96.225 -106.466)" fill="#2f2e41"/>
    <ellipse id="Ellipse_1165" data-name="Ellipse 1165" cx="2.61" cy="3.263" rx="2.61" ry="3.263" transform="translate(928.529 30.826)" fill="#ffb8b8"/>
    <path id="Path_4277" data-name="Path 4277" d="M468.841,591.811C440,698.423,341.214,764.452,341.214,764.452s-52.026-106.825-23.185-213.438,127.626-172.64,127.626-172.64S497.681,485.2,468.841,591.811Z" transform="translate(-51.068 -124.903)" fill="#00a8cc"/>
    <path id="Path_4278" data-name="Path 4278" d="M198.357,591.811C227.2,698.423,325.983,764.452,325.983,764.452s52.026-106.825,23.186-213.438-127.627-172.64-127.627-172.64S169.516,485.2,198.357,591.811Z" transform="translate(-42.953 -124.903)" fill="#00a8cc"/>
    <path id="Path_4279" data-name="Path 4279" d="M230.066,576.683c79.139,77.039,88.805,195.465,88.805,195.465s-118.644-6.478-197.783-83.517S32.283,493.166,32.283,493.166,150.927,499.644,230.066,576.683Z" transform="translate(-32.283 -132.687)" fill="#3f3d56"/>
    <path id="Path_4280" data-name="Path 4280" d="M428.522,576.683c-79.139,77.039-88.805,195.465-88.805,195.465S458.361,765.67,537.5,688.632s88.805-195.465,88.805-195.465S507.662,499.644,428.522,576.683Z" transform="translate(-53.129 -132.687)" fill="#3f3d56"/>
    <ellipse id="Ellipse_1166" data-name="Ellipse 1166" cx="78.77" cy="41.017" rx="78.77" ry="41.017" transform="translate(698.09 193.96)" fill="#00a8cc"/>
    <path id="Path_4281" data-name="Path 4281" d="M846.041,247.685,829.478,225.6l5.967-4.475,11.4,15.2,52.426-52.425,5.273,5.272Z" transform="translate(-56.243 -12.47)" fill="#3f3d56"/>
    <path id="Path_4282" data-name="Path 4282" d="M875.854,380.431c-43.948,0-79.7-18.818-79.7-41.949s35.755-41.949,79.7-41.949,79.7,18.818,79.7,41.949S919.8,380.431,875.854,380.431Zm0-82.033c-42.92,0-77.838,17.982-77.838,40.084s34.918,40.084,77.838,40.084,77.838-17.982,77.838-40.084S918.774,298.4,875.854,298.4Z" transform="translate(-84.078 -119.354)" fill="#3f3d56"/>
  </g>
</svg>
