<svg xmlns="http://www.w3.org/2000/svg" xmlns:xlink="http://www.w3.org/1999/xlink" width="370.01" height="283.971" viewBox="0 0 370.01 283.971">
  <defs>
    <linearGradient id="linear-gradient" x1="0.5" y1="1" x2="0.5" gradientUnits="objectBoundingBox">
      <stop offset="0" stop-color="gray" stop-opacity="0.251"/>
      <stop offset="0.54" stop-color="gray" stop-opacity="0.122"/>
      <stop offset="1" stop-color="gray" stop-opacity="0.102"/>
    </linearGradient>
    <linearGradient id="linear-gradient-2" x1="0.503" y1="1" x2="0.503" y2="-0.002" xlink:href="#linear-gradient"/>
    <linearGradient id="linear-gradient-3" x1="0.927" y1="1" x2="0.927" y2="0" xlink:href="#linear-gradient"/>
  </defs>
  <g id="blogs" transform="translate(0.005 -0.008)">
    <path id="Path_3336" data-name="Path 3336" d="M96.3,192.994c12.563,15.974,7.682,39.306-.3,58-2.675,6.259-5.695,12.876-4.581,19.586,1.378,8.2,8.7,14.205,16.39,17.384a48.782,48.782,0,0,0,43.669-3.6c11.129-6.925,19.1-18.184,30.419-24.791,18.945-11.058,43.056-6.882,63.625.737,14.554,5.388,30.464,12.4,44.923,6.766,10.174-3.964,17.207-13.609,21.041-23.836,1.85-4.934,3.193-10.279,6.727-14.194a25.256,25.256,0,0,1,7.651-5.37c25.644-12.714,58.029-5.906,82.936-20.005,16.82-9.515,27.589-27.487,32.357-46.22s4.229-38.376,3-57.666c-.86-13.712-2.4-28.347-11.164-38.929-9.268-11.192-25.172-15.357-39.546-13.229s-27.406,9.712-38.869,18.642c-14.325,11.164-27.614,25.062-45.2,29.6-11.981,3.08-24.58,1.41-36.934.811-20.654-.976-41.315,1.195-61.856,3.566-19.664,2.273-39.468,4.775-58.2,11.171-13.254,4.511-23.875,12.728-36.392,18.455-8.158,3.742-17.056,4.775-24.784,9.543-9.515,5.871-18.24,16.083-15.8,28.033C77.728,178.817,89.632,184.515,96.3,192.994Z" transform="translate(-75 -47.08)" fill="#00a8cc" opacity="0.1"/>
    <path id="Path_3337" data-name="Path 3337" d="M200.935,475.985s-1.163-34.45-19.8-53.916a52.22,52.22,0,0,1-14.321-29.77,87.837,87.837,0,0,1-.437-16.059" transform="translate(-134.061 -260.241)" fill="none" stroke="#535461" stroke-miterlimit="10" stroke-width="2"/>
    <path id="Path_3338" data-name="Path 3338" d="M132.891,323.519c1.276,3.848,11.939,12.686,11.939,12.686s3.267-13.465,1.991-17.31a7.338,7.338,0,0,0-13.93,4.62Z" transform="translate(-112.251 -219.847)" fill="#00a8cc"/>
    <path id="Path_3339" data-name="Path 3339" d="M116.369,388.9c3.172,2.537,16.915,4.165,16.915,4.165s-4.581-13.077-7.753-15.611a7.337,7.337,0,0,0-9.162,11.446Z" transform="translate(-100.162 -260.101)" fill="#00a8cc"/>
    <path id="Path_3340" data-name="Path 3340" d="M145.135,488.6c4.01.592,16.707-4.934,16.707-4.934s-10.551-8.979-14.561-9.571a7.338,7.338,0,0,0-2.146,14.519Z" transform="translate(-116.365 -323.559)" fill="#00a8cc"/>
    <path id="Path_3341" data-name="Path 3341" d="M191.863,560.837c3.852,1.262,17.3-2.051,17.3-2.051s-8.884-10.632-12.736-11.893a7.339,7.339,0,0,0-4.581,13.944Z" transform="translate(-147.405 -370.518)" fill="#00a8cc"/>
    <path id="Path_3342" data-name="Path 3342" d="M185.228,393.01c-1.871,3.594-13.8,10.635-13.8,10.635s-1.085-13.81.786-17.408a7.337,7.337,0,1,1,13.017,6.773Z" transform="translate(-137.246 -264.156)" fill="#00a8cc"/>
    <path id="Path_3343" data-name="Path 3343" d="M232.131,474.273c-2.861,2.872-16.351,6.015-16.351,6.015s3.1-13.5,5.955-16.376a7.337,7.337,0,0,1,10.4,10.357Z" transform="translate(-166.173 -315.62)" fill="#00a8cc"/>
    <path id="Path_3344" data-name="Path 3344" d="M272.73,564.658c-2.333,3.313-15.1,8.694-15.1,8.694s.768-13.831,3.1-17.148a7.337,7.337,0,1,1,11.981,8.457Z" transform="translate(-193.276 -374.646)" fill="#00a8cc"/>
    <path id="Path_3345" data-name="Path 3345" d="M712.4,591.738s-5.6-1.9-8.288,3.034a8.993,8.993,0,0,0,.12,8.658,12.71,12.71,0,0,0,12.334,6.977c5.857-.314,7.788-4.782,8.324-8.94a9.183,9.183,0,0,0-12.2-9.832Z" transform="translate(-481.736 -399.386)" fill="#00a8cc"/>
    <path id="Path_3346" data-name="Path 3346" d="M705.424,603.591a8.993,8.993,0,0,1-.12-8.658C708,590,713.593,591.9,713.593,591.9l.285-.1a9.1,9.1,0,0,1,6.576.148,9.106,9.106,0,0,0-7.753-.74l-.285.1s-5.6-1.9-8.288,3.034a8.993,8.993,0,0,0,.12,8.658,13.379,13.379,0,0,0,6.343,5.991A13.867,13.867,0,0,1,705.424,603.591Z" transform="translate(-481.749 -399.102)" fill="#fff" opacity="0.1"/>
    <path id="Path_3347" data-name="Path 3347" d="M721.36,599.64s2.076,1.632,7.111,0" transform="translate(-493.59 -404.916)" opacity="0.2"/>
    <path id="Path_3348" data-name="Path 3348" d="M720.1,566s3.556,9.631,3.26,12.151l2.819-.3S721.436,569.4,722.623,566Z" transform="translate(-492.774 -383.13)" fill="#00a8cc"/>
    <path id="Path_3349" data-name="Path 3349" d="M720.1,566s3.556,9.631,3.26,12.151l2.819-.3S721.436,569.4,722.623,566Z" transform="translate(-492.774 -383.13)" opacity="0.2"/>
    <path id="Path_3350" data-name="Path 3350" d="M741.085,565.647s-5.6-2.861-8.1-.5-2.89,8.408-2.89,8.408S739.22,574.813,741.085,565.647Z" transform="translate(-499.243 -381.974)" fill="#00a8cc"/>
    <path id="Path_3351" data-name="Path 3351" d="M741.085,565.647s-5.6-2.861-8.1-.5-2.89,8.408-2.89,8.408S739.22,574.813,741.085,565.647Z" transform="translate(-499.243 -381.974)" fill="#fff" opacity="0.1"/>
    <path id="Path_3352" data-name="Path 3352" d="M730.1,576.191s1.47-7.016,10.991-7.911" transform="translate(-499.25 -384.607)" fill="none" stroke="#00a8cc" stroke-miterlimit="10" stroke-width="1"/>
    <path id="Path_3353" data-name="Path 3353" d="M247.7,369.534s1.142-18.628-7.9-30.073a28.276,28.276,0,0,1-6.192-16.781A47.573,47.573,0,0,1,234.2,314" transform="translate(-177.709 -219.934)" fill="none" stroke="#535461" stroke-miterlimit="10" stroke-width="2"/>
    <path id="Path_3354" data-name="Path 3354" d="M219.064,284.495c.49,2.139,5.783,7.453,5.783,7.453s2.467-7.09,1.963-9.226a3.975,3.975,0,1,0-7.753,1.762Z" transform="translate(-168.231 -197.674)" fill="#00a8cc"/>
    <path id="Path_3355" data-name="Path 3355" d="M206.587,318.69c1.575,1.529,8.905,3.115,8.905,3.115s-1.794-7.284-3.369-8.81a3.972,3.972,0,0,0-5.536,5.7Z" transform="translate(-159.44 -218.556)" fill="#00a8cc"/>
    <path id="Path_3356" data-name="Path 3356" d="M217.2,374.1c2.114.525,9.257-1.808,9.257-1.808s-5.226-5.381-7.354-5.906a3.973,3.973,0,0,0-1.9,7.714Z" transform="translate(-165.133 -253.784)" fill="#00a8cc"/>
    <path id="Path_3357" data-name="Path 3357" d="M238.687,415.466c2.012.877,9.43-.219,9.43-.219s-4.229-6.188-6.251-7.048a3.971,3.971,0,1,0-3.172,7.281Z" transform="translate(-179.467 -280.723)" fill="#00a8cc"/>
    <path id="Path_3358" data-name="Path 3358" d="M242.735,324.679c-1.191,1.843-7.985,5.022-7.985,5.022s.123-7.5,1.318-9.342a3.972,3.972,0,1,1,6.667,4.32Z" transform="translate(-178.458 -222.878)" fill="#00a8cc"/>
    <path id="Path_3359" data-name="Path 3359" d="M263.793,371.217c-1.688,1.41-9.123,2.4-9.123,2.4s2.361-7.118,4.053-8.521a3.973,3.973,0,1,1,5.071,6.118Z" transform="translate(-191.359 -252.434)" fill="#00a8cc"/>
    <path id="Path_3360" data-name="Path 3360" d="M280.854,422.021c-1.427,1.667-8.584,3.912-8.584,3.912s1.124-7.4,2.555-9.081a3.974,3.974,0,1,1,6.033,5.173Z" transform="translate(-202.757 -285.642)" fill="#00a8cc"/>
    <path id="Path_3361" data-name="Path 3361" d="M219.064,284.495c.49,2.139,5.783,7.453,5.783,7.453s2.467-7.09,1.963-9.226a3.975,3.975,0,1,0-7.753,1.762Z" transform="translate(-168.231 -197.674)" fill="#fff" opacity="0.5"/>
    <path id="Path_3362" data-name="Path 3362" d="M206.587,318.69c1.575,1.529,8.905,3.115,8.905,3.115s-1.794-7.284-3.369-8.81a3.972,3.972,0,0,0-5.536,5.7Z" transform="translate(-159.44 -218.556)" fill="#fff" opacity="0.5"/>
    <path id="Path_3363" data-name="Path 3363" d="M217.2,374.1c2.114.525,9.257-1.808,9.257-1.808s-5.226-5.381-7.354-5.906a3.973,3.973,0,0,0-1.9,7.714Z" transform="translate(-165.133 -253.784)" fill="#fff" opacity="0.5"/>
    <path id="Path_3364" data-name="Path 3364" d="M238.687,415.466c2.012.877,9.43-.219,9.43-.219s-4.229-6.188-6.251-7.048a3.971,3.971,0,1,0-3.172,7.281Z" transform="translate(-179.467 -280.723)" fill="#fff" opacity="0.5"/>
    <path id="Path_3365" data-name="Path 3365" d="M242.735,324.679c-1.191,1.843-7.985,5.022-7.985,5.022s.123-7.5,1.318-9.342a3.972,3.972,0,1,1,6.667,4.32Z" transform="translate(-178.458 -222.878)" fill="#fff" opacity="0.5"/>
    <path id="Path_3366" data-name="Path 3366" d="M263.793,371.217c-1.688,1.41-9.123,2.4-9.123,2.4s2.361-7.118,4.053-8.521a3.973,3.973,0,1,1,5.071,6.118Z" transform="translate(-191.359 -252.434)" fill="#fff" opacity="0.5"/>
    <path id="Path_3367" data-name="Path 3367" d="M280.854,422.021c-1.427,1.667-8.584,3.912-8.584,3.912s1.124-7.4,2.555-9.081a3.974,3.974,0,1,1,6.033,5.173Z" transform="translate(-202.757 -285.642)" fill="#fff" opacity="0.5"/>
    <path id="Path_3368" data-name="Path 3368" d="M504.5,20.39V141.6H682.431V20.39Z" transform="translate(-326.72 -13.2)" fill="url(#linear-gradient)"/>
    <rect id="Rectangle_1054" data-name="Rectangle 1054" width="173.406" height="113.517" transform="translate(180.419 12.688)" fill="#fff"/>
    <rect id="Rectangle_1055" data-name="Rectangle 1055" width="173.406" height="8.352" transform="translate(180.419 7.289)" fill="#eee"/>
    <circle id="Ellipse_979" data-name="Ellipse 979" cx="2.026" cy="2.026" r="2.026" transform="translate(184.99 9.312)" fill="#ff5252"/>
    <circle id="Ellipse_980" data-name="Ellipse 980" cx="2.026" cy="2.026" r="2.026" transform="translate(190.561 9.312)" fill="#ff0"/>
    <circle id="Ellipse_981" data-name="Ellipse 981" cx="2.026" cy="2.026" r="2.026" transform="translate(196.129 9.312)" fill="#69f0ae"/>
    <rect id="Rectangle_1056" data-name="Rectangle 1056" width="64.619" height="2.692" transform="translate(187.065 29.018)" fill="#00a8cc" opacity="0.5"/>
    <rect id="Rectangle_1057" data-name="Rectangle 1057" width="64.619" height="2.692" transform="translate(187.065 34.402)" fill="#00a8cc" opacity="0.5"/>
    <rect id="Rectangle_1058" data-name="Rectangle 1058" width="64.619" height="2.692" transform="translate(187.065 39.787)" fill="#00a8cc" opacity="0.5"/>
    <rect id="Rectangle_1059" data-name="Rectangle 1059" width="42.344" height="2.692" transform="translate(209.336 45.172)" fill="#00a8cc" opacity="0.5"/>
    <rect id="Rectangle_1060" data-name="Rectangle 1060" width="34.024" height="2.692" transform="translate(187.065 50.56)" fill="#00a8cc" opacity="0.5"/>
    <rect id="Rectangle_1061" data-name="Rectangle 1061" width="26.19" height="2.692" transform="translate(205.421 55.944)" fill="#00a8cc" opacity="0.5"/>
    <rect id="Rectangle_1062" data-name="Rectangle 1062" width="76.124" height="43.813" transform="translate(260.25 47.867)" fill="#00a8cc" opacity="0.5"/>
    <rect id="Rectangle_1063" data-name="Rectangle 1063" width="76.124" height="43.813" transform="translate(269.307 52.026)" fill="#eee"/>
    <path id="Path_3369" data-name="Path 3369" d="M881.82,297.286H839.23v-8.013C849.636,284.409,865.645,281.678,881.82,297.286Z" transform="translate(-569.923 -201.458)" fill="#00a8cc"/>
    <g id="Group_545" data-name="Group 545" transform="translate(291.825 84.011)" opacity="0.1">
      <path id="Path_3370" data-name="Path 3370" d="M956.246,296.149v1.135H903.13v-.243S929.267,271.6,956.246,296.149Z" transform="translate(-903.13 -285.467)"/>
    </g>
    <path id="Path_3371" data-name="Path 3371" d="M957.636,296.149v1.135H904.52v-.243S930.657,271.6,957.636,296.149Z" transform="translate(-612.205 -201.456)" fill="#00a8cc"/>
    <circle id="Ellipse_982" data-name="Ellipse 982" cx="3.915" cy="3.915" r="3.915" transform="translate(274.205 55.944)" fill="#00a8cc"/>
    <path id="Path_3372" data-name="Path 3372" d="M951.428,208.3c-.448,0-.948,0-1.286.028a1.565,1.565,0,0,0-.448.092l-2.3.828c1.861.046,3.8.032,5.705,0l10.692-.081c1.089,0,2.238-.018,3.147-.085.61-.042,1.057-.109,1.618-.159,2.023-.18,4.976-.144,7.612-.137a41.591,41.591,0,0,0,6.745-.324h-5.656c-.61,0-1.251,0-1.79-.032-.631-.035-1.015-.106-1.568-.155-.916-.078-2.178-.088-3.355-.092C964.1,208.176,957.729,208.331,951.428,208.3Z" transform="translate(-639.968 -151.404)" fill="#f4f4f4"/>
    <path id="Path_3373" data-name="Path 3373" d="M975.254,221.959h-.278a.351.351,0,0,0-.1.021l-.5.18h1.237l2.315-.018c.236,0,.483,0,.68-.018l.352-.035c.437-.039,1.078-.032,1.649-.028a8.985,8.985,0,0,0,1.462-.07h-1.614c-.116,0-.218-.025-.352-.032-.2,0-.472-.018-.726-.021C978,221.931,976.618,221.959,975.254,221.959Z" transform="translate(-657.447 -160.313)" fill="#f4f4f4"/>
    <path id="Path_3374" data-name="Path 3374" d="M928.714,241.4h-.278a.352.352,0,0,0-.1.021l-.5.18h1.237l2.315-.018c.236,0,.483,0,.68-.018l.352-.035c.437-.039,1.078-.032,1.649-.028a8.984,8.984,0,0,0,1.462-.07h-1.614c-.116,0-.219-.025-.352-.032-.2,0-.472-.018-.726-.021C931.459,241.376,930.078,241.408,928.714,241.4Z" transform="translate(-627.307 -172.904)" fill="#f4f4f4"/>
    <path id="Path_3375" data-name="Path 3375" d="M900.716,264.461H898.89s-.574-20.129,1.84-26.341h.462S899.567,260.9,900.716,264.461Z" transform="translate(-608.521 -170.793)" fill="#00a8cc"/>
    <path id="Path_3376" data-name="Path 3376" d="M889.607,216.61s-1.494,4.141-.8,5.991c0,0,1.036-3.8,2.245-4.37s2.467,4.37,2.467,4.37a9.486,9.486,0,0,0-.574-5.638,10,10,0,0,1,3.8,4.024s.229-1.727-2.759-5.286a11.9,11.9,0,0,1,4.37,2.3s.574-1.265-2.992-3.337c0,0,.462-1.494,3.221-.8,0,0,0-1.956-4.37-1.61,0,0,0-1.265,2.875-1.036,0,0,0-1.61-3.337-1.036a5.372,5.372,0,0,1,1.149-1.265,2.312,2.312,0,0,0-1.61.462,3.112,3.112,0,0,0-1.61-2.876l-.229,2.876s-1.935-2.28-1.494-1.84a5.046,5.046,0,0,1,.352,2.185,3.583,3.583,0,0,0-4.37.116s2.992.229,3.45,1.265c0,0-2.53-.462-3.1-.116,0,0,1.956.7,1.84,1.149,0,0-3.45,0-3.912,1.265,0,0,3.566.462,3.8.8,0,0-4.141,2.992-4.37,3.8,0,0,4.257-2.53,4.934-2.53s-3.1,3.683-2.876,4.6C885.7,220.067,888.8,216.378,889.607,216.61Z" transform="translate(-598.677 -150.316)" fill="#00a8cc"/>
    <path id="Path_3377" data-name="Path 3377" d="M967.962,273.755h1.41s.44-15.378-1.41-20.125h-.352S968.84,271.028,967.962,273.755Z" transform="translate(-653.063 -180.838)" fill="#00a8cc"/>
    <path id="Path_3378" data-name="Path 3378" d="M958.754,237.21s1.142,3.172.617,4.581c0,0-.789-2.9-1.713-3.341s-1.889,3.341-1.889,3.341a7.324,7.324,0,0,1,.44-4.306,7.64,7.64,0,0,0-2.9,3.076s-.176-1.318,2.114-4.042a8.906,8.906,0,0,0-3.341,1.762s-.44-.966,2.284-2.548c0,0-.352-1.142-2.467-.617,0,0,0-1.494,3.341-1.23,0,0,0-.966-2.2-.789,0,0,0-1.23,2.548-.789a3.876,3.876,0,0,0-.877-.966,1.762,1.762,0,0,1,1.23.352,2.377,2.377,0,0,1,1.23-2.2l.176,2.2s1.477-1.741,1.142-1.41a3.856,3.856,0,0,0-.264,1.67,2.742,2.742,0,0,1,3.341.088s-2.284.176-2.636.966a6.63,6.63,0,0,1,2.372-.088s-1.494.529-1.41.877c0,0,2.636,0,2.988.966a13.206,13.206,0,0,0-2.9.617s3.172,2.284,3.341,2.9a24.964,24.964,0,0,0-3.778-1.935c-.525,0,2.372,2.819,2.2,3.524C961.742,239.846,959.371,237.034,958.754,237.21Z" transform="translate(-642.889 -165.211)" fill="#00a8cc"/>
    <path id="Path_3379" data-name="Path 3379" d="M1015.948,279.3h.87s.271-9.515-.87-12.464h-.219S1016.491,277.616,1015.948,279.3Z" transform="translate(-684.225 -189.393)" fill="#00a8cc"/>
    <path id="Path_3380" data-name="Path 3380" d="M1010.2,256.636s.7,1.959.381,2.819c0,0-.49-1.8-1.057-2.069s-1.17,2.069-1.17,2.069a4.545,4.545,0,0,1,.271-2.668,4.732,4.732,0,0,0-1.8,1.906s-.109-.818,1.307-2.5a5.522,5.522,0,0,0-2.068,1.089s-.271-.6,1.41-1.579c0,0-.219-.7-1.522-.381,0,0,0-.927,2.068-.761,0,0,0-.6-1.36-.49,0,0,0-.761,1.579-.49a2.393,2.393,0,0,0-.543-.6,1.1,1.1,0,0,1,.761.218,1.473,1.473,0,0,1,.761-1.36l.109,1.36s.916-1.078.7-.87a2.386,2.386,0,0,0-.162,1.033,1.7,1.7,0,0,1,2.069.053s-1.41.109-1.632.6a4.071,4.071,0,0,1,1.469-.053s-.927.328-.87.543c0,0,1.632,0,1.85.6a8.273,8.273,0,0,0-1.8.381s1.959,1.41,2.069,1.8a15.342,15.342,0,0,0-2.34-1.2c-.328,0,1.469,1.741,1.36,2.178C1012.064,258.268,1010.595,256.527,1010.2,256.636Z" transform="translate(-677.892 -179.678)" fill="#00a8cc"/>
    <path id="Path_3381" data-name="Path 3381" d="M916.9,264.232h0l-.183-.98a.532.532,0,0,0-.166-.384l-.849-.416h0a.965.965,0,0,1-.151-.254v-.021a.51.51,0,0,0,.1-.2.348.348,0,0,0,0-.056h0a.314.314,0,0,0,.352-.254v-.021a.313.313,0,0,1-.285.236.867.867,0,0,0,.384-.7s0-.025,0-.035a.314.314,0,0,0,.144-.211v-.021a.314.314,0,0,1-.151.2.864.864,0,0,0-.053-.236h.021a.314.314,0,0,0,.314-.314v-.021a.314.314,0,0,1-.314.292h-.039a.515.515,0,0,0,.352-.419s0,0,0-.021a.312.312,0,0,1-.063.169.315.315,0,1,0-.624-.092l-.056-.032a.314.314,0,0,1,.285-.229h-.021a.314.314,0,0,0-.3.211.867.867,0,0,0-1.092.314c-.067.049-.151.12-.148.18a.6.6,0,0,0-.074.092,1.2,1.2,0,0,0-.1.652.7.7,0,0,1-.226.6.3.3,0,0,0,.233,0,.883.883,0,0,0,.2-.12.454.454,0,0,0,.145-.137h0a.705.705,0,0,0,.13.067c.018.148.021.317-.042.37h0V262.4a.8.8,0,0,1-.553.159.7.7,0,0,0-.571.352l-.264,1.131h0v.018h0v.018h0a.085.085,0,0,0,.063.063l.081.021a1.724,1.724,0,0,1,0,.543,4.834,4.834,0,0,0-.1.832c.021.141.056.867.07,1.212q-.044.174-.07.352l-.395,2.365s-.292,1.892-.278,2.467l-.053.331s-.8,1-.564,1.145.6.2.941-.331a.863.863,0,0,1,.219-.331.324.324,0,0,0,.109-.275l-.025-.233h.067a8.167,8.167,0,0,0,.352-2.2s.729-2.6,1.286-3.009h0l.053-.025.12,2.516-.12,2.777-.025.166s-.8,1-.564,1.145.6.2.941-.331a.863.863,0,0,1,.218-.331.324.324,0,0,0,.109-.275l-.035-.352a7.2,7.2,0,0,0,.352-2.594l.243-1.66a1.75,1.75,0,0,0,.211-.976,9,9,0,0,0,.236-1.988l.049-.782h.148l.018-.021h0v-.018h0Zm-.684,1.589a1.628,1.628,0,0,0-.074-.162h-.021v-.06a.688.688,0,0,0,.028-.081.307.307,0,0,0,.046-.169,1.6,1.6,0,0,1,.035.472Zm-.074-.67-.049-.525v-.042l.067.666Zm-2.322.07a.183.183,0,0,0-.042.141h0a.6.6,0,0,0,.021.159l-.078.328v-.627a1.383,1.383,0,0,0,.13-.211.352.352,0,0,1-.014.211Z" transform="translate(-617.015 -185.09)" fill="url(#linear-gradient-2)"/>
    <path id="Path_3382" data-name="Path 3382" d="M918.134,262.6a1.155,1.155,0,0,0-.1.627.666.666,0,0,1-.219.578.289.289,0,0,0,.222,0,.855.855,0,0,0,.2-.116.438.438,0,0,0,.137-.134.522.522,0,0,0,.032-.268,2.819,2.819,0,0,1,.042-.476c0-.1.109-.352,0-.416S918.183,262.523,918.134,262.6Z" transform="translate(-620.818 -186.507)" fill="#72351c"/>
    <path id="Path_3383" data-name="Path 3383" d="M912.909,292.4l-.074.483s-.772.969-.543,1.1.574.2.906-.317a.832.832,0,0,1,.211-.317h0a.313.313,0,0,0,.106-.264l-.074-.747Z" transform="translate(-617.211 -205.907)" fill="#333"/>
    <path id="Path_3384" data-name="Path 3384" d="M919.5,292.95l-.074.483s-.772.969-.543,1.1.574.2.906-.317A.831.831,0,0,1,920,293.9h0a.314.314,0,0,0,.106-.264l-.074-.747Z" transform="translate(-621.479 -206.263)" fill="#333"/>
    <path id="Path_3385" data-name="Path 3385" d="M915.208,276.061a1.826,1.826,0,0,0-.5,1.173l-.38,2.276a20.1,20.1,0,0,0-.261,2.467l.641.218a7.87,7.87,0,0,0,.353-2.114s.772-2.745,1.311-2.939l.113,2.424-.12,2.735.55.109a7.462,7.462,0,0,0,.381-2.657l.285-1.956a2.9,2.9,0,0,0-.127-1.949Z" transform="translate(-618.39 -195.228)" fill="#4d8af0"/>
    <g id="Group_546" data-name="Group 546" transform="translate(296.279 80.615)" opacity="0.1">
      <path id="Path_3386" data-name="Path 3386" d="M917.412,279.542V279.5c-.539.194-1.311,2.939-1.311,2.939a7.711,7.711,0,0,1-.331,2.093l.07.025a7.87,7.87,0,0,0,.352-2.114S916.877,279.937,917.412,279.542Z" transform="translate(-915.77 -278.207)"/>
      <path id="Path_3387" data-name="Path 3387" d="M922.59,275.83h-.074a2.9,2.9,0,0,1,.123,1.942l-.285,1.956a7.38,7.38,0,0,1-.374,2.643h.07a7.46,7.46,0,0,0,.381-2.657l.285-1.956A2.9,2.9,0,0,0,922.59,275.83Z" transform="translate(-919.792 -275.83)"/>
    </g>
    <path id="Path_3388" data-name="Path 3388" d="M915.9,271.189a.081.081,0,0,0,.063.081,1.268,1.268,0,0,1,.486.233c.271.211-.285-.423-.285-.423l-.187.042Z" transform="translate(-619.575 -192.138)" fill="#f55f44"/>
    <path id="Path_3389" data-name="Path 3389" d="M915.9,271.189a.081.081,0,0,0,.063.081,1.268,1.268,0,0,1,.486.233c.271.211-.285-.423-.285-.423l-.187.042Z" transform="translate(-619.575 -192.138)" opacity="0.1"/>
    <path id="Path_3390" data-name="Path 3390" d="M923.42,272.212a1.7,1.7,0,0,1,.765-.3.07.07,0,0,0,.07-.07h0a.61.61,0,0,0-.835.374Z" transform="translate(-624.445 -192.594)" fill="#f55f44"/>
    <path id="Path_3391" data-name="Path 3391" d="M924.255,271.809a.61.61,0,0,0-.835.374,1.441,1.441,0,0,1,.8-.3" transform="translate(-624.445 -192.575)" opacity="0.1"/>
    <circle id="Ellipse_983" data-name="Ellipse 983" cx="0.835" cy="0.835" r="0.835" transform="translate(297.396 75.449)" fill="#72351c"/>
    <path id="Path_3392" data-name="Path 3392" d="M919.229,264.384s.12.49,0,.592-.352.285-.176.43.818.388,1.029.271.455-.085.4-.328-.522-.194-.532-1.41Z" transform="translate(-621.576 -187.515)" fill="#fdb797"/>
    <path id="Path_3393" data-name="Path 3393" d="M916.061,271a3.057,3.057,0,0,1-.049.793,4.661,4.661,0,0,0-.092.8c.025.176.078,1.343.078,1.343s-.092,1.022.405.927-.078-1.163-.078-1.163l.025-1.41a1.3,1.3,0,0,0,.254-.624C916.625,271.352,916.061,271,916.061,271Z" transform="translate(-619.588 -192.087)" opacity="0.1"/>
    <path id="Path_3394" data-name="Path 3394" d="M916.031,271a3.057,3.057,0,0,1-.049.793,4.649,4.649,0,0,0-.092.8c.025.176.078,1.343.078,1.343s-.092,1.022.405.927-.078-1.163-.078-1.163l.025-1.41a1.3,1.3,0,0,0,.254-.624C916.6,271.352,916.031,271,916.031,271Z" transform="translate(-619.568 -192.087)" fill="#fdb797"/>
    <path id="Path_3395" data-name="Path 3395" d="M923.584,271.19l-.067,1.089a8.688,8.688,0,0,1-.229,1.913s.049,1.057-.448,1.057.085-1.173.085-1.173a4.8,4.8,0,0,0,.13-1.572l-.13-1.307Z" transform="translate(-623.94 -192.21)" opacity="0.1"/>
    <path id="Path_3396" data-name="Path 3396" d="M923.6,271.19l-.067,1.089a8.687,8.687,0,0,1-.229,1.913s.049,1.057-.448,1.057.085-1.173.085-1.173a4.8,4.8,0,0,0,.13-1.572l-.13-1.307Z" transform="translate(-623.953 -192.21)" fill="#fdb797"/>
    <path id="Path_3397" data-name="Path 3397" d="M917.57,267.413s.4.187.624-.352l.821.4a.511.511,0,0,1,.159.37l.176.944a.6.6,0,0,0-.786.352l.049.532h0a.571.571,0,0,1-.025.4.088.088,0,0,0,0,.07.261.261,0,0,1-.236.352,4.977,4.977,0,0,0-.659.049c-.176.049-.7-.1-.884,0s-.55-.078-.55-.078l.1-.43s-.067-.211,0-.285a1.836,1.836,0,0,0-.042-.92s-.3-.285-.479-.236l.254-1.089a.662.662,0,0,1,.55-.352.768.768,0,0,0,.532-.152S916.978,267.346,917.57,267.413Z" transform="translate(-619.536 -189.49)" opacity="0.1"/>
    <path id="Path_3398" data-name="Path 3398" d="M917.639,267.318c.109.028.405.063.581-.381l.821.4a.511.511,0,0,1,.159.37l.176.944a.6.6,0,0,0-.786.352l.049.532.032.106a.3.3,0,0,1-.042.268.1.1,0,0,0,0,.1.261.261,0,0,1-.236.352,4.97,4.97,0,0,0-.659.049c-.176.049-.7-.1-.885,0s-.55-.078-.55-.078l.1-.43s-.067-.211,0-.285a1.836,1.836,0,0,0-.042-.92s-.3-.285-.479-.236l.254-1.089a.663.663,0,0,1,.55-.352.768.768,0,0,0,.532-.152s-.2.352.324.44Z" transform="translate(-619.562 -189.412)" opacity="0.1"/>
    <path id="Path_3399" data-name="Path 3399" d="M917.613,267.361c.109.028.405.063.582-.381l.821.4a.511.511,0,0,1,.159.37l.176.944a.6.6,0,0,0-.786.352l.049.532h0a.571.571,0,0,1-.025.4.088.088,0,0,0,0,.07.261.261,0,0,1-.236.352,4.982,4.982,0,0,0-.659.049c-.176.049-.7-.1-.884,0s-.55-.078-.55-.078l.1-.43s-.067-.211,0-.285a1.836,1.836,0,0,0-.042-.92s-.3-.285-.479-.236l.254-1.089a.663.663,0,0,1,.55-.352.768.768,0,0,0,.532-.151s-.2.352.324.44Z" transform="translate(-619.536 -189.438)" fill="#f55f44"/>
    <path id="Path_3400" data-name="Path 3400" d="M920.455,264.05l-.7.448a2.3,2.3,0,0,1,.042.233.706.706,0,0,0,.257.049.722.722,0,0,0,.465-.211A2.789,2.789,0,0,1,920.455,264.05Z" transform="translate(-622.068 -187.586)" opacity="0.1"/>
    <circle id="Ellipse_984" data-name="Ellipse 984" cx="0.691" cy="0.691" r="0.691" transform="translate(297.262 75.77)" fill="#fdb797"/>
    <circle id="Ellipse_985" data-name="Ellipse 985" cx="0.303" cy="0.303" r="0.303" transform="translate(298.672 75.322)" fill="#72351c"/>
    <path id="Path_3401" data-name="Path 3401" d="M923.023,262.062a.3.3,0,0,1-.3-.282v.021a.3.3,0,1,0,.606,0s0,0,0-.021A.3.3,0,0,1,923.023,262.062Z" transform="translate(-623.992 -186.116)" fill="#72351c"/>
    <path id="Path_3402" data-name="Path 3402" d="M922.628,262.831a.3.3,0,0,1-.247-.331v.021a.3.3,0,1,0,.6.109v-.021A.3.3,0,0,1,922.628,262.831Z" transform="translate(-623.769 -186.582)" fill="#72351c"/>
    <path id="Path_3403" data-name="Path 3403" d="M921.957,264.891a.3.3,0,0,1-.247-.331v.021a.3.3,0,1,0,.6.109v-.021A.3.3,0,0,1,921.957,264.891Z" transform="translate(-623.335 -187.916)" fill="#72351c"/>
    <path id="Path_3404" data-name="Path 3404" d="M923.023,261.612a.3.3,0,0,1-.3-.282v.021a.3.3,0,1,0,.606,0s0,0,0-.021A.3.3,0,0,1,923.023,261.612Z" transform="translate(-623.992 -185.824)" fill="#72351c"/>
    <path id="Path_3405" data-name="Path 3405" d="M922.309,261.11a.3.3,0,0,1,.285-.3h-.021a.3.3,0,1,0,0,.606h.021A.3.3,0,0,1,922.309,261.11Z" transform="translate(-623.7 -185.488)" fill="#72351c"/>
    <path id="Path_3406" data-name="Path 3406" d="M923.226,269.79a1.093,1.093,0,0,1,0,.455s-.042.4.025.465" transform="translate(-624.311 -191.303)" opacity="0.1"/>
    <path id="Path_3407" data-name="Path 3407" d="M917.406,270a1.093,1.093,0,0,1,0,.455s-.042.4.025.465" transform="translate(-620.542 -191.439)" opacity="0.1"/>
    <path id="Path_3408" data-name="Path 3408" d="M917.38,274.637a.3.3,0,0,0,.2,0,.423.423,0,0,1,.243,0" transform="translate(-620.533 -194.431)" opacity="0.1"/>
    <path id="Path_3409" data-name="Path 3409" d="M917.67,272.8a1.762,1.762,0,0,0,.7-.109s.86.211,1.106.06" transform="translate(-620.721 -193.181)" opacity="0.1"/>
    <rect id="Rectangle_1064" data-name="Rectangle 1064" width="0.532" height="0.328" rx="0.164" transform="translate(296.325 83.244)" fill="#fdb797"/>
    <path id="Path_3410" data-name="Path 3410" d="M915.9,283.53h.285l.247.039h-.088Z" transform="translate(-619.575 -200.201)" fill="#f0e4e4"/>
    <path id="Path_3411" data-name="Path 3411" d="M921.33,279.65h.285l.247.025h-.088Z" transform="translate(-623.091 -197.688)" fill="#f0e4e4"/>
    <path id="Path_3412" data-name="Path 3412" d="M921.33,279.82h.285l.247.025h-.088Z" transform="translate(-623.091 -197.799)" fill="#f0e4e4"/>
    <path id="Path_3413" data-name="Path 3413" d="M921.33,280h.285l.247.025h-.088Z" transform="translate(-623.091 -197.915)" fill="#f0e4e4"/>
    <path id="Path_3414" data-name="Path 3414" d="M921.33,280.15h.285l.247.025h-.088Z" transform="translate(-623.091 -198.012)" fill="#f0e4e4"/>
    <path id="Path_3415" data-name="Path 3415" d="M915.9,284.19h.285l.247.028h-.088Z" transform="translate(-619.575 -200.629)" fill="#f0e4e4"/>
    <path id="Path_3416" data-name="Path 3416" d="M915.9,284.11h.285l.247.028h-.088Z" transform="translate(-619.575 -200.577)" fill="#f0e4e4"/>
    <path id="Path_3417" data-name="Path 3417" d="M915.9,284h.285l.247.028h-.088Z" transform="translate(-619.575 -200.506)" fill="#f0e4e4"/>
    <path id="Path_3418" data-name="Path 3418" d="M915.9,283.94h.285l.247.028h-.088Z" transform="translate(-619.575 -200.467)" fill="#f0e4e4"/>
    <path id="Path_3419" data-name="Path 3419" d="M915.9,283.42h.285l.247.039h-.088Z" transform="translate(-619.575 -200.13)" fill="#f0e4e4"/>
    <path id="Path_3420" data-name="Path 3420" d="M915.9,283.28h.285l.247.039h-.088Z" transform="translate(-619.575 -200.039)" fill="#f0e4e4"/>
    <path id="Path_3421" data-name="Path 3421" d="M920.832,262.192a1.674,1.674,0,0,0,.1.761.909.909,0,0,1-.042.726.24.24,0,0,0,.215-.053.839.839,0,0,0,.155-.183.49.49,0,0,0,.1-.19.759.759,0,0,0-.049-.321,4.152,4.152,0,0,1-.1-.571c0-.116,0-.455-.13-.486S920.857,262.093,920.832,262.192Z" transform="translate(-622.763 -186.175)" opacity="0.1"/>
    <path id="Path_3422" data-name="Path 3422" d="M920.883,262.185a1.674,1.674,0,0,0,.1.761.909.909,0,0,1-.039.733.239.239,0,0,0,.215-.053.835.835,0,0,0,.155-.183.489.489,0,0,0,.1-.19.756.756,0,0,0-.049-.321,4.153,4.153,0,0,1-.1-.571c0-.116,0-.455-.13-.486S920.918,262.086,920.883,262.185Z" transform="translate(-622.795 -186.175)" fill="#72351c"/>
    <path id="Path_3423" data-name="Path 3423" d="M919.3,262.11c.056.06.07.152.12.222a.434.434,0,0,0,.352.137.194.194,0,0,1,.1.021c.053.035.056.113.092.166a.194.194,0,0,0,.289,0,.472.472,0,0,0,.085-.289,1.9,1.9,0,0,0,0-.352.56.56,0,0,0-.155-.374.648.648,0,0,0-.271-.116.8.8,0,0,0-.419-.032.753.753,0,0,0-.19.1l-.247.166c-.092.063-.261.19-.1.261C919.081,262.04,919.215,262.015,919.3,262.11Z" transform="translate(-621.513 -185.921)" opacity="0.1"/>
    <path id="Path_3424" data-name="Path 3424" d="M919.4,262.064c.056.06.07.152.12.222a.433.433,0,0,0,.352.137.194.194,0,0,1,.1.021c.053.035.056.113.092.166a.194.194,0,0,0,.289,0,.472.472,0,0,0,.109-.3,1.888,1.888,0,0,0,0-.352.56.56,0,0,0-.155-.374.649.649,0,0,0-.271-.116.8.8,0,0,0-.419-.032.755.755,0,0,0-.19.1l-.247.166c-.092.063-.261.19-.1.261A.593.593,0,0,1,919.4,262.064Z" transform="translate(-621.59 -185.882)" fill="#72351c"/>
    <path id="Path_3425" data-name="Path 3425" d="M921.38,279.65h.285l.247.025h-.088Z" transform="translate(-623.124 -197.688)" fill="#f0e4e4"/>
    <path id="Path_3426" data-name="Path 3426" d="M921.38,279.82h.285l.247.025h-.088Z" transform="translate(-623.124 -197.799)" fill="#f0e4e4"/>
    <path id="Path_3427" data-name="Path 3427" d="M921.38,280h.285l.247.025h-.088Z" transform="translate(-623.124 -197.915)" fill="#f0e4e4"/>
    <path id="Path_3428" data-name="Path 3428" d="M921.38,280.15h.285l.247.025h-.088Z" transform="translate(-623.124 -198.012)" fill="#f0e4e4"/>
    <path id="Path_3429" data-name="Path 3429" d="M921,289.38h.285l.247.025h-.088Z" transform="translate(-622.878 -203.99)" fill="#f0e4e4"/>
    <path id="Path_3430" data-name="Path 3430" d="M921,289.54h.285l.247.025h-.088Z" transform="translate(-622.878 -204.093)" fill="#f0e4e4"/>
    <path id="Path_3431" data-name="Path 3431" d="M921,289.71h.285l.247.025h-.088Z" transform="translate(-622.878 -204.203)" fill="#f0e4e4"/>
    <path id="Path_3432" data-name="Path 3432" d="M921,289.88h.285l.247.025h-.088Z" transform="translate(-622.878 -204.313)" fill="#f0e4e4"/>
    <path id="Path_3433" data-name="Path 3433" d="M415.869,712.741H387.84V696.95h28.029Zm-26.845-1.184h25.654V698.134H389.024Z" transform="translate(-277.6 -467.934)" fill="#00a8cc" opacity="0.2"/>
    <path id="Path_3434" data-name="Path 3434" d="M264.615,380.641a6.561,6.561,0,0,0,5.54.811,8.593,8.593,0,0,0,1.441-.638c17.972.381,34.616.2,35.261-1.73,1.057-3.207-5.638-19-9.018-26.634a8.556,8.556,0,0,0,2.467-2.576c4.694,5.367,13.426,12.292,18.617,12.637,0,0,7.576,18,16.1,15.153s9.472-18,5.208-19.889l-28.414-18V309.915a11.185,11.185,0,0,0,1.188-5.533c0-.352.018-.7,0-1.057l-.948-8.524s-.049-.282-.18-.793c-2.114-8.214-6.826-13.743-13.469-14.564a4.852,4.852,0,0,0,.578-1.914c.137-1.593-.525-3.217-.152-4.771.437-1.811,2.114-2.981,3.492-4.229,2.943-2.692,4.8-6.343,6.586-9.906,1.706-3.394,3.436-6.875,3.876-10.646s-.7-7.957-3.788-10.177c-2.4-1.73-5.769-2.185-7.492-4.581a19.233,19.233,0,0,1-1.625-3.619c-1.533-3.492-4.838-5.97-8.426-7.263-12.588-4.532-28.029.67-36.061,11.122a62.975,62.975,0,0,0-6.385,11.189l-6.766,13.987c-1.166,2.407-2.294,5.413-.737,7.587.761,1.057,2.065,1.713,2.594,2.907.7,1.586-.176,3.661.86,5.057a6.546,6.546,0,0,0,2.41,1.529,9.437,9.437,0,0,1,2.914,2.583l-14.857,11.513a10,10,0,0,0-3.827,6.91l-1.469,14.646a17.816,17.816,0,0,0-.663,5.113,8.714,8.714,0,0,0,.9,4.581l.324-.078c.352,10.272.966,25.052,1.572,27.783.352,1.621,2.576,4.479,5.571,7.425l-1.057,3h.352l-.352.941h.7c-2.988,10.8-11.118,18.934-11.118,18.934S245.17,380.084,264.615,380.641Zm-17.669-49.892V319.236c1.734.268,3.013.867,3.422,1.959Zm5.018-50.1.056.085H252Z" transform="translate(-173.031 -159.508)" fill="url(#linear-gradient-3)"/>
    <path id="Path_3435" data-name="Path 3435" d="M420.31,459.243s.9,31.934,1.8,35.983,13.948,16.207,20.689,16.658c0,0,7.2,17.091,15.294,14.392s9-17.091,4.934-18.892l-26.969-17.091V456.11Z" transform="translate(-298.628 -311.965)" fill="#fdb797"/>
    <path id="Path_3436" data-name="Path 3436" d="M300.713,576.09s11.7,25.189,10.346,29.249-76.47,0-76.47,0,13.944-13.944,11.245-29.249Z" transform="translate(-178.355 -389.665)" fill="#565171"/>
    <path id="Path_3437" data-name="Path 3437" d="M330.625,359.256s-1.8,17.542,1.35,21.591-12.595,6.294-13.93,6.294-15.741-4.933-18.441-6.3S294.67,369.6,294.67,369.6s13.493,2.7,17.542-13.039Z" transform="translate(-217.263 -247.496)" fill="#fdb797"/>
    <path id="Path_3438" data-name="Path 3438" d="M321.575,233.648a13.554,13.554,0,0,1,8,6.9,18.429,18.429,0,0,0,1.544,3.439c1.635,2.284,4.838,2.713,7.115,4.359,2.921,2.114,4,6.086,3.6,9.666s-2.051,6.889-3.668,10.11c-1.7,3.387-3.461,6.851-6.255,9.409-1.3,1.195-2.9,2.3-3.32,4.024-.352,1.477.275,3.017.141,4.532-.324,3.739-4.793,5.48-8.524,5.9-1.621.18-3.478.19-4.62-.976a8.036,8.036,0,0,1-1.251-2.164,10.371,10.371,0,0,0-18.5-.19c-.874,1.684-1.385,3.725-2.978,4.754-2.439,1.575-5.7-.275-7.492-2.551s-3.1-5.138-5.663-6.5a5.917,5.917,0,0,1-2.287-1.452c-.983-1.325-.148-3.295-.814-4.8-.5-1.135-1.741-1.762-2.467-2.763-1.48-2.065-.409-4.933.7-7.206l6.428-13.285a58.6,58.6,0,0,1,6.065-10.628C294.952,234.283,309.618,229.342,321.575,233.648Z" transform="translate(-203.498 -166.885)" fill="#8f5a6a"/>
    <path id="Path_3439" data-name="Path 3439" d="M285.445,404.652s-17.542,0-22.039-16.193L248.641,399.9a9.515,9.515,0,0,0-3.633,6.565L243.6,420.4s-1.575,5.173.226,8.32c0,0,18.677-4.722,19.117.673l-13.032,36.434s20.242.451,25.637-3.147c0,0,22.039,4.5,27.437-.451s10.794-4.5,6.3-15.741c0,0,9-9,4.934-21.591s-.226.226-.226.226,8.771-4.275,8.32-12.369l-.9-8.105s-.049-.268-.173-.751c-2.742-10.671-10.11-16.563-20.467-12.806a9.5,9.5,0,0,1-6.121-.159S298.036,405.565,285.445,404.652Z" transform="translate(-183.775 -268.154)" opacity="0.1"/>
    <path id="Path_3440" data-name="Path 3440" d="M285.445,402.1s-17.542,0-22.039-16.193l-14.765,11.442a9.515,9.515,0,0,0-3.633,6.562l-1.41,13.93s-1.575,5.173.226,8.32c0,0,18.677-4.722,19.117.673L249.9,463.271s20.242.451,25.637-3.147c0,0,22.039,4.5,27.437-.451s10.794-4.5,6.3-15.741c0,0,9-9,4.934-21.591s-.226.226-.226.226,8.771-4.275,8.32-12.369l-.9-8.105s-.049-.268-.173-.751c-2.742-10.671-10.11-16.563-20.467-12.806a9.5,9.5,0,0,1-6.121-.159S298.036,403,285.445,402.1Z" transform="translate(-183.775 -266.503)" fill="#b45181"/>
    <path id="Path_3441" data-name="Path 3441" d="M245.45,469.467s.9,31.934,1.8,35.983,13.944,16.193,20.689,16.644c0,0,7.2,17.091,15.294,14.392s9-17.091,4.934-18.892L261.181,500.5V466.32Z" transform="translate(-185.388 -318.577)" fill="#fdb797"/>
    <path id="Path_3442" data-name="Path 3442" d="M264.526,466.491s-10.336,7.02-19.339,6.435c0,0-.9-12.055,1.8-12.728S261.379,460.2,264.526,466.491Z" transform="translate(-185.124 -314.476)" opacity="0.1"/>
    <path id="Path_3443" data-name="Path 3443" d="M264.526,465.214s-10.336,7.02-19.339,6.431c0,0-.9-12.055,1.8-12.728S261.379,458.917,264.526,465.214Z" transform="translate(-185.124 -313.648)" fill="#b45181"/>
    <path id="Path_3444" data-name="Path 3444" d="M334.91,359.1l18.441,2.7s-.416,4.06-.5,8.722A20.7,20.7,0,0,1,331.15,367,20.4,20.4,0,0,0,334.91,359.1Z" transform="translate(-240.888 -249.141)" opacity="0.1"/>
    <circle id="Ellipse_986" data-name="Ellipse 986" cx="20.689" cy="20.689" r="20.689" transform="translate(84.127 80.725)" fill="#fdb797"/>
    <path id="Path_3445" data-name="Path 3445" d="M320.469,280.07a6.422,6.422,0,0,0,2.766.395q5.49-.035,10.97-.405c2.77-.187,5.723-.511,7.858-2.284,2.876-2.386,3.33-6.858,1.847-10.286s-4.511-5.955-7.707-7.887a23.009,23.009,0,0,0-5.822-2.639c-5.931-1.61-12.489.352-17.2,4.317s-7.714,9.649-9.3,15.586c-.55,2.054-1.255,4.5-3.288,5.124,1.353,2.252,4.655,2.608,7.03,1.48,3.5-1.663,5.286-8.028,8.426-9.028C319.538,273.34,317.5,278.71,320.469,280.07Z" transform="translate(-221.097 -182.632)" opacity="0.1"/>
    <path id="Path_3446" data-name="Path 3446" d="M320.488,278.823a6.422,6.422,0,0,0,2.766.395q5.49-.035,10.97-.405c2.77-.187,5.723-.511,7.858-2.284,2.876-2.386,3.33-6.858,1.847-10.286s-4.511-5.955-7.707-7.887a23.008,23.008,0,0,0-5.811-2.622c-5.931-1.61-12.489.352-17.2,4.317s-7.714,9.649-9.3,15.586c-.55,2.054-1.255,4.5-3.288,5.124,1.353,2.252,4.655,2.608,7.03,1.48,3.5-1.663,5.286-8.028,8.426-9.028C319.558,272.1,317.521,277.462,320.488,278.823Z" transform="translate(-221.116 -181.835)" fill="#8f5a6a"/>
    <path id="Path_3447" data-name="Path 3447" d="M393.779,544.959a79.681,79.681,0,0,0-20.689-2.7" transform="translate(-268.048 -367.756)" opacity="0.1"/>
    <path id="Path_3448" data-name="Path 3448" d="M300.33,481s6.748,4.934,4.934,7.647" transform="translate(-220.928 -328.084)" opacity="0.1"/>
    <g id="Group_547" data-name="Group 547" transform="translate(45.061 203.915)" opacity="0.7">
      <path id="Path_3449" data-name="Path 3449" d="M348.726,578.64H127.88v19.308h12.855V658.7H336.328V597.948h12.4Z" transform="translate(-127.88 -578.64)" fill="url(#linear-gradient)"/>
    </g>
    <rect id="Rectangle_1065" data-name="Rectangle 1065" width="191.607" height="68.819" transform="translate(59.904 215.16)" fill="#e0e0e0"/>
    <rect id="Rectangle_1066" data-name="Rectangle 1066" width="191.607" height="10.794" transform="translate(59.904 218.758)" opacity="0.1"/>
    <rect id="Rectangle_1067" data-name="Rectangle 1067" width="216.349" height="18.441" transform="translate(47.309 207.513)" fill="#e0e0e0"/>
    <rect id="Rectangle_1068" data-name="Rectangle 1068" width="41.382" height="5.846" rx="2.923" transform="translate(88.187 202.974)" fill="#535461"/>
    <g id="Group_548" data-name="Group 548" transform="translate(113.372 137.781)" opacity="0.7">
      <rect id="Rectangle_1069" data-name="Rectangle 1069" width="102.846" height="71.113" rx="28.22" fill="url(#linear-gradient)"/>
    </g>
    <rect id="Rectangle_1070" data-name="Rectangle 1070" width="97.426" height="69.799" rx="26.84" transform="translate(115.208 139.095)" fill="#3e3f49"/>
    <rect id="Rectangle_1071" data-name="Rectangle 1071" width="97.426" height="69.799" rx="26.84" transform="translate(116.558 139.095)" fill="#535461"/>
    <circle id="Ellipse_987" data-name="Ellipse 987" cx="3.147" cy="3.147" r="3.147" transform="translate(166.676 170.367)" fill="#e0e0e0"/>
  </g>
</svg>
