<svg xmlns="http://www.w3.org/2000/svg" width="369.881" height="279.143" viewBox="0 0 369.881 279.143">
  <g id="blogs-detailed" transform="translate(0 0)">
    <path id="Path_4519" data-name="Path 4519" d="M371.959,189.963c0,42.935-25.172,80.919-63.759,104.041-24.741,14.828-55,23.546-87.672,23.546-43.526,0-76.727-16.45-101.7-41.649C95.8,252.681,79.776,222.024,69.1,189.963,21.416,46.816,101.065,7.763,220.527,62.376,296.589,97.153,371.959,119.5,371.959,189.963Z" transform="translate(-55.067 -38.747)" fill="#00a8cc"/>
    <path id="Path_4520" data-name="Path 4520" d="M432.308,263.5V442.822c-24.741,14.828-55,23.546-87.672,23.546-43.526,0-76.727-16.45-101.7-41.649V263.5Z" transform="translate(-179.175 -187.225)" fill="#f2f2f2"/>
    <path id="Path_4521" data-name="Path 4521" d="M295.387,508.19a118.479,118.479,0,0,1,30.6-5.455,95.764,95.764,0,0,1,15.6.61,97.593,97.593,0,0,1,15.142,3.242c4.894,1.417,9.721,3.054,14.6,4.525a136.155,136.155,0,0,0,15.087,3.682,127.886,127.886,0,0,0,15.33,1.827,93.363,93.363,0,0,0,15.311-.189,46.841,46.841,0,0,0,13.776-3.492,42.072,42.072,0,0,0,11.2-7.186q1.246-1.113,2.4-2.323c.453-.474-.266-1.195-.72-.72a42.083,42.083,0,0,1-24.275,12.4,80.889,80.889,0,0,1-15.263.612,125.6,125.6,0,0,1-15.515-1.568,129.66,129.66,0,0,1-15.026-3.42c-4.849-1.4-9.632-3.024-14.464-4.485a108.859,108.859,0,0,0-14.892-3.548A93.647,93.647,0,0,0,329,501.64a116.814,116.814,0,0,0-30.2,4.471q-1.851.52-3.685,1.1c-.623.2-.357,1.179.271.982Z" transform="translate(-213.414 -344.538)" fill="#3f3d56"/>
    <path id="Path_4522" data-name="Path 4522" d="M295.387,584.19a118.479,118.479,0,0,1,30.6-5.455,95.764,95.764,0,0,1,15.6.61,97.6,97.6,0,0,1,15.142,3.242c4.894,1.417,9.721,3.054,14.6,4.525a136.141,136.141,0,0,0,15.087,3.682,127.923,127.923,0,0,0,15.33,1.827,93.364,93.364,0,0,0,15.311-.189,46.845,46.845,0,0,0,13.776-3.492,42.074,42.074,0,0,0,11.2-7.186q1.246-1.113,2.4-2.323c.453-.473-.266-1.195-.72-.72a42.082,42.082,0,0,1-24.275,12.4,80.884,80.884,0,0,1-15.263.612,125.573,125.573,0,0,1-15.515-1.568,129.635,129.635,0,0,1-15.026-3.42c-4.849-1.4-9.632-3.024-14.464-4.485a108.832,108.832,0,0,0-14.892-3.548A93.654,93.654,0,0,0,329,577.64a116.817,116.817,0,0,0-30.2,4.472q-1.851.52-3.685,1.1c-.623.2-.357,1.179.271.982Z" transform="translate(-213.414 -394.745)" fill="#3f3d56"/>
    <path id="Path_4523" data-name="Path 4523" d="M295.387,439.19a118.477,118.477,0,0,1,30.6-5.455,95.754,95.754,0,0,1,15.6.61,97.586,97.586,0,0,1,15.142,3.242c4.894,1.417,9.721,3.054,14.6,4.525a136.168,136.168,0,0,0,15.087,3.682,127.917,127.917,0,0,0,15.33,1.827,93.363,93.363,0,0,0,15.311-.189,46.843,46.843,0,0,0,13.776-3.492,42.074,42.074,0,0,0,11.2-7.186q1.246-1.112,2.4-2.323c.453-.474-.266-1.195-.72-.72a42.082,42.082,0,0,1-24.275,12.4,80.889,80.889,0,0,1-15.263.612,125.589,125.589,0,0,1-15.515-1.567,129.653,129.653,0,0,1-15.026-3.42c-4.849-1.4-9.632-3.024-14.464-4.485a108.859,108.859,0,0,0-14.892-3.548A93.64,93.64,0,0,0,329,432.64a116.815,116.815,0,0,0-30.2,4.472q-1.851.52-3.685,1.1c-.623.2-.357,1.179.271.982Z" transform="translate(-213.414 -298.955)" fill="#3f3d56"/>
    <path id="Path_4524" data-name="Path 4524" d="M291.513,318.02a12.212,12.212,0,0,1,7.842-.268c2.757.682,5.352,1.869,8.066,2.689a27.922,27.922,0,0,0,14.925.283,27.51,27.51,0,0,0,7.817-3.35c.553-.348.043-1.229-.514-.879a26.976,26.976,0,0,1-14.362,4.095,26.353,26.353,0,0,1-7.518-1.107c-2.694-.808-5.269-1.98-8-2.676a13.4,13.4,0,0,0-8.771.335c-.6.265-.08,1.142.514.879Z" transform="translate(-210.753 -222.06)" fill="#3f3d56"/>
    <circle id="Ellipse_1261" data-name="Ellipse 1261" cx="15.612" cy="15.612" r="15.612" transform="translate(140.798 220.854)" fill="#3f3d56"/>
    <circle id="Ellipse_1262" data-name="Ellipse 1262" cx="8.485" cy="8.485" r="8.485" transform="translate(63.758 27.407)" fill="#f2f2f2"/>
    <circle id="Ellipse_1263" data-name="Ellipse 1263" cx="5.769" cy="5.769" r="5.769" transform="translate(140.798 54.218)" fill="#f2f2f2"/>
    <circle id="Ellipse_1264" data-name="Ellipse 1264" cx="5.769" cy="5.769" r="5.769" transform="translate(47.129 109.537)" fill="#f2f2f2"/>
    <rect id="Rectangle_1440" data-name="Rectangle 1440" width="0.636" height="113.775" transform="translate(29.033 72.445)" fill="#3f3d56"/>
    <ellipse id="Ellipse_1265" data-name="Ellipse 1265" cx="12.407" cy="28.313" rx="12.407" ry="28.313" transform="translate(17.067 119.845)" fill="#3f3d56"/>
    <ellipse id="Ellipse_1266" data-name="Ellipse 1266" cx="12.407" cy="28.313" rx="12.407" ry="28.313" transform="translate(17.067 55.267)" fill="#3f3d56"/>
    <path id="Path_4525" data-name="Path 4525" d="M102.587,160.333l-.61-.183c.039-.129,3.779-12.946-2.363-21.2-3.469-4.66-9.421-7.023-17.692-7.023v-.636c8.484,0,14.609,2.45,18.2,7.282C106.458,147.085,102.626,160.2,102.587,160.333Z" transform="translate(-72.808 -99.885)" fill="#3f3d56"/>
    <circle id="Ellipse_1267" data-name="Ellipse 1267" cx="7.953" cy="7.953" r="7.953" transform="translate(1.161 23.773)" fill="#3f3d56"/>
    <path id="Path_4526" data-name="Path 4526" d="M814.224,655.765l-5.95,54.742H849.33l1.785-4.165,2.38,4.165h38.676s-2.975-56.527-8.33-58.312S814.224,655.765,814.224,655.765Z" transform="translate(-552.65 -443.762)" fill="#2f2e41"/>
    <circle id="Ellipse_1268" data-name="Ellipse 1268" cx="20.826" cy="20.826" r="20.826" transform="translate(275.855 50.158)" fill="#ffb8b8"/>
    <path id="Path_4527" data-name="Path 4527" d="M894.035,277.209s1.785,19.041,0,20.231,28.561.6,28.561.6-4.165-17.256,0-25.586Z" transform="translate(-609.256 -193.135)" fill="#ffb8b8"/>
    <path id="Path_4528" data-name="Path 4528" d="M845.532,329.185s15.311,2.385,16.581-2.378l7.815,10.708.6,107.1s-63.667,7.735-66.047-4.76,24.4-111.269,24.4-111.269l6.741-.436S844.342,329.185,845.532,329.185Z" transform="translate(-550.042 -229.045)" fill="#d0cde1"/>
    <path id="Path_4529" data-name="Path 4529" d="M789.549,316.375l-10.21,3.538-29.156,7.14,1.19,71.4s-24.991,71.4-13.686,76.757,27.371-7.14,32.131-16.066S791.24,326.458,791.24,324.078,789.549,316.375,789.549,316.375Z" transform="translate(-504.08 -222.153)" fill="#3f3d56"/>
    <path id="Path_4530" data-name="Path 4530" d="M970.23,316.375l4.033,3.538L1002.823,333l-14.281,72s19.041,65.452,11.9,69.022-17.851,13.685-20.231,7.735S963.817,322.953,970.23,316.375Z" transform="translate(-658.541 -222.153)" fill="#3f3d56"/>
    <path id="Path_4531" data-name="Path 4531" d="M968.875,586.3S942.1,574.99,941.5,585.105s30.346,17.256,30.346,14.28S968.875,586.3,968.875,586.3Z" transform="translate(-640.659 -396.903)" fill="#ffb8b8"/>
    <path id="Path_4532" data-name="Path 4532" d="M813.1,584.528s30.941,23.206,19.041,29.156-27.371-20.826-27.371-20.826Z" transform="translate(-550.333 -399.3)" fill="#ffb8b8"/>
    <path id="Path_4533" data-name="Path 4533" d="M890.866,156.476a1.149,1.149,0,0,1,1.105-.656c-9.534-.57-19.577.541-27.553,5.8-2.234,1.471-4.32,3.271-6.863,4.1l2.064,1.619-2.466.752,3.63,2.346a3.146,3.146,0,0,1-3,1,5.453,5.453,0,0,1,3.329,3.4,16.132,16.132,0,0,1,.8,4.845c.61-2.367,3.193-3.76,5.633-3.9s4.82.664,7.195,1.242a39.8,39.8,0,0,0,15.8.608c-1.784,3.58-.279,7.85,1.235,11.552l3.024,7.392c1.679.169,2.865-1.5,4.13-2.617,1.153-1.018-3.436,7.934-2.726,7.606.923-.426,10.664-11.18,11.12-12.089a27.657,27.657,0,0,0,3.142-13.4,19.547,19.547,0,0,0-5.078-12.634c-2.169-2.283-5.169-2.683-7.38-4.58-.87-.747-.873-1.33-2.069-1.766A34.885,34.885,0,0,0,890.866,156.476Z" transform="translate(-584.94 -115.998)" fill="#2f2e41"/>
    <path id="Path_4534" data-name="Path 4534" d="M716.318,349.624l-4.165-1.785-33.321,54.742s-5.95,14.28,4.76,20.826,35.7,26.181,35.7,26.181l14.28-22.016s-29.156-13.685-27.371-19.041S717.508,388.9,717.508,388.9Z" transform="translate(-466.049 -242.939)" fill="#3f3d56"/>
    <path id="Path_4535" data-name="Path 4535" d="M1021.238,361.865l7.735,1.19s32.131,63.072,24.4,74.973-39.272,28.561-39.272,28.561-.6-19.636-5.95-26.776l18.446-7.14L1016.478,393.4Z" transform="translate(-684.69 -252.205)" fill="#3f3d56"/>
  </g>
</svg>
