<svg xmlns="http://www.w3.org/2000/svg" width="63.745" height="63.755" viewBox="0 0 63.745 63.755">
  <g id="career-icon" transform="translate(-0.043)">
    <g id="XMLID_1850_" transform="translate(0.043)">
      <path id="XMLID_1911_" d="M63.423,26.815a1.246,1.246,0,0,0-1.126-.34l-10.731,2.16a1.245,1.245,0,0,0-.635,2.1l1.452,1.452-5.7,5.7-4.411-4.411a1.245,1.245,0,0,0-1.761,0L35.1,38.887l2.03-7.3a5.846,5.846,0,0,0-3.576-7.036l1.623-4.636c.448.039.895.059,1.336.059a15.481,15.481,0,0,0,9.871-3.568l.3-.246a3.469,3.469,0,0,0,.568-4.8,3.454,3.454,0,0,0-4.942-.547l-.337.28a8.574,8.574,0,0,1-1.614,1.058,5.164,5.164,0,0,1-5.911-1.04A5.69,5.69,0,1,0,28.17,9.024a6.487,6.487,0,0,0-3.348,1.888,1.244,1.244,0,0,0-.147.15,16.891,16.891,0,0,1-8.462,5.592,3.443,3.443,0,0,0-2.05,1.623l-2.552-2.552a2.867,2.867,0,0,0-4.05,0l-3.34,3.34h0l-3.34,3.34a2.864,2.864,0,0,0,0,4.05l9.2,9.2a2.864,2.864,0,0,0,4.05,0L17.592,32.2l-1.64,4.3a1.245,1.245,0,1,0,2.327.887l4.084-10.708h9.143a3.348,3.348,0,0,1,3.225,4.246L31.9,41.09a1.065,1.065,0,0,1-1.023.777,1.062,1.062,0,0,1-1.049-1.228l1.505-9.464a1.245,1.245,0,0,0-1.23-1.441H27.155a1.245,1.245,0,0,0-1.111.683c-.073.144-7.3,14.428-9.732,19.255A1.279,1.279,0,0,1,15,50.356l-.059-.008a1.218,1.218,0,0,1-.975-1.641l.767-2.012a1.245,1.245,0,1,0-2.327-.887l-.767,2.012a3.708,3.708,0,0,0,2.967,5l.059.008a3.777,3.777,0,0,0,3.875-2.031c2.126-4.216,7.91-15.652,9.385-18.569h.728l-1.276,8.024A3.55,3.55,0,0,0,29.8,44.188l-13.87,13.87a1.245,1.245,0,0,0,0,1.761L19.5,63.391a1.245,1.245,0,0,0,1.761,0l6.866-6.866a1.245,1.245,0,0,0-1.761-1.761l-5.985,5.985-1.81-1.81L41.394,36.115,45.8,40.526a1.245,1.245,0,0,0,1.761,0l7.459-7.459a1.245,1.245,0,0,0,0-1.761l-.69-.69,6.618-1.332L59.621,35.9,58.6,34.878a1.246,1.246,0,0,0-1.761,0l-10.15,10.15-4.411-4.411a1.246,1.246,0,0,0-1.761,0l-7.1,7.1a1.245,1.245,0,0,0,1.761,1.761l6.223-6.223L45.8,47.669a1.246,1.246,0,0,0,1.761,0l10.15-10.15L59.5,39.307a1.245,1.245,0,0,0,2.1-.635l2.16-10.731A1.246,1.246,0,0,0,63.423,26.815ZM32.767,2.49a3.194,3.194,0,1,1-3.194,3.194A3.2,3.2,0,0,1,32.767,2.49ZM20.446,24.56,18.93,23.045q1.08-.352,2.119-.8Zm-4.2-4.319a.965.965,0,0,1,.66-1.193,19.422,19.422,0,0,0,5.676-2.689l-.7,2.7a21.474,21.474,0,0,1-4.44,1.838c-.029.008-.059.015-.089.021a.956.956,0,0,1-.653-.112l-.365-.365A.947.947,0,0,1,16.244,20.241ZM9.322,17.487a.374.374,0,0,1,.528,0l4.539,4.539a3.423,3.423,0,0,0,.744.744l3.919,3.919a.374.374,0,0,1,0,.528l-2.459,2.459-2.735-2.735.521-.521a1.245,1.245,0,0,0,0-1.761l-2.8-2.8a1.246,1.246,0,0,0-1.761,0l-.521.521L6.863,19.946Zm1.7,8.765a.467.467,0,0,1-.661,0h0l-.381-.381a.467.467,0,0,1,0-.661L10.7,24.5l1.042,1.042ZM12.373,33.9a.373.373,0,0,1-.528,0l-9.2-9.2a.373.373,0,0,1,0-.528L5.1,21.707,7.65,24.255a2.961,2.961,0,0,0,.574,3.376l.381.381h0a2.961,2.961,0,0,0,3.376.574l2.852,2.852Zm17.786-9.709H23.116l2.558-9.833a3.992,3.992,0,0,1,3.862-2.986,3.947,3.947,0,0,1,2.923,1.274,7.677,7.677,0,0,0,9.019,1.735,11.055,11.055,0,0,0,2.084-1.366l.337-.28a.964.964,0,0,1,1.38.154,1,1,0,0,1-.189,1.363l-.3.246a12.916,12.916,0,0,1-10.269,2.838,1.244,1.244,0,0,0-1.367.819l-2.113,6.037Z" transform="translate(-0.043)" fill="#38a4b8"/>
      <path id="XMLID_1920_" d="M238.241,408.8a1.246,1.246,0,1,0,.88.365A1.254,1.254,0,0,0,238.241,408.8Z" transform="translate(-207.492 -357.899)" fill="#38a4b8"/>
      <path id="XMLID_1921_" d="M114.131,326.63a1.244,1.244,0,1,0-.882-.365A1.254,1.254,0,0,0,114.131,326.63Z" transform="translate(-98.836 -283.78)" fill="#38a4b8"/>
    </g>
  </g>
</svg>
