<svg xmlns="http://www.w3.org/2000/svg" width="504.306" height="375.764" viewBox="0 0 504.306 375.764">
  <g id="contact-us" transform="translate(0 0)">
    <rect id="Rectangle_1280" data-name="Rectangle 1280" width="307.199" height="1.304" transform="translate(56.347 354.244)" fill="#3f3d56"/>
    <path id="Path_3928" data-name="Path 3928" d="M539.136,425.2s-6.52,29.338,6.52,24.122,5.216-25.426,5.216-25.426Z" transform="translate(-319.875 -250.436)" fill="#ffb9b9"/>
    <path id="Path_3929" data-name="Path 3929" d="M754.655,443.964s15.647,18.907,5.868,22.818-14.995-17.6-13.691-19.559S754.655,443.964,754.655,443.964Z" transform="translate(-413.479 -259.416)" fill="#ffb9b9"/>
    <circle id="Ellipse_1118" data-name="Ellipse 1118" cx="19.559" cy="19.559" r="19.559" transform="translate(284.456 11.78)" fill="#ffb9b9"/>
    <path id="Path_3930" data-name="Path 3930" d="M521.676,70.3l-2.608,20.21,21.514,7.823,4.564-22.818Z" transform="translate(-232.33 -31.467)" fill="#ffb9b9"/>
    <path id="Path_3931" data-name="Path 3931" d="M636.592,208.165s-11.052-5.456-13.35-9.9l-4.905,4.684s-35.206-3.26-40.421,14.343-.652,81.494-.652,81.494-7.172,28.686-5.216,29.338,26.078,12.387,59.98,5.868c0,0,14.995-2.608,17.6-.652s-1.3-31.294-1.3-31.294S674.4,243.37,669.841,236.2s-24.774-22.166-24.774-22.166l1.3-7.171S637.244,210.772,636.592,208.165Z" transform="translate(-335.185 -149.444)" fill="#cfcce0"/>
    <path id="Path_3932" data-name="Path 3932" d="M566.383,224.447s-11.735,5.868-13.691,14.995-20.21,84.754-18.254,89.318,1.3,10.431,1.3,10.431l16.951-1.956s-3.26-4.564-1.3-6.52S555.3,322.24,554,319.632s-2.608,1.956,4.564-6.52S582.03,227.055,566.383,224.447Z" transform="translate(-318.436 -161.162)" fill="#cfcce0"/>
    <path id="Path_3933" data-name="Path 3933" d="M723.782,264.574s5.542.326,6.845,9.453,3.586,65.521,3.586,65.521,8.475,18.255,5.216,20.863-1.3,6.52-1.3,6.52l-11.735,3.26-25.426-39.769Z" transform="translate(-393.037 -179.123)" fill="#cfcce0"/>
    <path id="Path_3934" data-name="Path 3934" d="M569.349,428.622s-3.912.652-3.912,14.995-7.172,58.676-2.608,65.847,5.216,71.715,5.216,71.715,12.387,5.216,22.818-11.735l1.3-9.127,2.608-44.333,10.431-55.416,14.343,61.284s-1.956,73.671,5.216,73.671,20.862-5.868,20.862-5.868,3.26-6.52,1.956-9.779-2.608-2.608-1.3-5.216,3.26-70.411,3.26-70.411-2.608-69.759-5.868-71.715S569.349,428.622,569.349,428.622Z" transform="translate(-330.53 -252.549)" fill="#2f2e41"/>
    <path id="Path_3935" data-name="Path 3935" d="M559.93,691.616,549.5,702.7s-18.907,17.6-2.608,18.255,25.426-10.431,25.426-11.735.652-5.868,5.216-5.868,15.647-11.083,13.039-15.647-10.431-6.52-10.431-6.52Z" transform="translate(-321.111 -365.594)" fill="#2f2e41"/>
    <path id="Path_3936" data-name="Path 3936" d="M673.561,720.121s-7.823,15.647-3.26,18.907a54.886,54.886,0,0,1,5.868,4.564s3.912-.652,3.26,5.216,23.47,9.127,24.774,4.564.652-13.691-1.956-16.3-10.431-20.862-10.431-20.862S683.34,706.43,673.561,720.121Z" transform="translate(-378.673 -379.756)" fill="#2f2e41"/>
    <path id="Path_3937" data-name="Path 3937" d="M694.669,125.52l3.684-.523s-5.129-9.441-15.057-11.155l3.485-2.352s-6.055-4.328-13.881,1.235c-4.114,2.924-8.891,6.376-12.4,10.72l-3.594-.878.693,3.67-6.057,2.02,5.534.724a19,19,0,0,0-1.485,5.443,7.3,7.3,0,0,0,1.462,5.272h0s6.268-7.6,6.6-8.942l-.821,3.359s4.095-2.2,4.587-4.218l1.256,2.8,1.818-3.471,10.385,6.454-1.092-3.47,6.771,2.723-1.843-4.366s6.865,6.305,6.267,10.075a18.262,18.262,0,0,0,.868,7.838S702.285,132.72,694.669,125.52Z" transform="translate(-370.914 -109.886)" fill="#2f2e41"/>
    <rect id="Rectangle_1281" data-name="Rectangle 1281" width="104.405" height="1.249" transform="translate(399.901 237.232)" fill="#3f3d56"/>
    <rect id="Rectangle_1282" data-name="Rectangle 1282" width="25.167" height="25.167" transform="translate(88.881 333.494)" fill="#cfcce0"/>
    <path id="Path_3938" data-name="Path 3938" d="M322.535,731.693H296.044V705.2h26.491Zm-25.167-1.324h23.842V706.527H297.369Z" transform="translate(-211.799 -376.344)" fill="#3f3d56"/>
    <rect id="Rectangle_1283" data-name="Rectangle 1283" width="17.076" height="16.485" transform="matrix(0.933, -0.361, 0.361, 0.933, 125.657, 119.755)" fill="#f2f2f2"/>
    <path id="Path_3939" data-name="Path 3939" d="M386.737,328.045l-16.765,6.484-6.259-16.185,16.765-6.484ZM370.5,333.4l15.089-5.836-5.633-14.566-15.089,5.836Z" transform="translate(-242.087 -200.288)" fill="#3f3d56"/>
    <rect id="Rectangle_1284" data-name="Rectangle 1284" width="17.076" height="16.485" transform="translate(428.687 284.881) rotate(71.027)" fill="#f2f2f2"/>
    <path id="Path_3940" data-name="Path 3940" d="M899.054,641.063l-5.844-17,16.41-5.642,5.844,17Zm-4.731-16.431,5.26,15.3,14.769-5.078-5.26-15.3Z" transform="translate(-479.085 -337.502)" fill="#3f3d56"/>
    <path id="Path_3941" data-name="Path 3941" d="M273.066,509.5c9.338.2,16.766,6.967,16.766,6.967s-7.711,6.442-17.049,6.242-16.766-6.967-16.766-6.967S263.729,509.3,273.066,509.5Z" transform="translate(-193.883 -288.749)" fill="#00a8cc"/>
    <path id="Path_3942" data-name="Path 3942" d="M191.817,440.363c8.436,4.008,18.11,1.29,18.11,1.29s-4-9.216-12.44-13.224-18.11-1.29-18.11-1.29S183.381,436.355,191.817,440.363Z" transform="translate(-159.58 -251.482)" fill="#00a8cc"/>
    <path id="Path_3943" data-name="Path 3943" d="M190.292,444.529c9.3-.85,17.442,5.039,17.442,5.039s-6.939,7.268-16.24,8.118-17.442-5.039-17.442-5.039S180.991,445.379,190.292,444.529Z" transform="translate(-157.196 -259.632)" fill="#3f3d56"/>
    <path id="Path_3944" data-name="Path 3944" d="M265.1,434.383c-.892,9.3,4.962,17.465,4.962,17.465s7.3-6.906,8.19-16.2-4.962-17.465-4.962-17.465S265.987,425.086,265.1,434.383Z" transform="translate(-197.905 -247.875)" fill="#3f3d56"/>
    <path id="Path_3945" data-name="Path 3945" d="M341.647,541.843c-4.878,7.965-3.2,17.872-3.2,17.872s9.588-3.006,14.467-10.971,3.2-17.872,3.2-17.872S346.526,533.878,341.647,541.843Z" transform="translate(-230.653 -298.316)" fill="#3f3d56"/>
    <path id="Path_3946" data-name="Path 3946" d="M279.673,593.747l.711-.48a22.273,22.273,0,0,1-3.931-12.352c.02-6.46,3.193-12.435,6.261-18.213.57-1.073,1.137-2.142,1.683-3.21a70.074,70.074,0,0,0,5.45-13.682c4.76-17.688.073-38.557-12.535-55.824-10-13.7-24.913-25.676-45.584-36.618l-.4.758c20.553,10.88,35.368,22.776,45.292,36.366,12.457,17.059,17.092,37.655,12.4,55.095a69.241,69.241,0,0,1-5.385,13.515c-.544,1.064-1.11,2.129-1.678,3.2-3.117,5.87-6.341,11.941-6.362,18.613A23.139,23.139,0,0,0,279.673,593.747Z" transform="translate(-182.832 -263.625)" fill="#3f3d56"/>
    <circle id="Ellipse_1119" data-name="Ellipse 1119" cx="8.151" cy="8.151" r="8.151" transform="translate(0 174.568)" fill="#3f3d56"/>
    <path id="Path_3947" data-name="Path 3947" d="M733.031,332.153,628.109,294.469l18.732-52.155,65.33-16.022L751.763,280Z" transform="translate(-281.135 -101.287)" fill="#2f2e41"/>
    <path id="Path_3948" data-name="Path 3948" d="M875.044,422.676l-78.409-29.889c20.355-27.265,29.457-46.5,29.464-76.762l78.409,29.889C886.292,371.789,878.674,391.241,875.044,422.676Z" transform="translate(-435.859 -202.152)" fill="#f2f2f2"/>
    <rect id="Rectangle_1285" data-name="Rectangle 1285" width="43.473" height="2.022" transform="translate(404.735 132.366) rotate(20.866)" fill="#3f3d56"/>
    <rect id="Rectangle_1286" data-name="Rectangle 1286" width="43.473" height="2.022" transform="translate(401.854 139.923) rotate(20.866)" fill="#3f3d56"/>
    <rect id="Rectangle_1287" data-name="Rectangle 1287" width="43.473" height="2.022" transform="translate(398.973 147.481) rotate(20.866)" fill="#3f3d56"/>
    <rect id="Rectangle_1288" data-name="Rectangle 1288" width="43.473" height="2.022" transform="translate(396.092 155.038) rotate(20.866)" fill="#3f3d56"/>
    <rect id="Rectangle_1289" data-name="Rectangle 1289" width="43.473" height="2.022" transform="translate(393.212 162.595) rotate(20.866)" fill="#3f3d56"/>
    <rect id="Rectangle_1290" data-name="Rectangle 1290" width="43.473" height="2.022" transform="translate(390.331 170.153) rotate(20.866)" fill="#3f3d56"/>
    <rect id="Rectangle_1291" data-name="Rectangle 1291" width="43.473" height="2.022" transform="translate(387.45 177.71) rotate(20.866)" fill="#3f3d56"/>
    <rect id="Rectangle_1292" data-name="Rectangle 1292" width="43.473" height="2.022" transform="translate(384.569 185.268) rotate(20.866)" fill="#3f3d56"/>
    <path id="Path_3949" data-name="Path 3949" d="M728.643,351.884,623.721,314.2l21.156-58.9,44.308,41.545,60.615-3.86Z" transform="translate(-279.171 -114.268)" fill="#3f3d56"/>
    <path id="Path_3950" data-name="Path 3950" d="M674.758,352.561l-52.316-18.79,12.747-35.494,1.04.373L623.856,333.1l51.276,18.417Z" transform="translate(-278.599 -133.506)" fill="#00a8cc"/>
    <rect id="Rectangle_1293" data-name="Rectangle 1293" width="16.299" height="6.52" transform="translate(362.224 175.799) rotate(19.756)" fill="#00a8cc"/>
    <path id="Path_3951" data-name="Path 3951" d="M302.984,604.722l-82.119-.044.645-46.1,40.811,18.343,41.308-17.194Z" transform="translate(-98.857 -250.013)" fill="#3f3d56"/>
    <rect id="Rectangle_1294" data-name="Rectangle 1294" width="12.007" height="4.803" transform="translate(128.547 333.62) rotate(0.801)" fill="#00a8cc"/>
    <path id="Path_3952" data-name="Path 3952" d="M304.251,559.552l-41.508,21.161-41.1-21.161v-1.221h82.61Z" transform="translate(-99.204 -249.904)" fill="#00a8cc"/>
    <ellipse id="Ellipse_1120" data-name="Ellipse 1120" cx="4.988" cy="13.81" rx="4.988" ry="13.81" transform="translate(416.079 129.978) rotate(-69.134)" fill="#00a8cc"/>
    <path id="Path_3953" data-name="Path 3953" d="M945.2,211.667a20.992,20.992,0,0,0-26.278,13.812c-3.442,11.07,5.939,51.6,5.939,51.6s30.708-28.061,34.151-39.132A20.992,20.992,0,0,0,945.2,211.667Zm-9.186,29.54a9.943,9.943,0,1,1,12.447-6.543A9.944,9.944,0,0,1,936.013,241.207Z" transform="translate(-490.253 -155.016)" fill="#00a8cc"/>
  </g>
</svg>
