<svg xmlns="http://www.w3.org/2000/svg" xmlns:xlink="http://www.w3.org/1999/xlink" width="25.669" height="24.599" viewBox="0 0 25.669 24.599">
  <defs>
    <clipPath id="clip-path">
      <path id="star" d="M25.6,9.787a1.362,1.362,0,0,0-1.174-.938l-7.409-.673-2.93-6.857a1.364,1.364,0,0,0-2.509,0L8.65,8.176l-7.41.673a1.366,1.366,0,0,0-.774,2.387l5.6,4.911L4.415,23.422A1.362,1.362,0,0,0,6.444,24.9l6.391-3.819L19.223,24.9a1.364,1.364,0,0,0,2.03-1.474L19.6,16.147l5.6-4.91a1.365,1.365,0,0,0,.4-1.45Zm0,0" transform="translate(0 -0.491)" fill="#ffc107"/>
    </clipPath>
  </defs>
  <g id="empty-star" transform="translate(0 0)" clip-path="url(#clip-path)">
    <g id="favorite_1_" data-name="favorite (1)" transform="translate(0.017 0)">
      <path id="Path_3474" data-name="Path 3474" d="M25.518,9.787a2.22,2.22,0,0,0-2.142-1.554h-6.4L14.957,2.109A2.219,2.219,0,0,0,12.818.561h-.01a2.219,2.219,0,0,0-2.136,1.565L8.714,8.233H2.257a2.253,2.253,0,0,0-1.32,4.078l5.224,3.776L4.151,22.194a2.219,2.219,0,0,0,.81,2.523,2.219,2.219,0,0,0,2.649.007l5.233-3.783,5.171,3.776a2.253,2.253,0,0,0,3.474-2.507l-1.963-6.124,5.18-3.783A2.219,2.219,0,0,0,25.518,9.787Zm-1.7,1.305-6.055,4.422,2.294,7.156A.751.751,0,0,1,18.9,23.5l-6.052-4.42L6.731,23.507a.751.751,0,0,1-1.153-.844l2.354-7.15-6.115-4.42a.751.751,0,0,1,.44-1.359H9.81L12.1,2.584a.729.729,0,0,1,.712-.522h0a.728.728,0,0,1,.714.516l2.356,7.156h7.49a.751.751,0,0,1,.443,1.357Z" transform="translate(0 -0.561)"/>
    </g>
  </g>
</svg>
