<svg xmlns="http://www.w3.org/2000/svg" width="559.602" height="337.517" viewBox="0 0 559.602 337.517">
  <g id="faq" transform="translate(0 0)">
    <rect id="Rectangle_1275" data-name="Rectangle 1275" width="515.041" height="284.464" transform="translate(22.28 16.84)" fill="#00a8cc"/>
    <path id="Path_3908" data-name="Path 3908" d="M344.912,372.274l-.6-.135a135.954,135.954,0,0,1,265.13-.361l-.6.136A134.559,134.559,0,0,0,476.92,266.783C414.174,266.782,358.656,311.148,344.912,372.274Z" transform="translate(-196.997 -192.665)" fill="#f2f2f2"/>
    <path id="Path_3909" data-name="Path 3909" d="M619.6,442.45H60V124.306H619.6ZM61.036,441.414H618.566V125.342H61.036Z" transform="translate(-60 -124.306)" fill="#3f3d56"/>
    <circle id="Ellipse_1113" data-name="Ellipse 1113" cx="4.5" cy="4.5" r="4.5" transform="translate(33.602 19)" fill="#f2f2f2"/>
    <circle id="Ellipse_1114" data-name="Ellipse 1114" cx="4.5" cy="4.5" r="4.5" transform="translate(47.602 19)" fill="#f2f2f2"/>
    <circle id="Ellipse_1115" data-name="Ellipse 1115" cx="4.5" cy="4.5" r="4.5" transform="translate(61.602 19)" fill="#f2f2f2"/>
    <path id="Path_3910" data-name="Path 3910" d="M103,544.036V545.1a96.615,96.615,0,0,1,73.971,82.759h1.047A97.661,97.661,0,0,0,103,544.036Z" transform="translate(-80.72 -326.553)" fill="#f2f2f2"/>
    <path id="Path_3911" data-name="Path 3911" d="M158.095,651.246H103v-58.67a71.561,71.561,0,0,1,55.095,58.67Z" transform="translate(-80.72 -349.942)" opacity="0.1"/>
    <path id="Path_3912" data-name="Path 3912" d="M1042.44,596.976v55.095H983.77A71.561,71.561,0,0,1,1042.44,596.976Z" transform="translate(-505.119 -352.062)" opacity="0.1"/>
    <path id="Path_3913" data-name="Path 3913" d="M855.791,307.035l-.332-.4L731.419,409.5l-.4.332,85.945,103.63h1.347l-85.832-103.5L855.324,308.1l65.328,78.774v-1.627Z" transform="translate(-383.331 -212.162)" fill="#f2f2f2"/>
    <path id="Path_3914" data-name="Path 3914" d="M317.284,401.4q.031,3.995-.29,8.042c-.13,1.741-.316,3.482-.549,5.228q-.194,1.516-.446,3.031-.435,2.635-1.005,5.213c-.057.269-.119.534-.187.8a95.754,95.754,0,0,1-23.778,44.462,31.12,31.12,0,1,1-49.862,28.12,96.373,96.373,0,1,1,71.785-122.853c.083.269.161.534.244.8q1.29,4.251,2.181,8.648c.352,1.731.653,3.472.912,5.228.383,2.653.663,5.337.824,8.042Q317.277,398.766,317.284,401.4Z" transform="translate(-91.096 -211.701)" fill="#3f3d56"/>
    <circle id="Ellipse_1116" data-name="Ellipse 1116" cx="31.966" cy="31.966" r="31.966" transform="translate(348.633 66.387)" fill="#a0616a"/>
    <path id="Path_3915" data-name="Path 3915" d="M775.9,352.065s-4,18.98-4,20.977-18.98,10.988-18.98,10.988l-16.982-3-5.994-17.981s9.989-14.984,9.989-20.977Z" transform="translate(-382.815 -229.239)" fill="#a0616a"/>
    <path id="Path_3916" data-name="Path 3916" d="M772.129,411.563,751.905,470.2v.005l-9.746,28.27s-.995,32.965-1.995,35.96,1,4,1.995,4.995-.995,3.995-1.995,3.995c-.207,0-.5.648-.834,1.668H642.488l7.772-82.583-.477-3.85-8.513-69.069,49.271-17.322v.005A20.652,20.652,0,0,0,705.2,391.583c14.985,4.995,25.3-11.8,25.3-11.8Z" transform="translate(-340.085 -243.786)" fill="#d0cde1"/>
    <path id="Path_3917" data-name="Path 3917" d="M478.986,717.047s-26.971,16.982-23.974,27.97,33.964-18.98,33.964-19.979S478.986,717.047,478.986,717.047Z" transform="translate(-250.224 -409.918)" fill="#a0616a"/>
    <path id="Path_3918" data-name="Path 3918" d="M791.135,247.981s-10.149-21.989-29.6-16.915-30.447,12.686-31.293,20.3.423,19.029.423,19.029,2.114-15.646,15.646-12.263,34.676.846,34.676.846l3.383,30.447s3.806-5.5,8.035-2.114S804.667,254.747,791.135,247.981Z" transform="translate(-382.815 -175.382)" fill="#2f2e41"/>
    <path id="Path_3919" data-name="Path 3919" d="M888.645,539.01s0,22.825-8.389,42.623H851.431l.254-.668V575.97s2.995-3.995,2.995-4.995-3.995-1-1-2.995S859.675,546,859.675,546s-1-3.995-2-4.995,1-3.995,1-3.995l-1.995-2.995-7.239-27.27v-.005l-5.751-21.674,10.99-36.96h14.985s12.985,10.99,11.985,31.965Z" transform="translate(-437.621 -280.329)" fill="#d0cde1"/>
    <path id="Path_3920" data-name="Path 3920" d="M586.721,399.912l-16.982,3s-9.989,9.989-13.985,21.976l-7.992,35.961-12.986,25.972S519.793,501.8,508.8,535.766l-15.983,29.968,16.982,9.989s46.95-54.941,52.943-73.921l25.972-49.946Z" transform="translate(-268.555 -257.107)" fill="#d0cde1"/>
    <ellipse id="Ellipse_1117" data-name="Ellipse 1117" cx="8" cy="7.5" rx="8" ry="7.5" transform="translate(206.602 315)" fill="#3f3d56"/>
    <path id="Path_3921" data-name="Path 3921" d="M156.688,485.924V437.259H328.3c-.083-.269-.161-.534-.244-.8H155.88v50.271H329.911c.067-.269.13-.534.187-.8Z" transform="translate(-106.2 -274.716)" fill="#f2f2f2"/>
    <rect id="Rectangle_1276" data-name="Rectangle 1276" width="20.914" height="20.914" transform="translate(58.128 181.649)" opacity="0.1"/>
    <path id="Path_3922" data-name="Path 3922" d="M171.41,453.916v32.177h32.172V453.916Zm31.369,31.374H172.213V454.724h30.566Z" transform="translate(-113.683 -283.129)" fill="#f2f2f2"/>
    <path id="Path_3923" data-name="Path 3923" d="M338.653,587.959H320V569.306h18.653Zm-17.617-1.036h16.581V570.342H321.036Z" transform="translate(-185.281 -338.729)" fill="#ff6584"/>
    <path id="Path_3924" data-name="Path 3924" d="M210.988,449.731l-6.664-6.108.7-.764,5.772,5.291,13.137-19.705.862.575Z" transform="translate(-98.454 -206.446)" fill="#f2f2f2"/>
    <path id="Path_3925" data-name="Path 3925" d="M213.617,449.663v12.954H197.036V446.036H209.99V445H196v18.653h18.653v-13.99Z" transform="translate(-94.443 -214.423)" fill="#f2f2f2"/>
    <path id="Path_3926" data-name="Path 3926" d="M1024.307,214.18a17.294,17.294,0,1,1,17.294-17.294A17.294,17.294,0,0,1,1024.307,214.18Zm0-33.784a16.49,16.49,0,1,0,16.49,16.49,16.49,16.49,0,0,0-16.49-16.49Z" transform="translate(-516.318 -150.946)" fill="#f2f2f2"/>
    <path id="Path_3927" data-name="Path 3927" d="M981.166,69.277l-.57-.569L970.024,79.283,959.449,68.708l-.568.569,10.574,10.574-9.167,9.167.569.569,9.167-9.167,9.167,9.167.568-.569-9.167-9.167Z" transform="translate(-462.037 -33.107)" fill="#f2f2f2"/>
    <rect id="Rectangle_1277" data-name="Rectangle 1277" width="99.485" height="1.036" transform="translate(110.884 178.603)" fill="#f2f2f2"/>
    <rect id="Rectangle_1278" data-name="Rectangle 1278" width="99.485" height="1.036" transform="translate(110.884 186.894)" fill="#f2f2f2"/>
    <rect id="Rectangle_1279" data-name="Rectangle 1279" width="99.485" height="1.036" transform="translate(110.884 195.184)" fill="#f2f2f2"/>
  </g>
</svg>
