<svg xmlns="http://www.w3.org/2000/svg" width="34.826" height="34.826" viewBox="0 0 34.826 34.826">
  <path id="Icon_awesome-whatsapp" data-name="Icon awesome-whatsapp" d="M29.61,7.311A17.263,17.263,0,0,0,2.449,28.136L0,37.076l9.15-2.4a17.2,17.2,0,0,0,8.248,2.1h.008A17.424,17.424,0,0,0,34.826,19.515a17.326,17.326,0,0,0-5.216-12.2Zm-12.2,26.555a14.318,14.318,0,0,1-7.307-2l-.521-.311L4.151,32.98,5.6,27.686l-.342-.544a14.372,14.372,0,1,1,26.656-7.626A14.5,14.5,0,0,1,17.405,33.866Zm7.867-10.743c-.428-.218-2.55-1.259-2.946-1.4s-.684-.218-.972.218-1.112,1.4-1.368,1.695-.505.326-.933.109c-2.534-1.267-4.2-2.262-5.869-5.131-.443-.762.443-.707,1.267-2.355a.8.8,0,0,0-.039-.754c-.109-.218-.972-2.34-1.329-3.2-.35-.84-.707-.723-.972-.739-.249-.016-.536-.016-.824-.016a1.6,1.6,0,0,0-1.151.536,4.846,4.846,0,0,0-1.508,3.6,8.448,8.448,0,0,0,1.757,4.462c.218.288,3.04,4.641,7.369,6.514,2.736,1.182,3.809,1.283,5.177,1.081a4.417,4.417,0,0,0,2.907-2.052,3.607,3.607,0,0,0,.249-2.052C25.988,23.441,25.7,23.332,25.272,23.122Z" transform="translate(0 -2.25)" fill="#fff"/>
</svg>
