<svg xmlns="http://www.w3.org/2000/svg" width="27.316" height="27.322" viewBox="0 0 27.316 27.322">
  <g id="Icon_ionic-ios-timer" data-name="Icon ionic-ios-timer" transform="translate(0 0.001)">
    <path id="Path_4538" data-name="Path 4538" d="M17.6,31.26a13.661,13.661,0,0,1-9.481-23.5A1.1,1.1,0,1,1,9.641,9.341a11.465,11.465,0,1,0,9.051-3.156v4.276a1.1,1.1,0,1,1-2.2,0V5.037a1.1,1.1,0,0,1,1.1-1.1A13.661,13.661,0,0,1,17.6,31.26Z" transform="translate(-3.937 -3.939)"/>
    <path id="Path_4539" data-name="Path 4539" d="M12.336,11.38l6.8,4.884a2.057,2.057,0,0,1-2.391,3.347,1.986,1.986,0,0,1-.478-.478l-4.884-6.8a.685.685,0,0,1,.956-.956Z" transform="translate(-4.146 -4.147)"/>
  </g>
</svg>
