<svg xmlns="http://www.w3.org/2000/svg" width="31.595" height="31.602" viewBox="0 0 31.595 31.602">
  <g id="instagram-white" transform="translate(-0.449)">
    <path id="Path_2422" data-name="Path 2422" d="M31.964,9.291a11.547,11.547,0,0,0-.735-3.834A8.1,8.1,0,0,0,26.605.833,11.577,11.577,0,0,0,22.772.1C21.08.019,20.543,0,16.252,0S11.425.019,9.74.093A11.551,11.551,0,0,0,5.906.827,7.711,7.711,0,0,0,3.1,2.655a7.78,7.78,0,0,0-1.821,2.8A11.578,11.578,0,0,0,.547,9.285c-.08,1.692-.1,2.229-.1,6.519s.019,4.828.093,6.513a11.547,11.547,0,0,0,.735,3.834A8.094,8.094,0,0,0,5.9,30.774a11.579,11.579,0,0,0,3.834.735c1.685.074,2.222.093,6.513.093s4.828-.018,6.513-.093a11.544,11.544,0,0,0,3.834-.735,8.083,8.083,0,0,0,4.624-4.624,11.586,11.586,0,0,0,.735-3.834c.074-1.685.093-2.222.093-6.513s-.006-4.828-.08-6.513Zm-2.846,12.9a8.662,8.662,0,0,1-.543,2.932,5.242,5.242,0,0,1-3,3,8.692,8.692,0,0,1-2.932.543c-1.667.074-2.167.093-6.383.093s-4.723-.018-6.383-.093a8.657,8.657,0,0,1-2.932-.543,4.863,4.863,0,0,1-1.815-1.179,4.913,4.913,0,0,1-1.179-1.815A8.694,8.694,0,0,1,3.406,22.2c-.074-1.667-.093-2.167-.093-6.383s.018-4.723.093-6.383A8.657,8.657,0,0,1,3.949,6.5,4.8,4.8,0,0,1,5.134,4.686,4.906,4.906,0,0,1,6.949,3.507a8.7,8.7,0,0,1,2.932-.543c1.667-.074,2.167-.093,6.383-.093s4.723.019,6.383.093a8.662,8.662,0,0,1,2.932.543A4.859,4.859,0,0,1,27.4,4.686,4.912,4.912,0,0,1,28.575,6.5a8.7,8.7,0,0,1,.543,2.932c.074,1.667.093,2.167.093,6.383s-.019,4.71-.093,6.377Zm0,0" fill="#d4f9fa"/>
    <path id="Path_2423" data-name="Path 2423" d="M133.067,124.5a8.118,8.118,0,1,0,8.118,8.118A8.12,8.12,0,0,0,133.067,124.5Zm0,13.384a5.266,5.266,0,1,1,5.266-5.266A5.267,5.267,0,0,1,133.067,137.884Zm0,0" transform="translate(-116.815 -116.814)" fill="#d4f9fa"/>
    <path id="Path_2424" data-name="Path 2424" d="M366.24,90.5a1.9,1.9,0,1,1-1.9-1.9,1.9,1.9,0,0,1,1.9,1.9Zm0,0" transform="translate(-339.653 -83.132)" fill="#d4f9fa"/>
  </g>
</svg>
