<svg id="jobs-icon" xmlns="http://www.w3.org/2000/svg" width="56.734" height="74.481" viewBox="0 0 56.734 74.481">
  <path id="Path_535" data-name="Path 535" d="M222.89,375.821,228.526,361H217.253Z" transform="translate(-194.523 -308.485)" fill="#f2ffff"/>
  <path id="Path_536" data-name="Path 536" d="M169.244,401.722l-6.678-17.534-5.355,5.355Z" transform="translate(-143.215 -328.3)" fill="#f2ffff"/>
  <path id="Path_537" data-name="Path 537" d="M278.747,384.188l-6.678,17.534L284.1,389.543Z" transform="translate(-241.365 -328.3)" fill="#f2ffff"/>
  <path id="Path_538" data-name="Path 538" d="M68.825,369.728,77.553,361H71.91A10.923,10.923,0,0,0,61,371.91v11.056H81.917Z" transform="translate(-61 -308.485)" fill="#f2ffff"/>
  <path id="Path_539" data-name="Path 539" d="M311.575,361l8.728,8.728-13.092,13.238h20.917V371.91A10.923,10.923,0,0,0,317.218,361Z" transform="translate(-271.394 -308.485)" fill="#f2ffff"/>
  <path id="Path_540" data-name="Path 540" d="M143.552,149.058a15.059,15.059,0,0,0,7.384-2.536,4.533,4.533,0,0,1,5.023,0,14.83,14.83,0,0,0,7.9,2.555c2.936,0,6.256-1.794,6.921-5.227A6.551,6.551,0,0,0,164.358,136H142.537a6.548,6.548,0,0,0-6.421,7.852c.6,3.113,3.51,5.206,7.42,5.206h.015Z" transform="translate(-125.081 -116.216)" fill="#f2ffff"/>
  <path id="Path_541" data-name="Path 541" d="M129.728,15.42h21.821a10.757,10.757,0,0,1,8.565,4.192,13.2,13.2,0,0,0-9.68-14.837A17.3,17.3,0,0,0,138.457,0,17.6,17.6,0,0,0,121,17.6a17.551,17.551,0,0,0,.149,2.027,10.761,10.761,0,0,1,8.58-4.209Z" transform="translate(-112.272 0)" fill="#f2ffff"/>
  <path id="Path_542" data-name="Path 542" d="M168.6,247.433a15.279,15.279,0,0,0,14.847-11.826,12.143,12.143,0,0,1-4.436.9,19.135,19.135,0,0,1-10.339-3.3,20.458,20.458,0,0,1-9.677,3.271h-.026a14.4,14.4,0,0,1-5.249-.972A15.285,15.285,0,0,0,168.6,247.433Z" transform="translate(-140.232 -199.282)" fill="#f2ffff"/>
</svg>
