<svg xmlns="http://www.w3.org/2000/svg" width="270.432" height="254.66" viewBox="0 0 270.432 254.66">
  <g id="jobs-illustration" transform="translate(-0.001 0.028)">
    <path id="Path_1808" data-name="Path 1808" d="M516.326,380.018v70.345l11.767,19.176.9,1.459h46.428l.938-90.98Z" transform="translate(-319.991 -235.532)" fill="#e6e6e6"/>
    <path id="Path_1809" data-name="Path 1809" d="M516.326,380.018v70.345l11.767,19.176.722-89.521Z" transform="translate(-319.991 -235.532)" opacity="0.1"/>
    <path id="Path_1810" data-name="Path 1810" d="M123.731,375.084v70.345l-11.767,19.176-.9,1.458H64.641l-.938-90.98Z" transform="translate(-39.479 -232.474)" fill="#e6e6e6"/>
    <path id="Path_1811" data-name="Path 1811" d="M201.212,375.084v70.345l-11.767,19.176-.722-89.522Z" transform="translate(-116.96 -232.474)" opacity="0.1"/>
    <path id="Path_1812" data-name="Path 1812" d="M299.975,348.454v4.22H47.67v-6.1l23.448-12.193H279.341Z" transform="translate(-29.543 -207.251)" fill="#e6e6e6"/>
    <path id="Path_1813" data-name="Path 1813" d="M299.975,368.327v4.22H47.67v-6.1Z" transform="translate(-29.543 -227.124)" opacity="0.1"/>
    <path id="Path_1814" data-name="Path 1814" d="M116.647,421.533H105.392l-4.69-3.283h21.1Z" transform="translate(-62.409 -259.226)" fill="#3f3d56"/>
    <path id="Path_1815" data-name="Path 1815" d="M116.647,457.3H105.392l-4.69-3.283h21.1Z" transform="translate(-62.409 -281.392)" fill="#3f3d56"/>
    <path id="Path_1816" data-name="Path 1816" d="M116.647,507.864H105.392l-4.69-3.283h21.1Z" transform="translate(-62.409 -312.73)" fill="#3f3d56"/>
    <path id="Path_1817" data-name="Path 1817" d="M116.647,558.43H105.392l-4.69-3.283h21.1Z" transform="translate(-62.409 -344.068)" fill="#3f3d56"/>
    <path id="Path_1818" data-name="Path 1818" d="M586.85,426.466h11.256l4.69-3.283h-21.1Z" transform="translate(-360.5 -262.284)" fill="#3f3d56"/>
    <path id="Path_1819" data-name="Path 1819" d="M586.85,462.232h11.256l4.69-3.283h-21.1Z" transform="translate(-360.5 -284.449)" fill="#3f3d56"/>
    <path id="Path_1820" data-name="Path 1820" d="M586.85,512.8h11.256l4.69-3.283h-21.1Z" transform="translate(-360.5 -315.788)" fill="#3f3d56"/>
    <path id="Path_1821" data-name="Path 1821" d="M586.85,563.363h11.256l4.69-3.283h-21.1Z" transform="translate(-360.5 -347.125)" fill="#3f3d56"/>
    <path id="Path_1822" data-name="Path 1822" d="M699.548,235.615H604.794a3.583,3.583,0,0,0-3.583,3.584v63.828a3.583,3.583,0,0,0,3.584,3.583h35.969l-1.348,8.6s-7.7,4.091-2.286,4.212,30.925,0,30.925,0,4.934,0-2.888-4.332l-1.268-8.483h35.649a3.583,3.583,0,0,0,3.583-3.584V239.2a3.583,3.583,0,0,0-3.584-3.584Z" transform="translate(-465.534 -189.829)" fill="#3f3d56"/>
    <rect id="Rectangle_771" data-name="Rectangle 771" width="95.062" height="53.186" transform="translate(139.106 49.577)" fill="#f2f2f2"/>
    <circle id="Ellipse_639" data-name="Ellipse 639" cx="0.602" cy="0.602" r="0.602" transform="translate(186.035 47.29)" fill="#f2f2f2"/>
    <circle id="Ellipse_640" data-name="Ellipse 640" cx="2.286" cy="2.286" r="2.286" transform="translate(184.351 109.622)" fill="#f2f2f2"/>
    <path id="Path_1823" data-name="Path 1823" d="M375.94,350.892v1.2H311.2v-.963l.089-.241,1.6-4.332h61.73Z" transform="translate(-192.866 -214.797)" fill="#3f3d56"/>
    <path id="Path_1824" data-name="Path 1824" d="M761.754,463.26c-.118.5-.563,1.036-1.569,1.539-3.61,1.8-10.95-.481-10.95-.481s-5.655-.963-5.655-3.49a4.5,4.5,0,0,1,.5-.295c1.518-.8,6.55-2.784,15.473.084a3.722,3.722,0,0,1,1.7,1.111,1.775,1.775,0,0,1,.51,1.531Z" transform="translate(-553.766 -328.343)" fill="#3f3d56"/>
    <path id="Path_1825" data-name="Path 1825" d="M762.562,463.26c-4.419,1.693-8.357,1.819-12.4-.988a8.876,8.876,0,0,0-5.28-1.739c1.518-.8,6.55-2.784,15.473.084a3.721,3.721,0,0,1,1.7,1.112,1.775,1.775,0,0,1,.51,1.531Z" transform="translate(-554.575 -328.343)" opacity="0.1"/>
    <ellipse id="Ellipse_641" data-name="Ellipse 641" cx="1.564" cy="0.481" rx="1.564" ry="0.481" transform="translate(200.883 132.966)" fill="#f2f2f2"/>
    <path id="Path_1826" data-name="Path 1826" d="M375.94,357.952v1.2H311.2v-.963l.089-.241Z" transform="translate(-192.866 -221.857)" opacity="0.1"/>
    <path id="Path_1827" data-name="Path 1827" d="M319.344,115.141a3.253,3.253,0,0,0-1.887.421,4.921,4.921,0,0,0-1.276,1.684,20.148,20.148,0,0,1-5.489,6.2c-1.631,1.195-3.7,2.684-3.425,4.887a6.605,6.605,0,0,0,.795,2.063c1.5,3.037,5.61,5.384,5.206,8.85,1.495-2.5-.5-3.74.99-6.242.712-1.192,1.948-2.537,3.023-1.789.36.251.6.7.971.92.894.525,1.845-.478,2.637-1.189,2.729-2.45,6.61-1.808,10.006-1.045,1.6.36,3.364.833,4.312,2.365,1.246,2.015-1.184,4.191-1.8,6.468a1.241,1.241,0,0,0,1.332,1.545c1.019-.1,2.226-.183,2.286-.63,1.282.046,2.853-.1,3.4-1.434a5.613,5.613,0,0,0,.263-1.633c.2-2.242,1.153-4.288,1.784-6.422s.9-4.635-.159-6.528a7.553,7.553,0,0,0-1.394-1.694C334.886,116.1,326.947,115.132,319.344,115.141Z" transform="translate(-283.348 -115.159)" fill="#2f2e41"/>
    <path id="Path_1828" data-name="Path 1828" d="M318.563,186.665s1.313,10.943-3.5,11.819,4.377,15.758,4.377,15.758l21.886,2.626-5.253-17.509s-3.5-1.313-1.313-10.068S318.563,186.665,318.563,186.665Z" transform="translate(-287.329 -158.2)" fill="#ffb8b8"/>
    <path id="Path_1829" data-name="Path 1829" d="M47.028,569.318l1.751,24.075h9.192l-2.626-24.075Z" transform="translate(-29.145 -352.85)" fill="#ffb8b8"/>
    <path id="Path_1830" data-name="Path 1830" d="M224.3,448.173l1.313,20.135,10.068-4.377-3.94-16.633Z" transform="translate(-139.011 -277.229)" fill="#ffb8b8"/>
    <path id="Path_1831" data-name="Path 1831" d="M274.167,412.232s.438,25.388,3.064,33.7,2.189,8.754,1.751,10.068-.875.438-.875,2.626-.875,36.769,0,39.833-2.626,8.317,0,8.755,14.883,0,15.32-2.626-3.5-3.5-1.751-5.253,4.377-37.644,4.377-37.644l6.128-24.95,11.381-13.132h24.075l7.441,28.89s-3.064,8.317-.875,8.317,15.32,2.626,15.32-7-4.377-38.082-5.253-38.957.438-3.94-.875-5.253S336.762,399.1,331.071,397.35s-13.673-3.835-13.673-3.835Z" transform="translate(-262.85 -287.687)" fill="#2f2e41"/>
    <path id="Path_1832" data-name="Path 1832" d="M479.634,596.42s-6.566-2.189-9.63,4.377-1.751,8.317-1.751,8.317,10.068,3.5,11.819,1.751c.762-.762,3.181-1.026,5.671-1.082,3.792-.085,4.8-5.45,1.22-6.7q-.16-.056-.324-.1C483.136,602.11,479.634,596.42,479.634,596.42Z" transform="translate(-382.961 -413.219)" fill="#2f2e41"/>
    <circle id="Ellipse_642" data-name="Ellipse 642" cx="13.132" cy="13.132" r="13.132" transform="translate(27.95 9.424)" fill="#ffb8b8"/>
    <path id="Path_1833" data-name="Path 1833" d="M289.715,229.345s21.448,4.377,26.7-2.626,7.441,19.7,7.441,19.7l2.626,28.014-3.94,15.32s-20.573,16.634-27.139,17.947-16.634,2.189-16.634,2.189,3.064-48.587,3.064-49.463S289.715,229.345,289.715,229.345Z" transform="translate(-265.704 -183.59)" fill="#00a8cc"/>
    <path id="Path_1834" data-name="Path 1834" d="M280.983,211.912s-4.772-2.734-6.085-.107S261.328,221,260.015,221s2.626,36.331.875,40.708-10.068,36.331-5.253,38.957,1.313-2.626,6.128,3.94,28.452,6.566,29.765,3.94-10.505-22.324-8.317-40.708,5.69-43.773,2.626-47.274A30.452,30.452,0,0,1,280.983,211.912Z" transform="translate(-250.449 -174.366)" fill="#2f2e41"/>
    <path id="Path_1835" data-name="Path 1835" d="M366.258,218.3l.61-2.1s18.212,6.038,19.088,9.977.438,31.516-2.626,33.7-7.441,5.69-4.377,10.943,6.566,10.943,9.192,11.381,7.441,3.5,6.128,6.566-17.071-2.626-17.071-2.626-10.505-7.879-10.068-20.135S366.258,218.3,366.258,218.3Z" transform="translate(-319.923 -177.797)" fill="#2f2e41"/>
    <path id="Path_1836" data-name="Path 1836" d="M374.321,357.554l-10.505,19.7s-15.32,15.758-6.566,17.509,13.569-14.445,13.569-14.445l11.381-16.2Z" transform="translate(-312.666 -265.4)" fill="#ffb8b8"/>
    <path id="Path_1837" data-name="Path 1837" d="M324.694,124.182a2.98,2.98,0,0,0-1.536.3,3.579,3.579,0,0,0-1.039,1.19,15.123,15.123,0,0,1-4.468,4.382c-1.328.844-3.016,1.9-2.788,3.454a4.322,4.322,0,0,0,.647,1.458,11.47,11.47,0,0,1,1.394,7.149l3.65-5.306c.579-.842,1.586-1.793,2.461-1.264.293.177.485.495.79.65.728.371,1.5-.338,2.146-.84,2.222-1.732,5.381-1.278,8.145-.738,1.305.255,2.739.589,3.51,1.672,1.282,1.8-.057,4.4.692,6.48a1.91,1.91,0,0,0,.79-1.261c1.044.032,2.322-.07,2.77-1.014a3.5,3.5,0,0,0,.214-1.154,21.347,21.347,0,0,1,1.452-4.539,5.39,5.39,0,0,0-.13-4.614,5.582,5.582,0,0,0-1.135-1.2C337.346,124.857,330.883,124.175,324.694,124.182Z" transform="translate(-288.058 -120.763)" fill="#2f2e41"/>
    <path id="Path_1838" data-name="Path 1838" d="M400.841,237.836l4.078,1.083s9.491,24.305,7.3,40.939-3.5,13.132-3.5,13.132-3.5-7.879-11.381-6.128Z" transform="translate(-339.185 -191.205)" fill="#2f2e41"/>
    <path id="Path_1839" data-name="Path 1839" d="M281.31,737.337c-1.056,1.434-.844,3.485-1.779,5-.81,1.314-2.338,2-3.352,3.167a8.492,8.492,0,0,0-.862,1.24c-.94,1.575-1.7,3.594-.779,5.178.745,1.274,2.311,1.772,3.747,2.111a13.751,13.751,0,0,0,5.538.444,5.515,5.515,0,0,0,4.286-3.2,12.363,12.363,0,0,1,.458-1.293c1-1.959,4.117-1.981,5.136-3.928.713-1.363.058-3.01-.6-4.4l-2-4.25c-.664-1.41-3.355-.6-4.758-.937C284.518,736.028,282.626,735.542,281.31,737.337Z" transform="translate(-262.821 -499.976)" fill="#2f2e41"/>
    <path id="Path_1840" data-name="Path 1840" d="M254.6,375.583l18.384,28.452s11.381,14.445,14.883,7.879-12.256-17.509-12.256-17.509L263.79,372.519Z" transform="translate(-250.722 -274.674)" fill="#ffb8b8"/>
    <path id="Path_1841" data-name="Path 1841" d="M257.474,238.711l-3.5-.875s-7,2.189-8.754,11.381-.438,45.961,1.751,46.4,10.81-6.4,12.189-4.952-3-5.991-1.684-9.931S257.474,238.711,257.474,238.711Z" transform="translate(-244.406 -191.205)" fill="#2f2e41"/>
    <g id="Group_13" data-name="Group 13" transform="translate(152.079 67.045)">
      <rect id="Rectangle_55" data-name="Rectangle 55" width="11.313" height="2.724" transform="translate(14.247)" fill="#00a8cc"/>
      <rect id="Rectangle_56" data-name="Rectangle 56" width="3.981" height="2.724" transform="translate(60.757)" fill="#00a8cc"/>
      <rect id="Rectangle_57" data-name="Rectangle 57" width="3.981" height="2.724" transform="translate(68.719)" fill="#00a8cc"/>
      <rect id="Rectangle_58" data-name="Rectangle 58" width="27.027" height="2.724" transform="translate(29.541)" fill="#00a8cc"/>
      <rect id="Rectangle_59" data-name="Rectangle 59" width="11.313" height="2.724" transform="translate(0 17.599)" fill="#00a8cc"/>
      <rect id="Rectangle_60" data-name="Rectangle 60" width="3.981" height="2.724" transform="translate(46.511 17.599)" fill="#00a8cc"/>
      <rect id="Rectangle_61" data-name="Rectangle 61" width="3.981" height="2.724" transform="translate(54.472 17.599)" fill="#00a8cc"/>
      <rect id="Rectangle_62" data-name="Rectangle 62" width="27.027" height="2.724" transform="translate(15.294 17.599)" fill="#00a8cc"/>
      <rect id="Rectangle_63" data-name="Rectangle 63" width="11.313" height="2.724" transform="translate(46.72 6.076)" fill="#00a8cc"/>
      <rect id="Rectangle_64" data-name="Rectangle 64" width="11.313" height="2.724" transform="translate(62.014 6.076)" fill="#00a8cc"/>
      <rect id="Rectangle_66" data-name="Rectangle 66" width="3.981" height="2.724" transform="translate(0 6.076)" fill="#00a8cc"/>
      <rect id="Rectangle_67" data-name="Rectangle 67" width="3.981" height="2.724" transform="translate(7.961 6.076)" fill="#00a8cc"/>
      <rect id="Rectangle_68" data-name="Rectangle 68" width="27.027" height="2.724" transform="translate(15.923 6.076)" fill="#00a8cc"/>
      <rect id="Rectangle_69" data-name="Rectangle 69" width="11.313" height="2.724" transform="translate(23.256 11.942)" fill="#00a8cc"/>
      <rect id="Rectangle_70" data-name="Rectangle 70" width="11.313" height="2.724" transform="translate(7.961 11.942)" fill="#00a8cc"/>
      <rect id="Rectangle_71" data-name="Rectangle 71" width="3.981" height="2.724" transform="translate(0 11.942)" fill="#00a8cc"/>
      <rect id="Rectangle_73" data-name="Rectangle 73" width="3.981" height="2.724" transform="translate(69.347 11.942)" fill="#00a8cc"/>
      <rect id="Rectangle_74" data-name="Rectangle 74" width="27.027" height="2.724" transform="translate(38.34 11.942)" fill="#00a8cc"/>
    </g>
  </g>
</svg>
