<svg xmlns="http://www.w3.org/2000/svg" width="18.945" height="21.314" viewBox="0 0 18.945 21.314">
  <path id="like" d="M19.448,10.618c-.157-.42,4.191-4.3,1.655-7.449-.593-.735-2.606,3.523-5.465,5.45-1.577,1.063-5.247,3.327-5.247,4.579v8.1c0,1.5,5.819,3.1,10.24,3.1,1.621,0,3.969-10.155,3.969-11.768s-5-1.591-5.153-2.013Zm-10.24.112a3.51,3.51,0,0,0-3.552,3.7v5.74a3.393,3.393,0,0,0,3.552,3.577c.778,0-1.184-.677-1.184-2.676V13.524C8.024,11.43,9.986,10.73,9.208,10.73Z" transform="translate(-5.656 -3.084)"/>
</svg>
