<svg xmlns="http://www.w3.org/2000/svg" width="22.163" height="24.933" viewBox="0 0 22.163 24.933">
  <path id="like-button" d="M21.79,11.9c-.184-.492,4.9-5.034,1.936-8.714-.694-.86-3.049,4.121-6.393,6.376C15.489,10.8,11.2,13.451,11.2,14.915v9.477c0,1.761,6.807,3.625,11.979,3.625,1.9,0,4.643-11.879,4.643-13.766S21.971,12.39,21.79,11.9Zm-11.979.132a4.106,4.106,0,0,0-4.155,4.326V23.07a3.969,3.969,0,0,0,4.155,4.185c.91,0-1.385-.792-1.385-3.13V15.3C8.426,12.847,10.721,12.029,9.811,12.029Z" transform="translate(-5.656 -3.084)" fill="#fff"/>
</svg>
