<svg xmlns="http://www.w3.org/2000/svg" width="31.535" height="31.535" viewBox="0 0 31.535 31.535">
  <path id="linkedin-white" d="M29.261,0H2.275A2.274,2.274,0,0,0,0,2.274V29.261a2.274,2.274,0,0,0,2.274,2.274H29.261a2.274,2.274,0,0,0,2.274-2.274V2.274A2.274,2.274,0,0,0,29.261,0ZM11.186,23.836H7.346V12.283h3.84ZM9.266,10.706H9.241a2,2,0,1,1,.051-3.992,2,2,0,1,1-.026,3.992ZM25.033,23.836h-3.84V17.656c0-1.553-.556-2.613-1.945-2.613a2.1,2.1,0,0,0-1.97,1.4,2.63,2.63,0,0,0-.126.937v6.452h-3.84s.05-10.469,0-11.553h3.84v1.636a3.812,3.812,0,0,1,3.461-1.907c2.527,0,4.421,1.651,4.421,5.2Zm0,0" transform="translate(0)" fill="#ebf9fa"/>
</svg>
