<svg xmlns="http://www.w3.org/2000/svg" width="22.757" height="17.334" viewBox="0 0 22.757 17.334">
  <g id="mail" transform="translate(0 -61)">
    <g id="Group_373" data-name="Group 373" transform="translate(1.143 61)">
      <g id="Group_372" data-name="Group 372">
        <path id="Path_2418" data-name="Path 2418" d="M45.335,61H26.578a1.977,1.977,0,0,0-.857.2L35.912,71.391,38.2,69.2h0l8-7.995A1.977,1.977,0,0,0,45.335,61Z" transform="translate(-25.721 -61)" fill="#e9f7f8"/>
      </g>
    </g>
    <g id="Group_375" data-name="Group 375" transform="translate(15.033 62.144)">
      <g id="Group_374" data-name="Group 374">
        <path id="Path_2419" data-name="Path 2419" d="M345.737,86.728l-7.524,7.524,7.524,7.524a1.977,1.977,0,0,0,.2-.857V87.585A1.977,1.977,0,0,0,345.737,86.728Z" transform="translate(-338.213 -86.728)" fill="#e9f7f8"/>
      </g>
    </g>
    <g id="Group_377" data-name="Group 377" transform="translate(0 62.143)">
      <g id="Group_376" data-name="Group 376">
        <path id="Path_2420" data-name="Path 2420" d="M.2,86.721a1.977,1.977,0,0,0-.2.857v13.334a1.977,1.977,0,0,0,.2.857l7.524-7.524Z" transform="translate(0 -86.721)" fill="#e9f7f8"/>
      </g>
    </g>
    <g id="Group_379" data-name="Group 379" transform="translate(1.143 70.61)">
      <g id="Group_378" data-name="Group 378">
        <path id="Path_2421" data-name="Path 2421" d="M38.661,277.211l-2.284,2.2a.666.666,0,0,1-.943,0l-2.2-2.2-7.524,7.524a1.977,1.977,0,0,0,.857.2H45.328a1.977,1.977,0,0,0,.857-.2Z" transform="translate(-25.714 -277.211)" fill="#e9f7f8"/>
      </g>
    </g>
  </g>
</svg>
