<svg xmlns="http://www.w3.org/2000/svg" width="29.817" height="26.31" viewBox="0 0 29.817 26.31">
  <g id="messages-icon" transform="translate(0 -30.11)">
    <g id="Group_444" data-name="Group 444" transform="translate(0 30.11)">
      <path id="Path_2952" data-name="Path 2952" d="M213.352,191.141h-13.86a.437.437,0,0,0,0,.874h13.86a.437.437,0,0,0,0-.874Z" transform="translate(-187.463 -181.763)" fill="#143057"/>
      <path id="Path_2953" data-name="Path 2953" d="M213.352,248.474h-13.86a.437.437,0,1,0,0,.874h13.86a.437.437,0,1,0,0-.874Z" transform="translate(-187.463 -235.757)" fill="#143057"/>
      <path id="Path_2954" data-name="Path 2954" d="M213.352,305.807h-13.86a.437.437,0,0,0,0,.874h13.86a.437.437,0,0,0,0-.874Z" transform="translate(-187.463 -289.752)" fill="#143057"/>
      <path id="Path_2955" data-name="Path 2955" d="M158.285,125.549H141.65a2.543,2.543,0,0,0-2.54,2.54v10.46a2.543,2.543,0,0,0,2.54,2.54H153.31a.4.4,0,0,1,.318.154l3.765,4.767a.75.75,0,0,0,.592.29.773.773,0,0,0,.254-.043.751.751,0,0,0,.511-.718v-4.493a2.552,2.552,0,0,0,2.076-2.5v-10.46a2.543,2.543,0,0,0-2.54-2.54Zm1.667,13a1.673,1.673,0,0,1-1.645,1.666.437.437,0,0,0-.431.437v4.56l-3.563-4.51a1.271,1.271,0,0,0-1-.486H141.65a1.669,1.669,0,0,1-1.667-1.667v-10.46a1.669,1.669,0,0,1,1.667-1.667h16.635a1.669,1.669,0,0,1,1.667,1.667Z" transform="translate(-131.009 -119.991)" fill="#143057"/>
      <path id="Path_2956" data-name="Path 2956" d="M6.435,42.89a1.165,1.165,0,0,0-.753.433l-3,3.8V43.314a.437.437,0,0,0-.431-.437A1.4,1.4,0,0,1,.874,41.484V32.378a1.4,1.4,0,0,1,1.394-1.394H16.749a1.4,1.4,0,0,1,1.394,1.394v1.685a.437.437,0,1,0,.874,0V32.378a2.271,2.271,0,0,0-2.268-2.268H2.268A2.271,2.271,0,0,0,0,32.378v9.106A2.279,2.279,0,0,0,1.808,43.7v3.865a.71.71,0,0,0,.483.678.731.731,0,0,0,.24.041.709.709,0,0,0,.559-.274l3.278-4.15a.3.3,0,0,1,.191-.11.437.437,0,0,0-.123-.865Z" transform="translate(0 -30.11)" fill="#143057"/>
    </g>
  </g>
</svg>
