<svg xmlns="http://www.w3.org/2000/svg" width="472.974" height="277.416" viewBox="0 0 472.974 277.416">
  <g id="my-network-friends" transform="translate(0.037)">
    <path id="Path_3104" data-name="Path 3104" d="M889.183,142.738h0c-11.31,0-20.479,10.176-20.479,22.728v15.948h4.9l2.84-5.909-.71,5.909h31.526l2.582-5.372-.645,5.372h3.549V168.891C912.75,154.447,902.2,142.738,889.183,142.738Z" transform="translate(-517.741 -134.966)" fill="#2f2e41"/>
    <ellipse id="Ellipse_873" data-name="Ellipse 873" cx="222.206" cy="14.915" rx="222.206" ry="14.915" transform="translate(28.524 247.586)" fill="#3f3d56"/>
    <path id="Path_3105" data-name="Path 3105" d="M277.549,581.673c-.1-.16-2.4-4.01-3.2-12.005-.733-7.335-.262-19.7,6.15-36.945,12.147-32.672-2.8-59.034-2.952-59.3l.737-.428a65.439,65.439,0,0,1,6.174,17.49,76.3,76.3,0,0,1-3.16,42.531c-12.127,32.617-3.111,48.057-3.019,48.209Z" transform="translate(-176.513 -324.49)" fill="#3f3d56"/>
    <circle id="Ellipse_874" data-name="Ellipse 874" cx="5.54" cy="5.54" r="5.54" transform="translate(90.746 135.938)" fill="#00a8cc"/>
    <circle id="Ellipse_875" data-name="Ellipse 875" cx="5.54" cy="5.54" r="5.54" transform="translate(108.218 156.393)" fill="#3f3d56"/>
    <circle id="Ellipse_876" data-name="Ellipse 876" cx="5.54" cy="5.54" r="5.54" transform="translate(96.286 170.029)" fill="#00a8cc"/>
    <circle id="Ellipse_877" data-name="Ellipse 877" cx="5.54" cy="5.54" r="5.54" transform="translate(110.775 181.535)" fill="#00a8cc"/>
    <circle id="Ellipse_878" data-name="Ellipse 878" cx="5.54" cy="5.54" r="5.54" transform="translate(92.025 199.433)" fill="#3f3d56"/>
    <path id="Path_3106" data-name="Path 3106" d="M288.871,696.364s-5.54-13.636,11.08-23.864Z" transform="translate(-184.489 -438.976)" fill="#3f3d56"/>
    <path id="Path_3107" data-name="Path 3107" d="M244.4,708.558s-2.521-14.5-22.035-14.377Z" transform="translate(-146.834 -451.418)" fill="#3f3d56"/>
    <path id="Path_3108" data-name="Path 3108" d="M890.7,208.278s6.392,14.915-2.131,17.9l8.523,28.125,14.489-.852,3.835-9.375-.852-14.063-1.278-9.375s-8.949,2.131-8.1-13.636Z" transform="translate(-529.138 -171.844)" fill="#ffb8b8"/>
    <path id="Path_3109" data-name="Path 3109" d="M834.331,250.931s-14.063-1.278-12.784,8.949,2.557,12.358,2.557,12.358l1.278,15.341-7.671,4.688h-7.244s-22.159,5.114-11.08,10.654,14.915-4.261,14.915-4.261,20.455,0,21.733-3.409S834.331,250.931,834.331,250.931Z" transform="translate(-476.183 -197.025)" fill="#ffb8b8"/>
    <path id="Path_3110" data-name="Path 3110" d="M949.565,239.556s13.21-4.688,14.063,5.54.852,11.08.852,11.08l2.557,14.489s5.114,12.784,5.114,16.619,3.835,15.767,3.835,15.767,5.114,16.619-.426,16.193-6.392-17.9-6.392-17.9l-11.506-23.011-3.409-14.063Z" transform="translate(-564.144 -189.911)" fill="#ffb8b8"/>
    <path id="Path_3111" data-name="Path 3111" d="M882.541,240.688h-3.409l-.426,17.9s-5.54,7.67,1.278,14.489l1.7,11.08,31.108-1.278,2.131-11.506s4.261-9.375-1.7-17.9L907.684,236H904.7s6.909,25.474-7.67,25.994C885.1,262.421,882.541,240.688,882.541,240.688Z" transform="translate(-522.263 -188.486)" fill="#00a8cc"/>
    <path id="Path_3112" data-name="Path 3112" d="M835.07,342.852l-2.557,8.523s-53.267,150-37.074,153.836,38.779,8.949,40.909,5.114,13.21-115.91,13.21-115.91-1.7,117.188,3.835,117.188,42.188.852,44.318-4.688S878.536,353.08,866.178,349.671L862.769,342Z" transform="translate(-473.939 -249.315)" fill="#2f2e41"/>
    <path id="Path_3113" data-name="Path 3113" d="M918.31,334l-33.665,1.278s-1.536,11.506,0,11.506c.426,0,35.37,2.983,34.943-2.131S918.31,334,918.31,334Z" transform="translate(-526.497 -244.724)" fill="#3f3d56"/>
    <path id="Path_3114" data-name="Path 3114" d="M426.352,459.649A48.162,48.162,0,0,1,399.1,503.043s0,0,0,0a46.9,46.9,0,0,1-4.492,1.888c-.243.094-.49.179-.741.26-.511.183-1.031.349-1.555.507q-1.617.5-3.281.882h0l-.03.009-.068.013c-.145.034-.294.068-.443.1q-1.24.275-2.506.473a47.78,47.78,0,0,1-7.781.631c-1.4,0-2.787-.06-4.155-.179a1.946,1.946,0,0,1-.222-.021,48.34,48.34,0,0,1-11.02-2.314c-.528-.179-1.057-.366-1.577-.567a48.157,48.157,0,1,1,65.127-45.073Z" transform="translate(-208.616 -289.194)" fill="#3f3d56"/>
    <path id="Path_3115" data-name="Path 3115" d="M429.639,522.93s11.294-4.921,16.6.277S432.035,526.695,429.639,522.93Z" transform="translate(-265.778 -351.934)" fill="#3f3d56"/>
    <path id="Path_3116" data-name="Path 3116" d="M435.963,461.926c-3.8-6.413-11.3-6.712-11.3-6.712s-7.317-.936-12.011,8.832c-4.375,9.1-10.413,17.894-.972,20.026l1.705-5.308,1.056,5.7a36.95,36.95,0,0,0,4.04.069c10.111-.326,19.74.1,19.43-3.533C437.494,476.179,439.615,468.1,435.963,461.926Z" transform="translate(-252.6 -314.27)" fill="#2f2e41"/>
    <path id="Path_3117" data-name="Path 3117" d="M445.438,629.075c.251-.081.5-.166.741-.26l-.055-.077-.686-.038-4.44-.239h0l-.746-.038-3.533-.192-7.692-.418-4.121-.222-.209-.013h-.051l-2.9-.158-.946-.051-.9,3.3a46.662,46.662,0,0,0,5.5.818,1.941,1.941,0,0,0,.222.021c1.368.119,2.757.179,4.155.179a47.781,47.781,0,0,0,7.781-.631q1.266-.2,2.506-.473c.149-.03.3-.064.443-.1l.068-.013.03-.008h0q1.662-.384,3.281-.882Z" transform="translate(-260.187 -413.078)" fill="#2f2e41"/>
    <path id="Path_3118" data-name="Path 3118" d="M430.811,500.2s1.711,11.294-1.711,12.663,6.845,7.187,6.845,7.187h5.818l3.765-7.872s-3.423-6.161-1.369-11.979S430.811,500.2,430.811,500.2Z" transform="translate(-265.068 -338.615)" fill="#a0616a"/>
    <path id="Path_3119" data-name="Path 3119" d="M445.73,571V530.96s-.435-4.112-3.882-3.043a6.491,6.491,0,0,0-1.023.426A11.821,11.821,0,0,0,439.2,529.4c-.2.149-.4.311-.605.486-.017.013-.034.03-.051.043-6.5,5.476-9.58,1.713-10.266,1.027-.251-.247-.908-.95-1.645-1.743v0c-.32-.341-.652-.7-.967-1.048-.976-1.053-1.837-1.994-1.837-1.994l-3.422,2.736.835,20.744.2,4.892v0l.064,1.521v.008l.533,13.27.081,2a36.385,36.385,0,0,0,3.524.929c.349.072.72.145,1.1.213,2.966.537,6.7.814,9.068-.46a8.424,8.424,0,0,1,1.5-.626,10.424,10.424,0,0,1,3.179-.439c.23,0,.456.013.682.026h0a15.378,15.378,0,0,1,3,.516Z" transform="translate(-260.479 -355.003)" fill="#3f3d56"/>
    <path id="Path_3120" data-name="Path 3120" d="M413.6,568.91a20.842,20.842,0,0,1-2.578,2.753c-.29.264-.58.52-.874.771-.06.051-.119.1-.179.149a48.333,48.333,0,0,1-11.02-2.314c-.528-.179-1.057-.366-1.577-.567a15.9,15.9,0,0,0,.771-2.57c2.357-11.045-4.5-27.81-5.092-30.5-.217-.967.584-2.31,1.866-3.737a43.644,43.644,0,0,1,9.771-7.555,7.054,7.054,0,0,1,4.538-.418h0a8.192,8.192,0,0,1,1.393.418v0c0,.064.051.55.132,1.381.043.456.094,1.01.158,1.658v0c.115,1.21.26,2.719.43,4.44v0c1.027,10.607,2.885,29.067,3.609,32.208C415.219,566.2,414.623,567.551,413.6,568.91Z" transform="translate(-244.76 -354.175)" fill="#d0cde1"/>
    <path id="Path_3121" data-name="Path 3121" d="M467.75,571c.251-.081.5-.166.741-.26a46.9,46.9,0,0,0,4.491-1.888c-2.19-6.4,4.283-26.749,6.136-33.047V535.8c.217-.737.371-1.283.439-1.585.686-3.081-9.754-5.987-10.1-6.673-.264-.52-4.5-1.044-6.5-1.261-.618-.068-1.023-.107-1.023-.107-.528.409-.933,1.585-1.249,3.294-.03.136-.055.281-.077.426-.226,1.321-.4,2.919-.541,4.713-.776,9.784-.511,25.245-1.219,31.611a12.965,12.965,0,0,0,.175,3.942,12.39,12.39,0,0,0,.3,1.249,14.615,14.615,0,0,0,.537,1.577q1.266-.2,2.506-.473c.149-.03.3-.064.443-.1l.068-.013.03-.008h0q1.662-.384,3.281-.882Z" transform="translate(-282.499 -355.003)" fill="#d0cde1"/>
    <ellipse id="Ellipse_879" data-name="Ellipse 879" cx="0.685" cy="1.369" rx="0.685" ry="1.369" transform="translate(182 155.594)" fill="#a0616a"/>
    <ellipse id="Ellipse_880" data-name="Ellipse 880" cx="0.685" cy="1.369" rx="0.685" ry="1.369" transform="translate(161.807 155.594)" fill="#a0616a"/>
    <path id="Path_3122" data-name="Path 3122" d="M473.316,576.991c.251-.081.5-.166.741-.26a46.885,46.885,0,0,0,4.492-1.888.016.016,0,0,0,0,.013.026.026,0,0,1,0-.017c2.557-13.5,5.267-27.942,6.128-33.043v-.008c.149-.886.243-1.487.268-1.756.341-3.422-8.216-3.422-8.216-3.422l-1.364,6.891-2.058,10.411-.707,3.575-3.737,18.891-.119.605-.277,1.4h0q1.662-.384,3.281-.882Z" transform="translate(-288.065 -360.994)" fill="#d0cde1"/>
    <path id="Path_3123" data-name="Path 3123" d="M408.171,580.786a48.346,48.346,0,0,1-11.02-2.314c-.268-1.036-.537-2.084-.805-3.136-3.328-13.061-6.46-26.881-6.46-29.472,0-2.143,1.5-3.69,3.234-4.764a18.361,18.361,0,0,1,5.322-2.08s1.091,4.538,2.659,11.084c.84,3.494,1.811,7.56,2.821,11.813v0c1.176,4.935,2.408,10.117,3.55,14.957q.275,1.176.545,2.318v.017a.042.042,0,0,1,0,.017l.1.422c.077.332.153.661.226.984.017.055.03.111.043.171A1.953,1.953,0,0,1,408.171,580.786Z" transform="translate(-242.965 -362.377)" fill="#d0cde1"/>
    <path id="Path_3124" data-name="Path 3124" d="M414.379,562.713l7.7,30.115S418.486,566.478,414.379,562.713Z" transform="translate(-257.021 -375.974)" opacity="0.2"/>
    <path id="Path_3125" data-name="Path 3125" d="M461.325,635.366l2.506-.486v.013Q462.591,635.168,461.325,635.366Z" transform="translate(-283.962 -417.388)" opacity="0.2"/>
    <path id="Path_3126" data-name="Path 3126" d="M474.645,552.78l-2.058,10.411-.707,3.575-3.733,18.891h0l-.115.605h0l-.273,1.4h0l-.03.008-.068.013-.443.085c.038-.477.085-.989.136-1.53.017-.2.034-.4.055-.618.8-8.706,2.51-23.744,5.19-30.043C473.218,554.093,473.9,553.1,474.645,552.78Z" transform="translate(-287.336 -370.273)" opacity="0.2"/>
    <circle id="Ellipse_881" data-name="Ellipse 881" cx="9.925" cy="9.925" r="9.925" transform="translate(162.662 147.209)" fill="#a0616a"/>
    <path id="Path_3127" data-name="Path 3127" d="M399.76,339.813l-7.419-3.886L382.1,337.517l-2.12,9.362,5.276-.2,1.474-3.439v3.383l2.435-.094,1.413-5.476.883,5.829,8.655-.176Z" transform="translate(-218.076 -192.776)" fill="#2f2e41"/>
    <path id="Path_3128" data-name="Path 3128" d="M141.351,316.648a48.15,48.15,0,0,1-20.071,39.115,47.415,47.415,0,0,1-5.314,3.324A48.28,48.28,0,0,1,83,363.715a47.124,47.124,0,0,1-7-2.08,48.158,48.158,0,1,1,65.353-44.987Z" transform="translate(-45.065 -207.131)" fill="#3f3d56"/>
    <circle id="Ellipse_882" data-name="Ellipse 882" cx="11.075" cy="11.075" r="11.075" transform="translate(34.02 84.228)" fill="#ffb8b8"/>
    <path id="Path_3129" data-name="Path 3129" d="M140.786,363.379s1.384,6.576,1.384,7.268,6.576,3.807,6.576,3.807l5.883-1.038,2.077-6.23s-3.461-5.191-3.461-7.268Z" transform="translate(-100.017 -259.598)" fill="#ffb8b8"/>
    <path id="Path_3130" data-name="Path 3130" d="M129.974,424.569a48.177,48.177,0,0,1-10.2-1.087c-.166-3.388-.277-7.121-.277-7.121l-3.375-9.793-7.006-20.314,14.425-11.011s3.571,5.817,8.761,4.087a7.161,7.161,0,0,0,5.08-6.69l17.071,6L151.5,402.568l-.166,1.338,1.406,14.949a47.916,47.916,0,0,1-22.769,5.715Z" transform="translate(-81.842 -266.898)" fill="#d0cde1"/>
    <path id="Path_3131" data-name="Path 3131" d="M124.893,318.957s3.516-7.618,10.256-5.86,10.549,4.4,10.842,7.032a37.627,37.627,0,0,1-.147,6.593s-.733-5.421-5.421-4.249-12.014.293-12.014.293l-1.172,10.549s-1.319-1.9-2.784-.733S120.205,321.3,124.893,318.957Z" transform="translate(-89.402 -232.577)" fill="#2f2e41"/>
    <path id="Path_3132" data-name="Path 3132" d="M94.135,434.458l2.229-18.793a14.065,14.065,0,0,1,4.155-11.075h5.19l3.805,12.805-1.99,7.509-2.506,9.447-.695,1.04s.695,1.036.345,1.385a5.846,5.846,0,0,0-.69,1.73s.072.494.2,1.232a47.719,47.719,0,0,1-10.044-5.28Z" transform="translate(-73.245 -285.233)" fill="#d0cde1"/>
    <path id="Path_3133" data-name="Path 3133" d="M218.765,414.4a48.084,48.084,0,0,1-8.51,7.815,16.078,16.078,0,0,1-1.185-2.629L203.7,409.247l-3.626-6.972.69-18,5.885,1.04a22.64,22.64,0,0,1,4.845,7.615l2.77,12.456,4.5,9Z" transform="translate(-134.04 -273.578)" fill="#d0cde1"/>
    <path id="Path_3134" data-name="Path 3134" d="M693.358,251.648a48.118,48.118,0,0,1-23.127,41.144c-.852.52-1.722,1.01-2.608,1.479-1.321.7-2.68,1.338-4.07,1.9v0c-.443.183-.886.358-1.334.524-.209.081-.422.162-.635.239a48.472,48.472,0,0,1-27.277,1.624,47.629,47.629,0,0,1-5.476-1.619h0a47.949,47.949,0,0,1-6.605-2.974q-.831-.447-1.636-.933c-.375-.222-.741-.447-1.108-.678a48.156,48.156,0,1,1,73.88-40.713Z" transform="translate(-361.844 -169.829)" fill="#3f3d56"/>
    <path id="Path_3135" data-name="Path 3135" d="M694.861,300s.285,7.411-1.425,9.122,8.551,7.7,8.551,7.7l5.986-9.407s-2.28-3.991-1.71-7.411Z" transform="translate(-417.051 -225.215)" fill="#a0616a"/>
    <circle id="Ellipse_883" data-name="Ellipse 883" cx="10.262" cy="10.262" r="10.262" transform="translate(272.536 58.399)" fill="#a0616a"/>
    <path id="Path_3136" data-name="Path 3136" d="M698.3,356.085q.1,1.189.188,2.378c-.209.081-.422.162-.635.239a48.471,48.471,0,0,1-27.277,1.624,47.6,47.6,0,0,1-5.476-1.619l0,.038a.059.059,0,0,1,0-.038,11.622,11.622,0,0,1,.486-2.561v0c.239-.878.563-1.892.933-3.013a23.357,23.357,0,0,0,.341-6.273c-.008-.188-.013-.379-.021-.562-.034-.8-.077-1.56-.119-2.237-.1-1.53-.2-2.616-.2-2.616l-6.273-16.82,15.149-11.063c.895,2.9,2.813,2.8,2.813,2.8,8.131.558,9.627-5.058,9.673-5.241v0l14.553,9.52-5.983,14.536s.243,2.463.588,6.222c.051.554.1,1.138.162,1.747C697.532,346.825,697.937,351.423,698.3,356.085Z" transform="translate(-398.114 -231.588)" fill="#d0cde1"/>
    <path id="Path_3137" data-name="Path 3137" d="M662.667,386.713l-.3,2.165-.072.545-1.266,9.247-.009.038v0l-.482,2.561,0,.038a.059.059,0,0,1,0-.038,47.951,47.951,0,0,1-6.605-2.974q-.831-.447-1.636-.933a29.649,29.649,0,0,1,1.253-3.239l.869-6.767.268-2.071,7.47,1.334Z" transform="translate(-393.552 -274.157)" fill="#a0616a"/>
    <path id="Path_3138" data-name="Path 3138" d="M661.662,341.811l-4.133.428s-2.708,20.1-1.853,20.1,10.547,2.28,10.832,1.71S661.662,341.811,661.662,341.811Z" transform="translate(-395.397 -249.206)" fill="#d0cde1"/>
    <path id="Path_3139" data-name="Path 3139" d="M685.337,252.9l-1.85-.673a13.154,13.154,0,0,1,9.249-3.532l-1.514-1.514a6.865,6.865,0,0,1,7.063,2.186,30.047,30.047,0,0,1,5.089,6.5h1.981l-.827,1.654,2.894,1.654-2.97-.3a8.344,8.344,0,0,1-.281,4.283l-.673,1.85s-2.691-5.381-2.691-6.054v1.682s-1.85-1.513-1.85-2.523l-1.009,1.177-.5-1.85-6.222,1.85,1.009-1.514-3.868.5,1.514-1.85s-4.372,2.186-4.541,4.036-2.354,4.2-2.354,4.2l-1.009-1.682S680.46,255.422,685.337,252.9Z" transform="translate(-410.456 -194.758)" fill="#2f2e41"/>
    <path id="Path_3140" data-name="Path 3140" d="M754.678,392.9c-.852.52-1.722,1.01-2.608,1.479-1.321.7-2.68,1.338-4.07,1.9v0c-.443.183-.886.358-1.334.524-.209.081-.422.162-.635.239l.447-2.616-2.028-12.891-.256-1.615,1.018-.192,9.528-1.8v11.689S754.768,390.885,754.678,392.9Z" transform="translate(-446.29 -269.934)" fill="#a0616a"/>
    <path id="Path_3141" data-name="Path 3141" d="M743.133,331.777l5.558.713s6.7,20.381,4.988,21.236-12.827,1.425-12.827,1.425Z" transform="translate(-444.372 -243.448)" fill="#d0cde1"/>
    <circle id="Ellipse_884" data-name="Ellipse 884" cx="14.063" cy="14.063" r="14.063" transform="translate(65.178 58.807)" fill="#00a8cc"/>
    <circle id="Ellipse_885" data-name="Ellipse 885" cx="14.063" cy="14.063" r="14.063" transform="translate(188.758 120.597)" fill="#00a8cc"/>
    <circle id="Ellipse_886" data-name="Ellipse 886" cx="14.063" cy="14.063" r="14.063" transform="translate(304.241 33.665)" fill="#00a8cc"/>
    <circle id="Ellipse_887" data-name="Ellipse 887" cx="11.974" cy="11.974" r="11.974" transform="translate(356.17 17.369)" fill="#ffb8b8"/>
    <path id="Path_3142" data-name="Path 3142" d="M899.568,151.605a10.741,10.741,0,0,0-8.474-4.324h-.4c-7.752,0-14.037,7.015-14.037,15.668h2.6l.419-3.193.615,3.193h15.406l1.291-2.7-.323,2.7h3.031q2.121,10.536-6.1,21.071h5.163l2.581-5.4-.645,5.4h9.842l1.936-12.427C912.473,162.287,907.065,154.4,899.568,151.605Z" transform="translate(-522.304 -137.573)" fill="#2f2e41"/>
    <circle id="Ellipse_888" data-name="Ellipse 888" cx="7.67" cy="7.67" r="7.67" transform="translate(372.424)" fill="#2f2e41"/>
  </g>
</svg>
