<svg xmlns="http://www.w3.org/2000/svg" width="394.455" height="219.664" viewBox="0 0 394.455 219.664">
  <g id="my-network-picutre" transform="translate(0)">
    <path id="Path_3143" data-name="Path 3143" d="M422.454,288.2a62.258,62.258,0,0,1-9.006,32.37c0,11.937-5.565,22.757-14.592,30.643a49.911,49.911,0,0,1-7.268,5.269c-.1.066-.21.128-.317.19l-.583.345-.183.107h0c-.824.465-1.665.914-2.524,1.334a57.123,57.123,0,0,1-25.433,5.862H102.881q-3.1,0-6.151-.248A72.8,72.8,0,0,1,75.676,359.2q-1.972-.779-3.869-1.676-.9-.424-1.79-.872c-.369-.186-.738-.379-1.1-.572a65.683,65.683,0,0,1-6.434-3.91,63.4,63.4,0,0,1-5.448-4.179c-11.734-10.068-18.992-24-18.992-39.376A62.237,62.237,0,0,1,28,274.585c0-34.184,27.322-61.9,61.03-61.9,1.034,0,2.069.031,3.1.086a3.152,3.152,0,0,1,.441.021,105.153,105.153,0,0,1,22.412-26.419c24.909-21.343,61.313-34.8,101.865-34.8,34.073,0,65.219,9.5,89.076,25.195A60.058,60.058,0,0,1,335.564,169c33.7,0,61.03,27.712,61.03,61.9a63.769,63.769,0,0,1-.345,6.475A62.065,62.065,0,0,1,422.454,288.2Z" transform="translate(-28 -144.656)" fill="#00a8cc" opacity="0.1"/>
    <path id="Path_3144" data-name="Path 3144" d="M508.468,328.837v-3.7a13.465,13.465,0,1,0-10.13,0v3.7a18.965,18.965,0,0,0-8.806,5.355,18.992,18.992,0,0,0-10.717-7.765v-3.7a13.465,13.465,0,1,0-10.13,0v3.7a18.965,18.965,0,0,0-8,4.538,18.992,18.992,0,0,0-10.141-6.951v-3.7a13.465,13.465,0,1,0-10.13,0v3.7a18.964,18.964,0,0,0-8.965,5.538,19,19,0,0,0-12.609-11.4v-3.7a13.465,13.465,0,1,0-10.13,0v3.7a18.964,18.964,0,0,0-13.792,16.471,18.834,18.834,0,0,0-5.713-2.679v-3.7a13.465,13.465,0,1,0-10.13,0v3.7a19.026,19.026,0,0,0-11.951,9.9,18.821,18.821,0,0,0-5.172-2.31v-3.7a13.465,13.465,0,1,0-10.13,0v3.7a18.719,18.719,0,0,0-4.9,2.145,19.012,19.012,0,0,0-11.865-9.73v-3.7a13.465,13.465,0,1,0-10.13,0v3.7a19,19,0,0,0-12.368,10.813,18.963,18.963,0,0,0-6.465-3.227v-3.7a13.465,13.465,0,1,0-10.13,0v3.7a18.964,18.964,0,0,0-13.9,18.275v85.511h37.908v-7.586H337.9v7.586h37.928v-7.586h27.239V421.934h23.447V427.8h28.274v2.414h29.653v2.414h37.928V347.112a18.964,18.964,0,0,0-13.9-18.274Z" transform="translate(-194.46 -234.371)" fill="#00a8cc" opacity="0.1"/>
    <path id="Path_3145" data-name="Path 3145" d="M379.213,169h31.525a58.714,58.714,0,0,1,58.716,58.716v79.549H320.5V227.713A58.713,58.713,0,0,1,379.213,169Z" transform="translate(-209.991 -110.728)" fill="#2f2e41"/>
    <path id="Path_3146" data-name="Path 3146" d="M389.213,178.28h24.629A58.714,58.714,0,0,1,472.559,237v73.147H330.5v-73.15A58.713,58.713,0,0,1,389.213,178.28Z" transform="translate(-216.543 -116.808)" opacity="0.2"/>
    <path id="Path_3147" data-name="Path 3147" d="M453.494,683.581v6.02a57.124,57.124,0,0,1-25.433,5.862H168.4q-3.1,0-6.151-.248a72.8,72.8,0,0,1-21.054-4.876q-1.972-.779-3.869-1.676-.9-.424-1.79-.872c-.369-.186-.738-.379-1.1-.572a65.689,65.689,0,0,1-6.434-3.9V666.965A9.965,9.965,0,0,1,137.965,657h286.61a9.965,9.965,0,0,1,6.551,2.472l18.964,16.619A9.954,9.954,0,0,1,453.494,683.581Z" transform="translate(-93.52 -475.806)" fill="#2f2e41"/>
    <path id="Path_3148" data-name="Path 3148" d="M359.956,351.589q-11.279.745-22.471,2.414a21.28,21.28,0,0,0-6.206,1.607,18.2,18.2,0,0,0-4.117,2.952,54.264,54.264,0,0,0-13.1,17.768c-1.921,4.189-3.3,8.62-5.11,12.844-6.444,15.085-18.133,27.422-24.936,42.349a37.038,37.038,0,0,0-3.207,10.116c-.51,3.634.069,7.875,3.055,10a12.347,12.347,0,0,0,4.7,1.724,566,566,0,0,0,62.606,10.223c-2.279-2.2-3.041-5.61-2.741-8.761a31.656,31.656,0,0,1,2.758-9.051q-17.864-3.941-35.639-8.275c-1.769-.431-3.893-1.241-4.11-3.048a4.505,4.505,0,0,1,.793-2.617,140.4,140.4,0,0,1,18.068-25.515c0,9.675-.479,20.6-.479,30.281H441.564a85.51,85.51,0,0,1-2.358-16.844c-.521-18.537,5.72-36.932,4.1-55.431a11.232,11.232,0,0,0-1.279-4.927c-1.541-2.524-4.617-3.569-7.444-4.431-10.841-3.3-21.909-6.631-33.239-6.372-3.369.079-6.724.472-10.072.869C381.068,350.665,370.207,350.91,359.956,351.589Z" transform="translate(-193.53 -273.73)" fill="#00a8cc"/>
    <path id="Path_3149" data-name="Path 3149" d="M358.811,672.731l8.137,26.043a.814.814,0,0,0,.776.569h34.918L394.367,669l-34.846,2.679a.814.814,0,0,0-.71,1.052Z" transform="translate(-244.723 -483.668)" fill="#656478"/>
    <path id="Path_3150" data-name="Path 3150" d="M484.958,364.3a15.1,15.1,0,0,1-5.01,1.486l-11.127,1.931c-2.165.376-4.445.8-6.113,2.234-3.414,2.921-2.676,8.3-1.641,12.668l2.069,8.772c1.559,6.593,3.151,13.265,6.348,19.237,5.582,10.423,15.823,17.93,27.084,21.547a30.286,30.286,0,0,0,12.475,1.672c8.227-.9,15.264-6.769,19.6-13.82s6.4-15.23,8.3-23.291c1.817-7.717,3.545-15.544,3.427-23.474a13.632,13.632,0,0,0-1.6-7.141c-2.886-4.6-9.427-4.941-14.789-4.093a5.486,5.486,0,0,1-2.5.028c-2.414-.752-2.469-4.065-3.5-6.365-1.955-4.338-7.755-5.107-12.5-4.713s-12.123.9-16.254,3.586C485.251,357.133,489.616,361.615,484.958,364.3Z" transform="translate(-311.177 -275.242)" fill="#fbbebe"/>
    <path id="Path_3151" data-name="Path 3151" d="M484.958,364.3a15.1,15.1,0,0,1-5.01,1.486l-11.127,1.931c-2.165.376-4.445.8-6.113,2.234-3.414,2.921-2.676,8.3-1.641,12.668l2.069,8.772c1.559,6.593,3.151,13.265,6.348,19.237,5.582,10.423,15.823,17.93,27.084,21.547a30.286,30.286,0,0,0,12.475,1.672c8.227-.9,15.264-6.769,19.6-13.82s6.4-15.23,8.3-23.291c1.817-7.717,3.545-15.544,3.427-23.474a13.632,13.632,0,0,0-1.6-7.141c-2.886-4.6-9.427-4.941-14.789-4.093a5.486,5.486,0,0,1-2.5.028c-2.414-.752-2.469-4.065-3.5-6.365-1.955-4.338-7.755-5.107-12.5-4.713s-12.123.9-16.254,3.586C485.251,357.133,489.616,361.615,484.958,364.3Z" transform="translate(-311.177 -275.242)" opacity="0.1"/>
    <path id="Path_3152" data-name="Path 3152" d="M464.465,398.869c1.683,3.531,2.945,7.275,4.979,10.616a52.455,52.455,0,0,0,5.751,7.324c5.341,6.041,10.751,12.13,17.361,16.73a76.867,76.867,0,0,1,19.092-37.584c2.848-3.058,6.413-6.072,10.592-5.958,2.593.072,4.986,1.359,7.144,2.789a25.559,25.559,0,0,1,6.431,5.748,23.2,23.2,0,0,1,4.138,12.868,68.276,68.276,0,0,1-1.2,13.644l-3.62,23.347c-.21,1.352-.5,2.845-1.607,3.655a5.058,5.058,0,0,1-2.069.745c-13.161,2.562-26.726.9-40.135.769-14.827-.141-30.063,1.548-44.107-3.169a4.29,4.29,0,0,1-1.993-1.124,4.16,4.16,0,0,1-.69-1.486c-3.272-10.592-.648-21.974,1.293-32.887a258.056,258.056,0,0,0,3.279-26.129c.059-.79,8.734.955,9.7,1.514C461.444,391.842,463.2,396.207,464.465,398.869Z" transform="translate(-299.894 -299.928)" fill="#00a8cc"/>
    <g id="Group_490" data-name="Group 490" transform="translate(37.228 92.32)" opacity="0.2">
      <path id="Path_3153" data-name="Path 3153" d="M181.956,658.885a4.1,4.1,0,0,1-.035.465q-1.972-.779-3.869-1.676a3.138,3.138,0,0,1-1.79-.872c-.369-.186-.738-.379-1.1-.572a4.72,4.72,0,0,1,.279-.5,3.208,3.208,0,0,1,5.837.179A5.817,5.817,0,0,1,181.956,658.885Z" transform="translate(-161.647 -566.118)" fill="#3f3d56"/>
      <path id="Path_3154" data-name="Path 3154" d="M181.383,641.765a5.82,5.82,0,0,1-.865,2.924,3.471,3.471,0,0,1-2.979,1.786l-.245-.017a3.137,3.137,0,0,1-1.79-.872,4.318,4.318,0,0,1-.824-1.076,6.051,6.051,0,0,1,.186-5.9,3.208,3.208,0,0,1,5.838.179A5.817,5.817,0,0,1,181.383,641.765Z" transform="translate(-160.887 -554.901)" fill="#3f3d56"/>
      <ellipse id="Ellipse_890" data-name="Ellipse 890" cx="4.831" cy="3.689" rx="4.831" ry="3.689" transform="translate(13.154 85.566) rotate(-88.19)" fill="#3f3d56"/>
      <ellipse id="Ellipse_891" data-name="Ellipse 891" cx="4.831" cy="3.689" rx="4.831" ry="3.689" transform="translate(13.342 79.663) rotate(-88.19)" fill="#3f3d56"/>
      <ellipse id="Ellipse_892" data-name="Ellipse 892" cx="4.831" cy="3.689" rx="4.831" ry="3.689" transform="translate(13.527 73.76) rotate(-88.19)" fill="#3f3d56"/>
      <path id="Path_3155" data-name="Path 3155" d="M140.809,427.453a17.121,17.121,0,0,1-1.31-2.069l9.744-1.286-10.5-.248a17.716,17.716,0,0,1,.107-14.013l13.833,7.737-12.672-9.944a17.681,17.681,0,1,1,28.563,20.688,17.629,17.629,0,0,1,1.914,3.286L157.7,437.755l13.561-4.079a17.7,17.7,0,0,1-3.379,16.516,17.681,17.681,0,1,1-27.767-.886,17.681,17.681,0,0,1,.69-21.854Z" transform="translate(-135.971 -399.247)" fill="#00a8cc"/>
      <path id="Path_3156" data-name="Path 3156" d="M172.011,515.075a17.606,17.606,0,0,1-4.138,10.81,17.681,17.681,0,1,1-27.757-.876C137.831,521.926,172.073,513.092,172.011,515.075Z" transform="translate(-135.968 -474.949)" opacity="0.1"/>
    </g>
    <circle id="Ellipse_893" data-name="Ellipse 893" cx="7.458" cy="7.458" r="7.458" transform="translate(15.995 41.221)" fill="#00a8cc" opacity="0.1"/>
    <circle id="Ellipse_894" data-name="Ellipse 894" cx="7.458" cy="7.458" r="7.458" transform="translate(47.079 0)" fill="#00a8cc" opacity="0.1"/>
    <circle id="Ellipse_895" data-name="Ellipse 895" cx="12.499" cy="12.499" r="12.499" transform="translate(39.511 23.278)" fill="#00a8cc" opacity="0.1"/>
    <circle id="Ellipse_896" data-name="Ellipse 896" cx="28.963" cy="28.963" r="28.963" transform="translate(158.264 34.997)" fill="#fbbebe"/>
    <path id="Path_3157" data-name="Path 3157" d="M464.38,148.439c-7.727.979-16.068,2.272-21.53,7.824-3.055,3.1-4.844,7.241-6.317,11.337-2.283,6.379-3.982,13.1-3.448,19.871.476,6.055,2.717,12.247.9,18.047-.834,2.669-2.472,5-3.745,7.486a39.648,39.648,0,0,0-3.876,14.961,26,26,0,0,0,.941,10.582c1.245,3.586,3.672,6.637,5.21,10.106,2.276,5.124,2.5,10.889,2.679,16.492s.324,11.168.455,16.751c.083,3.51.09,7.268-1.852,10.2,7.168-2.872,14.437-5.8,20.571-10.492s11.1-11.451,11.892-19.133c.641-6.227-1.462-12.365-3.276-18.357-4.482-14.827-7.379-30.632-4.117-45.773,1.176-5.451,4.034-11.537,9.52-12.54,3.348-.61,6.689.917,9.706,2.5,7.131,3.731,14.482,8.558,17.137,16.154,2.414,6.868.383,14.52-2.758,21.078s-7.417,12.589-9.858,19.443c-3.748,10.516-2.693,22.829,3.534,32.094s17.733,14.964,28.8,13.468c-.865-3.738-3.579-6.758-5.034-10.31-2.645-6.451-.862-13.871,1.983-20.237s6.727-12.3,8.506-19.057a57.01,57.01,0,0,0,1.4-14.651c0-7.744-.383-15.492-1.128-23.2a104.988,104.988,0,0,0-4.338-22.933,43.385,43.385,0,0,0-9.141-16.261c-4.572-4.858-10.523-8.151-16.368-11.378-3.5-1.924-7.068-3.872-10.992-4.593a59.555,59.555,0,0,0-9.53-1.431A8.061,8.061,0,0,0,464.38,148.439Z" transform="translate(-288.917 -141.312)" fill="#434175"/>
    <rect id="Rectangle_948" data-name="Rectangle 948" width="20.981" height="48.872" rx="2.9" transform="matrix(0.982, 0.19, -0.19, 0.982, 210.36, 40.705)" fill="#656478"/>
    <rect id="Rectangle_949" data-name="Rectangle 949" width="20.981" height="48.872" rx="2.9" transform="matrix(0.982, 0.19, -0.19, 0.982, 211.768, 40.978)" fill="#3f3d56"/>
    <ellipse id="Ellipse_897" data-name="Ellipse 897" cx="3.465" cy="1.431" rx="3.465" ry="1.431" transform="matrix(0.19, -0.982, 0.982, 0.19, 217.965, 56.493)" fill="#00a8cc"/>
    <path id="Path_3158" data-name="Path 3158" d="M647.646,317.082a9.085,9.085,0,0,0-6.237-5.572,37.487,37.487,0,0,0-10.272-2.534,1.933,1.933,0,0,0-1.61.441c-.772.907.452,2.141,1.51,2.689l8.42,4.362-7.762-.821c-1.128-.121-2.734.186-2.652,1.317.055.741.869,1.145,1.572,1.379,4.982,1.724,10.741,3.076,13.468,7.586-3.634-.345-7.348-.69-10.909.11a4.615,4.615,0,0,0-2.624,1.331,1.927,1.927,0,0,0,.093,2.679,2.706,2.706,0,0,0,1.786.345c2.527-.121,5.12-.624,7.548.1s4.582,3.265,3.745,5.651a13.625,13.625,0,0,0,6.686-.927c2.193-1.034,2.141-2.979,2.007-5.324C652.129,325.3,649.85,321.013,647.646,317.082Z" transform="translate(-421.801 -247.777)" fill="#fbbebe"/>
    <path id="Path_3159" data-name="Path 3159" d="M655.413,431.441a387.953,387.953,0,0,0-7.93-40.314c-1.724-6.9-3.683-13.909-3.189-21.005,7.124.907,13.506,1.579,20.071-1.331.107,3.727,2.81,6.9,3.793,10.5.659,2.414.41,4.969.669,7.455a45.689,45.689,0,0,0,1.7,7.313,89.728,89.728,0,0,1,2.286,36.8C666.719,431.585,661.492,432.382,655.413,431.441Z" transform="translate(-431.743 -286.972)" opacity="0.1"/>
    <path id="Path_3160" data-name="Path 3160" d="M652.413,431.441a387.969,387.969,0,0,0-7.931-40.314c-1.724-6.9-3.682-13.909-3.189-21.005,7.124.907,13.506,1.579,20.071-1.331.107,3.727,2.81,6.9,3.793,10.5.658,2.414.41,4.969.669,7.455a45.7,45.7,0,0,0,1.7,7.313,89.727,89.727,0,0,1,2.286,36.8C663.719,431.585,658.492,432.382,652.413,431.441Z" transform="translate(-429.777 -286.972)" fill="#00a8cc"/>
    <path id="Path_3161" data-name="Path 3161" d="M384.622,576.8,388,493.056a5.124,5.124,0,0,1,5.172-4.917l133.273,1.276a5.124,5.124,0,0,1,5.051,5.572l-7.041,80.225a5.124,5.124,0,0,1-5.017,4.676l-129.6,2.241a5.127,5.127,0,0,1-5.21-5.331Z" transform="translate(-261.655 -365.169)" fill="#3f3d56"/>
    <ellipse id="Ellipse_898" data-name="Ellipse 898" cx="5.862" cy="6.896" rx="5.862" ry="6.896" transform="translate(191.538 154.127)" fill="#00a8cc"/>
    <path id="Path_3162" data-name="Path 3162" d="M903.99,584.76l-.276,2.365-4.482,38.225c-11.685,8.148-20.774.317-20.854,0l-5.648-38.4-.321-2.186Z" transform="translate(-581.255 -428.475)" fill="#3f3d56"/>
    <path id="Path_3163" data-name="Path 3163" d="M903.99,584.76l-.276,2.365c-13.164,7.655-27.208,1.7-30.984-.179l-.321-2.186Z" transform="translate(-581.255 -428.475)" opacity="0.1"/>
    <path id="Path_3164" data-name="Path 3164" d="M870.5,578.74v3.448s17.413,10.123,33.1,0V578.74Z" transform="translate(-580.004 -424.53)" fill="#00a8cc"/>
    <path id="Path_3165" data-name="Path 3165" d="M872.524,565.53s-.507,2.327-2.024,2.531V571h33.1v-2.631a2.446,2.446,0,0,1-1.724-2.834Z" transform="translate(-580.004 -415.875)" fill="#00a8cc"/>
    <ellipse id="Ellipse_899" data-name="Ellipse 899" cx="14.93" cy="4.303" rx="14.93" ry="4.303" transform="translate(292.017 145.603)" fill="#00a8cc"/>
    <ellipse id="Ellipse_900" data-name="Ellipse 900" cx="14.93" cy="4.303" rx="14.93" ry="4.303" transform="translate(292.017 145.603)" opacity="0.1"/>
    <path id="Path_3166" data-name="Path 3166" d="M908.135,559.561c0,1.724-5.662,3.138-12.651,3.138h-.372c-4.693-.034-8.748-.69-10.817-1.669-.934-.441-1.465-.941-1.465-1.469,0-.876,1.448-1.669,3.793-2.238a39.13,39.13,0,0,1,8.872-.9C902.473,556.424,908.135,557.827,908.135,559.561Z" transform="translate(-588.082 -409.907)" opacity="0.1"/>
    <path id="Path_3167" data-name="Path 3167" d="M897.9,564.389c-4.693-.034-8.748-.69-10.816-1.669h0L889.4,559Z" transform="translate(-590.867 -411.597)" opacity="0.1"/>
    <path id="Path_3168" data-name="Path 3168" d="M879.241,566.21c-.179-.038-.417.024-.452.2a.437.437,0,0,0,.069.259,3.679,3.679,0,0,0,1.648,1.41.984.984,0,0,0,.376.121.345.345,0,0,0,.345-.179.39.39,0,0,0-.024-.321,1.425,1.425,0,0,0-.428-.469C880.313,566.872,879.841,566.31,879.241,566.21Z" transform="translate(-585.434 -416.314)" opacity="0.1"/>
    <circle id="Ellipse_901" data-name="Ellipse 901" cx="8.906" cy="8.906" r="8.906" transform="translate(298.544 168.94)" fill="#00a8cc"/>
    <path id="Path_3169" data-name="Path 3169" d="M171.95,515.85h4.176a8.62,8.62,0,0,1,8.62,8.62v12.809H163.33V524.47A8.62,8.62,0,0,1,171.95,515.85Z" transform="translate(-107.014 -337.983)" fill="#3f3d56"/>
    <path id="Path_3170" data-name="Path 3170" d="M171.95,515.85h4.176a8.62,8.62,0,0,1,8.62,8.62v12.809H163.33V524.47A8.62,8.62,0,0,1,171.95,515.85Z" transform="translate(-107.014 -337.983)" opacity="0.1"/>
    <circle id="Ellipse_902" data-name="Ellipse 902" cx="1.714" cy="1.714" r="1.714" transform="translate(64.454 179.153)" fill="#3f3d56"/>
    <circle id="Ellipse_903" data-name="Ellipse 903" cx="1.714" cy="1.714" r="1.714" transform="translate(64.454 177.011)" fill="#3f3d56"/>
    <circle id="Ellipse_904" data-name="Ellipse 904" cx="1.714" cy="1.714" r="1.714" transform="translate(64.454 174.867)" fill="#3f3d56"/>
    <circle id="Ellipse_905" data-name="Ellipse 905" cx="1.714" cy="1.714" r="1.714" transform="translate(64.454 172.726)" fill="#3f3d56"/>
    <circle id="Ellipse_906" data-name="Ellipse 906" cx="1.714" cy="1.714" r="1.714" transform="translate(64.454 170.584)" fill="#3f3d56"/>
    <circle id="Ellipse_907" data-name="Ellipse 907" cx="1.714" cy="1.714" r="1.714" transform="translate(64.454 168.443)" fill="#3f3d56"/>
    <circle id="Ellipse_908" data-name="Ellipse 908" cx="1.714" cy="1.714" r="1.714" transform="translate(64.454 166.302)" fill="#3f3d56"/>
    <circle id="Ellipse_909" data-name="Ellipse 909" cx="1.714" cy="1.714" r="1.714" transform="translate(67.026 167.157)" fill="#3f3d56"/>
    <circle id="Ellipse_910" data-name="Ellipse 910" cx="1.714" cy="1.714" r="1.714" transform="translate(68.74 166.302)" fill="#3f3d56"/>
    <circle id="Ellipse_911" data-name="Ellipse 911" cx="1.714" cy="1.714" r="1.714" transform="translate(70.453 165.443)" fill="#3f3d56"/>
    <circle id="Ellipse_912" data-name="Ellipse 912" cx="1.714" cy="1.714" r="1.714" transform="translate(64.454 164.161)" fill="#3f3d56"/>
    <circle id="Ellipse_913" data-name="Ellipse 913" cx="1.714" cy="1.714" r="1.714" transform="translate(64.454 162.019)" fill="#3f3d56"/>
    <circle id="Ellipse_914" data-name="Ellipse 914" cx="1.714" cy="1.714" r="1.714" transform="translate(64.454 159.875)" fill="#3f3d56"/>
    <circle id="Ellipse_915" data-name="Ellipse 915" cx="1.714" cy="1.714" r="1.714" transform="translate(64.454 157.734)" fill="#3f3d56"/>
    <path id="Path_3171" data-name="Path 3171" d="M213.167,566.414c-.424.062-.852.107-1.279.135a9.858,9.858,0,0,0,1.107-1.138,7.318,7.318,0,0,0-1.034-2.01,3.523,3.523,0,0,1-1.379.434c-.424.062-.852.107-1.279.138a21.38,21.38,0,0,0,1.638-1.724,7.272,7.272,0,1,0,2.279,4.138Z" transform="translate(-139.896 -412.49)" fill="#00a8cc"/>
    <path id="Path_3172" data-name="Path 3172" d="M244.143,601a3.339,3.339,0,0,1-1.441.479c-.424.062-.852.11-1.279.138a12.542,12.542,0,0,0,1.269-1.317,4.289,4.289,0,1,0,1.452.69Z" transform="translate(-165.145 -438.568)" fill="#00a8cc"/>
    <circle id="Ellipse_916" data-name="Ellipse 916" cx="1.714" cy="1.714" r="1.714" transform="translate(61.885 167.157)" fill="#3f3d56"/>
    <circle id="Ellipse_917" data-name="Ellipse 917" cx="1.714" cy="1.714" r="1.714" transform="translate(60.171 166.302)" fill="#3f3d56"/>
    <circle id="Ellipse_918" data-name="Ellipse 918" cx="1.714" cy="1.714" r="1.714" transform="translate(58.458 165.443)" fill="#3f3d56"/>
    <path id="Path_3173" data-name="Path 3173" d="M179.363,601a3.325,3.325,0,0,0,1.441.479c.424.062.852.11,1.279.138a12.219,12.219,0,0,1-1.269-1.317,4.289,4.289,0,1,1-1.452.69Z" transform="translate(-126.023 -438.568)" fill="#00a8cc"/>
    <path id="Path_3174" data-name="Path 3174" d="M171.95,519.58h4.176a8.62,8.62,0,0,1,8.62,8.62v11.334A1.462,1.462,0,0,1,183.284,541H164.792a1.462,1.462,0,0,1-1.462-1.462V528.2A8.62,8.62,0,0,1,171.95,519.58Z" transform="translate(-107.014 -340.427)" fill="#3f3d56"/>
    <g id="Group_491" data-name="Group 491" transform="translate(58.989 147.977)" opacity="0.1">
      <path id="Path_3175" data-name="Path 3175" d="M239.832,579.27a6.485,6.485,0,0,1-.552.524,5.587,5.587,0,0,0,.586-.052A3.079,3.079,0,0,0,239.832,579.27Z" transform="translate(-225.419 -572.855)"/>
      <path id="Path_3176" data-name="Path 3176" d="M231.82,570.617c.431-.028.855-.072,1.283-.134a4.138,4.138,0,0,0,1.114-.3,7.338,7.338,0,0,0-.6-.99,2.593,2.593,0,0,1-.69.293,9.925,9.925,0,0,1-1.107,1.134Z" transform="translate(-220.531 -566.251)"/>
      <path id="Path_3177" data-name="Path 3177" d="M199.835,568.711a7.268,7.268,0,0,1,11.206-6.124l.11-.117a7.275,7.275,0,1,0-9.593,10.941A7.241,7.241,0,0,1,199.835,568.711Z" transform="translate(-199.08 -560.665)"/>
    </g>
    <g id="Group_492" data-name="Group 492" transform="translate(72.167 161.592)" opacity="0.1">
      <path id="Path_3178" data-name="Path 3178" d="M249.22,604.053c.428-.028.855-.072,1.279-.134a3.345,3.345,0,0,0,1.441-.483,4.286,4.286,0,0,1,1.724,3.034,3.919,3.919,0,0,0,.024-.452,4.269,4.269,0,0,0-1.724-3.448,3.338,3.338,0,0,1-1.441.479l-.345.045A8.75,8.75,0,0,1,249.22,604.053Z" transform="translate(-245.11 -601.735)"/>
      <path id="Path_3179" data-name="Path 3179" d="M241.582,601.005a3.516,3.516,0,0,1,.428.031c.224-.238.445-.493.669-.741a4.276,4.276,0,0,0-5.379,4.138,2.934,2.934,0,0,0,.021.427A4.283,4.283,0,0,1,241.582,601.005Z" transform="translate(-237.3 -600.15)"/>
    </g>
    <g id="Group_493" data-name="Group 493" transform="translate(51.593 161.592)" opacity="0.1">
      <path id="Path_3180" data-name="Path 3180" d="M182.1,604.053c-.428-.028-.855-.072-1.279-.134a3.328,3.328,0,0,1-1.441-.483,4.286,4.286,0,0,0-1.724,3.034,3.926,3.926,0,0,1-.024-.452,4.269,4.269,0,0,1,1.724-3.448,3.323,3.323,0,0,0,1.441.479l.345.045A8.171,8.171,0,0,0,182.1,604.053Z" transform="translate(-177.63 -601.735)"/>
      <path id="Path_3181" data-name="Path 3181" d="M188.006,601.005a3.571,3.571,0,0,0-.431.031c-.221-.238-.441-.493-.665-.741a4.276,4.276,0,0,1,5.379,4.138,2.934,2.934,0,0,1-.021.427A4.282,4.282,0,0,0,188.006,601.005Z" transform="translate(-183.71 -600.15)"/>
    </g>
  </g>
</svg>
