<svg xmlns="http://www.w3.org/2000/svg" width="518" height="424.704" viewBox="0 0 518 424.704">
  <g id="newsletter-illustration" transform="translate(-217 -10892.357)">
    <path id="Path_572" data-name="Path 572" d="M259,102.1c0,189.365,259,13.862,259,156.9S402.042,450.062,259,450.062,0,402.042,0,259,259-87.268,259,102.1Z" transform="translate(217 10867)" fill="#03adf5"/>
    <g id="Group_33" data-name="Group 33" transform="translate(296.364 10895.215)">
      <circle id="Ellipse_39" data-name="Ellipse 39" cx="12.739" cy="12.739" r="12.739" transform="translate(284.066 9.937)" fill="#2f2e41"/>
      <path id="Path_399" data-name="Path 399" d="M828.435,116.189s-1.843,23.2-4.054,23.2,25.8-1.092,25.8-1.092-11.793-15.287-5.9-20.2S828.435,116.189,828.435,116.189Z" transform="translate(-540.632 -85.741)" fill="#9f616a"/>
      <path id="Path_400" data-name="Path 400" d="M828.435,116.189s-1.843,23.2-4.054,23.2,25.8-1.092,25.8-1.092-11.793-15.287-5.9-20.2S828.435,116.189,828.435,116.189Z" transform="translate(-540.632 -85.741)" opacity="0.1"/>
      <path id="Path_401" data-name="Path 401" d="M521.751,457.486a110.771,110.771,0,1,1,78.326-32.444,110.771,110.771,0,0,1-78.326,32.444Zm0-220.393A109.623,109.623,0,1,0,631.374,346.716,109.747,109.747,0,0,0,521.751,237.093Z" transform="translate(-285.479 -160.229)" fill="#3f3d56"/>
      <path id="Path_402" data-name="Path 402" d="M837.238,250.335l-12.877,3.685,17.986-.82a15.837,15.837,0,0,1,11.1,3.736c3.2,2.774,5.787,7.174,3.3,13.679a168.132,168.132,0,0,1-12.627,25.253l-4.974,9.566s-10.331,1.531-10.714-1.531,0-4.592,1.913-6.122a9.373,9.373,0,0,0,3.061-6.122c0-1.531-.383-3.061.765-3.826s1.53-1.913,1.53-4.209,6.638-12.386,6.638-12.386-13.907-4.832-19.9-.765-18.116,21.951-18.116,21.951a11.514,11.514,0,0,0-1.977,2.809,9.927,9.927,0,0,1-2.5,3.111c-1.113.978-.088,3.671.269,4.028.383.383,4.209,15.688,4.209,15.688s4.209,7.27-.383,7.653-8.8.765-9.183,0a20.8,20.8,0,0,0-1.53-3.061c-1.148-1.913,0-6.122,0-6.122s-11.1-14.157-7.653-22.958,10.714-28.7,10.714-28.7l11.1-4.592,20.279-7.27Z" transform="translate(-516.347 -169.12)" fill="#2f2e41"/>
      <path id="Path_403" data-name="Path 403" d="M678.391,118.673,662.7,115.612s-3.826-13.009-8.418-11.479,3.061,14.54,3.061,14.54l21.81,9.948Z" transform="translate(-434.791 -78.781)" fill="#a0616a"/>
      <path id="Path_404" data-name="Path 404" d="M955.688,176.335l6.887,8.8s9.948-.383,6.887,4.974-9.948,2.3-10.331,1.148-11.479-11.1-11.479-11.1Z" transform="translate(-616.814 -123.434)" fill="#a0616a"/>
      <path id="Path_405" data-name="Path 405" d="M772.516,139.174l-9.948,7.653-6.122-9.183L709,134.965v15.688c11.676-3.371,22.424-4.416,30.993,0,10.846,14.442,13.232,30.125,6.372,47.164l56-19.615c-16.783-6.25-24.574-15.31-22.192-27.549l19.514,6.887,11.861-8.8C800.937,141.6,785.151,137.125,772.516,139.174Z" transform="translate(-469.476 -97.894)" fill="#00a8cc"/>
      <ellipse id="Ellipse_40" data-name="Ellipse 40" cx="197.818" cy="14.922" rx="197.818" ry="14.922" transform="translate(0 285.379)" fill="#3f3d56"/>
      <ellipse id="Ellipse_41" data-name="Ellipse 41" cx="133.728" cy="9.948" rx="133.728" ry="9.948" transform="translate(8.8 289.971)" opacity="0.1"/>
      <path id="Path_406" data-name="Path 406" d="M1017.905,738.808c-1.275,11.169,5.592,21.125,5.592,21.125s8.933-8.153,10.208-19.322-5.592-21.125-5.592-21.125S1019.179,727.639,1017.905,738.808Z" transform="translate(-660.088 -458.761)" fill="#2f2e41"/>
      <path id="Path_407" data-name="Path 407" d="M1003.666,743.746c4.594,10.26,1.062,21.827,1.062,21.827s-10.981-5.068-15.575-15.328-1.062-21.827-1.062-21.827S999.071,733.486,1003.666,743.746Z" transform="translate(-640.978 -464.276)" fill="#00a8cc"/>
      <circle id="Ellipse_42" data-name="Ellipse 42" cx="42.876" cy="42.876" r="42.876" transform="translate(196.48 213.962)" fill="#f2f2f2"/>
      <path id="Path_408" data-name="Path 408" d="M353.224,471.812l-10.562,26.406-38.193.306-12.442.1-29.527.238-12.437.1-29.527.238-12.437.1-29.527.243-12.437.1L146.2,499.8l-3.855-7.89-5-10.219-2.762-5.656L133,471.812l9.48-30.023a14.474,14.474,0,0,1,13.8-10.113H328.751a14.477,14.477,0,0,1,13.631,9.622l1.1,3.095Z" transform="translate(-113.869 -281.074)" fill="#00a8cc"/>
      <rect id="Rectangle_516" data-name="Rectangle 516" width="220.224" height="55.452" transform="translate(19.131 190.738)" fill="#00a8cc"/>
      <rect id="Rectangle_517" data-name="Rectangle 517" width="220.224" height="55.452" transform="translate(19.131 190.738)" opacity="0.1"/>
      <rect id="Rectangle_518" data-name="Rectangle 518" width="6.496" height="6.496" transform="translate(236.108 114.569)" fill="#3f3d56"/>
      <rect id="Rectangle_519" data-name="Rectangle 519" width="6.496" height="6.496" transform="translate(253.648 253.59)" fill="#3f3d56"/>
      <rect id="Rectangle_520" data-name="Rectangle 520" width="141.007" height="177.447" transform="translate(58.476 119.178)" fill="#f2f2f2"/>
      <rect id="Rectangle_521" data-name="Rectangle 521" width="41.193" height="5.809" transform="translate(88.05 131.852)" fill="#3f3d56"/>
      <rect id="Rectangle_522" data-name="Rectangle 522" width="124.107" height="2.641" transform="translate(66.398 155.618)" fill="#e6e6e6"/>
      <rect id="Rectangle_523" data-name="Rectangle 523" width="124.107" height="2.641" transform="translate(66.398 164.068)" fill="#e6e6e6"/>
      <rect id="Rectangle_524" data-name="Rectangle 524" width="124.107" height="2.641" transform="translate(66.398 172.517)" fill="#e6e6e6"/>
      <rect id="Rectangle_525" data-name="Rectangle 525" width="124.107" height="2.641" transform="translate(66.398 180.967)" fill="#e6e6e6"/>
      <rect id="Rectangle_526" data-name="Rectangle 526" width="124.107" height="2.641" transform="translate(66.398 189.417)" fill="#e6e6e6"/>
      <rect id="Rectangle_527" data-name="Rectangle 527" width="124.107" height="2.641" transform="translate(66.398 197.867)" fill="#e6e6e6"/>
      <path id="Path_409" data-name="Path 409" d="M255.848,381.309a8.978,8.978,0,1,1,8.978-8.978,8.978,8.978,0,0,1-8.978,8.978Zm0-16.9a7.922,7.922,0,1,0,7.922,7.922,7.922,7.922,0,0,0-7.922-7.922Z" transform="translate(-184.169 -238.894)" fill="#00a8cc"/>
      <path id="Path_410" data-name="Path 410" d="M270.224,608.871H50V498.495l28.518,22.181,164.244-1.056,27.462-21.124Z" transform="translate(-30.869 -307.757)" fill="#3f3d56"/>
      <rect id="Rectangle_528" data-name="Rectangle 528" width="41.193" height="5.809" transform="translate(30.486 275.5)" fill="#f2f2f2"/>
      <path id="Path_411" data-name="Path 411" d="M211.764,714.774a4.592,4.592,0,1,1,4.592-4.592A4.592,4.592,0,0,1,211.764,714.774Zm0-8.418a3.826,3.826,0,1,0,3.826,3.826A3.826,3.826,0,0,0,211.764,706.356Z" transform="translate(-159.66 -450.183)" fill="#fff"/>
      <path id="Path_412" data-name="Path 412" d="M903.85,388.786s2.3,8.8,3.061,9.183,9.183,7.652,3.444,8.8-9.948.765-11.1-.383-.765-2.3-2.678-2.678-5.357-1.53-4.974-4.209,2.3-9.948,3.444-10.714S903.85,388.786,903.85,388.786Z" transform="translate(-582.193 -254.386)" fill="#2f2e41"/>
      <path id="Path_413" data-name="Path 413" d="M812.564,440.335s3.444,2.678,1.531,7.653-4.592,10.331-4.592,10.331-3.061,9.566-8.035,8.035a5.425,5.425,0,0,1-3.519-4.111,9.832,9.832,0,0,1,1.39-8l2.894-4.341,3.061-8.035Z" transform="translate(-524.196 -286.421)" fill="#2f2e41"/>
      <path id="Path_414" data-name="Path 414" d="M783.477,483.278c6.859,0,15.345-2.272,23.615-10.485,20.245-20.107,39.478-22.123,39.67-22.141l-.071-.762c-.195.018-19.7,2.063-40.138,22.36-10.5,10.43-21.341,11.069-28.585,9.767a35.723,35.723,0,0,1-13.392-5.4l-.452.617a36.519,36.519,0,0,0,13.678,5.527A31.95,31.95,0,0,0,783.477,483.278Z" transform="translate(-503.508 -292.32)" fill="#2f2e41"/>
      <ellipse id="Ellipse_43" data-name="Ellipse 43" cx="4.592" cy="4.592" rx="4.592" ry="4.592" transform="translate(328.352 165.202)" fill="#2f2e41"/>
      <ellipse id="Ellipse_44" data-name="Ellipse 44" cx="4.592" cy="4.592" rx="4.592" ry="4.592" transform="translate(295.829 186.629)" fill="#2f2e41"/>
      <ellipse id="Ellipse_45" data-name="Ellipse 45" cx="9.181" cy="9.181" rx="9.181" ry="9.181" transform="translate(286.591 20.708)" fill="#a0616a"/>
      <path id="Path_415" data-name="Path 415" d="M867.575,38.078a6.963,6.963,0,0,1-4.018,2.762c-2.81.752-.023,4.974-.023,4.974a2.6,2.6,0,0,1,.448-3.161C865.444,41.028,867.8,39.916,867.575,38.078Z" transform="translate(-564.12 -38.078)" fill="#2f2e41"/>
      <circle id="Ellipse_46" data-name="Ellipse 46" cx="3.55" cy="3.55" r="3.55" transform="translate(295.365 5.199)" fill="#2f2e41"/>
      <path id="Path_416" data-name="Path 416" d="M859.62,62.666a25.134,25.134,0,0,0-10.193-1.27l.34-2.483a19.477,19.477,0,0,0,10.193,1.27Z" transform="translate(-556.172 -50.941)" fill="#3f3d56"/>
      <path id="Path_417" data-name="Path 417" d="M833.89,76.044a20.9,20.9,0,0,1-12.062,8.292c-8.434,2.259-.069,14.933-.069,14.933s-3.042-4.609,1.346-9.49S834.554,81.561,833.89,76.044Z" transform="translate(-536.807 -61.518)" fill="#2f2e41"/>
      <path id="Path_418" data-name="Path 418" d="M860.037,75.086s3.484,8.287,7.31,9.07S870.883,98.034,864.9,100c0,0,4.362-7.676.634-12.825S859.45,77.955,860.037,75.086Z" transform="translate(-562.667 -60.926)" fill="#2f2e41"/>
    </g>
  </g>
</svg>
