<svg xmlns="http://www.w3.org/2000/svg" width="17.906" height="26.045" viewBox="0 0 17.906 26.045">
  <g id="notification-icon" transform="translate(-80)">
    <path id="Path_2957" data-name="Path 2957" d="M125.837,79.465H112.814a.814.814,0,0,1-.814-.814V71.325a7.325,7.325,0,1,1,14.651,0v7.325A.814.814,0,0,1,125.837,79.465Zm-12.209-1.628h11.395V71.325a5.7,5.7,0,1,0-11.395,0Z" transform="translate(-30.372 -60.744)" fill="#143057"/>
    <path id="Path_2958" data-name="Path 2958" d="M95.465,340.884H82.442a2.442,2.442,0,0,1,0-4.884H95.465a2.442,2.442,0,0,1,0,4.884Zm-13.023-3.256a.814.814,0,1,0,0,1.628H95.465a.814.814,0,1,0,0-1.628Z" transform="translate(0 -318.908)" fill="#143057"/>
    <path id="Path_2959" data-name="Path 2959" d="M240.814,4.884A.814.814,0,0,1,240,4.07V2.035a2.035,2.035,0,0,1,4.07,0,.814.814,0,0,1-1.628,0,.407.407,0,1,0-.814,0V4.07A.814.814,0,0,1,240.814,4.884Z" transform="translate(-151.861)" fill="#143057"/>
    <path id="Path_2960" data-name="Path 2960" d="M195.256,405.7a3.255,3.255,0,0,1-2.426-5.427.814.814,0,0,1,.606-.271h3.639a.814.814,0,0,1,.606.271,3.255,3.255,0,0,1-2.426,5.427Zm-1.41-4.07a1.628,1.628,0,1,0,2.82,0Z" transform="translate(-106.303 -379.652)" fill="#143057"/>
  </g>
</svg>
