<svg id="opportunity-icon" xmlns="http://www.w3.org/2000/svg" width="77.211" height="74.453" viewBox="0 0 77.211 74.453">
  <path id="Path_543" data-name="Path 543" d="M319.3,297.379a1.38,1.38,0,0,0,1.379,1.379h5.515a1.38,1.38,0,0,0,1.379-1.379V296H319.3Z" transform="translate(-269.785 -251.88)" fill="#f2ffff"/>
  <path id="Path_544" data-name="Path 544" d="M301.359,115.348a11.411,11.411,0,0,0-3.4-8.194,10.805,10.805,0,0,0-7.63-3.154h-.157a11.238,11.238,0,0,0-10.873,11.37,11.462,11.462,0,0,0,4.754,9.31,3.5,3.5,0,0,1,1.451,2.852v1.284h9.651v-1.284a3.506,3.506,0,0,1,1.453-2.854A11.461,11.461,0,0,0,301.359,115.348Zm-3.877-.318a1.38,1.38,0,0,1-1.327-1.006,6.233,6.233,0,0,0-3.592-4.072,1.379,1.379,0,0,1,1.044-2.552,9.01,9.01,0,0,1,5.2,5.877,1.38,1.38,0,0,1-1.327,1.753Z" transform="translate(-236.678 -92.97)" fill="#f2ffff"/>
  <path id="Path_545" data-name="Path 545" d="M147.56,334.06H129.4a4.144,4.144,0,0,1-3.9,2.758,1.382,1.382,0,0,1-.27-.027l-13.788-2.758a1.377,1.377,0,0,1-.414-.155l-9.651-5.515a1.379,1.379,0,0,1,1.368-2.394l9.457,5.4,13.411,2.682a1.381,1.381,0,0,0,1.265-1.374v-2.715a5.138,5.138,0,0,0-1.895-1.515l-13.667-4.1a1.381,1.381,0,0,1-.526-.3C107.062,320.7,96.247,312,91.03,312H80v22.06h4.136c.388,0,2.145.327,14.586,2.784,6.22,1.228,13.256,2.617,14.116,2.732H147.56a1.38,1.38,0,0,0,1.379-1.379v-2.758a1.38,1.38,0,0,0-1.379-1.379Z" transform="translate(-71.727 -265.122)" fill="#f2ffff"/>
  <path id="Path_546" data-name="Path 546" d="M32,296h5.515v27.575H32Z" transform="translate(-32 -251.88)" fill="#f2ffff"/>
  <path id="Path_547" data-name="Path 547" d="M315.709,264h-11.03a1.379,1.379,0,0,0,0,2.758h11.03a1.379,1.379,0,0,0,0-2.758Z" transform="translate(-256.543 -225.395)" fill="#f2ffff"/>
  <path id="Path_548" data-name="Path 548" d="M336.679,45.515a1.379,1.379,0,0,1-1.379-1.379V41.379a1.379,1.379,0,0,1,2.758,0v2.758A1.379,1.379,0,0,1,336.679,45.515Z" transform="translate(-283.028 -40)" fill="#f2ffff"/>
  <path id="Path_549" data-name="Path 549" d="M285.736,56.341a1.379,1.379,0,0,1-1.26-.818L283.354,53a1.379,1.379,0,1,1,2.519-1.122l1.122,2.519a1.38,1.38,0,0,1-1.258,1.94Z" transform="translate(-239.935 -49.157)" fill="#f2ffff"/>
  <path id="Path_550" data-name="Path 550" d="M243.6,86.956a1.374,1.374,0,0,1-.922-.355l-2.049-1.844a1.379,1.379,0,1,1,1.845-2.049l2.049,1.845a1.379,1.379,0,0,1-.923,2.4Z" transform="translate(-204.298 -75.055)" fill="#f2ffff"/>
  <path id="Path_551" data-name="Path 551" d="M217.563,132.055a1.376,1.376,0,0,1-.426-.068l-2.623-.852a1.379,1.379,0,1,1,.852-2.623l2.623.852a1.379,1.379,0,0,1-.426,2.69Z" transform="translate(-182.27 -113.201)" fill="#f2ffff"/>
  <path id="Path_552" data-name="Path 552" d="M209.371,182.753a1.379,1.379,0,0,1-.142-2.75l2.742-.288a1.379,1.379,0,1,1,.288,2.742l-2.743.288A1.385,1.385,0,0,1,209.371,182.753Z" transform="translate(-177.661 -155.629)" fill="#f2ffff"/>
  <path id="Path_553" data-name="Path 553" d="M450.808,182.753a1.4,1.4,0,0,1-.146-.008l-2.742-.288a1.379,1.379,0,1,1,.288-2.742l2.743.288a1.379,1.379,0,0,1-.143,2.75Z" transform="translate(-375.216 -155.629)" fill="#f2ffff"/>
  <path id="Path_554" data-name="Path 554" d="M443.189,132.055a1.379,1.379,0,0,1-.425-2.69l2.622-.852a1.379,1.379,0,0,1,.852,2.623l-2.623.852A1.376,1.376,0,0,1,443.189,132.055Z" transform="translate(-371.181 -113.201)" fill="#f2ffff"/>
  <path id="Path_555" data-name="Path 555" d="M419.909,86.954a1.379,1.379,0,0,1-.923-2.4l2.049-1.845a1.379,1.379,0,1,1,1.845,2.05L420.831,86.6A1.374,1.374,0,0,1,419.909,86.954Z" transform="translate(-351.913 -75.052)" fill="#f2ffff"/>
  <path id="Path_556" data-name="Path 556" d="M382.236,56.341a1.38,1.38,0,0,1-1.258-1.94l1.122-2.519A1.379,1.379,0,1,1,384.618,53L383.5,55.523A1.379,1.379,0,0,1,382.236,56.341Z" transform="translate(-320.735 -49.157)" fill="#f2ffff"/>
</svg>
