<svg xmlns="http://www.w3.org/2000/svg" xmlns:xlink="http://www.w3.org/1999/xlink" width="333.651" height="253.079" viewBox="0 0 333.651 253.079">
  <defs>
    <linearGradient id="linear-gradient" x1="0.5" y1="1" x2="0.5" gradientUnits="objectBoundingBox">
      <stop offset="0" stop-color="gray" stop-opacity="0.251"/>
      <stop offset="0.54" stop-color="gray" stop-opacity="0.122"/>
      <stop offset="1" stop-color="gray" stop-opacity="0.102"/>
    </linearGradient>
    <linearGradient id="linear-gradient-2" x1="0" y1="0.5" x2="1" y2="0.5" xlink:href="#linear-gradient"/>
    <linearGradient id="linear-gradient-3" x1="0" y1="0.5" x2="1" y2="0.5" xlink:href="#linear-gradient"/>
    <linearGradient id="linear-gradient-4" x1="0" y1="0.506" x2="1" y2="0.506" xlink:href="#linear-gradient"/>
  </defs>
  <g id="opportunities-illustration" transform="translate(-0.028 -0.042)">
    <ellipse id="Ellipse_620" data-name="Ellipse 620" cx="126.969" cy="9.18" rx="126.969" ry="9.18" transform="translate(38.405 234.76)" fill="#00a8cc" opacity="0.1"/>
    <path id="Path_1677" data-name="Path 1677" d="M358.422,218.408a25.192,25.192,0,0,1-5.034,5.659c-.537.444-1.095.876-1.661,1.279-7.253,5.209-16.965,7.5-26.4,8.982-18.317,2.879-37.016,3.44-55.636,3.989-15.677.467-31.363.934-47.045,1.244-22.416.45-44.835.584-67.216,0q-18.352-.482-36.674-1.7c-22.664-1.55-45.912-4.289-65.642-13.855a67.706,67.706,0,0,1-10.31-6.1c-5.358-3.9-9.77-8.628-12.129-14.223-3.8-8.993-1.79-19.1,2.546-27.917A111.057,111.057,0,0,1,42.8,160.488c2.1-2.937,4.24-5.857,6.278-8.821.213-.292.42-.6.625-.908.394-.584.785-1.168,1.168-1.752,1.6-2.461,3.116-5,4.505-7.592a85.915,85.915,0,0,0,3.752-7.948,69.308,69.308,0,0,0,2.628-7.592c.485-1.737.893-3.481,1.209-5.224,1.726-9.493.815-18.979-4.3-27.567-.05-.085-.1-.175-.155-.26l-.064-.1a80.438,80.438,0,0,0-4.894-6.838,49.4,49.4,0,0,1-5.472-8.348c-3.726-7.817-2.92-16.605-1.565-24.953,1.807-11.1,5.171-23.067,15.586-29.984,10.818-7.2,26.177-6.835,39.606-4.26,20.866,3.992,40.134,12.363,59.589,19.917s39.825,14.462,61.216,15.2c18.889.657,40.919-4.248,53.455-17.008,12.176-12.389,35.065-13.332,51.568-5.84,15.744,7.139,25.926,22.253,25.161,37.343-1.115,21.978-22.3,38.835-34.934,58.065-.566.858-1.118,1.737-1.644,2.628-4.964,8.389-8.021,18.022-4.359,26.755,4.911,11.7,19.493,17.408,31.792,24.758,5.939,3.548,11.358,7.481,14.862,12.667.131.187.251.371.371.555A22.986,22.986,0,0,1,358.422,218.408Z" transform="translate(-28.64 -16.61)" fill="#00a8cc" opacity="0.1"/>
    <path id="Path_1678" data-name="Path 1678" d="M85.134,255.959c1.6-2.461,3.116-5,4.505-7.592a85.919,85.919,0,0,0,3.755-7.942,69.31,69.31,0,0,0,2.628-7.592c.485-1.737.893-3.481,1.209-5.224,1.726-9.493.815-18.979-4.3-27.567-.05-.085-.1-.175-.155-.26l-4.964-6.941h36.835V217.3H134.9v73.362h13.221v-23.8h15.864v23.8H177.2V250.009h.66V228.857H190.41v21.152H219.5v31.728h16.2v-9.928h9.928v9.928h16.194V187.873h21.152V173H286.6v14.874h5.948v29.415h10.579V192.831h8.923V167.72h18.506v25.111h8.926v24.457h10.906V235.6c-4.964,8.389-8.021,18.022-4.359,26.755,4.911,11.7,19.493,17.408,31.792,24.758,5.939,3.551,11.358,7.484,14.862,12.669v25.593a25.191,25.191,0,0,1-5.034,5.65c-.537.444-1.095.876-1.661,1.279-7.253,5.209-16.965,7.5-26.4,8.982-18.317,2.879-37.016,3.44-55.636,3.989-15.677.467-31.363.934-47.045,1.244H189.686q-18.352-.482-36.674-1.7c-22.664-1.55-45.912-4.289-65.642-13.855a67.706,67.706,0,0,1-10.31-6.1V267.446c2.1-2.937,4.24-5.857,6.278-8.821Z" transform="translate(-62.902 -123.568)" fill="#00a8cc" opacity="0.3"/>
    <path id="Path_1679" data-name="Path 1679" d="M143.2,372.79v5.224H142C142.473,376.276,142.876,374.533,143.2,372.79Z" transform="translate(-108.88 -268.759)" fill="#fff" opacity="0.4"/>
    <rect id="Rectangle_727" data-name="Rectangle 727" width="13.881" height="7.933" transform="translate(65.385 109.254) rotate(180)" fill="#fff" opacity="0.4"/>
    <path id="Path_1680" data-name="Path 1680" d="M127.692,416.72v7.93H120.1a85.919,85.919,0,0,0,3.767-7.93Z" transform="translate(-93.375 -299.862)" fill="#fff" opacity="0.4"/>
    <rect id="Rectangle_728" data-name="Rectangle 728" width="13.881" height="7.933" transform="translate(65.385 124.788) rotate(180)" fill="#fff" opacity="0.4"/>
    <path id="Path_1681" data-name="Path 1681" d="M71.716,453.3H83.8v7.933H69.92v-5.265Z" transform="translate(-49.484 -320.911)" fill="#fff" opacity="0.4"/>
    <rect id="Rectangle_729" data-name="Rectangle 729" width="13.881" height="7.933" transform="translate(65.385 140.322) rotate(180)" fill="#fff" opacity="0.4"/>
    <rect id="Rectangle_730" data-name="Rectangle 730" width="13.881" height="7.933" transform="translate(20.436 147.925)" fill="#fff" opacity="0.4"/>
    <rect id="Rectangle_731" data-name="Rectangle 731" width="13.881" height="7.933" transform="translate(65.385 155.856) rotate(180)" fill="#fff" opacity="0.4"/>
    <rect id="Rectangle_732" data-name="Rectangle 732" width="13.881" height="7.933" transform="translate(20.436 163.459)" fill="#fff" opacity="0.4"/>
    <rect id="Rectangle_733" data-name="Rectangle 733" width="13.881" height="7.933" transform="translate(65.385 171.39) rotate(180)" fill="#fff" opacity="0.4"/>
    <rect id="Rectangle_734" data-name="Rectangle 734" width="13.881" height="7.933" transform="translate(20.436 178.993)" fill="#fff" opacity="0.4"/>
    <rect id="Rectangle_735" data-name="Rectangle 735" width="13.881" height="7.933" transform="translate(65.385 186.924) rotate(180)" fill="#fff" opacity="0.4"/>
    <rect id="Rectangle_736" data-name="Rectangle 736" width="13.881" height="7.933" transform="translate(20.436 194.527)" fill="#fff" opacity="0.4"/>
    <rect id="Rectangle_737" data-name="Rectangle 737" width="13.881" height="7.933" transform="translate(65.385 202.458) rotate(180)" fill="#fff" opacity="0.4"/>
    <rect id="Rectangle_738" data-name="Rectangle 738" width="32.39" height="3.965" transform="translate(76.953 175.025)" fill="#fff" opacity="0.4"/>
    <rect id="Rectangle_739" data-name="Rectangle 739" width="32.39" height="3.965" transform="translate(76.953 180.976)" fill="#fff" opacity="0.4"/>
    <rect id="Rectangle_740" data-name="Rectangle 740" width="32.39" height="3.965" transform="translate(76.953 186.924)" fill="#fff" opacity="0.4"/>
    <rect id="Rectangle_741" data-name="Rectangle 741" width="32.39" height="3.965" transform="translate(161.563 177.011)" fill="#fff" opacity="0.4"/>
    <rect id="Rectangle_742" data-name="Rectangle 742" width="32.39" height="3.965" transform="translate(161.563 182.958)" fill="#fff" opacity="0.4"/>
    <rect id="Rectangle_743" data-name="Rectangle 743" width="32.39" height="3.965" transform="translate(161.563 188.906)" fill="#fff" opacity="0.4"/>
    <rect id="Rectangle_744" data-name="Rectangle 744" width="32.39" height="3.965" transform="translate(76.953 192.874)" fill="#fff" opacity="0.4"/>
    <rect id="Rectangle_745" data-name="Rectangle 745" width="32.39" height="3.965" transform="translate(76.953 198.822)" fill="#fff" opacity="0.4"/>
    <rect id="Rectangle_746" data-name="Rectangle 746" width="32.39" height="3.965" transform="translate(76.953 204.773)" fill="#fff" opacity="0.4"/>
    <rect id="Rectangle_747" data-name="Rectangle 747" width="8.923" height="11.569" transform="translate(121.239 134.044)" fill="#fff" opacity="0.4"/>
    <rect id="Rectangle_748" data-name="Rectangle 748" width="8.923" height="11.569" transform="translate(149.665 145.61) rotate(180)" fill="#fff" opacity="0.4"/>
    <rect id="Rectangle_749" data-name="Rectangle 749" width="8.923" height="11.569" transform="translate(121.239 152.551)" fill="#fff" opacity="0.4"/>
    <rect id="Rectangle_750" data-name="Rectangle 750" width="8.923" height="11.569" transform="translate(149.665 164.119) rotate(180)" fill="#fff" opacity="0.4"/>
    <rect id="Rectangle_751" data-name="Rectangle 751" width="8.923" height="11.569" transform="translate(121.239 171.06)" fill="#fff" opacity="0.4"/>
    <rect id="Rectangle_752" data-name="Rectangle 752" width="8.923" height="11.569" transform="translate(149.665 182.628) rotate(180)" fill="#fff" opacity="0.4"/>
    <rect id="Rectangle_753" data-name="Rectangle 753" width="8.923" height="11.569" transform="translate(121.239 189.569)" fill="#fff" opacity="0.4"/>
    <rect id="Rectangle_754" data-name="Rectangle 754" width="8.923" height="11.569" transform="translate(149.665 201.138) rotate(180)" fill="#fff" opacity="0.4"/>
    <rect id="Rectangle_755" data-name="Rectangle 755" width="11.899" height="15.204" transform="translate(198.909 71.909)" fill="#fff" opacity="0.4"/>
    <rect id="Rectangle_756" data-name="Rectangle 756" width="11.899" height="15.204" transform="translate(198.909 93.72)" fill="#fff" opacity="0.4"/>
    <rect id="Rectangle_757" data-name="Rectangle 757" width="11.899" height="15.204" transform="translate(198.909 115.535)" fill="#fff" opacity="0.4"/>
    <rect id="Rectangle_758" data-name="Rectangle 758" width="11.899" height="15.204" transform="translate(198.909 137.35)" fill="#fff" opacity="0.4"/>
    <rect id="Rectangle_759" data-name="Rectangle 759" width="11.899" height="15.204" transform="translate(198.909 159.161)" fill="#fff" opacity="0.4"/>
    <rect id="Rectangle_760" data-name="Rectangle 760" width="11.899" height="15.204" transform="translate(198.909 180.976)" fill="#fff" opacity="0.4"/>
    <rect id="Rectangle_761" data-name="Rectangle 761" width="44.289" height="12.888" transform="translate(236.424 102.977)" fill="#fff" opacity="0.4"/>
    <rect id="Rectangle_762" data-name="Rectangle 762" width="44.289" height="12.888" transform="translate(236.587 130.739)" fill="#fff" opacity="0.4"/>
    <rect id="Rectangle_763" data-name="Rectangle 763" width="44.289" height="12.888" transform="translate(236.754 158.501)" fill="#fff" opacity="0.4"/>
    <rect id="Rectangle_764" data-name="Rectangle 764" width="44.289" height="12.888" transform="translate(236.917 186.264)" fill="#fff" opacity="0.4"/>
    <path id="Path_1682" data-name="Path 1682" d="M131.015,277.49v.26c-.05-.085-.1-.175-.155-.26Z" transform="translate(-100.993 -201.286)" fill="#fff" opacity="0.4"/>
    <path id="Path_1683" data-name="Path 1683" d="M1121.962,589.3v4.771H1107.1V576.64C1113.039,580.182,1118.458,584.115,1121.962,589.3Z" transform="translate(-792.181 -413.087)" fill="#fff" opacity="0.4"/>
    <path id="Path_1684" data-name="Path 1684" d="M1121.941,665.74v12.229a25.19,25.19,0,0,1-5.034,5.659c-.537.444-1.095.876-1.661,1.279h-8.176V665.74Z" transform="translate(-792.16 -476.171)" fill="#fff" opacity="0.4"/>
    <path id="Path_1685" data-name="Path 1685" d="M320.416,213.953h-2.275a1.591,1.591,0,0,0,0-3.183H299.719a1.591,1.591,0,1,0,0,3.183h2.275a1.594,1.594,0,0,0,0,3.186h-3.183a1.591,1.591,0,0,0,0,3.183H317.23a1.591,1.591,0,0,0,0-3.183h3.186a1.594,1.594,0,0,0,0-3.186Z" transform="translate(-218.777 -154.048)" fill="#00a8cc" opacity="0.1"/>
    <path id="Path_1686" data-name="Path 1686" d="M598.852,350.913h-2.275a1.591,1.591,0,0,0,0-3.183H578.155a1.591,1.591,0,1,0,0,3.183h2.269a1.594,1.594,0,0,0,0,3.186h-3.183a1.591,1.591,0,1,0,0,3.183h18.425a1.591,1.591,0,0,0,0-3.183h3.186a1.594,1.594,0,0,0,0-3.186Z" transform="translate(-415.909 -251.017)" fill="#00a8cc" opacity="0.1"/>
    <path id="Path_1687" data-name="Path 1687" d="M1073.294,172.073h-2.275a1.591,1.591,0,0,0,0-3.183H1052.6a1.591,1.591,0,0,0,0,3.183h2.275a1.591,1.591,0,0,0,0,3.183h-3.183a1.594,1.594,0,0,0,0,3.186h18.419a1.594,1.594,0,1,0,0-3.186h3.186a1.591,1.591,0,0,0,0-3.183Z" transform="translate(-751.869 -124.396)" fill="#00a8cc" opacity="0.1"/>
    <path id="Path_1688" data-name="Path 1688" d="M869.151,375.206l.018-.026-.07-.047-.143-.1a.1.1,0,0,1,.026.023.584.584,0,0,0-.768.164l-.088.12h0l-4.088,5.869-.715,1.031c-2.149-.648-5.641,2.079-7.414,3.641l-.31.277c-.14-.315-.222-.514-.222-.514-.088.958-3.478,2.4-4.269,2.92a2.9,2.9,0,0,1-1.168.4c.111-3.653-2.71-7.5-2.71-7.5l-6.894-8.783a7.749,7.749,0,0,1,.7-4.657c.055-.114.117-.228.181-.342h.33a9.651,9.651,0,0,0,1.679-.149,9.2,9.2,0,0,0,7.571-8.476,1.5,1.5,0,0,0,1.185-1.565,1.167,1.167,0,0,0,0-.426h0a1.576,1.576,0,0,0-.079-.26h0a7.891,7.891,0,0,0-.92-1.358,4.185,4.185,0,0,1-.657-2.234,8.825,8.825,0,0,1,.321-2.044,3.506,3.506,0,0,0,.2-1.238v-.085a1.786,1.786,0,0,0-.015-.33,1.559,1.559,0,0,0-.055-.231h0a2.191,2.191,0,0,0-.923-1.127c-1.092-.712-2.491-.724-3.717-1.168-1.781-.651-3.39-2.26-5.256-1.872a8.832,8.832,0,0,0-2.675,1.539,6.467,6.467,0,0,1-3.227.981,21.539,21.539,0,0,0-2.879,0,3.005,3.005,0,0,0-.5.134,7.425,7.425,0,0,0-2.5-.394,4.208,4.208,0,0,0-2.359.651c-1.279.891-1.617,2.628-1.6,4.173a.158.158,0,0,0,0,.038v.292c0,.742.073,1.495.088,2.237a6.808,6.808,0,0,1-.292,2.044c-.584,1.834-2.275,3.235-2.613,5.136a4.359,4.359,0,0,0-.058.993,10.431,10.431,0,0,0,.639,3.194,23.844,23.844,0,0,1,1.185,6.681,11.02,11.02,0,0,1-.815,4.05,6.028,6.028,0,0,1-.584,1.072c-.076.105-.155.21-.24.31l-.032.038c-.073.085-.152.164-.231.239l-.064.061a2.912,2.912,0,0,1-.236.187l-.079.058a2.5,2.5,0,0,1-.345.2l.584-.035a2.781,2.781,0,0,1-.584.374l3.1-.181a.6.6,0,0,1,.015.1,1.572,1.572,0,0,1-.044.228,1.833,1.833,0,0,1-.076.213.291.291,0,0,1,0,.029,1.783,1.783,0,0,1-.239.388l-.026.029a1.657,1.657,0,0,1-.155.166h0a1.54,1.54,0,0,1-.169.131l-.038.029a1.817,1.817,0,0,1-.193.108h0a1.64,1.64,0,0,1-.2.076l-.053.015a1.281,1.281,0,0,1-.216.041l.292-.032c.2-.023.391-.05.584-.082h.058a1.562,1.562,0,0,1-.934.464,8.555,8.555,0,0,0,1.965-.388c.4,2.713,1.3,10.979.806,12.506-.529,1.626.82,13.551.82,13.551s.184.914.505,2.278c-.829,1.959-1.775,4.126-2.251,5-.952,1.752-.485,10.646,2.8,14.6,0,0,1.361,1.918,1,2.628a3.072,3.072,0,0,0,.061,1.921l.52,11.516a29.789,29.789,0,0,1-.242,3.518c-1.4,1.737-3.562,4.269-4.578,4.672-1.574.639-13.312,14.892-13.312,14.892s.094.172.277.453l-.33.383-2.251,2.61-.178.207c-.423-.079-3.235-.584-5.472-.753l-.219-.015v-.038a8.293,8.293,0,0,0-2.359.061h-.017a.768.768,0,0,0-.388.2c-.762.931-1.168,15.592-1.168,15.592s.812,7.323,3.335,7.744a1.46,1.46,0,0,0,.409.079h0a1.118,1.118,0,0,0,.14,0,3.467,3.467,0,0,0,3-1.883,3.059,3.059,0,0,0,.251-.677,5.44,5.44,0,0,1,.5-3.11c.791-1.8,2.26-4.946,2.26-4.946s2.683-2.824,2.2-4.193l.257-.371c1.01-1.437,3.046-4.275,4.692-6.17l.321-.365a8.132,8.132,0,0,0,1.872.543,6.816,6.816,0,0,0,3.463-3.212,19.119,19.119,0,0,1,3.632-4.21c-.035.274-.052.429-.052.429l-.058,14.015a9.84,9.84,0,0,0,1.726.949v.35a45.189,45.189,0,0,1-.359,5.977l-.052.31c-.207-.149-.385-.2-.5-.082-.517.523-.838,3.869-.876,5.411v.088h0c-.035.636-.2,1.4-.2,2.073-.017.984.292,1.813,1.883,1.883,1.977.082,10.48.213,15.032.292a10.1,10.1,0,0,0,6.716-2.38,3.59,3.59,0,0,0,1.495-2.26c.041-.584-.272-1.13-1.142-1.609a.342.342,0,0,1-.018.058c-.114-.061-.237-.123-.371-.181l-4.38-.686-7.446-3.8s-.044-2.3-.937-1.918a2.482,2.482,0,0,0-.756.292c-.044-.088-.091-.175-.134-.269a8.624,8.624,0,0,1-.92-3.883,2.639,2.639,0,0,1,.018-.371,6.729,6.729,0,0,0,.619-.634s-.058-5.235.526-6.225,2.409-11,2.409-11a4.756,4.756,0,0,1,1.232-2.967c1.174-1.107.762-4.3.762-4.3s1.641-.876,2.17-3.723,2.231-9.075,2.231-9.075,3.521-9.192,3.288-15.008a42.812,42.812,0,0,1,.35-8.841l.733-13.516v-.21c.292.225.488.4.488.4v-.146l.169.146s.374-6.132.248-8.564c2.044-.7,5.18-1.845,5.355-2.429.266-.876,3.8-3.621,3.8-3.621a.647.647,0,0,1-.213-.082c.111-.05.225-.111.347-.175,2.307-1.238,6.6-4.85,5.875-7.06l4.689-6.745A1.148,1.148,0,0,0,869.151,375.206Zm-38.2-6.558a2.693,2.693,0,0,0-.342.026,25.927,25.927,0,0,0-.876-3.553,23.593,23.593,0,0,1-1.215-5.568V359.3a6.692,6.692,0,0,1,.2-1.486c.111.207.236.412.365.6a17.182,17.182,0,0,1,2.088,3.486,9.627,9.627,0,0,0,.654,1.752,1.64,1.64,0,0,0,1.539.891,1.209,1.209,0,0,0,.584-.266,24.666,24.666,0,0,1-2.993,4.362Z" transform="translate(-574.163 -249.13)" fill="url(#linear-gradient)"/>
    <path id="Path_1689" data-name="Path 1689" d="M991.115,485.881a3.083,3.083,0,0,1-1.107.42c-1.46.041-2.628-3.869-2.628-3.869s.412-.418,1.066-1c1.936-1.72,6-4.9,7.9-3.121C998.479,480.3,993.6,484.535,991.115,485.881Z" transform="translate(-707.418 -343.098)" fill="#ecb4b6"/>
    <path id="Path_1690" data-name="Path 1690" d="M902.16,804.973l-5.329,5.752s-4.932.055-3.965-2.666a10.388,10.388,0,0,0,.409-1.807,44.325,44.325,0,0,0,.347-5.84c0-1.276-.02-2.169-.02-2.169s7.764-3.4,6.97.14a6.61,6.61,0,0,0-.163,1.375,8.448,8.448,0,0,0,.876,3.781A8.661,8.661,0,0,0,902.16,804.973Z" transform="translate(-640.412 -568.943)" fill="#ecb4b6"/>
    <path id="Path_1691" data-name="Path 1691" d="M902.16,821.355l-5.329,5.752s-4.932.055-3.965-2.666a10.39,10.39,0,0,0,.409-1.807,11.344,11.344,0,0,1,1.717,2.149s3.4.993,4.333-1.983a5.068,5.068,0,0,1,1.977-2.891A8.664,8.664,0,0,0,902.16,821.355Z" transform="translate(-640.412 -585.325)" opacity="0.1"/>
    <path id="Path_1692" data-name="Path 1692" d="M911.976,829.846a9.7,9.7,0,0,1-6.491,2.336c-4.394-.064-12.608-.193-14.515-.271-2.552-.111-1.705-2.289-1.623-3.8v-.152c.029-1.5.342-4.759.841-5.256s2.251,2.266,2.251,2.266,3.4.993,4.333-1.983,2.844-3.282,2.844-3.282c.876-.374.908,1.869.908,1.869l7.2,3.714,4.222.666c.137.061.26.126.377.187C914.215,827.2,913.374,828.637,911.976,829.846Z" transform="translate(-637.868 -585.152)" fill="#00a8cc"/>
    <circle id="Ellipse_621" data-name="Ellipse 621" cx="0.312" cy="0.312" r="0.312" transform="translate(260.495 238.352)" fill="#fff" opacity="0.25"/>
    <circle id="Ellipse_622" data-name="Ellipse 622" cx="0.312" cy="0.312" r="0.312" transform="translate(263.415 239.797)" fill="#fff" opacity="0.25"/>
    <circle id="Ellipse_623" data-name="Ellipse 623" cx="0.312" cy="0.312" r="0.312" transform="translate(264.919 240.472)" fill="#fff" opacity="0.25"/>
    <circle id="Ellipse_624" data-name="Ellipse 624" cx="0.312" cy="0.312" r="0.312" transform="translate(268.034 241.669)" fill="#fff" opacity="0.25"/>
    <circle id="Ellipse_625" data-name="Ellipse 625" cx="0.312" cy="0.312" r="0.312" transform="translate(266.449 241.158)" fill="#fff" opacity="0.25"/>
    <path id="Path_1693" data-name="Path 1693" d="M911.976,845.588a9.7,9.7,0,0,1-6.491,2.336c-4.394-.064-12.608-.193-14.515-.272-2.552-.111-1.705-2.289-1.623-3.8l16.019.993s6.561-1,6.952-2.949C914.215,842.942,913.374,844.379,911.976,845.588Z" transform="translate(-637.868 -600.894)" fill="#00a8cc"/>
    <path id="Path_1694" data-name="Path 1694" d="M911.976,845.318a9.7,9.7,0,0,1-6.491,2.318c-4.394-.064-12.608-.19-14.515-.272-2.552-.111-1.705-2.289-1.623-3.8l16.019.99s6.561-1,6.952-2.949C914.215,842.673,913.374,844.109,911.976,845.318Z" transform="translate(-637.868 -600.689)" fill="#fff" opacity="0.25"/>
    <path id="Path_1695" data-name="Path 1695" d="M838.2,766.205a11.093,11.093,0,0,0-1.609,1.609c-1.588,1.848-3.554,4.613-4.529,6.012l-.607.876-2.126-.315s-2.3-3.5-2.266-3.6,1.813-3.854,1.813-3.854l.692-.809,2.178-2.546.984-1.15S840.123,764.816,838.2,766.205Z" transform="translate(-593.909 -544.628)" fill="#ecb4b6"/>
    <path id="Path_1696" data-name="Path 1696" d="M832.058,782.79l-.607.876-2.126-.315s-2.3-3.5-2.266-3.6,1.813-3.854,1.813-3.854l.692-.809.228.041h.537c-1.9,1.983.143,6.348.143,6.348A2.337,2.337,0,0,1,832.058,782.79Z" transform="translate(-593.909 -553.592)" opacity="0.1"/>
    <path id="Path_1697" data-name="Path 1697" d="M813.344,785.845s-1.419,3.06-2.184,4.818a5.344,5.344,0,0,0-.482,3.034,2.917,2.917,0,0,1-.242.657,3.343,3.343,0,0,1-2.9,1.837.716.716,0,0,1-.137,0c-2.572-.067-3.4-7.568-3.4-7.568s.394-14.281,1.133-15.184a.692.692,0,0,1,.374-.2,7.924,7.924,0,0,1,2.275-.061c2.336.166,5.343.742,5.343.742h.537c-1.9,1.983.14,6.348.14,6.348a2.348,2.348,0,0,1,1.618,1.361C816.129,782.9,813.344,785.845,813.344,785.845Z" transform="translate(-577.583 -552.2)" fill="#00a8cc"/>
    <circle id="Ellipse_626" data-name="Ellipse 626" cx="0.312" cy="0.312" r="0.312" transform="translate(232.339 229.084)" fill="#fff" opacity="0.25"/>
    <circle id="Ellipse_627" data-name="Ellipse 627" cx="0.312" cy="0.312" r="0.312" transform="translate(232.184 231.557)" fill="#fff" opacity="0.25"/>
    <path id="Path_1698" data-name="Path 1698" d="M809.76,794.174a3.366,3.366,0,0,1-2.9,1.837h-.12c-2.584-.067-3.408-7.568-3.408-7.568s.4-14.281,1.133-15.184a.7.7,0,0,1,.374-.2,7.948,7.948,0,0,1,2.278-.061c-.044,2.564-.163,10.681,0,11.487S808.732,792.013,809.76,794.174Z" transform="translate(-577.108 -552.073)" fill="#00a8cc"/>
    <path id="Path_1699" data-name="Path 1699" d="M810.374,794.353a3.34,3.34,0,0,1-2.9,1.837.716.716,0,0,1-.137,0c-2.584-.067-3.4-7.568-3.4-7.568s.4-14.281,1.133-15.184a.7.7,0,0,1,.374-.2,7.939,7.939,0,0,1,2.278-.061c-.044,2.564-.166,10.681,0,11.487S809.344,792.193,810.374,794.353Z" transform="translate(-577.533 -552.2)" fill="#fff" opacity="0.25"/>
    <path id="Path_1700" data-name="Path 1700" d="M806.738,796.29c-2.584-.067-3.408-7.568-3.408-7.568s.4-14.281,1.133-15.183a.7.7,0,0,1,.374-.2c.543.806,1.019,2.59.584,6.517-.806,7.44.166,7.907.166,7.907A69.968,69.968,0,0,1,806.738,796.29Z" transform="translate(-577.108 -552.353)" fill="#00a8cc"/>
    <path id="Path_1701" data-name="Path 1701" d="M806.618,796.276c-2.593-.067-3.407-7.574-3.407-7.574s.4-14.281,1.133-15.183a.7.7,0,0,1,.374-.2c.543.806,1.016,2.59.584,6.517-.806,7.44.167,7.907.167,7.907A67.251,67.251,0,0,1,806.618,796.276Z" transform="translate(-577.024 -552.339)" opacity="0.1"/>
    <path id="Path_1702" data-name="Path 1702" d="M991.115,494.72a3.084,3.084,0,0,1-1.107.421c-1.46.041-2.628-3.869-2.628-3.869s.412-.418,1.066-1C988.9,491.339,990.2,494.191,991.115,494.72Z" transform="translate(-707.418 -351.936)" opacity="0.1"/>
    <path id="Path_1703" data-name="Path 1703" d="M965.022,492.753a3.642,3.642,0,0,0,1.956-.426c.765-.511,4.038-1.913,4.123-2.847,0,0,1.956,4.759,3.06,4.929,0,0-3.4,2.68-3.656,3.53s-6.885,2.92-6.885,2.92Z" transform="translate(-690.595 -351.377)" fill="#ff748e"/>
    <path id="Path_1704" data-name="Path 1704" d="M965.022,492.753a3.642,3.642,0,0,0,1.956-.426c.765-.511,4.038-1.913,4.123-2.847,0,0,1.956,4.759,3.06,4.929,0,0-3.4,2.68-3.656,3.53s-6.885,2.92-6.885,2.92Z" transform="translate(-690.595 -351.377)" fill="#00a8cc"/>
    <path id="Path_1705" data-name="Path 1705" d="M849.553,766.22a11.105,11.105,0,0,0-1.609,1.609A11.472,11.472,0,0,1,843.1,763.6l.984-1.15S851.48,764.83,849.553,766.22Z" transform="translate(-605.266 -544.643)" opacity="0.1"/>
    <path id="Path_1706" data-name="Path 1706" d="M861.824,692.76s-4.158,5.548-5.676,6.179S843.3,713.448,843.3,713.448s2.429,4.494,6.92,5.215a6.612,6.612,0,0,0,3.343-3.116c.905-2.152,8.044-8.22,8.044-8.22Z" transform="translate(-605.408 -495.301)" fill="#5e5a6b"/>
    <path id="Path_1707" data-name="Path 1707" d="M861.824,692.76s-4.158,5.548-5.676,6.179S843.3,713.448,843.3,713.448s2.429,4.494,6.92,5.215a6.612,6.612,0,0,0,3.343-3.116c.905-2.152,8.044-8.22,8.044-8.22Z" transform="translate(-605.408 -495.301)" opacity="0.1"/>
    <path id="Path_1708" data-name="Path 1708" d="M863.6,756.424a17.984,17.984,0,0,0,3.8,0C869.638,756.211,867.936,757.572,863.6,756.424Z" transform="translate(-619.78 -540.36)" opacity="0.1"/>
    <path id="Path_1709" data-name="Path 1709" d="M860.11,761.43s2.975,1.7,4.123.85S863.126,763.1,860.11,761.43Z" transform="translate(-617.309 -543.92)" opacity="0.1"/>
    <path id="Path_1710" data-name="Path 1710" d="M902.643,798.441a6.613,6.613,0,0,0-.161,1.361c-2.3,2.085-5.063,1.442-6.792.68,0-1.276-.02-2.169-.02-2.169S903.437,794.9,902.643,798.441Z" transform="translate(-642.486 -568.986)" opacity="0.1"/>
    <path id="Path_1711" data-name="Path 1711" d="M910.481,548.03,910.4,549.6l-.71,13.169a40.378,40.378,0,0,0-.342,8.614c.242,5.667-3.162,14.623-3.162,14.623s-1.644,6.068-2.155,8.844-2.1,3.627-2.1,3.627.4,3.118-.736,4.193a4.649,4.649,0,0,0-1.188,2.891s-1.752,9.75-2.336,10.713-.511,6.065-.511,6.065c-3.685,4.365-9.069.4-9.069.4l.055-13.659s1.533-12.582,2.666-14.34,1.133-6.576,1.133-6.576l-.505-11.221a3.031,3.031,0,0,1-.055-1.872c.348-.68-.969-2.543-.969-2.543-3.174-3.854-3.626-12.526-2.707-14.229s3.676-8.5,3.676-8.5l3.8-2.213,6.853.2Z" transform="translate(-636.551 -392.513)" fill="#5e5a6b"/>
    <path id="Path_1712" data-name="Path 1712" d="M911.5,777.88s.9,3.1,1.618,3.443S911.5,777.88,911.5,777.88Z" transform="translate(-653.694 -555.567)" opacity="0.1"/>
    <path id="Path_1713" data-name="Path 1713" d="M915.72,742.5s2.336,1.834,3.3,1.828S915.72,742.5,915.72,742.5Z" transform="translate(-656.682 -530.518)" opacity="0.1"/>
    <path id="Path_1714" data-name="Path 1714" d="M919.516,426.322v3.74L917.045,429l-2.461-1.063-5.355-5.27a40.882,40.882,0,0,1-6.506-5.256c-1.3-1.431-1.951-2.783-.806-3.5a7.158,7.158,0,0,0,1.48-1.3,24.4,24.4,0,0,0,2.958-4.362l.105-.19c1.1-2.026,1.831-3.755,1.831-3.755a22.616,22.616,0,0,1,5.107,2.406c.161.111.312.228.458.347,1.115.914,1.667,1.971.642,3.028a7.893,7.893,0,0,0-.733.876h0a6.623,6.623,0,0,0-.453.715c-.061.111-.12.222-.175.33a7.624,7.624,0,0,0-.68,4.54Z" transform="translate(-646.491 -291.069)" fill="#ecb4b6"/>
    <path id="Path_1715" data-name="Path 1715" d="M926.694,410.091a7.907,7.907,0,0,0-.733.876h0a6.617,6.617,0,0,0-.453.715c-.061.111-.12.222-.175.33a8.906,8.906,0,0,1-6.678-3.609,1.494,1.494,0,0,1-.1-.149l.105-.19c1.1-2.026,1.831-3.755,1.831-3.755a22.615,22.615,0,0,1,5.107,2.406c.161.111.313.228.458.347C927.167,407.977,927.733,409.034,926.694,410.091Z" transform="translate(-658.686 -291.076)" opacity="0.1"/>
    <path id="Path_1716" data-name="Path 1716" d="M930.78,377.37a8.912,8.912,0,0,1-8.926,8.926h-.33a8.926,8.926,0,1,1,9.2-9.9A9.094,9.094,0,0,1,930.78,377.37Z" transform="translate(-654.704 -265.687)" fill="#ecb4b6"/>
    <path id="Path_1717" data-name="Path 1717" d="M939.538,454.515s4.5,2.537,3.343.4l-5.866-8.672h0l6.66,8.558s4.251,5.84,1.927,9.861c0,0-.342,3.346.055,4.138s-.114,9.242-.114,9.242-1.585-1.46-2.435-1.191-6.859.794-6.859.794Z" transform="translate(-671.217 -320.763)" opacity="0.1"/>
    <path id="Path_1718" data-name="Path 1718" d="M945.558,548.511l-.085,1.568c-.537-.391-1.288-.829-1.784-.663-.85.292-6.859.794-6.859.794l.277-1.95Z" transform="translate(-671.628 -392.994)" opacity="0.1"/>
    <path id="Path_1719" data-name="Path 1719" d="M940.118,454.515s4.5,2.537,3.343.4L937.6,446.24h0l6.66,8.558s4.251,5.84,1.927,9.861c0,0-.339,3.346.055,4.138s-.111,9.242-.111,9.242-1.588-1.46-2.438-1.191-6.859.794-6.859.794Z" transform="translate(-671.628 -320.763)" fill="#464353"/>
    <path id="Path_1720" data-name="Path 1720" d="M909.311,449.729a31,31,0,0,1-1.384,5.965s-.791,8.05-1.813,10.433-.566,5.667-1.133,11.732a7.68,7.68,0,0,1-1.857,4.7,6.93,6.93,0,0,1-5.548,1.91,3.68,3.68,0,0,1-.418-.032c-2.835-.292-5.548-13.943-5.548-13.943s-1.3-11.618-.794-13.207-.508-10.655-.85-12.64c-.216-1.256.435-3.311.937-4.646.292-.774.537-1.305.537-1.305a13.677,13.677,0,0,1,2.549-4.646,2.336,2.336,0,0,1,1.682-.707,4.176,4.176,0,0,1,2.1.657l.073.05s10.316,10.541,11.28,12.979A6.3,6.3,0,0,1,909.311,449.729Z" transform="translate(-638.418 -311.629)" opacity="0.1"/>
    <path id="Path_1721" data-name="Path 1721" d="M908.165,449.149a31,31,0,0,1-1.384,5.965s-.794,8.05-1.813,10.43-.584,5.668-1.133,11.732a7.682,7.682,0,0,1-1.857,4.7,6.934,6.934,0,0,1-5.548,1.91l-.415-.032c-2.835-.292-5.548-13.943-5.548-13.943s-1.3-11.621-.791-13.207-.511-10.655-.85-12.64c-.216-1.256.432-3.311.937-4.648.292-.771.534-1.3.534-1.3a13.679,13.679,0,0,1,2.552-4.648,2.336,2.336,0,0,1,1.679-.7,4.19,4.19,0,0,1,2.1.657l.073.047s10.316,10.544,11.277,12.979A6.434,6.434,0,0,1,908.165,449.149Z" transform="translate(-637.611 -311.219)" fill="#00a8cc"/>
    <path id="Path_1722" data-name="Path 1722" d="M907.682,631s-2.336,2.082-3.148,2S907.682,631,907.682,631Z" transform="translate(-648.684 -451.575)" opacity="0.1"/>
    <path id="Path_1723" data-name="Path 1723" d="M909.636,637.76a30.954,30.954,0,0,1-3.212,1.314C905.676,639.243,908.684,637.465,909.636,637.76Z" transform="translate(-650.016 -456.337)" opacity="0.1"/>
    <path id="Path_1724" data-name="Path 1724" d="M950.37,530.551s3.656.041,4.208,1.188S951.561,530.084,950.37,530.551Z" transform="translate(-681.214 -380.418)" opacity="0.1"/>
    <path id="Path_1725" data-name="Path 1725" d="M948.62,537.52a12.928,12.928,0,0,1,3.656,1.276C953.125,539.488,948.62,537.52,948.62,537.52Z" transform="translate(-679.975 -385.39)" opacity="0.1"/>
    <path id="Path_1726" data-name="Path 1726" d="M927.829,513.79s-.339,11.519-1.594,13.008S927.829,513.79,927.829,513.79Z" transform="translate(-663.9 -368.589)" opacity="0.1"/>
    <path id="Path_1727" data-name="Path 1727" d="M920.282,623.469s-2.336,10.158,2.362,10.8,3.25-11.563,3.25-11.563Z" transform="translate(-659.501 -445.705)" opacity="0.1"/>
    <path id="Path_1728" data-name="Path 1728" d="M919.7,622.879s-2.336,10.161,2.359,10.8,3.253-11.563,3.253-11.563Z" transform="translate(-659.089 -445.288)" fill="#ecb4b6"/>
    <path id="Path_1729" data-name="Path 1729" d="M906.55,465.773c-.242-6.105-8.786-7.367-10.78-1.591-.015.038-.026.076-.041.117-1.3,3.91-.736,13.811-.736,13.811s.169,6.649.794,8.859,2.38,8.558,2.38,9.58,1.629,4.932,2.316,5.215,1.034,2.494,1.2,2.891.68,5.548.68,5.548,6.4-.4,6.517-1.416-1.416-6-1.416-6a11.541,11.541,0,0,1-1.273-3.685c-.143-1.641-1.051-2.38-.876-3.5s-.511-1.7-.511-2.438a18.223,18.223,0,0,0-.508-2.721,2.319,2.319,0,0,1-.908-1.869c.169-1.019-1.53-3.06-1.077-3.8a7.672,7.672,0,0,0,.566-2.549s.566-8.176.964-10.374,2.721-5.778,2.721-5.778S906.556,465.954,906.55,465.773Z" transform="translate(-641.92 -330.829)" opacity="0.1"/>
    <path id="Path_1730" data-name="Path 1730" d="M904.657,501.149a6.934,6.934,0,0,1-5.548,1.91c-.2-.774-.5-1.723-.934-1.9-.686-.292-2.315-4.193-2.315-5.212s-1.752-7.37-2.38-9.58-.794-8.859-.794-8.859-.584-9.9.727-13.82a.38.38,0,0,1,.038-.12c1.994-5.776,10.538-4.511,10.78,1.594v.292s-2.336,3.571-2.718,5.781-.967,10.371-.967,10.371a7.683,7.683,0,0,1-.566,2.552c-.453.736,1.247,2.777,1.077,3.8a2.319,2.319,0,0,0,.905,1.869,18.047,18.047,0,0,1,.511,2.721c0,.739.68,1.3.511,2.438s.739,1.869.876,3.5A9.161,9.161,0,0,0,904.657,501.149Z" transform="translate(-640.281 -330.393)" opacity="0.1"/>
    <path id="Path_1731" data-name="Path 1731" d="M905.387,465.189c-.242-6.106-8.783-7.37-10.777-1.594a.487.487,0,0,1-.041.12c-1.3,3.91-.736,13.811-.736,13.811s.169,6.649.791,8.859,2.383,8.564,2.383,9.58,1.626,4.929,2.316,5.212,1.033,2.5,1.2,2.891.677,5.548.677,5.548,6.406-.4,6.517-1.419-1.416-6.006-1.416-6.006a11.62,11.62,0,0,1-1.273-3.685c-.146-1.641-1.051-2.38-.876-3.5s-.511-1.7-.511-2.438a18.126,18.126,0,0,0-.511-2.721,2.31,2.31,0,0,1-.905-1.869c.172-1.019-1.533-3.063-1.077-3.8a7.582,7.582,0,0,0,.566-2.549s.567-8.176.964-10.374,2.721-5.781,2.721-5.781S905.4,465.37,905.387,465.189Z" transform="translate(-641.099 -330.414)" fill="#00a8cc"/>
    <path id="Path_1732" data-name="Path 1732" d="M897.67,525.2c.169-.169,3.4-3.74,4.421-2.464S897.67,525.2,897.67,525.2Z" transform="translate(-643.902 -374.726)" opacity="0.1"/>
    <path id="Path_1733" data-name="Path 1733" d="M898.69,535.334c.126-.125,3.229-.254,3.995-2S898.69,535.334,898.69,535.334Z" transform="translate(-644.624 -382.101)" opacity="0.1"/>
    <g id="Group_281" data-name="Group 281" transform="translate(249.879 106.407)" opacity="0.1">
      <path id="Path_1734" data-name="Path 1734" d="M885,430.672a.858.858,0,0,1,.169.307,1.329,1.329,0,0,0-.169-1.168c-.152-.175-.374-.277-.511-.461,0-.015-.018-.032-.029-.05a.876.876,0,0,0,.029.9C884.629,430.38,884.851,430.486,885,430.672Z" transform="translate(-884.353 -415.176)"/>
      <path id="Path_1735" data-name="Path 1735" d="M900.582,385.4c0-.324.015-.645,0-.964-.061-1.168-.274-2.336-.324-3.5-.067,1.419.248,2.92.324,4.354Z" transform="translate(-895.607 -380.93)"/>
    </g>
    <path id="Path_1736" data-name="Path 1736" d="M1004.1,466.656l.175.123a.707.707,0,0,1-.181-.978l7.884-11.434a.7.7,0,0,1,.975-.178l-.172-.123a1.127,1.127,0,0,1,.292,1.568l-7.393,10.733a1.127,1.127,0,0,1-1.58.289Z" transform="translate(-719.164 -326.302)" fill="#464353"/>
    <path id="Path_1737" data-name="Path 1737" d="M.508,0H.736V15.289H.508A.508.508,0,0,1,0,14.781V.52A.508.508,0,0,1,.508,0Z" transform="translate(293.22 127.476) rotate(34.56)" fill="#9f9eff"/>
    <rect id="Rectangle_765" data-name="Rectangle 765" width="0.143" height="1.247" rx="0.072" transform="translate(292.652 129.473) rotate(34.56)" fill="#464353"/>
    <path id="Path_1738" data-name="Path 1738" d="M906.486,366.869a4.923,4.923,0,0,0-.969-1.577,5.591,5.591,0,0,1-.324-4.505,3.209,3.209,0,0,0,.184-1.279,2.023,2.023,0,0,0-.946-1.326c-1.054-.692-2.406-.7-3.589-1.139-1.72-.637-3.276-2.2-5.069-1.825a8.551,8.551,0,0,0-2.581,1.5,6.222,6.222,0,0,1-3.118.955,21.023,21.023,0,0,0-2.78,0,2.8,2.8,0,0,0-.482.131,7.234,7.234,0,0,0-2.415-.385,4.059,4.059,0,0,0-2.278.637c-1.235.876-1.565,2.555-1.545,4.065a13.976,13.976,0,0,1-.19,4.5c-.584,1.79-2.2,3.153-2.523,5a8.222,8.222,0,0,0,.564,3.752c1.063,3.5,1.766,7.393.356,10.783a3.806,3.806,0,0,1-1.752,2.1l3-.178a1.629,1.629,0,0,1-1.366,1.857,6.955,6.955,0,0,0,2.2-.505,2.336,2.336,0,0,0,1.387-1.676,8.864,8.864,0,0,1,.085-1.221c.2-.674.876-1.045,1.445-1.477a6.435,6.435,0,0,0,2.21-4.911,17.608,17.608,0,0,0-.961-5.457,22.792,22.792,0,0,1-1.168-5.425,7.127,7.127,0,0,1,.187-2.018,6.478,6.478,0,0,0,.353.584,16.685,16.685,0,0,1,2.015,3.4,9.853,9.853,0,0,0,.631,1.714,1.589,1.589,0,0,0,1.486.876c.61-.085,1.054-.745,1.256-1.364a6.628,6.628,0,0,1,.663-1.822c.712-1,2.137-1.089,3.364-1.051,2.584.082,6.149.473,8.176-1.513.385-.377.584-.952,1.168-.812.537.126.838,1,1.413,1.2A1.494,1.494,0,0,0,906.486,366.869Z" transform="translate(-629.289 -256.277)" opacity="0.1"/>
    <path id="Path_1739" data-name="Path 1739" d="M906.486,365.739a4.892,4.892,0,0,0-.969-1.577,5.593,5.593,0,0,1-.324-4.505,3.21,3.21,0,0,0,.184-1.279,2.023,2.023,0,0,0-.946-1.326c-1.054-.692-2.406-.7-3.589-1.139-1.72-.637-3.276-2.2-5.069-1.825a8.549,8.549,0,0,0-2.581,1.5,6.251,6.251,0,0,1-3.118.955,21.034,21.034,0,0,0-2.78,0,2.8,2.8,0,0,0-.482.131,7.234,7.234,0,0,0-2.415-.385,4.088,4.088,0,0,0-2.278.634c-1.235.876-1.565,2.558-1.545,4.067a13.976,13.976,0,0,1-.19,4.5c-.584,1.79-2.2,3.153-2.523,5a8.222,8.222,0,0,0,.564,3.752c1.063,3.5,1.766,7.393.356,10.78a3.8,3.8,0,0,1-1.752,2.105l3-.178a1.626,1.626,0,0,1-1.366,1.854,6.874,6.874,0,0,0,2.2-.5,2.336,2.336,0,0,0,1.387-1.676,8.864,8.864,0,0,1,.085-1.221c.2-.674.876-1.045,1.445-1.477a6.436,6.436,0,0,0,2.21-4.911,17.593,17.593,0,0,0-.961-5.457,22.761,22.761,0,0,1-1.168-5.425,7.127,7.127,0,0,1,.187-2.018,6.478,6.478,0,0,0,.353.584,16.685,16.685,0,0,1,2.015,3.4,9.731,9.731,0,0,0,.631,1.711,1.584,1.584,0,0,0,1.486.876c.61-.088,1.054-.742,1.256-1.361a6.627,6.627,0,0,1,.663-1.822c.712-1,2.137-1.089,3.364-1.051,2.584.082,6.149.473,8.176-1.513.385-.377.584-.952,1.168-.812.537.126.838,1,1.413,1.2A1.494,1.494,0,0,0,906.486,365.739Z" transform="translate(-629.289 -255.477)" fill="#464353"/>
    <g id="Group_282" data-name="Group 282" transform="translate(247.75 102.676)" opacity="0.1">
      <path id="Path_1740" data-name="Path 1740" d="M889.2,375.9v.584c0,.631.053,1.27.076,1.9C889.3,377.57,889.229,376.732,889.2,375.9Z" transform="translate(-885.655 -373.637)"/>
      <path id="Path_1741" data-name="Path 1741" d="M881.47,420.871a22.133,22.133,0,0,0-1.136-7.008,13.292,13.292,0,0,1-.584-2.494,9.236,9.236,0,0,0,.584,3.486A24.091,24.091,0,0,1,881.47,420.871Z" transform="translate(-878.947 -398.75)"/>
      <path id="Path_1742" data-name="Path 1742" d="M972.445,371.3a9.4,9.4,0,0,1,.292-1.647,3.212,3.212,0,0,0,.184-1.279,1.4,1.4,0,0,0-.055-.225c-.035.172-.082.342-.129.511A7.785,7.785,0,0,0,972.445,371.3Z" transform="translate(-944.583 -368.15)"/>
      <path id="Path_1743" data-name="Path 1743" d="M880.056,463.45l-1.81.105a3.007,3.007,0,0,1-1.185,1.063l2.826-.166A1.518,1.518,0,0,0,880.056,463.45Z" transform="translate(-877.06 -435.623)"/>
      <path id="Path_1744" data-name="Path 1744" d="M922.931,392.384a1.568,1.568,0,0,1-1.843.861c-.584-.2-.876-1.072-1.413-1.2-.584-.14-.782.438-1.168.815-2.023,1.983-5.589,1.591-8.176,1.51-1.226-.038-2.651.053-3.364,1.051a6.292,6.292,0,0,0-.663,1.825,1.809,1.809,0,0,1-1.256,1.361,1.529,1.529,0,0,1-1.486-.876,9.919,9.919,0,0,1-.631-1.711,16.707,16.707,0,0,0-2.015-3.4c-.125-.187-.245-.385-.353-.584a7.138,7.138,0,0,0-.187,2.021v.143a6.558,6.558,0,0,1,.175-1.168,6.5,6.5,0,0,0,.353.584,16.677,16.677,0,0,1,2.015,3.4,9.737,9.737,0,0,0,.631,1.711,1.584,1.584,0,0,0,1.486.876c.61-.088,1.054-.742,1.256-1.361a6.629,6.629,0,0,1,.663-1.822c.712-1,2.137-1.089,3.364-1.051,2.584.082,6.149.473,8.176-1.513.385-.377.584-.952,1.168-.812.537.126.838,1,1.413,1.2a1.5,1.5,0,0,0,1.921-1.6,2.028,2.028,0,0,0-.067-.26Z" transform="translate(-893.563 -385.055)"/>
      <path id="Path_1745" data-name="Path 1745" d="M887.756,441.585c-.555.432-1.25.8-1.445,1.477a8.876,8.876,0,0,0-.085,1.221,2.336,2.336,0,0,1-1.387,1.679,4.4,4.4,0,0,1-.861.292,1.633,1.633,0,0,1-1.337,1.2,6.872,6.872,0,0,0,2.2-.5,2.336,2.336,0,0,0,1.387-1.676,8.863,8.863,0,0,1,.085-1.221c.2-.674.876-1.045,1.445-1.477a6.436,6.436,0,0,0,2.21-4.911v-.826A6.45,6.45,0,0,1,887.756,441.585Z" transform="translate(-881.011 -416.783)"/>
    </g>
    <path id="Path_1746" data-name="Path 1746" d="M291.472,469.616h.067s-10.722-29.076-13.724-33.027c0,0-3.145-1.837-3-4.94l-3.857-18.506s.058-.055.155-.161l.082-.091c.029-.032.061-.067.093-.108a8.7,8.7,0,0,0,1.282-1.977c.02-.047.044-.091.064-.137a7.431,7.431,0,0,0,.359-1,1.092,1.092,0,0,0,.823-.044v-.277h0s-.038-1.095-.041-2.806v-1.55a13.734,13.734,0,0,0,.307-1.349l-.158-.073a.113.113,0,0,1,.015-.067l-.131-.061a57.985,57.985,0,0,1,1.46-12.777c.035-.126.07-.248.108-.371,1.191-3.857,1.218-8.567,1.524-12.556a12.33,12.33,0,0,1,.619,1.542,2.337,2.337,0,0,1,.52-.429l1.2,9.463v11.148s-2,14.4,4.286,11.718,1.717-12.556,1.717-12.556,0-5.5.858-8.328c.564-1.857.2-7.884-.117-11.764.6.108.972.193.972.193a6.512,6.512,0,0,0,.187-1.732c.128-6.506-8-16.994-11.312-20.994a9.467,9.467,0,0,0-3.816-3.311l-6.357-3.04s-2.993-.745-4.161-3.022a.646.646,0,0,0-.029-.12c.131-.058.263-.12.391-.187a7.06,7.06,0,0,0,2.485-1.974,17.194,17.194,0,0,0,2.628-5.9,23.32,23.32,0,0,0,1.364-7.466,7.911,7.911,0,0,0-3.361-6.529c-1.866-1.15-4.465-1.369-5.621-3.212a7.4,7.4,0,0,0-.92-1.489.35.35,0,0,0-.292-.359l-3.241-.625a.353.353,0,0,0-.412.274v.044a19.563,19.563,0,0,0-8.225,2.064,18.99,18.99,0,0,0-2.6,1.518,5.194,5.194,0,0,0-2.5,3.323c-.085.7.088,1.425-.058,2.114-.385,1.845-2.888,3.045-2.523,4.894.245,1.256,1.685,1.8,3.031,1.8a9.927,9.927,0,0,0-.377,2.7,10.059,10.059,0,0,0,8.091,9.814,28.652,28.652,0,0,1,2.567,4.316c-1.647,1.545-5.1,5.13-2.981,6.336l-4.38,10.728.426,11.063-1.854,1.638.406.5c-2.076,2.388-6.888,7.612-10.4,9a10.807,10.807,0,0,0-1.46.712,6,6,0,0,1-2.108.815,5.7,5.7,0,0,0-.966.184l-.838-1.72a1.261,1.261,0,0,0-1.676-.584l-.514.245h0l-1.223.584-.508.242h0l-.388.184a1.235,1.235,0,0,0-.584,1.656l1.016,2.082c-1.445,1.258-2.152,2.762-.184,4.158a4.336,4.336,0,0,0,2.628.818l.619,1.264a1.259,1.259,0,0,0,1.673.584l.9-.426,1.752-.826a1.229,1.229,0,0,0,.584-1.653l-.508-1.042a20.572,20.572,0,0,0,3.107-2.943,19.623,19.623,0,0,1,4.143-1.974c1.019-.239,4.6-2.555,6.8-4.021l.628,16.3a3.647,3.647,0,0,1-.485.584l.493-.345v.12c-.073.082-.143.158-.213.225l.213-.152v.2a2.176,2.176,0,0,1-.222.237l.225-.158.064,1.694,1.077-1.752.067,1.752.251-.412c-3.019,5.066-6.952,12.523-9.052,20.031,0,0-3.285,5.644-2.859,11.431L229.5,467.627l.117.044c-1.959,1.393-6.076,3.948-10.12,4.05,0,0-9.72-.292-7.008,1.834s26.863,5.224,26.863,5.224l.929-7.136.216.079a.6.6,0,0,0-.015-.111l.292.111s-.584-3.53,1.571-5.5,7.148-22.019,6.716-25.111a123.4,123.4,0,0,1,8.64-17.02l5.653,14.34,6.289,10.728s8.366,18.366,8.1,22.46c-1.752,2.12-4.9,5.44-7.238,5.343,0,0-9.577,1.837-3,3.53s25.87-4.672,25.87-4.672ZM249.6,403.944l.058-.032c-.292.453-.616.958-.961,1.51Z" transform="translate(-158.45 -230.505)" fill="url(#linear-gradient-2)"/>
    <path id="Path_1747" data-name="Path 1747" d="M325.635,617.91c-.237.166-.365.263-.365.263A1.523,1.523,0,0,0,325.635,617.91Z" transform="translate(-238.637 -442.307)" fill="url(#linear-gradient-3)"/>
    <path id="Path_1748" data-name="Path 1748" d="M326.615,618.87l-.365.266A1.543,1.543,0,0,0,326.615,618.87Z" transform="translate(-239.331 -442.987)" fill="url(#linear-gradient-4)"/>
    <path id="Path_1749" data-name="Path 1749" d="M326.615,617.91c-.236.166-.365.263-.365.263A1.523,1.523,0,0,0,326.615,617.91Z" transform="translate(-239.331 -442.307)" fill="url(#linear-gradient-3)"/>
    <path id="Path_1750" data-name="Path 1750" d="M406.692,833.3s-5.016,7.107-8.36,6.967c0,0-9.344,1.81-2.92,3.483s25.225-4.6,25.225-4.6l-2.237-7.3Z" transform="translate(-286.703 -593.779)" fill="#333"/>
    <path id="Path_1751" data-name="Path 1751" d="M362.67,623.87l7.1,18.255,6.132,10.591s8.433,18.743,7.884,22.366l13.432-2.161s-10.45-28.706-13.376-32.607c0,0-3.066-1.813-2.92-4.879l-3.761-18.241s3.659-3.53,1.615-7.954a7.421,7.421,0,0,0-.362-.686c-2.786-4.736-13.376-2.091-13.376-2.091Z" transform="translate(-265.117 -433.682)" fill="#535461"/>
    <path id="Path_1752" data-name="Path 1752" d="M362.67,623.87l7.1,18.255,6.132,10.591s8.433,18.743,7.884,22.366l13.432-2.161s-10.45-28.706-13.376-32.607c0,0-3.066-1.813-2.92-4.879l-3.761-18.241s3.659-3.53,1.615-7.954a7.421,7.421,0,0,0-.362-.686c-2.786-4.736-13.376-2.091-13.376-2.091Z" transform="translate(-265.117 -433.682)" opacity="0.03"/>
    <g id="Group_283" data-name="Group 283" transform="translate(105.837 172.045)" opacity="0.1">
      <path id="Path_1753" data-name="Path 1753" d="M403.94,640.313s-3.066-1.813-2.92-4.879l-3.77-18.24s3.659-3.53,1.615-7.954a7.413,7.413,0,0,0-.362-.686c-1.352-2.3-4.538-2.859-7.463-2.826,2.806.026,5.758.639,7.046,2.826a6.725,6.725,0,0,1,.359.686c2.044,4.424-1.612,7.954-1.612,7.954l3.761,18.255c-.137,3.066,2.92,4.879,2.92,4.879,2.92,3.9,13.376,32.606,13.376,32.606l-13.014,2.073v.067l13.432-2.161S406.866,644.214,403.94,640.313Z" transform="translate(-391.04 -605.726)"/>
    </g>
    <path id="Path_1754" data-name="Path 1754" d="M233.817,826.31s-5.574,4.736-11.008,4.876c0,0-9.475-.292-6.83,1.813s26.2,5.154,26.2,5.154l1.048-8.138Z" transform="translate(-160.928 -589.856)" fill="#333"/>
    <g id="Group_284" data-name="Group 284" transform="translate(71.914 169.862)" opacity="0.1">
      <path id="Path_1755" data-name="Path 1755" d="M296.321,600.041S287.124,613,283.5,626.1c0,0-3.212,5.574-2.786,11.288l-5.854,28.288,10.731,4.038s-.558-3.483,1.533-5.434,6.967-21.739,6.549-24.8c0,0,6.69-16.722,13.379-23.272s10.015-8.062,11-13.723C318.051,602.488,302.313,594.885,296.321,600.041Z" transform="translate(-274.86 -598.248)"/>
    </g>
    <path id="Path_1756" data-name="Path 1756" d="M295.4,600.041S286.2,613,282.578,626.1c0,0-3.212,5.574-2.788,11.288l-5.84,28.288,10.716,4.038s-.555-3.483,1.533-5.434,6.97-21.739,6.549-24.8c0,0,6.69-16.722,13.379-23.272s10.018-8.062,11-13.723C317.129,602.488,301.388,594.885,295.4,600.041Z" transform="translate(-202.302 -428.386)" fill="#535461"/>
    <g id="Group_285" data-name="Group 285" transform="translate(82.02 169.724)" opacity="0.1">
      <path id="Path_1757" data-name="Path 1757" d="M326.488,597.777c6.908.082,15.51,4.24,15.51,4.24-.984,5.653-4.313,7.165-11,13.724s-13.379,23.272-13.379,23.272c.418,3.066-4.459,22.854-6.549,24.8-1.819,1.7-1.632,4.558-1.553,5.27l.438.164s-.558-3.483,1.533-5.434,6.967-21.739,6.549-24.8c0,0,6.689-16.722,13.379-23.272s10.018-8.062,11-13.724C342.416,602.017,333.461,597.689,326.488,597.777Z" transform="translate(-309.471 -597.776)"/>
    </g>
    <path id="Path_1758" data-name="Path 1758" d="M271.825,535.18s-6.651,8.284-11.142,10.082a10.8,10.8,0,0,0-1.431.7,5.8,5.8,0,0,1-2.044.806,4.946,4.946,0,0,0-1.556.409c-2.336,1.074-7.717,3.983-4.164,6.538,4.459,3.212,10.45-4.181,10.45-4.181a19.1,19.1,0,0,1,4.041-1.951c1.5-.356,8.36-5.156,8.36-5.156Z" transform="translate(-185.563 -383.733)" fill="#ecb4b6"/>
    <path id="Path_1759" data-name="Path 1759" d="M293.248,512.85l-2.648,2.368,3.9,4.876Z" transform="translate(-205.728 -363.073)" fill="#00a8cc"/>
    <g id="Group_286" data-name="Group 286" transform="translate(84.872 149.777)" opacity="0.1">
      <path id="Path_1760" data-name="Path 1760" d="M293.248,512.85l-2.648,2.368,3.9,4.876Z" transform="translate(-290.6 -512.85)"/>
    </g>
    <path id="Path_1761" data-name="Path 1761" d="M331.968,434.48s-6.342,5.437-3.685,6.97L324,452.04l1.475,38.738,6.047-10.033-4.132-21.739s-1.168-12.959,2.213-16.024l3.244-6.424Z" transform="translate(-237.738 -312.437)" fill="#00a8cc"/>
    <g id="Group_287" data-name="Group 287" transform="translate(87.103 120.102)" opacity="0.1">
      <path id="Path_1762" data-name="Path 1762" d="M334.846,427.83s-6.342,5.437-3.688,6.97l-4.278,10.6,1.475,38.738L334.4,474.1l-4.129-21.747s-1.168-12.959,2.21-16.024l3.247-6.424Z" transform="translate(-326.88 -427.83)"/>
    </g>
    <path id="Path_1763" data-name="Path 1763" d="M334.52,397.641s5.157,6.269,5.016,9.893,9.755-6.269,9.755-6.269-3.764-4.6-2.788-9.478S334.52,397.641,334.52,397.641Z" transform="translate(-245.186 -281.309)" fill="#ecb4b6"/>
    <path id="Path_1764" data-name="Path 1764" d="M435.22,518.043l1.4,11.16v11.008s-1.951,14.214,4.181,11.566,1.658-12.412,1.658-12.412,0-5.437.838-8.222-.418-15.052-.418-15.052Z" transform="translate(-316.483 -370.217)" fill="#ecb4b6"/>
    <path id="Path_1765" data-name="Path 1765" d="M344.143,432.58s-3.746,3.626-5.711,2.368l-2.675,6.649a30.588,30.588,0,0,0-2.175,12.815l.946,25.129,4.181-.558,1.4-23.829,2.091-14.491Z" transform="translate(-244.499 -311.091)" fill="#f2f2f2"/>
    <g id="Group_288" data-name="Group 288" transform="translate(86.826 117.655)" opacity="0.1">
      <path id="Path_1766" data-name="Path 1766" d="M341.884,419.45s-4.946,3.413-6.339,6.342c0,0-.14,3.212-1.256,4.6s-2.228,8.36-2.508,16.722-1.533,19.508-1.533,19.508-2.091,10.871-4.319,11.972c0,0,10.31-7.8,15.327-5.154s10.731,9.052,12.4,8.082c0,0-.4-12.214,1.425-18.728.035-.123.07-.245.108-.365,1.95-6.409.7-15.184,2.92-18.95a58.536,58.536,0,0,0-1.285-11.9,9.2,9.2,0,0,0-4.92-6l-6.19-2.99S342.442,422.1,341.884,419.45Z" transform="translate(-325.93 -419.45)"/>
    </g>
    <g id="Group_289" data-name="Group 289" transform="translate(87.103 117.655)" opacity="0.1">
      <path id="Path_1767" data-name="Path 1767" d="M342.557,419.45s-4.672,3.694-6.062,6.619c0,0-.14,3.212-1.253,4.6s-2.231,8.363-2.508,16.722-1.533,19.522-1.533,19.522-2.091,10.868-4.321,11.972c0,0,10.313-7.8,15.329-5.156s10.731,9.052,12.4,8.082c0,0-.4-12.211,1.428-18.725.035-.126.07-.245.105-.365,1.953-6.424.7-15.183,2.92-18.953a58.369,58.369,0,0,0-1.288-11.9,9.189,9.189,0,0,0-4.917-6.006l-6.2-3S343.115,422.1,342.557,419.45Z" transform="translate(-326.88 -419.45)"/>
    </g>
    <path id="Path_1768" data-name="Path 1768" d="M342.487,419.21s-4.6,3.483-5.992,6.424c0,0-.14,3.212-1.253,4.6s-2.231,8.36-2.508,16.722-1.533,19.5-1.533,19.5-2.091,10.871-4.321,11.972c0,0,10.313-7.8,15.329-5.154s10.731,9.052,12.4,8.082c0,0-.4-12.214,1.428-18.728l.105-.365c1.953-6.409.7-15.184,2.92-18.95a58.407,58.407,0,0,0-1.288-11.9,9.183,9.183,0,0,0-4.917-6l-6.2-3S343.532,421.648,342.487,419.21Z" transform="translate(-239.777 -301.625)" fill="#00a8cc"/>
    <g id="Group_290" data-name="Group 290" transform="translate(107.672 124.755)" opacity="0.1">
      <path id="Path_1769" data-name="Path 1769" d="M405.114,444.748s14.144,16.095,12.193,23.759c0,0-7.247-1.67-9.2.558a15.987,15.987,0,0,0-6.132-8.082C397.379,458.056,393.143,439.314,405.114,444.748Z" transform="translate(-397.326 -443.765)"/>
    </g>
    <path id="Path_1770" data-name="Path 1770" d="M405.114,443.8s14.144,16.094,12.193,23.759c0,0-7.247-1.673-9.2.558a15.987,15.987,0,0,0-6.132-8.082C397.379,457.1,393.143,438.359,405.114,443.8Z" transform="translate(-289.653 -318.336)" fill="#00a8cc"/>
    <g id="Group_291" data-name="Group 291" transform="translate(89.903 109.904)" opacity="0.1">
      <path id="Path_1771" data-name="Path 1771" d="M348.231,396.614a4.478,4.478,0,0,1,.21-2.438c.975-4.876-11.972,5.84-11.972,5.84s.721.876,1.615,2.167a9.886,9.886,0,0,0,2.006.2C343.633,402.4,346.485,399.408,348.231,396.614Z" transform="translate(-336.47 -392.904)"/>
    </g>
    <circle id="Ellipse_628" data-name="Ellipse 628" cx="9.893" cy="9.893" r="9.893" transform="translate(83.062 98.912)" fill="#ecb4b6"/>
    <g id="Group_292" data-name="Group 292" transform="translate(80.437 90.764)" opacity="0.1">
      <path id="Path_1772" data-name="Path 1772" d="M307.68,342.688c-1.46.2-3.314-.292-3.594-1.734-.353-1.822,2.085-3.01,2.461-4.83.143-.683-.026-1.4.056-2.088a5.094,5.094,0,0,1,2.438-3.279,18.758,18.758,0,0,1,12.48-3.326,2.785,2.785,0,0,1,1.545.488,5.732,5.732,0,0,1,.993,1.565c1.13,1.825,3.662,2.044,5.481,3.177a7.864,7.864,0,0,1,3.276,6.444,23.226,23.226,0,0,1-1.329,7.373,16.872,16.872,0,0,1-2.552,5.822,5.712,5.712,0,0,1-5.586,2.336c.952-.686.263-2.275-.768-2.832s-2.307-.654-3.186-1.422a5.965,5.965,0,0,1-1.434-3.174,8.174,8.174,0,0,0-1.939-3.968C313.963,341.179,310.22,342.346,307.68,342.688Z" transform="translate(-304.051 -327.354)"/>
    </g>
    <path id="Path_1773" data-name="Path 1773" d="M308.633,342.209c-1.46.2-3.314-.292-3.6-1.731-.353-1.825,2.085-3.01,2.464-4.832.14-.683-.029-1.393.053-2.088a5.106,5.106,0,0,1,2.441-3.279,18.763,18.763,0,0,1,12.477-3.326,2.789,2.789,0,0,1,1.545.491,5.682,5.682,0,0,1,1,1.562c1.127,1.825,3.662,2.044,5.481,3.177a7.865,7.865,0,0,1,3.273,6.444A23.4,23.4,0,0,1,332.439,346a16.892,16.892,0,0,1-2.555,5.825,5.718,5.718,0,0,1-5.583,2.336c.949-.683.26-2.275-.768-2.832s-2.307-.651-3.189-1.422a5.928,5.928,0,0,1-1.431-3.174,8.214,8.214,0,0,0-1.939-3.965C314.9,340.7,311.17,341.867,308.633,342.209Z" transform="translate(-224.286 -236.251)" fill="#464353"/>
    <path id="Path_1774" data-name="Path 1774" d="M350.664,331.39l.9-4.59a.342.342,0,0,0-.272-.4l-3.159-.616a.339.339,0,0,0-.4.269l-.9,4.587-3.063,11.329,5.615,1.1Z" transform="translate(-251.735 -235.474)" fill="#00a8cc"/>
    <g id="Group_293" data-name="Group 293" transform="translate(80.723 95.925)" opacity="0.1">
      <path id="Path_1775" data-name="Path 1775" d="M313.19,348.864a3.144,3.144,0,0,0,.438-1.025c.14-.683-.029-1.4.053-2.088a3.141,3.141,0,0,1,.178-.721,3.337,3.337,0,0,0-.508,1.381c-.082.695.088,1.4-.055,2.088A2.182,2.182,0,0,1,313.19,348.864Z" transform="translate(-310.808 -345.03)"/>
      <path id="Path_1776" data-name="Path 1776" d="M377.013,406.637A5.771,5.771,0,0,1,371.523,409a1.063,1.063,0,0,1-.423.642,5.743,5.743,0,0,0,5.583-2.336,10.191,10.191,0,0,0,1.244-2.076A9.266,9.266,0,0,1,377.013,406.637Z" transform="translate(-351.809 -387.652)"/>
      <path id="Path_1777" data-name="Path 1777" d="M324.761,382.314c.78-.724.108-2.2-.876-2.736-1.031-.558-2.307-.654-3.189-1.422a5.917,5.917,0,0,1-1.431-3.177,8.215,8.215,0,0,0-1.939-3.965c-2.07-2.07-5.8-.9-8.342-.561-1.46.2-3.314-.292-3.594-1.734a1.9,1.9,0,0,1,.082-1.019,2.26,2.26,0,0,0-.415,1.682c.292,1.442,2.14,1.93,3.6,1.732,2.537-.342,6.272-1.51,8.342.564a8.359,8.359,0,0,1,1.939,3.965,5.926,5.926,0,0,0,1.431,3.174c.891.777,2.158.876,3.189,1.422A2.32,2.32,0,0,1,324.761,382.314Z" transform="translate(-305.031 -361.081)"/>
    </g>
    <g id="Group_294" data-name="Group 294" transform="translate(89.404 104.139)" opacity="0.1">
      <circle id="Ellipse_629" data-name="Ellipse 629" cx="4.876" cy="4.876" r="4.876"/>
    </g>
    <circle id="Ellipse_630" data-name="Ellipse 630" cx="4.876" cy="4.876" r="4.876" transform="translate(89.404 104.279)" fill="#00a8cc"/>
    <circle id="Ellipse_631" data-name="Ellipse 631" cx="3.194" cy="3.194" r="3.194" transform="translate(91.086 105.961)" fill="#333"/>
    <circle id="Ellipse_632" data-name="Ellipse 632" cx="0.975" cy="0.975" r="0.975" transform="translate(93.305 108.18)" fill="#00a8cc"/>
    <rect id="Rectangle_766" data-name="Rectangle 766" width="3.901" height="0.14" transform="translate(95.181 94.761) rotate(11.05)" opacity="0.05"/>
    <rect id="Rectangle_767" data-name="Rectangle 767" width="4.739" height="11.566" rx="2.369" transform="translate(64.569 162.727) rotate(-25.74)" fill="#cbdae3"/>
    <rect id="Rectangle_768" data-name="Rectangle 768" width="4.739" height="11.566" rx="1.45" transform="translate(64.569 162.727) rotate(-25.74)" fill="#535461"/>
    <rect id="Rectangle_769" data-name="Rectangle 769" width="4.876" height="11.566" rx="1.64" transform="translate(64.944 162.547) rotate(-25.74)" fill="#00a8cc"/>
    <rect id="Rectangle_770" data-name="Rectangle 770" width="3.685" height="8.78" transform="translate(65.844 163.041) rotate(-25.74)" fill="#f2f2f2"/>
    <ellipse id="Ellipse_633" data-name="Ellipse 633" cx="0.418" cy="0.558" rx="0.418" ry="0.558" transform="translate(71.186 170.678) rotate(-25.74)" fill="#f2f2f2"/>
    <g id="Group_295" data-name="Group 295" transform="translate(97.474 162.316)" opacity="0.1">
      <path id="Path_1778" data-name="Path 1778" d="M362.4,572.838a16.007,16.007,0,0,1,5.723,1.127,9.1,9.1,0,0,0,6.012,0S365.329,571.411,362.4,572.838Z" transform="translate(-362.4 -572.405)"/>
    </g>
    <path id="Path_1779" data-name="Path 1779" d="M694.52,754.23s1.816,2.374-.838,5.959-4.841,6.611-3.956,8.844c0,0,4-6.657,7.262-6.751S698.106,758.233,694.52,754.23Z" transform="translate(-496.534 -538.823)" fill="#00a8cc"/>
    <path id="Path_1780" data-name="Path 1780" d="M694.771,754.23a2.917,2.917,0,0,1,.371.745c3.18,3.734,4.876,7.221,1.819,7.3-2.847.082-6.263,5.174-7.081,6.459a2.636,2.636,0,0,0,.1.292s4-6.657,7.262-6.751S698.357,758.233,694.771,754.23Z" transform="translate(-496.785 -538.823)" opacity="0.1"/>
    <path id="Path_1781" data-name="Path 1781" d="M717.178,763.293c0,.838-.093,1.515-.207,1.515s-.21-.677-.21-1.515.117-.441.234-.441S717.178,762.458,717.178,763.293Z" transform="translate(-515.816 -544.861)" fill="#ffd037"/>
    <path id="Path_1782" data-name="Path 1782" d="M718.688,766.613c-.733.4-1.372.642-1.428.54s.494-.508,1.226-.908.447-.108.5,0S719.421,766.215,718.688,766.613Z" transform="translate(-516.168 -547.185)" fill="#ffd037"/>
    <path id="Path_1783" data-name="Path 1783" d="M663.91,754.23s-1.816,2.374.838,5.959,4.841,6.611,3.956,8.844c0,0-4-6.657-7.262-6.751S660.325,758.233,663.91,754.23Z" transform="translate(-475.513 -538.823)" fill="#00a8cc"/>
    <path id="Path_1784" data-name="Path 1784" d="M663.91,754.23a2.921,2.921,0,0,0-.371.745c-3.18,3.734-4.873,7.221-1.816,7.3,2.847.082,6.26,5.174,7.078,6.459a2.636,2.636,0,0,1-.1.292s-4-6.657-7.262-6.751S660.325,758.233,663.91,754.23Z" transform="translate(-475.513 -538.823)" opacity="0.1"/>
    <path id="Path_1785" data-name="Path 1785" d="M662.23,763.293c0,.838.093,1.515.21,1.515s.21-.677.21-1.515-.12-.441-.234-.441S662.23,762.458,662.23,763.293Z" transform="translate(-477.208 -544.861)" fill="#ffd037"/>
    <path id="Path_1786" data-name="Path 1786" d="M657.18,766.613c.736.4,1.375.642,1.431.54s-.5-.508-1.229-.908-.444-.108-.5,0S656.447,766.215,657.18,766.613Z" transform="translate(-473.318 -547.185)" fill="#ffd037"/>
    <path id="Path_1787" data-name="Path 1787" d="M664.21,797.219s5.078-.158,6.608-1.247,7.808-2.388,8.176-.642,7.627,8.69,1.9,8.736-13.318-.893-14.845-1.825S664.21,797.219,664.21,797.219Z" transform="translate(-478.61 -567.317)" fill="#a8a8a8"/>
    <path id="Path_1788" data-name="Path 1788" d="M681.005,810.093c-5.732.047-13.318-.891-14.845-1.822-1.168-.707-1.626-3.25-1.781-4.421h-.169s.321,4.088,1.848,5.022,9.113,1.872,14.845,1.825c1.653-.015,2.225-.6,2.193-1.475C682.868,809.754,682.235,810.084,681.005,810.093Z" transform="translate(-478.61 -573.954)" opacity="0.2"/>
    <path id="Path_1789" data-name="Path 1789" d="M609.832,806.287a2.7,2.7,0,0,0,.876-1.337,1.186,1.186,0,0,0-.619-1.358,1.71,1.71,0,0,0-1.635.584,2.161,2.161,0,0,1-1.591.768,2.418,2.418,0,0,0,.747-2.266.951.951,0,0,0-.207-.461c-.315-.336-.876-.19-1.264.076-1.2.844-1.536,2.473-1.542,3.942a7.348,7.348,0,0,1-.023-1.623,1.666,1.666,0,0,0-.61-1.437,1.811,1.811,0,0,0-.928-.219,1.913,1.913,0,0,0-1.51.429,1.5,1.5,0,0,0,.058,1.851,5.961,5.961,0,0,0,1.562,1.253,3.416,3.416,0,0,1,1.115,1.066.878.878,0,0,1,.085.19h3.384A9.4,9.4,0,0,0,609.832,806.287Z" transform="translate(-434.019 -572.66)" fill="#00a8cc"/>
    <path id="Path_1790" data-name="Path 1790" d="M549.03,724.867s-3.247-11.017.607-19.125a17.4,17.4,0,0,0,1.4-10.918,29.545,29.545,0,0,0-1.545-5.124" transform="translate(-396.156 -493.135)" fill="none" stroke="#535461" stroke-miterlimit="10" stroke-width="2"/>
    <path id="Path_1791" data-name="Path 1791" d="M550.141,666.422c0,1.349-2.447,5.256-2.447,5.256s-2.444-3.916-2.444-5.256a2.447,2.447,0,0,1,4.891,0Z" transform="translate(-394.385 -474.981)" fill="#00a8cc"/>
    <path id="Path_1792" data-name="Path 1792" d="M563.874,688.609c-.736,1.136-4.914,3.092-4.914,3.092s.076-4.616.809-5.749a2.445,2.445,0,0,1,4.105,2.657Z" transform="translate(-404.092 -489.69)" fill="#00a8cc"/>
    <path id="Path_1793" data-name="Path 1793" d="M561.112,730.309c-1.206.61-5.8.19-5.8.19s2.394-3.948,3.6-4.555a2.445,2.445,0,0,1,2.2,4.365Z" transform="translate(-401.508 -518.61)" fill="#00a8cc"/>
    <path id="Path_1794" data-name="Path 1794" d="M553.478,763.85c-1.086.8-5.688,1.168-5.688,1.168s1.693-4.3,2.78-5.1a2.449,2.449,0,0,1,2.92,3.933Z" transform="translate(-396.184 -542.509)" fill="#00a8cc"/>
    <path id="Path_1795" data-name="Path 1795" d="M539.585,699.069c.966.94,5.481,1.915,5.481,1.915s-1.107-4.482-2.073-5.422a2.444,2.444,0,1,0-3.408,3.5Z" transform="translate(-389.85 -496.795)" fill="#00a8cc"/>
    <path id="Path_1796" data-name="Path 1796" d="M529.335,736.781c1.206.61,5.8.19,5.8.19s-2.394-3.948-3.6-4.555a2.451,2.451,0,0,0-2.2,4.38Z" transform="translate(-382.161 -523.193)" fill="#00a8cc"/>
    <path id="Path_1797" data-name="Path 1797" d="M526.825,776.079c1.086.8,5.688,1.168,5.688,1.168s-1.694-4.3-2.78-5.1a2.448,2.448,0,1,0-2.92,3.93Z" transform="translate(-380.632 -551.167)" fill="#00a8cc"/>
    <path id="Path_1798" data-name="Path 1798" d="M550.141,666.422c0,1.349-2.447,5.256-2.447,5.256s-2.444-3.916-2.444-5.256a2.447,2.447,0,0,1,4.891,0Z" transform="translate(-394.385 -474.981)" fill="#00a8cc"/>
    <path id="Path_1799" data-name="Path 1799" d="M563.874,688.609c-.736,1.136-4.914,3.092-4.914,3.092s.076-4.616.809-5.749a2.445,2.445,0,0,1,4.105,2.657Z" transform="translate(-404.092 -489.69)" fill="#00a8cc"/>
    <path id="Path_1800" data-name="Path 1800" d="M561.112,730.309c-1.206.61-5.8.19-5.8.19s2.394-3.948,3.6-4.555a2.445,2.445,0,0,1,2.2,4.365Z" transform="translate(-401.508 -518.61)" fill="#00a8cc"/>
    <path id="Path_1801" data-name="Path 1801" d="M553.478,763.85c-1.086.8-5.688,1.168-5.688,1.168s1.693-4.3,2.78-5.1a2.449,2.449,0,0,1,2.92,3.933Z" transform="translate(-396.184 -542.509)" fill="#00a8cc"/>
    <path id="Path_1802" data-name="Path 1802" d="M539.585,699.069c.966.94,5.481,1.915,5.481,1.915s-1.107-4.482-2.073-5.422a2.444,2.444,0,1,0-3.408,3.5Z" transform="translate(-389.85 -496.795)" fill="#00a8cc"/>
    <path id="Path_1803" data-name="Path 1803" d="M529.335,736.781c1.206.61,5.8.19,5.8.19s-2.394-3.948-3.6-4.555a2.451,2.451,0,0,0-2.2,4.38Z" transform="translate(-382.161 -523.193)" fill="#00a8cc"/>
    <path id="Path_1804" data-name="Path 1804" d="M526.825,776.079c1.086.8,5.688,1.168,5.688,1.168s-1.694-4.3-2.78-5.1a2.448,2.448,0,1,0-2.92,3.93Z" transform="translate(-380.632 -551.167)" fill="#00a8cc"/>
    <path id="Path_1805" data-name="Path 1805" d="M525.86,798.415s3.951-.786,5-1.831,5.8-2.876,6.322-1.571,7.113,5.755,2.628,6.541-10.535,1.045-11.852.523S525.86,798.415,525.86,798.415Z" transform="translate(-380.657 -567.378)" fill="#a8a8a8"/>
    <path id="Path_1806" data-name="Path 1806" d="M539.823,810.319c-4.479.785-10.538,1.045-11.855.523-1-.4-1.7-2.312-1.977-3.212l-.131.029s.791,3.139,2.108,3.661,7.376.26,11.855-.523c1.291-.228,1.661-.759,1.521-1.434C541.233,809.814,540.792,810.15,539.823,810.319Z" transform="translate(-380.657 -576.631)" opacity="0.2"/>
  </g>
</svg>
