<svg xmlns="http://www.w3.org/2000/svg" width="327.173" height="277" viewBox="0 0 327.173 277">
  <g id="org-illustration" transform="translate(0 0)">
    <path id="Path_4004" data-name="Path 4004" d="M292.715,297.616C210.554,291.363,112.572,227.7,117.56,162.151S217.445,35.578,299.607,41.831s129.456,128.755,124.47,194.306S374.877,303.868,292.715,297.616Z" transform="translate(-117.377 -41.388)" fill="#f2f2f2"/>
    <rect id="Rectangle_1301" data-name="Rectangle 1301" width="155.918" height="161.342" transform="translate(0.422 24.068)" fill="#3f3d56"/>
    <path id="Path_4005" data-name="Path 4005" d="M285.995,254.406c-.257-.006-.514-.01-.772-.01a32.523,32.523,0,1,0,28.622,17.048l-26.928,20.236Z" transform="translate(-206.841 -182.197)" fill="none"/>
    <path id="Path_4006" data-name="Path 4006" d="M286.725,244.341A32.544,32.544,0,1,1,258.1,227.293c.258,0,.515,0,.772.01l-.344-13.9c-.143,0-.285-.005-.428-.005a46.423,46.423,0,1,0,39.817,22.532Z" transform="translate(-179.721 -155.093)" fill="#00a8cc"/>
    <path id="Path_4007" data-name="Path 4007" d="M378.079,244.352l11.195-8.413a46.409,46.409,0,0,0-39.389-22.527l.344,13.9A32.535,32.535,0,0,1,378.079,244.352Z" transform="translate(-271.076 -155.104)" fill="#00a8cc" opacity="0.3"/>
    <line id="Line_52" data-name="Line 52" x2="16.307" y2="16.461" transform="translate(101.732 144.883)" fill="none" stroke="#2f2e41" stroke-miterlimit="10" stroke-width="2"/>
    <line id="Line_53" data-name="Line 53" x1="11.334" y2="20.209" transform="translate(101.507 44.035)" fill="none" stroke="#2f2e41" stroke-miterlimit="10" stroke-width="2"/>
    <rect id="Rectangle_1302" data-name="Rectangle 1302" width="26.777" height="6.101" transform="translate(104.82 161.344)" fill="#f2f2f2"/>
    <rect id="Rectangle_1303" data-name="Rectangle 1303" width="26.777" height="6.101" transform="translate(98.718 37.965)" fill="#f2f2f2"/>
    <rect id="Rectangle_1304" data-name="Rectangle 1304" width="155.918" height="65.079" transform="translate(171.254 22.712)" fill="#3f3d56"/>
    <path id="Path_4008" data-name="Path 4008" d="M772.319,215.411H754.694a61.648,61.648,0,0,1,0-21.015h17.626a37.813,37.813,0,0,0,0,21.015Z" transform="translate(-538.077 -142.534)" fill="#ff6584"/>
    <path id="Path_4009" data-name="Path 4009" d="M917.65,215.411H900.025a61.645,61.645,0,0,1,0-21.015H917.65a37.813,37.813,0,0,0,0,21.015Z" transform="translate(-634.148 -142.534)" fill="#ff6584"/>
    <path id="Path_4010" data-name="Path 4010" d="M698.489,173.411H680.864a61.645,61.645,0,0,1,0-21.015h17.626a37.813,37.813,0,0,0,0,21.015Z" transform="translate(-489.272 -114.77)" fill="#00a8cc"/>
    <path id="Path_4011" data-name="Path 4011" d="M827.623,173.411h17.626a61.645,61.645,0,0,0,0-21.015H827.623a37.814,37.814,0,0,1,0,21.015Z" transform="translate(-586.883 -114.77)" fill="#00a8cc"/>
    <path id="Path_4012" data-name="Path 4012" d="M970.623,173.411h17.626a61.645,61.645,0,0,0,0-21.015H970.623a37.814,37.814,0,0,1,0,21.015Z" transform="translate(-681.413 -114.77)" fill="#00a8cc"/>
    <path id="Path_4013" data-name="Path 4013" d="M720.949,790.029c0,6.759-31.583,20.071-70.333,20.071s-69.994-13.312-69.994-20.071,31.244-4.406,69.994-4.406S720.949,783.27,720.949,790.029Z" transform="translate(-423.604 -533.1)" fill="#3f3d56"/>
    <path id="Path_4014" data-name="Path 4014" d="M720.949,790.029c0,6.759-31.583,20.071-70.333,20.071s-69.994-13.312-69.994-20.071,31.244-4.406,69.994-4.406S720.949,783.27,720.949,790.029Z" transform="translate(-423.604 -533.1)" opacity="0.1"/>
    <ellipse id="Ellipse_1139" data-name="Ellipse 1139" cx="70.163" cy="12.239" rx="70.163" ry="12.239" transform="translate(156.849 244.726)" fill="#3f3d56"/>
    <ellipse id="Ellipse_1140" data-name="Ellipse 1140" cx="54.91" cy="9.578" rx="54.91" ry="9.578" transform="translate(172.102 247.387)" opacity="0.1"/>
    <path id="Path_4015" data-name="Path 4015" d="M679.489,544.411H661.864a61.645,61.645,0,0,1,0-21.015h17.626A37.813,37.813,0,0,0,679.489,544.411Z" transform="translate(-476.712 -360.018)" fill="#00a8cc"/>
    <path id="Path_4016" data-name="Path 4016" d="M860.837,271.444l2.424,1.212s13.129,32.923,8.685,40.8-18.38,22.622-18.38,22.622l-2.626-7.473,10.739-23.282Z" transform="translate(-602.297 -193.466)" fill="#575a89"/>
    <path id="Path_4017" data-name="Path 4017" d="M860.837,271.444l2.424,1.212s13.129,32.923,8.685,40.8-18.38,22.622-18.38,22.622l-2.626-7.473,10.739-23.282Z" transform="translate(-602.297 -193.466)" opacity="0.1"/>
    <path id="Path_4018" data-name="Path 4018" d="M852.987,757.1s3.434,7.877,1.616,8.483a20.632,20.632,0,0,1-6.261.606c-2.222,0-4.848-.808-5.252-1.616s1.616-6.059,1.616-6.059Z" transform="translate(-597.072 -514.51)" fill="#f2f2f2"/>
    <path id="Path_4019" data-name="Path 4019" d="M715.71,766.265s2.222,7.069,1.212,7.473-4.242,2.222-6.059,1.616a20.9,20.9,0,0,1-5.252-2.626c-.606-.606,0-3.838,0-3.838l2.828-4.04Z" transform="translate(-506.049 -519.631)" fill="#f2f2f2"/>
    <path id="Path_4020" data-name="Path 4020" d="M754.114,453.816l2.9,1.01s.74,6.867-.068,9.291-2.626,20-1.616,23.632.4,9.493.4,9.493,6.059,19.794,4.848,24.036-1.01,10.3.2,13.331,2.222,4.242,1.616,6.665-1.818,3.636-.606,5.656,3.636,2.626,2.424,4.444-2.424,3.232-2.02,4.444-10.705,3.434-11.715,1.616c0,0,3.232-2.828,0-4.444s-2.222-7.675-2.222-7.675-5.656-23.228-5.454-25.046-8.887-30.1-8.887-30.1-13.331,40.4-14.139,42.215,1.01,6.261,0,7.473.4,4.242-1.01,5.454,2.424,5.655,0,7.271-3.636,6.665-3.434,7.675-10.1-.2-10.1-1.616a10.273,10.273,0,0,0-.808-5.049c-1.01-2.424-1.616-4.04-.808-4.848s1.414-1.818.606-4.646,1.212-11.513.606-13.129-.4-12.523-.4-12.523,2.02-15.957,1.414-18.582a6.467,6.467,0,0,1,.2-4.242c.2-1.01,1.414-11.917,2.222-13.533s1.818-29.287,6.464-30.7S754.114,453.816,754.114,453.816Z" transform="translate(-504.662 -312.214)" fill="#2f2e41"/>
    <path id="Path_4021" data-name="Path 4021" d="M834.062,769.337s7.271-1.212,7.675,0,1.616,10.705-1.212,10.907-7.675.808-8.483-1.01-4.646-3.03-4.646-3.03-5.656-1.616-5.656-3.434.2-4.646,1.212-4.848S828,765.5,828,764.691,834.062,769.337,834.062,769.337Z" transform="translate(-582.995 -519.472)" fill="#2f2e41"/>
    <path id="Path_4022" data-name="Path 4022" d="M693.642,777.468s5.252-1.616,6.463-.606,2.828,12.119,0,11.917-10.3,1.01-10.705-.606-5.857-2.02-5.857-2.02-5.857-2.828-5.454-5.857,1.01-4.04,3.434-4.242,4.242-3.03,4.444-3.232,1.983-1.678,2.2-.031S691.016,778.074,693.642,777.468Z" transform="translate(-488.021 -524.371)" fill="#2f2e41"/>
    <circle id="Ellipse_1141" data-name="Ellipse 1141" cx="12.321" cy="12.321" r="12.321" transform="translate(209.863 32.734)" fill="#ffb9b9"/>
    <path id="Path_4023" data-name="Path 4023" d="M775.953,182.654s.808,13.533,3.838,14.745-15.351,1.212-15.351,1.212-.2-8.483-2.828-10.5S775.953,182.654,775.953,182.654Z" transform="translate(-543.065 -134.772)" fill="#ffb9b9"/>
    <path id="Path_4024" data-name="Path 4024" d="M755.981,214.366s-12.523-4.646-16.967,2.626c0,0-14.139,6.665-15.149,10.705s8.483,34.337,8.483,34.337,0,25.046-2.02,27.672-5.857,5.453-3.232,6.059,43.83,5.05,43.628,2.424-2.828-4.848,0-6.463.4-3.434,2.222-8.685,6.261-48.678,6.261-48.678-3.03-5.454-3.636-6.06S755.981,214.366,755.981,214.366Z" transform="translate(-518.245 -154.768)" fill="#575a89"/>
    <path id="Path_4025" data-name="Path 4025" d="M704.644,478.222s-7.877,17.774-1.01,20.2,6.463-18.784,6.463-18.784Z" transform="translate(-503.063 -330.156)" fill="#ffb9b9"/>
    <path id="Path_4026" data-name="Path 4026" d="M755.878,145.881c-.714-1.431-1.783-3.082-3.38-2.995a5.836,5.836,0,0,0-2.224.915,2.274,2.274,0,0,1-2.3.127c-.963-.688-.664-2.318-1.525-3.13-.94-.885-2.83-.391-3.437-1.531-.324-.609-.062-1.364-.2-2.039a7.343,7.343,0,0,1-2.911-.338,2.226,2.226,0,0,1-.774-3.947c1.242-1.129,3.038-1.346,4.57-2.03,1.219-.545,2.279-1.394,3.478-1.984a13.008,13.008,0,0,1,6.734-1.036,15.382,15.382,0,0,1,9.509,3.826c2.52,2.408,3.854,6.206,2.767,9.517-.616,1.876-1.921,3.454-2.649,5.289a18.518,18.518,0,0,0-.923,3.88l-.511,3.137c.08-.488-.992-1.713-1.344-2-.767-.636-1.882-.42-2.594-1.009C757.107,149.66,756.5,147.123,755.878,145.881Z" transform="translate(-527.784 -98.535)" fill="#2f2e41"/>
    <path id="Path_4027" data-name="Path 4027" d="M719.193,252.15l-3.232,2.02s-5.252,31.711-4.646,36.155-2.424,29.489-1.414,31.509,1.414,2.424,1.414,3.636-2.828,5.655-1.01,6.463,8.483,2.222,8.483,0-1.212-5.252,1.01-6.665,3.838-10.5,3.838-10.5,1.01-9.291,2.02-11.109,2.424-8.483,2.424-11.311,2.424-14.341,1.01-20.2S727.272,250.534,719.193,252.15Z" transform="translate(-508.927 -180.635)" opacity="0.1"/>
    <path id="Path_4028" data-name="Path 4028" d="M715.021,250.361l-3.232,2.02s-5.252,31.711-4.646,36.155-2.424,29.489-1.414,31.509,1.414,2.424,1.414,3.636-2.828,5.656-1.01,6.463,8.483,2.222,8.483,0-1.212-5.252,1.01-6.665,3.838-10.5,3.838-10.5,1.01-9.291,2.02-11.109,2.424-8.483,2.424-11.311,2.424-14.341,1.01-20.2S723.1,248.746,715.021,250.361Z" transform="translate(-506.169 -179.453)" fill="#575a89"/>
  </g>
</svg>
