<svg id="org-icon" xmlns="http://www.w3.org/2000/svg" width="73.765" height="73.765" viewBox="0 0 73.765 73.765">
  <path id="Path_557" data-name="Path 557" d="M15.128,151A15.12,15.12,0,0,0,4.846,177.213a11.947,11.947,0,0,1,6.992-5.5,6.483,6.483,0,1,1,6.579,0,11.947,11.947,0,0,1,6.992,5.5A15.12,15.12,0,0,0,15.128,151Z" transform="translate(0 -129.245)" fill="#f2ffff"/>
  <path id="Path_558" data-name="Path 558" d="M65.133,321.479a7.577,7.577,0,0,0-6.711,4.121,15.1,15.1,0,0,0,13.421,0A7.576,7.576,0,0,0,65.133,321.479Z" transform="translate(-50.005 -275.163)" fill="#f2ffff"/>
  <ellipse id="Ellipse_462" data-name="Ellipse 462" cx="2" cy="2.5" rx="2" ry="2.5" transform="translate(12.903 34.196)" fill="#f2ffff"/>
  <path id="Path_559" data-name="Path 559" d="M306.846,26.213a11.947,11.947,0,0,1,6.992-5.5,6.483,6.483,0,1,1,6.579,0,11.947,11.947,0,0,1,6.992,5.5,15.128,15.128,0,1,0-20.564,0Z" transform="translate(-258.49 0)" fill="#f2ffff"/>
  <path id="Path_560" data-name="Path 560" d="M360.422,174.6a15.1,15.1,0,0,0,13.421,0,7.524,7.524,0,0,0-13.421,0Z" transform="translate(-308.495 -145.918)" fill="#f2ffff"/>
  <circle id="Ellipse_463" data-name="Ellipse 463" cx="2" cy="2" r="2" transform="translate(56.903 13.196)" fill="#f2ffff"/>
  <path id="Path_561" data-name="Path 561" d="M317.128,302a15.12,15.12,0,0,0-10.282,26.213,11.947,11.947,0,0,1,6.992-5.5,6.483,6.483,0,1,1,6.579,0,11.947,11.947,0,0,1,6.992,5.5A15.12,15.12,0,0,0,317.128,302Z" transform="translate(-258.49 -258.49)" fill="#f2ffff"/>
  <path id="Path_562" data-name="Path 562" d="M367.133,472.478a7.577,7.577,0,0,0-6.711,4.121,15.1,15.1,0,0,0,13.421,0A7.577,7.577,0,0,0,367.133,472.478Z" transform="translate(-308.495 -404.407)" fill="#f2ffff"/>
  <ellipse id="Ellipse_464" data-name="Ellipse 464" cx="2" cy="2.5" rx="2" ry="2.5" transform="translate(56.903 56.196)" fill="#f2ffff"/>
  <path id="Path_563" data-name="Path 563" d="M213.64,144.885a19.463,19.463,0,0,1,2.167,3.74l8.487-4.9a19.313,19.313,0,0,1-1.594-4.07Z" transform="translate(-182.861 -119.535)" fill="#f2ffff"/>
  <path id="Path_564" data-name="Path 564" d="M213.64,313.826l9.059,5.23a19.319,19.319,0,0,1,1.594-4.07l-8.487-4.9A19.451,19.451,0,0,1,213.64,313.826Z" transform="translate(-182.861 -265.411)" fill="#f2ffff"/>
</svg>
