<svg xmlns="http://www.w3.org/2000/svg" width="62" height="62" viewBox="0 0 62 62">
  <g id="organization-icon" transform="translate(-1 -1)">
    <path id="Path_1327" data-name="Path 1327" d="M23,5H33V7H23Z" fill="#35a9bc"/>
    <path id="Path_1328" data-name="Path 1328" d="M23,9H33v2H23Z" fill="#35a9bc"/>
    <path id="Path_1329" data-name="Path 1329" d="M27,13h2v2H27Z" fill="#35a9bc"/>
    <path id="Path_1330" data-name="Path 1330" d="M23,13h2v2H23Z" fill="#35a9bc"/>
    <path id="Path_1331" data-name="Path 1331" d="M31,13h2v2H31Z" fill="#35a9bc"/>
    <path id="Path_1332" data-name="Path 1332" d="M38.121,36.293,41.414,33H56.607a4.788,4.788,0,0,0,4.762-4.261l1.6-14.418A4.958,4.958,0,0,0,63,13.79,4.8,4.8,0,0,0,58.21,9H36.673l.3-2.68A4.925,4.925,0,0,0,37,5.79,4.8,4.8,0,0,0,32.21,1H5.79A4.8,4.8,0,0,0,1,5.79a4.907,4.907,0,0,0,.029.529l1.6,14.42A4.787,4.787,0,0,0,7.393,25H17v8H13V29H1V39H13V35h4V45H13V41H1V51H13V47h4V57H13V53H1V63H13V59h6V47H30v3h5v4H30v8H42V59h8v3H62V54H57V50h5V42H50v3H42V42H37V36.918a2.421,2.421,0,0,0,1.121-.625ZM11,37H3V31h8Zm0,12H3V43h8Zm0,12H3V55h8ZM47,18a3,3,0,1,1,3,3A3,3,0,0,1,47,18Zm9,13H44V29a6,6,0,0,1,12,0ZM36.451,11H58.21A2.793,2.793,0,0,1,61,13.79a2.664,2.664,0,0,1-.018.308l-1.6,14.419A2.777,2.777,0,0,1,58,30.621V29A8.005,8.005,0,0,0,53.3,21.723a5,5,0,1,0-6.609,0A8.005,8.005,0,0,0,42,29v2H40.586l-3.879,3.879A.43.43,0,0,1,36,34.586V31H33.393a2.787,2.787,0,0,1-2.773-2.482L30.229,25h.379a4.788,4.788,0,0,0,4.762-4.261ZM4.619,20.518,3.018,6.1A2.634,2.634,0,0,1,3,5.79,2.793,2.793,0,0,1,5.79,3H32.21A2.793,2.793,0,0,1,35,5.79a2.664,2.664,0,0,1-.018.308l-1.6,14.419A2.786,2.786,0,0,1,30.607,23H26v3.586a.43.43,0,0,1-.707.293L22,23.586V21A8.005,8.005,0,0,0,17.3,13.723a5,5,0,1,0-6.61,0A8.005,8.005,0,0,0,6,21v1.622a2.779,2.779,0,0,1-1.381-2.1ZM11,10a3,3,0,1,1,3,3A3,3,0,0,1,11,10Zm9,13H8V21a6,6,0,0,1,12,0ZM40,60H32V56h8Zm20,0H52V56h8ZM52,44h8v4H52Zm-2,3v3h5v4H50v3H42V54H37V50h5V47ZM40,48H32V44h8ZM30,42v3H19V25h1.586l3.292,3.292A2.414,2.414,0,0,0,28,26.586V25h.216l.415,3.739A4.787,4.787,0,0,0,33.393,33H34v1.586a2.4,2.4,0,0,0,1,1.947V42Z" fill="#35a9bc"/>
    <path id="Path_1333" data-name="Path 1333" d="M5,57H9v2H5Z" fill="#35a9bc"/>
    <path id="Path_1334" data-name="Path 1334" d="M5,45H9v2H5Z" fill="#35a9bc"/>
    <path id="Path_1335" data-name="Path 1335" d="M5,33H9v2H5Z" fill="#35a9bc"/>
  </g>
</svg>
