<svg xmlns="http://www.w3.org/2000/svg" width="682.967" height="371.185" viewBox="0 0 682.967 371.185">
  <g id="page-not-found" transform="translate(0.153)">
    <ellipse id="Ellipse_1011" data-name="Ellipse 1011" cx="335.142" cy="22.187" rx="335.142" ry="22.187" transform="translate(8.35 326.811)" fill="#f2f2f2"/>
    <path id="Path_3514" data-name="Path 3514" d="M529.638,324.894c-54.6,0-93.809,35.032-93.809,116.774,0,92.641,39.2,117.164,93.809,117.164s96.144-26.858,96.144-117.164C625.782,345.135,584.241,324.894,529.638,324.894ZM530,528.081c-37.82,0-57.578-22.188-57.578-86.353,0-56.616,20.567-86.473,58.387-86.473s58.387,19.611,58.387,86.473c0,62.548-21.377,86.354-59.2,86.354Z" transform="translate(-198.99 -218.786)" fill="#2f2e41"/>
    <path id="Path_3515" data-name="Path 3515" d="M287.181,499.493H264.6V433.011A13.314,13.314,0,0,0,251.29,419.7H246a13.314,13.314,0,0,0-13.314,13.314v66.481h-63.68a7.6,7.6,0,0,1-6.72-11.151l67.4-127.564a13.314,13.314,0,0,0-6.087-18.259l-3.979-1.879a13.314,13.314,0,0,0-17.427,5.763l-82.2,153.773a18.054,18.054,0,0,0-2.132,8.511h0a18.054,18.054,0,0,0,18.054,18.054h96.774v42.039a15.959,15.959,0,0,0,15.959,15.959h0A15.959,15.959,0,0,0,264.6,568.779V526.74h22.576A13.624,13.624,0,0,0,300.8,513.116h0a13.624,13.624,0,0,0-13.624-13.624Z" transform="translate(-83.039 -224.062)" fill="#00a8cc"/>
    <path id="Path_3516" data-name="Path 3516" d="M945.177,499.493H922.6V433.011A13.314,13.314,0,0,0,909.287,419.7H904a13.314,13.314,0,0,0-13.314,13.314v66.481H827a7.6,7.6,0,0,1-6.72-11.151l67.4-127.564a13.314,13.314,0,0,0-6.087-18.259l-3.979-1.879a13.314,13.314,0,0,0-17.427,5.763l-82.2,153.773a18.054,18.054,0,0,0-2.132,8.511h0a18.054,18.054,0,0,0,18.054,18.054h96.774v42.039a15.959,15.959,0,0,0,15.959,15.959h0A15.959,15.959,0,0,0,922.6,568.779V526.74h22.576A13.624,13.624,0,0,0,958.8,513.116h0a13.624,13.624,0,0,0-13.624-13.624Z" transform="translate(-322.983 -224.062)" fill="#00a8cc"/>
    <path id="Path_3517" data-name="Path 3517" d="M296.984,487.24H274.408V420.758a13.314,13.314,0,0,0-13.314-13.314H255.8a13.314,13.314,0,0,0-13.314,13.314V487.24H178.809a7.6,7.6,0,0,1-6.72-11.152l67.4-127.564a13.314,13.314,0,0,0-6.087-18.259l-3.979-1.879a13.314,13.314,0,0,0-17.427,5.763l-82.2,153.773a18.054,18.054,0,0,0-2.132,8.511h0a18.054,18.054,0,0,0,18.054,18.054h96.774v42.039a15.959,15.959,0,0,0,15.959,15.959h0a15.959,15.959,0,0,0,15.959-15.959V514.487h22.576a13.624,13.624,0,0,0,13.624-13.624h0a13.624,13.624,0,0,0-13.623-13.624Z" transform="translate(-86.613 -219.594)" fill="none" stroke="#3f3d56" stroke-miterlimit="10" stroke-width="1"/>
    <path id="Path_3518" data-name="Path 3518" d="M963.556,487.24H940.98V420.758a13.314,13.314,0,0,0-13.314-13.314h-5.289a13.314,13.314,0,0,0-13.314,13.314V487.24h-63.68a7.6,7.6,0,0,1-6.72-11.151l67.4-127.564a13.314,13.314,0,0,0-6.087-18.259l-3.979-1.879a13.314,13.314,0,0,0-17.427,5.763l-82.2,153.773a18.054,18.054,0,0,0-2.132,8.511h0a18.054,18.054,0,0,0,18.054,18.054h96.774v42.039a15.959,15.959,0,0,0,15.959,15.959h0a15.959,15.959,0,0,0,15.959-15.959V514.487h22.576a13.624,13.624,0,0,0,13.624-13.624h0a13.624,13.624,0,0,0-13.624-13.624Z" transform="translate(-329.686 -219.594)" fill="none" stroke="#3f3d56" stroke-miterlimit="10" stroke-width="1"/>
    <path id="Path_3519" data-name="Path 3519" d="M549.243,313.866c-54.6,0-93.809,35.032-93.809,116.774,0,92.641,39.2,117.164,93.809,117.164s96.144-26.858,96.144-117.164C645.387,334.107,603.846,313.866,549.243,313.866Zm.359,203.187c-37.82,0-57.578-22.188-57.578-86.353,0-56.616,20.567-86.473,58.387-86.473S608.8,363.839,608.8,430.7c0,62.548-21.376,86.354-59.2,86.354Z" transform="translate(-206.139 -214.765)" fill="none" stroke="#3f3d56" stroke-miterlimit="10" stroke-width="1"/>
    <circle id="Ellipse_1012" data-name="Ellipse 1012" cx="8.197" cy="8.197" r="8.197" transform="translate(291.139 3.399)" fill="#2f2e41"/>
    <ellipse id="Ellipse_1013" data-name="Ellipse 1013" cx="22.991" cy="29.788" rx="22.991" ry="29.788" transform="translate(296.336 0)" fill="#2f2e41"/>
    <path id="Path_3520" data-name="Path 3520" d="M552.465,222.979c-11.517,0-21.056-10.973-22.73-25.29a38.734,38.734,0,0,0-.261,4.5c0,16.451,10.293,29.788,22.991,29.788s22.991-13.336,22.991-29.788a38.748,38.748,0,0,0-.261-4.5C573.522,212.006,563.983,222.979,552.465,222.979Z" transform="translate(-233.139 -172.4)" opacity="0.1"/>
    <path id="Path_3521" data-name="Path 3521" d="M619.329,337.328c-.494,2.029-2.623,3.654-4.98,4.789-4.957,2.387-11.071,3.1-17,3.338a28.7,28.7,0,0,1-4.539-.084,13.048,13.048,0,0,1-7.783-3.578,1.068,1.068,0,0,1,.028-1.807c3.157-3.468,8.426-5.595,13.734-7.126,4.024-1.161,11.043-4.168,15.432-3.763C618.47,329.492,619.952,334.766,619.329,337.328Z" transform="translate(-253.218 -220.306)" fill="#3f3d56"/>
    <path id="Path_3522" data-name="Path 3522" d="M619.329,337.328c-.494,2.029-2.623,3.654-4.98,4.789-4.957,2.387-11.071,3.1-17,3.338a28.7,28.7,0,0,1-4.539-.084,13.048,13.048,0,0,1-7.783-3.578,1.068,1.068,0,0,1,.028-1.807c3.157-3.468,8.426-5.595,13.734-7.126,4.024-1.161,11.043-4.168,15.432-3.763C618.47,329.492,619.952,334.766,619.329,337.328Z" transform="translate(-253.218 -220.306)" opacity="0.1"/>
    <path id="Path_3523" data-name="Path 3523" d="M539.31,299.189a12.561,12.561,0,0,0-.762,9.578,16.734,16.734,0,0,0,5.61,7.94c6.414,5.141,15.24,5.848,23.46,5.777a180.853,180.853,0,0,0,21.541-1.476,25.754,25.754,0,0,0,6.99-1.623,10.714,10.714,0,0,0,6-6.052,7.373,7.373,0,0,0-1.991-7.989c-1.993-1.62-4.741-1.843-7.305-2l-14.668-.882c1.449-1.467,3.379-2.3,5.144-3.362,2.341-1.415,3.9-3.79,5.6-5.931a81.949,81.949,0,0,1,8.538-8.779,12.6,12.6,0,0,0,4.249,6.877c2.039,1.89,4.389,3.411,6.508,5.21,5.133,4.357,8.829,10.271,14.227,14.3a27.847,27.847,0,0,0,10.2-5.09l-2.1-3.8a2.5,2.5,0,0,0-.791-.987c-.594-.365-1.359-.177-2.049-.28-1.843-.276-2.648-2.4-3.371-4.122-1.985-4.715-5.787-8.374-9.033-12.328a62.271,62.271,0,0,1-6.351-9.354,32,32,0,0,0-3.569-5.72,8.05,8.05,0,0,0-5.806-3.037,11.181,11.181,0,0,0-5.536,2.022,146.416,146.416,0,0,0-15.013,10.228c-2.506,1.945-5,4-7.935,5.193-1.237.5-2.542.845-3.729,1.456-2.08,1.07-3.658,2.881-5.357,4.488A35.606,35.606,0,0,1,539.31,299.189Z" transform="translate(-236.225 -197.331)" fill="#3f3d56"/>
    <path id="Path_3524" data-name="Path 3524" d="M577.537,239.008a15.106,15.106,0,0,1-1.1,5.1,6.382,6.382,0,0,1-3.664,3.541,7.862,7.862,0,0,1-3.573.116,6.913,6.913,0,0,1-2.911-.992,6.206,6.206,0,0,1-2.311-4.284c-.25-1.649-.138-3.335-.3-5a27.292,27.292,0,0,0-.764-3.974c-.108-.434-.218-.866-.326-1.3s-.21-.864-.306-1.3c-.088-.406-.17-.814-.24-1.224-.058-.346-.11-.694-.148-1.044a11.706,11.706,0,0,0-.514-3.057,9.284,9.284,0,0,0-1.072-1.813c-.182-.26-.358-.52-.52-.79a3.742,3.742,0,0,1-.618-2.381,2.081,2.081,0,0,1,.094-.382c.016-.048.034-.1.054-.142a1.145,1.145,0,0,0,.781-.73,2.18,2.18,0,0,0-.094-1.13,7.188,7.188,0,0,0-.61-1.453c-.168-.3-.738-.852-.742-1.2-.008-.7,1.359-1.263,1.913-1.539a10.671,10.671,0,0,1,5.462-1.108,4.028,4.028,0,0,1,3.189,1.467c.6.914.52,2.1.776,3.159a.935.935,0,0,0,.19.422.852.852,0,0,0,.47.216,2.891,2.891,0,0,0,.9.036h0a1.857,1.857,0,0,0,.236-.034,3.149,3.149,0,0,0,1.292-.558q.372-.1.75-.162a.159.159,0,0,0,.03-.006c1,3.161,1.132,6.549,1.951,9.768a25.065,25.065,0,0,1,1.07,4.83c.006.072.008.146.01.22.012.53-.03,1.064-.008,1.591a4.433,4.433,0,0,0,.08.708,9.906,9.906,0,0,0,.334,1.108l.006.018c.038.116.074.234.1.352.022.086.042.17.058.256l0,.006A9.5,9.5,0,0,1,577.537,239.008Z" transform="translate(-243.78 -177.952)" fill="#fbbebe"/>
    <circle id="Ellipse_1014" data-name="Ellipse 1014" cx="11.795" cy="11.795" r="11.795" transform="translate(307.932 16.793)" fill="#fbbebe"/>
    <path id="Path_3525" data-name="Path 3525" d="M644.883,273.37a19.343,19.343,0,0,0-3.327-8.96q.459,2.729.92,5.456a2.042,2.042,0,0,1-2.139-.658,6.568,6.568,0,0,1-1.122-2.081A42.864,42.864,0,0,0,634,257.764c-7.509-.626-14.932-3.738-21.535-7.367s-12.787-7.975-19.3-11.755a27.685,27.685,0,0,0-3.523-1.8c-2.039-.818-4.328-1.241-6.261-2.2-.13-.064-.26-.132-.388-.2a7.986,7.986,0,0,1-1.235-.83,6.565,6.565,0,0,1-.592-.544,12.931,12.931,0,0,1-2.261-3.782c-1.038-2.3-1.407-5.064-2.443-7.359a7.117,7.117,0,0,1,1.589-1.122h0c.084-.044.168-.086.254-.126a7.584,7.584,0,0,1,1.273-.466q.372-.1.75-.162a.159.159,0,0,0,.03-.006,7.348,7.348,0,0,1,3.489.276,16.132,16.132,0,0,1,4.41,2.715,72.443,72.443,0,0,1,6.447,5.114c1.14,1.092,2.179,2.291,3.4,3.283a26.771,26.771,0,0,0,3.213,2.129q9.947,5.926,19.9,11.849c2.245,1.337,4.492,2.675,6.687,4.09,3.335,2.151,6.549,4.482,9.762,6.811q2.84,2.057,5.678,4.116a6.18,6.18,0,0,1,1.609,1.487,5.382,5.382,0,0,1,.714,2.181A19.941,19.941,0,0,1,644.883,273.37Z" transform="translate(-250.271 -180.516)" fill="#fbbebe"/>
    <path id="Path_3526" data-name="Path 3526" d="M571.5,250.5c-.8,3.569-4.4,5.726-6.287,8.86-2.343,3.89-1.387,8.413-.508,12.869l-4.824,4.156c-.888.762-1.775,1.527-2.731,2.2a36.44,36.44,0,0,1-4.358,2.5l-4.27,2.2a20.411,20.411,0,0,1-4.18,1.771,16.109,16.109,0,0,1-8.558-.618,3.867,3.867,0,0,1-.936-.382,1.522,1.522,0,0,1-.444-.4,2.484,2.484,0,0,1-.282-1.613,75.836,75.836,0,0,1,2.561-13.78,40.623,40.623,0,0,1,5.886-14.44,43.438,43.438,0,0,1,5.038-7.315,11.739,11.739,0,0,0,2.335-3.011c.71-1.619.436-3.477.58-5.24a10.9,10.9,0,0,1,1.038-3.816v0a10.862,10.862,0,0,1,1.107-1.831l.582,1.353q.192.444.38.886.246.57.488,1.136l1.4,3.249a13.719,13.719,0,0,0,2.119,3.776,4.129,4.129,0,0,0,7.067-.542,13.51,13.51,0,0,0,1.443-3.82,12.208,12.208,0,0,0,.16-4.978c-.482-3.183-1.835-6.433-2.819-9.39a9.494,9.494,0,0,1-.686-3.095,2.13,2.13,0,0,1,.036-.356l.018-.092a7.589,7.589,0,0,1,1.273-.466q.372-.1.75-.162,1.3,7.029,2.6,14.058c.02.11.042.22.062.332.124.672.25,1.343.39,2.013.126.608.262,1.214.414,1.815l.006.018c.052.2.106.406.162.608l0,.006c.154.552.326,1.1.52,1.639C570.209,243.848,572.258,247.123,571.5,250.5Z" transform="translate(-234.822 -180.574)" fill="#00a8cc"/>
    <path id="Path_3527" data-name="Path 3527" d="M668.318,340.414a4.181,4.181,0,0,0,.388,2c.738,1.349,2.51,1.656,4.042,1.782a119.686,119.686,0,0,0,26.853-.818,3.1,3.1,0,0,0,1.367-.424c1.264-.886.485-3.047-.9-3.738s-3.019-.525-4.533-.824a14.282,14.282,0,0,1-4.243-1.84q-4.608-2.647-9.081-5.52c-1.776-1.14-3.871-2.357-5.87-1.681C670.928,331.18,668.282,334.571,668.318,340.414Z" transform="translate(-283.767 -220.339)" fill="#3f3d56"/>
    <path id="Path_3528" data-name="Path 3528" d="M543.067,235.017v0c-.014.084-.028.166-.046.248-.022.136-.048.274-.074.41-.248,1.269-.552,2.533-.9,3.788-.96,3.469-2.245,6.881-3.521,10.244q-5.134,13.524-10.27,27.051c-.864,2.271-1.725,4.544-2.707,6.769-.328.742-.666,1.489-1,2.245a31.24,31.24,0,0,0-2.743,8.377,17.442,17.442,0,0,0-.122,5.744A5.893,5.893,0,0,0,525,304.323c.876.342,2.129.8,1.889,1.709-.13.5-.7.744-1.208.828a4.646,4.646,0,0,1-3.79-1.091c-.958-.85-1.693-2.171-2.967-2.313a5.018,5.018,0,0,0-2.5.8c-3.295,1.505-7.133.452-10.594-.618a3.717,3.717,0,0,1,3.077-2.6,24.89,24.89,0,0,1,4.268-.12,2.23,2.23,0,0,0,1.3-.334,2.355,2.355,0,0,0,.7-1.2,50.171,50.171,0,0,0,2.041-8.353c.46-2.965.652-5.976,1.307-8.9.51-2.285,1.3-4.5,1.973-6.741a142.745,142.745,0,0,0,3.215-14.026,49.6,49.6,0,0,0,.906-5.952c.114-1.659.06-3.327.22-4.98a38.692,38.692,0,0,1,1.341-6.351q.918-3.4,1.833-6.791c.906-3.349,1.877-6.827,4.172-9.43a8.87,8.87,0,0,1,6.371-3.043,6.276,6.276,0,0,1,1.353.146c.074.018.148.036.222.056a5.488,5.488,0,0,1,1.381.572c.708-.45,1.068-.292,1.537.4a4.431,4.431,0,0,1,.56,2.411,33.306,33.306,0,0,1-.544,6.617Z" transform="translate(-224.518 -182.291)" fill="#fbbebe"/>
    <path id="Path_3529" data-name="Path 3529" d="M562.626,237.533l-.03.03-.162.162-1.607,1.605-.788-3.309-2.7-11.343a6.279,6.279,0,0,1,1.353.146,2.086,2.086,0,0,1,.094-.382l.128.438.916,3.115,1.733,5.914.286.974v0Z" transform="translate(-243.299 -182.155)" fill="#00a8cc"/>
    <path id="Path_3530" data-name="Path 3530" d="M567.026,183.5a7.994,7.994,0,0,1-2.351,5.652,7.829,7.829,0,0,1-.864.747,7.96,7.96,0,0,1-4.788,1.6h-9.591a8,8,0,1,1,0-16h9.591A8.024,8.024,0,0,1,567.026,183.5Z" transform="translate(-237.499 -164.309)" fill="#2f2e41"/>
    <circle id="Ellipse_1015" data-name="Ellipse 1015" cx="8.197" cy="8.197" r="8.197" transform="translate(330.323 3.399)" fill="#2f2e41"/>
    <path id="Path_3531" data-name="Path 3531" d="M595.382,163.234c-.1,0-.2,0-.3.008a8.194,8.194,0,0,1,0,16.378c.1,0,.2.008.3.008a8.2,8.2,0,1,0,0-16.393Z" transform="translate(-257.063 -159.835)" opacity="0.1"/>
    <path id="Path_3532" data-name="Path 3532" d="M529.49,163.234c.1,0,.2,0,.3.008a8.194,8.194,0,0,0,0,16.378c-.1,0-.2.008-.3.008a8.2,8.2,0,1,1,0-16.393Z" transform="translate(-230.155 -159.835)" opacity="0.1"/>
    <path id="Path_3533" data-name="Path 3533" d="M565.654,198.159a7.959,7.959,0,0,1-4.788,1.6h-9.591a7.96,7.96,0,0,1-4.788-1.6Z" transform="translate(-239.342 -172.571)" opacity="0.1"/>
    <path id="Path_3534" data-name="Path 3534" d="M674.14,289.681s2.066,5.954,3.958,4.369l-1.508-7.783Z" transform="translate(-285.892 -204.7)" fill="#fbbebe"/>
    <path id="Path_3535" data-name="Path 3535" d="M1064.921,562.711a13.223,13.223,0,1,0,1.761-25.36l.331,6.806-3.22-5.833a13.173,13.173,0,0,0-6.788,7.448,12.973,12.973,0,0,0-.761,3.577,13.221,13.221,0,0,0,8.677,13.362Z" transform="translate(-425.218 -296.154)" fill="#57b894"/>
    <path id="Path_3536" data-name="Path 3536" d="M1093.57,635.126c-1.137-5.788,3.789-10.919,8.654-14.255s10.55-6.612,12.21-12.273c2.386-8.135-4.721-15.585-10.252-22.009a79.608,79.608,0,0,1-10.5-15.6,21.478,21.478,0,0,1-2.511-7.094c-.436-3.606.722-7.194,1.889-10.634q5.832-17.187,12.471-34.086" transform="translate(-437.933 -289.632)" fill="none" stroke="#3f3d56" stroke-miterlimit="10" stroke-width="1"/>
    <path id="Path_3537" data-name="Path 3537" d="M1065.771,559.953a13.223,13.223,0,1,0,1.761-25.36l.331,6.806-3.22-5.833a13.173,13.173,0,0,0-6.788,7.448,12.969,12.969,0,0,0-.761,3.577A13.221,13.221,0,0,0,1065.771,559.953Z" transform="translate(-425.528 -295.149)" fill="none" stroke="#3f3d56" stroke-miterlimit="10" stroke-width="1"/>
    <path id="Path_3538" data-name="Path 3538" d="M1091.994,510.474a13.208,13.208,0,0,1,9.517-8.385l1.089,6.47,2.019-6.8a13.221,13.221,0,1,1-12.625,8.71Z" transform="translate(-437.977 -283.283)" fill="#57b894"/>
    <path id="Path_3539" data-name="Path 3539" d="M1093.134,506.8a13.208,13.208,0,0,1,9.517-8.385l1.089,6.47,2.018-6.8a13.221,13.221,0,1,1-12.625,8.71Z" transform="translate(-438.393 -281.942)" fill="none" stroke="#3f3d56" stroke-miterlimit="10" stroke-width="1"/>
    <path id="Path_3540" data-name="Path 3540" d="M1103.037,610.764a13.221,13.221,0,0,0,11.7-23.522l-1.551,5.222-1.1-6.546-.034-.013a13.222,13.222,0,1,0-9.018,24.859Z" transform="translate(-439.115 -313.676)" fill="#57b894"/>
    <path id="Path_3541" data-name="Path 3541" d="M1104.037,607.039a13.221,13.221,0,0,0,11.7-23.522l-1.551,5.222-1.1-6.546a.232.232,0,0,0-.034-.013,13.222,13.222,0,1,0-9.018,24.859Z" transform="translate(-439.479 -312.317)" fill="none" stroke="#3f3d56" stroke-miterlimit="10" stroke-width="1"/>
    <path id="Path_3542" data-name="Path 3542" d="M1086.263,651.152a13.216,13.216,0,1,0,2.548-10.354l5.891,8.867-8.05-4.706A13.1,13.1,0,0,0,1086.263,651.152Z" transform="translate(-436.103 -332.105)" fill="#57b894"/>
    <path id="Path_3543" data-name="Path 3543" d="M1087.113,648.4a13.216,13.216,0,1,0,2.548-10.354l5.891,8.867-8.05-4.706A13.1,13.1,0,0,0,1087.113,648.4Z" transform="translate(-436.413 -331.1)" fill="none" stroke="#3f3d56" stroke-miterlimit="10" stroke-width="1"/>
    <path id="Path_3544" data-name="Path 3544" d="M68.777,618.46A8.688,8.688,0,1,0,69.934,601.8l.217,4.472-2.116-3.832a8.655,8.655,0,0,0-4.46,4.893,8.518,8.518,0,0,0-.5,2.35A8.686,8.686,0,0,0,68.777,618.46Z" transform="translate(-63.054 -319.692)" fill="#57b894"/>
    <path id="Path_3545" data-name="Path 3545" d="M87.6,666.037c-.747-3.8,2.489-7.174,5.686-9.366s6.931-4.345,8.022-8.063c1.567-5.345-3.1-10.24-6.736-14.461a52.3,52.3,0,0,1-6.9-10.251,14.111,14.111,0,0,1-1.65-4.661c-.287-2.369.475-4.727,1.241-6.986q3.832-11.292,8.193-22.4" transform="translate(-71.407 -315.406)" fill="none" stroke="#3f3d56" stroke-miterlimit="10" stroke-width="1"/>
    <path id="Path_3546" data-name="Path 3546" d="M69.34,616.648A8.688,8.688,0,1,0,70.5,599.986l.217,4.472L68.6,600.626a8.655,8.655,0,0,0-4.46,4.893,8.52,8.52,0,0,0-.5,2.35A8.686,8.686,0,0,0,69.34,616.648Z" transform="translate(-63.259 -319.031)" fill="none" stroke="#3f3d56" stroke-miterlimit="10" stroke-width="1"/>
    <path id="Path_3547" data-name="Path 3547" d="M86.567,584.138a8.678,8.678,0,0,1,6.253-5.509l.715,4.251,1.326-4.465a8.687,8.687,0,1,1-8.295,5.723Z" transform="translate(-71.438 -311.235)" fill="#57b894"/>
    <path id="Path_3548" data-name="Path 3548" d="M87.318,581.723a8.678,8.678,0,0,1,6.253-5.509l.715,4.251L95.613,576a8.687,8.687,0,1,1-8.295,5.723Z" transform="translate(-71.712 -310.354)" fill="none" stroke="#3f3d56" stroke-miterlimit="10" stroke-width="1"/>
    <path id="Path_3549" data-name="Path 3549" d="M93.824,650.031a8.687,8.687,0,0,0,7.689-15.454l-1.019,3.431-.723-4.3-.022-.008a8.687,8.687,0,1,0-5.925,16.333Z" transform="translate(-72.186 -331.204)" fill="#57b894"/>
    <path id="Path_3550" data-name="Path 3550" d="M94.475,647.584a8.687,8.687,0,0,0,7.689-15.454l-1.019,3.431-.723-4.3-.022-.008a8.687,8.687,0,1,0-5.925,16.333Z" transform="translate(-72.423 -330.311)" fill="none" stroke="#3f3d56" stroke-miterlimit="10" stroke-width="1"/>
    <path id="Path_3551" data-name="Path 3551" d="M82.8,676.567a8.683,8.683,0,1,0,1.674-6.8l3.871,5.826L83.055,672.5A8.606,8.606,0,0,0,82.8,676.567Z" transform="translate(-70.205 -343.312)" fill="#57b894"/>
    <path id="Path_3552" data-name="Path 3552" d="M83.363,674.755a8.683,8.683,0,1,0,1.674-6.8l3.871,5.826-5.289-3.092A8.606,8.606,0,0,0,83.363,674.755Z" transform="translate(-70.411 -342.652)" fill="none" stroke="#3f3d56" stroke-miterlimit="10" stroke-width="1"/>
    <ellipse id="Ellipse_1016" data-name="Ellipse 1016" cx="10.801" cy="13.977" rx="10.801" ry="13.977" transform="translate(294.764 188.77)" fill="#2f2e41"/>
    <ellipse id="Ellipse_1017" data-name="Ellipse 1017" cx="10.801" cy="13.977" rx="10.801" ry="13.977" transform="translate(353.533 189.088)" fill="#2f2e41"/>
    <path id="Path_3553" data-name="Path 3553" d="M600.891,535.936c0,6.315-8.819,11.436-19.7,11.436s-19.7-5.121-19.7-11.436c0-5.47,6.614-10.045,15.451-11.163a31.836,31.836,0,0,1,4.244-.273,32.208,32.208,0,0,1,7.071.762C595.65,526.908,600.891,531.069,600.891,535.936Z" transform="translate(-244.817 -291.574)" fill="#2f2e41"/>
    <ellipse id="Ellipse_1018" data-name="Ellipse 1018" cx="10.801" cy="13.977" rx="10.801" ry="13.977" transform="translate(297.305 185.593)" fill="none" stroke="#3f3d56" stroke-miterlimit="10" stroke-width="1"/>
    <ellipse id="Ellipse_1019" data-name="Ellipse 1019" cx="10.801" cy="13.977" rx="10.801" ry="13.977" transform="translate(356.074 185.911)" fill="none" stroke="#3f3d56" stroke-miterlimit="10" stroke-width="1"/>
    <ellipse id="Ellipse_1020" data-name="Ellipse 1020" cx="19.696" cy="11.436" rx="19.696" ry="11.436" transform="translate(319.225 229.749)" fill="none" stroke="#3f3d56" stroke-miterlimit="10" stroke-width="1"/>
    <path id="Path_3554" data-name="Path 3554" d="M597.071,526.033a3.136,3.136,0,0,1-.839,2.155,2.756,2.756,0,0,1-2.02.895h-6.353a2.963,2.963,0,0,1-2.859-3.05,3.116,3.116,0,0,1,.521-1.742,29.88,29.88,0,0,1,4.244-.291,30.287,30.287,0,0,1,7.071.813A3.219,3.219,0,0,1,597.071,526.033Z" transform="translate(-253.386 -291.392)" fill="#fff"/>
    <circle id="Ellipse_1021" data-name="Ellipse 1021" cx="3.177" cy="3.177" r="3.177" transform="translate(304.929 192.582)" fill="#fff"/>
    <circle id="Ellipse_1022" data-name="Ellipse 1022" cx="3.177" cy="3.177" r="3.177" transform="translate(364.016 192.582)" fill="#fff"/>
    <circle id="Ellipse_1023" data-name="Ellipse 1023" cx="3.177" cy="3.177" r="3.177" transform="translate(367.193 222.443)" fill="#00a8cc" opacity="0.3"/>
    <circle id="Ellipse_1024" data-name="Ellipse 1024" cx="3.177" cy="3.177" r="3.177" transform="translate(289.681 222.443)" fill="#00a8cc" opacity="0.3"/>
  </g>
</svg>
