<svg xmlns="http://www.w3.org/2000/svg" xmlns:xlink="http://www.w3.org/1999/xlink" width="584.705" height="428.956" viewBox="0 0 584.705 428.956">
  <defs>
    <linearGradient id="linear-gradient" x1="0.5" y1="1" x2="0.5" gradientUnits="objectBoundingBox">
      <stop offset="0" stop-color="gray" stop-opacity="0.251"/>
      <stop offset="0.54" stop-color="gray" stop-opacity="0.122"/>
      <stop offset="1" stop-color="gray" stop-opacity="0.102"/>
    </linearGradient>
    <linearGradient id="linear-gradient-2" x1="9.926" x2="9.926" y2="0" xlink:href="#linear-gradient"/>
  </defs>
  <g id="payment-illustration" transform="translate(0 0.001)">
    <path id="Path_4479" data-name="Path 4479" d="M209.782,349.628c-7.69,2.323-14.888,7.948-16.809,15.752-2.2,8.969,2.869,18.009,3.6,27.218,2.365,30.172-40.557,51.459-34.434,81.1,2.431,11.784,12.258,20.453,21.941,27.614,15.512,11.436,32.723,21.539,51.783,24.391,28.929,4.334,59.155-8.4,87.274-.354,22.68,6.5,40.035,25.531,62.559,32.555,17.145,5.349,35.617,3.242,53.428,1.075,9.605-1.165,19.666-2.509,27.416-8.272,14.408-10.728,15.314-31.913,24.961-47.095,14.9-23.412,47.569-28.011,74.961-23.46s53.992,15.752,81.745,14.84c5.931-.2,12.006-1,17.181-3.914,6.291-3.536,10.542-9.767,14.3-15.932a257.805,257.805,0,0,0,37.382-128.1c.162-7.774-.114-15.884-3.77-22.746-4.622-8.681-13.861-13.873-23.058-17.367-22.086-8.4-46.482-9.779-68.124-19.258-20.873-9.143-37.778-25.177-55.955-38.918A298.05,298.05,0,0,0,443.407,194.08c-10.439-2.017-21.275-3.458-31.649-1.129-11.952,2.683-22.254,10.133-31.517,18.154-24.643,21.335-44.393,47.659-67.1,71.041a382.035,382.035,0,0,1-50.979,43.961c-8.4,6.057-17.337,13.249-26.7,17.727C226.885,347.929,218.847,346.9,209.782,349.628Z" transform="translate(-132.402 -132.314)" fill="#00a8cc" opacity="0.2"/>
    <path id="Path_4480" data-name="Path 4480" d="M401.223,138.88s-23.2,30.814-6.6,66.731-28.929,93.625-28.929,93.625" transform="translate(-213.997 -111.182)" fill="none" stroke="#535461" stroke-miterlimit="10" stroke-width="2"/>
    <path id="Path_4481" data-name="Path 4481" d="M432.222,108.906c-1.843,7.93-10.662,12.655-10.662,12.655s-5.823-8.134-3.98-16.064,6.6-13.6,10.662-12.655S434.065,100.976,432.222,108.906Z" transform="translate(-234.592 -92.74)" fill="#8ed16f"/>
    <ellipse id="Ellipse_1198" data-name="Ellipse 1198" cx="4.628" cy="1.735" rx="4.628" ry="1.735" transform="translate(187.278 18.505) rotate(-76.9)" fill="#8ed16f"/>
    <ellipse id="Ellipse_1199" data-name="Ellipse 1199" cx="4.628" cy="1.735" rx="4.628" ry="1.735" transform="translate(187.278 18.505) rotate(-76.9)" opacity="0.3"/>
    <path id="Path_4482" data-name="Path 4482" d="M424.6,167.893c-7.66,2.761-16.419-2.077-16.419-2.077s3.662-9.311,11.328-12.066,15.008-1.8,16.419,2.077S432.259,165.132,424.6,167.893Z" transform="translate(-230.979 -116.494)" fill="#8ed16f"/>
    <ellipse id="Ellipse_1200" data-name="Ellipse 1200" cx="4.628" cy="1.735" rx="4.628" ry="1.735" transform="matrix(0.94, -0.34, 0.34, 0.94, 185.937, 43.597)" fill="#8ed16f"/>
    <ellipse id="Ellipse_1201" data-name="Ellipse 1201" cx="4.628" cy="1.735" rx="4.628" ry="1.735" transform="matrix(0.94, -0.34, 0.34, 0.94, 185.937, 43.597)" opacity="0.3"/>
    <path id="Path_4483" data-name="Path 4483" d="M421.629,214.663c-7.66,2.761-16.419-2.077-16.419-2.077s3.662-9.311,11.328-12.066,15.008-1.8,16.419,2.077S429.289,211.908,421.629,214.663Z" transform="translate(-229.792 -135.188)" fill="#8ed16f"/>
    <ellipse id="Ellipse_1202" data-name="Ellipse 1202" cx="4.628" cy="1.735" rx="4.628" ry="1.735" transform="translate(184.244 72.088) rotate(-19.8)" fill="#8ed16f"/>
    <ellipse id="Ellipse_1203" data-name="Ellipse 1203" cx="4.628" cy="1.735" rx="4.628" ry="1.735" transform="translate(184.244 72.088) rotate(-19.8)" opacity="0.3"/>
    <path id="Path_4484" data-name="Path 4484" d="M436.539,269.533c-7.66,2.761-16.419-2.077-16.419-2.077s3.662-9.311,11.328-12.066,15.008-1.8,16.419,2.077S444.2,266.79,436.539,269.533Z" transform="translate(-235.751 -157.118)" fill="#8ed16f"/>
    <ellipse id="Ellipse_1204" data-name="Ellipse 1204" cx="4.628" cy="1.735" rx="4.628" ry="1.735" transform="translate(193.196 105.042) rotate(-19.8)" fill="#8ed16f"/>
    <ellipse id="Ellipse_1205" data-name="Ellipse 1205" cx="4.628" cy="1.735" rx="4.628" ry="1.735" transform="translate(193.196 105.042) rotate(-19.8)" opacity="0.3"/>
    <path id="Path_4485" data-name="Path 4485" d="M426.839,319.713c-7.66,2.761-16.419-2.077-16.419-2.077s3.662-9.311,11.328-12.066,15.008-1.8,16.419,2.077S434.5,316.958,426.839,319.713Z" transform="translate(-231.874 -177.175)" fill="#8ed16f"/>
    <ellipse id="Ellipse_1206" data-name="Ellipse 1206" cx="4.628" cy="1.735" rx="4.628" ry="1.735" transform="matrix(0.94, -0.34, 0.34, 0.94, 187.389, 134.663)" fill="#8ed16f"/>
    <ellipse id="Ellipse_1207" data-name="Ellipse 1207" cx="4.628" cy="1.735" rx="4.628" ry="1.735" transform="matrix(0.94, -0.34, 0.34, 0.94, 187.389, 134.663)" opacity="0.3"/>
    <path id="Path_4486" data-name="Path 4486" d="M373.808,180.306c5.655,5.859,15.65,5.4,15.65,5.4s.822-9.971-4.833-15.83-12.661-8.272-15.65-5.4S368.153,174.446,373.808,180.306Z" transform="translate(-214.773 -120.929)" fill="#8ed16f"/>
    <ellipse id="Ellipse_1208" data-name="Ellipse 1208" cx="1.735" cy="4.628" rx="1.735" ry="4.628" transform="matrix(0.719, -0.695, 0.695, 0.719, 160.196, 51.843)" fill="#8ed16f"/>
    <ellipse id="Ellipse_1209" data-name="Ellipse 1209" cx="1.735" cy="4.628" rx="1.735" ry="4.628" transform="matrix(0.719, -0.695, 0.695, 0.719, 160.196, 51.843)" opacity="0.3"/>
    <path id="Path_4487" data-name="Path 4487" d="M368.4,335.3c5.655,5.859,15.65,5.4,15.65,5.4s.822-9.971-4.833-15.83-12.661-8.272-15.65-5.4S362.743,329.436,368.4,335.3Z" transform="translate(-212.61 -182.876)" fill="#8ed16f"/>
    <ellipse id="Ellipse_1210" data-name="Ellipse 1210" cx="1.735" cy="4.628" rx="1.735" ry="4.628" transform="matrix(0.719, -0.695, 0.695, 0.719, 156.94, 144.894)" fill="#8ed16f"/>
    <ellipse id="Ellipse_1211" data-name="Ellipse 1211" cx="1.735" cy="4.628" rx="1.735" ry="4.628" transform="matrix(0.719, -0.695, 0.695, 0.719, 156.94, 144.894)" opacity="0.3"/>
    <path id="Path_4488" data-name="Path 4488" d="M378.171,235.677c7.288,3.638,16.551-.144,16.551-.144s-2.551-9.671-9.833-13.309-14.7-3.6-16.551.144S370.883,232.039,378.171,235.677Z" transform="translate(-214.885 -143.415)" fill="#8ed16f"/>
    <ellipse id="Ellipse_1212" data-name="Ellipse 1212" cx="1.735" cy="4.628" rx="1.735" ry="4.628" transform="translate(161.846 84.754) rotate(-63.48)" fill="#8ed16f"/>
    <ellipse id="Ellipse_1213" data-name="Ellipse 1213" cx="1.735" cy="4.628" rx="1.735" ry="4.628" transform="translate(161.846 84.754) rotate(-63.48)" opacity="0.3"/>
    <path id="Path_4489" data-name="Path 4489" d="M383.262,290.247c7.288,3.638,16.551-.144,16.551-.144s-2.551-9.671-9.833-13.309-14.7-3.6-16.551.144S376,286.645,383.262,290.247Z" transform="translate(-216.921 -165.226)" fill="#8ed16f"/>
    <ellipse id="Ellipse_1214" data-name="Ellipse 1214" cx="1.735" cy="4.628" rx="1.735" ry="4.628" transform="translate(164.904 117.518) rotate(-63.48)" fill="#8ed16f"/>
    <ellipse id="Ellipse_1215" data-name="Ellipse 1215" cx="1.735" cy="4.628" rx="1.735" ry="4.628" transform="translate(164.904 117.518) rotate(-63.48)" opacity="0.3"/>
    <path id="Path_4490" data-name="Path 4490" d="M209.061,249.21s42.376,42.376,18.454,105.259,41.007,167.452,41.007,167.452-.7-.1-1.987-.33c-87.046-15.362-130.268-114.906-81.883-188.853C202.62,305.243,217.417,272.994,209.061,249.21Z" transform="translate(-133.583 -155.279)" fill="#8ed16f"/>
    <path id="Path_4491" data-name="Path 4491" d="M113,534.367s48.355-7.7,52.762,35.635,92.983,49.346,92.983,49.346-.6.4-1.663,1.1c-73.136,48.025-143.049,30.58-132.513-33.167C128.494,563.579,128.17,539.776,113,534.367Z" transform="translate(-113 -269.041)" fill="#8ed16f"/>
    <g id="Group_789" data-name="Group 789" transform="translate(0 264.797)" opacity="0.3">
      <path id="Path_4492" data-name="Path 4492" d="M113,534.367s48.355-7.7,52.762,35.635,92.983,49.346,92.983,49.346-.6.4-1.663,1.1c-73.136,48.025-143.049,30.58-132.513-33.167C128.494,563.579,128.17,539.776,113,534.367Z" transform="translate(-113 -533.838)" fill="#fff"/>
    </g>
    <ellipse id="Ellipse_1216" data-name="Ellipse 1216" cx="13.297" cy="34.692" rx="13.297" ry="34.692" transform="translate(49.94 195.408)" fill="#8ed16f"/>
    <ellipse id="Ellipse_1217" data-name="Ellipse 1217" cx="13.297" cy="34.692" rx="13.297" ry="34.692" transform="translate(49.94 195.408)" opacity="0.3"/>
    <ellipse id="Ellipse_1218" data-name="Ellipse 1218" cx="8.963" cy="19.948" rx="8.963" ry="19.948" transform="translate(27.475 334.222) rotate(-45)" fill="#8ed16f"/>
    <ellipse id="Ellipse_1219" data-name="Ellipse 1219" cx="8.963" cy="19.948" rx="8.963" ry="19.948" transform="translate(27.475 334.222) rotate(-45)" opacity="0.3"/>
    <path id="Path_4493" data-name="Path 4493" d="M617.77,358.2H303a14.341,14.341,0,0,0-14.341,14.342V557.036A14.342,14.342,0,0,0,303,571.378H617.77a14.342,14.342,0,0,0,14.342-14.342V372.542A14.341,14.341,0,0,0,617.77,358.2Z" transform="translate(-183.209 -198.841)" fill="url(#linear-gradient)"/>
    <rect id="Rectangle_1388" data-name="Rectangle 1388" width="335.366" height="208.159" rx="24.81" transform="translate(109.491 161.869)" fill="#00a8cc"/>
    <rect id="Rectangle_1389" data-name="Rectangle 1389" width="335.366" height="38.162" transform="translate(109.491 198.296)" fill="#00a8cc"/>
    <rect id="Rectangle_1390" data-name="Rectangle 1390" width="335.366" height="38.162" transform="translate(109.491 198.296)" opacity="0.3"/>
    <rect id="Rectangle_1391" data-name="Rectangle 1391" width="271.762" height="18.502" transform="translate(141.296 264.792)" fill="#d6d6e3"/>
    <circle id="Ellipse_1220" data-name="Ellipse 1220" cx="26.6" cy="26.6" r="26.6" transform="translate(137.244 302.954)" fill="#00a8cc"/>
    <circle id="Ellipse_1221" data-name="Ellipse 1221" cx="26.6" cy="26.6" r="26.6" transform="translate(137.244 302.954)" opacity="0.3"/>
    <path id="Path_4494" data-name="Path 4494" d="M822.215,248.374a5.822,5.822,0,0,0,2.563,3.242c5.517,3.644,17.511,2.87,18.952,2.87.306,0,.708.546,1.153,1.465,2.119,4.37,5.4,17.181,5.625,20.063.294,3.488,3.536,19.81,8.843,25.892.162.186.324.36.48.522,5.2,5.229,11.31-.522,11.31-.522l.876-3.044c-.246,1.2-.522,2.6-.8,4.166-.138.786-.276,1.621-.408,2.479a95.013,95.013,0,0,0-1.243,14.63,53.07,53.07,0,0,0,.228,5.331c.048.492.1.979.168,1.453a50.885,50.885,0,0,1,.4,6.507c-.048,12.919-3.344,28.989-3.344,28.989l.126-.042c-.078.4-.126.6-.126.6l.192-.06q-.138.894-.264,1.831c-1.117,8.1-1.759,18.19-2.065,24.013a48.081,48.081,0,0,0,.408,9.2l5.859,41.248v19.21a33.908,33.908,0,0,0,1.057,8.632c1.909,7.258.336,32.591-.546,44.609-.246,3.278-.438,5.571-.492,6.231v.2l.168-.066v.21a3.4,3.4,0,0,1,.78-.228c-2.323,3.6-6.531,9.557-9.767,10.56a10.246,10.246,0,0,0-4.881,3.236l-.084.114-.12.168a3.6,3.6,0,0,0-.7,1.837,2.024,2.024,0,0,1-.108-.354c-.246,1.339.558,2.563,3.086,3.158a20.775,20.775,0,0,0,4.472.36c8.764,0,24.319-2.7,26.036-5.595v-10l.282.09v.09l1.075.354,2.948-9.893c3.536-2.617.6-49.46,0-60.224-.54-9.809,5.529-48.83,6.6-55.7l-.144-.174.162-1a4.264,4.264,0,0,1,.6.528,7.85,7.85,0,0,1,.919,1.357,18.162,18.162,0,0,1,1.3,2.689c5.931,14.792,8.6,57.09,8.6,60.884v39.777a41.414,41.414,0,0,0,1.621,11.6,49.777,49.777,0,0,1,1.261,6.039c.126.8.234,1.591.336,2.347s.2,1.621.282,2.329a4.843,4.843,0,0,0,.06.534,1.048,1.048,0,0,1,0,.246c.162,1.567.246,2.593.246,2.593a.6.6,0,0,1,.12-.234l.03.378a.809.809,0,0,1,.234-.372,5.682,5.682,0,0,1,.792-.648v5.055l-.144-.108v.87c6.111,4.61,16.058,6,23.694,5.949,4.953,0,8.963-.6,10.355-1.3,1.993-.979.9-3.26-.913-5.007-1.4-1.357-3.236-2.4-4.394-2.269-1.933.21-8.542-7.276-12.006-11.376l.39-.174.552-.24V450.152s.888-26.186,3.536-52.083a92.139,92.139,0,0,0-4.532-38.636l-.084-.246.8.126c.852.132,1.309.21,1.309.21a4.986,4.986,0,0,0-.054-.6h.054s-1.033-11.232-1.045-25.339c0-15.992,1.351-35.491,6.94-46.524,3.218-6.351,4.292-11.406,4.2-15.392a16.1,16.1,0,0,0-2.876-9.845,7.8,7.8,0,0,0-3.308-2.617l-.114-.066h-.06a8.226,8.226,0,0,0-3.038-.6H924.575a8.062,8.062,0,0,1-3.986-1.051l-4.724-2.677c-1.573-3.44-1.8-7.7-1.465-11.7,0-.318.06-.636.09-.948l.342-.36c.264-.282.51-.6.75-.87a6.691,6.691,0,0,1-.054.708c-.06.378-.162.6-.324.648,2.581-.336,5.463-.846,7.048-2.839.066-.078.126-.162.186-.246a12.865,12.865,0,0,0,1.159-2.4,6.976,6.976,0,0,1,.883-1.609c.4-.516.913-.936,1.339-1.429l.072-.084c1.519-1.8,1.6-4.382,1.621-6.736.03-5.715-.138-12.006-3.962-16.293-3.176-3.566-8.242-4.917-13.051-5.073s-9.605.708-14.408.732c-3.266,0-7.2-.054-9,2.647-.883,1.327-.99,3.062-1.951,4.334-.552.732-1.4,1.363-1.447,2.275a2.336,2.336,0,0,0,.312,1.2v.042a8.493,8.493,0,0,0,6.219,4.172,15.476,15.476,0,0,0-1.2,1.657,15.777,15.777,0,0,0-2.4,8.4,9.836,9.836,0,0,0,.036,1.033,15.866,15.866,0,0,0,5.031,10.572c-.048.336-.1.672-.15,1l.108.1q.51.462,1.062.876l.132.1v.6a10.066,10.066,0,0,1-.036,1.045c-.036.342,0,.552-.036.828l-.078-.066-5.865-4.9L877.39,233.5s-23.58-17.163-24.763-9a5.876,5.876,0,0,0,1.122,4.07c4.328,6.6,19.21,12.222,19.21,12.222a125.773,125.773,0,0,1,14.81,19.5c-.21.114-.42.222-.642.324-5.283,2.455-12.991,1.417-12.991,1.417-8.9,1.387-9.707,11.142-9.659,15.086v.816l-11.814-27.741-.036-.084a5.841,5.841,0,0,0-4.418-3.47C840.309,245.312,820.564,242.545,822.215,248.374Zm49.46,269.541a5.14,5.14,0,0,1,.522-.1l-.054.084Z" transform="translate(-396.424 -137.832)" fill="url(#linear-gradient-2)"/>
    <path id="Path_4495" data-name="Path 4495" d="M993.631,716.43s11.19,14.065,13.777,13.777,8.608,5.451,5.169,7.2-23.244,2.87-33.017-4.592V721.575Z" transform="translate(-459.352 -342.02)" fill="#aca9c9"/>
    <path id="Path_4496" data-name="Path 4496" d="M897.614,717.86s-6.6,11.766-11.19,13.207-8.609,6.6-2.581,8.038,27.554-1.723,29.559-5.169V718.719Z" transform="translate(-419.878 -342.592)" fill="#aca9c9"/>
    <path id="Path_4497" data-name="Path 4497" d="M894.685,495.234l5.7,40.689v18.916a33.9,33.9,0,0,0,1.033,8.512c1.861,7.162.33,32.147-.534,44-.282,3.866-.5,6.339-.5,6.339,3.728-1.723,19.516,3.728,19.516,3.728l1.6-5.433,1.273-4.322c3.446-2.581.6-48.788,0-59.431-.39-7.27,2.852-30.838,4.929-44.964.6-3.992,1.087-7.2,1.381-9.137.186-1.2.288-1.867.288-1.867a6.287,6.287,0,0,1,1.549,1.867,17.969,17.969,0,0,1,1.267,2.653c5.775,14.594,8.4,56.315,8.4,60.031v39.237A41.372,41.372,0,0,0,942.17,607.5a60.053,60.053,0,0,1,1.555,8.266c.408,3.116.6,5.625.6,5.625.288-1.723,18.081-9.473,18.081-9.473V546.488s.858-25.813,3.446-51.375a91.656,91.656,0,0,0-3.3-34.566c-.714-2.443-1.429-4.514-2.047-6.153-1.051-2.792-1.8-4.334-1.8-4.334H900.088c-.984.186-1.8,2.167-2.539,5.175-.48,2.017-.9,4.49-1.267,7.2-1.087,7.99-1.711,17.937-2.011,23.688A47.95,47.95,0,0,0,894.685,495.234Z" transform="translate(-425.239 -235.556)" fill="#618fd8"/>
    <g id="Group_790" data-name="Group 790" transform="translate(475.293 214.684)" opacity="0.1">
      <path id="Path_4498" data-name="Path 4498" d="M994.755,612.229V546.794s.858-25.813,3.446-51.375a89.5,89.5,0,0,0-7.2-45.06h1.147a90.019,90.019,0,0,1,7.2,45.06c-2.551,25.543-3.446,51.375-3.446,51.375v65.434s-17.793,7.75-18.081,9.473a8.6,8.6,0,0,0-.09-1.044C981.608,617.962,994.755,612.229,994.755,612.229Z" transform="translate(-933.913 -450.36)"/>
      <path id="Path_4499" data-name="Path 4499" d="M906.319,722.33a4.453,4.453,0,0,0-1.579.324v-.288a10.246,10.246,0,0,1,1.579-.036Z" transform="translate(-904.74 -559.056)"/>
      <path id="Path_4500" data-name="Path 4500" d="M938.281,636.012c3.446-2.581.6-48.788,0-59.431s6.6-55.961,6.6-55.961a5.007,5.007,0,0,1,.991,1.021c-1.057,6.772-6.964,45.27-6.441,54.941.6,10.62,3.446,56.826,0,59.431l-2.87,9.755-1.045-.348Z" transform="translate(-917.042 -478.442)"/>
    </g>
    <path id="Path_4501" data-name="Path 4501" d="M878.729,308.71l-6,21.239s-6.315,6-11.478,0-8.344-22.1-8.656-25.543-4.881-21.239-6.6-21.239-18.94,1.147-20.951-6c-1.609-5.751,17.613-3,25.309-1.711a5.7,5.7,0,0,1,4.3,3.422l11.8,28.185S872.7,299.813,878.729,308.71Z" transform="translate(-397.553 -165.049)" fill="#f7c4a7"/>
    <path id="Path_4502" data-name="Path 4502" d="M957.865,249.82s-7.462,20.951,2.011,28.413S926,287.706,926,287.706l5.883-5.595s4.16-16.5,1.291-30.28Z" transform="translate(-437.944 -155.523)" fill="#f7c4a7"/>
    <path id="Path_4503" data-name="Path 4503" d="M935.733,294.572s7.606-1.867,7.606-3.872l6.742,3.872h16.935s12.342,6.886,2.011,27.554-5.739,71.437-5.739,71.437-36.733-6.6-67.157,3.446c0,0,4.592-22.674,2.87-35.587s2.87-30.994,2.87-30.994l2.581-10.908s-.144-10.205-10.764-5.025c0,0-1.579-14.78,9.329-16.5,0,0,12.607,1.723,16.359-4.592C919.374,293.425,927.7,298.306,935.733,294.572Z" transform="translate(-424.998 -171.862)" opacity="0.1"/>
    <path id="Path_4504" data-name="Path 4504" d="M935.733,293.622s7.606-1.867,7.606-3.872l4.94,2.839a7.8,7.8,0,0,0,3.878,1.033H964a7.8,7.8,0,0,1,6.345,3.23c2.719,3.824,5.157,11.364-1.321,24.325-10.331,20.663-5.739,71.437-5.739,71.437s-36.733-6.6-67.157,3.446c0,0,4.592-22.674,2.87-35.587s2.869-30.952,2.869-30.952l2.581-10.908s-.144-10.205-10.764-5.025c0,0-1.537-14.371,8.879-16.425a2.939,2.939,0,0,1,.883-.06c2.227.234,12.607.984,15.932-4.64C919.374,292.469,927.7,297.35,935.733,293.622Z" transform="translate(-424.997 -171.482)" fill="#e14b5a"/>
    <path id="Path_4505" data-name="Path 4505" d="M981.3,324.681s-9.185,5.739-24.109,0c0,0-16.359-6-21.527-17.793S961.78,308.9,961.78,308.9s6.6,0,8.609-1.435S986.465,318.365,981.3,324.681Z" transform="translate(-441.577 -176.427)" opacity="0.1"/>
    <path id="Path_4506" data-name="Path 4506" d="M957,297.357s-9.185,5.739-24.109,0c0,0-16.359-6-21.527-17.793s-17.217-24.7-17.217-24.7-20.951-8.038-19.81-16.07,24.109,8.9,24.109,8.9l9.185,8.609,29.848,25.255s6.6,0,8.609-1.435S962.166,291.042,957,297.357Z" transform="translate(-417.279 -150.25)" fill="#f7c4a7"/>
    <path id="Path_4507" data-name="Path 4507" d="M937.49,253.261l24.679-2.011a56.645,56.645,0,0,0-2.575,11.688,15.77,15.77,0,0,1-22.092.6A28.049,28.049,0,0,0,937.49,253.261Z" transform="translate(-442.537 -156.094)" opacity="0.1"/>
    <circle id="Ellipse_1222" data-name="Ellipse 1222" cx="15.782" cy="15.782" r="15.782" transform="translate(490.223 79.235)" fill="#f7c4a7"/>
    <path id="Path_4508" data-name="Path 4508" d="M952.14,238.1c-.924-1.525.955-3.512.336-5.181-.57-1.537-2.839-1.8-3.6-3.236-.6-1.159,0-2.581-.24-3.86-.342-1.651-2.119-2.677-3.806-2.761a13.58,13.58,0,0,0-4.917,1.087,18.876,18.876,0,0,1-8.1,1.249,8.491,8.491,0,0,1-6.687-4.244,2.4,2.4,0,0,1-.306-1.165c.048-.9.876-1.519,1.411-2.239.937-1.255,1.045-2.966,1.9-4.274,1.741-2.665,5.565-2.6,8.747-2.611,4.682,0,9.341-.876,14.023-.72s9.605,1.483,12.709,5c3.722,4.232,3.89,10.427,3.86,16.07,0,2.323-.1,4.851-1.579,6.645-.432.522-.96.954-1.375,1.489-.9,1.2-1.141,2.737-1.987,3.956-1.5,2.167-4.43,2.7-7.042,3.044.768-.1.132-5.247,0-5.721C954.98,238.266,954.433,238.314,952.14,238.1Z" transform="translate(-437.473 -139.659)" opacity="0.1"/>
    <path id="Path_4509" data-name="Path 4509" d="M952.14,237.154c-.924-1.525.955-3.512.336-5.181-.57-1.537-2.839-1.8-3.6-3.236-.6-1.159,0-2.581-.24-3.86-.342-1.651-2.119-2.677-3.806-2.761a13.58,13.58,0,0,0-4.917,1.087,18.876,18.876,0,0,1-8.1,1.249,8.491,8.491,0,0,1-6.687-4.244,2.4,2.4,0,0,1-.306-1.165c.048-.9.876-1.519,1.411-2.239.937-1.255,1.045-2.966,1.9-4.274,1.741-2.665,5.565-2.6,8.747-2.611,4.682,0,9.341-.876,14.023-.72s9.605,1.483,12.709,5c3.722,4.232,3.89,10.427,3.86,16.07,0,2.323-.1,4.851-1.579,6.645-.432.522-.96.954-1.375,1.489-.9,1.2-1.141,2.737-1.987,3.956-1.5,2.167-4.43,2.7-7.042,3.044.768-.1.132-5.247,0-5.721C954.98,237.286,954.433,237.358,952.14,237.154Z" transform="translate(-437.473 -139.279)" fill="#281c1c"/>
    <path id="Path_4510" data-name="Path 4510" d="M1001.817,326.974s-7.75-20.092-13.777-20.663,11.478,0,11.478,0l5.739,10.331Z" transform="translate(-462.236 -178)" opacity="0.1"/>
    <path id="Path_4511" data-name="Path 4511" d="M1002.776,326.974s-7.75-20.092-13.777-20.663,11.478,0,11.478,0l5.739,10.331Z" transform="translate(-462.62 -178)" fill="#e14b5a"/>
    <path id="Path_4512" data-name="Path 4512" d="M976.65,720.509c.408,3.116.6,5.625.6,5.625.288-1.723,18.081-9.473,18.081-9.473V712a7.92,7.92,0,0,0-1.357.066c-3.452.462-6.651,2.137-9.6,3.926a87.646,87.646,0,0,1-7.72,4.52Z" transform="translate(-458.188 -340.246)" fill="#618fd8"/>
    <path id="Path_4513" data-name="Path 4513" d="M976.65,720.509c.408,3.116.6,5.625.6,5.625.288-1.723,18.081-9.473,18.081-9.473V712a7.92,7.92,0,0,0-1.357.066c-3.452.462-6.651,2.137-9.6,3.926a87.646,87.646,0,0,1-7.72,4.52Z" transform="translate(-458.188 -340.246)" opacity="0.3"/>
    <path id="Path_4514" data-name="Path 4514" d="M904.5,718.169c3.728-1.723,19.516,3.728,19.516,3.728l1.6-5.433c-2.755-.558-5.493-1.255-8.182-2.083a27.235,27.235,0,0,1-3.674-1.357,24.608,24.608,0,0,0-2.449-1.141,12.707,12.707,0,0,0-6.315-.054C904.716,715.7,904.5,718.169,904.5,718.169Z" transform="translate(-429.351 -340.031)" fill="#618fd8"/>
    <path id="Path_4515" data-name="Path 4515" d="M904.5,718.169c3.728-1.723,19.516,3.728,19.516,3.728l1.6-5.433c-2.755-.558-5.493-1.255-8.182-2.083a27.235,27.235,0,0,1-3.674-1.357,24.608,24.608,0,0,0-2.449-1.141,12.707,12.707,0,0,0-6.315-.054C904.716,715.7,904.5,718.169,904.5,718.169Z" transform="translate(-429.351 -340.031)" opacity="0.3"/>
    <path id="Path_4516" data-name="Path 4516" d="M1012.317,746.832a1.717,1.717,0,0,0,.984-1.141,1.687,1.687,0,0,1-.984,2c-3.446,1.723-23.244,2.87-33.017-4.592v-.858C989.073,749.7,1008.872,748.555,1012.317,746.832Z" transform="translate(-459.248 -352.336)" fill="#fff" opacity="0.4"/>
    <path id="Path_4517" data-name="Path 4517" d="M883.593,748.359c6,1.435,27.555-1.723,29.56-5.169v.858c-2.011,3.446-23.532,6.6-29.56,5.169-2.461-.6-3.248-1.8-3-3.116C880.783,747.074,881.684,747.878,883.593,748.359Z" transform="translate(-419.778 -352.716)" fill="#fff" opacity="0.4"/>
    <path id="Path_4518" data-name="Path 4518" d="M927.637,402.935s-6.315-2.011-8.038,0-16.449,6.724-16.449,6.724" transform="translate(-428.812 -216.363)" opacity="0.1"/>
    <rect id="Rectangle_1392" data-name="Rectangle 1392" width="30.706" height="0.648" transform="translate(458.076 107.714) rotate(180)" fill="#8ed16f"/>
    <rect id="Rectangle_1393" data-name="Rectangle 1393" width="30.706" height="0.648" transform="translate(458.076 108.362) rotate(180)" fill="#8ed16f"/>
    <rect id="Rectangle_1394" data-name="Rectangle 1394" width="30.706" height="0.648" transform="translate(458.076 108.362) rotate(180)" opacity="0.1"/>
    <rect id="Rectangle_1395" data-name="Rectangle 1395" width="30.706" height="0.648" transform="translate(458.076 109.011) rotate(180)" fill="#8ed16f"/>
    <rect id="Rectangle_1396" data-name="Rectangle 1396" width="30.706" height="0.648" transform="translate(458.076 109.653) rotate(180)" fill="#8ed16f"/>
    <rect id="Rectangle_1397" data-name="Rectangle 1397" width="30.706" height="0.648" transform="translate(458.076 109.653) rotate(180)" opacity="0.1"/>
    <rect id="Rectangle_1398" data-name="Rectangle 1398" width="30.706" height="0.648" transform="translate(458.076 110.302) rotate(180)" fill="#8ed16f"/>
    <rect id="Rectangle_1399" data-name="Rectangle 1399" width="30.706" height="0.648" transform="translate(458.076 110.944) rotate(180)" fill="#8ed16f"/>
    <rect id="Rectangle_1400" data-name="Rectangle 1400" width="30.706" height="0.648" transform="translate(458.076 110.944) rotate(180)" opacity="0.1"/>
    <rect id="Rectangle_1401" data-name="Rectangle 1401" width="30.706" height="0.648" transform="translate(458.076 111.592) rotate(180)" fill="#8ed16f"/>
    <rect id="Rectangle_1402" data-name="Rectangle 1402" width="30.706" height="0.648" transform="translate(458.076 112.235) rotate(180)" fill="#8ed16f"/>
    <rect id="Rectangle_1403" data-name="Rectangle 1403" width="30.706" height="0.648" transform="translate(458.076 112.235) rotate(180)" opacity="0.1"/>
    <rect id="Rectangle_1404" data-name="Rectangle 1404" width="30.706" height="0.648" transform="translate(458.076 102.551) rotate(180)" fill="#8ed16f"/>
    <rect id="Rectangle_1405" data-name="Rectangle 1405" width="30.706" height="0.648" transform="matrix(-0.769, -0.639, 0.639, -0.769, 472.698, 106.836)" fill="#8ed16f"/>
    <rect id="Rectangle_1406" data-name="Rectangle 1406" width="30.706" height="0.648" transform="matrix(-0.769, -0.639, 0.639, -0.769, 451.174, 96.506)" fill="#8ed16f"/>
    <rect id="Rectangle_1407" data-name="Rectangle 1407" width="30.706" height="0.648" transform="translate(458.076 103.194) rotate(180)" fill="#8ed16f"/>
    <rect id="Rectangle_1408" data-name="Rectangle 1408" width="30.706" height="0.648" transform="translate(458.076 103.194) rotate(180)" opacity="0.1"/>
    <rect id="Rectangle_1409" data-name="Rectangle 1409" width="30.706" height="0.648" transform="translate(458.076 103.848) rotate(180)" fill="#8ed16f"/>
    <rect id="Rectangle_1410" data-name="Rectangle 1410" width="30.706" height="0.648" transform="translate(458.076 104.49) rotate(180)" fill="#8ed16f"/>
    <rect id="Rectangle_1411" data-name="Rectangle 1411" width="30.706" height="0.648" transform="translate(458.076 104.49) rotate(180)" opacity="0.1"/>
    <rect id="Rectangle_1412" data-name="Rectangle 1412" width="30.706" height="0.648" transform="translate(458.076 105.133) rotate(180)" fill="#8ed16f"/>
    <rect id="Rectangle_1413" data-name="Rectangle 1413" width="30.706" height="0.648" transform="translate(458.076 105.781) rotate(180)" fill="#8ed16f"/>
    <rect id="Rectangle_1414" data-name="Rectangle 1414" width="30.706" height="0.648" transform="translate(458.076 105.781) rotate(180)" opacity="0.1"/>
    <rect id="Rectangle_1415" data-name="Rectangle 1415" width="30.706" height="0.648" transform="translate(458.076 106.423) rotate(180)" fill="#8ed16f"/>
    <rect id="Rectangle_1416" data-name="Rectangle 1416" width="30.706" height="0.648" transform="translate(458.076 107.072) rotate(180)" fill="#8ed16f"/>
    <rect id="Rectangle_1417" data-name="Rectangle 1417" width="30.706" height="0.648" transform="translate(458.076 107.072) rotate(180)" opacity="0.1"/>
    <rect id="Rectangle_1418" data-name="Rectangle 1418" width="11.19" height="21.809" transform="translate(434.48 134.287) rotate(-169.48)" fill="#8ed16f"/>
    <ellipse id="Ellipse_1223" data-name="Ellipse 1223" cx="4.592" cy="2.293" rx="4.592" ry="2.293" transform="translate(428.03 126.71) rotate(-79.48)" fill="#8ed16f"/>
    <ellipse id="Ellipse_1224" data-name="Ellipse 1224" cx="4.592" cy="2.293" rx="4.592" ry="2.293" transform="translate(428.03 126.71) rotate(-79.48)" opacity="0.1"/>
    <rect id="Rectangle_1419" data-name="Rectangle 1419" width="11.19" height="21.809" transform="translate(436.363 179.547) rotate(-169.48)" fill="#8ed16f"/>
    <ellipse id="Ellipse_1225" data-name="Ellipse 1225" cx="4.592" cy="2.293" rx="4.592" ry="2.293" transform="translate(429.907 171.966) rotate(-79.48)" fill="#8ed16f"/>
    <ellipse id="Ellipse_1226" data-name="Ellipse 1226" cx="4.592" cy="2.293" rx="4.592" ry="2.293" transform="translate(429.907 171.966) rotate(-79.48)" opacity="0.1"/>
    <rect id="Rectangle_1420" data-name="Rectangle 1420" width="11.19" height="21.809" transform="matrix(0.476, -0.879, 0.879, 0.476, 380.241, 76.099)" fill="#8ed16f"/>
    <ellipse id="Ellipse_1227" data-name="Ellipse 1227" cx="2.299" cy="4.603" rx="2.299" ry="4.603" transform="translate(389.221 76.603) rotate(-61.39)" fill="#8ed16f"/>
    <ellipse id="Ellipse_1228" data-name="Ellipse 1228" cx="2.299" cy="4.603" rx="2.299" ry="4.603" transform="translate(389.221 76.603) rotate(-61.39)" opacity="0.1"/>
    <rect id="Rectangle_1421" data-name="Rectangle 1421" width="11.19" height="21.809" transform="matrix(0.476, -0.879, 0.879, 0.476, 338.124, 270.315)" fill="#8ed16f"/>
    <ellipse id="Ellipse_1229" data-name="Ellipse 1229" cx="2.293" cy="4.592" rx="2.293" ry="4.592" transform="matrix(0.476, -0.879, 0.879, 0.476, 345.185, 270.547)" fill="#8ed16f"/>
    <ellipse id="Ellipse_1230" data-name="Ellipse 1230" cx="2.293" cy="4.592" rx="2.293" ry="4.592" transform="matrix(0.476, -0.879, 0.879, 0.476, 345.185, 270.547)" opacity="0.1"/>
    <rect id="Rectangle_1422" data-name="Rectangle 1422" width="11.19" height="21.809" transform="matrix(0.476, -0.879, 0.879, 0.476, 312.356, 110.041)" fill="#8ed16f"/>
    <ellipse id="Ellipse_1231" data-name="Ellipse 1231" cx="2.293" cy="4.592" rx="2.293" ry="4.592" transform="matrix(0.476, -0.879, 0.879, 0.476, 319.412, 110.264)" fill="#8ed16f"/>
    <ellipse id="Ellipse_1232" data-name="Ellipse 1232" cx="2.293" cy="4.592" rx="2.293" ry="4.592" transform="matrix(0.476, -0.879, 0.879, 0.476, 319.412, 110.264)" opacity="0.1"/>
    <rect id="Rectangle_1423" data-name="Rectangle 1423" width="11.19" height="21.809" transform="matrix(0.476, -0.879, 0.879, 0.476, 344.653, 76.096)" fill="#8ed16f"/>
    <ellipse id="Ellipse_1233" data-name="Ellipse 1233" cx="2.293" cy="4.592" rx="2.293" ry="4.592" transform="matrix(0.476, -0.879, 0.879, 0.476, 351.708, 76.32)" fill="#8ed16f"/>
    <ellipse id="Ellipse_1234" data-name="Ellipse 1234" cx="2.293" cy="4.592" rx="2.293" ry="4.592" transform="matrix(0.476, -0.879, 0.879, 0.476, 351.708, 76.32)" opacity="0.1"/>
    <rect id="Rectangle_1424" data-name="Rectangle 1424" width="11.19" height="21.809" transform="matrix(0.994, -0.109, 0.109, 0.994, 371.102, 107.526)" fill="#8ed16f"/>
    <ellipse id="Ellipse_1235" data-name="Ellipse 1235" cx="2.293" cy="4.592" rx="2.293" ry="4.592" transform="matrix(0.994, -0.109, 0.109, 0.994, 374.923, 113.46)" fill="#8ed16f"/>
    <ellipse id="Ellipse_1236" data-name="Ellipse 1236" cx="2.293" cy="4.592" rx="2.293" ry="4.592" transform="matrix(0.994, -0.109, 0.109, 0.994, 374.923, 113.46)" opacity="0.1"/>
    <rect id="Rectangle_1425" data-name="Rectangle 1425" width="11.19" height="21.809" transform="matrix(0.994, -0.109, 0.109, 0.994, 447.367, 226.243)" fill="#8ed16f"/>
    <ellipse id="Ellipse_1237" data-name="Ellipse 1237" cx="2.293" cy="4.592" rx="2.293" ry="4.592" transform="matrix(0.994, -0.109, 0.109, 0.994, 451.193, 232.178)" fill="#8ed16f"/>
    <ellipse id="Ellipse_1238" data-name="Ellipse 1238" cx="2.293" cy="4.592" rx="2.293" ry="4.592" transform="matrix(0.994, -0.109, 0.109, 0.994, 451.193, 232.178)" opacity="0.1"/>
    <rect id="Rectangle_1426" data-name="Rectangle 1426" width="11.19" height="21.809" transform="matrix(0.476, -0.879, 0.879, 0.476, 333.341, 162.204)" fill="#8ed16f"/>
    <ellipse id="Ellipse_1239" data-name="Ellipse 1239" cx="2.293" cy="4.592" rx="2.293" ry="4.592" transform="matrix(0.476, -0.879, 0.879, 0.476, 340.393, 162.435)" fill="#8ed16f"/>
    <ellipse id="Ellipse_1240" data-name="Ellipse 1240" cx="2.293" cy="4.592" rx="2.293" ry="4.592" transform="matrix(0.476, -0.879, 0.879, 0.476, 340.393, 162.435)" opacity="0.1"/>
    <rect id="Rectangle_1427" data-name="Rectangle 1427" width="11.19" height="21.809" transform="matrix(0.476, -0.879, 0.879, 0.476, 284.938, 148.379)" fill="#8ed16f"/>
    <ellipse id="Ellipse_1241" data-name="Ellipse 1241" cx="2.299" cy="4.603" rx="2.299" ry="4.603" transform="translate(293.574 149.227) rotate(-61.39)" fill="#8ed16f"/>
    <ellipse id="Ellipse_1242" data-name="Ellipse 1242" cx="2.299" cy="4.603" rx="2.299" ry="4.603" transform="translate(293.574 149.227) rotate(-61.39)" opacity="0.1"/>
    <rect id="Rectangle_1428" data-name="Rectangle 1428" width="11.19" height="21.809" transform="matrix(0.476, -0.879, 0.879, 0.476, 269.435, 381.125)" fill="#8ed16f"/>
    <ellipse id="Ellipse_1243" data-name="Ellipse 1243" cx="2.293" cy="4.592" rx="2.293" ry="4.592" transform="matrix(0.476, -0.879, 0.879, 0.476, 276.49, 381.351)" fill="#8ed16f"/>
    <ellipse id="Ellipse_1244" data-name="Ellipse 1244" cx="2.293" cy="4.592" rx="2.293" ry="4.592" transform="matrix(0.476, -0.879, 0.879, 0.476, 276.49, 381.351)" opacity="0.1"/>
    <rect id="Rectangle_1429" data-name="Rectangle 1429" width="11.19" height="21.809" transform="translate(258.766 386.081) rotate(-79.49)" fill="#8ed16f"/>
    <rect id="Rectangle_1430" data-name="Rectangle 1430" width="11.19" height="21.809" transform="translate(258.766 386.081) rotate(-79.49)" opacity="0.05"/>
    <ellipse id="Ellipse_1245" data-name="Ellipse 1245" cx="2.293" cy="4.592" rx="2.293" ry="4.592" transform="translate(265.553 384.126) rotate(-79.49)" fill="#8ed16f"/>
    <ellipse id="Ellipse_1246" data-name="Ellipse 1246" cx="2.293" cy="4.592" rx="2.293" ry="4.592" transform="translate(265.553 384.126) rotate(-79.49)" opacity="0.1"/>
    <rect id="Rectangle_1431" data-name="Rectangle 1431" width="11.19" height="21.809" transform="translate(260.775 392.679) rotate(-79.49)" fill="#8ed16f"/>
    <ellipse id="Ellipse_1247" data-name="Ellipse 1247" cx="2.293" cy="4.592" rx="2.293" ry="4.592" transform="translate(267.556 390.724) rotate(-79.49)" fill="#8ed16f"/>
    <ellipse id="Ellipse_1248" data-name="Ellipse 1248" cx="2.293" cy="4.592" rx="2.293" ry="4.592" transform="translate(267.556 390.724) rotate(-79.49)" opacity="0.1"/>
    <rect id="Rectangle_1432" data-name="Rectangle 1432" width="11.19" height="21.809" transform="matrix(0.476, -0.879, 0.879, 0.476, 292.061, 409.411)" fill="#8ed16f"/>
    <ellipse id="Ellipse_1249" data-name="Ellipse 1249" cx="2.293" cy="4.592" rx="2.293" ry="4.592" transform="matrix(0.476, -0.879, 0.879, 0.476, 299.122, 409.637)" fill="#8ed16f"/>
    <ellipse id="Ellipse_1250" data-name="Ellipse 1250" cx="2.293" cy="4.592" rx="2.293" ry="4.592" transform="matrix(0.476, -0.879, 0.879, 0.476, 299.122, 409.637)" opacity="0.1"/>
    <rect id="Rectangle_1433" data-name="Rectangle 1433" width="11.19" height="21.809" transform="translate(281.395 414.359) rotate(-79.49)" fill="#8ed16f"/>
    <rect id="Rectangle_1434" data-name="Rectangle 1434" width="11.19" height="21.809" transform="translate(281.395 414.359) rotate(-79.49)" opacity="0.05"/>
    <ellipse id="Ellipse_1251" data-name="Ellipse 1251" cx="2.293" cy="4.592" rx="2.293" ry="4.592" transform="translate(288.176 412.404) rotate(-79.49)" fill="#8ed16f"/>
    <ellipse id="Ellipse_1252" data-name="Ellipse 1252" cx="2.293" cy="4.592" rx="2.293" ry="4.592" transform="translate(288.176 412.404) rotate(-79.49)" opacity="0.1"/>
    <rect id="Rectangle_1435" data-name="Rectangle 1435" width="11.19" height="21.809" transform="translate(283.403 420.964) rotate(-79.49)" fill="#8ed16f"/>
    <ellipse id="Ellipse_1253" data-name="Ellipse 1253" cx="2.293" cy="4.592" rx="2.293" ry="4.592" transform="translate(290.19 419.009) rotate(-79.49)" fill="#8ed16f"/>
    <ellipse id="Ellipse_1254" data-name="Ellipse 1254" cx="2.293" cy="4.592" rx="2.293" ry="4.592" transform="translate(290.19 419.009) rotate(-79.49)" opacity="0.1"/>
    <rect id="Rectangle_1436" data-name="Rectangle 1436" width="11.19" height="21.809" transform="matrix(0.476, -0.879, 0.879, 0.476, 326.007, 391.182)" fill="#8ed16f"/>
    <ellipse id="Ellipse_1255" data-name="Ellipse 1255" cx="2.293" cy="4.592" rx="2.293" ry="4.592" transform="matrix(0.476, -0.879, 0.879, 0.476, 333.057, 391.405)" fill="#8ed16f"/>
    <ellipse id="Ellipse_1256" data-name="Ellipse 1256" cx="2.293" cy="4.592" rx="2.293" ry="4.592" transform="matrix(0.476, -0.879, 0.879, 0.476, 333.057, 391.405)" opacity="0.1"/>
    <rect id="Rectangle_1437" data-name="Rectangle 1437" width="11.19" height="21.809" transform="translate(315.339 396.134) rotate(-79.49)" fill="#8ed16f"/>
    <rect id="Rectangle_1438" data-name="Rectangle 1438" width="11.19" height="21.809" transform="translate(315.339 396.134) rotate(-79.49)" opacity="0.05"/>
    <ellipse id="Ellipse_1257" data-name="Ellipse 1257" cx="2.293" cy="4.592" rx="2.293" ry="4.592" transform="translate(322.12 394.179) rotate(-79.49)" fill="#8ed16f"/>
    <ellipse id="Ellipse_1258" data-name="Ellipse 1258" cx="2.293" cy="4.592" rx="2.293" ry="4.592" transform="translate(322.12 394.179) rotate(-79.49)" opacity="0.1"/>
    <rect id="Rectangle_1439" data-name="Rectangle 1439" width="11.19" height="21.809" transform="translate(317.347 402.738) rotate(-79.49)" fill="#8ed16f"/>
    <ellipse id="Ellipse_1259" data-name="Ellipse 1259" cx="2.293" cy="4.592" rx="2.293" ry="4.592" transform="translate(324.134 400.784) rotate(-79.49)" fill="#8ed16f"/>
    <ellipse id="Ellipse_1260" data-name="Ellipse 1260" cx="2.293" cy="4.592" rx="2.293" ry="4.592" transform="translate(324.134 400.784) rotate(-79.49)" opacity="0.1"/>
  </g>
</svg>
