<svg id="phone" xmlns="http://www.w3.org/2000/svg" width="22.757" height="22.757" viewBox="0 0 22.757 22.757">
  <g id="Group_371" data-name="Group 371">
    <path id="Path_2417" data-name="Path 2417" d="M20.931,14.937a12.92,12.92,0,0,1-4.058-.646,1.855,1.855,0,0,0-1.8.38L12.511,16.6a14.141,14.141,0,0,1-6.358-6.356L8.028,7.754A1.839,1.839,0,0,0,8.48,5.891a12.94,12.94,0,0,1-.649-4.064A1.828,1.828,0,0,0,6.005,0H1.826A1.828,1.828,0,0,0,0,1.826,20.954,20.954,0,0,0,20.931,22.757a1.828,1.828,0,0,0,1.826-1.826V16.763A1.828,1.828,0,0,0,20.931,14.937Z" fill="#ebf9fa"/>
  </g>
</svg>
