<svg xmlns="http://www.w3.org/2000/svg" xmlns:xlink="http://www.w3.org/1999/xlink" width="1101.62" height="742.271" viewBox="0 0 1101.62 742.271">
  <defs>
    <linearGradient id="linear-gradient" x1="0.5" y1="1" x2="0.5" gradientUnits="objectBoundingBox">
      <stop offset="0" stop-color="gray" stop-opacity="0.251"/>
      <stop offset="0.54" stop-color="gray" stop-opacity="0.122"/>
      <stop offset="1" stop-color="gray" stop-opacity="0.102"/>
    </linearGradient>
  </defs>
  <g id="profile-illustration-1" transform="translate(0 0.011)" opacity="0.3">
    <path id="Path_2961" data-name="Path 2961" d="M1108.458,289.984a268.382,268.382,0,0,0-43.7-69.63l-606.244-5.969,499.145-70.118A283.312,283.312,0,0,0,856.37,124.18,283.837,283.837,0,0,0,517.29,112.7,282.584,282.584,0,0,0,387.539,81.439c-134.7,0-246.942,93.3-272.119,217.01Z" transform="translate(-28.151 -62.05)" fill="#00a8cc" opacity="0.1"/>
    <path id="Path_2962" data-name="Path 2962" d="M1125.81,404.355a261.948,261.948,0,0,0-18.893-97.925L56.216,416.714a263.6,263.6,0,0,0-24.6,62.178l325.363,48.5L24.19,562.785C34.2,702.838,154.285,813.409,300.929,813.409c73.839,0,140.924-28.037,190.628-73.733a280.9,280.9,0,0,0,192.216,75.245c110.725,0,206.3-63.048,250.8-154.2,89.278-28.334,158.64-99.485,182.372-188.447l-411.465-63.9h420.294C1125.791,407.024,1125.81,405.695,1125.81,404.355Z" transform="translate(-24.19 -72.661)" fill="#00a8cc" opacity="0.1"/>
    <ellipse id="Ellipse_834" data-name="Ellipse 834" cx="31.912" cy="11.058" rx="31.912" ry="11.058" transform="translate(565.675 622.458)" fill="#00a8cc" opacity="0.1"/>
    <ellipse id="Ellipse_835" data-name="Ellipse 835" cx="31.912" cy="11.058" rx="31.912" ry="11.058" transform="translate(966.598 622.458)" fill="#00a8cc" opacity="0.1"/>
    <ellipse id="Ellipse_836" data-name="Ellipse 836" cx="31.912" cy="11.058" rx="31.912" ry="11.058" transform="translate(530.865 677.863)" fill="#00a8cc" opacity="0.1"/>
    <ellipse id="Ellipse_837" data-name="Ellipse 837" cx="31.912" cy="11.058" rx="31.912" ry="11.058" transform="translate(1001.208 678.934)" fill="#00a8cc" opacity="0.1"/>
    <path id="Path_2963" data-name="Path 2963" d="M1068.78,705.928l6.973,14.885V610.26h-6.973Z" transform="translate(-46.403 -26.496)" fill="#b77b7f"/>
    <path id="Path_2964" data-name="Path 2964" d="M597.573,705.928,590.6,720.812V610.26h6.974Z" transform="translate(-25.642 -26.496)" fill="#b77b7f"/>
    <path id="Path_2965" data-name="Path 2965" d="M1068.78,705.928l6.973,14.885V610.26h-6.973Z" transform="translate(-46.403 -26.496)" opacity="0.1"/>
    <path id="Path_2966" data-name="Path 2966" d="M597.573,705.928,590.6,720.812V610.26h6.974Z" transform="translate(-25.642 -26.496)" opacity="0.1"/>
    <rect id="Rectangle_905" data-name="Rectangle 905" width="19.323" height="135.892" transform="translate(600.122 380.71)" fill="#b77b7f"/>
    <rect id="Rectangle_906" data-name="Rectangle 906" width="19.323" height="135.892" transform="translate(988.848 380.71)" fill="#b77b7f"/>
    <rect id="Rectangle_907" data-name="Rectangle 907" width="19.323" height="15.841" transform="translate(600.122 380.71)" opacity="0.1"/>
    <rect id="Rectangle_908" data-name="Rectangle 908" width="19.323" height="15.841" transform="translate(988.848 380.71)" opacity="0.1"/>
    <rect id="Rectangle_909" data-name="Rectangle 909" width="465.339" height="20.27" transform="translate(570.343 375.009)" fill="#dda2a6"/>
    <rect id="Rectangle_910" data-name="Rectangle 910" width="19.323" height="20.27" transform="translate(600.122 403.831)" opacity="0.1"/>
    <rect id="Rectangle_911" data-name="Rectangle 911" width="19.323" height="20.27" transform="translate(988.848 403.831)" opacity="0.1"/>
    <rect id="Rectangle_912" data-name="Rectangle 912" width="465.339" height="20.27" transform="translate(570.343 402.568)" fill="#dda2a6"/>
    <rect id="Rectangle_913" data-name="Rectangle 913" width="19.323" height="20.27" transform="translate(600.122 431.39)" opacity="0.1"/>
    <rect id="Rectangle_914" data-name="Rectangle 914" width="19.323" height="20.27" transform="translate(988.848 431.39)" opacity="0.1"/>
    <rect id="Rectangle_915" data-name="Rectangle 915" width="465.339" height="20.27" transform="translate(570.343 430.127)" fill="#dda2a6"/>
    <rect id="Rectangle_916" data-name="Rectangle 916" width="19.323" height="20.27" transform="translate(600.122 458.949)" opacity="0.1"/>
    <rect id="Rectangle_917" data-name="Rectangle 917" width="19.323" height="20.27" transform="translate(988.848 458.949)" opacity="0.1"/>
    <rect id="Rectangle_918" data-name="Rectangle 918" width="465.339" height="20.27" transform="translate(570.343 457.686)" fill="#dda2a6"/>
    <rect id="Rectangle_919" data-name="Rectangle 919" width="19.323" height="20.27" transform="translate(600.122 486.508)" opacity="0.1"/>
    <rect id="Rectangle_920" data-name="Rectangle 920" width="19.323" height="20.27" transform="translate(988.848 486.508)" opacity="0.1"/>
    <rect id="Rectangle_921" data-name="Rectangle 921" width="465.339" height="20.27" transform="translate(570.343 485.245)" fill="#dda2a6"/>
    <g id="Group_462" data-name="Group 462" transform="translate(606.981 383.608)" opacity="0.1">
      <circle id="Ellipse_838" data-name="Ellipse 838" cx="2.803" cy="2.803" r="2.803"/>
      <circle id="Ellipse_839" data-name="Ellipse 839" cx="2.803" cy="2.803" r="2.803" transform="translate(0 27.559)"/>
      <circle id="Ellipse_840" data-name="Ellipse 840" cx="2.803" cy="2.803" r="2.803" transform="translate(0 55.118)"/>
      <circle id="Ellipse_841" data-name="Ellipse 841" cx="2.803" cy="2.803" r="2.803" transform="translate(0 82.677)"/>
      <circle id="Ellipse_842" data-name="Ellipse 842" cx="2.803" cy="2.803" r="2.803" transform="translate(0 110.237)"/>
      <circle id="Ellipse_843" data-name="Ellipse 843" cx="2.803" cy="2.803" r="2.803" transform="translate(388.736)"/>
      <circle id="Ellipse_844" data-name="Ellipse 844" cx="2.803" cy="2.803" r="2.803" transform="translate(388.736 27.559)"/>
      <circle id="Ellipse_845" data-name="Ellipse 845" cx="2.803" cy="2.803" r="2.803" transform="translate(388.736 55.118)"/>
      <circle id="Ellipse_846" data-name="Ellipse 846" cx="2.803" cy="2.803" r="2.803" transform="translate(388.736 82.677)"/>
      <circle id="Ellipse_847" data-name="Ellipse 847" cx="2.803" cy="2.803" r="2.803" transform="translate(388.736 110.237)"/>
    </g>
    <circle id="Ellipse_848" data-name="Ellipse 848" cx="2.803" cy="2.803" r="2.803" transform="translate(606.981 382.346)" fill="#918c9e"/>
    <circle id="Ellipse_849" data-name="Ellipse 849" cx="2.803" cy="2.803" r="2.803" transform="translate(606.981 409.905)" fill="#918c9e"/>
    <circle id="Ellipse_850" data-name="Ellipse 850" cx="2.803" cy="2.803" r="2.803" transform="translate(606.981 437.464)" fill="#918c9e"/>
    <circle id="Ellipse_851" data-name="Ellipse 851" cx="2.803" cy="2.803" r="2.803" transform="translate(606.981 465.023)" fill="#918c9e"/>
    <circle id="Ellipse_852" data-name="Ellipse 852" cx="2.803" cy="2.803" r="2.803" transform="translate(606.981 492.582)" fill="#918c9e"/>
    <circle id="Ellipse_853" data-name="Ellipse 853" cx="2.803" cy="2.803" r="2.803" transform="translate(995.717 382.346)" fill="#918c9e"/>
    <circle id="Ellipse_854" data-name="Ellipse 854" cx="2.803" cy="2.803" r="2.803" transform="translate(995.717 409.905)" fill="#918c9e"/>
    <circle id="Ellipse_855" data-name="Ellipse 855" cx="2.803" cy="2.803" r="2.803" transform="translate(995.717 437.464)" fill="#918c9e"/>
    <circle id="Ellipse_856" data-name="Ellipse 856" cx="2.803" cy="2.803" r="2.803" transform="translate(995.717 465.023)" fill="#918c9e"/>
    <circle id="Ellipse_857" data-name="Ellipse 857" cx="2.803" cy="2.803" r="2.803" transform="translate(995.717 492.582)" fill="#918c9e"/>
    <path id="Path_2967" data-name="Path 2967" d="M1071.837,548.381H584.64l11.087-13.631h465.339Z" transform="translate(-25.383 -23.218)" fill="#dda2a6"/>
    <path id="Path_2968" data-name="Path 2968" d="M1071.837,548.381H584.64l11.087-13.631h465.339Z" transform="translate(-25.383 -23.218)" opacity="0.1"/>
    <path id="Path_2969" data-name="Path 2969" d="M1071.837,547.712H584.64l11.087-13.622h465.339Z" transform="translate(-25.383 -23.189)" fill="#dda2a6"/>
    <path id="Path_2970" data-name="Path 2970" d="M1088.107,570.274,565.43,569.012l17.745-18.692h489.732Z" transform="translate(-24.549 -23.894)" fill="#dda2a6"/>
    <path id="Path_2971" data-name="Path 2971" d="M1088.107,570.274,565.43,569.012l17.745-18.692h489.732Z" transform="translate(-24.549 -23.894)" opacity="0.1"/>
    <path id="Path_2972" data-name="Path 2972" d="M1088.107,569.614,565.43,568.352l17.745-18.692h489.732Z" transform="translate(-24.549 -23.865)" fill="#dda2a6"/>
    <path id="Path_2973" data-name="Path 2973" d="M1103.731,590.5H545.89L563,571.18l525.528.631Z" transform="translate(-23.701 -24.799)" fill="#dda2a6"/>
    <path id="Path_2974" data-name="Path 2974" d="M634.1,610.26v39.909l-6.859,13.306-2.267-47.513-.268-5.7Z" transform="translate(-27.123 -26.496)" fill="#b77b7f"/>
    <path id="Path_2975" data-name="Path 2975" d="M1043.193,610.26l-.278,5.7-2.258,47.513-6.868-13.306V610.26Z" transform="translate(-44.884 -26.496)" fill="#b77b7f"/>
    <path id="Path_2976" data-name="Path 2976" d="M634.1,610.26v39.909l-6.859,13.306-2.267-47.513-.268-5.7Z" transform="translate(-27.123 -26.496)" opacity="0.1"/>
    <path id="Path_2977" data-name="Path 2977" d="M1043.193,610.26l-.278,5.7-2.258,47.513-6.868-13.306V610.26Z" transform="translate(-44.884 -26.496)" opacity="0.1"/>
    <rect id="Rectangle_922" data-name="Rectangle 922" width="17.735" height="56.391" transform="translate(582.377 580.598)" fill="#b77b7f"/>
    <rect id="Rectangle_923" data-name="Rectangle 923" width="17.735" height="56.391" transform="translate(995.774 580.598)" fill="#b77b7f"/>
    <path id="Path_2978" data-name="Path 2978" d="M626.555,610.116h6.859v5.7h-24.6V606.95h17.745Z" transform="translate(-26.433 -26.352)" opacity="0.1"/>
    <path id="Path_2979" data-name="Path 2979" d="M1058.393,606.95v8.867h-24.6v-5.7h6.868V606.95Z" transform="translate(-44.884 -26.352)" opacity="0.1"/>
    <rect id="Rectangle_924" data-name="Rectangle 924" width="476.426" height="13.937" transform="translate(559.257 574.255)" fill="#b77b7f"/>
    <rect id="Rectangle_925" data-name="Rectangle 925" width="20.27" height="122.596" transform="translate(544.688 571.72)" fill="#b77b7f"/>
    <rect id="Rectangle_926" data-name="Rectangle 926" width="20.27" height="122.596" transform="translate(1049.63 694.316) rotate(180)" fill="#b77b7f"/>
    <rect id="Rectangle_927" data-name="Rectangle 927" width="476.426" height="1.263" transform="translate(559.257 574.255)" opacity="0.1"/>
    <rect id="Rectangle_928" data-name="Rectangle 928" width="557.841" height="8.552" transform="translate(522.189 565.704)" fill="#dda2a6"/>
    <rect id="Rectangle_929" data-name="Rectangle 929" width="557.841" height="8.552" transform="translate(522.189 565.704)" fill="#fff" opacity="0.1"/>
    <circle id="Ellipse_858" data-name="Ellipse 858" cx="2.803" cy="2.803" r="2.803" transform="translate(550.81 579.057)" opacity="0.1"/>
    <circle id="Ellipse_859" data-name="Ellipse 859" cx="2.803" cy="2.803" r="2.803" transform="translate(550.81 577.795)" fill="#918c9e"/>
    <circle id="Ellipse_860" data-name="Ellipse 860" cx="2.803" cy="2.803" r="2.803" transform="translate(1038.342 578.675)" opacity="0.1"/>
    <circle id="Ellipse_861" data-name="Ellipse 861" cx="2.803" cy="2.803" r="2.803" transform="translate(1038.342 577.412)" fill="#918c9e"/>
    <ellipse id="Ellipse_862" data-name="Ellipse 862" cx="44.883" cy="6.16" rx="44.883" ry="6.16" transform="translate(36.503 613.083)" fill="#00a8cc" opacity="0.1"/>
    <ellipse id="Ellipse_863" data-name="Ellipse 863" cx="44.883" cy="6.16" rx="44.883" ry="6.16" transform="translate(208.439 630.512)" fill="#00a8cc" opacity="0.1"/>
    <ellipse id="Ellipse_864" data-name="Ellipse 864" cx="44.883" cy="6.16" rx="44.883" ry="6.16" transform="translate(410.958 606.923)" fill="#00a8cc" opacity="0.1"/>
    <ellipse id="Ellipse_865" data-name="Ellipse 865" cx="31.912" cy="4.381" rx="31.912" ry="4.381" transform="translate(152.594 681.928)" fill="#00a8cc" opacity="0.1"/>
    <ellipse id="Ellipse_866" data-name="Ellipse 866" cx="31.912" cy="4.381" rx="31.912" ry="4.381" transform="translate(331.045 677.547)" fill="#00a8cc" opacity="0.1"/>
    <path id="Path_2980" data-name="Path 2980" d="M288.853,710.709s-62.934-206.364,9.862-289.06C353.184,359.815,415,367.21,442.691,374.862a51.177,51.177,0,0,1,33.021,27.444c9.671,20.882,7.93,54.774-60.4,94.338-114.407,66.234-121.486,157.1-121.486,157.1Z" transform="translate(-34.584 -75.414)" fill="#00a8cc"/>
    <path id="Path_2981" data-name="Path 2981" d="M433.7,405.73S248.123,463.756,289.734,712.267" transform="translate(-35.455 -76.972)" fill="none" stroke="#565987" stroke-miterlimit="10" stroke-width="1"/>
    <path id="Path_2982" data-name="Path 2982" d="M327.21,427.47s25.55,17.219,17.429,43.1" transform="translate(-37.346 -77.916)" fill="none" stroke="#565987" stroke-miterlimit="10" stroke-width="1"/>
    <path id="Path_2983" data-name="Path 2983" d="M419.488,443.057s-15.621-15.9-34.638-7.127" transform="translate(-39.849 -78.169)" fill="none" stroke="#565987" stroke-miterlimit="10" stroke-width="1"/>
    <path id="Path_2984" data-name="Path 2984" d="M342.813,526.761s-27.435-13.918-34.523,3.52" transform="translate(-36.525 -81.998)" fill="none" stroke="#565987" stroke-miterlimit="10" stroke-width="1"/>
    <path id="Path_2985" data-name="Path 2985" d="M273.42,557.365s20.643-1.645,20.968,8.255" transform="translate(-35.011 -83.551)" fill="none" stroke="#565987" stroke-miterlimit="10" stroke-width="1"/>
    <path id="Path_2986" data-name="Path 2986" d="M287.35,721.239s73.733-149.983,93.984-146.7c9.623,1.559,14.052,11.02,16.051,20.528a60.34,60.34,0,0,1-4.008,36.513C382.913,655.579,354.818,701.151,287.35,721.239Z" transform="translate(-35.616 -84.299)" fill="#00a8cc"/>
    <path id="Path_2987" data-name="Path 2987" d="M380.809,604.3S303.421,716.507,288.47,721.434" transform="translate(-35.664 -85.593)" fill="none" stroke="#565987" stroke-miterlimit="10" stroke-width="1"/>
    <line id="Line_9" data-name="Line 9" x1="18.06" transform="translate(334.23 536.212)" fill="none" stroke="#565987" stroke-miterlimit="10" stroke-width="1"/>
    <line id="Line_10" data-name="Line 10" x1="28.315" y2="1.215" transform="translate(302.338 577.269)" fill="none" stroke="#565987" stroke-miterlimit="10" stroke-width="1"/>
    <line id="Line_11" data-name="Line 11" x2="3.071" y2="14.741" transform="translate(313.424 544.429)" fill="none" stroke="#565987" stroke-miterlimit="10" stroke-width="1"/>
    <line id="Line_12" data-name="Line 12" x2="0.545" y2="13.402" transform="translate(283.321 589.312)" fill="none" stroke="#565987" stroke-miterlimit="10" stroke-width="1"/>
    <path id="Path_2988" data-name="Path 2988" d="M284.591,721.239s-73.724-149.983-93.975-146.7c-9.623,1.559-14.062,11.02-16.061,20.528a60.341,60.341,0,0,0,4.018,36.513C189.029,655.579,217.133,701.151,284.591,721.239Z" transform="translate(-30.666 -84.299)" fill="#00a8cc"/>
    <path id="Path_2989" data-name="Path 2989" d="M192,604.3s77.388,112.207,92.339,117.134" transform="translate(-31.476 -85.593)" fill="none" stroke="#565987" stroke-miterlimit="10" stroke-width="1"/>
    <line id="Line_13" data-name="Line 13" x2="18.07" transform="translate(153.378 536.212)" fill="none" stroke="#565987" stroke-miterlimit="10" stroke-width="1"/>
    <line id="Line_14" data-name="Line 14" x2="28.315" y2="1.215" transform="translate(175.016 577.269)" fill="none" stroke="#565987" stroke-miterlimit="10" stroke-width="1"/>
    <line id="Line_15" data-name="Line 15" x1="3.071" y2="14.741" transform="translate(189.174 544.429)" fill="none" stroke="#565987" stroke-miterlimit="10" stroke-width="1"/>
    <line id="Line_16" data-name="Line 16" x1="0.555" y2="13.402" transform="translate(221.803 589.312)" fill="none" stroke="#565987" stroke-miterlimit="10" stroke-width="1"/>
    <path id="Path_2990" data-name="Path 2990" d="M420.151,763.6c1.913-1.76,3.654-3.826,4.2-6.333s-.536-5.539-2.937-6.457c-2.688-1.024-5.567.842-7.748,2.726s-4.687,4.037-7.538,3.635a11.479,11.479,0,0,0,3.5-10.742,4.591,4.591,0,0,0-.957-2.181c-1.5-1.6-4.209-.909-6,.344-5.74,4.008-7.28,11.737-7.318,18.7-.574-2.506-.086-5.127-.105-7.7s-.717-5.433-2.87-6.811a8.7,8.7,0,0,0-4.41-1.043c-2.564-.1-5.414.163-7.155,2.037-2.171,2.324-1.607,6.227.277,8.791s4.783,4.161,7.4,5.931a16.417,16.417,0,0,1,5.3,5.051,5.538,5.538,0,0,1,.392.9h16.042a44.965,44.965,0,0,0,9.92-6.849Z" transform="translate(-39.613 -91.629)" fill="#00a8cc"/>
    <path id="Path_2991" data-name="Path 2991" d="M126.444,700.449a12.645,12.645,0,0,0,4.2-6.333c.545-2.506-.526-5.529-2.937-6.457-2.688-1.024-5.567.842-7.748,2.726s-4.687,4.037-7.538,3.635a11.479,11.479,0,0,0,3.549-10.742,4.64,4.64,0,0,0-.957-2.181c-1.5-1.6-4.209-.909-6,.354-5.74,4-7.28,11.737-7.308,18.692-.574-2.506-.1-5.127-.105-7.653s-.727-5.433-2.87-6.811a8.7,8.7,0,0,0-4.41-1.043c-2.554-.086-5.4.163-7.155,2.038C85,689,85.559,692.9,87.444,695.466s4.783,4.161,7.414,5.931a16.48,16.48,0,0,1,5.29,5.051,5.541,5.541,0,0,1,.392.9h16.042A44.956,44.956,0,0,0,126.444,700.449Z" transform="translate(-26.864 -88.887)" fill="#00a8cc"/>
    <path id="Path_2992" data-name="Path 2992" d="M224.324,763.6c1.913-1.76,3.654-3.826,4.2-6.333s-.526-5.539-2.937-6.457c-2.688-1.024-5.567.842-7.748,2.726s-4.687,4.037-7.538,3.635a11.479,11.479,0,0,0,3.549-10.742,4.592,4.592,0,0,0-.957-2.181c-1.5-1.6-4.209-.909-6,.344-5.692,4.008-7.28,11.737-7.308,18.7-.574-2.506-.1-5.127-.105-7.7s-.727-5.433-2.87-6.811a8.7,8.7,0,0,0-4.41-1.043c-2.554-.1-5.4.163-7.155,2.037-2.171,2.324-1.607,6.227.277,8.791s4.783,4.161,7.414,5.931a16.376,16.376,0,0,1,5.29,5.051,4.781,4.781,0,0,1,.392.9H214.4a44.963,44.963,0,0,0,9.92-6.849Z" transform="translate(-31.113 -91.629)" fill="#00a8cc"/>
    <path id="Path_2993" data-name="Path 2993" d="M503.009,636.87s6.017,7.863-2.774,19.734S484.2,678.5,487.13,685.9c0,0,13.258-22,24.058-22.355S514.89,650.128,503.009,636.87Z" transform="translate(-44.261 -87.007)" fill="#00a8cc"/>
    <path id="Path_2994" data-name="Path 2994" d="M503.024,636.87a9.64,9.64,0,0,1,1.234,2.468c10.522,12.369,16.138,23.915,6.017,24.211-9.432.268-20.739,17.132-23.455,21.389.1.325.2.651.325.957,0,0,13.258-22,24.058-22.355S514.905,650.128,503.024,636.87Z" transform="translate(-44.276 -87.007)" opacity="0.1"/>
    <path id="Path_2995" data-name="Path 2995" d="M515.387,647.269c0,2.765-.306,5.013-.689,5.013s-.7-2.248-.7-5.013.392-1.473.775-1.473S515.387,644.5,515.387,647.269Z" transform="translate(-45.456 -87.382)" fill="#ffd037"/>
    <path id="Path_2996" data-name="Path 2996" d="M519.242,650.714c-2.43,1.33-4.544,2.124-4.783,1.789s1.645-1.684,4.075-3,1.473-.364,1.655,0S521.672,649.394,519.242,650.714Z" transform="translate(-45.475 -87.526)" fill="#ffd037"/>
    <path id="Path_2997" data-name="Path 2997" d="M469.938,636.87s-6.007,7.863,2.784,19.734,16.032,21.9,13.105,29.3c0,0-13.268-22-24.058-22.355S458.067,650.128,469.938,636.87Z" transform="translate(-42.957 -87.007)" fill="#00a8cc"/>
    <path id="Path_2998" data-name="Path 2998" d="M469.938,636.87a9.845,9.845,0,0,0-1.224,2.468c-10.522,12.369-16.147,23.915-6.017,24.211,9.432.268,20.739,17.132,23.446,21.389a8.784,8.784,0,0,1-.316.957s-13.268-22-24.058-22.355S458.067,650.128,469.938,636.87Z" transform="translate(-42.957 -87.007)" opacity="0.1"/>
    <path id="Path_2999" data-name="Path 2999" d="M458.87,647.269c0,2.765.306,5.013.689,5.013s.7-2.248.7-5.013-.392-1.473-.775-1.473S458.87,644.5,458.87,647.269Z" transform="translate(-43.063 -87.382)" fill="#ffd037"/>
    <path id="Path_3000" data-name="Path 3000" d="M454.793,650.714c2.43,1.33,4.544,2.124,4.726,1.789s-1.636-1.684-4.065-3-1.473-.364-1.655,0S452.363,649.394,454.793,650.714Z" transform="translate(-42.821 -87.526)" fill="#ffd037"/>
    <path id="Path_3001" data-name="Path 3001" d="M460.87,686.647s16.817-.517,21.877-4.132,25.828-7.911,27.129-2.124,25.273,28.784,6.285,28.937-44.108-2.956-49.168-6.046S460.87,686.647,460.87,686.647Z" transform="translate(-43.149 -88.774)" fill="#a8a8a8"/>
    <path id="Path_3002" data-name="Path 3002" d="M516.475,707.721c-18.979.153-44.108-2.956-49.168-6.036-3.826-2.344-5.386-10.771-5.892-14.655h-.564s1.062,13.555,6.122,16.635,30.18,6.2,49.168,6.046c5.481,0,7.375-2,7.27-4.888C522.664,706.6,520.579,707.692,516.475,707.721Z" transform="translate(-43.148 -89.185)" opacity="0.2"/>
    <path id="Path_3003" data-name="Path 3003" d="M963.459,622.222l.564-.2s-.268-12.235-6.9-18.759-2.478-26.956-2.478-26.956.555-21.485-2.487-26.65,0-24.479,0-24.479V495.838s-2.478-7.653-3.032-28.554-2.755-18.175-6.9-24.2c-2.143-3.109-11.269-6.352-19.667-8.686a158.052,158.052,0,0,0-18.079-15.927,24.309,24.309,0,0,1,8.781-6.38c2.975-1.406,6.39-2.87,7.6-5.873a11.6,11.6,0,0,0,.325-5.414,32.394,32.394,0,0,0-1.636-8.447,11.068,11.068,0,0,0-5.6-6.342c-1.444-.631-3.319-1.071-3.74-2.573a3.627,3.627,0,0,1,.077-1.808c.65-2.946,1.722-5.845,1.655-8.858-.067-3.339-1.531-6.5-3.09-9.461-3.932-7.49-8.935-14.875-16.425-18.96-9.4-5.127-21.045-4.123-31.433-1.54a41.316,41.316,0,0,1-8.609,1.6,37.377,37.377,0,0,0-5.28.124,9.994,9.994,0,0,0-2.87.957c.191-.191.383-.4.593-.584a14.128,14.128,0,0,0-4.572,3.405,11.221,11.221,0,0,0-2.87,5.051,6.9,6.9,0,0,0-.229,1.913,9.488,9.488,0,0,0,1.913,5.013,44.534,44.534,0,0,0-4.046,2.277,5.042,5.042,0,0,0-1.674,1.464,2.984,2.984,0,0,0-.316.717,7.6,7.6,0,0,0-.641,3.319.91.91,0,0,1-.067.421c.115-.21.21-.421.306-.641-1.09,6.7-9.355,10.9-11.68,16.979a8.983,8.983,0,0,0-.956,4.056c.105,4.9,4.438,8.533,6.792,12.837,3.932,7.2,2.171,15.956,1.062,24.058-.153,1.148-.277,2.334-.354,3.53-5.826.957-12.158,2.984-16.032,7.04-8.686,9.116-4.783,1.358-11.029,21.485l-6.208,20.088-.832,14.55s-4.783,4.783-4.41,9.929-2.066,7.653-2.066,7.653-.555,10.742,0,13.325-4.142,5.166-3.826,7.48a67.3,67.3,0,0,1,0,7.653c0,.411-4.142,1.091-3.721,5.845a75,75,0,0,1,.268,8.437s-6.887,7.2-5.51,11.144-1.244,10.609-1.244,10.609-1.521,8.7-5.242,11.02c-3.032,1.913-5.424,8.982-6.208,11.565-2.774.1-42.826,1.636-41.5,6.974,1.377,5.529,39.172,7.251,43.582,7.251a3.883,3.883,0,0,0,.574-.057c-1.033,6.7-3.692,19.868-8.724,22-6.763,2.87-19.036,15.229-18.481,20.672s-2.21,38.349-4.008,42.97c-.373.957-.583,3.826-.574,7.767-8.724,15.114-15.162,27.406-16.865,30.678l-.44.851L714.5,737.6h0c-1.177-.813-9.729,10.073-9.729,10.073s-7.031,11.967-7.308,13.593-5.663,2.717-5.931,3.941-6.62,9.116-6.62,9.116-3.587,9.241-9.939,11.689-13.1,8.437-4.41,15.238,26.067,10.6,26.067,10.6,11.039-11.288,13.239-16.587,8.552-14.138,8.552-14.138,3.826-7.653,4.419-10.522,13.325-22.107,13.325-22.107l-1.378-.536c.526-.574,1.129-1.205,1.8-1.913.469-.488.957-1.014,1.5-1.54,1.473,3.616,3.252,6.074,5.386,6.562,10.207,2.315,17.515-10.063,22.212-11.288s9.786-17.113,9.786-17.113,13.937-11.7,14.071-21.045c0-2.057.077-4.247.124-6.409a110.675,110.675,0,0,1,8.016-13.488c5.156-6.888,9.193-13.6,11.775-15.047,1.913-1.052,13.794-12.876,20.088-19.218l.651-.66c1.913,4.171,4.113,7.117,6.62,7.184,1.913.057,3.463-2.726,4.687-6.7q.182.383.4.775c3.453,6.227,9.805,11.479,9.805,11.479s17.658,24.747,16.137,28.7,12.828,20.528,21.045,25.426c6.62,3.922,23.915,23.58,30.525,31.223l.957,1.129a6.14,6.14,0,0,1-1.483.373c-2.3.086,3.224,6.16,3.224,6.16s4.314,5.893,4.132,8.8,5.424,9.882,5.424,9.882,9.566,16.262,8.925,21.848-6.16,20.394,6.9,17.5,27.033-4.352,26.784-10.972-5.883-18.175-5.883-18.175l-5.8-11.613s-5.787-7.519-8.37-12.684-10.57-21.762-10.57-21.762l-2.87,1.215-.612-1.3c-2.965-6.266-10.14-21.657-18.826-41.65a164.181,164.181,0,0,0-11.479-22.288l11.479-2.42c13.22,12.34,44.28,16.128,44.28,16.128s-1.913-30.726,1.11-39.708c1.569-4.649-.784-7.327-3.568-9.566,12.436-.717,34.609-2.717,35.661-6.926S975.33,622.872,963.459,622.222Zm-34.6-7.49c-2.458-.172-4.276-.191-4.276-.191s1.1-5.022,2.755-7.748-9.929-10.063-9.193-16.865-3.769-20.94-3.769-20.94.545-14.684,0-21.485a20.777,20.777,0,0,1,2.478-11.689s6.62,17.678,3.826,20.088,0,15.5,0,15.5,4.965,17.41,7.442,23.666c1.464,3.616.957,12.072.737,19.677Z" transform="translate(-52.074 -74.148)" fill="url(#linear-gradient)"/>
    <path id="Path_3004" data-name="Path 3004" d="M766.281,612s-41.822,1.425-40.483,6.878,38.072,7.146,42.358,7.146S778.6,618.17,778.6,618.17Z" transform="translate(-54.65 -85.928)" fill="#efb7b9"/>
    <rect id="Rectangle_930" data-name="Rectangle 930" width="24.125" height="22.241" transform="translate(737.592 506.988)" fill="#67647e"/>
    <rect id="Rectangle_931" data-name="Rectangle 931" width="24.125" height="22.241" transform="translate(737.592 506.988)" opacity="0.12"/>
    <path id="Path_3005" data-name="Path 3005" d="M756.643,553.191,734.45,598l28.133,9.126,22.709-19.486,10.733-20.8,21.734,1.77,23.2,11.546,18.749,11.45,11.345,21.217,16.262,9.193,34.868-7.442,5.089-23.714L898.82,571.806l-10.312-15.612-41.8-6.084L834.6,532.07l-41.822,10.092Z" transform="translate(-31.888 -23.101)" fill="#67647e"/>
    <path id="Path_3006" data-name="Path 3006" d="M756.622,553.631,733.97,602.445l28.592,5.118,22.709-19.486L796,567.281l21.734,1.76,23.2,11.555,18.749,11.441,11.345,21.227,16.262,9.183,34.868-7.442,5.089-23.714L898.8,572.246l-10.312-15.621-41.8-6.074-12.1-18.051-41.822,10.092Z" transform="translate(-31.867 -23.12)" opacity="0.12"/>
    <path id="Path_3007" data-name="Path 3007" d="M842.073,370.158a4.831,4.831,0,0,0-1.626,1.444,7.713,7.713,0,0,0-.631,3.291c-.851,8.074-12.177,12.436-12.005,20.519.1,4.783,4.314,8.4,6.6,12.646,3.827,7.1,2.1,15.736,1.033,23.723-.813,6.055-.813,13.163,3.826,17.142,1.913,1.626,4.391,2.516,6.122,4.324,3.539,3.692,2.765,9.748,5.1,14.349a4.173,4.173,0,0,0,.957,1.3,3.991,3.991,0,0,0,1.358.7c4.505,1.483,9.652-.622,12.694-4.257s4.247-8.5,4.41-13.249-.6-9.441-1.062-14.157c-.87-9.068-.574-18.175-1.31-27.282a22,22,0,0,0-1.913-8.361c-.7-1.358-1.645-2.583-2.305-3.96a21.053,21.053,0,0,1-1.55-5.988l-2.526-15.984c-.5-3.2-.957-8.925-4.62-10.159S845.057,368.264,842.073,370.158Z" transform="translate(-59.081 -75.244)" fill="#e3787d"/>
    <path id="Path_3008" data-name="Path 3008" d="M842.073,370.158a4.831,4.831,0,0,0-1.626,1.444,7.713,7.713,0,0,0-.631,3.291c-.851,8.074-12.177,12.436-12.005,20.519.1,4.783,4.314,8.4,6.6,12.646,3.827,7.1,2.1,15.736,1.033,23.723-.813,6.055-.813,13.163,3.826,17.142,1.913,1.626,4.391,2.516,6.122,4.324,3.539,3.692,2.765,9.748,5.1,14.349a4.173,4.173,0,0,0,.957,1.3,3.991,3.991,0,0,0,1.358.7c4.505,1.483,9.652-.622,12.694-4.257s4.247-8.5,4.41-13.249-.6-9.441-1.062-14.157c-.87-9.068-.574-18.175-1.31-27.282a22,22,0,0,0-1.913-8.361c-.7-1.358-1.645-2.583-2.305-3.96a21.053,21.053,0,0,1-1.55-5.988l-2.526-15.984c-.5-3.2-.957-8.925-4.62-10.159S845.057,368.264,842.073,370.158Z" transform="translate(-59.081 -75.244)" fill="#e3787d"/>
    <g id="Group_463" data-name="Group 463" transform="translate(768.413 296.464)" opacity="0.1">
      <path id="Path_3009" data-name="Path 3009" d="M841.107,372.63a2.565,2.565,0,0,1,.057-.66,2.93,2.93,0,0,0-.5.593,7.651,7.651,0,0,0-.67,3.262,1.043,1.043,0,0,1-.057.411A10.2,10.2,0,0,0,841.107,372.63Z" transform="translate(-828.02 -371.97)"/>
      <path id="Path_3010" data-name="Path 3010" d="M866.241,463.927c-3.032,3.635-8.188,5.74-12.684,4.257a3.376,3.376,0,0,1-2.315-2c-2.344-4.553-1.569-10.6-5.108-14.3-1.731-1.8-4.218-2.688-6.122-4.324-4.639-3.979-4.639-11.077-3.826-17.142,1.071-7.987,2.793-16.625-1.033-23.714-2.286-4.257-6.5-7.834-6.6-12.656a7.878,7.878,0,0,1,.086-1.349,9.144,9.144,0,0,0-1.157,4.563c.1,4.783,4.314,8.408,6.6,12.656,3.826,7.1,2.1,15.726,1.033,23.714-.813,6.065-.813,13.163,3.826,17.152,1.913,1.626,4.391,2.516,6.122,4.324,3.539,3.692,2.765,9.748,5.1,14.291a4.209,4.209,0,0,0,.957,1.31,3.919,3.919,0,0,0,1.368.689c4.5,1.483,9.652-.622,12.684-4.257a18.353,18.353,0,0,0,3.606-7.423A16.716,16.716,0,0,1,866.241,463.927Z" transform="translate(-827.479 -372.87)"/>
    </g>
    <path id="Path_3011" data-name="Path 3011" d="M966.19,637.55s41.812,1.435,40.473,6.878-38.062,7.155-42.357,7.155-10.446-7.863-10.446-7.863Z" transform="translate(-64.553 -87.037)" fill="#efb7b9"/>
    <path id="Path_3012" data-name="Path 3012" d="M844.272,438.248s-20.5-1.205-28.937,7.777-4.7,1.339-10.723,21.179l-6.036,19.84-.8,14.349s-4.687,4.687-4.286,9.786-2.018,7.509-2.018,7.509-.536,10.589,0,13.134-4.018,5.089-3.75,7.366a67.763,67.763,0,0,1,0,7.509c0,.4-4.018,1.071-3.616,5.74a75.429,75.429,0,0,1,.268,8.3s-6.7,7.107-5.366,10.991-1.205,10.456-1.205,10.456-1.473,8.609-5.089,10.857-6.3,12.369-6.3,12.369,3.348,8.714,3.348,9.116-2.411,22.786-8.973,25.6-18.5,15.028-17.984,20.356-2.143,37.8-3.884,42.357.268,51.072,10.188,53.349,17.037-9.92,21.6-11.116,9.508-16.893,9.508-16.893,13.545-11.527,13.679-20.767.536-21.045.536-21.045-15.822-26.784-19.036-28.822-12.2-13.392-5.232-23.188,11.4-22.25,11.4-22.25l7.5-6.7,6.352-24.01,11.479-37.527,10.857-36.867,9.231-38.732,24.364-16.97S855.675,440.256,844.272,438.248Z" transform="translate(-55.197 -78.382)" fill="#67647e"/>
    <path id="Path_3013" data-name="Path 3013" d="M835.762,657.937s-1.54,1.588-3.826,3.932c-6.151,6.246-17.735,17.907-19.562,18.94-2.506,1.435-6.428,8.045-11.479,14.837S789.1,717.092,789.1,717.092s-16.8,23.589-26.622,26.1c-6.7,1.693-15.784,10.446-20.949,15.918-2.478,2.6-4.056,4.458-4.056,4.458l-19.323-7.509,2.506-6.61.43-.851c1.856-3.616,9.5-18.424,19.581-35.8,11.623-20,29.319-38.416,29.319-38.416s15.363-14.119,15.9-20.557a80.362,80.362,0,0,0-.163-10.714c-.287-4.63-.727-8.609-.727-8.609L808.4,619.32l17.879,7.461Z" transform="translate(-54.32 -86.245)" fill="#efb7b9"/>
    <path id="Path_3014" data-name="Path 3014" d="M946.5,751.251l-19.036,9.384-2.535-3c-6.419-7.528-23.226-26.909-29.654-30.773-8.083-4.869-22-21.131-20.519-25.062S859.08,673.51,859.08,673.51s-6.18-5.213-9.566-11.355c-1.645-2.994-2.611-6.208-1.856-9.145,2.267-8.992,9.776-28.7,9.776-28.7s3.625-6.036,3.884-6.447,13.44-4.927,13.44-4.927l13-1.339,16.358,13.937s-.6,3.319-1.5,7.93c-1.99,10.149-5.433,26.583-7.088,27.6-2.4,1.473,11.144,12.436,11.144,12.436s8.973,7.653,20.088,33.643c8.437,19.715,15.4,34.886,18.29,41.066C945.957,750.19,946.5,751.251,946.5,751.251Z" transform="translate(-59.931 -85.91)" fill="#efb7b9"/>
    <path id="Path_3015" data-name="Path 3015" d="M829.337,626.8l9.461,31.137s-1.54,1.588-3.826,3.932c-2.583-6.333-4.563-14.8-5.979-20.547-2.506-10.188-28.238-7.509-32.706-7.509-1.97,0-4.735,4.506-7.49,9.3-.287-4.63-.727-8.609-.727-8.609l23.408-15.181Z" transform="translate(-57.355 -86.245)" opacity="0.1"/>
    <path id="Path_3016" data-name="Path 3016" d="M904.107,625.518s-.6,3.319-1.5,7.93a34.244,34.244,0,0,0-8.332-11.594c-12.5-11.077-29.118-1.607-29.118-1.607-1.712.631-2.545,2.4-4.4,4.592a38.943,38.943,0,0,0-9.011,22.853,78.109,78.109,0,0,1-2.2,14.464c-1.645-2.994-2.611-6.208-1.856-9.145,2.267-8.992,9.776-28.7,9.776-28.7s3.625-6.036,3.884-6.447,13.411-4.927,13.411-4.927l13-1.339Z" transform="translate(-59.932 -85.91)" opacity="0.1"/>
    <path id="Path_3017" data-name="Path 3017" d="M920.612,637.367c-.182,4.467-16.807,11.479-16.807,11.479s0-18.768-12.512-29.855-29.08-1.645-29.08-1.645c-1.712.631-2.544,2.4-4.4,4.592a38.943,38.943,0,0,0-9.011,22.843c-.574,9.508-3.166,22.547-7.146,22.422-6.256-.172-10.522-18.931-13.048-29.118s-28.238-7.509-32.706-7.509-13.048,23.226-16.262,20.375,3.568-25.244,3.568-25.244l21.609-26.048,4.611-5.538,94.893,5.127s2.363,3.645,4.678,7.251c2.191,3.434,4.353,6.84,4.439,7.088C913.639,614.093,920.784,632.89,920.612,637.367Z" transform="translate(-56.952 -85.151)" fill="#444053"/>
    <path id="Path_3018" data-name="Path 3018" d="M826.67,609.348c.134.2,17.429,18.969,18.232,21.781a92.209,92.209,0,0,1,1.617,9.566s.392-6.639.957-8.514-2.009-6.227-3.884-7.653-5.366-4.085-5.835-5.223-2.678-12.8-2.678-12.8l-7.241-1.607Z" transform="translate(-59.031 -85.619)" opacity="0.1"/>
    <path id="Path_3019" data-name="Path 3019" d="M860.437,607.59S849.312,620.322,849.58,622.2,860.437,607.59,860.437,607.59Z" transform="translate(-60.026 -85.736)" opacity="0.1"/>
    <path id="Path_3020" data-name="Path 3020" d="M917.113,448.143l-12.866,17.878-35.327,7.146s-35.8-8.935-11.479-18.232a14.013,14.013,0,0,0,5.95-4.008c4.286-5.137,2.707-12.895-.861-20.452-5.606-11.909-16.08-23.341-16.08-23.341s50.307-22.25,44.586.957a23.4,23.4,0,0,0,.277,12.244c3,10.522,12.493,18.806,19.084,23.5A64.838,64.838,0,0,0,917.113,448.143Z" transform="translate(-59.89 -76.616)" fill="#efb7b9"/>
    <path id="Path_3021" data-name="Path 3021" d="M917.227,450.246l-12.866,17.879-35.327,7.146s-35.8-8.934-11.479-18.232a14.015,14.015,0,0,0,5.95-4.008c5.74,2.544,11.747,4.563,14.779,3.654,0,0,19.878-5.826,32.227-10.714A64.855,64.855,0,0,0,917.227,450.246Z" transform="translate(-60.005 -78.719)" opacity="0.1"/>
    <path id="Path_3022" data-name="Path 3022" d="M910.354,607.522a136.391,136.391,0,0,0-14.971-3.664c-4.993-.88-9.8-1.224-11.843.086-5,3.214-17.151,10.369-21.447,10.369a6.141,6.141,0,0,1-5.739-3.578s-13.23-1.435-21.81,0c-5.74.957-19.227-5.883-27.588-10.522l-.957-.536,4.611-5.539,94.893,5.127s2.363,3.645,4.678,7.251Z" transform="translate(-58.134 -85.152)" opacity="0.1"/>
    <path id="Path_3023" data-name="Path 3023" d="M906.508,574.841l3.568,23.915a137.757,137.757,0,0,0-14.971-3.673c-4.993-.88-9.805-1.215-11.843.086-5,3.224-17.151,10.369-21.447,10.369a6.141,6.141,0,0,1-5.74-3.568s-13.23-1.435-21.81,0c-5.74.957-19.227-5.883-27.588-10.522-4.18-2.334-7.079-4.113-7.079-4.113l5.357-18.95L821.4,550.869l2.5-25.359,3.922-29.3,6.122-17.84,11-26.143,1.961-4.63s2.143,1.263,5.3,2.946c1.464.775,3.138,1.645,4.926,2.516,6.811,3.338,15.181,6.763,18.969,5.615,0,0,17.668-5.175,30.046-9.862,5.74-2.181,10.293-4.238,11.479-5.634a1.253,1.253,0,0,0,.3-.583c0-.354.077-.086.153.7.765,7.892,3.425,68.281,3.425,68.281Z" transform="translate(-57.856 -78.566)" fill="#a36468"/>
    <path id="Path_3024" data-name="Path 3024" d="M925.81,511.5,910.8,574.773l3.568,23.915a137.727,137.727,0,0,0-14.97-3.673c-.852-9.8-1.827-26.363.765-31.892,3.75-8.045,5.893-33.48,5.893-33.48l4.4-80.9.431-7.825c.316-.22,5.118.67,11.049,2.191l.449.115C923.151,451.116,925.81,511.5,925.81,511.5Z" transform="translate(-62.149 -78.498)" opacity="0.1"/>
    <path id="Path_3025" data-name="Path 3025" d="M957.4,640.652c-9.355,2.812-22,5.893-23.293,2.564-.957-2.3-.851-7.452-.67-13.086,4.563.325,11.412,1.234,12.436,3.7S953.3,638.108,957.4,640.652Z" transform="translate(-63.661 -86.715)" opacity="0.1"/>
    <path id="Path_3026" data-name="Path 3026" d="M915.368,440.919c.8-.545,30.027,5.893,34.045,11.795s6.17,3.214,6.7,23.857,2.946,28.143,2.946,28.143v28.956s-2.946,19.036,0,24.125,2.411,26.268,2.411,26.268-4.018,20.088,2.411,26.545,6.7,18.491,6.7,18.491-31.366,11.259-33.48,5.9,1.071-26.268-1.339-32.438-7.241-23.321-7.241-23.321-2.678-12.866,0-15.305-3.75-19.839-3.75-19.839a20.651,20.651,0,0,0-2.411,11.527c.536,6.7,0,21.179,0,21.179s4.372,13.937,3.664,20.643,10.522,13.938,8.934,16.616a33.19,33.19,0,0,0-2.688,7.653s15.018.144,16.625,3.893,13.938,5.577,15.009,10.828,12.33,6.868,9.384,15.717-1.071,39.134-1.071,39.134-54.152-6.7-48.25-31.366,33.777-13.67,33.777-13.67-22.212-13.124-35.126-11.517-17.965-32.17-17.965-32.17-3.75-31.366,0-39.4,5.892-33.48,5.892-33.48Z" transform="translate(-62.344 -78.498)" fill="#67647e"/>
    <path id="Path_3027" data-name="Path 3027" d="M941.71,624.123s1.339-2.544,10.857-.957,14.349-.526,14.349-.526S947.612,631.23,941.71,624.123Z" transform="translate(-64.026 -86.39)" opacity="0.1"/>
    <path id="Path_3028" data-name="Path 3028" d="M938.395,495.14c-.134.4,6.974,10.857,1.607,19.3s-9.786,22-10.723,24.527-2.229,6.438-2.229,6.438" transform="translate(-63.389 -80.854)" opacity="0.1"/>
    <path id="Path_3029" data-name="Path 3029" d="M912.087,427.46s25.2,18.9,25.063,27.741c0,0-2.411,2.812-7.653,2.812s-14.607-2.545-15.678-8.447-5.1,0-2.812,3.09,3.616,4.687,3.616,4.687,23.848,6.572,28.41,9.652-1.913,6.7-1.913,6.7-6.7,12.063-6.294,14.071-16.492,28.277-16.492,28.277-5.625,28.42-5.357,33.777.67,16.74.67,16.74l-10.714,14.77s-2.621-45.562-.88-51.722,6.428-44.9,6.428-44.9,5.366-23.6,3.224-26.277-2.87-10.991-2.87-10.991Z" transform="translate(-62.278 -77.915)" opacity="0.05"/>
    <path id="Path_3030" data-name="Path 3030" d="M909.848,426.34s25.206,18.9,25.072,27.741c0,0-2.42,2.812-7.653,2.812s-14.607-2.545-15.678-8.447-5.1,0-2.822,3.09,3.625,4.687,3.625,4.687,23.848,6.572,28.41,9.652-1.913,6.7-1.913,6.7-6.7,12.072-6.3,14.081-16.434,28.324-16.434,28.324-5.634,28.42-5.357,33.777.67,16.74.67,16.74l-8.609,14.75s-4.783-45.562-3.023-51.732,6.428-44.9,6.428-44.9,5.366-23.589,3.214-26.268-2.87-10.991-2.87-10.991Z" transform="translate(-62.191 -77.867)" fill="#67647e"/>
    <path id="Path_3031" data-name="Path 3031" d="M909.848,426.34s25.206,18.9,25.072,27.741c0,0-2.42,2.812-7.653,2.812s-14.607-2.545-15.678-8.447-5.1,0-2.822,3.09,3.625,4.687,3.625,4.687,23.848,6.572,28.41,9.652-1.913,6.7-1.913,6.7-6.7,12.072-6.3,14.081-16.434,28.324-16.434,28.324-5.634,28.42-5.357,33.777.67,16.74.67,16.74l-8.609,14.75s-4.783-45.562-3.023-51.732,6.428-44.9,6.428-44.9,5.366-23.589,3.214-26.268-2.87-10.991-2.87-10.991Z" transform="translate(-62.191 -77.867)" opacity="0.12"/>
    <path id="Path_3032" data-name="Path 3032" d="M858.064,449.571a16.6,16.6,0,0,1-.957,3.769c-.957,2.965-2.525,6.993-3.826,11.106-1.913,6.361-7.758,17.831-11.259,28.7s-8.7,34.035-8.7,34.035,1.071,21.313-6.027,26.679-15.152,25.062-15.152,25.062-2.544,6.572-5.52,12.828c-4.18-2.334-7.079-4.113-7.079-4.113l5.357-18.95,16.444-17.515,2.554-25.378,3.922-29.3,6.122-17.84,11-26.143c2.965-.22,4.936-.392,4.936-.392s1-.6,2.324-1.291C854.658,449.552,858.15,448.04,858.064,449.571Z" transform="translate(-57.853 -78.847)" opacity="0.1"/>
    <path id="Path_3033" data-name="Path 3033" d="M844.2,453.243s-24.871,2.114-30.429,1.473-3.214,11.929-3.214,11.929-4.324,25.6-3.367,28.315,6.026,22.786,2.946,27.617-12.6,29.893-12.6,29.893-3.08,11.125-5.74,22.25-8.973,32.428-10.589,34.313-15.325,26.545-13.765,30.371,22.671-32.524,26.928-35.776,12.168-23.589,12.168-23.589,8.035-19.706,15.143-25.062,6.036-26.679,6.036-26.679,5.223-23.188,8.7-34.045,9.336-22.327,11.259-28.7,4.563-12.436,4.7-14.884S844.2,453.243,844.2,453.243Z" transform="translate(-56.454 -78.894)" opacity="0.05"/>
    <path id="Path_3034" data-name="Path 3034" d="M846.442,452.125s-24.871,2.114-30.429,1.473-3.214,11.929-3.214,11.929-4.285,25.6-3.348,28.277,6.026,22.786,2.946,27.617-12.6,29.932-12.6,29.932-3.08,11.125-5.74,22.25-8.982,32.438-10.589,34.322S768.164,634.5,769.7,638.362s22.671-32.591,26.928-35.8S808.8,578.968,808.8,578.968s8.045-19.706,15.143-25.062,6.036-26.679,6.036-26.679,5.223-23.188,8.715-34.045,9.327-22.327,11.259-28.7,4.553-12.436,4.687-14.884S846.442,452.125,846.442,452.125Z" transform="translate(-56.553 -78.847)" fill="#67647e"/>
    <path id="Path_3035" data-name="Path 3035" d="M846.442,452.125s-24.871,2.114-30.429,1.473-3.214,11.929-3.214,11.929-4.285,25.6-3.348,28.277,6.026,22.786,2.946,27.617-12.6,29.932-12.6,29.932-3.08,11.125-5.74,22.25-8.982,32.438-10.589,34.322S768.164,634.5,769.7,638.362s22.671-32.591,26.928-35.8S808.8,578.968,808.8,578.968s8.045-19.706,15.143-25.062,6.036-26.679,6.036-26.679,5.223-23.188,8.715-34.045,9.327-22.327,11.259-28.7,4.553-12.436,4.687-14.884S846.442,452.125,846.442,452.125Z" transform="translate(-56.553 -78.847)" opacity="0.12"/>
    <path id="Path_3036" data-name="Path 3036" d="M839.654,521.41s3.061,15.43-2.009,22.728S838.181,524.7,839.654,521.41Z" transform="translate(-59.417 -81.995)" opacity="0.1"/>
    <path id="Path_3037" data-name="Path 3037" d="M896.4,574.73s-14.205,2.544-18.893,10.054S896.4,574.73,896.4,574.73Z" transform="translate(-61.212 -84.309)" opacity="0.1"/>
    <path id="Path_3038" data-name="Path 3038" d="M896.6,590.7s-18.089,5.74-14.741,7.777,11.479-1.607,13.8-.957S896.6,590.7,896.6,590.7Z" transform="translate(-61.41 -85.003)" opacity="0.1"/>
    <path id="Path_3039" data-name="Path 3039" d="M741.549,764.972c-2.478,2.6-4.056,4.458-4.056,4.458l-19.323-7.509,2.506-6.61.431-.851a.2.2,0,0,1,.143,0c1.138.785,9.7,6.294,9.7,6.294Z" transform="translate(-54.321 -92.112)" opacity="0.1"/>
    <path id="Path_3040" data-name="Path 3040" d="M727.85,763.042s-8.562-5.5-9.709-6.3-9.461,9.929-9.461,9.929-6.83,11.795-7.1,13.392-5.5,2.678-5.74,3.884-6.438,8.982-6.438,8.982-3.482,9.116-9.642,11.479-12.742,8.313-4.3,15.009,25.33,10.455,25.33,10.455,10.723-11.125,12.875-16.348,8.3-13.937,8.3-13.937,3.759-7.509,4.3-10.321,12.837-21.753,12.837-21.753Z" transform="translate(-52.292 -92.21)" fill="#444053"/>
    <path id="Path_3041" data-name="Path 3041" d="M950.021,757.452l-19.036,9.384-2.535-3a81.667,81.667,0,0,0,9.155-4.687l11-4.726C949.476,756.391,950.021,757.452,950.021,757.452Z" transform="translate(-63.45 -92.111)" opacity="0.1"/>
    <path id="Path_3042" data-name="Path 3042" d="M938.589,760.221s-8.495,5.012-10.724,5.1,3.128,6.074,3.128,6.074,4.2,5.807,4.017,8.667,5.271,9.738,5.271,9.738,9.3,15.994,8.667,21.542-5.988,20.088,6.7,17.219,26.268-4.3,26-10.819-5.739-17.869-5.739-17.869l-5.625-11.479s-5.634-7.414-8.131-12.512-10.264-21.37-10.264-21.37Z" transform="translate(-63.401 -92.115)" fill="#444053"/>
    <path id="Path_3043" data-name="Path 3043" d="M857.939,456.785c12.034-4.6,9.461-16.358,3.826-27.062a31.929,31.929,0,0,1-15.1-11.823c-3.616,1.559-6.9,5.912-5.539,9.5a13.588,13.588,0,0,0,2.009,3.052,20.492,20.492,0,0,1-1.684,25.761c-1.024,1.052-2.257,2.171-2.248,3.645,0,1.818,1.913,3,3.6,3.616a23.5,23.5,0,0,0,6.887,1.377C848.756,462.343,850.622,459.588,857.939,456.785Z" transform="translate(-59.575 -77.5)" fill="#e3787d"/>
    <path id="Path_3044" data-name="Path 3044" d="M938.82,630.2s12.866.507,17.151,3.367a17.038,17.038,0,0,1,5.959,7.088" transform="translate(-63.9 -86.718)" opacity="0.1"/>
    <g id="Group_464" data-name="Group 464" transform="translate(779.519 344.379)" opacity="0.1">
      <path id="Path_3045" data-name="Path 3045" d="M843.066,430.88c4.2,5.6,4.831,13.478,2.152,19.9,3.826-6.7,3.606-15.793-1.081-22.049a12.951,12.951,0,0,1-2.009-3.051,5.337,5.337,0,0,1,0-3.616,6.294,6.294,0,0,0-1.071,5.739A13.2,13.2,0,0,0,843.066,430.88Z" transform="translate(-839.163 -422.06)"/>
      <path id="Path_3046" data-name="Path 3046" d="M849.526,464.655a23.322,23.322,0,0,1-5.74-1.282c-1.7-.622-3.587-1.808-3.6-3.625a2.7,2.7,0,0,1,0-.277,3.75,3.75,0,0,0-1.1,2.43c0,1.818,1.913,3,3.6,3.616a23.5,23.5,0,0,0,6.887,1.377,3.167,3.167,0,0,1-.048-2.238Z" transform="translate(-839.09 -423.684)"/>
      <path id="Path_3047" data-name="Path 3047" d="M859.338,456.332c-5.74,2.21-8.141,4.391-8.418,6.438,1.234-1.4,3.549-2.87,7.346-4.3,4.247-1.617,6.7-4.132,7.777-7.174a13.3,13.3,0,0,1-6.706,5.032Z" transform="translate(-839.604 -423.329)"/>
    </g>
    <path id="Path_3048" data-name="Path 3048" d="M891.294,420.365c-4.3,7.949-18.385,11.7-18.864,11.7a31.57,31.57,0,0,1-9.92-1.559c-5.606-11.909-16.08-23.341-16.08-23.341s50.307-22.25,44.586.957a23.4,23.4,0,0,0,.278,12.244Z" transform="translate(-59.889 -76.617)" opacity="0.1"/>
    <path id="Path_3049" data-name="Path 3049" d="M903.982,396.686A31.815,31.815,0,0,1,874.723,428.4c-.835.067-1.7.105-2.557.105a31.816,31.816,0,1,1,31.816-31.816Z" transform="translate(-59.625 -75.198)" fill="#efb7b9"/>
    <path id="Path_3050" data-name="Path 3050" d="M904.407,396.687A31.815,31.815,0,0,1,875.148,428.4c-4.881-3.97-8.459-9.47-11.319-15.133-1.224-2.458-2.391-5.127-2.076-7.863.268-2.382,1.636-4.525,2.047-6.9.679-3.826-1.282-7.71-3.3-11.1-1.913-3.128-3.673-6.773-6.361-9.26-1.416-1.311-2.726-2.621-4-3.989a31.816,31.816,0,0,1,54.267,22.528Z" transform="translate(-60.05 -75.199)" opacity="0.1"/>
    <path id="Path_3051" data-name="Path 3051" d="M848.266,369.18c-1.645-2.057-3.319-4.352-3.4-6.983-.077-2.449,1.253-4.726,2.87-6.543a12.129,12.129,0,0,1,6.7-4.085,36.689,36.689,0,0,1,5.127-.124,39.225,39.225,0,0,0,8.389-1.54c10.13-2.544,21.4-3.539,30.544,1.521,7.27,4.018,12.139,11.3,15.956,18.682,1.511,2.927,2.937,6.036,3,9.327.067,2.965-.957,5.835-1.607,8.734a3.74,3.74,0,0,0-.077,1.779c.411,1.473,2.229,1.913,3.635,2.535a10.856,10.856,0,0,1,5.443,6.246,31.925,31.925,0,0,1,1.578,8.341,11.478,11.478,0,0,1-.306,5.328c-1.177,2.994-4.5,4.4-7.395,5.787a23.523,23.523,0,0,0-8.542,6.3c-2.2,2.812-3.358,6.629-2.315,10.044a12.024,12.024,0,0,0,6.208,6.8,37.094,37.094,0,0,0,8.992,2.822,9.978,9.978,0,0,1,3.826,1.425c2.736,2,2.65,6.428.555,9.088s-5.567,3.826-8.915,4.333a32.61,32.61,0,0,1-21.427-4.534c-3.932-2.391-7.547-5.9-8.408-10.417-.545-2.8,0-5.835-1.148-8.437-1.521-3.386-5.338-4.907-8.5-6.84-6.476-3.96-10.934-10.522-14.349-17.3-1.244-2.458-2.4-5.127-2.085-7.863.268-2.382,1.636-4.525,2.047-6.887.679-3.893-1.282-7.71-3.3-11.106-1.913-3.128-3.664-6.773-6.361-9.269A66.01,66.01,0,0,1,848.266,369.18Z" transform="translate(-59.821 -74.457)" fill="#e3787d"/>
    <g id="Group_465" data-name="Group 465" transform="translate(785.149 277.495)" opacity="0.1">
      <path id="Path_3052" data-name="Path 3052" d="M925.276,418.7a30.8,30.8,0,0,0-5.6,3.386q1.176-.66,2.382-1.234a22.892,22.892,0,0,0,5.625-3.319C926.883,417.98,926.07,418.324,925.276,418.7Z" transform="translate(-848.218 -354.979)"/>
      <path id="Path_3053" data-name="Path 3053" d="M921.813,456.675a32.62,32.62,0,0,1-21.427-4.534c-3.932-2.391-7.547-5.9-8.408-10.417-.536-2.8,0-5.835-1.148-8.437-1.511-3.386-5.338-4.907-8.5-6.84-6.476-3.96-10.934-10.522-14.349-17.3-1.244-2.458-2.4-5.127-2.085-7.863.268-2.382,1.636-4.525,2.047-6.887.679-3.893-1.282-7.71-3.3-11.106-1.865-3.128-3.664-6.773-6.352-9.269a65.137,65.137,0,0,1-6.7-7.146c-1.645-2.057-3.319-4.352-3.4-6.983-.077-2.449,1.253-4.726,2.87-6.543a14.662,14.662,0,0,1,1.224-1.215,13.8,13.8,0,0,0-4.439,3.358c-1.636,1.817-2.965,4.094-2.87,6.543.086,2.631,1.76,4.926,3.405,6.983a63.379,63.379,0,0,0,6.7,7.146c2.688,2.5,4.5,6.141,6.352,9.269,2.018,3.4,3.989,7.213,3.31,11.106-.411,2.363-1.779,4.505-2.047,6.887-.316,2.736.842,5.4,2.085,7.863,3.415,6.773,7.873,13.335,14.349,17.3,3.157,1.913,6.983,3.463,8.494,6.84,1.177,2.6.612,5.634,1.148,8.437.861,4.515,4.486,8.026,8.408,10.417a32.629,32.629,0,0,0,21.427,4.534c2.984-.43,6.046-1.425,8.169-3.511a18.8,18.8,0,0,1-4.965,1.368Z" transform="translate(-844.975 -352.14)"/>
    </g>
  </g>
</svg>
