<svg xmlns="http://www.w3.org/2000/svg" xmlns:xlink="http://www.w3.org/1999/xlink" width="217.139" height="245.296" viewBox="0 0 217.139 245.296">
  <defs>
    <linearGradient id="linear-gradient" x1="0.5" y1="1" x2="0.5" gradientUnits="objectBoundingBox">
      <stop offset="0" stop-color="gray" stop-opacity="0.251"/>
      <stop offset="0.54" stop-color="gray" stop-opacity="0.122"/>
      <stop offset="1" stop-color="gray" stop-opacity="0.102"/>
    </linearGradient>
    <linearGradient id="linear-gradient-2" x1="0.5" y1="1" x2="0.5" y2="0" xlink:href="#linear-gradient"/>
    <linearGradient id="linear-gradient-3" x1="-0.001" y1="0.5" x2="1" y2="0.5" xlink:href="#linear-gradient"/>
  </defs>
  <g id="promoted-post" transform="translate(-0.093 -0.05)" opacity="0.5">
    <g id="Group_645" data-name="Group 645" transform="translate(153.879 127.488)" opacity="0.2">
      <path id="Path_3640" data-name="Path 3640" d="M749.122,751.8a7.418,7.418,0,0,1-.674,1.038q-3.357-2.36-6.828-4.634l.15-.3a6.556,6.556,0,0,1,2.322-2.529,3.879,3.879,0,0,1,3.9-.319,3.923,3.923,0,0,1,1.916,3.408A6.58,6.58,0,0,1,749.122,751.8Z" transform="translate(-741.62 -655.359)" fill="#3f3d56"/>
      <ellipse id="Ellipse_1067" data-name="Ellipse 1067" cx="5.445" cy="4.158" rx="5.445" ry="4.158" transform="translate(0.719 91.513) rotate(-62.09)" fill="#3f3d56"/>
      <ellipse id="Ellipse_1068" data-name="Ellipse 1068" cx="5.445" cy="4.158" rx="5.445" ry="4.158" transform="translate(3.835 85.632) rotate(-62.09)" fill="#3f3d56"/>
      <ellipse id="Ellipse_1069" data-name="Ellipse 1069" cx="5.445" cy="4.158" rx="5.445" ry="4.158" transform="translate(6.95 79.751) rotate(-62.09)" fill="#3f3d56"/>
      <ellipse id="Ellipse_1070" data-name="Ellipse 1070" cx="5.445" cy="4.158" rx="5.445" ry="4.158" transform="translate(10.062 73.874) rotate(-62.09)" fill="#3f3d56"/>
      <path id="Path_3641" data-name="Path 3641" d="M766.481,488.493a19.709,19.709,0,0,1-.319-2.74l10.514,3.539-10.485-5.455a19.945,19.945,0,0,1,7.052-14.126L783.4,484.4l-7.888-16.339a19.919,19.919,0,1,1,18.639,35.1,19.936,19.936,0,0,1,.319,4.276l-15.969-.128,15.739,2.593a19.919,19.919,0,0,1-11.59,15.01,19.919,19.919,0,1,1-27.673-14.656,19.925,19.925,0,0,1,11.529-21.765Z" transform="translate(-742.647 -465.029)" fill="#00a8cc"/>
      <path id="Path_3642" data-name="Path 3642" d="M792.1,609.818a19.846,19.846,0,0,1-9.53,8.888A19.919,19.919,0,1,1,754.9,604.05C754.125,599.805,793.149,607.841,792.1,609.818Z" transform="translate(-742.592 -558.82)" opacity="0.1"/>
    </g>
    <g id="Group_646" data-name="Group 646" transform="translate(0.093 0.44)" opacity="0.2">
      <path id="Path_3643" data-name="Path 3643" d="M476.161,661.5a13.82,13.82,0,0,0,.763,2.251q7.381-2.826,14.93-5.429c-.045-.2-.089-.415-.141-.639a12.625,12.625,0,0,0-3.139-5.819,6.957,6.957,0,0,0-12.309,2.993A12.631,12.631,0,0,0,476.161,661.5Z" transform="translate(-406.888 -463.349)" fill="#3f3d56"/>
      <ellipse id="Ellipse_1071" data-name="Ellipse 1071" cx="8.007" cy="10.479" rx="8.007" ry="10.479" transform="translate(63.761 175.511) rotate(-13.72)" fill="#3f3d56"/>
      <ellipse id="Ellipse_1072" data-name="Ellipse 1072" cx="8.007" cy="10.479" rx="8.007" ry="10.479" transform="translate(60.72 163.067) rotate(-13.72)" fill="#3f3d56"/>
      <ellipse id="Ellipse_1073" data-name="Ellipse 1073" cx="8.007" cy="10.479" rx="8.007" ry="10.479" transform="translate(57.683 150.623) rotate(-13.72)" fill="#3f3d56"/>
      <ellipse id="Ellipse_1074" data-name="Ellipse 1074" cx="8.007" cy="10.479" rx="8.007" ry="10.479" transform="translate(54.646 138.183) rotate(-13.72)" fill="#3f3d56"/>
      <path id="Path_3644" data-name="Path 3644" d="M333.321,121.444a37.893,37.893,0,0,0,1.856-4.969l-21.254,1.632,22.152-5.241a38.426,38.426,0,0,0-6.493-29.7l-25.907,22.631,22.439-26.773a38.347,38.347,0,1,0-51.358,56.7,38.11,38.11,0,0,0-2.59,7.831l29.89,7.307-30.6-2.593A38.369,38.369,0,0,0,286,181.8a38.347,38.347,0,1,0,58.563-14.292,38.35,38.35,0,0,0-11.245-46.069Z" transform="translate(-260.093 -67.221)" fill="#00a8cc"/>
      <path id="Path_3645" data-name="Path 3645" d="M298.638,356.093a38.168,38.168,0,0,0,13.592,21.078,38.347,38.347,0,1,0,58.563-14.292C374.24,355.33,297.616,351.912,298.638,356.093Z" transform="translate(-286.321 -262.607)" opacity="0.1"/>
    </g>
    <path id="Path_3646" data-name="Path 3646" d="M563.7,119.737h-.712V81.33A15.45,15.45,0,0,0,547.411,66h-87.23a15.454,15.454,0,0,0-15.573,15.33V97.25H444.4a.91.91,0,0,0-.917.9v7.665a.91.91,0,0,0,.917.9h.224v7.828h-.281a.907.907,0,0,0-.913.9V130.1a.91.91,0,0,0,.913.9h.281v5.749h-.243a.907.907,0,0,0-.917.9v14.8a.907.907,0,0,0,.917.9h.243V287.612a15.45,15.45,0,0,0,15.573,15.33h87.211a15.455,15.455,0,0,0,15.573-15.33V148.462h.715a.91.91,0,0,0,.917-.9V120.638a.91.91,0,0,0-.917-.9Z" transform="translate(-384.784 -65.95)" fill="url(#linear-gradient)"/>
    <g id="Group_647" data-name="Group 647" transform="translate(60.37 1.647)" opacity="0.9">
      <rect id="Rectangle_1164" data-name="Rectangle 1164" width="3.44" height="28.367" rx="1.72" transform="translate(114.447 53.083)" fill="#e5e7eb"/>
      <rect id="Rectangle_1165" data-name="Rectangle 1165" width="1.932" height="9.338" rx="0.966" transform="translate(0.07 30.861)" fill="#e5e7eb"/>
      <rect id="Rectangle_1166" data-name="Rectangle 1166" width="2.178" height="16.253" rx="1.089" transform="translate(0 47.957)" fill="#e5e7eb"/>
      <rect id="Rectangle_1167" data-name="Rectangle 1167" width="2.073" height="16.393" rx="1.036" transform="translate(0.035 69.898)" fill="#e5e7eb"/>
      <rect id="Rectangle_1168" data-name="Rectangle 1168" width="115.14" height="234.006" rx="38.99" transform="translate(1.163)" fill="#fff"/>
      <rect id="Rectangle_1169" data-name="Rectangle 1169" width="16.08" height="3.264" rx="1.632" transform="translate(47.628 6.988)" fill="#e5e7eb"/>
      <circle id="Ellipse_1075" data-name="Ellipse 1075" cx="1.852" cy="1.852" r="1.852" transform="translate(66.135 6.767)" fill="#e5e7eb"/>
    </g>
    <path id="Path_3647" data-name="Path 3647" d="M566.514,90.09h-13.18v1.6a7.531,7.531,0,0,1-7.531,7.528H503.78a7.531,7.531,0,0,1-7.531-7.528v-1.6H483.884a9.144,9.144,0,0,0-9.144,9.144V302.762a9.144,9.144,0,0,0,9.144,9.144h82.631a9.144,9.144,0,0,0,9.144-9.144V99.234a9.144,9.144,0,0,0-9.144-9.144Z" transform="translate(-406.095 -82.346)" fill="#ececf3"/>
    <ellipse id="Ellipse_1076" data-name="Ellipse 1076" cx="18.265" cy="3.088" rx="18.265" ry="3.088" transform="translate(9.667 237.608)" fill="#00a8cc"/>
    <path id="Path_3648" data-name="Path 3648" d="M334.883,785.716a5.347,5.347,0,0,0,1.741-2.628,2.342,2.342,0,0,0-1.217-2.676c-1.118-.428-2.312.345-3.216,1.127s-1.945,1.677-3.13,1.511a4.759,4.759,0,0,0,1.472-4.471,1.843,1.843,0,0,0-.409-.9c-.62-.664-1.744-.38-2.488.144-2.36,1.661-3.021,4.87-3.034,7.761a14.615,14.615,0,0,1-.045-3.194,3.292,3.292,0,0,0-1.2-2.83,3.637,3.637,0,0,0-1.833-.428,3.793,3.793,0,0,0-2.967.843,2.952,2.952,0,0,0,.115,3.647,11.472,11.472,0,0,0,3.076,2.462,6.812,6.812,0,0,1,2.194,2.1,1.887,1.887,0,0,1,.163.374h6.653A18.655,18.655,0,0,0,334.883,785.716Z" transform="translate(-299.399 -550.072)" fill="#00a8cc"/>
    <g id="Group_648" data-name="Group 648" transform="translate(187.656 216.004)" opacity="0.4">
      <ellipse id="Ellipse_1077" data-name="Ellipse 1077" cx="10.424" cy="1.763" rx="10.424" ry="1.763" transform="translate(0 5.939)" fill="#00a8cc"/>
      <path id="Path_3649" data-name="Path 3649" d="M872.951,747a3.047,3.047,0,0,0,1-1.5,1.338,1.338,0,0,0-.7-1.53,1.964,1.964,0,0,0-1.836.639c-.517.441-1.108.958-1.785.862a2.711,2.711,0,0,0,.84-2.555,1.041,1.041,0,0,0-.233-.514c-.355-.38-1-.217-1.418.08-1.348.958-1.725,2.782-1.734,4.43a8.485,8.485,0,0,1-.022-1.824,1.89,1.89,0,0,0-.687-1.616,2.082,2.082,0,0,0-1.044-.243,2.175,2.175,0,0,0-1.7.479,1.687,1.687,0,0,0,.067,2.082,6.514,6.514,0,0,0,1.757,1.405,3.927,3.927,0,0,1,1.252,1.194,1.093,1.093,0,0,1,.093.214h3.8A10.538,10.538,0,0,0,872.951,747Z" transform="translate(-858.218 -742.185)" fill="#00a8cc"/>
    </g>
    <g id="Group_649" data-name="Group 649" transform="translate(27.996 196.193)" opacity="0.4">
      <ellipse id="Ellipse_1078" data-name="Ellipse 1078" cx="10.424" cy="1.763" rx="10.424" ry="1.763" transform="translate(0 5.939)" fill="#00a8cc"/>
      <path id="Path_3650" data-name="Path 3650" d="M373.041,684.972a3.011,3.011,0,0,0,.993-1.5,1.332,1.332,0,0,0-.7-1.527,1.956,1.956,0,0,0-1.833.639,2.473,2.473,0,0,1-1.785.862,2.727,2.727,0,0,0,.84-2.555,1.079,1.079,0,0,0-.233-.517c-.355-.377-1-.214-1.421.083-1.348.958-1.725,2.779-1.731,4.427a8.275,8.275,0,0,1-.026-1.824,1.83,1.83,0,0,0-.683-1.6,2.064,2.064,0,0,0-1.048-.246,2.158,2.158,0,0,0-1.693.482,1.687,1.687,0,0,0,.067,2.082,6.613,6.613,0,0,0,1.753,1.405,3.86,3.86,0,0,1,1.252,1.194,1.312,1.312,0,0,1,.1.214h3.8A10.631,10.631,0,0,0,373.041,684.972Z" transform="translate(-358.305 -680.153)" fill="#00a8cc"/>
    </g>
    <rect id="Rectangle_1170" data-name="Rectangle 1170" width="16.317" height="16.317" transform="translate(76.387 24.642)" fill="#d6d8e0"/>
    <rect id="Rectangle_1171" data-name="Rectangle 1171" width="34.185" height="3.107" transform="translate(104.744 25.807)" fill="#d6d8e0"/>
    <rect id="Rectangle_1172" data-name="Rectangle 1172" width="56.327" height="3.107" transform="translate(104.744 31.246)" fill="#d6d8e0"/>
    <rect id="Rectangle_1173" data-name="Rectangle 1173" width="56.327" height="3.107" transform="translate(104.744 36.685)" fill="#d6d8e0"/>
    <rect id="Rectangle_1174" data-name="Rectangle 1174" width="16.317" height="16.317" transform="translate(76.511 54.554)" fill="#d6d8e0"/>
    <rect id="Rectangle_1175" data-name="Rectangle 1175" width="34.185" height="3.107" transform="translate(104.868 55.72)" fill="#d6d8e0"/>
    <rect id="Rectangle_1176" data-name="Rectangle 1176" width="56.327" height="3.107" transform="translate(104.868 61.158)" fill="#d6d8e0"/>
    <rect id="Rectangle_1177" data-name="Rectangle 1177" width="56.327" height="3.107" transform="translate(104.868 66.594)" fill="#d6d8e0"/>
    <rect id="Rectangle_1178" data-name="Rectangle 1178" width="16.317" height="16.317" transform="translate(76.636 84.466)" fill="#d6d8e0"/>
    <rect id="Rectangle_1179" data-name="Rectangle 1179" width="34.185" height="3.107" transform="translate(104.996 85.629)" fill="#d6d8e0"/>
    <rect id="Rectangle_1180" data-name="Rectangle 1180" width="56.327" height="3.107" transform="translate(104.996 91.068)" fill="#d6d8e0"/>
    <rect id="Rectangle_1181" data-name="Rectangle 1181" width="56.327" height="3.107" transform="translate(104.996 96.506)" fill="#d6d8e0"/>
    <rect id="Rectangle_1182" data-name="Rectangle 1182" width="16.317" height="16.317" transform="translate(76.76 114.375)" fill="#d6d8e0"/>
    <rect id="Rectangle_1183" data-name="Rectangle 1183" width="34.185" height="3.107" transform="translate(105.121 115.541)" fill="#d6d8e0"/>
    <rect id="Rectangle_1184" data-name="Rectangle 1184" width="56.327" height="3.107" transform="translate(105.121 120.98)" fill="#d6d8e0"/>
    <rect id="Rectangle_1185" data-name="Rectangle 1185" width="56.327" height="3.107" transform="translate(105.121 126.419)" fill="#d6d8e0"/>
    <rect id="Rectangle_1186" data-name="Rectangle 1186" width="16.317" height="16.317" transform="translate(76.888 144.288)" fill="#d6d8e0"/>
    <rect id="Rectangle_1187" data-name="Rectangle 1187" width="34.185" height="3.107" transform="translate(105.245 145.453)" fill="#d6d8e0"/>
    <rect id="Rectangle_1188" data-name="Rectangle 1188" width="56.327" height="3.107" transform="translate(105.245 150.892)" fill="#d6d8e0"/>
    <rect id="Rectangle_1189" data-name="Rectangle 1189" width="56.327" height="3.107" transform="translate(105.245 156.331)" fill="#d6d8e0"/>
    <rect id="Rectangle_1190" data-name="Rectangle 1190" width="16.317" height="16.317" transform="translate(77.013 174.2)" fill="#d6d8e0"/>
    <rect id="Rectangle_1191" data-name="Rectangle 1191" width="34.185" height="3.107" transform="translate(105.37 175.366)" fill="#d6d8e0"/>
    <rect id="Rectangle_1192" data-name="Rectangle 1192" width="56.327" height="3.107" transform="translate(105.37 180.804)" fill="#d6d8e0"/>
    <rect id="Rectangle_1193" data-name="Rectangle 1193" width="56.327" height="3.107" transform="translate(105.37 186.243)" fill="#d6d8e0"/>
    <rect id="Rectangle_1194" data-name="Rectangle 1194" width="16.317" height="16.317" transform="translate(77.137 204.112)" fill="#d6d8e0"/>
    <rect id="Rectangle_1195" data-name="Rectangle 1195" width="34.185" height="3.107" transform="translate(105.494 205.278)" fill="#d6d8e0"/>
    <rect id="Rectangle_1196" data-name="Rectangle 1196" width="56.327" height="3.107" transform="translate(105.494 210.717)" fill="#d6d8e0"/>
    <rect id="Rectangle_1197" data-name="Rectangle 1197" width="56.327" height="3.107" transform="translate(105.494 216.156)" fill="#d6d8e0"/>
    <rect id="Rectangle_1198" data-name="Rectangle 1198" width="139.07" height="34.572" transform="translate(49.569 73.841)" fill="url(#linear-gradient-2)"/>
    <rect id="Rectangle_1199" data-name="Rectangle 1199" width="137.904" height="33.02" transform="translate(50.345 74.62)" fill="#fff"/>
    <rect id="Rectangle_1200" data-name="Rectangle 1200" width="16.317" height="16.317" transform="translate(76.955 82.971)" fill="#00a8cc"/>
    <g id="Group_650" data-name="Group 650" transform="translate(105.315 84.137)" opacity="0.5">
      <rect id="Rectangle_1201" data-name="Rectangle 1201" width="34.185" height="3.107" fill="#00a8cc"/>
      <rect id="Rectangle_1202" data-name="Rectangle 1202" width="56.327" height="3.107" transform="translate(0 5.439)" fill="#00a8cc"/>
      <rect id="Rectangle_1203" data-name="Rectangle 1203" width="56.327" height="3.107" transform="translate(0 10.878)" fill="#00a8cc"/>
    </g>
    <path id="Path_3651" data-name="Path 3651" d="M465.965,386.857a2.841,2.841,0,0,0-3.357-.511,4.929,4.929,0,0,0-1.667,2.258,17.483,17.483,0,0,0-1.741,3.852c-.738,3.8-3.765,6.758-4.979,10.434a20.723,20.723,0,0,1-1.325,3.919,12.465,12.465,0,0,1-1.086,1.495,42.1,42.1,0,0,0-4.152,6.333,5.1,5.1,0,0,0-1.891,1.175,6.525,6.525,0,0,1-2.555,1.21,2.412,2.412,0,0,0-1.048.383c-.441.367-.5,1.028-.859,1.472a2.293,2.293,0,0,1-.958.639c0-.112-.016-.224-.019-.339-.016-.591-.026-1.185-.026-1.779a6.688,6.688,0,0,0-.019-8.68,13.1,13.1,0,0,1,.367-2.743,1.219,1.219,0,0,0-.259-1.258c-.176-.137-.4-.188-.591-.319a2.574,2.574,0,0,1-.639-.811,3.449,3.449,0,0,0-4.337-1.108c-1.153.607-1.852,1.82-2.874,2.644-.524.422-1.127.738-1.651,1.163a6.857,6.857,0,0,0-2.137,3.475,19.9,19.9,0,0,0-.581,4.1,3.7,3.7,0,0,0,.048,1.246,3.29,3.29,0,0,0,.469.958,10.737,10.737,0,0,0,3.97,3.785,1.553,1.553,0,0,1,0,.246,1.769,1.769,0,0,1-.07.38l-.185-.051a7.333,7.333,0,0,1-2.034-.476c-1.048-.588-1.364-2.022-2.367-2.68a1.81,1.81,0,0,0-.268-.144,17.923,17.923,0,0,0-1.028-5.324,6.635,6.635,0,0,1-.61-2.523,6.2,6.2,0,0,1,.77-2.284,58.049,58.049,0,0,0,2.874-7.866q.8-2.513,1.6-5.03a7.93,7.93,0,0,0,1.4-1.335,7.119,7.119,0,0,0,1.626-3.491,4.944,4.944,0,0,0-.9-3.692,2.133,2.133,0,0,0-1.5-.92,1.951,1.951,0,0,0-1.4.639,6.233,6.233,0,0,0-1.2,2.063,9.209,9.209,0,0,0-1,3.861c.042,1.111.457,2.354-.192,3.258a77.921,77.921,0,0,0-5.41,9.6,17.18,17.18,0,0,0-1.092,2.408,13.414,13.414,0,0,0-.572,4.152,55.673,55.673,0,0,0,.7,7.869,10.112,10.112,0,0,0,.929,3.449,14.465,14.465,0,0,0-.572,3.884,2.212,2.212,0,0,0,.141.891,3.679,3.679,0,0,0,.706.888,3.976,3.976,0,0,1,.958,3.143,8.913,8.913,0,0,0,.284,3.149c.639,2.836,1.277,5.669,1.788,8.527a5.455,5.455,0,0,1,.121,1.622,9.573,9.573,0,0,0-.434,2.284,8.638,8.638,0,0,1,.2,1.092,2.7,2.7,0,0,1-.192.818c-.728,2.117-2.686,6.972-2.664,9.214l.511-.121c-.514,2.909-1.718,5.691-2.351,8.591a28.744,28.744,0,0,0-.594,6.426,23.841,23.841,0,0,1-.051,2.906c-.1.859-.319,1.7-.441,2.555a23.146,23.146,0,0,0-.153,3.459,35.317,35.317,0,0,0,.319,5.429c.489,3.066-.367,6.113-.6,9.207a55.333,55.333,0,0,1-.735,6.458c-.176.9-.4,1.795-.517,2.705-.358,2.7.163,5.487-.4,8.154-.265,1.249-.738,2.651-.042,3.718.22.335.537.6.776.92a1.169,1.169,0,0,1,.224,1.127c-.137.294-.457.485-.537.8-.128.492.386.894.846,1.105l.131.051a1.185,1.185,0,0,0,.249.958,2.032,2.032,0,0,0,.98.511l6.03,1.827a8.046,8.046,0,0,0,4.152.479,1.045,1.045,0,0,0,.24.517,2.032,2.032,0,0,0,.981.511l5.985,1.814c1.539.466,3.229.926,4.708.294a2.673,2.673,0,0,0,1.079-.814,2.849,2.849,0,0,0,.383-2.386,1.945,1.945,0,0,0-.581-1.067,2.555,2.555,0,0,0-1.392-.457,2.812,2.812,0,0,1-1.22-.319.878.878,0,0,1-.278-.291q.517-.511,1-1.06c-.262-.09-.355-.466-.38-.741-.38-4.069,1.153-8.045,1.734-12.088a25.87,25.87,0,0,0,.153-6.125c-.07-.77-.176-1.536-.208-2.309-.15-4.024,1.772-7.895,1.705-11.922-.032-1.884.958-3.743,1.44-5.567a20.153,20.153,0,0,0,.444-4.982l.077-13.177a16.487,16.487,0,0,0-.568-5.289,6.706,6.706,0,0,1-.23-2.893c1.626-.719,3.165-1.782,4.9-1.6.463-1.23-.086-5.327-.521-6.569A28.252,28.252,0,0,1,448.776,433c.393-1.817-.147-3.749.291-5.56a3.362,3.362,0,0,1,.476-1.194,1.277,1.277,0,0,1,1.1-.578c0-1.108-.022-2.236-.1-3.36a7.986,7.986,0,0,0,1.779-2.047,31.572,31.572,0,0,0,2.165-5.132c1.172-3.066,2.772-5.943,4.117-8.942s1.475-6.279,2.555-9.383a7.052,7.052,0,0,1,3.433-3.954,5.477,5.477,0,0,0,1.782-1.073,2.874,2.874,0,0,0,.62-1.523,4.027,4.027,0,0,0-1.028-3.4ZM428.6,518.8c.131-.144.259-.287.38-.444-.4-.064-.894-.358-.9-.767a4.237,4.237,0,0,1,.262-1.2,4.791,4.791,0,0,0,.089-2.127c-.089-.495-.255-.958-.358-1.463a13.666,13.666,0,0,1-.192-1.654,27.37,27.37,0,0,0-1.163-5.864c-.578-1.849.214-3.721.418-5.646a11.131,11.131,0,0,1,.374-2.715c.188-.511.5-.958.687-1.476a6.753,6.753,0,0,0-.089-3.74c1.891-3.427,2.517-7.515,3.229-11.373q.6-3.248,1.2-6.493a6.326,6.326,0,0,1,.958-2.74,33.667,33.667,0,0,1,.728,8.732,12.964,12.964,0,0,0,.032,2.555c.147.929.533,1.808.757,2.721.5,2.015.208,4.133.319,6.205.042.837.15,1.674.185,2.51.156,3.7-1.083,7.3-2.306,10.8a40.069,40.069,0,0,0-1.277,6.825c-.339,2.149-.674,4.3-.846,6.47-.051.661-.093,1.341-.172,2.012a5.248,5.248,0,0,0-.623-.1,2.814,2.814,0,0,1-1.22-.319,1.422,1.422,0,0,1-.469-.712Z" transform="translate(-366.839 -282.839)" fill="url(#linear-gradient-3)"/>
    <path id="Path_3652" data-name="Path 3652" d="M469.718,814.8a2.589,2.589,0,0,1,1.392.454,1.938,1.938,0,0,1,.581,1.06,2.823,2.823,0,0,1-.383,2.373,2.651,2.651,0,0,1-1.079.8c-1.479.639-3.168.176-4.707-.288l-6.03-1.817a2.026,2.026,0,0,1-.98-.508,1.329,1.329,0,0,1-.026-1.549,3.025,3.025,0,0,1,1.277-1.019,14.358,14.358,0,0,1,6.068-1.162c.766-.016,1.52-.182,2.041.409.275.319.227.658.639.929A2.767,2.767,0,0,0,469.718,814.8Z" transform="translate(-394.871 -574.458)" fill="#3f3d56"/>
    <path id="Path_3653" data-name="Path 3653" d="M434.048,804.418a2.555,2.555,0,0,1,1.392.45,1.971,1.971,0,0,1,.581,1.06,2.82,2.82,0,0,1-.383,2.373,2.657,2.657,0,0,1-1.079.808c-1.479.639-3.168.172-4.708-.291L423.822,807a2,2,0,0,1-.98-.508,1.329,1.329,0,0,1-.026-1.549,3.006,3.006,0,0,1,1.277-1.019,14.324,14.324,0,0,1,6.052-1.163c.763,0,1.52-.182,2.041.409.275.319.227.661.639.929a2.813,2.813,0,0,0,1.223.316Z" transform="translate(-370.593 -567.395)" fill="#3f3d56"/>
    <path id="Path_3654" data-name="Path 3654" d="M435.464,600.687a74.273,74.273,0,0,0-10.693-.3,2.1,2.1,0,0,0-.693.109c-.786.319-.907,1.348-.984,2.191-.3,3.408-1.8,6.586-2.555,9.929a28.346,28.346,0,0,0-.594,6.387,23.47,23.47,0,0,1-.051,2.874c-.1.856-.319,1.689-.441,2.555a22.848,22.848,0,0,0-.153,3.436,34.866,34.866,0,0,0,.319,5.388c.489,3.047-.367,6.068-.6,9.147a54.7,54.7,0,0,1-.735,6.416c-.176.894-.4,1.782-.517,2.686-.358,2.686.163,5.455-.4,8.1-.265,1.239-.738,2.632-.042,3.692.22.335.536.594.776.913a1.159,1.159,0,0,1,.224,1.121c-.137.291-.457.482-.537.792-.128.489.386.891.846,1.1a8.824,8.824,0,0,0,10.271-2.539c-.4-.064-.894-.355-.9-.76a4.19,4.19,0,0,1,.262-1.191,4.727,4.727,0,0,0,.089-2.114c-.089-.489-.255-.958-.358-1.453a13.468,13.468,0,0,1-.192-1.641,27.024,27.024,0,0,0-1.163-5.825c-.578-1.836.214-3.7.418-5.611a11,11,0,0,1,.374-2.7c.188-.508.5-.958.687-1.466a6.663,6.663,0,0,0-.089-3.714c1.891-3.408,2.517-7.467,3.229-11.3l1.2-6.451a6.232,6.232,0,0,1,.958-2.721,33.244,33.244,0,0,1,.728,8.677,12.779,12.779,0,0,0,.032,2.52c.147.923.533,1.795.757,2.705.5,2,.208,4.1.319,6.164.041.83.15,1.661.185,2.494.156,3.676-1.083,7.253-2.306,10.725a39.619,39.619,0,0,0-1.277,6.78c-.339,2.137-.674,4.273-.846,6.429-.156,1.98-.224,4.123-1.456,5.678a10.448,10.448,0,0,0,3.606,1.728,6.687,6.687,0,0,0,4.449-.859,14.053,14.053,0,0,0,3.513-2.989c-.262-.089-.354-.466-.38-.738-.38-4.04,1.153-7.984,1.734-12.008a25.547,25.547,0,0,0,.153-6.087c-.07-.763-.176-1.523-.208-2.29-.15-4,1.773-7.847,1.705-11.846-.032-1.871.958-3.721,1.44-5.532a19.844,19.844,0,0,0,.444-4.947l.077-13.094a16.291,16.291,0,0,0-.568-5.257c-.7-2.009.1-4.321.22-6.445A26.577,26.577,0,0,1,435.464,600.687Z" transform="translate(-366.771 -429.1)" fill="#3f3d56"/>
    <path id="Path_3655" data-name="Path 3655" d="M510.086,421.649a41.757,41.757,0,0,1,4.89-7.722,12.593,12.593,0,0,0,1.086-1.482,20.482,20.482,0,0,0,1.325-3.893c1.214-3.654,4.241-6.589,4.979-10.367a17.541,17.541,0,0,1,1.741-3.832,4.833,4.833,0,0,1,1.667-2.236,2.841,2.841,0,0,1,3.357.511A3.979,3.979,0,0,1,530.156,396a2.815,2.815,0,0,1-.62,1.514,5.551,5.551,0,0,1-1.782,1.07,6.994,6.994,0,0,0-3.433,3.925c-1.067,3.085-1.2,6.349-2.555,9.322s-2.945,5.832-4.117,8.875a30.587,30.587,0,0,1-2.165,5.11,6.289,6.289,0,0,1-4.331,3.175,10.878,10.878,0,0,0-.537-3.4C510.23,424.322,509.505,422.825,510.086,421.649Z" transform="translate(-430.005 -287.681)" fill="#a0616a"/>
    <path id="Path_3656" data-name="Path 3656" d="M434.46,421.178a17.71,17.71,0,0,0-1.035-6.637,6.571,6.571,0,0,1-.61-2.507,6.127,6.127,0,0,1,.77-2.268,57.428,57.428,0,0,0,2.874-7.818l1.6-4.995a7.983,7.983,0,0,0,1.4-1.325,7.071,7.071,0,0,0,1.626-3.468,4.893,4.893,0,0,0-.9-3.67,2.121,2.121,0,0,0-1.5-.91,1.932,1.932,0,0,0-1.4.639,6.177,6.177,0,0,0-1.2,2.05,9.1,9.1,0,0,0-1,3.832c.041,1.105.457,2.338-.192,3.235a77.362,77.362,0,0,0-5.41,9.54,16.989,16.989,0,0,0-1.092,2.392,13.26,13.26,0,0,0-.572,4.133,54.97,54.97,0,0,0,.7,7.818c.224,1.622.524,3.392,1.753,4.471A26.135,26.135,0,0,1,434.46,421.178Z" transform="translate(-374.154 -284.827)" fill="#a0616a"/>
    <circle id="Ellipse_1079" data-name="Ellipse 1079" cx="6.627" cy="6.627" r="6.627" transform="translate(61.807 124.346)" fill="#a0616a"/>
    <path id="Path_3657" data-name="Path 3657" d="M457.554,488.714a8.841,8.841,0,0,1-1.428,3.305c-.38.639-.859,1.319-1.6,1.389a31.937,31.937,0,0,0,6.017,2.421,6.843,6.843,0,0,0,2.2.355,5.373,5.373,0,0,0,1.83-.47,9.086,9.086,0,0,0,5.155-6.068,11.964,11.964,0,0,1-2.459-.188,1.815,1.815,0,0,1-1.207-.591,1.945,1.945,0,0,1-.249-1.07q-.048-1.658,0-3.315a13.093,13.093,0,0,0-4.816.591c-.639.208-1.277.46-1.932.623-.4.1-1.511,0-1.808.233C456.81,486.284,457.673,487.9,457.554,488.714Z" transform="translate(-392.339 -350.763)" fill="#a0616a"/>
    <path id="Path_3658" data-name="Path 3658" d="M444.558,490.177a4.168,4.168,0,0,0-3.168-3.7,7.326,7.326,0,0,1-2.034-.473c-1.048-.584-1.364-2.009-2.367-2.664a2.8,2.8,0,0,0-3.309.54A7.127,7.127,0,0,0,432,487.038a15.891,15.891,0,0,0-.859,4.838,2.2,2.2,0,0,0,.141.888,3.726,3.726,0,0,0,.706.885,3.922,3.922,0,0,1,.958,3.117,8.825,8.825,0,0,0,.284,3.133c.639,2.814,1.277,5.63,1.788,8.47a5.392,5.392,0,0,1,.121,1.6,9.45,9.45,0,0,0-.434,2.264,8.575,8.575,0,0,1,.2,1.089,2.641,2.641,0,0,1-.192.808c-.728,2.108-2.686,6.93-2.664,9.156a55.391,55.391,0,0,1,11.925-1.079,25.046,25.046,0,0,1,2.9.128c2.309.246,4.672.92,6.911.3,2.076-.578,3.919-2.236,6.068-2.025.463-1.223-.086-5.3-.521-6.528a27.894,27.894,0,0,1-.958-15.116c.393-1.808-.147-3.724.291-5.522a3.309,3.309,0,0,1,.476-1.188,1.278,1.278,0,0,1,1.1-.575,40.687,40.687,0,0,0-.8-8.6c-.214-1.006-.658-2.194-1.67-2.366-.913-.153-1.683.616-2.414,1.185a6.6,6.6,0,0,1-2.555,1.2,2.4,2.4,0,0,0-1.048.38c-.441.364-.5,1.022-.859,1.466-.639.8-2.066.725-2.52,1.642a5.738,5.738,0,0,0-.243.84,3.073,3.073,0,0,1-1.051,1.357A5.928,5.928,0,0,1,444.558,490.177Z" transform="translate(-376.421 -348.199)" fill="#00a8cc"/>
    <path id="Path_3659" data-name="Path 3659" d="M463.008,445.72a1.212,1.212,0,0,0-.259-1.252c-.176-.137-.4-.188-.591-.319a2.555,2.555,0,0,1-.639-.808,3.468,3.468,0,0,0-4.347-1.1c-1.153.6-1.852,1.811-2.874,2.628-.524.422-1.127.735-1.651,1.153a6.816,6.816,0,0,0-2.137,3.456,19.664,19.664,0,0,0-.578,4.078,3.663,3.663,0,0,0,.048,1.239,3.254,3.254,0,0,0,.469.942,10.626,10.626,0,0,0,4.184,3.871,6.489,6.489,0,0,0,5.576.1.994.994,0,0,0,.428-.345,1.2,1.2,0,0,0,.064-.738,5.062,5.062,0,0,1,.559-2.823c.319-.639.8-1.188,1.054-1.852a6.579,6.579,0,0,0,.3-2.293A24.579,24.579,0,0,1,463.008,445.72Z" transform="translate(-389.189 -321.792)" fill="#2d293d"/>
    <rect id="Rectangle_1204" data-name="Rectangle 1204" width="16.317" height="16.317" transform="translate(76.888 83.166)" fill="#00a8cc"/>
    <path id="Path_3660" data-name="Path 3660" d="M523.059,361.394a2.142,2.142,0,0,1-1.105,1,2.743,2.743,0,0,1-.878.166,2.479,2.479,0,0,1-.958-.118,2.2,2.2,0,0,1-1.012-.808,5.108,5.108,0,0,1-.588-1.175,1.3,1.3,0,0,1-.118-.664.958.958,0,0,0,.639-.361.808.808,0,0,0,.016-.639c-.019-.064-.038-.125-.061-.182-.048-.141-.214-.406-.1-.524s.383-.115.489-.163a4.61,4.61,0,0,1,.993-.444,2.414,2.414,0,0,1,.942.061.319.319,0,0,1,.118.045.274.274,0,0,1,.086.128c.09.217.141.457.211.68a1.4,1.4,0,0,0,.351.623,1.765,1.765,0,0,0,.489.294l.428.195a.609.609,0,0,1,.2.131.53.53,0,0,1,.1.262A2.449,2.449,0,0,1,523.059,361.394Z" transform="translate(-435.808 -264.329)" fill="#a0616a"/>
    <path id="Path_3661" data-name="Path 3661" d="M522.7,358.428a2.22,2.22,0,0,1-2.68.4c-.019-.064-.038-.125-.061-.182-.048-.141-.214-.406-.1-.524s.383-.115.489-.163a4.613,4.613,0,0,1,.993-.444,2.415,2.415,0,0,1,.942.061.32.32,0,0,1,.118.045.274.274,0,0,1,.086.128C522.583,357.975,522.634,358.2,522.7,358.428Z" transform="translate(-436.781 -264.349)" opacity="0.1"/>
    <circle id="Ellipse_1080" data-name="Ellipse 1080" cx="2.216" cy="2.216" r="2.216" transform="translate(82.11 90.231)" fill="#a0616a"/>
    <path id="Path_3662" data-name="Path 3662" d="M520.68,367.764H510.249c-.319-.712-.607-1.428-.929-2.14h0a1.485,1.485,0,0,1,.188-.479.521.521,0,0,1,.428-.24c.093,0,.2.035.265-.032s.045-.121.093-.166a.39.39,0,0,1,.252-.038.578.578,0,0,0,.492-.246.786.786,0,0,1,.125-.163.713.713,0,0,1,.268-.07c.259-.057.412-.319.607-.482a.364.364,0,0,1,.383-.105.236.236,0,0,1,.08.067.72.72,0,0,1,.105.265,2.37,2.37,0,0,0,.834,1.345,1.891,1.891,0,0,0,2.855-.712,3.72,3.72,0,0,0,.262-1.21V363.3a.914.914,0,0,1,.76.15,4.292,4.292,0,0,0,.677.425c.284.112.639.112.834.319.083.083.141.2.246.249a.736.736,0,0,0,.2.048,1.21,1.21,0,0,1,.8.7,5.467,5.467,0,0,1,.447,1.616Z" transform="translate(-429.631 -268.285)" fill="#f86d70"/>
    <path id="Path_3663" data-name="Path 3663" d="M515.41,343.173a1.677,1.677,0,0,0-.386.447,2.2,2.2,0,0,1-.773.76.958.958,0,0,0-.354.22.591.591,0,0,0-.093.249,4.676,4.676,0,0,0-.1.942,1,1,0,0,0,.077.466c.064.134.185.249.208.4a1.157,1.157,0,0,1-.038.345.3.3,0,0,0,.118.319.81.81,0,0,0,.179.042c.319.07.428.447.476.757.109,0,.156-.131.182-.233l.319-1.485c.038-.16.1-.348.259-.4a.808.808,0,0,1,.339,0c.441.038.811-.3,1.242-.4a1.694,1.694,0,0,1,.422-.026c.339,0,.735.156.808.473a.159.159,0,0,0,.067.141.268.268,0,0,0,.15,0c.214-.022.342.22.406.418l.224.725c.035.109.093.24.211.252a.224.224,0,0,0,.22-.195.885.885,0,0,0-.045-.319,3.457,3.457,0,0,1,.156-1.434,1.571,1.571,0,0,0-.217-1.389c-.121-.131-.281-.23-.393-.371s-.163-.291-.271-.422a2.788,2.788,0,0,0-1.549-.677,3.175,3.175,0,0,0-1.843.4Z" transform="translate(-432.613 -254.322)" fill="#3f3d56"/>
    <g id="Group_651" data-name="Group 651" transform="translate(81.091 90.598)" opacity="0.1">
      <path id="Path_3664" data-name="Path 3664" d="M519.9,352.474c-.118,0-.176-.144-.211-.252l-.224-.725c-.064-.2-.192-.441-.406-.422a.268.268,0,0,1-.15,0c-.048-.026-.054-.086-.067-.141-.073-.319-.469-.457-.808-.473a1.554,1.554,0,0,0-.422.029c-.431.093-.8.434-1.242.4a.933.933,0,0,0-.339,0c-.163.057-.22.243-.259.406-.112.5-.22.99-.319,1.482-.026.1-.073.227-.182.233-.048-.319-.156-.687-.476-.757a.665.665,0,0,1-.179-.042.2.2,0,0,1-.093-.105,1.036,1.036,0,0,1-.026.137.3.3,0,0,0,.118.319.814.814,0,0,0,.179.042c.319.07.428.447.476.757.109,0,.157-.131.182-.233.112-.495.22-.99.319-1.485.038-.16.1-.348.259-.4a.808.808,0,0,1,.339,0c.441.038.811-.3,1.242-.4a1.691,1.691,0,0,1,.422-.026c.339,0,.734.156.808.473a.159.159,0,0,0,.067.141.269.269,0,0,0,.15,0c.214-.022.342.22.406.418l.224.725c.035.109.093.24.211.252a.224.224,0,0,0,.22-.195.637.637,0,0,0-.032-.256A.2.2,0,0,1,519.9,352.474Z" transform="translate(-514.242 -350.159)"/>
      <path id="Path_3665" data-name="Path 3665" d="M514,352.433c-.022-.147-.144-.262-.208-.4a.809.809,0,0,1-.073-.287v.16a1,1,0,0,0,.077.466c.051.109.141.2.185.319A.713.713,0,0,0,514,352.433Z" transform="translate(-513.711 -351.038)"/>
      <path id="Path_3666" data-name="Path 3666" d="M532.081,349.89a4.153,4.153,0,0,0-.182,1.278,7.773,7.773,0,0,1,.182-.933,2.447,2.447,0,0,0,.054-.715A2.9,2.9,0,0,1,532.081,349.89Z" transform="translate(-526.09 -349.52)"/>
    </g>
    <path id="Path_3667" data-name="Path 3667" d="M509.538,372.2H507.05a7.822,7.822,0,0,1,.584-1.942.445.445,0,0,1,.105-.169.151.151,0,0,1,.035-.029c.073-.057.176-.08.256-.134s.089-.112.163-.134a2.206,2.206,0,0,1,.811.134.815.815,0,0,1,.214.054.722.722,0,0,1,.338.415A3.918,3.918,0,0,1,509.538,372.2Z" transform="translate(-428.086 -272.717)" fill="#f86d70"/>
  </g>
</svg>
