<svg xmlns="http://www.w3.org/2000/svg" width="295.829" height="273.364" viewBox="0 0 295.829 273.364">
  <g id="services-illustrations" transform="translate(0 0)">
    <path id="Path_4029" data-name="Path 4029" d="M222.669,143.094a17.95,17.95,0,0,0-17.93,17.93V367.589a17.951,17.951,0,0,0,17.93,17.93H374.2a17.95,17.95,0,0,0,17.93-17.93V161.024a17.951,17.951,0,0,0-17.93-17.93Z" transform="translate(-204.739 -121.262)" fill="#3f3d56"/>
    <rect id="Rectangle_1305" data-name="Rectangle 1305" width="168.743" height="216.955" transform="translate(9.324 34.567)" fill="#fff"/>
    <rect id="Rectangle_1306" data-name="Rectangle 1306" width="124.624" height="8.187" transform="translate(31.383 73.455)" fill="#00a8cc"/>
    <rect id="Rectangle_1307" data-name="Rectangle 1307" width="124.624" height="8.187" transform="translate(31.383 95.287)" fill="#00a8cc"/>
    <rect id="Rectangle_1308" data-name="Rectangle 1308" width="124.624" height="8.187" transform="translate(31.383 117.119)" fill="#00a8cc"/>
    <rect id="Rectangle_1309" data-name="Rectangle 1309" width="124.624" height="8.187" transform="translate(31.383 138.951)" fill="#00a8cc"/>
    <rect id="Rectangle_1310" data-name="Rectangle 1310" width="124.624" height="8.187" transform="translate(31.383 160.783)" fill="#00a8cc"/>
    <rect id="Rectangle_1311" data-name="Rectangle 1311" width="124.624" height="8.187" transform="translate(31.383 182.615)" fill="#00a8cc"/>
    <rect id="Rectangle_1312" data-name="Rectangle 1312" width="124.624" height="8.187" transform="translate(31.383 204.446)" fill="#00a8cc"/>
    <rect id="Rectangle_1313" data-name="Rectangle 1313" width="125.628" height="161.522" transform="translate(34.185 43.425) rotate(-10.37)" fill="#e6e6e6"/>
    <rect id="Rectangle_1314" data-name="Rectangle 1314" width="92.782" height="6.095" transform="translate(55.551 68.948) rotate(-10.37)" fill="#00a8cc"/>
    <rect id="Rectangle_1315" data-name="Rectangle 1315" width="92.782" height="6.095" transform="translate(58.477 84.936) rotate(-10.37)" fill="#00a8cc"/>
    <rect id="Rectangle_1316" data-name="Rectangle 1316" width="92.782" height="6.095" transform="translate(61.403 100.924) rotate(-10.37)" fill="#00a8cc"/>
    <rect id="Rectangle_1317" data-name="Rectangle 1317" width="92.782" height="6.095" transform="translate(64.329 116.913) rotate(-10.37)" fill="#00a8cc"/>
    <rect id="Rectangle_1318" data-name="Rectangle 1318" width="92.782" height="6.095" transform="translate(67.255 132.901) rotate(-10.37)" fill="#00a8cc"/>
    <rect id="Rectangle_1319" data-name="Rectangle 1319" width="92.782" height="6.095" transform="translate(70.18 148.889) rotate(-10.37)" fill="#00a8cc"/>
    <rect id="Rectangle_1320" data-name="Rectangle 1320" width="92.782" height="6.095" transform="translate(73.106 164.877) rotate(-10.37)" fill="#00a8cc"/>
    <rect id="Rectangle_1321" data-name="Rectangle 1321" width="35.547" height="45.703" transform="translate(210.262 201.016) rotate(-10.37)" fill="#e6e6e6"/>
    <rect id="Rectangle_1322" data-name="Rectangle 1322" width="26.253" height="1.725" transform="translate(216.308 208.238) rotate(-10.37)" fill="#fff"/>
    <rect id="Rectangle_1323" data-name="Rectangle 1323" width="26.253" height="1.725" transform="translate(217.136 212.761) rotate(-10.37)" fill="#fff"/>
    <rect id="Rectangle_1324" data-name="Rectangle 1324" width="26.253" height="1.725" transform="translate(217.964 217.285) rotate(-10.37)" fill="#fff"/>
    <rect id="Rectangle_1325" data-name="Rectangle 1325" width="26.253" height="1.725" transform="translate(218.792 221.809) rotate(-10.37)" fill="#fff"/>
    <rect id="Rectangle_1326" data-name="Rectangle 1326" width="26.253" height="1.725" transform="translate(219.62 226.333) rotate(-10.37)" fill="#fff"/>
    <rect id="Rectangle_1327" data-name="Rectangle 1327" width="26.253" height="1.725" transform="translate(220.447 230.857) rotate(-10.37)" fill="#fff"/>
    <rect id="Rectangle_1328" data-name="Rectangle 1328" width="26.253" height="1.725" transform="translate(221.275 235.381) rotate(-10.37)" fill="#fff"/>
    <path id="Path_4030" data-name="Path 4030" d="M420.187,96.124h-14.87V93.08a8.327,8.327,0,0,0-8.327-8.327H380.9a8.327,8.327,0,0,0-8.327,8.327v3.044H357.7a8.327,8.327,0,0,0-8.327,8.327v23.057h79.141V104.451a8.327,8.327,0,0,0-8.327-8.327Z" transform="translate(-295.248 -84.754)" fill="#3f3d56"/>
    <path id="Path_4031" data-name="Path 4031" d="M439.186,699.514c2.459-1.683,4.985-3.432,7.9-4.2,2.664-.7,5.722-.513,7.829,1.437a4.8,4.8,0,0,1,1.158,6.064,3.854,3.854,0,0,1-2.553,1.858,3.076,3.076,0,0,1-2.765-1.08,2.82,2.82,0,0,1-.7-2.771,3.63,3.63,0,0,1,2.326-1.976,17.215,17.215,0,0,1,3.469-.717l4.825-.66,19.747-2.7,21.991-3.01a.687.687,0,0,0,.477-.839.7.7,0,0,0-.839-.477l-43.758,5.99c-1.583.217-3.188.372-4.754.69a7.994,7.994,0,0,0-3.414,1.418,4.074,4.074,0,0,0-.017,6.331,4.513,4.513,0,0,0,6.5-.486,5.891,5.891,0,0,0,.447-7.219,8.753,8.753,0,0,0-8.536-3.5c-3.767.463-6.96,2.58-10.019,4.673-.72.493-.039,1.676.689,1.178Z" transform="translate(-350.829 -463.769)" fill="#3f3d56"/>
    <path id="Path_4032" data-name="Path 4032" d="M850.854,579.591l.455,4.548s-2.729,10.006,3.184,10.006,1.365-10.006,1.365-10.006l.455-3.639Z" transform="translate(-608.956 -394.414)" fill="#a0616a"/>
    <path id="Path_4033" data-name="Path 4033" d="M950.655,539.1l-2.087,4.067s-7.724,6.922-2.758,10.132,6.578-7.663,6.578-7.663l2.357-2.809Z" transform="translate(-667.445 -369.074)" fill="#a0616a"/>
    <path id="Path_4034" data-name="Path 4034" d="M870.591,584.444l6.368,43.209,3.184,30.929s2.729,6.822,11.826.91L890.6,641.753l-.91-15.919s-.91-15.464-1.819-18.193.455-11.826.455-11.826l3.639-15.009Z" transform="translate(-621.416 -395.174)" fill="#2f2e41"/>
    <path id="Path_4035" data-name="Path 4035" d="M880.869,786.211l-3.639,4.093s-5.458-1.819-6.823,1.819,10.461,4.548,10.461,4.548,12.28.91,12.28,0-.329-7.867-1.984-8.254S880.869,786.211,880.869,786.211Z" transform="translate(-621.233 -523.713)" fill="#2f2e41"/>
    <path id="Path_4036" data-name="Path 4036" d="M916.777,579.128l6.368,45.483,3.184,30.929s2.729,6.822,11.826.91L936.79,638.71l-.91-15.919s-.91-15.464-1.819-18.193.455-11.826.455-11.826l-.91-16.829Z" transform="translate(-650.318 -392.131)" fill="#2f2e41"/>
    <path id="Path_4037" data-name="Path 4037" d="M927.055,786.211l-3.639,4.093s-5.458-1.819-6.822,1.819,10.461,4.548,10.461,4.548,12.28.91,12.28,0-.329-7.867-1.984-8.254S927.055,786.211,927.055,786.211Z" transform="translate(-650.135 -523.713)" fill="#2f2e41"/>
    <circle id="Ellipse_1142" data-name="Ellipse 1142" cx="9.551" cy="9.551" r="9.551" transform="translate(243.262 96.03)" fill="#a0616a"/>
    <path id="Path_4038" data-name="Path 4038" d="M681.485,293.685l4.094,6.823-10.461,4.548-1.364-8.187Z" transform="translate(-421.622 -183.783)" fill="#a0616a"/>
    <path id="Path_4039" data-name="Path 4039" d="M872.644,394.764s-9.551-.91-13.19,5l-8.978,6.823a5.175,5.175,0,0,0-2,4.8l7.793,58.877,11.371-.455,18.648-3.639,5.458-1.365L889.018,440.7s-3.184-9.551.455-15.919L887.653,402.5l-12.735-5Z" transform="translate(-607.55 -278.721)" fill="#575a89"/>
    <path id="Path_4040" data-name="Path 4040" d="M849.921,429.409l-.682-1.137s-.91,0-.91,1.819-1.592,41.162-1.592,41.162l-.455,15.009,8.642.91,3.184-28.2-1.365-18.648Z" transform="translate(-606.204 -299.721)" fill="#575a89"/>
    <path id="Path_4041" data-name="Path 4041" d="M936.224,413.079l6.368.91a42.265,42.265,0,0,1,6.368,8.642c2.729,5,10.916,14.555,9.1,21.832s-7.277,20.467-7.277,20.467l-8.642-3.639s6.822-15.919,6.368-17.284-5.913-9.551-5.913-9.551Z" transform="translate(-662.488 -290.214)" fill="#575a89"/>
    <path id="Path_4042" data-name="Path 4042" d="M855.31,340.143s-7.732-.455-2.729-5.458c0,0,4.094-1.819,5.913-.91,0,0,2.729-1.819,2.729-.91,0,0,9.551-2.729,10.916,6.822s-.91,14.1-.91,14.1l-6.368-.455s1.365-7.732-3.639-6.822c0,0-4.093,1.365-4.548,0S855.31,340.143,855.31,340.143Z" transform="translate(-609.091 -239.792)" fill="#2f2e41"/>
    <path id="Path_4043" data-name="Path 4043" d="M666.916,425.314l4.094-27.29L668.28,381.2l.91,18.3-2.729,25.814Z" transform="translate(-417.058 -238.545)" opacity="0.2"/>
  </g>
</svg>
