<svg xmlns="http://www.w3.org/2000/svg" width="60.895" height="60.239" viewBox="0 0 60.895 60.239">
  <g id="services-icon" transform="translate(-1.552 -2)">
    <path id="Path_1323" data-name="Path 1323" d="M55.553,37.1a1,1,0,0,0-.447.447L49.778,48.207a.733.733,0,0,1-1.361-.529l1.544-5.4a1,1,0,0,0-1.5-1.118l-8.847,5.63a1.3,1.3,0,0,1-1.863-.516,1.3,1.3,0,0,1,.383-1.623L44.6,39.8a1,1,0,0,0-.824-1.775L33.313,40.439a1.526,1.526,0,0,1-1.842-1.189,1.536,1.536,0,0,1,1.179-1.795l11.561-2.478a1,1,0,0,0-.03-1.961L35.855,31.5a1.671,1.671,0,0,1,.437-3.309l9.627.8a.99.99,0,0,0,.953-.5,1,1,0,0,0-.056-1.075l-3.829-5.359a1.38,1.38,0,0,1,2.031-1.841l6.324,5.534a1.006,1.006,0,0,0,1.03.176l10-4-.743-1.857L52.2,23.843l-1.437-1.257-3.6-19.457-.009,0a.985.985,0,0,0-.135-.365,1,1,0,0,0-1.021-.438L12.561,8.517a1,1,0,0,0-.642.417l-6.41,9.322A1,1,0,0,0,5.35,19L8.2,34.4,2.371,32.072l-.743,1.857,10,4a1,1,0,0,0,1.03-.176l6.324-5.534a1.38,1.38,0,0,1,2.031,1.841l-3.828,5.359a1,1,0,0,0-.056,1.075.987.987,0,0,0,.953.5l9.627-.8a1.671,1.671,0,0,1,.437,3.309L19.82,45.017a1,1,0,0,0-.03,1.961l11.561,2.478a1.536,1.536,0,0,1,1.179,1.795,1.527,1.527,0,0,1-1.843,1.189L20.225,50.026A1,1,0,0,0,19.4,51.8l6.464,4.848a1.3,1.3,0,0,1,.383,1.623,1.3,1.3,0,0,1-1.862.516l-8.848-5.63a1,1,0,0,0-1.432,1.291l2,4a1.236,1.236,0,0,1-2.211,1.105l-5-10a1,1,0,0,0-.447-.447l-6-3L1.552,47.9l5.7,2.851,4.851,9.7a3.236,3.236,0,0,0,5.789-2.9l-.386-.771,5.8,3.691a3.3,3.3,0,0,0,3.753-5.426l-2.68-2.01,5.854,1.351a3.519,3.519,0,0,0,1.876-6.778l3.753-.695c.033.083.058.168.1.25a3.3,3.3,0,0,0,4.725,1.309l6.625-4.216-.82,2.872a2.727,2.727,0,0,0,1.763,3.343,2.678,2.678,0,0,0,.856.14,2.75,2.75,0,0,0,2.454-1.51l5.178-10.357,5.7-2.851-.9-1.789ZM39.175,11.725l-10,1.852L33.98,6.586l10-1.852ZM21.307,15.033l4.807-6.991L31.2,7.1l-4.807,6.991Zm4.874,1.131,2,10.816-5.9,1.093-2-10.817ZM13.332,10.408l10-1.852-4.807,6.991-10,1.852Zm4.334,20.305L11.8,35.844,10.4,35.282,7.5,19.623l10.816-2L20.5,29.42a.987.987,0,0,0,.432.639,3.375,3.375,0,0,0-3.265.654ZM27.544,38.2l-7.475.622,2.573-3.6a3.369,3.369,0,0,0-.36-4.354,3.328,3.328,0,0,0-.948-.655.917.917,0,0,0,.148.026.952.952,0,0,0,.183-.017l7.866-1.456a1,1,0,0,0,.8-1.165L28.148,15.8l10.816-2,.441,2.384,1.967-.363-.548-2.96,4.807-6.992,2.7,14.6-2-1.749a3.38,3.38,0,0,0-4.976,4.508l2.573,3.6L36.456,26.2a3.67,3.67,0,0,0-.961,7.268l3.357.61L32.229,35.5a3.534,3.534,0,0,0-2.75,3.073,3.65,3.65,0,0,0-1.935-.372ZM35.71,44.91l-8.6,1.592-1.966-.422,3.357-.61a3.626,3.626,0,0,0,2.987-3.33,3.494,3.494,0,0,0,2.269.248l5.854-1.351-2.68,2.01A3.305,3.305,0,0,0,35.71,44.91Z" fill="#38a4b8"/>
    <path id="Path_1324" data-name="Path 1324" d="M7,9H9a5.006,5.006,0,0,1,5-5h1V2H14A7.008,7.008,0,0,0,7,9Z" fill="#38a4b8"/>
    <path id="Path_1325" data-name="Path 1325" d="M51,60v2h1a7.008,7.008,0,0,0,7-7H57a5.006,5.006,0,0,1-5,5Z" fill="#38a4b8"/>
    <path id="Path_1326" data-name="Path 1326" d="M49,57H48v2h1a7.008,7.008,0,0,0,7-7H54A5.006,5.006,0,0,1,49,57Z" fill="#38a4b8"/>
  </g>
</svg>
