<svg xmlns="http://www.w3.org/2000/svg" width="406.981" height="244.79" viewBox="0 0 406.981 244.79">
  <g id="sign-up-as-a-person" transform="translate(0 0)">
    <path id="Path_4044" data-name="Path 4044" d="M90.586,446.643l24-34.487L90.573,450.395l-.014,3.924q-2.568-.022-5.083-.167c-.008-.891,2.032-49.911,1.946-50.8.118-.034.185-4.636.232-4.838L62.578,360.828l25.1,34.12.075,1.009,1.489-38.086-21.555-39,21.726,32.309c.008-.518,1.028-78.717,1.038-79.2.006.256.474,62.231.478,62.492l20.615-24.946L90.912,339.832l-.105,34.086,19.131-32.962c-23.875,48.07-18.591,31.249-19.2,56.927l27.788-45.9L90.712,404.5Z" transform="translate(-62.451 -216.949)" fill="#d0cde1"/>
    <path id="Path_4045" data-name="Path 4045" d="M1087.82,626.366l10-14.372-10.008,15.935-.006,1.635q-1.07-.009-2.118-.07c0-.371.847-20.8.811-21.169.049-.014.077-1.932.1-2.016l-10.448-15.7,10.461,14.219.031.42.621-15.871-8.983-16.253,9.054,13.464c0-.216.429-32.8.433-33,0,.107.2,25.933.2,26.042l8.591-10.4-8.6,12.629-.044,14.2,7.972-13.736c-9.949,20.032-7.747,13.022-8,23.723l11.58-19.127-11.59,21.882Z" transform="translate(-692.482 -391.99)" fill="#d0cde1"/>
    <ellipse id="Ellipse_1143" data-name="Ellipse 1143" cx="202.825" cy="7.947" rx="202.825" ry="7.947" transform="translate(0 228.897)" fill="#d0cde1"/>
    <rect id="Rectangle_1329" data-name="Rectangle 1329" width="231.584" height="138.069" transform="translate(69.627 93.856)" fill="#3f3d56"/>
    <path id="Path_4046" data-name="Path 4046" d="M303.555,374.581a55.381,55.381,0,0,1-55.368,54.479c-.651,0-1.3-.011-1.945-.034V374.581Z" transform="translate(-176.615 -280.725)" fill="#00a8cc"/>
    <path id="Path_4047" data-name="Path 4047" d="M546,726.828H523.972a11.734,11.734,0,0,1,22.026,0Z" transform="translate(-349.251 -494.903)" fill="#00a8cc"/>
    <path id="Path_4048" data-name="Path 4048" d="M821.867,550.721v46.506a23.281,23.281,0,0,1,0-46.506Z" transform="translate(-520.656 -390.213)" fill="#00a8cc"/>
    <rect id="Rectangle_1330" data-name="Rectangle 1330" width="159.741" height="13.646" rx="6.823" transform="translate(105.749 144.027)" fill="#fff"/>
    <rect id="Rectangle_1331" data-name="Rectangle 1331" width="159.741" height="13.646" rx="6.823" transform="translate(105.749 170.918)" fill="#fff"/>
    <rect id="Rectangle_1332" data-name="Rectangle 1332" width="56.005" height="13.646" rx="6.823" transform="translate(209.484 197.809)" fill="#fff"/>
    <path id="Path_4049" data-name="Path 4049" d="M943.671,238.655s6.368,2.476,6.722,10.613-1.769,30.779-1.769,30.779,7.783,11.321,1.769,14.505-6.722-12.736-6.722-12.736L936.6,248.207S940.841,238.3,943.671,238.655Z" transform="translate(-605.736 -196.228)" fill="#a0616a"/>
    <path id="Path_4050" data-name="Path 4050" d="M757.009,231.486s-15.213,9.906-15.92,2.123,4.6-38.209,4.6-38.209.708-13.09,8.137-9.906-2.123,14.151-2.123,14.151l1.061,24.765,7.076-.354Z" transform="translate(-484.169 -162.879)" fill="#a0616a"/>
    <path id="Path_4051" data-name="Path 4051" d="M774.977,320.78s-46.7-17.335-44.223,2.83,14.505,45.638,14.505,45.638l4.245,6.722h8.845l-5.661-36.44s20.166,11.321,26.18,9.552c0,0,7.783,52.006,10.613,55.9s7.783,50.945,7.783,50.945l4.6,5.661h8.845v-79.6s15.213-49.529,3.538-52.006S774.977,320.78,774.977,320.78Z" transform="translate(-477.727 -242.975)" fill="#2f2e41"/>
    <path id="Path_4052" data-name="Path 4052" d="M733.266,463.017s-2.123-3.892-5.661,0-12.029,8.491-12.029,8.491-18.4,4.245-3.538,7.783,16.628,0,16.628,0,2.477.708,4.6,1.415,15.92-1.769,15.92-3.892-4.684-14.809-6.587-12.888S733.266,463.017,733.266,463.017Z" transform="translate(-462.549 -334.621)" fill="#2f2e41"/>
    <path id="Path_4053" data-name="Path 4053" d="M884.11,689.608s-5.216-4.3-6.444-3.068S870,696.052,870,696.052s-17.183,13.194-1.534,15.342,14.728-3.682,14.728-3.682h4.91c.614,0,8.9-3.682,8.592-5.216s-3.989-14.045-5.216-13.159S884.11,689.608,884.11,689.608Z" transform="translate(-559.295 -474.5)" fill="#2f2e41"/>
    <circle id="Ellipse_1144" data-name="Ellipse 1144" cx="12.029" cy="12.029" r="12.029" transform="translate(265.41 4.926)" fill="#a0616a"/>
    <path id="Path_4054" data-name="Path 4054" d="M805.655,167.615s9.2,7.783,15.566,7.783-9.2,14.505-9.2,14.505l-13.8-12.382Z" transform="translate(-519.726 -152.076)" fill="#a0616a"/>
    <path id="Path_4055" data-name="Path 4055" d="M793.211,190.376l-.276-2.787s7-12.425,9.12-13.487a8.783,8.783,0,0,1,3.538-1.061s7.076-7.429,14.859-3.538,26.18,28.656,26.18,28.656-13.09,1.061-11.321,11.321c0,0,13.09,33.609,9.552,33.963s-14.151-2.123-25.119,2.83-15.92,1.769-15.92,1.769l-5.661-18.4s-10.613-6.014-10.26-11.321l-15.389,6.9,1.415-13.09,9.375-10.79S781.537,199.928,793.211,190.376Z" transform="translate(-503.744 -152.548)" fill="#575a89"/>
    <path id="Path_4056" data-name="Path 4056" d="M756.284,144.805a4.441,4.441,0,0,1-1.747,1.19,1.523,1.523,0,0,1-1.821-.7l.509-.662-1.525-.947.664-.78-1.228-1.334.969-.769-1.846-1.32c2.392-3.9,4.979-7.855,8.755-10.443s9.053-3.507,12.922-1.059a14.129,14.129,0,0,1,4.567,5.374c2.288,4.2,4.3,8.287,4.6,13.058-1.437-1.4-3.536-2.188-4.973-3.588a10.772,10.772,0,0,0-2.145-1.756c-1.5-.848-3.3-.923-4.985-1.305a7.489,7.489,0,0,1-3.4-1.871c-1.274-1.085-1.326-.665-2.612.556Q759.639,141.629,756.284,144.805Z" transform="translate(-489.911 -126.55)" fill="#2f2e41"/>
  </g>
</svg>
