<svg xmlns="http://www.w3.org/2000/svg" width="891.599" height="1079.198" viewBox="0 0 891.599 1079.198">
  <g id="sign-up-1-left" transform="translate(5 -0.802)">
    <path id="Path_1361" data-name="Path 1361" d="M1474,95s-9.332,398.17-390.666,510.753S582.4,1174.2,582.4,1174.2V95Z" transform="translate(-587.401 -94.198)" fill="#3d455d"/>
    <g id="Group_223" data-name="Group 223" transform="translate(1101.63 398.135) rotate(180)">
      <circle id="Ellipse_549" data-name="Ellipse 549" cx="2.971" cy="2.971" r="2.971" transform="translate(445.878 229.09)" fill="#00a8cc"/>
      <circle id="Ellipse_550" data-name="Ellipse 550" cx="2.971" cy="2.971" r="2.971" transform="translate(330.004 229.09)" fill="#00a8cc"/>
      <circle id="Ellipse_551" data-name="Ellipse 551" cx="2.971" cy="2.971" r="2.971" transform="translate(532.04 120.149)" fill="#00a8cc"/>
      <circle id="Ellipse_552" data-name="Ellipse 552" cx="2.971" cy="2.971" r="2.971" transform="translate(504.309 301.387)" fill="#00a8cc"/>
      <circle id="Ellipse_553" data-name="Ellipse 553" cx="1.981" cy="1.981" r="1.981" transform="translate(503.319 239.984)" fill="#00a8cc"/>
      <circle id="Ellipse_554" data-name="Ellipse 554" cx="1.981" cy="1.981" r="1.981" transform="translate(706.345 327.137)" fill="#ff6584"/>
      <circle id="Ellipse_555" data-name="Ellipse 555" cx="1.981" cy="1.981" r="1.981" transform="translate(403.292 219.186)" fill="#ff6584"/>
      <circle id="Ellipse_556" data-name="Ellipse 556" cx="1.981" cy="1.981" r="1.981" transform="translate(527.088 58.746)" fill="#ff6584"/>
      <circle id="Ellipse_557" data-name="Ellipse 557" cx="1.981" cy="1.981" r="1.981" transform="translate(445.878 150.851)" fill="#00a8cc"/>
      <circle id="Ellipse_558" data-name="Ellipse 558" cx="1.981" cy="1.981" r="1.981" transform="translate(470.637 84.495)" fill="#fff"/>
      <circle id="Ellipse_559" data-name="Ellipse 559" cx="2.971" cy="2.971" r="2.971" transform="translate(765.768 261.772)" fill="#00a8cc"/>
      <circle id="Ellipse_560" data-name="Ellipse 560" cx="2.971" cy="2.971" r="2.971" transform="translate(568.684 272.666)" fill="#00a8cc"/>
      <circle id="Ellipse_561" data-name="Ellipse 561" cx="9.904" cy="9.904" r="9.904" transform="translate(511.242 336.05)" fill="#00a8cc"/>
      <circle id="Ellipse_562" data-name="Ellipse 562" cx="2.971" cy="2.971" r="2.971" transform="translate(638.01 235.032)" fill="#fff"/>
    </g>
    <g id="Group_222" data-name="Group 222" transform="translate(488.442 83.612) rotate(90)">
      <circle id="Ellipse_549-2" data-name="Ellipse 549" cx="3.995" cy="3.995" r="3.995" transform="translate(485.828 287.821)" fill="#00a8cc"/>
      <circle id="Ellipse_550-2" data-name="Ellipse 550" cx="3.995" cy="3.995" r="3.995" transform="translate(330.004 287.821)" fill="#00a8cc"/>
      <circle id="Ellipse_551-2" data-name="Ellipse 551" cx="3.995" cy="3.995" r="3.995" transform="translate(601.697 141.32)" fill="#00a8cc"/>
      <circle id="Ellipse_552-2" data-name="Ellipse 552" cx="3.995" cy="3.995" r="3.995" transform="translate(564.406 385.044)" fill="#00a8cc"/>
      <circle id="Ellipse_553-2" data-name="Ellipse 553" cx="2.664" cy="2.664" r="2.664" transform="translate(563.074 302.471)" fill="#00a8cc"/>
      <circle id="Ellipse_554-2" data-name="Ellipse 554" cx="2.664" cy="2.664" r="2.664" transform="translate(836.099 419.672)" fill="#ff6584"/>
      <circle id="Ellipse_555-2" data-name="Ellipse 555" cx="2.664" cy="2.664" r="2.664" transform="translate(428.559 274.503)" fill="#ff6584"/>
      <circle id="Ellipse_556-2" data-name="Ellipse 556" cx="2.664" cy="2.664" r="2.664" transform="translate(595.038 58.746)" fill="#ff6584"/>
      <circle id="Ellipse_557-2" data-name="Ellipse 557" cx="2.664" cy="2.664" r="2.664" transform="translate(485.828 182.606)" fill="#00a8cc"/>
      <circle id="Ellipse_558-2" data-name="Ellipse 558" cx="2.664" cy="2.664" r="2.664" transform="translate(519.124 93.373)" fill="#fff"/>
      <circle id="Ellipse_559-2" data-name="Ellipse 559" cx="3.995" cy="3.995" r="3.995" transform="translate(916.009 331.771)" fill="#00a8cc"/>
      <circle id="Ellipse_560-2" data-name="Ellipse 560" cx="3.995" cy="3.995" r="3.995" transform="translate(650.975 346.421)" fill="#00a8cc"/>
      <circle id="Ellipse_561-2" data-name="Ellipse 561" cx="13.318" cy="13.318" r="13.318" transform="translate(573.729 431.658)" fill="#00a8cc"/>
      <circle id="Ellipse_562-2" data-name="Ellipse 562" cx="3.995" cy="3.995" r="3.995" transform="translate(744.203 295.812)" fill="#fff"/>
    </g>
    <g id="Group_224" data-name="Group 224" transform="translate(343.159 -312.108) rotate(90)">
      <circle id="Ellipse_549-3" data-name="Ellipse 549" cx="2.61" cy="2.61" r="2.61" transform="translate(431.789 208.378)" fill="#00a8cc"/>
      <circle id="Ellipse_550-3" data-name="Ellipse 550" cx="2.61" cy="2.61" r="2.61" transform="translate(330.004 208.378)" fill="#00a8cc"/>
      <circle id="Ellipse_551-3" data-name="Ellipse 551" cx="2.61" cy="2.61" r="2.61" transform="translate(507.475 112.683)" fill="#00a8cc"/>
      <circle id="Ellipse_552-3" data-name="Ellipse 552" cx="2.61" cy="2.61" r="2.61" transform="translate(483.116 271.885)" fill="#00a8cc"/>
      <circle id="Ellipse_553-3" data-name="Ellipse 553" cx="1.74" cy="1.74" r="1.74" transform="translate(482.246 217.948)" fill="#00a8cc"/>
      <circle id="Ellipse_554-3" data-name="Ellipse 554" cx="1.74" cy="1.74" r="1.74" transform="translate(660.587 294.504)" fill="#ff6584"/>
      <circle id="Ellipse_555-3" data-name="Ellipse 555" cx="1.74" cy="1.74" r="1.74" transform="translate(394.381 199.679)" fill="#ff6584"/>
      <circle id="Ellipse_556-3" data-name="Ellipse 556" cx="1.74" cy="1.74" r="1.74" transform="translate(503.125 58.746)" fill="#ff6584"/>
      <circle id="Ellipse_557-3" data-name="Ellipse 557" cx="1.74" cy="1.74" r="1.74" transform="translate(431.789 139.652)" fill="#00a8cc"/>
      <circle id="Ellipse_558-3" data-name="Ellipse 558" cx="1.74" cy="1.74" r="1.74" transform="translate(453.538 81.364)" fill="#fff"/>
      <circle id="Ellipse_559-3" data-name="Ellipse 559" cx="2.61" cy="2.61" r="2.61" transform="translate(712.784 237.087)" fill="#00a8cc"/>
      <circle id="Ellipse_560-3" data-name="Ellipse 560" cx="2.61" cy="2.61" r="2.61" transform="translate(539.663 246.656)" fill="#00a8cc"/>
      <circle id="Ellipse_561-3" data-name="Ellipse 561" cx="8.7" cy="8.7" r="8.7" transform="translate(489.206 302.333)" fill="#dfdfe9"/>
      <circle id="Ellipse_562-3" data-name="Ellipse 562" cx="2.61" cy="2.61" r="2.61" transform="translate(600.56 213.598)" fill="#fff"/>
    </g>
    <g id="Group_224-2" data-name="Group 224" transform="translate(582.159 -193.108) rotate(90)">
      <circle id="Ellipse_549-4" data-name="Ellipse 549" cx="2.61" cy="2.61" r="2.61" transform="translate(431.789 208.378)" fill="#00a8cc"/>
      <circle id="Ellipse_550-4" data-name="Ellipse 550" cx="2.61" cy="2.61" r="2.61" transform="translate(330.004 208.378)" fill="#00a8cc"/>
      <circle id="Ellipse_551-4" data-name="Ellipse 551" cx="2.61" cy="2.61" r="2.61" transform="translate(507.475 112.683)" fill="#00a8cc"/>
      <circle id="Ellipse_552-4" data-name="Ellipse 552" cx="2.61" cy="2.61" r="2.61" transform="translate(483.116 271.885)" fill="#00a8cc"/>
      <circle id="Ellipse_553-4" data-name="Ellipse 553" cx="1.74" cy="1.74" r="1.74" transform="translate(482.246 217.948)" fill="#00a8cc"/>
      <circle id="Ellipse_554-4" data-name="Ellipse 554" cx="1.74" cy="1.74" r="1.74" transform="translate(660.587 294.504)" fill="#ff6584"/>
      <circle id="Ellipse_555-4" data-name="Ellipse 555" cx="1.74" cy="1.74" r="1.74" transform="translate(394.381 199.679)" fill="#ff6584"/>
      <circle id="Ellipse_556-4" data-name="Ellipse 556" cx="1.74" cy="1.74" r="1.74" transform="translate(503.125 58.746)" fill="#ff6584"/>
      <circle id="Ellipse_557-4" data-name="Ellipse 557" cx="1.74" cy="1.74" r="1.74" transform="translate(431.789 139.652)" fill="#00a8cc"/>
      <circle id="Ellipse_558-4" data-name="Ellipse 558" cx="1.74" cy="1.74" r="1.74" transform="translate(453.538 81.364)" fill="#fff"/>
      <circle id="Ellipse_559-4" data-name="Ellipse 559" cx="2.61" cy="2.61" r="2.61" transform="translate(712.784 237.087)" fill="#00a8cc"/>
      <circle id="Ellipse_560-4" data-name="Ellipse 560" cx="2.61" cy="2.61" r="2.61" transform="translate(539.663 246.656)" fill="#00a8cc"/>
      <circle id="Ellipse_561-4" data-name="Ellipse 561" cx="8.7" cy="8.7" r="8.7" transform="translate(489.206 302.333)" fill="#dfdfe9"/>
      <circle id="Ellipse_562-4" data-name="Ellipse 562" cx="2.61" cy="2.61" r="2.61" transform="translate(600.56 213.598)" fill="#fff"/>
    </g>
    <g id="Group_227" data-name="Group 227" transform="translate(279.762 -325.72)">
      <circle id="Ellipse_586" data-name="Ellipse 586" cx="73.769" cy="73.769" r="73.769" transform="translate(342.211 442.254)" fill="#f56b89"/>
      <circle id="Ellipse_587" data-name="Ellipse 587" cx="10.848" cy="10.848" r="10.848" transform="translate(401.878 475.161)" opacity="0.2"/>
      <circle id="Ellipse_588" data-name="Ellipse 588" cx="18.804" cy="18.804" r="18.804" transform="translate(393.922 539.89)" opacity="0.2"/>
      <circle id="Ellipse_589" data-name="Ellipse 589" cx="4.701" cy="4.701" r="4.701" transform="translate(353.422 525.426)" opacity="0.2"/>
      <circle id="Ellipse_590" data-name="Ellipse 590" cx="2.499" cy="2.499" r="2.499" transform="translate(435.146 467.199)" opacity="0.2"/>
      <ellipse id="Ellipse_591" data-name="Ellipse 591" cx="3.255" cy="3.255" rx="3.255" ry="3.255" transform="translate(406.217 516.024)" opacity="0.2"/>
      <circle id="Ellipse_592" data-name="Ellipse 592" cx="2.499" cy="2.499" r="2.499" transform="translate(467.756 499.099)" opacity="0.2"/>
      <circle id="Ellipse_593" data-name="Ellipse 593" cx="3.61" cy="3.61" r="3.61" transform="translate(446.007 523.476)" opacity="0.2"/>
      <circle id="Ellipse_594" data-name="Ellipse 594" cx="4.701" cy="4.701" r="4.701" transform="translate(365.717 481.309)" opacity="0.2"/>
      <path id="Path_1316" data-name="Path 1316" d="M290.464,465.393a206.372,206.372,0,0,1-23.216-1.341c-23.182-2.633-44.562-8.854-60.2-17.516-15.831-8.769-23.932-19.037-22.811-28.912.777-6.842,7.39-12.965,20.216-18.721a.723.723,0,0,1,.592,1.32c-12.32,5.528-18.657,11.273-19.371,17.564-1.051,9.256,6.788,19.017,22.074,27.484,15.477,8.573,36.666,14.733,59.664,17.344s45.028,1.36,62.034-3.524c16.8-4.824,26.624-12.578,27.675-21.834.711-6.262-2.738-12.9-9.974-19.2a.723.723,0,0,1,.95-1.091c7.612,6.626,11.229,13.7,10.462,20.455-1.122,9.875-11.318,18.065-28.713,23.061C318.518,463.733,305,465.393,290.464,465.393Z" transform="translate(141.5 93.152)" fill="#00fcfc"/>
    </g>
  </g>
</svg>
