<svg xmlns="http://www.w3.org/2000/svg" xmlns:xlink="http://www.w3.org/1999/xlink" viewBox="0 0 995.31 980"><defs><style>.cls-1,.cls-6{fill:none;}.cls-2{clip-path:url(#clip-path);}.cls-3,.cls-5,.cls-7{fill:#00a8cc;}.cls-3,.cls-4,.cls-9{opacity:0.1;}.cls-3,.cls-4,.cls-5,.cls-9{isolation:isolate;}.cls-5{opacity:0.3;}.cls-6{stroke:#535461;stroke-miterlimit:10;stroke-width:1.45px;}.cls-8{fill:#a8a8a8;}.cls-9{fill:#fff;}</style><clipPath id="clip-path" transform="translate(-0.05 77.5)"><rect class="cls-1" width="752" height="768"/></clipPath></defs><title>Asset 2</title><g id="Layer_2" data-name="Layer 2"><g id="Layer_1-2" data-name="Layer 1"><g class="cls-2"><g id="sign-in-right"><g id="Group_270" data-name="Group 270"><path id="Path_1363" data-name="Path 1363" class="cls-3" d="M67.74,498.7a4.61,4.61,0,0,1-4.51,4.67h-6.4a4.67,4.67,0,0,1,0,9.34h9a4.67,4.67,0,0,1,0,9.34H23.47c29,83.94,83.22,157.32,154.58,212.61a4.35,4.35,0,0,1,2.53-.81h52.2a4.67,4.67,0,0,1,0,9.34h-6.4a4.67,4.67,0,0,1,0,9.34h9a4.68,4.68,0,0,1,0,9.35H216.86c79.94,50.58,176.68,80.19,280.9,80.19a532.77,532.77,0,0,0,181.5-31.53q11.64-4.23,23-8.95,19.79-8.26,38.63-18,8.13-4.21,16.08-8.71l.25-.13,1.19-.68,3.11-1.78Q770.91,766.83,780,761l3.73-2.4q4.74-3.07,9.38-6.26,9.25-6.32,18.2-13l2.14-1.64,1.71-1.31q12-9.21,23.41-19.1l.32-.27q5.58-4.86,11-9.87l.32-.29a475.55,475.55,0,0,0,33.62-34.46,462.35,462.35,0,0,0,43.49-57.85H906.52a4.67,4.67,0,0,1,0-9.34h-9a4.68,4.68,0,0,1,0-9.35h6.41a4.57,4.57,0,0,1-4.73-4.43,4.62,4.62,0,0,1,4.29-4.9h40.22a429.24,429.24,0,0,0,29.55-340.19H884.69a9.89,9.89,0,0,1,0-19.74H865.64a9.87,9.87,0,0,1,0-19.72h13.61a9.89,9.89,0,0,1,0-19.74H948.5C869.07,30.78,697.1-77.5,497.76-77.5c-116.45,0-223.53,36.94-308.35,98.82h22.2a9.74,9.74,0,0,1,9.22,10.19,9.71,9.71,0,0,1-9.22,9.55H198a9.87,9.87,0,0,1,0,19.72h19.05a9.88,9.88,0,0,1,.62,19.74c-.21,0-.41,0-.62,0H122.25C46.15,161.28.05,266.8.05,382.28A427.85,427.85,0,0,0,14.9,494.11L63.23,494a4.62,4.62,0,0,1,4.51,4.68Z" transform="translate(-0.05 77.5)"/><path id="Path_1382" data-name="Path 1382" class="cls-4" d="M322.49,435.22a47.16,47.16,0,0,0,6.89-3.45C333,429.51,322.49,435.22,322.49,435.22Z" transform="translate(-0.05 77.5)"/><path id="Path_1438" data-name="Path 1438" class="cls-3" d="M335.53,181.61h8a5.81,5.81,0,0,1,0-11.6H408.3a5.81,5.81,0,0,1,0,11.6h-8a5.79,5.79,0,0,1,0,11.58h11.19a5.81,5.81,0,0,1,0,11.59H346.72a5.81,5.81,0,0,1,0-11.59H335.53a5.79,5.79,0,0,1,0-11.58Z" transform="translate(-0.05 77.5)"/><path id="Path_1439" data-name="Path 1439" class="cls-3" d="M427.85,270.38h8a5.79,5.79,0,0,1,0-11.58h64.77a5.79,5.79,0,0,1,0,11.58h-8a5.8,5.8,0,0,1,0,11.59h11.21a5.81,5.81,0,0,1,0,11.59H439A5.81,5.81,0,0,1,439,282H427.85a5.8,5.8,0,0,1,0-11.59Z" transform="translate(-0.05 77.5)"/><path id="Path_1440" data-name="Path 1440" class="cls-3" d="M334,547.61h3.76a2.75,2.75,0,0,1,0-5.49h30.71a2.75,2.75,0,0,1,.09,5.49h-3.85a2.75,2.75,0,0,1,0,5.49H370a2.75,2.75,0,0,1,0,5.49h-30.7a2.75,2.75,0,0,1,0-5.49H334a2.75,2.75,0,0,1,0-5.49Z" transform="translate(-0.05 77.5)"/><path id="Path_1441" data-name="Path 1441" class="cls-3" d="M249.6,594.24h3a2.2,2.2,0,0,1,0-4.38H277.1a2.2,2.2,0,0,1,0,4.38h-3a2.2,2.2,0,0,1,0,4.38h4.23a2.2,2.2,0,0,1,0,4.38h-24.5a2.19,2.19,0,0,1-.24-4.38h-4a2.14,2.14,0,0,1-2.23-2.07,2.16,2.16,0,0,1,2-2.31h.26Z" transform="translate(-0.05 77.5)"/><path id="Path_1442" data-name="Path 1442" class="cls-3" d="M146.14,512.64h3.79a2.74,2.74,0,0,1,0-5.48h30.66a2.74,2.74,0,0,1,.09,5.48h-3.85a2.75,2.75,0,0,1,.09,5.49h5.22a2.75,2.75,0,0,1,.08,5.49H151.44a2.75,2.75,0,0,1-.08-5.49h-5.22a2.75,2.75,0,0,1-.09-5.49Z" transform="translate(-0.05 77.5)"/><path id="Path_1443" data-name="Path 1443" class="cls-3" d="M413.59,598.41h3.76a2.75,2.75,0,0,1-.08-5.49h30.79a2.75,2.75,0,0,1,.09,5.49H444.3a2.75,2.75,0,0,1,0,5.49h5.3a2.75,2.75,0,0,1,0,5.48H418.88a2.74,2.74,0,0,1-.26-5.48h-5a2.75,2.75,0,0,1,0-5.49Z" transform="translate(-0.05 77.5)"/><path id="Path_1444" data-name="Path 1444" class="cls-5" d="M456.2,332.74a1.88,1.88,0,0,0-.57-2.38.67.67,0,0,1-.15-.14h0a.94.94,0,0,1,.06-1.31.84.84,0,0,1,.81-.21h0a.62.62,0,0,1,.19.07,1.75,1.75,0,0,0,2.31-.59A.65.65,0,0,1,459,328h0a.86.86,0,0,1,1.26.08.93.93,0,0,1,.21.83h0a1.19,1.19,0,0,1-.08.2,1.88,1.88,0,0,0,.58,2.38.93.93,0,0,1,.15.13h0A1,1,0,0,1,461,333a.86.86,0,0,1-.81.21h0a.46.46,0,0,1-.19-.08,1.76,1.76,0,0,0-2.3.6,1,1,0,0,1-.13.16h0a.87.87,0,0,1-1.27-.06.93.93,0,0,1-.2-.85h0a1.59,1.59,0,0,1,.07-.2Z" transform="translate(-0.05 77.5)"/><path id="Path_1445" data-name="Path 1445" class="cls-5" d="M654.64,223.33a1.88,1.88,0,0,0-.58-2.39.87.87,0,0,1-.15-.13h0a1,1,0,0,1,.06-1.31.9.9,0,0,1,.83-.22h0l.18.08a1.74,1.74,0,0,0,2.3-.59,1.07,1.07,0,0,1,.14-.16h0a.86.86,0,0,1,1.26.08.92.92,0,0,1,.2.83h0a.62.62,0,0,1-.07.19,1.9,1.9,0,0,0,.57,2.39l.16.13h0a1,1,0,0,1-.07,1.31.84.84,0,0,1-.81.21h0a.46.46,0,0,1-.19-.08,1.76,1.76,0,0,0-2.3.6c0,.06-.09.11-.13.16h0a.87.87,0,0,1-1.27-.06.93.93,0,0,1-.2-.85h0A.62.62,0,0,1,654.64,223.33Z" transform="translate(-0.05 77.5)"/><path id="Path_1446" data-name="Path 1446" class="cls-5" d="M657.69,517.19a1.89,1.89,0,0,0-.57-2.38.7.7,0,0,1-.16-.14h0a1,1,0,0,1,0-1.3.87.87,0,0,1,.83-.21h0a.62.62,0,0,1,.19.07,1.76,1.76,0,0,0,2.31-.59.48.48,0,0,1,.12-.16h0a.87.87,0,0,1,1.27.06.93.93,0,0,1,.2.85h0a1.59,1.59,0,0,1-.07.2,1.88,1.88,0,0,0,.57,2.38.47.47,0,0,1,.15.13h0a1,1,0,0,1-.11,1.3.9.9,0,0,1-.74.19h0a.73.73,0,0,1-.19-.07,1.74,1.74,0,0,0-2.3.59,1,1,0,0,1-.13.16h0a.88.88,0,0,1-1.27-.07,1,1,0,0,1-.2-.84h0A1.09,1.09,0,0,1,657.69,517.19Z" transform="translate(-0.05 77.5)"/><path id="Path_1447" data-name="Path 1447" class="cls-5" d="M43.5,157.78a1.89,1.89,0,0,0-.57-2.39.47.47,0,0,1-.15-.13h0a.94.94,0,0,1,0-1.3.86.86,0,0,1,.83-.22h0l.19.08a1.75,1.75,0,0,0,2.31-.6,1,1,0,0,1,.13-.16h0a.86.86,0,0,1,1.26.08.92.92,0,0,1,.2.83h0a.68.68,0,0,1-.07.2,1.9,1.9,0,0,0,.58,2.39.87.87,0,0,1,.15.13h0a.94.94,0,0,1-.06,1.31.86.86,0,0,1-.82.21h0a.64.64,0,0,1-.19-.08,1.76,1.76,0,0,0-2.31.6.44.44,0,0,1-.12.15h0a.87.87,0,0,1-1.27-.06.94.94,0,0,1-.2-.84h0A.68.68,0,0,1,43.5,157.78Z" transform="translate(-0.05 77.5)"/><path id="Path_1448" data-name="Path 1448" class="cls-5" d="M13.58,138.08A1.89,1.89,0,0,0,13,135.7l-.16-.13h0a1,1,0,0,1,.07-1.31.87.87,0,0,1,.81-.22h0l.19.08a1.76,1.76,0,0,0,2.31-.59.61.61,0,0,1,.12-.16h0a.88.88,0,0,1,1.27.07,1,1,0,0,1,.2.81h0a.62.62,0,0,1-.07.19,1.89,1.89,0,0,0,.57,2.41l.16.13h0a1,1,0,0,1,0,1.31.88.88,0,0,1-.9.22h0a.58.58,0,0,1-.18-.08,1.76,1.76,0,0,0-2.31.6,1,1,0,0,1-.13.16h0a.88.88,0,0,1-1.27-.07,1,1,0,0,1-.2-.84h0a1.24,1.24,0,0,1,.1-.2Z" transform="translate(-0.05 77.5)"/><path id="Path_1449" data-name="Path 1449" class="cls-5" d="M251.93,281.14a1.88,1.88,0,0,0-.58-2.38,1,1,0,0,1-.15-.14h0a1,1,0,0,1,.06-1.31.86.86,0,0,1,.82-.21h0a.73.73,0,0,1,.19.07,1.73,1.73,0,0,0,2.3-.59,1,1,0,0,1,.13-.16h0a.87.87,0,0,1,1.26.06,1,1,0,0,1,.21.86h0a.71.71,0,0,1-.08.18,1.9,1.9,0,0,0,.58,2.39.5.5,0,0,1,.15.14h0a.94.94,0,0,1-.05,1.3.87.87,0,0,1-.83.21h0a.56.56,0,0,1-.18-.07,1.75,1.75,0,0,0-2.31.59.7.7,0,0,1-.13.16h0a.88.88,0,0,1-1.27-.07,1,1,0,0,1-.2-.84h0A1.08,1.08,0,0,1,251.93,281.14Z" transform="translate(-0.05 77.5)"/><path id="Path_1450" data-name="Path 1450" class="cls-5" d="M141.41,357.34a1.88,1.88,0,0,0-.58-2.38l-.15-.13h0a1,1,0,0,1,0-1.31.87.87,0,0,1,.83-.21h0a.46.46,0,0,1,.19.08,1.76,1.76,0,0,0,2.3-.6,1,1,0,0,1,.13-.16h0a.87.87,0,0,1,1.27.06.93.93,0,0,1,.2.85h0a1.59,1.59,0,0,1-.07.2,1.88,1.88,0,0,0,.57,2.38.47.47,0,0,1,.15.13h0a.94.94,0,0,1,0,1.3.86.86,0,0,1-.83.22h0a.64.64,0,0,1-.19-.08,1.77,1.77,0,0,0-2.31.6,1,1,0,0,1-.12.16h0a.87.87,0,0,1-1.27-.06.93.93,0,0,1-.2-.85h0A1.18,1.18,0,0,1,141.41,357.34Z" transform="translate(-0.05 77.5)"/><path id="Path_1451" data-name="Path 1451" class="cls-5" d="M314.36,257.68a1.87,1.87,0,0,0-.84-2.29,1,1,0,0,1-.17-.12h0a1,1,0,0,1-.11-1.3.91.91,0,0,1,.81-.32h0a.6.6,0,0,1,.19.06,1.78,1.78,0,0,0,2.23-.87,1.08,1.08,0,0,1,.11-.18h0a.88.88,0,0,1,1.27-.08.94.94,0,0,1,.29.81h0a1.6,1.6,0,0,1-.05.21,1.86,1.86,0,0,0,.84,2.29.61.61,0,0,1,.16.12h0a1,1,0,0,1,.08,1.31.86.86,0,0,1-.78.3h0a.67.67,0,0,1-.19-.05,1.76,1.76,0,0,0-2.22.87,1.74,1.74,0,0,1-.11.18h0a.88.88,0,0,1-1.27.08,1,1,0,0,1-.29-.82h0A.49.49,0,0,1,314.36,257.68Z" transform="translate(-0.05 77.5)"/><path id="Path_1452" data-name="Path 1452" class="cls-5" d="M596.27,458.07a2.57,2.57,0,0,0,1.38-3.09,1.47,1.47,0,0,1,0-.29h0a1.28,1.28,0,0,1,1.22-1.33,1.23,1.23,0,0,1,1,.48h0a.89.89,0,0,1,.14.25,2.44,2.44,0,0,0,3,1.43,1.27,1.27,0,0,1,.28-.06h0a1.27,1.27,0,0,1,1.29,1.26,1.3,1.3,0,0,1-.47,1h0a.89.89,0,0,1-.25.14,2.61,2.61,0,0,0-1.37,3.1.92.92,0,0,1,.05.28h0a1.28,1.28,0,0,1-1.21,1.34,1.25,1.25,0,0,1-1-.49h0a1.19,1.19,0,0,1-.13-.25,2.44,2.44,0,0,0-3-1.43,1.31,1.31,0,0,1-.27.06h0a1.28,1.28,0,0,1-1.3-1.26,1.36,1.36,0,0,1,.47-1.05h0Z" transform="translate(-0.05 77.5)"/><path id="Path_1453" data-name="Path 1453" class="cls-5" d="M214.7,482.64a2.63,2.63,0,0,0,1.38-3.1,1.31,1.31,0,0,1-.06-.27h0a1.29,1.29,0,0,1,1.21-1.35,1.23,1.23,0,0,1,1,.49h0a1.23,1.23,0,0,1,.14.25,2.44,2.44,0,0,0,3,1.43.86.86,0,0,1,.27,0h0a1.27,1.27,0,0,1,1.28,1.26,1.32,1.32,0,0,1-.46,1h0a.72.72,0,0,1-.24.14,2.59,2.59,0,0,0-1.38,3.1.92.92,0,0,1,.05.28h0a1.28,1.28,0,0,1-1.22,1.33,1.23,1.23,0,0,1-1-.48h0a1.23,1.23,0,0,1-.14-.25,2.49,2.49,0,0,0-3-1.43,1.31,1.31,0,0,1-.27.06h0a1.27,1.27,0,0,1-1.29-1.26,1.3,1.3,0,0,1,.47-1.05h0a1,1,0,0,1,.24-.14Z" transform="translate(-0.05 77.5)"/><path id="Path_1454" data-name="Path 1454" class="cls-5" d="M334,488.94a2.59,2.59,0,0,0,1.38-3.1,1.4,1.4,0,0,1-.06-.28h0a1.29,1.29,0,0,1,1.22-1.34,1.23,1.23,0,0,1,1,.49h0a.89.89,0,0,1,.14.25,2.45,2.45,0,0,0,3,1.42,1.26,1.26,0,0,1,.28-.05h0a1.27,1.27,0,0,1,1.28,1.27,1.3,1.3,0,0,1-.46,1h0a.89.89,0,0,1-.25.14,2.59,2.59,0,0,0-1.37,3.1,2.74,2.74,0,0,1,.05.28h0a1.28,1.28,0,0,1-1.21,1.34,1.25,1.25,0,0,1-1-.49h0a1.48,1.48,0,0,1-.14-.25,2.49,2.49,0,0,0-3-1.43.63.63,0,0,1-.27.06h0a1.27,1.27,0,0,1-1.28-1.26,1.32,1.32,0,0,1,.46-1h0A.72.72,0,0,1,334,488.94Z" transform="translate(-0.05 77.5)"/><ellipse id="Ellipse_599" data-name="Ellipse 599" class="cls-3" cx="88.93" cy="277.62" rx="10.34" ry="10.7"/><ellipse id="Ellipse_600" data-name="Ellipse 600" class="cls-3" cx="604.49" cy="288.32" rx="10.34" ry="10.7"/><ellipse id="Ellipse_601" data-name="Ellipse 601" class="cls-3" cx="137.8" cy="224.48" rx="5.64" ry="5.84"/><ellipse id="Ellipse_602" data-name="Ellipse 602" class="cls-3" cx="677.29" cy="394.36" rx="5.64" ry="5.84"/><ellipse id="Ellipse_603" data-name="Ellipse 603" class="cls-3" cx="99.27" cy="693.19" rx="5.64" ry="5.84"/><ellipse id="Ellipse_604" data-name="Ellipse 604" class="cls-3" cx="120.89" cy="719.48" rx="5.64" ry="5.84"/><ellipse id="Ellipse_605" data-name="Ellipse 605" class="cls-3" cx="78.59" cy="735.33" rx="5.64" ry="5.84"/></g><g id="Group_271" data-name="Group 271"><path id="Path_1455" data-name="Path 1455" class="cls-6" d="M569.92,766.25s9.29-32.66-1.75-56.7a53.13,53.13,0,0,1-4-32.39A87.58,87.58,0,0,1,568.58,662" transform="translate(-0.05 77.5)"/><path id="Path_1456" data-name="Path 1456" class="cls-7" d="M561.7,646.81c0,4,7,15.61,7,15.61s7-11.62,7-15.61a7,7,0,0,0-14,0Z" transform="translate(-0.05 77.5)"/><path id="Path_1457" data-name="Path 1457" class="cls-7" d="M550.12,669c2.12,3.36,14.09,9.16,14.09,9.16s-.23-13.68-2.33-17a6.86,6.86,0,0,0-9.7-2.12,7.42,7.42,0,0,0-2.06,10Z" transform="translate(-0.05 77.5)"/><path id="Path_1458" data-name="Path 1458" class="cls-7" d="M550.63,706.87c3.46,1.81,16.63.55,16.63.55s-6.86-11.69-10.32-13.5a6.92,6.92,0,0,0-9.26,3.67A7.38,7.38,0,0,0,550.63,706.87Z" transform="translate(-0.05 77.5)"/><path id="Path_1459" data-name="Path 1459" class="cls-7" d="M557.26,735.44c3.06,2.38,16.29,3.46,16.29,3.46s-4.86-12.68-8-15.11a6.84,6.84,0,0,0-9.79,1.52A7.41,7.41,0,0,0,557.26,735.44Z" transform="translate(-0.05 77.5)"/><path id="Path_1460" data-name="Path 1460" class="cls-7" d="M578.88,678.91c-2.78,2.79-15.7,5.68-15.7,5.68s3.16-13.28,5.94-16.07a6.83,6.83,0,0,1,9.9.15,7.44,7.44,0,0,1-.14,10.25Z" transform="translate(-0.05 77.5)"/><path id="Path_1461" data-name="Path 1461" class="cls-7" d="M586.24,712.45c-3.46,1.79-16.63.55-16.63.55s6.86-11.69,10.32-13.5a6.92,6.92,0,0,1,9.26,3.67,7.4,7.4,0,0,1-3,9.28Z" transform="translate(-0.05 77.5)"/><path id="Path_1462" data-name="Path 1462" class="cls-7" d="M589,746c-3.06,2.38-16.29,3.46-16.29,3.46s4.86-12.68,8-15.12a6.86,6.86,0,0,1,9.86,1.1,7.43,7.43,0,0,1-1.07,10.21c-.15.12-.3.24-.46.35Z" transform="translate(-0.05 77.5)"/><path id="Path_1463" data-name="Path 1463" class="cls-6" d="M796.74,733s9.29-32.66-1.74-56.7a53.23,53.23,0,0,1-4-32.4,87.69,87.69,0,0,1,4.43-15.2" transform="translate(-0.05 77.5)"/><path id="Path_1464" data-name="Path 1464" class="cls-7" d="M790.26,613.55c0,4,7,15.61,7,15.61s7-11.62,7-15.61a7,7,0,1,0-14-.69q0,.35,0,.69Z" transform="translate(-0.05 77.5)"/><path id="Path_1465" data-name="Path 1465" class="cls-7" d="M778.69,635.72c2.11,3.36,14.08,9.16,14.08,9.16s-.21-13.68-2.32-17a6.88,6.88,0,0,0-9.71-2.12,7.41,7.41,0,0,0-2,10Z" transform="translate(-0.05 77.5)"/><path id="Path_1466" data-name="Path 1466" class="cls-7" d="M777.47,673.59c3.44,1.81,16.61.57,16.61.57s-6.86-11.71-10.32-13.5a6.87,6.87,0,0,0-9.5,2.86,7.38,7.38,0,0,0,2.76,9.84l.45.23Z" transform="translate(-0.05 77.5)"/><path id="Path_1467" data-name="Path 1467" class="cls-7" d="M784,702.18c3.06,2.38,16.29,3.45,16.29,3.45s-4.86-12.68-8-15.12a6.87,6.87,0,0,0-9.74,1.93,7.44,7.44,0,0,0,1.41,9.74Z" transform="translate(-0.05 77.5)"/><path id="Path_1468" data-name="Path 1468" class="cls-7" d="M805.72,645.65C803,648.44,790,651.32,790,651.32S793.2,638,796,635.26a6.83,6.83,0,0,1,9.9.15A7.42,7.42,0,0,1,805.72,645.65Z" transform="translate(-0.05 77.5)"/><path id="Path_1469" data-name="Path 1469" class="cls-7" d="M814.85,679.17c-3.46,1.8-16.62.55-16.62.55s6.87-11.69,10.31-13.48a6.88,6.88,0,0,1,9.46,3,7.37,7.37,0,0,1-2.92,9.79l-.23.12Z" transform="translate(-0.05 77.5)"/><path id="Path_1470" data-name="Path 1470" class="cls-7" d="M815.86,712.76c-3.06,2.38-16.29,3.46-16.29,3.46s4.86-12.68,8-15.11a6.84,6.84,0,0,1,9.79,1.52A7.41,7.41,0,0,1,815.86,712.76Z" transform="translate(-0.05 77.5)"/><path id="Path_1471" data-name="Path 1471" class="cls-6" d="M618.07,729.81s9.29-32.66-1.75-56.7a53.18,53.18,0,0,1-4-32.41,88.59,88.59,0,0,1,4.42-15.18" transform="translate(-0.05 77.5)"/><path id="Path_1472" data-name="Path 1472" class="cls-7" d="M611.59,610.38c0,4,7,15.61,7,15.61s7-11.62,7-15.61a7,7,0,0,0-14,0Z" transform="translate(-0.05 77.5)"/><path id="Path_1473" data-name="Path 1473" class="cls-7" d="M598.27,632.55c2.11,3.36,14.09,9.16,14.09,9.16s-.22-13.68-2.33-17a6.87,6.87,0,0,0-9.71-2.12,7.42,7.42,0,0,0-2.05,10Z" transform="translate(-0.05 77.5)"/><path id="Path_1474" data-name="Path 1474" class="cls-7" d="M598.78,670.44c3.44,1.8,16.61.55,16.61.55s-6.86-11.69-10.32-13.5a6.89,6.89,0,0,0-9.4,3.22,7.36,7.36,0,0,0,3.11,9.73Z" transform="translate(-0.05 77.5)"/><path id="Path_1475" data-name="Path 1475" class="cls-7" d="M605.41,699c3.06,2.38,16.29,3.45,16.29,3.45s-4.86-12.67-8-15.1a6.85,6.85,0,0,0-9.79,1.51A7.42,7.42,0,0,0,605.41,699Z" transform="translate(-0.05 77.5)"/><path id="Path_1476" data-name="Path 1476" class="cls-7" d="M628.8,642.48c-2.77,2.79-15.69,5.67-15.69,5.67s3.17-13.28,5.94-16.06a6.82,6.82,0,0,1,9.89.15,7.42,7.42,0,0,1-.14,10.24Z" transform="translate(-0.05 77.5)"/><path id="Path_1477" data-name="Path 1477" class="cls-7" d="M634.39,676c-3.46,1.8-16.63.56-16.63.56s6.87-11.7,10.32-13.5a6.92,6.92,0,0,1,9.26,3.67A7.37,7.37,0,0,1,634.39,676Z" transform="translate(-0.05 77.5)"/><path id="Path_1478" data-name="Path 1478" class="cls-7" d="M637.19,709.61c-3.06,2.38-16.29,3.45-16.29,3.45s4.86-12.67,8-15.11a6.85,6.85,0,0,1,9.86,1.1,7.44,7.44,0,0,1-1.07,10.21c-.15.12-.3.24-.46.35Z" transform="translate(-0.05 77.5)"/><path id="Path_1479" data-name="Path 1479" class="cls-8" d="M779.43,764.57v4.12l.45-.4q8-7,15.76-14.15l.46-.43a684.38,684.38,0,0,0,48.24-49.44c-16.34-29.41-54.6-29.57-61.47-29.35H781.8S779.33,727.87,779.43,764.57Z" transform="translate(-0.05 77.5)"/><path id="Path_1480" data-name="Path 1480" class="cls-9" d="M779.43,764.57v4.12l.45-.4q8-7,15.76-14.15l.46-.43a684.38,684.38,0,0,0,48.24-49.44c-16.34-29.41-54.6-29.57-61.47-29.35H781.8S779.33,727.87,779.43,764.57Z" transform="translate(-0.05 77.5)"/><path id="Path_1481" data-name="Path 1481" class="cls-8" d="M616.35,708.1l1.29,8.78h0l13.1,89.21L635,835.34l4.18,28.43q11.65-6,23.07-12.49l.35-.19,1.71-1,4.46-2.55q13.49-7.8,26.56-16.13l5.36-3.44q6.79-4.43,13.46-9,13.27-9,26.11-18.7l3.06-2.34,2.47-1.89q17.26-13.22,33.59-27.4l.46-.4q8-6.94,15.75-14.15L788,713.32q-2.31-12.39-3.8-24.88-.82-6.75-1.38-13.53c-.11-1.08-.2-2.17-.27-3.25-2.64-34-10.72-104.7-33.39-121.33a16.67,16.67,0,0,0-15.31-2.8,59.94,59.94,0,0,0-6.63,2.34c-15.91,6.6-31,19.69-43.43,33.28a235.53,235.53,0,0,0-42.87,66.94l-23,53.58-.08.17-.21.49Z" transform="translate(-0.05 77.5)"/><path id="Path_1482" data-name="Path 1482" class="cls-9" d="M672.26,799.56l26.62-94.26s24.93,69.33,44.54,92.67l2.46-1.88-35.34-90.41S699,654.16,708.23,635.4c7.34-14.9,31.47-65,41.1-85.07a16.66,16.66,0,0,0-15.31-2.8,60.67,60.67,0,0,0-6.63,2.34C715.15,570,692.49,610.09,690.8,635a323.23,323.23,0,0,0,2.7,65.21Z" transform="translate(-0.05 77.5)"/><path id="Path_1483" data-name="Path 1483" class="cls-8" d="M550.78,902.5q16.69-6.07,33-12.84,28.4-11.86,55.44-25.87,11.67-6,23.07-12.49l.35-.19-.89-5.82h0l-1-6.34-3.17-21s-14.74-66-30.33-99.28a62.55,62.55,0,0,0-9-14.94c-.23-.27-.48-.51-.72-.75h0a16.78,16.78,0,0,0-10.72-2.69,22.29,22.29,0,0,0-13.18,6.42c-7.66,7-16,21.17-23.16,48.19C559.42,796.31,553.68,857.56,550.78,902.5Z" transform="translate(-0.05 77.5)"/><path id="Path_1484" data-name="Path 1484" class="cls-9" d="M583.77,889.66q28.4-11.86,55.44-25.88,11.67-6,23.07-12.48c-.08-2-.26-4-.54-6h0S659.8,834.2,639.24,835a32.89,32.89,0,0,0-4.21.35c-22,2.84-40.49,18.26-47.88,39.85A66.61,66.61,0,0,0,583.77,889.66Z" transform="translate(-0.05 77.5)"/><path id="Path_1485" data-name="Path 1485" class="cls-9" d="M612.68,734.06c.69-18.82-9.19-25.27-17.35-27.43a22.23,22.23,0,0,1,13.18-6.42,36.41,36.41,0,0,1,11.5,19l20.84,105S611.51,765.61,612.68,734.06Z" transform="translate(-0.05 77.5)"/><path id="Path_1486" data-name="Path 1486" class="cls-8" d="M701.06,823.38l-5.7,8.06,5.36-3.44q6.79-4.41,13.46-9l-8.72-1.89Z" transform="translate(-0.05 77.5)"/><path id="Path_1487" data-name="Path 1487" class="cls-9" d="M702.47,828q6.79-4.41,13.45-9,13.29-9,26.12-18.7c-6-4.44-11.74-7.52-15.72-7.15,0,0-20.41,1.44-23.52,30.2C702.65,824.85,702.53,826.39,702.47,828Z" transform="translate(-0.05 77.5)"/><path id="Path_1488" data-name="Path 1488" class="cls-4" d="M619.23,702.91l.46,1.45,42.86,134.58,3.58,11.18,4.45-2.55a350,350,0,0,0-41.52-128.93c-4.41-7.76-7.76-12.79-9.18-14.77-.34-.51-.56-.81-.65-.92Z" transform="translate(-0.05 77.5)"/><path id="Path_1489" data-name="Path 1489" class="cls-4" d="M779.43,764.57c.13,1.23.3,2.47.47,3.72q8-7,15.75-14.15l.46-.43-11.85-65.26L781.81,675A299.77,299.77,0,0,0,779.43,764.57Z" transform="translate(-0.05 77.5)"/></g></g></g></g></g></svg>