<svg xmlns="http://www.w3.org/2000/svg" width="985" height="1080" viewBox="0 0 985 1080">
  <g id="sign-up-3-right" transform="translate(-936)">
    <g id="Group_279" data-name="Group 279" transform="translate(1916 1080) rotate(180)">
      <path id="Path_1361" data-name="Path 1361" d="M1485.1,95s-9.448,398.17-395.529,510.753S582.4,1174.2,582.4,1174.2V95Z" transform="translate(-587.401 -94.198)" fill="#3d455d"/>
      <g id="Group_223" data-name="Group 223" transform="translate(1101.63 398.135) rotate(180)">
        <circle id="Ellipse_549" data-name="Ellipse 549" cx="2.971" cy="2.971" r="2.971" transform="translate(445.878 229.09)" fill="#00a8cc"/>
        <circle id="Ellipse_550" data-name="Ellipse 550" cx="2.971" cy="2.971" r="2.971" transform="translate(330.004 229.09)" fill="#00a8cc"/>
        <circle id="Ellipse_551" data-name="Ellipse 551" cx="2.971" cy="2.971" r="2.971" transform="translate(532.04 120.149)" fill="#00a8cc"/>
        <circle id="Ellipse_552" data-name="Ellipse 552" cx="2.971" cy="2.971" r="2.971" transform="translate(504.309 301.387)" fill="#00a8cc"/>
        <circle id="Ellipse_553" data-name="Ellipse 553" cx="1.981" cy="1.981" r="1.981" transform="translate(503.319 239.984)" fill="#00a8cc"/>
        <circle id="Ellipse_554" data-name="Ellipse 554" cx="1.981" cy="1.981" r="1.981" transform="translate(706.345 327.137)" fill="#ff6584"/>
        <circle id="Ellipse_555" data-name="Ellipse 555" cx="1.981" cy="1.981" r="1.981" transform="translate(403.292 219.186)" fill="#ff6584"/>
        <circle id="Ellipse_556" data-name="Ellipse 556" cx="1.981" cy="1.981" r="1.981" transform="translate(527.088 58.746)" fill="#ff6584"/>
        <circle id="Ellipse_557" data-name="Ellipse 557" cx="1.981" cy="1.981" r="1.981" transform="translate(445.878 150.851)" fill="#00a8cc"/>
        <circle id="Ellipse_558" data-name="Ellipse 558" cx="1.981" cy="1.981" r="1.981" transform="translate(470.637 84.495)" fill="#fff"/>
        <circle id="Ellipse_559" data-name="Ellipse 559" cx="2.971" cy="2.971" r="2.971" transform="translate(765.768 261.772)" fill="#00a8cc"/>
        <circle id="Ellipse_560" data-name="Ellipse 560" cx="2.971" cy="2.971" r="2.971" transform="translate(568.684 272.666)" fill="#00a8cc"/>
        <circle id="Ellipse_561" data-name="Ellipse 561" cx="9.904" cy="9.904" r="9.904" transform="translate(511.242 336.05)" fill="#00a8cc"/>
        <circle id="Ellipse_562" data-name="Ellipse 562" cx="2.971" cy="2.971" r="2.971" transform="translate(638.01 235.032)" fill="#fff"/>
      </g>
      <g id="Group_222" data-name="Group 222" transform="translate(488.442 83.612) rotate(90)">
        <circle id="Ellipse_549-2" data-name="Ellipse 549" cx="3.995" cy="3.995" r="3.995" transform="translate(485.828 287.821)" fill="#00a8cc"/>
        <circle id="Ellipse_550-2" data-name="Ellipse 550" cx="3.995" cy="3.995" r="3.995" transform="translate(330.004 287.821)" fill="#00a8cc"/>
        <circle id="Ellipse_551-2" data-name="Ellipse 551" cx="3.995" cy="3.995" r="3.995" transform="translate(601.697 141.32)" fill="#00a8cc"/>
        <circle id="Ellipse_552-2" data-name="Ellipse 552" cx="3.995" cy="3.995" r="3.995" transform="translate(564.406 385.044)" fill="#00a8cc"/>
        <circle id="Ellipse_553-2" data-name="Ellipse 553" cx="2.664" cy="2.664" r="2.664" transform="translate(563.074 302.471)" fill="#00a8cc"/>
        <circle id="Ellipse_554-2" data-name="Ellipse 554" cx="2.664" cy="2.664" r="2.664" transform="translate(836.099 419.672)" fill="#ff6584"/>
        <circle id="Ellipse_555-2" data-name="Ellipse 555" cx="2.664" cy="2.664" r="2.664" transform="translate(428.559 274.503)" fill="#ff6584"/>
        <circle id="Ellipse_556-2" data-name="Ellipse 556" cx="2.664" cy="2.664" r="2.664" transform="translate(595.038 58.746)" fill="#ff6584"/>
        <circle id="Ellipse_557-2" data-name="Ellipse 557" cx="2.664" cy="2.664" r="2.664" transform="translate(485.828 182.606)" fill="#00a8cc"/>
        <circle id="Ellipse_558-2" data-name="Ellipse 558" cx="2.664" cy="2.664" r="2.664" transform="translate(519.124 93.373)" fill="#fff"/>
        <circle id="Ellipse_559-2" data-name="Ellipse 559" cx="3.995" cy="3.995" r="3.995" transform="translate(916.009 331.771)" fill="#00a8cc"/>
        <circle id="Ellipse_560-2" data-name="Ellipse 560" cx="3.995" cy="3.995" r="3.995" transform="translate(650.975 346.421)" fill="#00a8cc"/>
        <circle id="Ellipse_561-2" data-name="Ellipse 561" cx="13.318" cy="13.318" r="13.318" transform="translate(573.729 431.658)" fill="#00a8cc"/>
        <circle id="Ellipse_562-2" data-name="Ellipse 562" cx="3.995" cy="3.995" r="3.995" transform="translate(744.203 295.812)" fill="#fff"/>
      </g>
      <g id="Group_224" data-name="Group 224" transform="translate(343.159 -312.108) rotate(90)">
        <circle id="Ellipse_549-3" data-name="Ellipse 549" cx="2.61" cy="2.61" r="2.61" transform="translate(431.789 208.378)" fill="#00a8cc"/>
        <circle id="Ellipse_550-3" data-name="Ellipse 550" cx="2.61" cy="2.61" r="2.61" transform="translate(330.004 208.378)" fill="#00a8cc"/>
        <circle id="Ellipse_551-3" data-name="Ellipse 551" cx="2.61" cy="2.61" r="2.61" transform="translate(507.475 112.683)" fill="#00a8cc"/>
        <circle id="Ellipse_552-3" data-name="Ellipse 552" cx="2.61" cy="2.61" r="2.61" transform="translate(483.116 271.885)" fill="#00a8cc"/>
        <circle id="Ellipse_553-3" data-name="Ellipse 553" cx="1.74" cy="1.74" r="1.74" transform="translate(482.246 217.948)" fill="#00a8cc"/>
        <circle id="Ellipse_554-3" data-name="Ellipse 554" cx="1.74" cy="1.74" r="1.74" transform="translate(660.587 294.504)" fill="#ff6584"/>
        <circle id="Ellipse_555-3" data-name="Ellipse 555" cx="1.74" cy="1.74" r="1.74" transform="translate(394.381 199.679)" fill="#ff6584"/>
        <circle id="Ellipse_556-3" data-name="Ellipse 556" cx="1.74" cy="1.74" r="1.74" transform="translate(503.125 58.746)" fill="#ff6584"/>
        <circle id="Ellipse_557-3" data-name="Ellipse 557" cx="1.74" cy="1.74" r="1.74" transform="translate(431.789 139.652)" fill="#00a8cc"/>
        <circle id="Ellipse_558-3" data-name="Ellipse 558" cx="1.74" cy="1.74" r="1.74" transform="translate(453.538 81.364)" fill="#fff"/>
        <circle id="Ellipse_559-3" data-name="Ellipse 559" cx="2.61" cy="2.61" r="2.61" transform="translate(712.784 237.087)" fill="#00a8cc"/>
        <circle id="Ellipse_560-3" data-name="Ellipse 560" cx="2.61" cy="2.61" r="2.61" transform="translate(539.663 246.656)" fill="#00a8cc"/>
        <circle id="Ellipse_561-3" data-name="Ellipse 561" cx="8.7" cy="8.7" r="8.7" transform="translate(489.206 302.333)" fill="#dfdfe9"/>
        <circle id="Ellipse_562-3" data-name="Ellipse 562" cx="2.61" cy="2.61" r="2.61" transform="translate(600.56 213.598)" fill="#fff"/>
      </g>
      <g id="Group_224-2" data-name="Group 224" transform="translate(582.159 -193.108) rotate(90)">
        <circle id="Ellipse_549-4" data-name="Ellipse 549" cx="2.61" cy="2.61" r="2.61" transform="translate(431.789 208.378)" fill="#00a8cc"/>
        <circle id="Ellipse_550-4" data-name="Ellipse 550" cx="2.61" cy="2.61" r="2.61" transform="translate(330.004 208.378)" fill="#00a8cc"/>
        <circle id="Ellipse_551-4" data-name="Ellipse 551" cx="2.61" cy="2.61" r="2.61" transform="translate(507.475 112.683)" fill="#00a8cc"/>
        <circle id="Ellipse_552-4" data-name="Ellipse 552" cx="2.61" cy="2.61" r="2.61" transform="translate(483.116 271.885)" fill="#00a8cc"/>
        <circle id="Ellipse_553-4" data-name="Ellipse 553" cx="1.74" cy="1.74" r="1.74" transform="translate(482.246 217.948)" fill="#00a8cc"/>
        <circle id="Ellipse_554-4" data-name="Ellipse 554" cx="1.74" cy="1.74" r="1.74" transform="translate(660.587 294.504)" fill="#ff6584"/>
        <circle id="Ellipse_555-4" data-name="Ellipse 555" cx="1.74" cy="1.74" r="1.74" transform="translate(394.381 199.679)" fill="#ff6584"/>
        <circle id="Ellipse_556-4" data-name="Ellipse 556" cx="1.74" cy="1.74" r="1.74" transform="translate(503.125 58.746)" fill="#ff6584"/>
        <circle id="Ellipse_557-4" data-name="Ellipse 557" cx="1.74" cy="1.74" r="1.74" transform="translate(431.789 139.652)" fill="#00a8cc"/>
        <circle id="Ellipse_558-4" data-name="Ellipse 558" cx="1.74" cy="1.74" r="1.74" transform="translate(453.538 81.364)" fill="#fff"/>
        <circle id="Ellipse_559-4" data-name="Ellipse 559" cx="2.61" cy="2.61" r="2.61" transform="translate(712.784 237.087)" fill="#00a8cc"/>
        <circle id="Ellipse_560-4" data-name="Ellipse 560" cx="2.61" cy="2.61" r="2.61" transform="translate(539.663 246.656)" fill="#00a8cc"/>
        <circle id="Ellipse_561-4" data-name="Ellipse 561" cx="8.7" cy="8.7" r="8.7" transform="translate(489.206 302.333)" fill="#dfdfe9"/>
        <circle id="Ellipse_562-4" data-name="Ellipse 562" cx="2.61" cy="2.61" r="2.61" transform="translate(600.56 213.598)" fill="#fff"/>
      </g>
      <circle id="Ellipse_765" data-name="Ellipse 765" cx="7" cy="7" r="7" transform="translate(980 446.802) rotate(180)" fill="#f2f2f2"/>
      <circle id="Ellipse_766" data-name="Ellipse 766" cx="7" cy="7" r="7" transform="translate(378 172.802) rotate(180)" fill="#f2f2f2"/>
      <circle id="Ellipse_767" data-name="Ellipse 767" cx="7" cy="7" r="7" transform="translate(708 397.802) rotate(180)" fill="#f2f2f2"/>
      <circle id="Ellipse_768" data-name="Ellipse 768" cx="4" cy="4" r="4" transform="translate(358 436.802) rotate(180)" fill="#ff6584"/>
      <circle id="Ellipse_769" data-name="Ellipse 769" cx="4" cy="4" r="4" transform="translate(961 236.802) rotate(180)" fill="#ff6584"/>
      <circle id="Ellipse_770" data-name="Ellipse 770" cx="4" cy="4" r="4" transform="translate(559 466.802) rotate(180)" fill="#f2f2f2"/>
    </g>
    <g id="Group_429" data-name="Group 429" transform="translate(105.592 -91.209)">
      <ellipse id="Ellipse_750" data-name="Ellipse 750" cx="41.732" cy="41.732" rx="41.732" ry="41.732" transform="translate(1366 918.249)" fill="#ff6584"/>
      <path id="Path_2557" data-name="Path 2557" d="M502.988,482.405h-.905V481.5h-.177v.905H501v.177h.905v.905h.177v-.905h.905Z" transform="translate(1037.473 604.982)" fill="#f2f2f2"/>
      <path id="Path_2559" data-name="Path 2559" d="M444.988,535.405h-.905V534.5h-.177v.905H443v.177h.905v.905h.177v-.905h.905Z" transform="translate(1066.65 578.32)" fill="#f2f2f2"/>
      <path id="Path_2571" data-name="Path 2571" d="M478.988,351.405h-.905V350.5h-.177v.905H477v.177h.905v.905h.177v-.905h.905Z" transform="translate(1049.546 670.884)" fill="#f2f2f2"/>
      <path id="Path_2574" data-name="Path 2574" d="M417.118,222.192c0,138.666-17.437,138.666-38.939,138.666-11.117,0-21.146,0-28.239-19.155a119.63,119.63,0,0,1-5.35-21.741c-3.4-20.54-5.35-51.406-5.35-97.771a266.461,266.461,0,0,1,5.35-51.632c1.558-7.859,3.377-15.445,5.35-22.68,2.414-8.858,5.059-17.187,7.728-24.808,1.789-5.125,3.6-9.934,5.35-14.375a308.942,308.942,0,0,1,15.16-33.2S417.118,145.609,417.118,222.192Z" transform="translate(1050.77 771.709)" fill="#f2f2f2"/>
      <g id="Group_413" data-name="Group 413" transform="translate(1408.438 880.406)" opacity="0.1">
        <path id="Path_2575" data-name="Path 2575" d="M381.676,142.3V384.061h-5.35V156.678C378.114,151.553,379.922,146.744,381.676,142.3Z" transform="translate(-376.325 -142.303)"/>
      </g>
      <ellipse id="Ellipse_763" data-name="Ellipse 763" cx="21.402" cy="21.402" rx="21.402" ry="21.402" transform="translate(1406.357 921.521)" fill="#3f3d56"/>
      <path id="Path_2576" data-name="Path 2576" d="M413.876,607.771c-4.759-11.714-10.869-13.734-14.862-13.559v-1.9H336.592v1.9c-3.994-.176-10.1,1.845-14.862,13.559-7.729,19.024,4.756,51.721,4.756,51.721s-6.672-45.6,15.484-45.9a26.218,26.218,0,0,0,6.95,6.306v12.265H384.7V621.013a26.19,26.19,0,0,0,8.938-7.423c22.155.3,15.484,45.9,15.484,45.9S421.6,626.8,413.876,607.771Z" transform="translate(1060.848 511.717)" fill="#00a8cc"/>
      <ellipse id="Ellipse_764" data-name="Ellipse 764" cx="16.646" cy="16.646" rx="16.646" ry="16.646" transform="translate(1411.113 926.277)" fill="#00a8cc"/>
      <path id="Path_2555" data-name="Path 2555" d="M677.522,432.649h-1.149V431.5h-.224v1.149H675v.225h1.149v1.149h.224v-1.149h1.149Z" transform="translate(948.653 585.499)" fill="#f2f2f2"/>
      <path id="Path_2560" data-name="Path 2560" d="M573.522,537.649h-1.149V536.5h-.224v1.149H571v.225h1.149v1.149h.224v-1.149h1.149Z" transform="translate(987.07 546.713)" fill="#f2f2f2"/>
      <rect id="Rectangle_826" data-name="Rectangle 826" width="1.813" height="36.615" transform="translate(1624.912 890.367)" fill="#e6e6e6"/>
      <path id="Path_2562" data-name="Path 2562" d="M601.979,385.046,585.3,423.474l3.263,5.438-1.088,1.812,7.613,3.988v-2.175l2.9-.725,12.326-22.477Z" transform="translate(981.786 602.659)" fill="#e6e6e6"/>
      <path id="Path_2563" data-name="Path 2563" d="M725.081,532.407s-12.326,19.214,1.45,22.114,2.538-20.3,2.538-20.3Z" transform="translate(845.634 500.614)" fill="#e6e6e6"/>
      <path id="Path_2564" data-name="Path 2564" d="M750.7,515.727l-4.35,14.138-1.813,18.126-3.263,6.525,3.625,29.364,5.8,5.8,2.538,29v13.051l6.888,11.963-8.87,12.59a4.011,4.011,0,0,0,3.147,6.326,16.573,16.573,0,0,0,7.9-2.239c10.513-5.438,10.151-10.513,10.151-10.513s6.526,0,6.888-5.075-3.988-41.328-3.988-41.328l-3.988-15.589V545.454h1.45l.725,36.252L776.8,595.12l.362,5.8,4.713,58s21.026,5.8,22.114,1.088-7.975-7.613-7.975-7.613l5.438-10.513v-20.3l-1.813-4.35-3.263-29.364,5.438-5.8,2.9-3.625v-29L801.09,538.2,800,528.778l-5.8-14.5S767.739,505.577,750.7,515.727Z" transform="translate(837.779 508.593)" fill="#fff"/>
      <path id="Path_2565" data-name="Path 2565" d="M798.677,372.543a27.552,27.552,0,1,1-49.666-16.433l.007-.007a27.549,27.549,0,0,1,49.659,16.44Z" transform="translate(836.929 569.846)" fill="#00a8cc"/>
      <g id="Group_412" data-name="Group 412" transform="translate(1585.222 916.288)" opacity="0.1">
        <path id="Path_2566" data-name="Path 2566" d="M797.527,361.972l-2.248,12.873c-16.89-43.844-43.757-16.912-44.221-16.441a27.552,27.552,0,0,1,46.468,3.567Z" transform="translate(-751.058 -347.294)"/>
      </g>
      <path id="Path_2567" data-name="Path 2567" d="M798.677,359.672l-2.248,12.873c-16.89-43.844-43.757-16.912-44.221-16.441a27.552,27.552,0,0,1,46.469,3.567Z" transform="translate(833.74 569.844)" fill="#fff"/>
      <path id="Path_2568" data-name="Path 2568" d="M792.135,359.572l3.777,13.11s-7.84,23.5-44.2,24.317l-1.192,3.357-3.988,1.088-1.813,7.613,5.075,48.216s-2.175,4.713,1.45,4.35c0,0,23.927-7.976,44.591-.725,0,0,4.35,1.813,3.263-2.175,0,0,14.5-9.063,13.414-18.489s1.088-53.291,1.088-53.291,2.175-12.688-4.35-15.589C809.253,371.355,799.669,357.94,792.135,359.572Z" transform="translate(836.504 564.51)" fill="#fff"/>
      <path id="Path_2569" data-name="Path 2569" d="M797.038,504.918s-22.713,2.281-16.426,14.877S798.1,509.169,798.1,509.169Z" transform="translate(823.654 510.768)" fill="#e6e6e6"/>
      <path id="Path_2570" data-name="Path 2570" d="M817.075,415.231a15.4,15.4,0,0,0-2.538,12.326c1.45,7.613,6.888,24.652,6.888,24.652l-19.214,17.764,5.8,7.975,26.1-13.414,5.8-3.625h0a150.4,150.4,0,0,0-10.652-42.654l-.949-2.3S821.426,413.056,817.075,415.231Z" transform="translate(815.268 544.197)" fill="#e6e6e6"/>
      <ellipse id="Ellipse_760" data-name="Ellipse 760" cx="6.707" cy="6.707" rx="6.707" ry="6.707" transform="translate(1623.824 933.145)" fill="#e6e6e6"/>
      <path id="Path_2572" data-name="Path 2572" d="M643.522,295.649h-1.149V294.5h-.224v1.149H641v.225h1.149v1.149h.224v-1.149h1.149Z" transform="translate(961.212 636.107)" fill="#f2f2f2"/>
      <path id="Path_2573" data-name="Path 2573" d="M625.522,312.649h-1.149V311.5h-.224v1.149H623v.225h1.149v1.149h.224v-1.149h1.149Z" transform="translate(967.861 629.827)" fill="#f2f2f2"/>
    </g>
  </g>
</svg>
