<svg xmlns="http://www.w3.org/2000/svg" width="118.637" height="15.336" viewBox="0 0 118.637 15.336">
  <g id="star-rating" transform="translate(-42.153 -361.357)">
    <path id="star" d="M15.961,6.287a.849.849,0,0,0-.732-.585L10.61,5.282,8.784,1.007a.85.85,0,0,0-1.564,0L5.393,5.282.773,5.7A.851.851,0,0,0,.291,7.19l3.491,3.062L2.752,14.787a.849.849,0,0,0,1.265.919L8,13.324l3.983,2.381a.85.85,0,0,0,1.266-.919L12.22,10.252l3.491-3.061a.851.851,0,0,0,.249-.9Zm0,0" transform="translate(42.153 360.865)" fill="#ffc107"/>
    <path id="star-2" data-name="star" d="M15.961,6.287a.849.849,0,0,0-.732-.585L10.61,5.282,8.784,1.007a.85.85,0,0,0-1.564,0L5.393,5.282.773,5.7A.851.851,0,0,0,.291,7.19l3.491,3.062L2.752,14.787a.849.849,0,0,0,1.265.919L8,13.324l3.983,2.381a.85.85,0,0,0,1.266-.919L12.22,10.252l3.491-3.061a.851.851,0,0,0,.249-.9Zm0,0" transform="translate(70.561 360.865)" fill="#ffc107"/>
    <path id="star-3" data-name="star" d="M15.961,6.287a.849.849,0,0,0-.732-.585L10.61,5.282,8.784,1.007a.85.85,0,0,0-1.564,0L5.393,5.282.773,5.7A.851.851,0,0,0,.291,7.19l3.491,3.062L2.752,14.787a.849.849,0,0,0,1.265.919L8,13.324l3.983,2.381a.85.85,0,0,0,1.266-.919L12.22,10.252l3.491-3.061a.851.851,0,0,0,.249-.9Zm0,0" transform="translate(98.969 360.865)" fill="#ffc107"/>
    <path id="star-4" data-name="star" d="M15.961,6.287a.849.849,0,0,0-.732-.585L10.61,5.282,8.784,1.007a.85.85,0,0,0-1.564,0L5.393,5.282.773,5.7A.851.851,0,0,0,.291,7.19l3.491,3.062L2.752,14.787a.849.849,0,0,0,1.265.919L8,13.324l3.983,2.381a.85.85,0,0,0,1.266-.919L12.22,10.252l3.491-3.061a.851.851,0,0,0,.249-.9Zm0,0" transform="translate(121.878 360.865)" fill="#ffc107"/>
    <path id="star-5" data-name="star" d="M15.961,6.287a.849.849,0,0,0-.732-.585L10.61,5.282,8.784,1.007a.85.85,0,0,0-1.564,0L5.393,5.282.773,5.7A.851.851,0,0,0,.291,7.19l3.491,3.062L2.752,14.787a.849.849,0,0,0,1.265.919L8,13.324l3.983,2.381a.85.85,0,0,0,1.266-.919L12.22,10.252l3.491-3.061a.851.851,0,0,0,.249-.9Zm0,0" transform="translate(144.788 360.865)" fill="#ffc107"/>
  </g>
</svg>
