<svg xmlns="http://www.w3.org/2000/svg" width="614.681" height="419.459" viewBox="0 0 614.681 419.459">
  <g id="submit-successfully" transform="translate(0 -0.001)">
    <path id="Path_3825" data-name="Path 3825" d="M261.467,787.834c0,10.929-51.255,19.794-114.484,19.794S32.5,798.763,32.5,787.834c0-2.734,3.2-5.334,8.987-7.7,16.852-6.9,55.653-11.8,101.259-12.08q2.11-.016,4.237-.016C210.212,768.04,261.467,776.9,261.467,787.834Z" transform="translate(-28.755 -388.168)" fill="#3f3d56"/>
    <path id="Path_3826" data-name="Path 3826" d="M150.559,768.07A65,65,0,0,1,49.3,780.15C66.152,773.254,104.953,768.354,150.559,768.07Z" transform="translate(-36.568 -388.182)" opacity="0.1"/>
    <ellipse id="Ellipse_1108" data-name="Ellipse 1108" cx="59.917" cy="64.196" rx="59.917" ry="64.196" transform="translate(0 271.807)" fill="#3f3d56"/>
    <path id="Path_3827" data-name="Path 3827" d="M274.927,141.3c8.5,32.728,35.9,53.881,61.274,47.295" transform="translate(-141.491 -96.714)" fill="#3f3d56"/>
    <path id="Path_3828" data-name="Path 3828" d="M387.444,166.1c-8.591-33.1,7.37-65.823,35.685-73.173" transform="translate(-192.734 -74.219)" fill="#00a8cc"/>
    <path id="Path_3829" data-name="Path 3829" d="M307.456,138.773c8.07,31.088,27.692,52.845,43.872,48.645" transform="translate(-156.618 -95.54)" fill="#00a8cc"/>
    <path id="Path_3830" data-name="Path 3830" d="M386.627,149.838c-10.977-42.289,6.623-83.382,39.351-91.877" transform="translate(-191.917 -57.96)" fill="#3f3d56"/>
    <path id="Path_3831" data-name="Path 3831" d="M371.616,228.239s6.458-1.89,8.057-3.8,9.218-5.665,10.287-3.55,12.676,8.6,5.342,10.571-17.375,3.288-19.643,2.6S371.616,228.239,371.616,228.239Z" transform="translate(-186.454 -133.437)" fill="#a8a8a8"/>
    <path id="Path_3832" data-name="Path 3832" d="M395.23,237.523c-7.334,1.967-17.375,3.288-19.643,2.6-1.727-.521-3.167-3.627-3.757-5.079l-.215.065s1.775,5.143,4.043,5.828,12.308-.636,19.643-2.6c2.117-.568,2.654-1.513,2.324-2.62C397.506,236.469,396.806,237.1,395.23,237.523Z" transform="translate(-186.454 -140.311)" opacity="0.2"/>
    <rect id="Rectangle_1252" data-name="Rectangle 1252" width="431.186" height="249.831" transform="translate(183.495 67.449)" fill="#f2f2f2"/>
    <rect id="Rectangle_1253" data-name="Rectangle 1253" width="236.457" height="123.846" transform="translate(193.659 143.281)" fill="#00a8cc" opacity="0.3"/>
    <rect id="Rectangle_1254" data-name="Rectangle 1254" width="94.84" height="5.246" transform="translate(448.305 137.882)" fill="#3f3d56"/>
    <rect id="Rectangle_1255" data-name="Rectangle 1255" width="138.022" height="5.246" transform="translate(448.305 147.568)" fill="#3f3d56"/>
    <rect id="Rectangle_1256" data-name="Rectangle 1256" width="94.84" height="5.246" transform="translate(448.305 170.975)" fill="#3f3d56"/>
    <rect id="Rectangle_1257" data-name="Rectangle 1257" width="94.84" height="5.246" transform="translate(448.305 209.718)" fill="#3f3d56"/>
    <rect id="Rectangle_1258" data-name="Rectangle 1258" width="138.022" height="5.246" transform="translate(448.305 180.661)" fill="#3f3d56"/>
    <rect id="Rectangle_1259" data-name="Rectangle 1259" width="138.022" height="5.246" transform="translate(448.305 190.346)" fill="#3f3d56"/>
    <rect id="Rectangle_1260" data-name="Rectangle 1260" width="138.022" height="5.246" transform="translate(448.305 200.033)" fill="#3f3d56"/>
    <rect id="Rectangle_1261" data-name="Rectangle 1261" width="49.64" height="13.722" transform="translate(448.305 233.125)" fill="#00a8cc"/>
    <path id="Path_3833" data-name="Path 3833" d="M339.988,449.475s8.911-25.248,15.347-17.327-9.9,21.287-9.9,21.287Z" transform="translate(-171.746 -231.253)" fill="#a0616a"/>
    <path id="Path_3834" data-name="Path 3834" d="M245.838,419.605l5.361,1.987s2.56,11.38,1.57,13.36-1.485.5,0,4.455,5.941,14.357,6.436,15.842,28.713-9.406,28.713-14.852c0,0,5.941,6.931,8.911,8.416,0,0-32.673,23.763-37.129,26.733s-6.931,1.485-10.891-1.98-20.792-32.178-20.792-32.178Z" transform="translate(-119.676 -226.136)" fill="#575a89"/>
    <path id="Path_3835" data-name="Path 3835" d="M283.424,745.354s-.5,5.446-1.485,5.941-8.416,12.871,0,15.347,13.366,1.485,15.347,2.475,36.634,2.97,37.129-2.475-16.832-6.436-16.832-6.436-15.842-10.4-18.317-15.842S283.424,745.354,283.424,745.354Z" transform="translate(-142.905 -376.141)" fill="#2f2e41"/>
    <path id="Path_3836" data-name="Path 3836" d="M92.153,766.623s-11.881,20.3-8.911,22.773,31.9,11.5,36.139,11.881c5.446.5,9.406-3.96,4.951-6.436S110.47,781.97,110.47,778.5v-8.911Z" transform="translate(-52.13 -387.509)" fill="#2f2e41"/>
    <path id="Path_3837" data-name="Path 3837" d="M76.2,518.621s-10.4,12.871,5.941,33.664l27.228,34.654s-16.832,26.733-17.327,40.594-3.96,10.891-4.951,16.832-5.446,2.97-1.98,7.426,16.337,8.416,20.3,4.951a12.273,12.273,0,0,0,3.96-9.9c0-1.98,6.931-13.366,7.426-16.832S135.6,598.324,135.6,598.324s5.941-16.832-.99-26.238S123.1,549.34,123.1,549.34s20.422,24.727,34.778,30.667c0,0,5.446.99,4.455,3.465s0,3.96,1.485,6.436S175.7,621.1,179.167,628.523s1.98,11.881,5.941,14.357,21.782.5,21.782-1.98-2.475-8.911-3.96-12.376-13.366-43.565-12.376-50.5-.5-16.337-7.921-20.3-45.05-36.139-47.03-36.139S76.2,518.621,76.2,518.621Z" transform="translate(-47.559 -272.181)" fill="#2f2e41"/>
    <circle id="Ellipse_1109" data-name="Ellipse 1109" cx="20.792" cy="20.792" r="20.792" transform="translate(107.35 127.132)" fill="#a0616a"/>
    <path id="Path_3838" data-name="Path 3838" d="M219.888,338.171s-6.436,11.386-14.357,12.871S226.324,375.3,226.324,375.3s6.931-21.782,12.871-22.772S219.888,338.171,219.888,338.171Z" transform="translate(-108.577 -188.266)" fill="#a0616a"/>
    <path id="Path_3839" data-name="Path 3839" d="M180.621,393.545c0,6.436-19.307,24.753-19.307,24.753L143,433.644s-.5,5.446-2.475,5.941-4.455.5-2.475,3.465,6.931,9.406,2.475,10.4a36.392,36.392,0,0,1-4.054.386c-1.188.069-2.584.134-4.154.193-3.663.129-8.248.213-13.213.178q-2.116-.007-4.307-.049c-18.718-.371-40.4-2.525-38.629-9.619,2.97-11.881.99-15.842,7.426-22.277s16.832-28.713,16.832-28.713S121.214,358.4,138.541,358.4l3.6-.946a8.242,8.242,0,0,1,9,3.455c3.475,5.292,8.956,13.243,12.159,15.807,4.951,3.96,5.723,1.119,5.723,1.119S180.621,387.109,180.621,393.545Z" transform="translate(-49.013 -197.105)" fill="#575a89"/>
    <path id="Path_3840" data-name="Path 3840" d="M181.834,565.815s14.357,22.277,5.446,26.238-13.861-23.267-13.861-23.267Z" transform="translate(-94.286 -294.128)" fill="#a0616a"/>
    <path id="Path_3841" data-name="Path 3841" d="M228.552,307.812c.8-.1,1.05-1.108,1.185-1.9.719-4.247,3.884-8.274,8.136-8.959a11.521,11.521,0,0,1,4.848.391,18.394,18.394,0,0,1,6.22,3.062,10.259,10.259,0,0,0,3.108,1.952c.78.229,4.093,1.7,4.867,1.951,1.7.548,3.11,2.329,4.863,1.976,1.677-.337,2.314-2.362,2.583-4.051.614-3.848-1.589-9.589-3.778-12.813-1.662-2.446-4.474-3.854-7.285-4.769a52.345,52.345,0,0,0-10.1-2.008c-4.625-.546-9.415-.836-13.847.594s-8.468,4.927-9.3,9.509c-.172.955-.2,1.932-.416,2.879-.515,2.31-2.044,4.251-2.935,6.443a12.408,12.408,0,0,0,.379,10.058c1.234,2.483,3.381,4.868,2.918,7.6l3.82-3.012a2.775,2.775,0,0,0,1.275-3.247l-.555-4.783a4.209,4.209,0,0,1,.248-2.586C226.483,303.133,227.221,307.979,228.552,307.812Z" transform="translate(-114.002 -162.235)" fill="#2f2e41"/>
    <path id="Path_3842" data-name="Path 3842" d="M156.233,441.287l4.663,19.391c-4.7.168-10.926.257-17.52.129-1.663-4.99-3.253-10.193-4.47-15.064-4.455-17.822,2.97-45.05,6.931-57.921S159.7,371.485,159.7,371.485a45.146,45.146,0,0,1,11.386,5.941C177.52,381.881,156.233,441.287,156.233,441.287Z" transform="translate(-77.596 -203.758)" opacity="0.1"/>
    <path id="Path_3843" data-name="Path 3843" d="M163.636,448.929l4.856,20.188c-1.188.069-2.584.134-4.154.193-3.663.129-8.248.213-13.213.178-1.787-5.3-3.515-10.9-4.817-16.1-4.455-17.822,2.97-45.05,6.931-57.921s12.624,1.238,12.624,1.238-3.465-8.416,2.97-3.96S163.636,448.929,163.636,448.929Z" transform="translate(-81.038 -212.39)" opacity="0.1"/>
    <path id="Path_3844" data-name="Path 3844" d="M163.4,369.634s-9.9,3.465-13.861,16.337-11.386,40.1-6.931,57.921,13.861,40.1,13.861,40.1,9.406-6.931,12.871-5.446l-9.406-39.109s21.287-59.406,14.852-63.862A45.165,45.165,0,0,0,163.4,369.634Z" transform="translate(-79.317 -202.898)" fill="#575a89"/>
    <rect id="Rectangle_1262" data-name="Rectangle 1262" width="236.457" height="123.846" transform="translate(183.495 130.442)" fill="#3f3d56"/>
    <ellipse id="Ellipse_1110" data-name="Ellipse 1110" cx="26.758" cy="26.806" rx="26.758" ry="26.806" transform="translate(279.365 167.982)" fill="#fff"/>
    <path id="Path_3845" data-name="Path 3845" d="M569.925,363.423A31.979,31.979,0,1,0,601.9,395.4,31.979,31.979,0,0,0,569.925,363.423Zm-6.565,49.029-16.389-16.389,4.6-4.6,11.808,11.808L588.3,378.352l4.6,4.6-29.534,29.5Z" transform="translate(-263.803 -200.009)" fill="#00a8cc"/>
  </g>
</svg>
