<svg id="Subscription_Illustration" data-name="Subscription Illustration" xmlns="http://www.w3.org/2000/svg" width="444.627" height="345.321" viewBox="0 0 444.627 345.321">
  <circle id="Ellipse_541" data-name="Ellipse 541" cx="162.019" cy="162.019" r="162.019" transform="translate(72.974)" fill="#f2f2f2"/>
  <path id="Path_985" data-name="Path 985" d="M484.332,793.956c0,6.717-88.679,20.85-198.071,20.85S88.19,800.673,88.19,793.956s88.679-3.475,198.071-3.475S484.332,787.239,484.332,793.956Z" transform="translate(-88.189 -469.485)" fill="#3f3d56"/>
  <path id="Path_986" data-name="Path 986" d="M484.332,793.956c0,6.717-88.679,20.85-198.071,20.85S88.19,800.673,88.19,793.956s88.679-3.475,198.071-3.475S484.332,787.239,484.332,793.956Z" transform="translate(-88.189 -469.485)" opacity="0.1"/>
  <ellipse id="Ellipse_542" data-name="Ellipse 542" cx="198.071" cy="12.162" rx="198.071" ry="12.162" transform="translate(0 312.31)" fill="#3f3d56"/>
  <ellipse id="Ellipse_543" data-name="Ellipse 543" cx="79.923" cy="7.384" rx="79.923" ry="7.384" transform="translate(119.451 312.744)" opacity="0.1"/>
  <path id="Path_987" data-name="Path 987" d="M827.189,667.412c0,27.454,17.223,49.669,38.507,49.669" transform="translate(-506.192 -400.315)" fill="#3f3d56"/>
  <path id="Path_988" data-name="Path 988" d="M915.841,716.355c0-27.762,19.22-50.227,42.972-50.227" transform="translate(-556.337 -399.589)" fill="#00a8cc"/>
  <path id="Path_989" data-name="Path 989" d="M859.309,673.142c0,26.078,10.983,47.18,24.555,47.18" transform="translate(-524.36 -403.556)" fill="#00a8cc"/>
  <path id="Path_990" data-name="Path 990" d="M915.841,698.187c0-35.474,22.215-64.179,49.669-64.179" transform="translate(-556.337 -381.42)" fill="#3f3d56"/>
  <path id="Path_991" data-name="Path 991" d="M897.19,778.724s5.461-.168,7.107-1.34,8.4-2.571,8.809-.692,8.207,9.348,2.041,9.4-14.326-.96-15.968-1.961S897.19,778.724,897.19,778.724Z" transform="translate(-545.787 -461.608)" fill="#a8a8a8"/>
  <path id="Path_992" data-name="Path 992" d="M915.257,789.269c-6.165.05-14.326-.96-15.968-1.961-1.251-.762-1.749-3.5-1.916-4.758l-.182.007s.346,4.4,1.989,5.4,9.8,2.011,15.968,1.961c1.78-.014,2.394-.648,2.361-1.585C917.261,788.9,916.582,789.259,915.257,789.269Z" transform="translate(-545.787 -465.441)" opacity="0.2"/>
  <rect id="Rectangle_628" data-name="Rectangle 628" width="98.167" height="57.336" transform="translate(154.2 265.833)" fill="#3f3d56"/>
  <path id="Path_993" data-name="Path 993" d="M610.208,557.157H537.834a8.949,8.949,0,0,1-8.949-8.949V515.05a3.545,3.545,0,0,1,1.106-2.573l38.351-36.354a8.254,8.254,0,0,1,11.357,0l36.566,34.661a9.267,9.267,0,0,1,2.892,6.725v30.7a8.949,8.949,0,0,1-8.949,8.949Z" transform="translate(-337.461 -290.835)" fill="#2f2e41"/>
  <path id="Path_994" data-name="Path 994" d="M440.7,517.441h89.52v29.082A12.48,12.48,0,0,1,517.735,559H453.177a12.48,12.48,0,0,1-12.481-12.48Z" transform="translate(-249.273 -292.682)" opacity="0.1"/>
  <path id="Path_995" data-name="Path 995" d="M528.668,564.962" transform="translate(-337.339 -342.366)" fill="none" stroke="#3f3d56" stroke-miterlimit="10" stroke-width="1"/>
  <rect id="Rectangle_629" data-name="Rectangle 629" width="66.575" height="66.575" rx="11.336" transform="translate(203.178 196.267)" fill="#00a8cc"/>
  <path id="Path_996" data-name="Path 996" d="M534.332,520.883v36.588H467.757V520.883l33.288,16.089Z" transform="translate(-264.579 -294.629)" opacity="0.1"/>
  <path id="Path_997" data-name="Path 997" d="M573.8,588.116,531.152,567.5a1.731,1.731,0,0,0-2.484,1.558v35.469a5.4,5.4,0,0,0,5.4,5.4h79.465a5.4,5.4,0,0,0,5.4-5.4V569.666a2.112,2.112,0,0,0-3.031-1.9Z" transform="translate(-337.339 -343.704)" fill="#2f2e41"/>
  <rect id="Rectangle_630" data-name="Rectangle 630" width="18.619" height="2.633" transform="translate(208.914 202.379)" fill="#f2f2f2"/>
  <rect id="Rectangle_631" data-name="Rectangle 631" width="55.291" height="1.505" transform="translate(207.409 211.97)" fill="#f2f2f2"/>
  <rect id="Rectangle_632" data-name="Rectangle 632" width="55.291" height="1.505" transform="translate(207.409 217.048)" fill="#f2f2f2"/>
  <rect id="Rectangle_633" data-name="Rectangle 633" width="55.291" height="1.505" transform="translate(207.409 222.126)" fill="#f2f2f2"/>
  <ellipse id="Ellipse_544" data-name="Ellipse 544" cx="7.711" cy="7.725" rx="7.711" ry="7.725" transform="translate(198.194 189.59)" fill="#fff"/>
  <path id="Path_998" data-name="Path 998" d="M550.223,485.945a9.215,9.215,0,1,0,9.215,9.215A9.215,9.215,0,0,0,550.223,485.945Zm-1.892,14.129-4.723-4.723,1.325-1.325,3.4,3.4,7.182-7.182,1.325,1.325-8.511,8.5Z" transform="translate(-344.318 -297.671)" fill="#57b894"/>
  <rect id="Rectangle_634" data-name="Rectangle 634" width="200" height="84" transform="translate(244.627 48)" fill="#3f3d56"/>
  <path id="Path_999" data-name="Path 999" d="M806.724,276.439H784.137a79,79,0,0,1,0-26.931h22.587A48.457,48.457,0,0,0,806.724,276.439Z" transform="translate(-481.186 -163.934)" fill="#ff6584"/>
  <path id="Path_1000" data-name="Path 1000" d="M952.055,276.439H929.468a79,79,0,0,1,0-26.931h22.587A48.457,48.457,0,0,0,952.055,276.439Z" transform="translate(-563.391 -163.934)" fill="#ff6584"/>
  <path id="Path_1001" data-name="Path 1001" d="M732.893,234.439H710.306a79,79,0,0,1,0-26.931h22.587a48.457,48.457,0,0,0,0,26.931Z" transform="translate(-439.425 -140.178)" fill="#00a8cc"/>
  <path id="Path_1002" data-name="Path 1002" d="M856.811,234.439H879.4a79,79,0,0,0,0-26.931H856.811a48.457,48.457,0,0,1,0,26.931Z" transform="translate(-522.948 -140.178)" fill="#00a8cc"/>
  <path id="Path_1003" data-name="Path 1003" d="M999.811,234.439H1022.4a78.993,78.993,0,0,0,0-26.931H999.811a48.456,48.456,0,0,1,0,26.931Z" transform="translate(-603.833 -140.178)" fill="#00a8cc"/>
  <path id="Path_1004" data-name="Path 1004" d="M326.43,214.416a3.228,3.228,0,0,0-1.872.418,4.883,4.883,0,0,0-1.266,1.671,19.994,19.994,0,0,1-5.447,6.152c-1.618,1.186-3.676,2.664-3.4,4.85a6.556,6.556,0,0,0,.789,2.047c1.493,3.014,5.567,5.343,5.166,8.782,1.483-2.483-.5-3.711.983-6.194.706-1.183,1.934-2.517,3-1.775.357.249.592.695.963.913.887.521,1.831-.475,2.616-1.18,2.708-2.431,6.559-1.794,9.929-1.037,1.591.358,3.338.827,4.279,2.347,1.237,2-1.175,4.158-1.784,6.419a1.232,1.232,0,0,0,1.322,1.533c1.011-.1,2.209-.181,2.269-.625,1.272.045,2.831-.1,3.376-1.423a5.57,5.57,0,0,0,.261-1.62c.2-2.225,1.145-4.255,1.77-6.373s.9-4.6-.158-6.478a7.494,7.494,0,0,0-1.383-1.681C341.852,215.363,333.974,214.407,326.43,214.416Z" transform="translate(-216.153 -144.079)" fill="#2f2e41"/>
  <path id="Path_1005" data-name="Path 1005" d="M324.861,276.805s1.3,10.859-3.475,11.728,4.344,15.637,4.344,15.637l21.718,2.606L342.236,289.4s-3.475-1.3-1.3-9.99S324.861,276.805,324.861,276.805Z" transform="translate(-219.31 -178.204)" fill="#a0616a"/>
  <path id="Path_1006" data-name="Path 1006" d="M212.5,656.5l1.737,23.89h9.122l-2.606-23.89Z" transform="translate(-120.197 -371.339)" fill="#a0616a"/>
  <path id="Path_1007" data-name="Path 1007" d="M366.5,551.37l1.3,19.981,9.99-4.344L373.884,550.5Z" transform="translate(-207.305 -311.382)" fill="#a0616a"/>
  <path id="Path_1008" data-name="Path 1008" d="M285.689,474.813s.434,25.193,3.041,33.446,2.172,8.687,1.737,9.99-.869.434-.869,2.606-.869,36.487,0,39.527-2.606,8.253,0,8.687,14.768,0,15.2-2.606-3.475-3.475-1.737-5.212,4.344-37.356,4.344-37.356l6.081-24.759,11.294-13.031h23.89l7.384,28.668s-3.041,8.253-.869,8.253,15.2,2.606,15.2-6.95-4.344-37.79-5.212-38.659.434-3.909-.869-5.212-16.506-10.425-22.153-12.162-13.568-3.805-13.568-3.805Z" transform="translate(-199.902 -280.868)" fill="#2f2e41"/>
  <path id="Path_1009" data-name="Path 1009" d="M465.621,632.547s-6.516-2.172-9.556,4.344-1.737,8.253-1.737,8.253,9.99,3.475,11.728,1.737c.756-.756,3.156-1.018,5.627-1.074,3.763-.084,4.764-5.408,1.21-6.648q-.159-.055-.322-.1C469.1,638.194,465.621,632.547,465.621,632.547Z" transform="translate(-295.132 -380.398)" fill="#2f2e41"/>
  <circle id="Ellipse_545" data-name="Ellipse 545" cx="13.031" cy="13.031" r="13.031" transform="translate(102.293 79.707)" fill="#a0616a"/>
  <path id="Path_1010" data-name="Path 1010" d="M300.548,314.093s21.284,4.344,26.5-2.606,7.384,19.546,7.384,19.546l2.606,27.8-3.909,15.2s-20.415,16.506-26.931,17.809-16.506,2.172-16.506,2.172,3.041-48.215,3.041-49.083S300.548,314.093,300.548,314.093Z" transform="translate(-202.164 -198.334)" fill="#00a8cc"/>
  <path id="Path_1011" data-name="Path 1011" d="M294.926,298.634s-4.736-2.713-6.039-.107-13.465,9.122-14.768,9.122,2.606,36.052.869,40.4S265,384.1,269.775,386.7s1.3-2.606,6.081,3.909,28.234,6.516,29.537,3.909-10.425-22.153-8.253-40.4,5.647-43.437,2.606-46.912A30.218,30.218,0,0,1,294.926,298.634Z" transform="translate(-190.069 -191.021)" fill="#575a89"/>
  <path id="Path_1012" data-name="Path 1012" d="M365.689,304.289l.605-2.082s18.073,5.991,18.941,9.9.434,31.274-2.606,33.446-7.384,5.647-4.344,10.859,6.515,10.859,9.122,11.294,7.384,3.475,6.081,6.516-16.94-2.606-16.94-2.606-10.425-7.819-9.99-19.981S365.689,304.289,365.689,304.289Z" transform="translate(-245.152 -193.742)" fill="#575a89"/>
  <path id="Path_1013" data-name="Path 1013" d="M375.138,425l-10.425,19.546s-15.2,15.637-6.516,17.375,13.465-14.334,13.465-14.334l11.294-16.072Z" transform="translate(-239.398 -263.198)" fill="#a0616a"/>
  <path id="Path_1014" data-name="Path 1014" d="M330.8,222.268a2.957,2.957,0,0,0-1.524.3,3.552,3.552,0,0,0-1.031,1.181,15.007,15.007,0,0,1-4.434,4.348c-1.317.838-2.992,1.883-2.767,3.428a4.288,4.288,0,0,0,.642,1.447,11.381,11.381,0,0,1,1.383,7.094l3.622-5.265c.575-.836,1.574-1.779,2.442-1.254.291.176.482.491.784.645.722.368,1.491-.336,2.13-.834,2.2-1.718,5.339-1.268,8.083-.733,1.3.253,2.718.584,3.483,1.659,1.272,1.786-.056,4.367.686,6.43a1.9,1.9,0,0,0,.784-1.252c1.036.032,2.3-.07,2.748-1.006a3.467,3.467,0,0,0,.213-1.145,21.186,21.186,0,0,1,1.441-4.5,5.348,5.348,0,0,0-.129-4.578,5.54,5.54,0,0,0-1.126-1.188C343.354,222.938,336.941,222.262,330.8,222.268Z" transform="translate(-219.888 -148.522)" fill="#2f2e41"/>
  <path id="Path_1015" data-name="Path 1015" d="M396.164,321l4.047,1.074s9.418,24.119,7.246,40.625-3.475,13.031-3.475,13.031-3.475-7.819-11.294-6.081Z" transform="translate(-260.424 -204.373)" fill="#575a89"/>
  <path id="Path_1016" data-name="Path 1016" d="M292.783,755.079c-1.047,1.423-.837,3.458-1.765,4.962-.8,1.3-2.32,1.987-3.326,3.143a8.428,8.428,0,0,0-.855,1.23c-.933,1.563-1.692,3.567-.773,5.138.739,1.264,2.293,1.758,3.719,2.095a13.646,13.646,0,0,0,5.5.441,5.473,5.473,0,0,0,4.253-3.174,12.269,12.269,0,0,1,.455-1.283c.988-1.944,4.086-1.965,5.1-3.9.707-1.352.057-2.987-.593-4.368l-1.985-4.218c-.659-1.4-3.329-.595-4.722-.93C295.966,753.779,294.089,753.3,292.783,755.079Z" transform="translate(-199.878 -449.184)" fill="#2f2e41"/>
  <path id="Path_1017" data-name="Path 1017" d="M234.2,468.217l7.7,10.488,30.036-15.519,1.733-.891-37.527-2.424Z" transform="translate(-132.473 -260.119)" fill="#00a8cc"/>
  <path id="Path_1018" data-name="Path 1018" d="M235.165,473.1l7.284,9.919L272.485,467.5Z" transform="translate(-133.017 -264.436)" opacity="0.2"/>
  <path id="Path_1019" data-name="Path 1019" d="M228.7,483.616l1.393-9.1,40.617-9.05Z" transform="translate(-129.363 -263.286)" fill="#00a8cc"/>
  <path id="Path_1020" data-name="Path 1020" d="M268.689,441.041l18.243,28.234s11.294,14.334,14.768,7.819-12.162-17.375-12.162-17.375L277.811,438Z" transform="translate(-190.286 -270.552)" fill="#a0616a"/>
  <path id="Path_1021" data-name="Path 1021" d="M272.8,321.869,269.328,321s-6.95,2.172-8.687,11.294-.434,45.608,1.737,46.043,10.727-6.353,12.1-4.914-2.974-5.945-1.671-9.854S272.8,321.869,272.8,321.869Z" transform="translate(-185.278 -204.373)" fill="#575a89"/>
</svg>
