<svg xmlns="http://www.w3.org/2000/svg" width="64.963" height="62.251" viewBox="0 0 64.963 62.251">
  <g id="talent-icon" transform="translate(0 -10.684)">
    <g id="Group_253" data-name="Group 253" transform="translate(0 10.684)">
      <g id="Group_248" data-name="Group 248" transform="translate(20.301 41.733)">
        <path id="Path_1317" data-name="Path 1317" d="M166.449,342.138h-5.176a1.269,1.269,0,1,1,0-2.538h5.176a1.269,1.269,0,1,1,0,2.538Z" transform="translate(-160.004 -339.6)" fill="#38a4b8"/>
      </g>
      <g id="Group_249" data-name="Group 249" transform="translate(36.948 41.733)">
        <path id="Path_1318" data-name="Path 1318" d="M297.649,342.138h-5.176a1.269,1.269,0,0,1,0-2.538h5.176a1.269,1.269,0,0,1,0,2.538Z" transform="translate(-291.204 -339.6)" fill="#38a4b8"/>
      </g>
      <g id="Group_250" data-name="Group 250" transform="translate(31.192 41.737)">
        <path id="Path_1319" data-name="Path 1319" d="M247.1,342.164a1.268,1.268,0,1,1,1.244-1.021A1.279,1.279,0,0,1,247.1,342.164Z" transform="translate(-245.835 -339.63)" fill="#38a4b8"/>
      </g>
      <g id="Group_252" data-name="Group 252" transform="translate(23.848 46.732)">
        <g id="Group_251" data-name="Group 251">
          <path id="Path_1320" data-name="Path 1320" d="M203.955,381.537H189.227a1.269,1.269,0,1,1,0-2.538h14.729a1.269,1.269,0,0,1,0,2.538Z" transform="translate(-187.958 -378.999)" fill="#38a4b8"/>
        </g>
      </g>
      <path id="Path_1321" data-name="Path 1321" d="M190.33,137.889a8.177,8.177,0,1,0-10.79,0,7.669,7.669,0,0,0-4.932,7.155v2.175a1.269,1.269,0,0,0,1.269,1.269h18.117a1.269,1.269,0,0,0,1.269-1.269v-2.175A7.669,7.669,0,0,0,190.33,137.889Zm-5.395-11.781a5.64,5.64,0,1,1-5.64,5.64A5.646,5.646,0,0,1,184.935,126.108Zm7.79,19.843H177.145v-.907a5.124,5.124,0,0,1,5.118-5.118h5.343a5.124,5.124,0,0,1,5.118,5.118v.907Z" transform="translate(-152.454 -109.247)" fill="#38a4b8"/>
      <path id="Path_1322" data-name="Path 1322" d="M15.315,72.936a4.726,4.726,0,0,1-4.69-5.13L12.064,51.23,1.159,38.666a4.717,4.717,0,0,1,2.5-7.687l16.206-3.754,8.578-14.256a4.716,4.716,0,0,1,8.082,0L45.1,27.224l16.206,3.754a4.717,4.717,0,0,1,2.5,7.687L52.9,51.23l1.438,16.576A4.716,4.716,0,0,1,47.8,72.557l-15.317-6.49-15.317,6.49a4.733,4.733,0,0,1-1.849.379ZM32.482,13.222a2.162,2.162,0,0,0-1.867,1.056L21.76,28.993a1.269,1.269,0,0,1-.8.582L4.229,33.451A2.179,2.179,0,0,0,3.075,37l11.257,12.97a1.269,1.269,0,0,1,.306.941L13.154,68.025a2.179,2.179,0,0,0,3.02,2.2l15.812-6.7a1.268,1.268,0,0,1,.99,0l15.812,6.7a2.179,2.179,0,0,0,3.02-2.195L50.324,50.914a1.269,1.269,0,0,1,.306-.941L61.888,37a2.18,2.18,0,0,0-1.154-3.552L44,29.575a1.269,1.269,0,0,1-.8-.582L34.348,14.277a2.161,2.161,0,0,0-1.867-1.056Z" transform="translate(0 -10.684)" fill="#38a4b8"/>
    </g>
  </g>
</svg>
