<svg xmlns="http://www.w3.org/2000/svg" width="399.571" height="264.829" viewBox="0 0 399.571 264.829">
  <g id="testmonials-illustration" transform="translate(0 0)">
    <path id="Path_3981" data-name="Path 3981" d="M781.952,604.485l-83.489.276c-22.15-6.655-40.3-29.771-40.411-64.429a98.149,98.149,0,0,1,1.179-15.594l67.247-15.108,51.877-11.654a103.177,103.177,0,0,1,10.656,11.08L739.4,535.249,716,547.607l26.3-9.072,54.579-18.829a132.343,132.343,0,0,1,9.076,16.271L789.486,553l18.629-12.2q.119.28.238.561C820.159,569.39,805.509,604.407,781.952,604.485Z" transform="translate(-437.121 -348.087)" fill="#f2f2f2"/>
    <path id="Path_3982" data-name="Path 3982" d="M770.932,454.242c-12.626,3.626-28.148,8.208-44.108,12.969-23.075,6.887-47.063,14.155-64.527,19.468l.011-.062a24,24,0,0,1,4.429-10.281c12.937-16.82,29.41-28.57,47.743-32.934h0a68.805,68.805,0,0,1,15.736-1.877C744.8,441.477,758.621,446.051,770.932,454.242Z" transform="translate(-439.82 -312.197)" fill="#f2f2f2"/>
    <path id="Path_3983" data-name="Path 3983" d="M180.058,595.324l-14.435,43.232-3.544,10.621a35.733,35.733,0,0,1-6.05,6.979h-.339a397.666,397.666,0,0,1-46.87-2.455l1.694-12.985,3.635-27.85L118.8,577.2a66.127,66.127,0,0,1,8.607-4.739l4.1,36.992,1.934,17.451L134,608.218l1.162-38.784a77.6,77.6,0,0,1,11.211-2.725l6.086,13.878-2.877-14.344c.124-.015.248-.033.372-.047C168.428,563.97,185.128,580.128,180.058,595.324Z" transform="translate(-87.942 -391.327)" fill="#f2f2f2"/>
    <path id="Path_3984" data-name="Path 3984" d="M85.154,610.546c-.685,8.833-1.453,19.713-2.218,30.913-.641,9.416-1.275,19.053-1.847,27.883-.284,4.4-.554,8.607-.8,12.483-2.069-.273-4-.568-5.784-.874a66.416,66.416,0,0,1-4.491-9.74,56.936,56.936,0,0,1-3.278-26.367v0a52.563,52.563,0,0,1,2.353-10.5,54.067,54.067,0,0,1,16.063-23.8Z" transform="translate(-60.951 -419.654)" fill="#f2f2f2"/>
    <path id="Path_3985" data-name="Path 3985" d="M187,773.8c0,4.873-30.152,8.822-67.41,8.847h-.339a397.653,397.653,0,0,1-46.87-2.455c-.521-.069-1.034-.135-1.537-.2-2.069-.273-4-.568-5.784-.874C56.545,777.635,51.5,775.8,51.5,773.8c0-1.614,3.3-3.122,9.066-4.425,3.045-.688,6.775-1.315,11.073-1.869q1.186-.158,2.433-.3a405.992,405.992,0,0,1,45.177-2.255c3.373,0,6.691.033,9.933.095C161.887,765.677,187,769.356,187,773.8Z" transform="translate(-51.5 -517.822)" fill="#3f3d56"/>
    <path id="Path_3986" data-name="Path 3986" d="M201.429,569.327l1.7,13.278s.681,4.426,1.362,6.809c0,0-.681,12.6,4.766,21.448l3.4,6.469.681,9.533,8.511,1.021-1.7-14.3s-.681-6.809,0-9.533-3.4-15.32-3.4-15.32,5.447-17.7,1.362-22.129S201.429,569.327,201.429,569.327Z" transform="translate(-146.819 -390.798)" fill="#a0616a"/>
    <path id="Path_3987" data-name="Path 3987" d="M222.491,726.07s-3.745,0-4.085,1.021-5.788,10.214-5.788,10.214-4.766,7.49,2.043,7.83,8.852-2.724,8.852-2.724,6.128-9.873,6.469-11.575-2.558-5.35-2.558-5.35S223.512,728.113,222.491,726.07Z" transform="translate(-152.901 -492.728)" fill="#2f2e41"/>
    <circle id="Ellipse_1134" data-name="Ellipse 1134" cx="11.575" cy="11.575" r="11.575" transform="translate(62.781 43.369)" fill="#a0616a"/>
    <path id="Path_3988" data-name="Path 3988" d="M220.369,247.124s0,12.6-4.426,13.618,6.128,12.6,11.916,11.235,8.171-10.554,8.171-10.554-5.107-6.469-3.064-9.873S220.369,247.124,220.369,247.124Z" transform="translate(-155.375 -188.605)" fill="#a0616a"/>
    <path id="Path_3989" data-name="Path 3989" d="M192.98,286.247a10.193,10.193,0,0,1-8.168-4.543,52.776,52.776,0,0,0-5.45,1.138c-.681.34-12.6,4.085-15.32,11.916l10.894,13.959s-2.383,19.746,0,28.6a25.086,25.086,0,0,1-1.021,16s-1.021.34.681,1.021,40.854-7.15,41.535-9.192-.681-2.043.34-3.064,3.745-7.15,1.021-9.192-4.426-24.513-4.426-24.513l7.15-18.044s-13.067-10.443-17.768-9.137C202.447,281.2,201.491,286.247,192.98,286.247Z" transform="translate(-123.049 -210.195)" fill="#d0cde1"/>
    <path id="Path_3990" data-name="Path 3990" d="M255.344,556.061s-.681,14.98.681,20.768A41.668,41.668,0,0,1,257.387,585a70.424,70.424,0,0,0-1.021,19.065c1.021,9.192-1.192,24.009-1.192,24.009l8.341,2.546,5.107-25.874s4.085-16,1.7-23.491c0,0,1.362-22.81,2.383-25.193S255.344,556.061,255.344,556.061Z" transform="translate(-180.988 -384.342)" fill="#a0616a"/>
    <path id="Path_3991" data-name="Path 3991" d="M220.192,209.839a3.871,3.871,0,0,1,1.4-2.858c.961-.61,2.2-.36,3.337-.277s2.527-.2,2.9-1.276c.233-.671-.019-1.472.344-2.082.578-.971,2.341-.86,2.646-1.948a8.589,8.589,0,0,1,.142-1.059,1.567,1.567,0,0,1,1.185-.731,18.949,18.949,0,0,1,5.248-.462.7.7,0,0,0,.5-.1.609.609,0,0,0,.161-.28,3.822,3.822,0,0,0-.817-3.52,8.6,8.6,0,0,0-3.043-2.174,22.282,22.282,0,0,0-8.211-2.182,10.662,10.662,0,0,0-6.3,1.246,8.919,8.919,0,0,0-1.517,1.209,13.319,13.319,0,0,0-3.743,7.447,16.775,16.775,0,0,0,.914,8.338,8.693,8.693,0,0,0,2.949,4.237c.769.528,1.432,1.016,1.751.119C220.377,212.537,220.043,210.893,220.192,209.839Z" transform="translate(-154.971 -152.833)" fill="#2f2e41"/>
    <path id="Path_3992" data-name="Path 3992" d="M188.454,460.857s-5.107,6.809-4.085,11.576,4.766,12.6,4.766,12.6-2.043,15.32,1.362,15.32,18.044-.681,18.384-2.383-1.021-18.725-1.021-18.725,1.7,14.98,2.724,14.98,18.725,1.7,19.406.681,2.043-27.236,2.043-27.236,1.857-12.363-4.008-14.012S188.454,460.857,188.454,460.857Z" transform="translate(-135.886 -319.779)" fill="#2f2e41"/>
    <path id="Path_3993" data-name="Path 3993" d="M250.679,752.1s-6.128-3.4-6.469-.681-4.085,12.6-4.085,12.6-3.745,7.83,4.426,8.171,10.214-3.4,10.214-5.107-.916-13.381-.916-13.381Z" transform="translate(-170.876 -508.543)" fill="#2f2e41"/>
    <path id="Path_3994" data-name="Path 3994" d="M309.761,356.951l1.7,14.98s2.043,8.171.681,11.575-6.469,19.065-6.469,19.065-1.362-8.511-4.766-9.533l2.043-19.406s-4.874-12.11-3.8-13.715S309.761,356.951,309.761,356.951Z" transform="translate(-208.849 -258.429)" fill="#a0616a"/>
    <path id="Path_3995" data-name="Path 3995" d="M162.171,359.755l.681,13.618a49.271,49.271,0,0,0,2.383,24.513l.681,5.447,4.426,8.511s1.021-8.171,3.064-8.171c0,0-2.043-5.447-1.362-8.511s-.34-19.406-.34-19.406l1.7-13.22Z" transform="translate(-121.86 -260.211)" fill="#a0616a"/>
    <path id="Path_3996" data-name="Path 3996" d="M298.451,305.542H302.2s8.852,20.427,5.447,20.768-14.3,3.064-14.639,1.7S298.451,305.542,298.451,305.542Z" transform="translate(-205.029 -225.745)" fill="#d0cde1"/>
    <path id="Path_3997" data-name="Path 3997" d="M163.333,310.216l-3.064,3.064s-4.085,15.32-1.021,17.023,14.639,3.745,15.32,2.383S163.333,310.216,163.333,310.216Z" transform="translate(-119.277 -228.716)" fill="#d0cde1"/>
    <path id="Path_3998" data-name="Path 3998" d="M638.241,97.074v236.1a10.614,10.614,0,0,1-10.61,10.6h-95.85a10.592,10.592,0,0,1-10.61-10.6V97.074a10.61,10.61,0,0,1,10.611-10.61h14.343V88.3a8.737,8.737,0,0,0,8.736,8.738h48.749a8.665,8.665,0,0,0,5.18-1.7,8.122,8.122,0,0,0,.86-.721,8.712,8.712,0,0,0,2.7-6.312V86.464h15.287a10.607,10.607,0,0,1,10.61,10.61Z" transform="translate(-350.098 -86.464)" fill="#3f3d56"/>
    <ellipse id="Ellipse_1135" data-name="Ellipse 1135" cx="27.318" cy="5.464" rx="27.318" ry="5.464" transform="translate(215.63 89.473)" opacity="0.1"/>
    <ellipse id="Ellipse_1136" data-name="Ellipse 1136" cx="27.318" cy="5.464" rx="27.318" ry="5.464" transform="translate(175.928 117.519)" opacity="0.1"/>
    <ellipse id="Ellipse_1137" data-name="Ellipse 1137" cx="27.318" cy="5.464" rx="27.318" ry="5.464" transform="translate(198.511 168.877)" opacity="0.1"/>
    <ellipse id="Ellipse_1138" data-name="Ellipse 1138" cx="27.318" cy="5.464" rx="27.318" ry="5.464" transform="translate(190.862 224.606)" opacity="0.1"/>
    <path id="Path_3999" data-name="Path 3999" d="M714.547,403.5H631.5v27.425l6.953-6.953h76.094Z" transform="translate(-401.482 -256.527)" fill="#00a8cc"/>
    <path id="Path_4000" data-name="Path 4000" d="M316,260h83.047v27.425l-6.953-6.953H316Z" transform="translate(-200.9 -165.295)" fill="#00a8cc"/>
    <rect id="Rectangle_1295" data-name="Rectangle 1295" width="46.72" height="3.788" transform="translate(248.545 151.94)" fill="#fff"/>
    <rect id="Rectangle_1296" data-name="Rectangle 1296" width="46.72" height="3.788" transform="translate(248.545 157.622)" fill="#fff"/>
    <rect id="Rectangle_1297" data-name="Rectangle 1297" width="46.72" height="3.788" transform="translate(129.257 100.036)" fill="#fff"/>
    <rect id="Rectangle_1298" data-name="Rectangle 1298" width="46.72" height="3.788" transform="translate(129.257 105.718)" fill="#fff"/>
    <path id="Path_4001" data-name="Path 4001" d="M823.623,118.642H667v51.722l13.113-13.113H823.623Z" transform="translate(-424.052 -75.428)" fill="#00a8cc"/>
    <rect id="Rectangle_1299" data-name="Rectangle 1299" width="107.815" height="8.742" transform="translate(267.352 51.956)" fill="#fff"/>
    <rect id="Rectangle_1300" data-name="Rectangle 1300" width="107.815" height="8.742" transform="translate(267.352 65.069)" fill="#fff"/>
    <path id="Path_4002" data-name="Path 4002" d="M618.995,659.827c3.987,7.393,12.448,10.567,12.448,10.567s2-8.813-1.989-16.207-12.448-10.567-12.448-10.567S615.008,652.433,618.995,659.827Z" transform="translate(-410.708 -440.681)" fill="#fff"/>
    <path id="Path_4003" data-name="Path 4003" d="M602.77,676.146c7.2,4.33,9.97,12.931,9.97,12.931s-8.9,1.58-16.1-2.75-9.97-12.931-9.97-12.931S595.572,671.815,602.77,676.146Z" transform="translate(-391.743 -459.433)" fill="#00a8cc"/>
  </g>
</svg>
