<svg xmlns="http://www.w3.org/2000/svg" width="548.295" height="458.462" viewBox="0 0 548.295 458.462">
  <g id="thanks-for-contacting-us" transform="translate(0)">
    <path id="Path_3954" data-name="Path 3954" d="M507.347,144.224C479.387,108.7,433.069,86.14,386.223,65.266,251.149,5.078,148.978,15.919,197.9,144.224Z" transform="translate(-137.548 -29.967)" fill="#3f3d56"/>
    <path id="Path_3955" data-name="Path 3955" d="M379.809,558.985c22.507,36.146,48.982,62.419,94.7,62.419,48.03,0,90.7-24.492,117.693-62.419Z" transform="translate(-225.829 -270.276)" fill="#3f3d56"/>
    <path id="Path_3956" data-name="Path 3956" d="M158.916,337.092c5.112-6.183,10.883-12,17.927-15.836s15.529-5.544,23.22-3.261c5.741,1.7,10.634,5.455,15.163,9.374C224.5,335.4,233.06,344.589,244,350.137s25.365,6.583,34.661-1.426c7.357-6.339,10.494-17.318,19.28-21.455,8.661-4.078,18.7.3,27.491,4.1a229.886,229.886,0,0,0,36.919,12.35c8.546,2.073,17.35,3.663,26.1,2.829S406,342.193,411.71,335.5" transform="translate(-125.488 -160.337)" opacity="0.1"/>
    <path id="Path_3957" data-name="Path 3957" d="M388.641,402.588c5.112-6.183,10.883-12,17.927-15.836s15.529-5.544,23.22-3.261c5.741,1.7,10.634,5.455,15.163,9.374,9.279,8.029,17.835,17.221,28.779,22.769s25.365,6.583,34.661-1.426c7.357-6.339,10.494-17.318,19.28-21.455,8.661-4.078,18.7.3,27.491,4.1A229.884,229.884,0,0,0,592.08,409.2c8.546,2.073,17.35,3.663,26.1,2.829s17.541-4.339,23.251-11.027" transform="translate(-229.841 -190.089)" opacity="0.1"/>
    <path id="Path_3958" data-name="Path 3958" d="M165.759,329.272c5.112-6.183,10.883-12,17.927-15.836s15.529-5.544,23.22-3.261c5.741,1.7,10.634,5.455,15.163,9.374,9.279,8.029,17.835,17.221,28.779,22.769s25.365,6.583,34.661-1.426c7.357-6.339,10.494-17.318,19.28-21.455,8.661-4.078,18.7.3,27.491,4.1a229.884,229.884,0,0,0,36.919,12.35c8.546,2.073,17.35,3.663,26.1,2.829s17.541-4.339,23.251-11.027" transform="translate(-128.596 -156.785)" fill="#3f3d56"/>
    <path id="Path_3959" data-name="Path 3959" d="M397.439,391.835c5.111-6.183,10.883-12,17.927-15.836s15.529-5.544,23.22-3.261c5.741,1.7,10.634,5.455,15.163,9.374,9.279,8.029,17.835,17.221,28.779,22.769s25.365,6.583,34.661-1.426c7.357-6.339,10.494-17.318,19.28-21.455,8.661-4.078,18.7.3,27.491,4.1a229.893,229.893,0,0,0,36.919,12.35c8.546,2.073,17.35,3.663,26.1,2.829s17.541-4.339,23.251-11.027" transform="translate(-233.838 -185.204)" fill="#3f3d56"/>
    <circle id="Ellipse_1121" data-name="Ellipse 1121" cx="11.737" cy="11.737" r="11.737" transform="translate(21.406 126.527)" opacity="0.1"/>
    <circle id="Ellipse_1122" data-name="Ellipse 1122" cx="11.737" cy="11.737" r="11.737" transform="translate(25.674 121.192)" fill="#00a8cc"/>
    <path id="Path_3960" data-name="Path 3960" d="M824.425,308.694H846.46a77.068,77.068,0,0,0,0-26.273H824.425a47.276,47.276,0,0,1,0,26.273Z" transform="translate(-427.798 -144.645)" opacity="0.1"/>
    <path id="Path_3961" data-name="Path 3961" d="M830.29,300.874h22.035a77.07,77.07,0,0,0,0-26.273H830.29A47.275,47.275,0,0,1,830.29,300.874Z" transform="translate(-430.462 -141.093)" fill="#00a8cc"/>
    <path id="Path_3962" data-name="Path 3962" d="M153.247,559.06c18.331,55.167,11.893,106.966,11.893,106.966s-36.158-37.645-54.488-92.812S98.759,466.248,98.759,466.248,134.917,503.893,153.247,559.06Z" transform="translate(-97.663 -228.149)" fill="#00a8cc"/>
    <path id="Path_3963" data-name="Path 3963" d="M232.287,559.06c-18.331,55.167-11.893,106.966-11.893,106.966s36.158-37.645,54.488-92.812,11.893-106.966,11.893-106.966S250.617,503.893,232.287,559.06Z" transform="translate(-152.916 -228.149)" fill="#00a8cc"/>
    <path id="Path_3964" data-name="Path 3964" d="M219.232,550.208c1.229,58.12-20.213,105.71-20.213,105.71s-23.434-46.641-24.662-104.761,20.213-105.709,20.213-105.709S218,492.088,219.232,550.208Z" transform="translate(-132.479 -218.701)" fill="#3f3d56"/>
    <ellipse id="Ellipse_1123" data-name="Ellipse 1123" cx="51.839" cy="2.845" rx="51.839" ry="2.845" transform="translate(14.689 435.028)" fill="#3f3d56"/>
    <circle id="Ellipse_1124" data-name="Ellipse 1124" cx="5.69" cy="5.69" r="5.69" transform="translate(58.626 274.453)" fill="#00a8cc"/>
    <circle id="Ellipse_1125" data-name="Ellipse 1125" cx="3.161" cy="3.161" r="3.161" transform="translate(50.091 322.499)" fill="#00a8cc"/>
    <circle id="Ellipse_1126" data-name="Ellipse 1126" cx="3.161" cy="3.161" r="3.161" transform="translate(11.528 291.206)" fill="#3f3d56"/>
    <circle id="Ellipse_1127" data-name="Ellipse 1127" cx="3.161" cy="3.161" r="3.161" transform="translate(123.109 260.545)" fill="#3f3d56"/>
    <circle id="Ellipse_1128" data-name="Ellipse 1128" cx="3.161" cy="3.161" r="3.161" transform="translate(27.965 320.919)" fill="#3f3d56"/>
    <circle id="Ellipse_1129" data-name="Ellipse 1129" cx="3.161" cy="3.161" r="3.161" transform="translate(94.344 302.585)" fill="#3f3d56"/>
    <circle id="Ellipse_1130" data-name="Ellipse 1130" cx="3.161" cy="3.161" r="3.161" transform="translate(29.861 367.384)" fill="#3f3d56"/>
    <circle id="Ellipse_1131" data-name="Ellipse 1131" cx="3.161" cy="3.161" r="3.161" transform="translate(97.505 349.367)" fill="#3f3d56"/>
    <circle id="Ellipse_1132" data-name="Ellipse 1132" cx="3.161" cy="3.161" r="3.161" transform="translate(66.844 352.528)" fill="#00a8cc"/>
    <path id="Path_3965" data-name="Path 3965" d="M745.172,335.873H723.136a77.075,77.075,0,0,1,0-26.273h22.035a47.274,47.274,0,0,0,0,26.273Z" transform="translate(-381.275 -156.991)" opacity="0.1"/>
    <path id="Path_3966" data-name="Path 3966" d="M751.037,330.008H729a77.074,77.074,0,0,1,0-26.273h22.035a47.275,47.275,0,0,0,0,26.273Z" transform="translate(-383.939 -154.327)" fill="#ff6584"/>
    <path id="Path_3967" data-name="Path 3967" d="M943.454,760.482l4.619,14.7-14.277,1.26,1.26-15.956Z" transform="translate(-424.18 -345.452)" fill="#ffb9b9"/>
    <path id="Path_3968" data-name="Path 3968" d="M810.906,781.256v20.156H794.53l4.618-20.156Z" transform="translate(-360.918 -354.888)" fill="#ffb9b9"/>
    <path id="Path_3969" data-name="Path 3969" d="M964.679,541.3l6.719,63.827s8.4,56.268,6.719,65.086.42,10.078.42,10.078h-12.6s.42-5.459-2.1-7.978-1.26-10.078-1.26-10.078l-31.912-97.419L912.61,619.4s-2.939,60.047-3.359,60.887-1.68,12.177-1.68,12.177H892.034s2.1-6.719-.84-8.818-5.459-.42-2.939-4.2,3.359-8.4,2.52-10.5-.84-10.5-.84-10.5,1.26-113.376,8.4-117.155S964.679,541.3,964.679,541.3Z" transform="translate(-456.323 -261.477)" fill="#2f2e41"/>
    <path id="Path_3970" data-name="Path 3970" d="M887.389,826.49s7.18-1.077,7.18-.718,8.616,23.694,0,23.335-41.286-5.026-39.132-13.642,12.924-6.1,12.924-6.1l9.693-5.385Z" transform="translate(-441.839 -390.649)" fill="#2f2e41"/>
    <path id="Path_3971" data-name="Path 3971" d="M1034.436,812.866s-7.18-1.077-7.18-.718-8.616,23.694,0,23.335,41.286-5.026,39.132-13.642-12.924-6.1-12.924-6.1l-9.69-5.385Z" transform="translate(-518.195 -384.46)" fill="#2f2e41"/>
    <path id="Path_3972" data-name="Path 3972" d="M962.236,620.821H936a91.766,91.766,0,0,1,0-31.282h26.237a56.289,56.289,0,0,0,0,31.282Z" transform="translate(-477.871 -284.155)" fill="#00a8cc"/>
    <circle id="Ellipse_1133" data-name="Ellipse 1133" cx="16.525" cy="16.525" r="16.525" transform="translate(457.284 126.814)" fill="#ffb9b9"/>
    <path id="Path_3973" data-name="Path 3973" d="M971.386,288.783s2.939,29.394,6.719,31.493-28.974,4.2-28.974,4.2,7.978-26.874,5.459-29.394S971.386,288.783,971.386,288.783Z" transform="translate(-484.446 -147.535)" fill="#ffb9b9"/>
    <path id="Path_3974" data-name="Path 3974" d="M914.094,337.046s11.757-11.338,25.195-9.238,23.1,4.619,23.1,4.619,20.576,10.918,21,19.736-7.558,41.991-7.558,41.991-3.779,54.169-4.2,54.169-70.965-.84-70.965-.84l13.017-70.545Z" transform="translate(-462.426 -165.145)" fill="#3f3d56"/>
    <path id="Path_3975" data-name="Path 3975" d="M928.3,480.6c2.721.735,7.411-.281,12.308-1.885a152.734,152.734,0,0,0,18.119-7.617s30.234-12.177,39.052-18.476,2.939-31.493,2.939-31.493l-13.437,4.2.84,15.537-33.173,21.415a74.837,74.837,0,0,0-15.356,3.086c-5.585,1.835-11.01,4.695-12.971,9.087a8.5,8.5,0,0,0-.647,2.1C925.574,478.871,926.514,480.109,928.3,480.6Z" transform="translate(-473.885 -207.652)" fill="#ffb9b9"/>
    <path id="Path_3976" data-name="Path 3976" d="M927.233,511.27c.584,2.175,1.151,4.245,1.68,6.147,2.721.735,7.411-.281,12.308-1.885L940.2,502.184C934.619,504.019,929.194,506.878,927.233,511.27Z" transform="translate(-474.499 -244.473)" opacity="0.15"/>
    <path id="Path_3977" data-name="Path 3977" d="M925.069,406.5l2.52,22.255,4.178,54.913s23.116,27.81,10.1,28.65-20.156-27.294-20.156-27.294-13.017-44.511-12.6-53.749,0-24.775,0-24.775Z" transform="translate(-466.263 -201.011)" fill="#ffb9b9"/>
    <path id="Path_3978" data-name="Path 3978" d="M930.11,272.263a4.311,4.311,0,0,1-1.188-.716c-.9-.875-.75-2.359-.358-3.554s.964-2.43.684-3.655c-.131-.571-.442-1.093-.531-1.672-.211-1.377.887-2.632,2.1-3.311s2.614-1.015,3.763-1.8c1.762-1.208,2.735-3.338,4.524-4.5,1.75-1.142,3.972-1.177,6.061-1.175l6.237.007c3.259,0,6.841.124,9.267,2.3.738.662,1.322,1.482,2.069,2.134,1.5,1.312,3.536,1.836,5.207,2.929a9.03,9.03,0,0,1,4.01,7.6c-.059,2.767-1.408,5.456-1.057,8.2.235,1.842,1.229,3.612.968,5.45-.31,2.18-2.31,3.742-4.361,4.544s-4.287,1.09-6.282,2.021c-1.629.76-3.33,1.972-5.047,1.44-1.452-.45-2.25-1.984-2.77-3.413a27.849,27.849,0,0,1-1.335-5.153,8.72,8.72,0,0,0-1.119-3.79,4.364,4.364,0,0,0-3.9-1.683c-3.368.3-5.263,6.031-8.36,4.675-1.536-.673-2.716-2.686-3.945-3.783A19.814,19.814,0,0,0,930.11,272.263Z" transform="translate(-474.963 -130.769)" fill="#2f2e41"/>
    <path id="Path_3979" data-name="Path 3979" d="M1039.854,365.726s8.4,2.939,11.758,14.7,2.1,19.736,2.1,19.736l-17.636,2.939Z" transform="translate(-523.941 -182.487)" fill="#3f3d56"/>
    <path id="Path_3980" data-name="Path 3980" d="M924.589,343.126s-15.117-3.359-17.216,10.918a228.513,228.513,0,0,0-2.1,28.974s14.277-6.719,20.576,0Z" transform="translate(-464.523 -172.064)" fill="#3f3d56"/>
  </g>
</svg>
