<svg xmlns="http://www.w3.org/2000/svg" width="31.536" height="25.623" viewBox="0 0 31.536 25.623">
  <path id="twitter-white" d="M31.536,51.033a13.479,13.479,0,0,1-3.725,1.021,6.429,6.429,0,0,0,2.844-3.573,12.92,12.92,0,0,1-4.1,1.565,6.465,6.465,0,0,0-11.183,4.421,6.657,6.657,0,0,0,.15,1.474A18.3,18.3,0,0,1,2.2,49.179a6.467,6.467,0,0,0,1.987,8.641,6.385,6.385,0,0,1-2.921-.8v.071a6.5,6.5,0,0,0,5.18,6.352,6.453,6.453,0,0,1-1.7.213,5.716,5.716,0,0,1-1.224-.11,6.527,6.527,0,0,0,6.041,4.5A12.99,12.99,0,0,1,1.547,70.81,12.11,12.11,0,0,1,0,70.721a18.2,18.2,0,0,0,9.918,2.9c11.9,0,18.4-9.855,18.4-18.4,0-.286-.01-.562-.024-.836A12.9,12.9,0,0,0,31.536,51.033Z" transform="translate(0 -48)" fill="#dff9fa"/>
</svg>
