<svg xmlns="http://www.w3.org/2000/svg" width="285.6" height="226.718" viewBox="0 0 285.6 226.718">
  <g id="volunteer-with-truescho" transform="translate(0 0)" opacity="0.5">
    <circle id="Ellipse_1081" data-name="Ellipse 1081" cx="18.748" cy="18.748" r="18.748" transform="translate(133.86 10.533)" fill="#ff6584"/>
    <path id="Path_3668" data-name="Path 3668" d="M208.675,272.4c0,36.209-21.526,48.852-48.08,48.852s-48.08-12.643-48.08-48.852,48.08-82.274,48.08-82.274S208.675,236.2,208.675,272.4Z" transform="translate(-112.516 -152.896)" fill="#f2f2f2"/>
    <path id="Path_3669" data-name="Path 3669" d="M111.509,252.7l.492-30.3,20.493-37.49-20.415,32.736.221-13.626,14.124-27.124-14.065,23.518h0l.4-24.507,15.124-21.594-15.061,17.741.249-44.937L111.5,186.6l.128-2.454L96.257,160.608l15.13,28.247-1.433,27.37-.043-.726L92.185,190.73l17.673,27.335-.179,3.423-.032.052.015.281-3.635,69.44h4.857l.583-35.867,17.629-27.268Z" transform="translate(-65.181 -89.875)" fill="#3f3d56"/>
    <path id="Path_3670" data-name="Path 3670" d="M643.608,163.533c0,44.236-26.3,59.682-58.738,59.682s-58.737-15.446-58.737-59.682S584.87,63.021,584.87,63.021,643.608,119.3,643.608,163.533Z" transform="translate(-404.971 -63.021)" fill="#f2f2f2"/>
    <path id="Path_3671" data-name="Path 3671" d="M549.844,153.427l.6-37.022,25.036-45.8L550.539,110.6l.271-16.646,17.254-33.137L550.882,89.546h0l.486-29.939,18.476-26.381L551.444,54.9l.3-54.9-1.91,72.675.157-3L531.211,40.924l18.484,34.509-1.751,33.437-.052-.887L526.236,77.724l21.59,33.394-.219,4.182-.039.063.018.343-4.441,84.833h5.933l.712-43.818,21.537-33.312Z" transform="translate(-372.085 0)" fill="#3f3d56"/>
    <ellipse id="Ellipse_1082" data-name="Ellipse 1082" cx="90.223" cy="3.222" rx="90.223" ry="3.222" transform="translate(26.94 197.424)" fill="#3f3d56"/>
    <ellipse id="Ellipse_1083" data-name="Ellipse 1083" cx="41.596" cy="3.955" rx="41.596" ry="3.955" transform="translate(202.407 218.809)" fill="#3f3d56"/>
    <rect id="Rectangle_1206" data-name="Rectangle 1206" width="10.546" height="99.011" transform="translate(111.89 101.635)" fill="#2f2e41"/>
    <path id="Path_3672" data-name="Path 3672" d="M408.705,380.12H343.967V361.958h64.738l18.748,9.081Z" transform="translate(-243.208 -255.929)" fill="#3f3d56"/>
    <path id="Path_3673" data-name="Path 3673" d="M408.705,398.807H343.967v1.465h64.738l18.748-9.081-1.512-.732Z" transform="translate(-243.208 -276.08)" opacity="0.1"/>
    <path id="Path_3674" data-name="Path 3674" d="M190.715,462.12h64.738V443.958H190.715l-18.748,9.081Z" transform="translate(-121.593 -313.908)" fill="#3f3d56"/>
    <path id="Path_3675" data-name="Path 3675" d="M173.479,472.458l-1.512.732,18.748,9.081h64.738v-1.465H190.715Z" transform="translate(-121.593 -334.06)" opacity="0.1"/>
    <rect id="Rectangle_1207" data-name="Rectangle 1207" width="11.131" height="11.131" transform="translate(137.083 109.545)" fill="#00a8cc"/>
    <circle id="Ellipse_1084" data-name="Ellipse 1084" cx="5.566" cy="5.566" r="5.566" transform="translate(86.698 133.565)" fill="#00a8cc"/>
    <circle id="Ellipse_1085" data-name="Ellipse 1085" cx="3.222" cy="3.222" r="3.222" transform="translate(113.941 111.302)" fill="#2f2e41"/>
    <circle id="Ellipse_1086" data-name="Ellipse 1086" cx="3.222" cy="3.222" r="3.222" transform="translate(113.941 135.323)" fill="#2f2e41"/>
    <path id="Path_3676" data-name="Path 3676" d="M396.294,674.218c0,6.582-3.913,8.88-8.739,8.88q-.168,0-.335,0c-.224,0-.445-.015-.664-.03-4.356-.308-7.74-2.725-7.74-8.846,0-6.335,8.1-14.328,8.7-14.92h0l.035-.034S396.294,667.636,396.294,674.218Z" transform="translate(-300.808 -484.604)" fill="#00a8cc"/>
    <path id="Path_3677" data-name="Path 3677" d="M399.084,682.091l3.2-4.466-3.2,4.957-.009.513c-.224,0-.445-.015-.664-.03l.345-6.585,0-.051.006-.01.033-.622-3.213-4.969,3.223,4.5.007.132.26-4.975-2.75-5.135,2.784,4.261.271-10.315v0l-.045,8.134,2.738-3.225-2.749,3.925-.072,4.455,2.556-4.275-2.567,4.931-.04,2.476,3.711-5.95-3.725,6.815Z" transform="translate(-312.655 -484.604)" fill="#3f3d56"/>
    <path id="Path_3678" data-name="Path 3678" d="M872.168,798.893s-4.148,3.493-6.331,3.275-6.331-.218-4.584,2.183,8.95,3.711,12.006,3.929,9.823.437,9.387-.873-.873-7.422-2.62-7.859A69.527,69.527,0,0,0,872.168,798.893Z" transform="translate(-641.628 -583.332)" fill="#575a89"/>
    <path id="Path_3679" data-name="Path 3679" d="M957.25,783.61s-3.056,4.479-5.218,4.855-6.156,1.491-3.829,3.335,9.618,1.169,12.621.558,9.579-2.219,8.807-3.364-2.836-6.914-4.635-6.866A69.479,69.479,0,0,0,957.25,783.61Z" transform="translate(-702.904 -571.478)" fill="#575a89"/>
    <path id="Path_3680" data-name="Path 3680" d="M885.789,558.6s-2.81,19.241-2.155,22.734,1.091,8.95,1.091,8.95a33.009,33.009,0,0,0,0,6.767c.437,2.183,3.056,22.921,3.056,23.358a6.051,6.051,0,0,0,0,2.838c.437,1.092,1.31.218,0,1.965s-.437,2.183-.218,2.183,8.732.873,9.169,0-.218-1.092,0-2.183.437-1.31.873-1.528,1.31.218.655-.873-2.183-2.4-1.746-3.056-.218-5.457-.218-5.457-.437-10.7-.655-17.246a45.171,45.171,0,0,1,1.965-13.316,24.976,24.976,0,0,0,5.676,14.626c5.676,6.767,8.514,19.428,8.514,19.428s1.31,1.965.655,3.711-2.62.655-.655,1.746,8.732-.437,9.387-1.091-.873-1.528-.437-3.275,2.183-1.31.655-2.183-1.965-.655-1.965-1.528-3.929-19.865-10.042-25.323l-.437-19.865s5.457-13.971-.218-15.281S885.789,558.6,885.789,558.6Z" transform="translate(-657.679 -410.52)" fill="#2f2e41"/>
    <path id="Path_3681" data-name="Path 3681" d="M904.74,381.633s3.711,9.169,2.838,10.478,10.7-4.366,10.7-4.366-3.711-9.169-3.711-10.26S904.74,381.633,904.74,381.633Z" transform="translate(-672.672 -285.263)" fill="#a0616a"/>
    <circle id="Ellipse_1087" data-name="Ellipse 1087" cx="8.077" cy="8.077" r="8.077" transform="translate(226.72 82.509)" fill="#a0616a"/>
    <path id="Path_3682" data-name="Path 3682" d="M907.587,399.995s-5.676-.655-8.514,2.838A35.219,35.219,0,0,0,895.8,407.2s-6.767,10.915-5.457,16.372a15.828,15.828,0,0,1,.873,1.528c.437.873.437,13.1,0,15.063s-.873,2.62-.437,5.457-3.493,7.422,1.091,8.3,8.077.218,9.605-1.746.218-3.274,5.021-3.274a11.552,11.552,0,0,0,7.859-3.274s-2.4-2.62-1.528-3.056,0-1.528-.437-2.62-.437-1.965.218-1.965.218-.437-.218-1.528,7.64-19.865,2.838-25.323-7.2-8.514-7.2-8.514S908.9,399.34,907.587,399.995Z" transform="translate(-661.984 -301.223)" fill="#00a8cc"/>
    <path id="Path_3683" data-name="Path 3683" d="M886.687,471V480.6l-6.985,23.14s-4.584,12.006,0,12.006,4.339-11.46,4.339-11.46l9.851-17.356s3.929-13.753,3.493-14.844S886.687,471,886.687,471Z" transform="translate(-653.527 -351.489)" fill="#a0616a"/>
    <path id="Path_3684" data-name="Path 3684" d="M908.828,422.554s-6.549,2.62-4.8,9.605,0,6.767,0,6.767,8.95-.873,11.788,1.092l.655-2.62S919.088,422.336,908.828,422.554Z" transform="translate(-671.957 -317.233)" fill="#00a8cc"/>
    <path id="Path_3685" data-name="Path 3685" d="M895.14,336.3a3.223,3.223,0,0,1-3.027-.471,2.439,2.439,0,0,1-.688-2.879,3.851,3.851,0,0,1,2.169-1.606,20.161,20.161,0,0,1,5.909-1.334,5.376,5.376,0,0,1,2.842.383c.426.218.8.533,1.219.759a14.5,14.5,0,0,0,2.519.776,6.306,6.306,0,0,1,3.854,3.542,7.6,7.6,0,0,1,.475,1.758,9.794,9.794,0,0,1-.509,4.9c-.931,2.478-2.882,4.644-2.992,7.288-1.195-.867-1.638-2.431-2.595-3.554a4.835,4.835,0,0,0-2.759-1.6,1.537,1.537,0,0,1-.822-.3,1.324,1.324,0,0,1-.3-.7l-.817-3.859a3.367,3.367,0,0,0-1.022-2.119,3.092,3.092,0,0,0-1.332-.469,20.892,20.892,0,0,0-3.413-.311" transform="translate(-663.102 -251.778)" fill="#2f2e41"/>
  </g>
</svg>
