<svg id="World_Wide_Opportunity" data-name="World Wide Opportunity" xmlns="http://www.w3.org/2000/svg" xmlns:xlink="http://www.w3.org/1999/xlink" width="474.764" height="360.115" viewBox="0 0 474.764 360.115">
  <defs>
    <linearGradient id="linear-gradient" x1="0.5" y1="1" x2="0.5" gradientUnits="objectBoundingBox">
      <stop offset="0" stop-color="gray" stop-opacity="0.251"/>
      <stop offset="0.54" stop-color="gray" stop-opacity="0.122"/>
      <stop offset="1" stop-color="gray" stop-opacity="0.102"/>
    </linearGradient>
    <linearGradient id="linear-gradient-2" x1="0" y1="0.5" x2="1" y2="0.5" xlink:href="#linear-gradient"/>
    <linearGradient id="linear-gradient-3" x1="0" y1="0.5" x2="1" y2="0.5" xlink:href="#linear-gradient"/>
    <linearGradient id="linear-gradient-4" x1="0" y1="0.506" x2="1" y2="0.506" xlink:href="#linear-gradient"/>
  </defs>
  <ellipse id="Ellipse_6" data-name="Ellipse 6" cx="180.669" cy="13.063" rx="180.669" ry="13.063" transform="translate(54.608 333.99)" fill="#00a8cc" opacity="0.1"/>
  <path id="Path_202" data-name="Path 202" d="M497.886,303.737a35.845,35.845,0,0,1-7.163,8.052c-.764.632-1.558,1.246-2.364,1.82-10.321,7.412-24.14,10.67-37.564,12.78-26.063,4.1-52.671,4.894-79.166,5.676-22.307.665-44.627,1.33-66.943,1.77-31.9.64-63.8.831-95.644,0q-26.113-.686-52.185-2.418c-32.25-2.206-65.331-6.1-93.4-19.715a96.341,96.341,0,0,1-14.671-8.684c-7.624-5.555-13.9-12.278-17.259-20.238-5.4-12.8-2.547-27.177,3.623-39.724,3.739-7.587,8.6-14.691,13.636-21.734,2.983-4.18,6.033-8.335,8.933-12.552.3-.416.6-.86.889-1.292.561-.831,1.118-1.662,1.662-2.493,2.277-3.5,4.433-7.117,6.411-10.8a122.256,122.256,0,0,0,5.339-11.309,98.624,98.624,0,0,0,3.739-10.8c.69-2.472,1.271-4.953,1.72-7.433,2.455-13.507,1.159-27.006-6.112-39.226-.071-.12-.145-.249-.22-.37l-.091-.145a114.463,114.463,0,0,0-6.964-9.731A70.3,70.3,0,0,1,56.3,103.288C51,92.165,52.148,79.659,54.076,67.78c2.572-15.788,7.358-32.823,22.178-42.666,15.394-10.246,37.248-9.726,56.356-6.062,29.69,5.68,57.108,17.592,84.792,28.34s56.668,20.579,87.106,21.63c26.878.935,58.226-6.045,76.063-24.2,17.326-17.629,49.9-18.971,73.378-8.31,22.4,10.159,36.891,31.664,35.8,53.136-1.587,31.273-31.726,55.259-49.708,82.623-.806,1.222-1.591,2.472-2.339,3.739-7.063,11.937-11.413,25.644-6.2,38.071,6.988,16.648,27.738,24.771,45.238,35.229,8.451,5.048,16.162,10.645,21.148,18.024.187.266.357.528.528.789C505.448,279.008,504.916,292.91,497.886,303.737Z" transform="translate(-28.668 -16.652)" fill="#00a8cc" opacity="0.1"/>
  <path id="Path_203" data-name="Path 203" d="M88.548,293.279c2.277-3.5,4.433-7.117,6.411-10.8a122.261,122.261,0,0,0,5.343-11.3,98.624,98.624,0,0,0,3.739-10.8c.69-2.472,1.271-4.953,1.72-7.433,2.456-13.507,1.159-27.006-6.112-39.226-.071-.12-.145-.249-.22-.37l-7.063-9.876H144.78v34.8h14.579v104.39h18.813V308.8h22.573v33.862h18.8V284.811h.939v-30.1h17.866v30.1h41.386v45.146h23.047V315.831H316.91v14.126h23.043V196.4h30.1V175.232h5.173V196.4h8.463v41.856H398.74v-34.8h12.7V167.72H437.77v35.732h12.7v34.8H465.99v26.055c-7.063,11.937-11.413,25.644-6.2,38.071,6.988,16.648,27.738,24.771,45.238,35.229,8.451,5.052,16.162,10.649,21.148,18.028v36.417a35.845,35.845,0,0,1-7.163,8.04c-.764.632-1.558,1.246-2.364,1.82-10.321,7.412-24.14,10.67-37.564,12.78-26.063,4.1-52.671,4.894-79.166,5.676-22.307.665-44.627,1.33-66.943,1.77H237.32q-26.113-.686-52.185-2.418c-32.25-2.206-65.331-6.1-93.4-19.715a96.341,96.341,0,0,1-14.671-8.684v-81.7c2.983-4.18,6.033-8.335,8.933-12.552Z" transform="translate(-56.954 -104.954)" fill="#00a8cc" opacity="0.3"/>
  <path id="Path_204" data-name="Path 204" d="M143.7,372.79v7.433H142C142.673,377.751,143.246,375.27,143.7,372.79Z" transform="translate(-94.912 -224.821)" fill="#fff" opacity="0.4"/>
  <rect id="Rectangle_460" data-name="Rectangle 460" width="19.752" height="11.289" transform="translate(92.998 155.402) rotate(180)" fill="#fff" opacity="0.4"/>
  <path id="Path_205" data-name="Path 205" d="M130.9,416.72V428H120.1a122.258,122.258,0,0,0,5.36-11.285Z" transform="translate(-82.112 -250.498)" fill="#fff" opacity="0.4"/>
  <rect id="Rectangle_461" data-name="Rectangle 461" width="19.752" height="11.289" transform="translate(92.998 177.506) rotate(180)" fill="#fff" opacity="0.4"/>
  <path id="Path_206" data-name="Path 206" d="M72.475,453.3h17.2v11.289H69.92V457.1Z" transform="translate(-40.881 -264.979)" fill="#fff" opacity="0.4"/>
  <rect id="Rectangle_462" data-name="Rectangle 462" width="19.752" height="11.289" transform="translate(92.998 199.61) rotate(180)" fill="#fff" opacity="0.4"/>
  <rect id="Rectangle_463" data-name="Rectangle 463" width="19.752" height="11.289" transform="translate(29.039 210.429)" fill="#fff" opacity="0.4"/>
  <rect id="Rectangle_464" data-name="Rectangle 464" width="19.752" height="11.289" transform="translate(92.998 221.714) rotate(180)" fill="#fff" opacity="0.4"/>
  <rect id="Rectangle_465" data-name="Rectangle 465" width="19.752" height="11.289" transform="translate(29.039 232.533)" fill="#fff" opacity="0.4"/>
  <rect id="Rectangle_466" data-name="Rectangle 466" width="19.752" height="11.289" transform="translate(92.998 243.817) rotate(180)" fill="#fff" opacity="0.4"/>
  <rect id="Rectangle_467" data-name="Rectangle 467" width="19.752" height="11.289" transform="translate(29.039 254.636)" fill="#fff" opacity="0.4"/>
  <rect id="Rectangle_468" data-name="Rectangle 468" width="19.752" height="11.289" transform="translate(92.998 265.921) rotate(180)" fill="#fff" opacity="0.4"/>
  <rect id="Rectangle_469" data-name="Rectangle 469" width="19.752" height="11.289" transform="translate(29.039 276.74)" fill="#fff" opacity="0.4"/>
  <rect id="Rectangle_470" data-name="Rectangle 470" width="19.752" height="11.289" transform="translate(92.998 288.025) rotate(180)" fill="#fff" opacity="0.4"/>
  <rect id="Rectangle_471" data-name="Rectangle 471" width="46.09" height="5.642" transform="translate(109.46 248.99)" fill="#fff" opacity="0.4"/>
  <rect id="Rectangle_472" data-name="Rectangle 472" width="46.09" height="5.642" transform="translate(109.46 257.457)" fill="#fff" opacity="0.4"/>
  <rect id="Rectangle_473" data-name="Rectangle 473" width="46.09" height="5.642" transform="translate(109.46 265.921)" fill="#fff" opacity="0.4"/>
  <rect id="Rectangle_474" data-name="Rectangle 474" width="46.09" height="5.642" transform="translate(229.854 251.815)" fill="#fff" opacity="0.4"/>
  <rect id="Rectangle_475" data-name="Rectangle 475" width="46.09" height="5.642" transform="translate(229.854 260.279)" fill="#fff" opacity="0.4"/>
  <rect id="Rectangle_476" data-name="Rectangle 476" width="46.09" height="5.642" transform="translate(229.854 268.742)" fill="#fff" opacity="0.4"/>
  <rect id="Rectangle_477" data-name="Rectangle 477" width="46.09" height="5.642" transform="translate(109.46 274.388)" fill="#fff" opacity="0.4"/>
  <rect id="Rectangle_478" data-name="Rectangle 478" width="46.09" height="5.642" transform="translate(109.46 282.852)" fill="#fff" opacity="0.4"/>
  <rect id="Rectangle_479" data-name="Rectangle 479" width="46.09" height="5.642" transform="translate(109.46 291.319)" fill="#fff" opacity="0.4"/>
  <rect id="Rectangle_480" data-name="Rectangle 480" width="12.697" height="16.461" transform="translate(172.476 190.677)" fill="#fff" opacity="0.4"/>
  <rect id="Rectangle_481" data-name="Rectangle 481" width="12.697" height="16.461" transform="translate(212.923 207.134) rotate(180)" fill="#fff" opacity="0.4"/>
  <rect id="Rectangle_482" data-name="Rectangle 482" width="12.697" height="16.461" transform="translate(172.476 217.01)" fill="#fff" opacity="0.4"/>
  <rect id="Rectangle_483" data-name="Rectangle 483" width="12.697" height="16.461" transform="translate(212.923 233.472) rotate(180)" fill="#fff" opacity="0.4"/>
  <rect id="Rectangle_484" data-name="Rectangle 484" width="12.697" height="16.461" transform="translate(172.476 243.348)" fill="#fff" opacity="0.4"/>
  <rect id="Rectangle_485" data-name="Rectangle 485" width="12.697" height="16.461" transform="translate(212.923 259.809) rotate(180)" fill="#fff" opacity="0.4"/>
  <rect id="Rectangle_486" data-name="Rectangle 486" width="12.697" height="16.461" transform="translate(172.476 269.685)" fill="#fff" opacity="0.4"/>
  <rect id="Rectangle_487" data-name="Rectangle 487" width="12.697" height="16.461" transform="translate(212.923 286.147) rotate(180)" fill="#fff" opacity="0.4"/>
  <rect id="Rectangle_488" data-name="Rectangle 488" width="16.931" height="21.634" transform="translate(282.995 102.262)" fill="#fff" opacity="0.4"/>
  <rect id="Rectangle_489" data-name="Rectangle 489" width="16.931" height="21.634" transform="translate(282.995 133.299)" fill="#fff" opacity="0.4"/>
  <rect id="Rectangle_490" data-name="Rectangle 490" width="16.931" height="21.634" transform="translate(282.995 164.339)" fill="#fff" opacity="0.4"/>
  <rect id="Rectangle_491" data-name="Rectangle 491" width="16.931" height="21.634" transform="translate(282.995 195.38)" fill="#fff" opacity="0.4"/>
  <rect id="Rectangle_492" data-name="Rectangle 492" width="16.931" height="21.634" transform="translate(282.995 226.417)" fill="#fff" opacity="0.4"/>
  <rect id="Rectangle_493" data-name="Rectangle 493" width="16.931" height="21.634" transform="translate(282.995 257.457)" fill="#fff" opacity="0.4"/>
  <rect id="Rectangle_494" data-name="Rectangle 494" width="63.02" height="18.339" transform="translate(336.376 146.469)" fill="#fff" opacity="0.4"/>
  <rect id="Rectangle_495" data-name="Rectangle 495" width="63.02" height="18.339" transform="translate(336.609 185.974)" fill="#fff" opacity="0.4"/>
  <rect id="Rectangle_496" data-name="Rectangle 496" width="63.02" height="18.339" transform="translate(336.845 225.478)" fill="#fff" opacity="0.4"/>
  <rect id="Rectangle_497" data-name="Rectangle 497" width="63.02" height="18.339" transform="translate(337.078 264.982)" fill="#fff" opacity="0.4"/>
  <path id="Path_207" data-name="Path 207" d="M131.08,277.49v.37c-.071-.121-.145-.249-.22-.37Z" transform="translate(-88.401 -169.116)" fill="#fff" opacity="0.4"/>
  <path id="Path_208" data-name="Path 208" d="M1128.248,594.655v6.789H1107.1v-24.8C1115.551,581.68,1123.262,587.276,1128.248,594.655Z" transform="translate(-659.03 -343.974)" fill="#fff" opacity="0.4"/>
  <path id="Path_209" data-name="Path 209" d="M1128.231,665.74v17.4a35.847,35.847,0,0,1-7.163,8.052c-.764.631-1.558,1.246-2.364,1.82H1107.07V665.74Z" transform="translate(-659.012 -396.055)" fill="#fff" opacity="0.4"/>
  <path id="Path_210" data-name="Path 210" d="M330.226,215.3h-3.237a2.264,2.264,0,0,0,0-4.529H300.777a2.264,2.264,0,0,0,0,4.529h3.237a2.269,2.269,0,0,0,0,4.533h-4.529a2.264,2.264,0,0,0,0,4.529h26.209a2.264,2.264,0,1,0,0-4.529h4.533a2.269,2.269,0,0,0,0-4.533Z" transform="translate(-185.641 -130.117)" fill="#00a8cc" opacity="0.1"/>
  <path id="Path_211" data-name="Path 211" d="M608.664,352.259h-3.237a2.264,2.264,0,1,0,0-4.529H579.215a2.264,2.264,0,0,0,0,4.529h3.228a2.269,2.269,0,0,0,0,4.533h-4.529a2.264,2.264,0,0,0,0,4.529h26.217a2.264,2.264,0,0,0,0-4.529h4.533a2.269,2.269,0,0,0,0-4.533Z" transform="translate(-348.388 -210.173)" fill="#00a8cc" opacity="0.1"/>
  <path id="Path_212" data-name="Path 212" d="M1083.077,173.419h-3.237a2.264,2.264,0,1,0,0-4.529h-26.213a2.264,2.264,0,1,0,0,4.529h3.237a2.264,2.264,0,1,0,0,4.529h-4.529a2.269,2.269,0,0,0,0,4.533h26.209a2.269,2.269,0,1,0,0-4.533h4.533a2.264,2.264,0,1,0,0-4.529Z" transform="translate(-625.75 -105.638)" fill="#00a8cc" opacity="0.1"/>
  <path id="Path_213" data-name="Path 213" d="M898.749,387.954l.025-.037-.1-.066-.2-.137a.14.14,0,0,1,.037.033.831.831,0,0,0-1.093.233l-.125.17h0l-5.817,8.351-1.018,1.467c-3.058-.922-8.027,2.958-10.549,5.181l-.44.395c-.2-.449-.316-.731-.316-.731-.125,1.363-4.948,3.411-6.074,4.155a4.131,4.131,0,0,1-1.662.565c.158-5.2-3.856-10.665-3.856-10.665l-9.81-12.5a11.028,11.028,0,0,1,1-6.627c.079-.162.166-.324.258-.486h.469a13.735,13.735,0,0,0,2.389-.212,13.083,13.083,0,0,0,10.773-12.061,2.138,2.138,0,0,0,1.687-2.227,1.661,1.661,0,0,0,0-.607h0a2.245,2.245,0,0,0-.112-.37h0a11.22,11.22,0,0,0-1.309-1.932,5.955,5.955,0,0,1-.935-3.178,12.554,12.554,0,0,1,.457-2.908,4.988,4.988,0,0,0,.278-1.762v-.121a2.548,2.548,0,0,0-.021-.47,2.227,2.227,0,0,0-.079-.328h0a3.121,3.121,0,0,0-1.313-1.6c-1.554-1.014-3.544-1.03-5.289-1.662-2.534-.927-4.824-3.216-7.479-2.663-1.446.3-2.555,1.408-3.806,2.19a9.2,9.2,0,0,1-4.591,1.4,30.64,30.64,0,0,0-4.1,0,4.276,4.276,0,0,0-.711.191,10.566,10.566,0,0,0-3.557-.561,5.987,5.987,0,0,0-3.357.927c-1.82,1.267-2.3,3.739-2.277,5.937a.222.222,0,0,0,0,.054v.416c0,1.055.1,2.127.125,3.183a9.689,9.689,0,0,1-.416,2.908c-.831,2.609-3.237,4.6-3.719,7.308a6.188,6.188,0,0,0-.083,1.413,14.837,14.837,0,0,0,.91,4.545,33.934,33.934,0,0,1,1.687,9.506,15.683,15.683,0,0,1-1.159,5.763,8.568,8.568,0,0,1-.831,1.525c-.108.15-.22.3-.341.44l-.046.054c-.1.121-.216.233-.328.341l-.091.087a4.085,4.085,0,0,1-.337.266l-.112.083a3.548,3.548,0,0,1-.49.278l.831-.05a3.959,3.959,0,0,1-.831.532l4.412-.258a.846.846,0,0,1,.021.145,2.232,2.232,0,0,1-.062.324,2.645,2.645,0,0,1-.108.3.393.393,0,0,1,0,.042,2.54,2.54,0,0,1-.341.553l-.037.042a2.364,2.364,0,0,1-.22.237h0a2.2,2.2,0,0,1-.241.187l-.054.042a2.562,2.562,0,0,1-.274.154h0a2.334,2.334,0,0,1-.283.108l-.075.021a1.83,1.83,0,0,1-.307.058l.416-.046c.278-.033.557-.071.831-.116h.083a2.223,2.223,0,0,1-1.33.661,12.174,12.174,0,0,0,2.8-.553c.573,3.86,1.849,15.622,1.147,17.8-.752,2.314,1.167,19.283,1.167,19.283s.262,1.3.719,3.241c-1.18,2.788-2.526,5.871-3.2,7.109-1.354,2.493-.69,15.148,3.989,20.774,0,0,1.936,2.73,1.425,3.739a4.371,4.371,0,0,0,.087,2.734l.74,16.387a42.362,42.362,0,0,1-.345,5.007c-1.99,2.472-5.069,6.074-6.515,6.648-2.239.91-18.942,21.19-18.942,21.19s.133.245.395.644l-.469.544-3.2,3.714-.254.295c-.6-.112-4.6-.831-7.786-1.072l-.312-.021v-.054a11.8,11.8,0,0,0-3.357.087h-.025a1.094,1.094,0,0,0-.553.291c-1.084,1.325-1.662,22.187-1.662,22.187s1.155,10.42,4.745,11.019a2.078,2.078,0,0,0,.582.112h0a1.6,1.6,0,0,0,.2,0,4.933,4.933,0,0,0,4.275-2.68,4.352,4.352,0,0,0,.357-.964,7.739,7.739,0,0,1,.71-4.425c1.126-2.564,3.216-7.038,3.216-7.038s3.818-4.018,3.137-5.966l.366-.528c1.438-2.044,4.333-6.083,6.677-8.779l.457-.519a11.571,11.571,0,0,0,2.663.773s3.59-1.4,4.927-4.57c.569-1.338,2.8-3.706,5.169-5.991-.05.391-.075.611-.075.611L836.5,537.3a14.016,14.016,0,0,0,2.456,1.35v.5a64.3,64.3,0,0,1-.511,8.5l-.075.44c-.3-.212-.548-.283-.715-.116-.735.744-1.193,5.505-1.246,7.7v.125h0c-.05.906-.291,1.986-.291,2.95-.025,1.4.416,2.58,2.68,2.68,2.813.116,14.912.3,21.389.415a14.367,14.367,0,0,0,9.556-3.386c1.188-1.018,2.1-2.148,2.127-3.216.058-.831-.386-1.608-1.625-2.289a.491.491,0,0,1-.025.083c-.162-.087-.337-.174-.528-.258l-6.232-.976L852.863,546.4s-.062-3.274-1.334-2.73a3.535,3.535,0,0,0-1.076.415c-.062-.125-.129-.249-.191-.382a12.27,12.27,0,0,1-1.309-5.526,3.793,3.793,0,0,1,.025-.528,9.535,9.535,0,0,0,.881-.9s-.083-7.45.748-8.858,3.428-15.647,3.428-15.647a6.766,6.766,0,0,1,1.753-4.221c1.67-1.575,1.084-6.124,1.084-6.124s2.335-1.246,3.087-5.3,3.174-12.913,3.174-12.913,5.011-13.079,4.678-21.356a60.916,60.916,0,0,1,.5-12.581l1.043-19.233v-.3c.416.32.694.573.694.573v-.208l.241.208s.532-8.725.353-12.186c2.908-.993,7.371-2.626,7.62-3.457.378-1.246,5.4-5.152,5.4-5.152a.924.924,0,0,1-.3-.116c.158-.071.32-.158.494-.249,3.282-1.762,9.386-6.9,8.359-10.046l6.673-9.6a1.633,1.633,0,0,0-.137-2.036Zm-54.362-9.332a3.831,3.831,0,0,0-.486.037,36.9,36.9,0,0,0-1.246-5.056,33.569,33.569,0,0,1-1.728-7.923v-.353a9.527,9.527,0,0,1,.278-2.115c.158.3.337.586.519.86a24.449,24.449,0,0,1,2.971,4.961,13.7,13.7,0,0,0,.931,2.493,2.333,2.333,0,0,0,2.19,1.267,1.72,1.72,0,0,0,.831-.378A35.091,35.091,0,0,1,844.387,378.622Z" transform="translate(-479.039 -208.615)" fill="url(#linear-gradient)"/>
  <path id="Path_214" data-name="Path 214" d="M992.694,489.3a4.386,4.386,0,0,1-1.575.6c-2.077.058-3.739-5.505-3.739-5.505s.586-.594,1.516-1.425c2.755-2.447,8.538-6.972,11.247-4.441C1003.172,481.369,996.234,487.389,992.694,489.3Z" transform="translate(-589.051 -286.193)" fill="#ecb4b6"/>
  <path id="Path_215" data-name="Path 215" d="M906.144,808.442l-7.583,8.185s-7.018.079-5.642-3.793a14.784,14.784,0,0,0,.582-2.572,63.074,63.074,0,0,0,.495-8.31c0-1.816-.029-3.087-.029-3.087s11.048-4.84,9.918.2a9.4,9.4,0,0,0-.233,1.957,12.021,12.021,0,0,0,1.246,5.38A12.316,12.316,0,0,0,906.144,808.442Z" transform="translate(-533.733 -472.645)" fill="#ecb4b6"/>
  <path id="Path_216" data-name="Path 216" d="M906.144,821.967l-7.583,8.185s-7.018.079-5.642-3.793a14.784,14.784,0,0,0,.582-2.572,16.141,16.141,0,0,1,2.443,3.058s4.836,1.413,6.166-2.821a7.212,7.212,0,0,1,2.813-4.113A12.321,12.321,0,0,0,906.144,821.967Z" transform="translate(-533.733 -486.17)" opacity="0.1"/>
  <path id="Path_217" data-name="Path 217" d="M921.631,834.151a13.806,13.806,0,0,1-9.236,3.324c-6.253-.091-17.94-.274-20.654-.386-3.631-.158-2.427-3.257-2.31-5.4v-.216c.042-2.136.486-6.772,1.2-7.479s3.2,3.224,3.2,3.224,4.836,1.413,6.166-2.821,4.047-4.67,4.047-4.67c1.246-.532,1.292,2.659,1.292,2.659l10.242,5.285,6.008.947c.2.087.37.179.536.266C924.817,830.387,923.621,832.431,921.631,834.151Z" transform="translate(-531.632 -486.027)" fill="#00a8cc"/>
  <circle id="Ellipse_7" data-name="Ellipse 7" cx="0.445" cy="0.445" r="0.445" transform="translate(370.628 339.1)" fill="#fff" opacity="0.25"/>
  <circle id="Ellipse_8" data-name="Ellipse 8" cx="0.445" cy="0.445" r="0.445" transform="translate(374.783 341.157)" fill="#fff" opacity="0.25"/>
  <circle id="Ellipse_9" data-name="Ellipse 9" cx="0.445" cy="0.445" r="0.445" transform="translate(376.923 342.116)" fill="#fff" opacity="0.25"/>
  <circle id="Ellipse_10" data-name="Ellipse 10" cx="0.445" cy="0.445" r="0.445" transform="translate(381.356 343.82)" fill="#fff" opacity="0.25"/>
  <circle id="Ellipse_11" data-name="Ellipse 11" cx="0.445" cy="0.445" r="0.445" transform="translate(379.1 343.093)" fill="#fff" opacity="0.25"/>
  <path id="Path_218" data-name="Path 218" d="M921.631,847.148a13.806,13.806,0,0,1-9.236,3.324c-6.253-.091-17.94-.274-20.654-.386-3.631-.158-2.427-3.257-2.31-5.4l22.793,1.413s9.336-1.417,9.893-4.2C924.817,843.383,923.621,845.427,921.631,847.148Z" transform="translate(-531.632 -499.023)" fill="#00a8cc"/>
  <path id="Path_219" data-name="Path 219" d="M921.631,846.887a13.8,13.8,0,0,1-9.236,3.3c-6.253-.091-17.94-.27-20.654-.386-3.631-.158-2.427-3.257-2.31-5.4l22.793,1.408s9.336-1.417,9.893-4.2C924.817,843.122,923.621,845.167,921.631,846.887Z" transform="translate(-531.632 -498.854)" fill="#fff" opacity="0.25"/>
  <path id="Path_220" data-name="Path 220" d="M842.906,767.8a15.792,15.792,0,0,0-2.289,2.289c-2.26,2.63-5.056,6.565-6.444,8.555l-.864,1.246-3.025-.449s-3.266-4.986-3.224-5.119,2.58-5.484,2.58-5.484l.985-1.151,3.1-3.623,1.4-1.637S845.648,765.824,842.906,767.8Z" transform="translate(-495.341 -452.572)" fill="#ecb4b6"/>
  <path id="Path_221" data-name="Path 221" d="M834.172,786.046l-.864,1.246-3.025-.449s-3.266-4.986-3.224-5.119,2.58-5.484,2.58-5.484l.985-1.151.324.058h.764c-2.7,2.821.2,9.033.2,9.033A3.325,3.325,0,0,1,834.172,786.046Z" transform="translate(-495.341 -459.972)" opacity="0.1"/>
  <path id="Path_222" data-name="Path 222" d="M817.3,791.225s-2.019,4.354-3.108,6.855a7.6,7.6,0,0,0-.686,4.317,4.151,4.151,0,0,1-.345.935,4.757,4.757,0,0,1-4.13,2.613,1.023,1.023,0,0,1-.2,0c-3.66-.1-4.832-10.769-4.832-10.769s.561-20.321,1.612-21.605a.985.985,0,0,1,.532-.283,11.278,11.278,0,0,1,3.237-.087c3.324.237,7.6,1.055,7.6,1.055h.764c-2.7,2.821.2,9.033.2,9.033a3.341,3.341,0,0,1,2.3,1.936C821.259,787.041,817.3,791.225,817.3,791.225Z" transform="translate(-481.863 -458.823)" fill="#00a8cc"/>
  <circle id="Ellipse_12" data-name="Ellipse 12" cx="0.445" cy="0.445" r="0.445" transform="translate(330.563 325.913)" fill="#fff" opacity="0.25"/>
  <circle id="Ellipse_13" data-name="Ellipse 13" cx="0.445" cy="0.445" r="0.445" transform="translate(330.343 329.432)" fill="#fff" opacity="0.25"/>
  <path id="Path_223" data-name="Path 223" d="M812.479,803.152a4.79,4.79,0,0,1-4.13,2.613h-.17C804.5,805.67,803.33,795,803.33,795s.565-20.321,1.612-21.605a1,1,0,0,1,.532-.282,11.309,11.309,0,0,1,3.241-.087c-.062,3.648-.233,15.2,0,16.345S811.016,800.078,812.479,803.152Z" transform="translate(-481.471 -458.718)" fill="#00a8cc"/>
  <path id="Path_224" data-name="Path 224" d="M813.1,803.332a4.753,4.753,0,0,1-4.13,2.613,1.022,1.022,0,0,1-.2,0c-3.677-.1-4.845-10.769-4.845-10.769s.565-20.321,1.612-21.605a1,1,0,0,1,.532-.283,11.3,11.3,0,0,1,3.241-.087c-.062,3.648-.237,15.2,0,16.345S811.633,800.258,813.1,803.332Z" transform="translate(-481.822 -458.823)" fill="#fff" opacity="0.25"/>
  <path id="Path_225" data-name="Path 225" d="M808.179,806c-3.677-.1-4.849-10.769-4.849-10.769s.565-20.321,1.612-21.605a1,1,0,0,1,.532-.282c.773,1.147,1.45,3.685.831,9.274-1.147,10.586.237,11.251.237,11.251S808.241,802.839,808.179,806Z" transform="translate(-481.471 -458.949)" fill="#00a8cc"/>
  <path id="Path_226" data-name="Path 226" d="M808.059,805.985c-3.689-.1-4.849-10.778-4.849-10.778s.565-20.321,1.612-21.605a1,1,0,0,1,.532-.283c.773,1.147,1.446,3.685.831,9.274-1.147,10.587.237,11.251.237,11.251S808.142,802.828,808.059,805.985Z" transform="translate(-481.401 -458.937)" opacity="0.1"/>
  <path id="Path_227" data-name="Path 227" d="M992.694,496.6a4.387,4.387,0,0,1-1.575.6c-2.077.058-3.739-5.505-3.739-5.505s.586-.594,1.516-1.425C989.541,491.791,991.4,495.85,992.694,496.6Z" transform="translate(-589.051 -293.49)" opacity="0.1"/>
  <path id="Path_228" data-name="Path 228" d="M965.614,494.138a5.181,5.181,0,0,0,2.784-.607c1.089-.727,5.746-2.721,5.867-4.051,0,0,2.784,6.772,4.354,7.013,0,0-4.836,3.814-5.2,5.023s-9.8,4.155-9.8,4.155Z" transform="translate(-575.163 -293.028)" fill="#ff748e"/>
  <path id="Path_229" data-name="Path 229" d="M965.614,494.138a5.181,5.181,0,0,0,2.784-.607c1.089-.727,5.746-2.721,5.867-4.051,0,0,2.784,6.772,4.354,7.013,0,0-4.836,3.814-5.2,5.023s-9.8,4.155-9.8,4.155Z" transform="translate(-575.163 -293.028)" fill="#00a8cc"/>
  <path id="Path_230" data-name="Path 230" d="M852.282,767.814a15.8,15.8,0,0,0-2.289,2.289,16.326,16.326,0,0,1-6.893-6.016l1.4-1.637S855.024,765.836,852.282,767.814Z" transform="translate(-504.717 -452.584)" opacity="0.1"/>
  <path id="Path_231" data-name="Path 231" d="M869.658,692.76s-5.916,7.894-8.077,8.792S843.3,722.2,843.3,722.2s3.457,6.394,9.847,7.421a9.409,9.409,0,0,0,4.757-4.433c1.288-3.062,11.447-11.7,11.447-11.7Z" transform="translate(-504.834 -411.849)" fill="#5e5a6b"/>
  <path id="Path_232" data-name="Path 232" d="M869.658,692.76s-5.916,7.894-8.077,8.792S843.3,722.2,843.3,722.2s3.457,6.394,9.847,7.421a9.409,9.409,0,0,0,4.757-4.433c1.288-3.062,11.447-11.7,11.447-11.7Z" transform="translate(-504.834 -411.849)" opacity="0.1"/>
  <path id="Path_233" data-name="Path 233" d="M863.6,756.434a25.588,25.588,0,0,0,5.4,0C872.192,756.13,869.77,758.067,863.6,756.434Z" transform="translate(-516.7 -449.048)" opacity="0.1"/>
  <path id="Path_234" data-name="Path 234" d="M860.11,761.43s4.234,2.418,5.867,1.209S864.4,763.807,860.11,761.43Z" transform="translate(-514.66 -451.987)" opacity="0.1"/>
  <path id="Path_235" data-name="Path 235" d="M905.592,799.121a9.4,9.4,0,0,0-.229,1.936c-3.27,2.967-7.2,2.052-9.664.968,0-1.816-.029-3.087-.029-3.087S906.722,794.081,905.592,799.121Z" transform="translate(-535.445 -472.681)" opacity="0.1"/>
  <path id="Path_236" data-name="Path 236" d="M920.291,548.22l-.12,2.231-1.01,18.738a57.44,57.44,0,0,0-.486,12.257c.345,8.065-4.5,20.807-4.5,20.807s-2.339,8.634-3.066,12.585-2.983,5.16-2.983,5.16.565,4.437-1.047,5.966a6.616,6.616,0,0,0-1.691,4.113s-2.493,13.873-3.324,15.244-.727,8.63-.727,8.63c-5.243,6.211-12.9.565-12.9.565l.079-19.436s2.181-17.9,3.793-20.4,1.612-9.357,1.612-9.357l-.719-15.967a4.313,4.313,0,0,1-.079-2.663c.494-.968-1.379-3.619-1.379-3.619-4.516-5.484-5.16-17.824-3.852-20.246s5.231-12.095,5.231-12.095l5.4-3.149,9.751.291Z" transform="translate(-530.546 -326.988)" fill="#5e5a6b"/>
  <path id="Path_237" data-name="Path 237" d="M911.5,777.88s1.276,4.417,2.3,4.9S911.5,777.88,911.5,777.88Z" transform="translate(-544.698 -461.603)" opacity="0.1"/>
  <path id="Path_238" data-name="Path 238" d="M915.72,742.5s3.324,2.609,4.691,2.6S915.72,742.5,915.72,742.5Z" transform="translate(-547.165 -440.922)" opacity="0.1"/>
  <path id="Path_239" data-name="Path 239" d="M927.208,435.636v5.322l-3.515-1.512-3.5-1.512-7.62-7.5s-6.029-3.918-9.257-7.479c-1.845-2.036-2.775-3.96-1.147-4.986a10.179,10.179,0,0,0,2.107-1.849,34.7,34.7,0,0,0,4.209-6.207l.15-.27c1.571-2.883,2.605-5.343,2.605-5.343a32.184,32.184,0,0,1,7.267,3.424c.228.158.445.324.652.494,1.587,1.3,2.372,2.8.914,4.309a11.247,11.247,0,0,0-1.043,1.246h0a9.437,9.437,0,0,0-.644,1.018c-.087.158-.17.316-.249.469a10.847,10.847,0,0,0-.968,6.461Z" transform="translate(-538.752 -243.239)" fill="#ecb4b6"/>
  <path id="Path_240" data-name="Path 240" d="M930.138,412.537a11.234,11.234,0,0,0-1.043,1.246h0a9.412,9.412,0,0,0-.644,1.018c-.087.158-.17.316-.249.469a12.672,12.672,0,0,1-9.5-5.135,2.118,2.118,0,0,1-.15-.212l.15-.27c1.571-2.883,2.605-5.343,2.605-5.343a32.185,32.185,0,0,1,7.267,3.424c.228.158.445.324.652.494C930.811,409.529,931.617,411.033,930.138,412.537Z" transform="translate(-548.819 -243.245)" opacity="0.1"/>
  <path id="Path_241" data-name="Path 241" d="M938.33,381.143a12.681,12.681,0,0,1-12.7,12.7h-.469a12.7,12.7,0,1,1,13.092-14.093A12.933,12.933,0,0,1,938.33,381.143Z" transform="translate(-545.532 -222.284)" fill="#ecb4b6"/>
  <path id="Path_242" data-name="Path 242" d="M940.928,458.015s6.4,3.611,4.757.565l-8.347-12.34h0l9.477,12.178s6.049,8.31,2.742,14.031c0,0-.486,4.761.079,5.887s-.162,13.15-.162,13.15-2.256-2.077-3.465-1.7-9.76,1.13-9.76,1.13Z" transform="translate(-559.165 -267.753)" opacity="0.1"/>
  <path id="Path_243" data-name="Path 243" d="M949.249,548.617l-.12,2.231c-.764-.557-1.832-1.18-2.539-.943-1.209.415-9.76,1.13-9.76,1.13l.395-2.775Z" transform="translate(-559.504 -327.386)" opacity="0.1"/>
  <path id="Path_244" data-name="Path 244" d="M941.508,458.015s6.4,3.611,4.757.565l-8.347-12.34h0l9.477,12.178s6.049,8.31,2.742,14.031c0,0-.482,4.761.079,5.887s-.158,13.15-.158,13.15-2.26-2.077-3.469-1.7-9.76,1.13-9.76,1.13Z" transform="translate(-559.504 -267.753)" fill="#464353"/>
  <path id="Path_245" data-name="Path 245" d="M917.51,456.661a44.112,44.112,0,0,1-1.969,8.488s-1.126,11.455-2.58,14.845-.806,8.065-1.612,16.694a10.928,10.928,0,0,1-2.642,6.681,9.862,9.862,0,0,1-7.894,2.717,5.239,5.239,0,0,1-.594-.046c-4.034-.415-7.894-19.839-7.894-19.839s-1.853-16.532-1.13-18.792-.723-15.161-1.209-17.986c-.307-1.787.619-4.712,1.334-6.61.416-1.1.764-1.857.764-1.857s1.371-4.354,3.627-6.61a3.324,3.324,0,0,1,2.393-1.005,5.942,5.942,0,0,1,2.987.935l.1.071s14.679,15,16.05,18.468A8.961,8.961,0,0,1,917.51,456.661Z" transform="translate(-532.087 -260.213)" opacity="0.1"/>
  <path id="Path_246" data-name="Path 246" d="M916.362,456.081a44.109,44.109,0,0,1-1.969,8.488s-1.13,11.455-2.58,14.841-.831,8.065-1.612,16.694a10.93,10.93,0,0,1-2.642,6.685,9.867,9.867,0,0,1-7.894,2.717l-.59-.046c-4.034-.415-7.894-19.839-7.894-19.839s-1.853-16.536-1.126-18.792-.727-15.161-1.209-17.986c-.307-1.787.615-4.712,1.334-6.614.416-1.1.76-1.853.76-1.853s1.371-4.354,3.631-6.615a3.324,3.324,0,0,1,2.389-1,5.963,5.963,0,0,1,2.992.935l.1.066s14.679,15,16.046,18.468A9.157,9.157,0,0,1,916.362,456.081Z" transform="translate(-531.42 -259.874)" fill="#00a8cc"/>
  <path id="Path_247" data-name="Path 247" d="M909.059,631s-3.324,2.962-4.479,2.842S909.059,631,909.059,631Z" transform="translate(-540.562 -375.749)" opacity="0.1"/>
  <path id="Path_248" data-name="Path 248" d="M911.044,637.774a44.069,44.069,0,0,1-4.57,1.87C905.41,639.884,909.689,637.354,911.044,637.774Z" transform="translate(-541.662 -379.681)" opacity="0.1"/>
  <path id="Path_249" data-name="Path 249" d="M950.37,530.574s5.2.058,5.987,1.691S952.065,529.909,950.37,530.574Z" transform="translate(-567.418 -317.004)" opacity="0.1"/>
  <path id="Path_250" data-name="Path 250" d="M948.62,537.52s3.993.831,5.2,1.816S948.62,537.52,948.62,537.52Z" transform="translate(-566.396 -321.108)" opacity="0.1"/>
  <path id="Path_251" data-name="Path 251" d="M928.639,513.79s-.482,16.391-2.269,18.51S928.639,513.79,928.639,513.79Z" transform="translate(-553.124 -307.237)" opacity="0.1"/>
  <path id="Path_252" data-name="Path 252" d="M920.527,623.79s-3.324,14.455,3.361,15.373,4.624-16.453,4.624-16.453Z" transform="translate(-549.492 -370.903)" opacity="0.1"/>
  <path id="Path_253" data-name="Path 253" d="M919.947,623.2s-3.324,14.459,3.357,15.373,4.629-16.453,4.629-16.453Z" transform="translate(-549.152 -370.558)" fill="#ecb4b6"/>
  <path id="Path_254" data-name="Path 254" d="M911.489,468.021c-.345-8.688-12.5-10.483-15.34-2.264-.021.054-.037.108-.058.166-1.853,5.563-1.047,19.652-1.047,19.652s.241,9.461,1.13,12.606,3.386,12.178,3.386,13.632,2.318,7.018,3.295,7.421,1.471,3.548,1.708,4.113.968,7.894.968,7.894,9.112-.565,9.274-2.015-2.015-8.542-2.015-8.542a16.426,16.426,0,0,1-1.811-5.243c-.2-2.335-1.5-3.386-1.246-4.986s-.727-2.422-.727-3.469a25.93,25.93,0,0,0-.723-3.872s-1.533-1.209-1.292-2.659-2.177-4.354-1.533-5.4a10.914,10.914,0,0,0,.806-3.627s.806-11.634,1.371-14.762,3.872-8.222,3.872-8.222S911.5,468.278,911.489,468.021Z" transform="translate(-534.978 -276.064)" opacity="0.1"/>
  <path id="Path_255" data-name="Path 255" d="M909.775,518.62a9.867,9.867,0,0,1-7.894,2.717c-.287-1.1-.711-2.451-1.33-2.709-.976-.416-3.295-5.966-3.295-7.416s-2.493-10.487-3.386-13.632-1.13-12.606-1.13-12.606-.831-14.089,1.034-19.665a.54.54,0,0,1,.054-.17c2.838-8.218,14.995-6.419,15.34,2.268v.416s-3.324,5.081-3.868,8.227-1.375,14.758-1.375,14.758a10.935,10.935,0,0,1-.806,3.631c-.644,1.047,1.774,3.951,1.533,5.4s1.288,2.659,1.288,2.659a25.68,25.68,0,0,1,.727,3.872c0,1.051.968,1.853.727,3.469s1.051,2.659,1.246,4.986A13.029,13.029,0,0,0,909.775,518.62Z" transform="translate(-533.625 -275.704)" opacity="0.1"/>
  <path id="Path_256" data-name="Path 256" d="M910.325,467.437c-.345-8.688-12.5-10.487-15.336-2.269a.69.69,0,0,1-.058.17c-1.853,5.563-1.047,19.652-1.047,19.652s.241,9.461,1.126,12.606,3.39,12.186,3.39,13.632,2.314,7.013,3.295,7.416,1.471,3.552,1.708,4.113.964,7.894.964,7.894,9.116-.565,9.274-2.019-2.015-8.547-2.015-8.547a16.535,16.535,0,0,1-1.812-5.243c-.208-2.335-1.5-3.386-1.246-4.986s-.727-2.422-.727-3.469a25.79,25.79,0,0,0-.727-3.872s-1.533-1.209-1.288-2.659-2.181-4.358-1.533-5.4a10.786,10.786,0,0,0,.806-3.627s.806-11.634,1.371-14.762,3.872-8.227,3.872-8.227S910.338,467.695,910.325,467.437Z" transform="translate(-534.3 -275.721)" fill="#00a8cc"/>
  <path id="Path_257" data-name="Path 257" d="M897.67,526.356c.241-.241,4.84-5.322,6.29-3.507S897.67,526.356,897.67,526.356Z" transform="translate(-536.614 -312.305)" opacity="0.1"/>
  <path id="Path_258" data-name="Path 258" d="M898.69,536.375c.179-.179,4.6-.361,5.684-2.842S898.69,536.375,898.69,536.375Z" transform="translate(-537.211 -318.393)" opacity="0.1"/>
  <g id="Group_7" data-name="Group 7" transform="translate(355.523 151.351)" opacity="0.1">
    <path id="Path_259" data-name="Path 259" d="M885.278,431.253a1.223,1.223,0,0,1,.241.436,1.891,1.891,0,0,0-.241-1.662c-.216-.249-.532-.395-.727-.656,0-.021-.025-.046-.042-.071a1.247,1.247,0,0,0,.042,1.28C884.746,430.837,885.062,430.987,885.278,431.253Z" transform="translate(-884.353 -409.203)"/>
    <path id="Path_260" data-name="Path 260" d="M900.723,387.287c0-.461.021-.918,0-1.371-.087-1.662-.391-3.324-.461-4.986-.1,2.019.353,4.155.461,6.195Z" transform="translate(-893.644 -380.93)"/>
  </g>
  <path id="Path_261" data-name="Path 261" d="M1004.153,471.982l.249.174a1,1,0,0,1-.258-1.392l11.218-16.27a1,1,0,0,1,1.388-.253l-.245-.174a1.6,1.6,0,0,1,.415,2.231l-10.52,15.273a1.6,1.6,0,0,1-2.248.411Z" transform="translate(-598.748 -272.326)" fill="#464353"/>
  <path id="Path_262" data-name="Path 262" d="M.723,0h.324V21.755H.723A.723.723,0,0,1,0,21.032V.74A.723.723,0,0,1,.723,0Z" transform="translate(417.193 181.33) rotate(34.56)" fill="#9f9eff"/>
  <rect id="Rectangle_498" data-name="Rectangle 498" width="0.204" height="1.774" rx="0.102" transform="translate(416.385 184.172) rotate(34.56)" fill="#464353"/>
  <path id="Path_263" data-name="Path 263" d="M918.944,371.821a7.006,7.006,0,0,0-1.379-2.244c-1.221-1.841-1.03-4.275-.461-6.411a4.569,4.569,0,0,0,.262-1.82,2.879,2.879,0,0,0-1.346-1.886c-1.5-.985-3.424-1-5.106-1.62-2.447-.906-4.662-3.137-7.213-2.6-1.4.295-2.468,1.375-3.673,2.136a8.854,8.854,0,0,1-4.437,1.359,29.924,29.924,0,0,0-3.955,0,3.988,3.988,0,0,0-.686.187,10.3,10.3,0,0,0-3.436-.548,5.775,5.775,0,0,0-3.241.906c-1.757,1.247-2.227,3.636-2.2,5.784s.391,4.363-.27,6.407c-.831,2.547-3.124,4.487-3.59,7.121a11.7,11.7,0,0,0,.8,5.339c1.512,4.986,2.514,10.52.507,15.344a5.415,5.415,0,0,1-2.493,2.991l4.263-.253a2.318,2.318,0,0,1-1.944,2.642,9.9,9.9,0,0,0,3.129-.719,3.324,3.324,0,0,0,1.974-2.385,12.626,12.626,0,0,1,.12-1.737c.278-.96,1.247-1.487,2.057-2.1a9.158,9.158,0,0,0,3.145-6.988,25.053,25.053,0,0,0-1.367-7.765,32.434,32.434,0,0,1-1.662-7.72,10.14,10.14,0,0,1,.266-2.871,9.177,9.177,0,0,0,.5.831,23.741,23.741,0,0,1,2.867,4.832,14.017,14.017,0,0,0,.9,2.439,2.261,2.261,0,0,0,2.115,1.246c.868-.12,1.5-1.059,1.787-1.94a9.431,9.431,0,0,1,.943-2.593c1.014-1.421,3.041-1.55,4.786-1.5,3.677.116,8.75.673,11.634-2.152.548-.536.831-1.354,1.662-1.155.765.179,1.192,1.425,2.011,1.7A2.127,2.127,0,0,0,918.944,371.821Z" transform="translate(-524.55 -214.515)" opacity="0.1"/>
  <path id="Path_264" data-name="Path 264" d="M918.944,370.691a6.961,6.961,0,0,0-1.379-2.244c-1.221-1.845-1.03-4.279-.461-6.411a4.568,4.568,0,0,0,.262-1.82,2.879,2.879,0,0,0-1.346-1.886c-1.5-.985-3.424-1-5.106-1.62-2.447-.906-4.662-3.137-7.213-2.6-1.4.3-2.468,1.375-3.673,2.136a8.9,8.9,0,0,1-4.437,1.359,29.924,29.924,0,0,0-3.955,0,3.991,3.991,0,0,0-.686.187,10.3,10.3,0,0,0-3.436-.548,5.817,5.817,0,0,0-3.241.9c-1.757,1.246-2.227,3.64-2.2,5.788s.391,4.363-.27,6.407c-.831,2.547-3.124,4.487-3.59,7.121a11.7,11.7,0,0,0,.8,5.339c1.512,4.986,2.514,10.52.507,15.34a5.41,5.41,0,0,1-2.493,3l4.263-.253a2.314,2.314,0,0,1-1.944,2.638,9.781,9.781,0,0,0,3.129-.715,3.324,3.324,0,0,0,1.974-2.385,12.626,12.626,0,0,1,.12-1.737c.278-.96,1.247-1.487,2.057-2.1a9.158,9.158,0,0,0,3.145-6.988,25.033,25.033,0,0,0-1.367-7.765,32.389,32.389,0,0,1-1.662-7.72,10.141,10.141,0,0,1,.266-2.871,9.178,9.178,0,0,0,.5.831,23.74,23.74,0,0,1,2.867,4.832,13.85,13.85,0,0,0,.9,2.435,2.254,2.254,0,0,0,2.115,1.246c.868-.125,1.5-1.055,1.787-1.936a9.432,9.432,0,0,1,.943-2.593c1.014-1.421,3.041-1.55,4.786-1.5,3.677.116,8.75.673,11.634-2.152.548-.536.831-1.354,1.662-1.155.765.179,1.192,1.425,2.011,1.7A2.127,2.127,0,0,0,918.944,370.691Z" transform="translate(-524.55 -213.855)" fill="#464353"/>
  <g id="Group_8" data-name="Group 8" transform="translate(352.493 146.042)" opacity="0.1">
    <path id="Path_265" data-name="Path 265" d="M889.2,375.9v.831c0,.9.075,1.807.108,2.709C889.345,378.277,889.242,377.084,889.2,375.9Z" transform="translate(-884.156 -372.68)"/>
    <path id="Path_266" data-name="Path 266" d="M882.208,424.89a31.492,31.492,0,0,0-1.616-9.972,18.921,18.921,0,0,1-.831-3.548,13.144,13.144,0,0,0,.831,4.961A34.273,34.273,0,0,1,882.208,424.89Z" transform="translate(-878.618 -393.413)"/>
    <path id="Path_267" data-name="Path 267" d="M972.451,372.633a13.361,13.361,0,0,1,.415-2.343,4.57,4.57,0,0,0,.262-1.82,2,2,0,0,0-.079-.32c-.05.245-.116.486-.183.727A11.073,11.073,0,0,0,972.451,372.633Z" transform="translate(-932.805 -368.15)"/>
    <path id="Path_268" data-name="Path 268" d="M881.323,463.45l-2.576.15a4.279,4.279,0,0,1-1.687,1.512l4.022-.237a2.16,2.16,0,0,0,.241-1.425Z" transform="translate(-877.06 -423.854)"/>
    <path id="Path_269" data-name="Path 269" d="M932.474,392.535a2.231,2.231,0,0,1-2.622,1.226c-.831-.278-1.246-1.525-2.011-1.7-.831-.2-1.114.623-1.662,1.159-2.879,2.821-7.952,2.264-11.634,2.148-1.745-.054-3.773.075-4.786,1.5a8.945,8.945,0,0,0-.943,2.6,2.575,2.575,0,0,1-1.787,1.936,2.176,2.176,0,0,1-2.115-1.246,14.125,14.125,0,0,1-.9-2.435,23.771,23.771,0,0,0-2.867-4.836c-.179-.266-.349-.548-.5-.831a10.156,10.156,0,0,0-.266,2.875v.2a9.326,9.326,0,0,1,.249-1.662,9.193,9.193,0,0,0,.5.831A23.741,23.741,0,0,1,904,399.124a13.859,13.859,0,0,0,.9,2.435,2.254,2.254,0,0,0,2.115,1.246c.868-.125,1.5-1.055,1.787-1.936a9.428,9.428,0,0,1,.943-2.593c1.014-1.421,3.041-1.55,4.786-1.5,3.677.116,8.75.673,11.633-2.152.548-.536.831-1.354,1.662-1.155.764.179,1.192,1.425,2.011,1.7a2.136,2.136,0,0,0,2.734-2.273A2.857,2.857,0,0,0,932.474,392.535Z" transform="translate(-890.684 -382.106)"/>
    <path id="Path_270" data-name="Path 270" d="M889.919,443.592c-.789.615-1.778,1.143-2.057,2.1a12.652,12.652,0,0,0-.121,1.737,3.324,3.324,0,0,1-1.974,2.389,6.266,6.266,0,0,1-1.226.415,2.323,2.323,0,0,1-1.9,1.708,9.78,9.78,0,0,0,3.129-.715,3.324,3.324,0,0,0,1.974-2.385,12.607,12.607,0,0,1,.121-1.737c.278-.96,1.246-1.487,2.057-2.1a9.158,9.158,0,0,0,3.145-6.988V436.84A9.179,9.179,0,0,1,889.919,443.592Z" transform="translate(-880.322 -408.3)"/>
  </g>
  <path id="Path_271" data-name="Path 271" d="M325.077,533.418h.1s-15.257-41.374-19.528-47c0,0-4.475-2.613-4.271-7.03l-5.489-26.333s.083-.079.22-.229l.116-.129c.042-.046.087-.1.133-.154a12.378,12.378,0,0,0,1.824-2.813c.029-.066.062-.129.091-.2a10.577,10.577,0,0,0,.511-1.421,1.554,1.554,0,0,0,1.172-.062v-.395h0s-.054-1.558-.058-3.993v-2.206a19.528,19.528,0,0,0,.436-1.92l-.224-.1a.16.16,0,0,1,.021-.1l-.187-.087c.15-5.775.648-13.154,2.077-18.182.05-.179.1-.353.154-.528,1.7-5.489,1.733-12.19,2.169-17.866a17.549,17.549,0,0,1,.881,2.194,3.323,3.323,0,0,1,.74-.611l1.7,13.466v15.863s-2.85,20.487,6.1,16.673,2.443-17.866,2.443-17.866,0-7.832,1.221-11.85c.8-2.642.283-11.218-.166-16.74.856.154,1.384.274,1.384.274a9.267,9.267,0,0,0,.266-2.464c.183-9.257-11.38-24.181-16.1-29.873a13.47,13.47,0,0,0-5.43-4.712l-9.045-4.325s-4.259-1.06-5.921-4.3a.923.923,0,0,0-.042-.17c.187-.083.374-.17.557-.266a10.046,10.046,0,0,0,3.536-2.809c1.928-2.418,2.846-5.447,3.739-8.4,1.035-3.465,2.077-7.009,1.94-10.624s-1.662-7.371-4.782-9.29c-2.655-1.637-6.353-1.949-8-4.57a10.523,10.523,0,0,0-1.309-2.119.5.5,0,0,0-.415-.511l-4.612-.889a.5.5,0,0,0-.586.391v.062a27.837,27.837,0,0,0-11.7,2.937,27.033,27.033,0,0,0-3.706,2.161c-1.662,1.172-3.324,2.717-3.557,4.728-.12,1,.125,2.028-.083,3.008-.548,2.626-4.109,4.333-3.59,6.964.349,1.787,2.4,2.555,4.313,2.559a14.127,14.127,0,0,0-.536,3.843A14.313,14.313,0,0,0,265.1,359.385a40.77,40.77,0,0,1,3.652,6.141c-2.343,2.2-7.25,7.3-4.242,9.016l-6.232,15.265.607,15.743-2.638,2.331.578.715c-2.954,3.4-9.8,10.832-14.8,12.809a15.375,15.375,0,0,0-2.077,1.014,8.534,8.534,0,0,1-3,1.159,8.11,8.11,0,0,0-1.375.262l-1.192-2.447a1.8,1.8,0,0,0-2.385-.831l-.731.349h0l-1.741.831-.723.345h0l-.553.262a1.757,1.757,0,0,0-.831,2.356l1.446,2.962c-2.057,1.791-3.062,3.93-.262,5.916a6.17,6.17,0,0,0,3.739,1.163l.881,1.8a1.791,1.791,0,0,0,2.381.831l1.276-.607,2.493-1.176a1.749,1.749,0,0,0,.831-2.352l-.723-1.483a29.267,29.267,0,0,0,4.421-4.188,27.924,27.924,0,0,1,5.9-2.809c1.45-.341,6.54-3.635,9.672-5.721l.893,23.192a5.189,5.189,0,0,1-.69.831l.7-.49v.17c-.1.116-.2.224-.3.32l.3-.216v.278a3.1,3.1,0,0,1-.316.337l.32-.224.091,2.41,1.533-2.493.1,2.493.357-.586c-4.3,7.209-9.893,17.82-12.88,28.5,0,0-4.674,8.031-4.068,16.266l-8.6,40.759.166.062c-2.788,1.982-8.646,5.617-14.4,5.763,0,0-13.831-.416-9.972,2.609s38.224,7.433,38.224,7.433l1.321-10.154.307.112a.861.861,0,0,0-.021-.158l.415.158s-.831-5.023,2.235-7.832,10.171-31.332,9.556-35.732a175.59,175.59,0,0,1,12.294-24.218l8.044,20.4,8.95,15.265s11.9,26.134,11.521,31.959c-2.493,3.016-6.972,7.74-10.3,7.6,0,0-13.628,2.613-4.271,5.023s36.812-6.648,36.812-6.648Zm-59.584-93.446.083-.046c-.415.644-.877,1.363-1.367,2.148Z" transform="translate(-135.836 -193.238)" fill="url(#linear-gradient-2)"/>
  <path id="Path_272" data-name="Path 272" d="M325.789,617.91c-.337.237-.519.374-.519.374A2.167,2.167,0,0,0,325.789,617.91Z" transform="translate(-202.037 -368.097)" fill="url(#linear-gradient-3)"/>
  <path id="Path_273" data-name="Path 273" d="M326.769,618.87l-.519.378A2.193,2.193,0,0,0,326.769,618.87Z" transform="translate(-202.61 -368.659)" fill="url(#linear-gradient-4)"/>
  <path id="Path_274" data-name="Path 274" d="M326.769,617.91c-.337.237-.519.374-.519.374A2.167,2.167,0,0,0,326.769,617.91Z" transform="translate(-202.61 -368.097)" fill="url(#linear-gradient-3)"/>
  <path id="Path_275" data-name="Path 275" d="M412.416,833.911s-7.138,10.113-11.9,9.913c0,0-13.3,2.576-4.155,4.957s35.894-6.544,35.894-6.544l-3.183-10.387Z" transform="translate(-241.719 -493.149)" fill="#333"/>
  <path id="Path_276" data-name="Path 276" d="M362.67,631.542l10.109,25.976,8.725,15.07s12,26.67,11.218,31.826l19.112-3.075s-14.87-40.846-19.033-46.4c0,0-4.363-2.58-4.155-6.943l-5.351-25.955s5.206-5.023,2.3-11.318a10.569,10.569,0,0,0-.515-.976c-3.964-6.739-19.033-2.975-19.033-2.975Z" transform="translate(-223.898 -360.977)" fill="#535461"/>
  <path id="Path_277" data-name="Path 277" d="M362.67,631.542l10.109,25.976,8.725,15.07s12,26.67,11.218,31.826l19.112-3.075s-14.87-40.846-19.033-46.4c0,0-4.363-2.58-4.155-6.943l-5.351-25.955s5.206-5.023,2.3-11.318a10.569,10.569,0,0,0-.515-.976c-3.964-6.739-19.033-2.975-19.033-2.975Z" transform="translate(-223.898 -360.977)" opacity="0.03"/>
  <g id="Group_9" data-name="Group 9" transform="translate(150.559 244.75)" opacity="0.1">
    <path id="Path_278" data-name="Path 278" d="M409.4,654.941s-4.363-2.58-4.155-6.943l-5.364-25.955s5.206-5.023,2.3-11.318a10.568,10.568,0,0,0-.515-.976c-1.924-3.27-6.457-4.068-10.62-4.022,3.993.037,8.193.91,10.026,4.022a9.587,9.587,0,0,1,.511.976c2.908,6.295-2.293,11.318-2.293,11.318l5.351,25.976c-.2,4.363,4.155,6.943,4.155,6.943,4.155,5.551,19.033,46.4,19.033,46.4l-18.518,2.95v.1l19.112-3.075S413.559,660.492,409.4,654.941Z" transform="translate(-391.04 -605.726)"/>
  </g>
  <path id="Path_279" data-name="Path 279" d="M241.559,826.31s-7.932,6.739-15.664,6.939c0,0-13.482-.415-9.718,2.58s37.281,7.333,37.281,7.333l1.492-11.579Z" transform="translate(-137.882 -489.911)" fill="#333"/>
  <g id="Group_10" data-name="Group 10" transform="translate(102.289 241.643)" opacity="0.1">
    <path id="Path_280" data-name="Path 280" d="M305.4,600.8s-13.088,18.439-18.244,37.078c0,0-4.57,7.932-3.964,16.063l-8.33,40.252,15.269,5.746s-.794-4.957,2.181-7.732,9.913-30.933,9.319-35.3c0,0,9.519-23.795,19.037-33.114s14.251-11.471,15.651-19.528C336.318,604.281,313.924,593.462,305.4,600.8Z" transform="translate(-274.86 -598.248)"/>
  </g>
  <path id="Path_281" data-name="Path 281" d="M304.467,600.8s-13.088,18.439-18.24,37.078c0,0-4.57,7.932-3.968,16.063l-8.31,40.252,15.248,5.746s-.789-4.957,2.181-7.732,9.918-30.933,9.319-35.3c0,0,9.519-23.795,19.037-33.114s14.255-11.471,15.655-19.528C335.392,604.281,312.993,593.462,304.467,600.8Z" transform="translate(-172.04 -356.604)" fill="#535461"/>
  <g id="Group_11" data-name="Group 11" transform="translate(116.669 241.447)" opacity="0.1">
    <path id="Path_282" data-name="Path 282" d="M333.685,597.777c9.83.116,22.07,6.033,22.07,6.033-1.4,8.044-6.137,10.2-15.651,19.528s-19.037,33.114-19.037,33.114c.594,4.363-6.344,32.52-9.319,35.3-2.589,2.418-2.323,6.486-2.21,7.5l.623.233s-.794-4.957,2.181-7.732,9.913-30.933,9.319-35.3c0,0,9.519-23.795,19.037-33.114s14.255-11.471,15.651-19.528C356.35,603.81,343.607,597.653,333.685,597.777Z" transform="translate(-309.471 -597.776)"/>
  </g>
  <path id="Path_283" data-name="Path 283" d="M280.925,535.18s-9.465,11.787-15.855,14.347a15.379,15.379,0,0,0-2.036,1,8.261,8.261,0,0,1-2.908,1.147,7.039,7.039,0,0,0-2.215.582c-3.324,1.529-10.981,5.667-5.925,9.3,6.344,4.57,14.87-5.95,14.87-5.95a27.19,27.19,0,0,1,5.75-2.775c2.131-.507,11.9-7.337,11.9-7.337Z" transform="translate(-158.22 -319.74)" fill="#ecb4b6"/>
  <path id="Path_284" data-name="Path 284" d="M294.368,512.85l-3.768,3.37,5.551,6.939Z" transform="translate(-169.872 -299.787)" fill="#00a8cc"/>
  <g id="Group_12" data-name="Group 12" transform="translate(120.728 213.063)" opacity="0.1">
    <path id="Path_285" data-name="Path 285" d="M294.368,512.85l-3.768,3.37,5.551,6.939Z" transform="translate(-290.6 -512.85)"/>
  </g>
  <path id="Path_286" data-name="Path 286" d="M335.339,434.48s-9.024,7.736-5.243,9.918l-6.1,15.07,2.1,55.122,8.6-14.276-5.879-30.933s-1.662-18.439,3.149-22.8l4.616-9.141Z" transform="translate(-201.295 -260.88)" fill="#00a8cc"/>
  <g id="Group_13" data-name="Group 13" transform="translate(123.902 170.838)" opacity="0.1">
    <path id="Path_287" data-name="Path 287" d="M338.214,427.83s-9.024,7.736-5.248,9.918L326.88,452.83l2.1,55.122,8.6-14.276-5.875-30.945s-1.662-18.439,3.145-22.8l4.62-9.141Z" transform="translate(-326.88 -427.83)"/>
  </g>
  <path id="Path_288" data-name="Path 288" d="M334.52,400.655s7.337,8.92,7.138,14.077,13.881-8.92,13.881-8.92-5.356-6.544-3.968-13.487S334.52,400.655,334.52,400.655Z" transform="translate(-207.444 -235.181)" fill="#ecb4b6"/>
  <path id="Path_289" data-name="Path 289" d="M435.22,518.87l1.986,15.88v15.664s-2.775,20.226,5.95,16.457,2.36-17.662,2.36-17.662,0-7.736,1.192-11.7-.594-21.418-.594-21.418Z" transform="translate(-266.305 -308.582)" fill="#ecb4b6"/>
  <path id="Path_290" data-name="Path 290" d="M348.623,432.58s-5.331,5.16-8.127,3.37l-3.806,9.461a43.526,43.526,0,0,0-3.1,18.236l1.346,35.757,5.95-.794,1.986-33.908,2.975-20.62Z" transform="translate(-206.876 -259.769)" fill="#f2f2f2"/>
  <g id="Group_14" data-name="Group 14" transform="translate(123.507 167.356)" opacity="0.1">
    <path id="Path_291" data-name="Path 291" d="M348.632,419.45s-7.038,4.857-9.02,9.024c0,0-.2,4.57-1.787,6.544s-3.17,11.9-3.569,23.795-2.181,27.758-2.181,27.758-2.975,15.468-6.145,17.035c0,0,14.671-11.1,21.809-7.333s15.269,12.88,17.65,11.5c0,0-.573-17.38,2.028-26.649.05-.174.1-.349.154-.519,2.775-9.12.993-21.605,4.155-26.965,0,0,0-9.693-1.828-16.931a13.083,13.083,0,0,0-7-8.542l-8.808-4.255S349.426,423.218,348.632,419.45Z" transform="translate(-325.93 -419.45)"/>
  </g>
  <g id="Group_15" data-name="Group 15" transform="translate(123.902 167.356)" opacity="0.1">
    <path id="Path_292" data-name="Path 292" d="M349.187,419.45s-6.648,5.256-8.625,9.419c0,0-.2,4.57-1.782,6.544s-3.174,11.9-3.569,23.795-2.181,27.779-2.181,27.779-2.975,15.464-6.149,17.035c0,0,14.675-11.106,21.813-7.337s15.269,12.88,17.646,11.5c0,0-.569-17.375,2.032-26.645.05-.179.1-.349.15-.519,2.78-9.141.993-21.605,4.155-26.969,0,0,0-9.693-1.832-16.927a13.075,13.075,0,0,0-7-8.546l-8.821-4.271S349.981,423.218,349.187,419.45Z" transform="translate(-326.88 -419.45)"/>
  </g>
  <path id="Path_293" data-name="Path 293" d="M349.088,419.21s-6.544,4.957-8.526,9.141c0,0-.2,4.57-1.782,6.544s-3.174,11.9-3.569,23.795-2.181,27.742-2.181,27.742-2.975,15.468-6.149,17.035c0,0,14.675-11.1,21.813-7.333s15.269,12.88,17.646,11.5c0,0-.569-17.38,2.032-26.649l.15-.519c2.78-9.12.993-21.605,4.155-26.965,0,0,0-9.693-1.832-16.931a13.067,13.067,0,0,0-7-8.542l-8.821-4.271S350.575,422.679,349.088,419.21Z" transform="translate(-202.978 -251.954)" fill="#00a8cc"/>
  <g id="Group_16" data-name="Group 16" transform="translate(153.171 177.458)" opacity="0.1">
    <path id="Path_294" data-name="Path 294" d="M408.408,445.163s20.126,22.9,17.351,33.808c0,0-10.312-2.377-13.088.794a22.749,22.749,0,0,0-8.725-11.5C397.4,464.1,391.374,437.431,408.408,445.163Z" transform="translate(-397.326 -443.765)"/>
  </g>
  <path id="Path_295" data-name="Path 295" d="M408.408,444.211s20.126,22.9,17.351,33.808c0,0-10.312-2.381-13.088.794a22.749,22.749,0,0,0-8.725-11.5C397.4,463.149,391.374,436.475,408.408,444.211Z" transform="translate(-244.155 -265.75)" fill="#00a8cc"/>
  <g id="Group_17" data-name="Group 17" transform="translate(127.887 156.326)" opacity="0.1">
    <path id="Path_296" data-name="Path 296" d="M353.206,398.183c-.312-1.6-.05-1.72.3-3.469,1.388-6.939-17.035,8.31-17.035,8.31s1.026,1.246,2.3,3.083a14.064,14.064,0,0,0,2.854.291C346.662,406.414,350.721,402.159,353.206,398.183Z" transform="translate(-336.47 -392.904)"/>
  </g>
  <circle id="Ellipse_14" data-name="Ellipse 14" cx="14.077" cy="14.077" r="14.077" transform="translate(118.152 140.686)" fill="#ecb4b6"/>
  <g id="Group_18" data-name="Group 18" transform="translate(114.417 129.091)" opacity="0.1">
    <path id="Path_297" data-name="Path 297" d="M309.215,349.173c-2.077.278-4.716-.415-5.115-2.468-.5-2.593,2.967-4.284,3.5-6.872.2-.972-.037-1.986.079-2.971.233-1.986,1.836-3.515,3.469-4.666a26.69,26.69,0,0,1,17.758-4.732,3.964,3.964,0,0,1,2.2.694,8.157,8.157,0,0,1,1.413,2.227c1.608,2.6,5.21,2.908,7.8,4.52,3.029,1.89,4.525,5.6,4.662,9.17s-.881,7.063-1.89,10.491c-.856,2.908-1.753,5.9-3.631,8.285s-4.986,4.055-7.948,3.324c1.354-.976.374-3.237-1.093-4.03s-3.282-.931-4.533-2.023-1.629-2.888-2.04-4.516a11.631,11.631,0,0,0-2.759-5.646C318.156,347.025,312.829,348.687,309.215,349.173Z" transform="translate(-304.051 -327.354)"/>
  </g>
  <path id="Path_298" data-name="Path 298" d="M310.169,348.694c-2.077.283-4.716-.415-5.119-2.464-.5-2.6,2.967-4.284,3.507-6.876.2-.972-.042-1.982.075-2.971.233-1.986,1.841-3.511,3.473-4.666a26.7,26.7,0,0,1,17.754-4.732,3.968,3.968,0,0,1,2.2.7,8.083,8.083,0,0,1,1.417,2.223c1.6,2.6,5.21,2.908,7.8,4.52,3.025,1.89,4.525,5.6,4.658,9.17s-.881,7.063-1.886,10.491c-.86,2.908-1.753,5.9-3.635,8.289s-4.986,4.051-7.944,3.324c1.35-.972.37-3.237-1.093-4.03s-3.282-.927-4.537-2.023-1.629-2.888-2.036-4.516a11.689,11.689,0,0,0-2.759-5.642C319.094,346.546,313.779,348.208,310.169,348.694Z" transform="translate(-190.189 -197.983)" fill="#464353"/>
  <path id="Path_299" data-name="Path 299" d="M353.58,333.764l1.276-6.531a.486.486,0,0,0-.386-.569l-4.5-.877a.482.482,0,0,0-.569.382l-1.276,6.527-4.358,16.121,7.99,1.566Z" transform="translate(-212.85 -197.341)" fill="#00a8cc"/>
  <g id="Group_19" data-name="Group 19" transform="translate(114.824 136.436)" opacity="0.1">
    <path id="Path_300" data-name="Path 300" d="M313.19,350.485a4.475,4.475,0,0,0,.623-1.458c.2-.972-.042-1.986.075-2.971a4.47,4.47,0,0,1,.253-1.026,4.749,4.749,0,0,0-.723,1.965c-.116.989.125,2-.079,2.971a3.112,3.112,0,0,1-.15.519Z" transform="translate(-309.8 -345.03)"/>
    <path id="Path_301" data-name="Path 301" d="M379.514,407.233c-1.849,2.352-4.9,4-7.811,3.361a1.512,1.512,0,0,1-.6.914c2.95.719,6.066-.947,7.944-3.324a14.5,14.5,0,0,0,1.77-2.954A13.188,13.188,0,0,1,379.514,407.233Z" transform="translate(-343.65 -380.218)"/>
    <path id="Path_302" data-name="Path 302" d="M333.1,388.495c1.109-1.03.154-3.133-1.246-3.893-1.467-.794-3.282-.931-4.537-2.023s-1.629-2.888-2.036-4.52a11.689,11.689,0,0,0-2.759-5.642c-2.946-2.946-8.26-1.284-11.87-.8-2.077.278-4.716-.415-5.115-2.468a2.705,2.705,0,0,1,.116-1.45,3.216,3.216,0,0,0-.59,2.393c.415,2.053,3.045,2.746,5.119,2.464,3.611-.486,8.925-2.148,11.87.8A11.893,11.893,0,0,1,324.816,379c.415,1.629.769,3.411,2.036,4.516s3.07,1.246,4.537,2.023A3.3,3.3,0,0,1,333.1,388.495Z" transform="translate(-305.031 -358.281)"/>
  </g>
  <g id="Group_20" data-name="Group 20" transform="translate(127.176 148.123)" opacity="0.1">
    <circle id="Ellipse_15" data-name="Ellipse 15" cx="6.939" cy="6.939" r="6.939"/>
  </g>
  <circle id="Ellipse_16" data-name="Ellipse 16" cx="6.939" cy="6.939" r="6.939" transform="translate(127.176 148.323)" fill="#00a8cc"/>
  <circle id="Ellipse_17" data-name="Ellipse 17" cx="4.545" cy="4.545" r="4.545" transform="translate(129.569 150.716)" fill="#333"/>
  <circle id="Ellipse_18" data-name="Ellipse 18" cx="1.388" cy="1.388" r="1.388" transform="translate(132.727 153.873)" fill="#00a8cc"/>
  <rect id="Rectangle_499" data-name="Rectangle 499" width="5.551" height="0.199" transform="translate(135.397 134.78) rotate(11.05)" opacity="0.05"/>
  <rect id="Rectangle_500" data-name="Rectangle 500" width="6.743" height="16.457" rx="3.372" transform="translate(91.838 231.49) rotate(-25.74)" fill="#cbdae3"/>
  <rect id="Rectangle_501" data-name="Rectangle 501" width="6.743" height="16.457" rx="1.45" transform="translate(91.838 231.49) rotate(-25.74)" fill="#535461"/>
  <rect id="Rectangle_502" data-name="Rectangle 502" width="6.939" height="16.457" rx="1.64" transform="translate(92.371 231.235) rotate(-25.74)" fill="#00a8cc"/>
  <rect id="Rectangle_503" data-name="Rectangle 503" width="5.243" height="12.494" transform="translate(93.652 231.938) rotate(-25.74)" fill="#f2f2f2"/>
  <ellipse id="Ellipse_19" data-name="Ellipse 19" cx="0.594" cy="0.794" rx="0.594" ry="0.794" transform="translate(101.253 242.805) rotate(-25.74)" fill="#f2f2f2"/>
  <g id="Group_21" data-name="Group 21" transform="translate(138.66 230.906)" opacity="0.1">
    <path id="Path_303" data-name="Path 303" d="M362.4,573.022a22.776,22.776,0,0,1,8.143,1.6,12.953,12.953,0,0,0,8.555,0S366.567,570.99,362.4,573.022Z" transform="translate(-362.4 -572.405)"/>
  </g>
  <path id="Path_304" data-name="Path 304" d="M696.633,754.23s2.584,3.378-1.192,8.48-6.889,9.407-5.63,12.585c0,0,5.7-9.473,10.333-9.606S701.735,759.926,696.633,754.23Z" transform="translate(-414.951 -447.779)" fill="#00a8cc"/>
  <path id="Path_305" data-name="Path 305" d="M696.839,754.23a4.155,4.155,0,0,1,.528,1.06c4.525,5.314,6.939,10.275,2.589,10.387-4.051.116-8.912,7.362-10.076,9.19a3.746,3.746,0,0,0,.137.415s5.7-9.473,10.333-9.606S701.941,759.926,696.839,754.23Z" transform="translate(-415.158 -447.779)" opacity="0.1"/>
  <path id="Path_306" data-name="Path 306" d="M717.354,763.519c0,1.192-.133,2.156-.295,2.156s-.3-.964-.3-2.156.166-.627.332-.627S717.354,762.331,717.354,763.519Z" transform="translate(-430.869 -452.763)" fill="#ffd037"/>
  <path id="Path_307" data-name="Path 307" d="M719.294,766.855c-1.043.569-1.953.914-2.032.769s.7-.723,1.745-1.292.636-.154.715,0S720.337,766.289,719.294,766.855Z" transform="translate(-431.16 -454.682)" fill="#ffd037"/>
  <path id="Path_308" data-name="Path 308" d="M665.633,754.23s-2.584,3.378,1.192,8.48,6.889,9.407,5.63,12.585c0,0-5.7-9.473-10.333-9.606S660.531,759.926,665.633,754.23Z" transform="translate(-397.596 -447.779)" fill="#00a8cc"/>
  <path id="Path_309" data-name="Path 309" d="M665.633,754.23a4.156,4.156,0,0,0-.528,1.06c-4.525,5.314-6.934,10.275-2.584,10.387,4.051.116,8.908,7.362,10.071,9.19a3.746,3.746,0,0,1-.137.415s-5.7-9.473-10.333-9.606S660.531,759.926,665.633,754.23Z" transform="translate(-397.596 -447.779)" opacity="0.1"/>
  <path id="Path_310" data-name="Path 310" d="M662.23,763.519c0,1.192.133,2.156.3,2.156s.3-.964.3-2.156-.17-.627-.332-.627S662.23,762.331,662.23,763.519Z" transform="translate(-398.996 -452.763)" fill="#ffd037"/>
  <path id="Path_311" data-name="Path 311" d="M657.369,766.855c1.047.569,1.957.914,2.036.769s-.706-.723-1.749-1.292-.632-.154-.71,0S656.326,766.289,657.369,766.855Z" transform="translate(-395.784 -454.682)" fill="#ffd037"/>
  <path id="Path_312" data-name="Path 312" d="M664.21,798.379s7.225-.224,9.4-1.774,11.11-3.4,11.634-.914,10.852,12.365,2.7,12.431-18.95-1.271-21.123-2.6S664.21,798.379,664.21,798.379Z" transform="translate(-400.153 -471.303)" fill="#a8a8a8"/>
  <path id="Path_313" data-name="Path 313" d="M688.109,812.733c-8.156.066-18.95-1.267-21.123-2.593-1.662-1.005-2.314-4.624-2.534-6.29h-.241s.457,5.817,2.63,7.146,12.967,2.663,21.123,2.6c2.352-.021,3.166-.856,3.12-2.1C690.759,812.251,689.858,812.721,688.109,812.733Z" transform="translate(-400.153 -476.782)" opacity="0.2"/>
  <path id="Path_314" data-name="Path 314" d="M613.47,808.091a3.848,3.848,0,0,0,1.246-1.9,1.688,1.688,0,0,0-.881-1.932,2.432,2.432,0,0,0-2.327.831,3.075,3.075,0,0,1-2.264,1.093,3.44,3.44,0,0,0,1.064-3.224,1.354,1.354,0,0,0-.295-.656c-.449-.478-1.247-.27-1.8.108-1.708,1.2-2.185,3.519-2.194,5.609a10.462,10.462,0,0,1-.033-2.31,2.37,2.37,0,0,0-.868-2.044,2.576,2.576,0,0,0-1.321-.312,2.722,2.722,0,0,0-2.148.611,2.133,2.133,0,0,0,.083,2.634,8.482,8.482,0,0,0,2.223,1.782,4.861,4.861,0,0,1,1.587,1.516,1.252,1.252,0,0,1,.12.27h4.815A13.379,13.379,0,0,0,613.47,808.091Z" transform="translate(-363.34 -475.714)" fill="#00a8cc"/>
  <path id="Path_315" data-name="Path 315" d="M549.57,739.741s-4.62-15.676.864-27.214a24.758,24.758,0,0,0,1.99-15.535,42.045,42.045,0,0,0-2.2-7.292" transform="translate(-332.081 -410.06)" fill="none" stroke="#535461" stroke-miterlimit="10" stroke-width="2"/>
  <path id="Path_316" data-name="Path 316" d="M552.209,667.421c0,1.919-3.482,7.479-3.482,7.479s-3.478-5.572-3.478-7.479a3.482,3.482,0,0,1,6.959,0Z" transform="translate(-330.619 -395.072)" fill="#00a8cc"/>
  <path id="Path_317" data-name="Path 317" d="M565.953,690.205c-1.047,1.616-6.993,4.4-6.993,4.4s.108-6.569,1.151-8.181a3.479,3.479,0,0,1,5.842,3.781Z" transform="translate(-338.633 -407.216)" fill="#00a8cc"/>
  <path id="Path_318" data-name="Path 318" d="M563.566,732.266c-1.716.868-8.256.27-8.256.27s3.407-5.617,5.123-6.481a3.478,3.478,0,1,1,3.133,6.211Z" transform="translate(-336.499 -431.092)" fill="#00a8cc"/>
  <path id="Path_319" data-name="Path 319" d="M555.884,765.716c-1.546,1.143-8.094,1.662-8.094,1.662s2.41-6.112,3.955-7.254a3.485,3.485,0,0,1,4.155,5.6Z" transform="translate(-332.104 -450.822)" fill="#00a8cc"/>
  <path id="Path_320" data-name="Path 320" d="M539.9,700.845c1.375,1.338,7.8,2.726,7.8,2.726s-1.575-6.378-2.95-7.716a3.478,3.478,0,1,0-4.849,4.986Z" transform="translate(-326.875 -413.082)" fill="#00a8cc"/>
  <path id="Path_321" data-name="Path 321" d="M529.906,738.738c1.716.868,8.256.27,8.256.27s-3.407-5.617-5.123-6.482a3.488,3.488,0,1,0-3.133,6.232Z" transform="translate(-320.527 -434.875)" fill="#00a8cc"/>
  <path id="Path_322" data-name="Path 322" d="M527.248,777.945c1.546,1.143,8.094,1.662,8.094,1.662s-2.41-6.112-3.955-7.254a3.483,3.483,0,1,0-4.155,5.592Z" transform="translate(-319.265 -457.97)" fill="#00a8cc"/>
  <path id="Path_323" data-name="Path 323" d="M552.209,667.421c0,1.919-3.482,7.479-3.482,7.479s-3.478-5.572-3.478-7.479a3.482,3.482,0,0,1,6.959,0Z" transform="translate(-330.619 -395.072)" fill="#00a8cc"/>
  <path id="Path_324" data-name="Path 324" d="M565.953,690.205c-1.047,1.616-6.993,4.4-6.993,4.4s.108-6.569,1.151-8.181a3.479,3.479,0,0,1,5.842,3.781Z" transform="translate(-338.633 -407.216)" fill="#00a8cc"/>
  <path id="Path_325" data-name="Path 325" d="M563.566,732.266c-1.716.868-8.256.27-8.256.27s3.407-5.617,5.123-6.481a3.478,3.478,0,1,1,3.133,6.211Z" transform="translate(-336.499 -431.092)" fill="#00a8cc"/>
  <path id="Path_326" data-name="Path 326" d="M555.884,765.716c-1.546,1.143-8.094,1.662-8.094,1.662s2.41-6.112,3.955-7.254a3.485,3.485,0,0,1,4.155,5.6Z" transform="translate(-332.104 -450.822)" fill="#00a8cc"/>
  <path id="Path_327" data-name="Path 327" d="M539.9,700.845c1.375,1.338,7.8,2.726,7.8,2.726s-1.575-6.378-2.95-7.716a3.478,3.478,0,1,0-4.849,4.986Z" transform="translate(-326.875 -413.082)" fill="#00a8cc"/>
  <path id="Path_328" data-name="Path 328" d="M529.906,738.738c1.716.868,8.256.27,8.256.27s-3.407-5.617-5.123-6.482a3.488,3.488,0,1,0-3.133,6.232Z" transform="translate(-320.527 -434.875)" fill="#00a8cc"/>
  <path id="Path_329" data-name="Path 329" d="M527.248,777.945c1.546,1.143,8.094,1.662,8.094,1.662s-2.41-6.112-3.955-7.254a3.483,3.483,0,1,0-4.155,5.592Z" transform="translate(-319.265 -457.97)" fill="#00a8cc"/>
  <path id="Path_330" data-name="Path 330" d="M525.86,800.045s5.621-1.118,7.121-2.605,8.247-4.093,9-2.235,10.121,8.189,3.739,9.307-14.991,1.487-16.865.744S525.86,800.045,525.86,800.045Z" transform="translate(-319.285 -471.353)" fill="#a8a8a8"/>
  <path id="Path_331" data-name="Path 331" d="M545.728,811.457c-6.374,1.118-14.995,1.487-16.869.744-1.429-.565-2.418-3.291-2.813-4.57l-.187.042s1.126,4.466,3,5.21,10.5.37,16.869-.744c1.836-.324,2.364-1.08,2.165-2.04C547.735,810.738,547.108,811.216,545.728,811.457Z" transform="translate(-319.285 -478.992)" opacity="0.2"/>
</svg>
